<?xml version="1.0" encoding="UTF-8" standalone="no"?>
<!DOCTYPE svg PUBLIC "-//W3C//DTD SVG 1.1//EN"
 "http://www.w3.org/Graphics/SVG/1.1/DTD/svg11.dtd">
<!-- Generated by graphviz version 2.43.0 (0)
 -->
<!-- Title: src/Actions/AllASTBuilderAction.cpp Pages: 1 -->
<svg width="1020pt" height="159pt"
 viewBox="0.00 0.00 1019.50 159.00" xmlns="http://www.w3.org/2000/svg" xmlns:xlink="http://www.w3.org/1999/xlink">
<g id="graph0" class="graph" transform="scale(1 1) rotate(0) translate(4 155)">
<title>src/Actions/AllASTBuilderAction.cpp</title>
<!-- Node1 -->
<g id="Node000001" class="node">
<title>Node1</title>
<g id="a_Node000001"><a xlink:title=" ">
<polygon fill="#999999" stroke="#666666" points="807.5,-151 668.5,-151 668.5,-121 807.5,-121 807.5,-151"/>
<text text-anchor="start" x="676.5" y="-139" font-family="Helvetica,sans-Serif" font-size="10.00">src/Actions/AllASTBuilder</text>
<text text-anchor="middle" x="738" y="-128" font-family="Helvetica,sans-Serif" font-size="10.00">Action.cpp</text>
</a>
</g>
</g>
<!-- Node2 -->
<g id="Node000002" class="node">
<title>Node2</title>
<g id="a_Node000002"><a xlink:href="AllASTBuilderAction_8hpp.html" target="_top" xlink:title=" ">
<polygon fill="white" stroke="#666666" points="736.5,-85 563.5,-85 563.5,-66 736.5,-66 736.5,-85"/>
<text text-anchor="middle" x="650" y="-73" font-family="Helvetica,sans-Serif" font-size="10.00">Actions/AllASTBuilderAction.hpp</text>
</a>
</g>
</g>
<!-- Node1&#45;&gt;Node2 -->
<g id="edge1_Node000001_Node000002" class="edge">
<title>Node1&#45;&gt;Node2</title>
<g id="a_edge1_Node000001_Node000002"><a xlink:title=" ">
<path fill="none" stroke="#63b8ff" d="M716.7,-120.84C702.93,-111.68 685.07,-99.82 671.3,-90.66"/>
<polygon fill="#63b8ff" stroke="#63b8ff" points="673.19,-87.72 662.93,-85.09 669.32,-93.55 673.19,-87.72"/>
</a>
</g>
</g>
<!-- Node10 -->
<g id="Node000010" class="node">
<title>Node10</title>
<g id="a_Node000010"><a xlink:title=" ">
<polygon fill="#e0e0e0" stroke="#999999" points="897.5,-85 754.5,-85 754.5,-66 897.5,-66 897.5,-85"/>
<text text-anchor="middle" x="826" y="-73" font-family="Helvetica,sans-Serif" font-size="10.00">clang/Basic/FileManager.h</text>
</a>
</g>
</g>
<!-- Node1&#45;&gt;Node10 -->
<g id="edge9_Node000001_Node000010" class="edge">
<title>Node1&#45;&gt;Node10</title>
<g id="a_edge9_Node000001_Node000010"><a xlink:title=" ">
<path fill="none" stroke="#63b8ff" d="M759.3,-120.84C773.07,-111.68 790.93,-99.82 804.7,-90.66"/>
<polygon fill="#63b8ff" stroke="#63b8ff" points="806.68,-93.55 813.07,-85.09 802.81,-87.72 806.68,-93.55"/>
</a>
</g>
</g>
<!-- Node3 -->
<g id="Node000003" class="node">
<title>Node3</title>
<g id="a_Node000003"><a xlink:title=" ">
<polygon fill="#e0e0e0" stroke="#999999" points="140,-24.5 0,-24.5 0,-5.5 140,-5.5 140,-24.5"/>
<text text-anchor="middle" x="70" y="-12.5" font-family="Helvetica,sans-Serif" font-size="10.00">clang/Frontend/ASTUnit.h</text>
</a>
</g>
</g>
<!-- Node2&#45;&gt;Node3 -->
<g id="edge2_Node000002_Node000003" class="edge">
<title>Node2&#45;&gt;Node3</title>
<g id="a_edge2_Node000002_Node000003"><a xlink:title=" ">
<path fill="none" stroke="#63b8ff" d="M563.31,-69.09C463.22,-62.32 293.78,-49.22 149,-30 140.95,-28.93 132.47,-27.62 124.17,-26.24"/>
<polygon fill="#63b8ff" stroke="#63b8ff" points="124.63,-22.77 114.18,-24.53 123.45,-29.67 124.63,-22.77"/>
</a>
</g>
</g>
<!-- Node4 -->
<g id="Node000004" class="node">
<title>Node4</title>
<g id="a_Node000004"><a xlink:title=" ">
<polygon fill="#e0e0e0" stroke="#999999" points="344,-24.5 158,-24.5 158,-5.5 344,-5.5 344,-24.5"/>
<text text-anchor="middle" x="251" y="-12.5" font-family="Helvetica,sans-Serif" font-size="10.00">clang/Frontend/CompilerInstance.h</text>
</a>
</g>
</g>
<!-- Node2&#45;&gt;Node4 -->
<g id="edge3_Node000002_Node000004" class="edge">
<title>Node2&#45;&gt;Node4</title>
<g id="a_edge3_Node000002_Node000004"><a xlink:title=" ">
<path fill="none" stroke="#63b8ff" d="M591.98,-65.99C519.58,-55.38 395.97,-37.26 319.14,-25.99"/>
<polygon fill="#63b8ff" stroke="#63b8ff" points="319.49,-22.5 309.09,-24.52 318.47,-29.43 319.49,-22.5"/>
</a>
</g>
</g>
<!-- Node5 -->
<g id="Node000005" class="node">
<title>Node5</title>
<g id="a_Node000005"><a xlink:title=" ">
<polygon fill="#e0e0e0" stroke="#999999" points="558,-24.5 362,-24.5 362,-5.5 558,-5.5 558,-24.5"/>
<text text-anchor="middle" x="460" y="-12.5" font-family="Helvetica,sans-Serif" font-size="10.00">clang/Frontend/CompilerInvocation.h</text>
</a>
</g>
</g>
<!-- Node2&#45;&gt;Node5 -->
<g id="edge4_Node000002_Node000005" class="edge">
<title>Node2&#45;&gt;Node5</title>
<g id="a_edge4_Node000002_Node000005"><a xlink:title=" ">
<path fill="none" stroke="#63b8ff" d="M622.37,-65.99C589.45,-55.86 534.27,-38.87 497.51,-27.55"/>
<polygon fill="#63b8ff" stroke="#63b8ff" points="498.25,-24.11 487.66,-24.52 496.19,-30.8 498.25,-24.11"/>
</a>
</g>
</g>
<!-- Node6 -->
<g id="Node000006" class="node">
<title>Node6</title>
<g id="a_Node000006"><a xlink:title=" ">
<polygon fill="#e0e0e0" stroke="#999999" points="724.5,-30 575.5,-30 575.5,0 724.5,0 724.5,-30"/>
<text text-anchor="start" x="583.5" y="-18" font-family="Helvetica,sans-Serif" font-size="10.00">clang/Serialization</text>
<text text-anchor="middle" x="650" y="-7" font-family="Helvetica,sans-Serif" font-size="10.00">/PCHContainerOperations.h</text>
</a>
</g>
</g>
<!-- Node2&#45;&gt;Node6 -->
<g id="edge5_Node000002_Node000006" class="edge">
<title>Node2&#45;&gt;Node6</title>
<g id="a_edge5_Node000002_Node000006"><a xlink:title=" ">
<path fill="none" stroke="#63b8ff" d="M650,-65.87C650,-59.11 650,-49.35 650,-40.26"/>
<polygon fill="#63b8ff" stroke="#63b8ff" points="653.5,-40.11 650,-30.11 646.5,-40.11 653.5,-40.11"/>
</a>
</g>
</g>
<!-- Node7 -->
<g id="Node000007" class="node">
<title>Node7</title>
<g id="a_Node000007"><a xlink:title=" ">
<polygon fill="#e0e0e0" stroke="#999999" points="869.5,-24.5 742.5,-24.5 742.5,-5.5 869.5,-5.5 869.5,-24.5"/>
<text text-anchor="middle" x="806" y="-12.5" font-family="Helvetica,sans-Serif" font-size="10.00">clang/Tooling/Tooling.h</text>
</a>
</g>
</g>
<!-- Node2&#45;&gt;Node7 -->
<g id="edge6_Node000002_Node000007" class="edge">
<title>Node2&#45;&gt;Node7</title>
<g id="a_edge6_Node000002_Node000007"><a xlink:title=" ">
<path fill="none" stroke="#63b8ff" d="M672.68,-65.99C699.26,-56.03 743.48,-39.45 773.64,-28.13"/>
<polygon fill="#63b8ff" stroke="#63b8ff" points="775.15,-31.31 783.29,-24.52 772.7,-24.75 775.15,-31.31"/>
</a>
</g>
</g>
<!-- Node8 -->
<g id="Node000008" class="node">
<title>Node8</title>
<g id="a_Node000008"><a xlink:title=" ">
<polygon fill="#e0e0e0" stroke="#999999" points="946,-24.5 888,-24.5 888,-5.5 946,-5.5 946,-24.5"/>
<text text-anchor="middle" x="917" y="-12.5" font-family="Helvetica,sans-Serif" font-size="10.00">memory</text>
</a>
</g>
</g>
<!-- Node2&#45;&gt;Node8 -->
<g id="edge7_Node000002_Node000008" class="edge">
<title>Node2&#45;&gt;Node8</title>
<g id="a_edge7_Node000002_Node000008"><a xlink:title=" ">
<path fill="none" stroke="#63b8ff" d="M707.53,-65.96C754.21,-58.4 821.47,-46.08 879,-30 881.29,-29.36 883.63,-28.65 885.97,-27.89"/>
<polygon fill="#63b8ff" stroke="#63b8ff" points="887.18,-31.18 895.49,-24.61 884.9,-24.56 887.18,-31.18"/>
</a>
</g>
</g>
<!-- Node9 -->
<g id="Node000009" class="node">
<title>Node9</title>
<g id="a_Node000009"><a xlink:title=" ">
<polygon fill="#e0e0e0" stroke="#999999" points="1011.5,-24.5 964.5,-24.5 964.5,-5.5 1011.5,-5.5 1011.5,-24.5"/>
<text text-anchor="middle" x="988" y="-12.5" font-family="Helvetica,sans-Serif" font-size="10.00">vector</text>
</a>
</g>
</g>
<!-- Node2&#45;&gt;Node9 -->
<g id="edge8_Node000002_Node000009" class="edge">
<title>Node2&#45;&gt;Node9</title>
<g id="a_edge8_Node000002_Node000009"><a xlink:title=" ">
<path fill="none" stroke="#63b8ff" d="M723.49,-65.97C799.46,-56.77 912.75,-41.83 955,-30 956.89,-29.47 958.81,-28.86 960.73,-28.2"/>
<polygon fill="#63b8ff" stroke="#63b8ff" points="962.08,-31.43 970.14,-24.56 959.56,-24.9 962.08,-31.43"/>
</a>
</g>
</g>
</g>
</svg>
