<?xml version="1.0" encoding="UTF-8" standalone="no"?>
<!DOCTYPE svg PUBLIC "-//W3C//DTD SVG 1.1//EN"
 "http://www.w3.org/Graphics/SVG/1.1/DTD/svg11.dtd">
<!-- Generated by graphviz version 2.43.0 (0)
 -->
<!-- Title: include/Actions/AllASTBuilderAction.hpp Pages: 1 -->
<svg width="1020pt" height="104pt"
 viewBox="0.00 0.00 1019.50 104.00" xmlns="http://www.w3.org/2000/svg" xmlns:xlink="http://www.w3.org/1999/xlink">
<g id="graph0" class="graph" transform="scale(1 1) rotate(0) translate(4 100)">
<title>include/Actions/AllASTBuilderAction.hpp</title>
<!-- Node1 -->
<g id="Node000001" class="node">
<title>Node1</title>
<g id="a_Node000001"><a xlink:title=" ">
<polygon fill="#999999" stroke="#666666" points="473,-96 313,-96 313,-66 473,-66 473,-96"/>
<text text-anchor="start" x="321" y="-84" font-family="Helvetica,sans-Serif" font-size="10.00">include/Actions/AllASTBuilder</text>
<text text-anchor="middle" x="393" y="-73" font-family="Helvetica,sans-Serif" font-size="10.00">Action.hpp</text>
</a>
</g>
</g>
<!-- Node2 -->
<g id="Node000002" class="node">
<title>Node2</title>
<g id="a_Node000002"><a xlink:title=" ">
<polygon fill="#e0e0e0" stroke="#999999" points="58,-24.5 0,-24.5 0,-5.5 58,-5.5 58,-24.5"/>
<text text-anchor="middle" x="29" y="-12.5" font-family="Helvetica,sans-Serif" font-size="10.00">memory</text>
</a>
</g>
</g>
<!-- Node1&#45;&gt;Node2 -->
<g id="edge1_Node000001_Node000002" class="edge">
<title>Node1&#45;&gt;Node2</title>
<g id="a_edge1_Node000001_Node000002"><a xlink:title=" ">
<path fill="none" stroke="#63b8ff" d="M312.71,-72.23C246.17,-64.72 149.47,-51.29 67,-30 64.56,-29.37 62.05,-28.64 59.55,-27.85"/>
<polygon fill="#63b8ff" stroke="#63b8ff" points="60.66,-24.53 50.06,-24.61 58.4,-31.16 60.66,-24.53"/>
</a>
</g>
</g>
<!-- Node3 -->
<g id="Node000003" class="node">
<title>Node3</title>
<g id="a_Node000003"><a xlink:title=" ">
<polygon fill="#e0e0e0" stroke="#999999" points="123.5,-24.5 76.5,-24.5 76.5,-5.5 123.5,-5.5 123.5,-24.5"/>
<text text-anchor="middle" x="100" y="-12.5" font-family="Helvetica,sans-Serif" font-size="10.00">vector</text>
</a>
</g>
</g>
<!-- Node1&#45;&gt;Node3 -->
<g id="edge2_Node000001_Node000003" class="edge">
<title>Node1&#45;&gt;Node3</title>
<g id="a_edge2_Node000001_Node000003"><a xlink:title=" ">
<path fill="none" stroke="#63b8ff" d="M312.86,-69.07C260.91,-60.9 192.14,-48.01 133,-30 131.32,-29.49 129.61,-28.92 127.9,-28.31"/>
<polygon fill="#63b8ff" stroke="#63b8ff" points="128.83,-24.92 118.25,-24.55 126.29,-31.44 128.83,-24.92"/>
</a>
</g>
</g>
<!-- Node4 -->
<g id="Node000004" class="node">
<title>Node4</title>
<g id="a_Node000004"><a xlink:title=" ">
<polygon fill="#e0e0e0" stroke="#999999" points="282,-24.5 142,-24.5 142,-5.5 282,-5.5 282,-24.5"/>
<text text-anchor="middle" x="212" y="-12.5" font-family="Helvetica,sans-Serif" font-size="10.00">clang/Frontend/ASTUnit.h</text>
</a>
</g>
</g>
<!-- Node1&#45;&gt;Node4 -->
<g id="edge3_Node000001_Node000004" class="edge">
<title>Node1&#45;&gt;Node4</title>
<g id="a_edge3_Node000001_Node000004"><a xlink:title=" ">
<path fill="none" stroke="#63b8ff" d="M353.28,-65.95C321.12,-54.58 276.3,-38.74 245.83,-27.96"/>
<polygon fill="#63b8ff" stroke="#63b8ff" points="246.68,-24.55 236.09,-24.52 244.35,-31.15 246.68,-24.55"/>
</a>
</g>
</g>
<!-- Node5 -->
<g id="Node000005" class="node">
<title>Node5</title>
<g id="a_Node000005"><a xlink:title=" ">
<polygon fill="#e0e0e0" stroke="#999999" points="486,-24.5 300,-24.5 300,-5.5 486,-5.5 486,-24.5"/>
<text text-anchor="middle" x="393" y="-12.5" font-family="Helvetica,sans-Serif" font-size="10.00">clang/Frontend/CompilerInstance.h</text>
</a>
</g>
</g>
<!-- Node1&#45;&gt;Node5 -->
<g id="edge4_Node000001_Node000005" class="edge">
<title>Node1&#45;&gt;Node5</title>
<g id="a_edge4_Node000001_Node000005"><a xlink:title=" ">
<path fill="none" stroke="#63b8ff" d="M393,-65.8C393,-56.7 393,-44.79 393,-34.9"/>
<polygon fill="#63b8ff" stroke="#63b8ff" points="396.5,-34.84 393,-24.84 389.5,-34.84 396.5,-34.84"/>
</a>
</g>
</g>
<!-- Node6 -->
<g id="Node000006" class="node">
<title>Node6</title>
<g id="a_Node000006"><a xlink:title=" ">
<polygon fill="#e0e0e0" stroke="#999999" points="700,-24.5 504,-24.5 504,-5.5 700,-5.5 700,-24.5"/>
<text text-anchor="middle" x="602" y="-12.5" font-family="Helvetica,sans-Serif" font-size="10.00">clang/Frontend/CompilerInvocation.h</text>
</a>
</g>
</g>
<!-- Node1&#45;&gt;Node6 -->
<g id="edge5_Node000001_Node000006" class="edge">
<title>Node1&#45;&gt;Node6</title>
<g id="a_edge5_Node000001_Node000006"><a xlink:title=" ">
<path fill="none" stroke="#63b8ff" d="M438.87,-65.95C476.49,-54.43 529.1,-38.32 564.3,-27.54"/>
<polygon fill="#63b8ff" stroke="#63b8ff" points="565.65,-30.79 574.19,-24.52 563.6,-24.1 565.65,-30.79"/>
</a>
</g>
</g>
<!-- Node7 -->
<g id="Node000007" class="node">
<title>Node7</title>
<g id="a_Node000007"><a xlink:title=" ">
<polygon fill="#e0e0e0" stroke="#999999" points="866.5,-30 717.5,-30 717.5,0 866.5,0 866.5,-30"/>
<text text-anchor="start" x="725.5" y="-18" font-family="Helvetica,sans-Serif" font-size="10.00">clang/Serialization</text>
<text text-anchor="middle" x="792" y="-7" font-family="Helvetica,sans-Serif" font-size="10.00">/PCHContainerOperations.h</text>
</a>
</g>
</g>
<!-- Node1&#45;&gt;Node7 -->
<g id="edge6_Node000001_Node000007" class="edge">
<title>Node1&#45;&gt;Node7</title>
<g id="a_edge6_Node000001_Node000007"><a xlink:title=" ">
<path fill="none" stroke="#63b8ff" d="M473.23,-67.54C534.69,-57.93 621.89,-44.2 707.22,-30.28"/>
<polygon fill="#63b8ff" stroke="#63b8ff" points="708.04,-33.69 717.35,-28.63 706.92,-26.79 708.04,-33.69"/>
</a>
</g>
</g>
<!-- Node8 -->
<g id="Node000008" class="node">
<title>Node8</title>
<g id="a_Node000008"><a xlink:title=" ">
<polygon fill="#e0e0e0" stroke="#999999" points="1011.5,-24.5 884.5,-24.5 884.5,-5.5 1011.5,-5.5 1011.5,-24.5"/>
<text text-anchor="middle" x="948" y="-12.5" font-family="Helvetica,sans-Serif" font-size="10.00">clang/Tooling/Tooling.h</text>
</a>
</g>
</g>
<!-- Node1&#45;&gt;Node8 -->
<g id="edge7_Node000001_Node000008" class="edge">
<title>Node1&#45;&gt;Node8</title>
<g id="a_edge7_Node000001_Node000008"><a xlink:title=" ">
<path fill="none" stroke="#63b8ff" d="M473.18,-73.9C569.23,-66.08 734.87,-50.98 876,-30 882.85,-28.98 890.05,-27.76 897.13,-26.48"/>
<polygon fill="#63b8ff" stroke="#63b8ff" points="898.18,-29.84 907.37,-24.56 896.89,-22.96 898.18,-29.84"/>
</a>
</g>
</g>
</g>
</svg>
