<?xml version="1.0" encoding="UTF-8" standalone="no"?>
<!DOCTYPE svg PUBLIC "-//W3C//DTD SVG 1.1//EN"
 "http://www.w3.org/Graphics/SVG/1.1/DTD/svg11.dtd">
<!-- Generated by graphviz version 2.43.0 (0)
 -->
<!-- Title: src/Actions/AllASTBuilderAction.cpp Pages: 1 -->
<svg width="1226pt" height="159pt"
 viewBox="0.00 0.00 1225.50 159.00" xmlns="http://www.w3.org/2000/svg" xmlns:xlink="http://www.w3.org/1999/xlink">
<g id="graph0" class="graph" transform="scale(1 1) rotate(0) translate(4 155)">
<title>src/Actions/AllASTBuilderAction.cpp</title>
<!-- Node1 -->
<g id="Node000001" class="node">
<title>Node1</title>
<g id="a_Node000001"><a xlink:title=" ">
<polygon fill="#999999" stroke="#666666" points="575.5,-151 436.5,-151 436.5,-121 575.5,-121 575.5,-151"/>
<text text-anchor="start" x="444.5" y="-139" font-family="Helvetica,sans-Serif" font-size="10.00">src/Actions/AllASTBuilder</text>
<text text-anchor="middle" x="506" y="-128" font-family="Helvetica,sans-Serif" font-size="10.00">Action.cpp</text>
</a>
</g>
</g>
<!-- Node2 -->
<g id="Node000002" class="node">
<title>Node2</title>
<g id="a_Node000002"><a xlink:href="AllASTBuilderAction_8hpp.html" target="_top" xlink:title=" ">
<polygon fill="white" stroke="#666666" points="504.5,-85 331.5,-85 331.5,-66 504.5,-66 504.5,-85"/>
<text text-anchor="middle" x="418" y="-73" font-family="Helvetica,sans-Serif" font-size="10.00">Actions/AllASTBuilderAction.hpp</text>
</a>
</g>
</g>
<!-- Node1&#45;&gt;Node2 -->
<g id="edge1_Node000001_Node000002" class="edge">
<title>Node1&#45;&gt;Node2</title>
<g id="a_edge1_Node000001_Node000002"><a xlink:title=" ">
<path fill="none" stroke="#63b8ff" d="M484.7,-120.84C470.93,-111.68 453.07,-99.82 439.3,-90.66"/>
<polygon fill="#63b8ff" stroke="#63b8ff" points="441.19,-87.72 430.93,-85.09 437.32,-93.55 441.19,-87.72"/>
</a>
</g>
</g>
<!-- Node12 -->
<g id="Node000012" class="node">
<title>Node12</title>
<g id="a_Node000012"><a xlink:title=" ">
<polygon fill="#e0e0e0" stroke="#999999" points="665.5,-85 522.5,-85 522.5,-66 665.5,-66 665.5,-85"/>
<text text-anchor="middle" x="594" y="-73" font-family="Helvetica,sans-Serif" font-size="10.00">clang/Basic/FileManager.h</text>
</a>
</g>
</g>
<!-- Node1&#45;&gt;Node12 -->
<g id="edge11_Node000001_Node000012" class="edge">
<title>Node1&#45;&gt;Node12</title>
<g id="a_edge11_Node000001_Node000012"><a xlink:title=" ">
<path fill="none" stroke="#63b8ff" d="M527.3,-120.84C541.07,-111.68 558.93,-99.82 572.7,-90.66"/>
<polygon fill="#63b8ff" stroke="#63b8ff" points="574.68,-93.55 581.07,-85.09 570.81,-87.72 574.68,-93.55"/>
</a>
</g>
</g>
<!-- Node3 -->
<g id="Node000003" class="node">
<title>Node3</title>
<g id="a_Node000003"><a xlink:title=" ">
<polygon fill="#e0e0e0" stroke="#999999" points="60,-24.5 0,-24.5 0,-5.5 60,-5.5 60,-24.5"/>
<text text-anchor="middle" x="30" y="-12.5" font-family="Helvetica,sans-Serif" font-size="10.00">iostream</text>
</a>
</g>
</g>
<!-- Node2&#45;&gt;Node3 -->
<g id="edge2_Node000002_Node000003" class="edge">
<title>Node2&#45;&gt;Node3</title>
<g id="a_edge2_Node000002_Node000003"><a xlink:title=" ">
<path fill="none" stroke="#63b8ff" d="M331.36,-68.73C260.16,-62.73 157.05,-51.15 69,-30 66.34,-29.36 63.6,-28.6 60.88,-27.77"/>
<polygon fill="#63b8ff" stroke="#63b8ff" points="61.79,-24.39 51.2,-24.56 59.59,-31.03 61.79,-24.39"/>
</a>
</g>
</g>
<!-- Node4 -->
<g id="Node000004" class="node">
<title>Node4</title>
<g id="a_Node000004"><a xlink:title=" ">
<polygon fill="#e0e0e0" stroke="#999999" points="136,-24.5 78,-24.5 78,-5.5 136,-5.5 136,-24.5"/>
<text text-anchor="middle" x="107" y="-12.5" font-family="Helvetica,sans-Serif" font-size="10.00">memory</text>
</a>
</g>
</g>
<!-- Node2&#45;&gt;Node4 -->
<g id="edge3_Node000002_Node000004" class="edge">
<title>Node2&#45;&gt;Node4</title>
<g id="a_edge3_Node000002_Node000004"><a xlink:title=" ">
<path fill="none" stroke="#63b8ff" d="M341.28,-65.98C286.11,-58.9 210.25,-47.17 145,-30 142.56,-29.36 140.06,-28.62 137.56,-27.83"/>
<polygon fill="#63b8ff" stroke="#63b8ff" points="138.67,-24.51 128.07,-24.58 136.4,-31.13 138.67,-24.51"/>
</a>
</g>
</g>
<!-- Node5 -->
<g id="Node000005" class="node">
<title>Node5</title>
<g id="a_Node000005"><a xlink:title=" ">
<polygon fill="#e0e0e0" stroke="#999999" points="201.5,-24.5 154.5,-24.5 154.5,-5.5 201.5,-5.5 201.5,-24.5"/>
<text text-anchor="middle" x="178" y="-12.5" font-family="Helvetica,sans-Serif" font-size="10.00">vector</text>
</a>
</g>
</g>
<!-- Node2&#45;&gt;Node5 -->
<g id="edge4_Node000002_Node000005" class="edge">
<title>Node2&#45;&gt;Node5</title>
<g id="a_edge4_Node000002_Node000005"><a xlink:title=" ">
<path fill="none" stroke="#63b8ff" d="M364.96,-65.96C322.71,-58.47 262.34,-46.25 211,-30 209.37,-29.48 207.71,-28.92 206.04,-28.32"/>
<polygon fill="#63b8ff" stroke="#63b8ff" points="207.2,-25.01 196.62,-24.62 204.65,-31.53 207.2,-25.01"/>
</a>
</g>
</g>
<!-- Node6 -->
<g id="Node000006" class="node">
<title>Node6</title>
<g id="a_Node000006"><a xlink:title=" ">
<polygon fill="#e0e0e0" stroke="#999999" points="330,-30 220,-30 220,0 330,0 330,-30"/>
<text text-anchor="start" x="228" y="-18" font-family="Helvetica,sans-Serif" font-size="10.00">indicators/progress</text>
<text text-anchor="middle" x="275" y="-7" font-family="Helvetica,sans-Serif" font-size="10.00">_bar.hpp</text>
</a>
</g>
</g>
<!-- Node2&#45;&gt;Node6 -->
<g id="edge5_Node000002_Node000006" class="edge">
<title>Node2&#45;&gt;Node6</title>
<g id="a_edge5_Node000002_Node000006"><a xlink:title=" ">
<path fill="none" stroke="#63b8ff" d="M397.21,-65.99C376.72,-57.61 344.78,-44.55 318.69,-33.87"/>
<polygon fill="#63b8ff" stroke="#63b8ff" points="319.96,-30.61 309.38,-30.06 317.31,-37.09 319.96,-30.61"/>
</a>
</g>
</g>
<!-- Node7 -->
<g id="Node000007" class="node">
<title>Node7</title>
<g id="a_Node000007"><a xlink:title=" ">
<polygon fill="#e0e0e0" stroke="#999999" points="488,-24.5 348,-24.5 348,-5.5 488,-5.5 488,-24.5"/>
<text text-anchor="middle" x="418" y="-12.5" font-family="Helvetica,sans-Serif" font-size="10.00">clang/Frontend/ASTUnit.h</text>
</a>
</g>
</g>
<!-- Node2&#45;&gt;Node7 -->
<g id="edge6_Node000002_Node000007" class="edge">
<title>Node2&#45;&gt;Node7</title>
<g id="a_edge6_Node000002_Node000007"><a xlink:title=" ">
<path fill="none" stroke="#63b8ff" d="M418,-65.87C418,-57.75 418,-45.31 418,-34.89"/>
<polygon fill="#63b8ff" stroke="#63b8ff" points="421.5,-34.67 418,-24.67 414.5,-34.67 421.5,-34.67"/>
</a>
</g>
</g>
<!-- Node8 -->
<g id="Node000008" class="node">
<title>Node8</title>
<g id="a_Node000008"><a xlink:title=" ">
<polygon fill="#e0e0e0" stroke="#999999" points="692,-24.5 506,-24.5 506,-5.5 692,-5.5 692,-24.5"/>
<text text-anchor="middle" x="599" y="-12.5" font-family="Helvetica,sans-Serif" font-size="10.00">clang/Frontend/CompilerInstance.h</text>
</a>
</g>
</g>
<!-- Node2&#45;&gt;Node8 -->
<g id="edge7_Node000002_Node000008" class="edge">
<title>Node2&#45;&gt;Node8</title>
<g id="a_edge7_Node000002_Node000008"><a xlink:title=" ">
<path fill="none" stroke="#63b8ff" d="M444.32,-65.99C475.55,-55.9 527.8,-39.01 562.82,-27.69"/>
<polygon fill="#63b8ff" stroke="#63b8ff" points="564.21,-30.92 572.65,-24.52 562.06,-24.26 564.21,-30.92"/>
</a>
</g>
</g>
<!-- Node9 -->
<g id="Node000009" class="node">
<title>Node9</title>
<g id="a_Node000009"><a xlink:title=" ">
<polygon fill="#e0e0e0" stroke="#999999" points="906,-24.5 710,-24.5 710,-5.5 906,-5.5 906,-24.5"/>
<text text-anchor="middle" x="808" y="-12.5" font-family="Helvetica,sans-Serif" font-size="10.00">clang/Frontend/CompilerInvocation.h</text>
</a>
</g>
</g>
<!-- Node2&#45;&gt;Node9 -->
<g id="edge8_Node000002_Node000009" class="edge">
<title>Node2&#45;&gt;Node9</title>
<g id="a_edge8_Node000002_Node000009"><a xlink:title=" ">
<path fill="none" stroke="#63b8ff" d="M474.71,-65.99C545.33,-55.4 665.8,-37.33 740.93,-26.06"/>
<polygon fill="#63b8ff" stroke="#63b8ff" points="741.85,-29.46 751.22,-24.52 740.81,-22.54 741.85,-29.46"/>
</a>
</g>
</g>
<!-- Node10 -->
<g id="Node000010" class="node">
<title>Node10</title>
<g id="a_Node000010"><a xlink:title=" ">
<polygon fill="#e0e0e0" stroke="#999999" points="1072.5,-30 923.5,-30 923.5,0 1072.5,0 1072.5,-30"/>
<text text-anchor="start" x="931.5" y="-18" font-family="Helvetica,sans-Serif" font-size="10.00">clang/Serialization</text>
<text text-anchor="middle" x="998" y="-7" font-family="Helvetica,sans-Serif" font-size="10.00">/PCHContainerOperations.h</text>
</a>
</g>
</g>
<!-- Node2&#45;&gt;Node10 -->
<g id="edge9_Node000002_Node000010" class="edge">
<title>Node2&#45;&gt;Node10</title>
<g id="a_edge9_Node000002_Node000010"><a xlink:title=" ">
<path fill="none" stroke="#63b8ff" d="M504.67,-66.83C632.11,-55.53 860.09,-35.28 913.16,-29.97"/>
<polygon fill="#63b8ff" stroke="#63b8ff" points="913.82,-33.42 923.38,-28.87 913.07,-26.46 913.82,-33.42"/>
</a>
</g>
</g>
<!-- Node11 -->
<g id="Node000011" class="node">
<title>Node11</title>
<g id="a_Node000011"><a xlink:title=" ">
<polygon fill="#e0e0e0" stroke="#999999" points="1217.5,-24.5 1090.5,-24.5 1090.5,-5.5 1217.5,-5.5 1217.5,-24.5"/>
<text text-anchor="middle" x="1154" y="-12.5" font-family="Helvetica,sans-Serif" font-size="10.00">clang/Tooling/Tooling.h</text>
</a>
</g>
</g>
<!-- Node2&#45;&gt;Node11 -->
<g id="edge10_Node000002_Node000011" class="edge">
<title>Node2&#45;&gt;Node11</title>
<g id="a_edge10_Node000002_Node000011"><a xlink:title=" ">
<path fill="none" stroke="#63b8ff" d="M504.6,-66.73C507.77,-66.48 510.91,-66.23 514,-66 766.22,-46.84 831.11,-62.21 1082,-30 1089.46,-29.04 1097.32,-27.78 1104.99,-26.41"/>
<polygon fill="#63b8ff" stroke="#63b8ff" points="1105.73,-29.83 1114.91,-24.55 1104.44,-22.95 1105.73,-29.83"/>
</a>
</g>
</g>
</g>
</svg>
