<?xml version="1.0" encoding="UTF-8" standalone="no"?>
<!DOCTYPE svg PUBLIC "-//W3C//DTD SVG 1.1//EN"
 "http://www.w3.org/Graphics/SVG/1.1/DTD/svg11.dtd">
<!-- Generated by graphviz version 2.43.0 (0)
 -->
<!-- Title: src/Actions/AllASTBuilderAction.cpp Pages: 1 -->
<svg width="1226pt" height="162pt"
 viewBox="0.00 0.00 1225.50 162.00" xmlns="http://www.w3.org/2000/svg" xmlns:xlink="http://www.w3.org/1999/xlink">
<g id="graph0" class="graph" transform="scale(1 1) rotate(0) translate(4 158)">
<title>src/Actions/AllASTBuilderAction.cpp</title>
<!-- Node1 -->
<g id="node1" class="node">
<title>Node1</title>
<g id="a_node1"><a xlink:title=" ">
<polygon fill="#bfbfbf" stroke="black" points="436.5,-123.5 436.5,-153.5 575.5,-153.5 575.5,-123.5 436.5,-123.5"/>
<text text-anchor="start" x="444.5" y="-141.5" font-family="Helvetica,sans-Serif" font-size="10.00">src/Actions/AllASTBuilder</text>
<text text-anchor="middle" x="506" y="-130.5" font-family="Helvetica,sans-Serif" font-size="10.00">Action.cpp</text>
</a>
</g>
</g>
<!-- Node2 -->
<g id="node2" class="node">
<title>Node2</title>
<g id="a_node2"><a xlink:href="AllASTBuilderAction_8hpp.html" target="_top" xlink:title=" ">
<polygon fill="none" stroke="black" points="331.5,-67.5 331.5,-86.5 504.5,-86.5 504.5,-67.5 331.5,-67.5"/>
<text text-anchor="middle" x="418" y="-74.5" font-family="Helvetica,sans-Serif" font-size="10.00">Actions/AllASTBuilderAction.hpp</text>
</a>
</g>
</g>
<!-- Node1&#45;&gt;Node2 -->
<g id="edge1" class="edge">
<title>Node1&#45;&gt;Node2</title>
<path fill="none" stroke="midnightblue" d="M485.15,-123.4C471.3,-114.04 453.19,-101.79 439.26,-92.38"/>
<polygon fill="midnightblue" stroke="midnightblue" points="441.05,-89.36 430.8,-86.66 437.13,-95.16 441.05,-89.36"/>
</g>
<!-- Node12 -->
<g id="node12" class="node">
<title>Node12</title>
<g id="a_node12"><a xlink:title=" ">
<polygon fill="none" stroke="#bfbfbf" points="522.5,-67.5 522.5,-86.5 665.5,-86.5 665.5,-67.5 522.5,-67.5"/>
<text text-anchor="middle" x="594" y="-74.5" font-family="Helvetica,sans-Serif" font-size="10.00">clang/Basic/FileManager.h</text>
</a>
</g>
</g>
<!-- Node1&#45;&gt;Node12 -->
<g id="edge11" class="edge">
<title>Node1&#45;&gt;Node12</title>
<path fill="none" stroke="midnightblue" d="M526.85,-123.4C540.7,-114.04 558.81,-101.79 572.74,-92.38"/>
<polygon fill="midnightblue" stroke="midnightblue" points="574.87,-95.16 581.2,-86.66 570.95,-89.36 574.87,-95.16"/>
</g>
<!-- Node3 -->
<g id="node3" class="node">
<title>Node3</title>
<g id="a_node3"><a xlink:title=" ">
<polygon fill="none" stroke="#bfbfbf" points="0,-6 0,-25 60,-25 60,-6 0,-6"/>
<text text-anchor="middle" x="30" y="-13" font-family="Helvetica,sans-Serif" font-size="10.00">iostream</text>
</a>
</g>
</g>
<!-- Node2&#45;&gt;Node3 -->
<g id="edge2" class="edge">
<title>Node2&#45;&gt;Node3</title>
<path fill="none" stroke="midnightblue" d="M331.29,-70.33C260.06,-64.37 156.93,-52.71 69,-31 66.01,-30.26 62.94,-29.37 59.89,-28.39"/>
<polygon fill="midnightblue" stroke="midnightblue" points="60.96,-25.06 50.37,-25.07 58.66,-31.67 60.96,-25.06"/>
</g>
<!-- Node4 -->
<g id="node4" class="node">
<title>Node4</title>
<g id="a_node4"><a xlink:title=" ">
<polygon fill="none" stroke="#bfbfbf" points="78,-6 78,-25 136,-25 136,-6 78,-6"/>
<text text-anchor="middle" x="107" y="-13" font-family="Helvetica,sans-Serif" font-size="10.00">memory</text>
</a>
</g>
</g>
<!-- Node2&#45;&gt;Node4 -->
<g id="edge3" class="edge">
<title>Node2&#45;&gt;Node4</title>
<path fill="none" stroke="midnightblue" d="M340.92,-67.5C285.75,-60.4 210.04,-48.58 145,-31 142.34,-30.28 139.62,-29.45 136.9,-28.55"/>
<polygon fill="midnightblue" stroke="midnightblue" points="137.86,-25.17 127.26,-25.09 135.49,-31.76 137.86,-25.17"/>
</g>
<!-- Node5 -->
<g id="node5" class="node">
<title>Node5</title>
<g id="a_node5"><a xlink:title=" ">
<polygon fill="none" stroke="#bfbfbf" points="154.5,-6 154.5,-25 201.5,-25 201.5,-6 154.5,-6"/>
<text text-anchor="middle" x="178" y="-13" font-family="Helvetica,sans-Serif" font-size="10.00">vector</text>
</a>
</g>
</g>
<!-- Node2&#45;&gt;Node5 -->
<g id="edge4" class="edge">
<title>Node2&#45;&gt;Node5</title>
<path fill="none" stroke="midnightblue" d="M364.91,-67.48C322.63,-59.97 262.24,-47.64 211,-31 209.13,-30.39 207.21,-29.71 205.3,-28.99"/>
<polygon fill="midnightblue" stroke="midnightblue" points="206.48,-25.69 195.9,-25.14 203.83,-32.17 206.48,-25.69"/>
</g>
<!-- Node6 -->
<g id="node6" class="node">
<title>Node6</title>
<g id="a_node6"><a xlink:title=" ">
<polygon fill="none" stroke="#bfbfbf" points="220,-0.5 220,-30.5 330,-30.5 330,-0.5 220,-0.5"/>
<text text-anchor="start" x="228" y="-18.5" font-family="Helvetica,sans-Serif" font-size="10.00">indicators/progress</text>
<text text-anchor="middle" x="275" y="-7.5" font-family="Helvetica,sans-Serif" font-size="10.00">_bar.hpp</text>
</a>
</g>
</g>
<!-- Node2&#45;&gt;Node6 -->
<g id="edge5" class="edge">
<title>Node2&#45;&gt;Node6</title>
<path fill="none" stroke="midnightblue" d="M397.51,-67.48C376.88,-58.89 344.42,-45.38 318.09,-34.43"/>
<polygon fill="midnightblue" stroke="midnightblue" points="319.28,-31.13 308.7,-30.52 316.59,-37.6 319.28,-31.13"/>
</g>
<!-- Node7 -->
<g id="node7" class="node">
<title>Node7</title>
<g id="a_node7"><a xlink:title=" ">
<polygon fill="none" stroke="#bfbfbf" points="348,-6 348,-25 488,-25 488,-6 348,-6"/>
<text text-anchor="middle" x="418" y="-13" font-family="Helvetica,sans-Serif" font-size="10.00">clang/Frontend/ASTUnit.h</text>
</a>
</g>
</g>
<!-- Node2&#45;&gt;Node7 -->
<g id="edge6" class="edge">
<title>Node2&#45;&gt;Node7</title>
<path fill="none" stroke="midnightblue" d="M418,-67.48C418,-59.08 418,-45.98 418,-35.16"/>
<polygon fill="midnightblue" stroke="midnightblue" points="421.5,-35.01 418,-25.01 414.5,-35.01 421.5,-35.01"/>
</g>
<!-- Node8 -->
<g id="node8" class="node">
<title>Node8</title>
<g id="a_node8"><a xlink:title=" ">
<polygon fill="none" stroke="#bfbfbf" points="506,-6 506,-25 692,-25 692,-6 506,-6"/>
<text text-anchor="middle" x="599" y="-13" font-family="Helvetica,sans-Serif" font-size="10.00">clang/Frontend/CompilerInstance.h</text>
</a>
</g>
</g>
<!-- Node2&#45;&gt;Node8 -->
<g id="edge7" class="edge">
<title>Node2&#45;&gt;Node8</title>
<path fill="none" stroke="midnightblue" d="M443.93,-67.48C475.25,-57.18 528.09,-39.81 563.26,-28.25"/>
<polygon fill="midnightblue" stroke="midnightblue" points="564.71,-31.46 573.12,-25.01 562.52,-24.81 564.71,-31.46"/>
</g>
<!-- Node9 -->
<g id="node9" class="node">
<title>Node9</title>
<g id="a_node9"><a xlink:title=" ">
<polygon fill="none" stroke="#bfbfbf" points="710,-6 710,-25 906,-25 906,-6 710,-6"/>
<text text-anchor="middle" x="808" y="-13" font-family="Helvetica,sans-Serif" font-size="10.00">clang/Frontend/CompilerInvocation.h</text>
</a>
</g>
</g>
<!-- Node2&#45;&gt;Node9 -->
<g id="edge8" class="edge">
<title>Node2&#45;&gt;Node9</title>
<path fill="none" stroke="midnightblue" d="M473.88,-67.48C544.69,-56.67 666.56,-38.08 741.91,-26.58"/>
<polygon fill="midnightblue" stroke="midnightblue" points="742.87,-29.98 752.23,-25.01 741.81,-23.06 742.87,-29.98"/>
</g>
<!-- Node10 -->
<g id="node10" class="node">
<title>Node10</title>
<g id="a_node10"><a xlink:title=" ">
<polygon fill="none" stroke="#bfbfbf" points="923.5,-0.5 923.5,-30.5 1072.5,-30.5 1072.5,-0.5 923.5,-0.5"/>
<text text-anchor="start" x="931.5" y="-18.5" font-family="Helvetica,sans-Serif" font-size="10.00">clang/Serialization</text>
<text text-anchor="middle" x="998" y="-7.5" font-family="Helvetica,sans-Serif" font-size="10.00">/PCHContainerOperations.h</text>
</a>
</g>
</g>
<!-- Node2&#45;&gt;Node10 -->
<g id="edge9" class="edge">
<title>Node2&#45;&gt;Node10</title>
<path fill="none" stroke="midnightblue" d="M504.61,-67.86C507.78,-67.57 510.92,-67.28 514,-67 688.97,-50.94 735.92,-54.29 913.45,-31.14"/>
<polygon fill="midnightblue" stroke="midnightblue" points="913.93,-34.61 923.39,-29.84 913.02,-27.67 913.93,-34.61"/>
</g>
<!-- Node11 -->
<g id="node11" class="node">
<title>Node11</title>
<g id="a_node11"><a xlink:title=" ">
<polygon fill="none" stroke="#bfbfbf" points="1090.5,-6 1090.5,-25 1217.5,-25 1217.5,-6 1090.5,-6"/>
<text text-anchor="middle" x="1154" y="-13" font-family="Helvetica,sans-Serif" font-size="10.00">clang/Tooling/Tooling.h</text>
</a>
</g>
</g>
<!-- Node2&#45;&gt;Node11 -->
<g id="edge10" class="edge">
<title>Node2&#45;&gt;Node11</title>
<path fill="none" stroke="midnightblue" d="M504.6,-67.76C507.77,-67.5 510.91,-67.24 514,-67 766.17,-47.19 831.22,-64.05 1082,-31 1089.91,-29.96 1098.26,-28.56 1106.35,-27.04"/>
<polygon fill="midnightblue" stroke="midnightblue" points="1107.28,-30.42 1116.42,-25.07 1105.93,-23.55 1107.28,-30.42"/>
</g>
</g>
</svg>
