<?xml version="1.0" encoding="UTF-8" standalone="no"?>
<!DOCTYPE svg PUBLIC "-//W3C//DTD SVG 1.1//EN"
 "http://www.w3.org/Graphics/SVG/1.1/DTD/svg11.dtd">
<!-- Generated by graphviz version 2.43.0 (0)
 -->
<!-- Title: include/Actions/AllASTBuilderAction.hpp Pages: 1 -->
<svg width="1226pt" height="104pt"
 viewBox="0.00 0.00 1225.50 104.00" xmlns="http://www.w3.org/2000/svg" xmlns:xlink="http://www.w3.org/1999/xlink">
<g id="graph0" class="graph" transform="scale(1 1) rotate(0) translate(4 100)">
<title>include/Actions/AllASTBuilderAction.hpp</title>
<!-- Node1 -->
<g id="Node000001" class="node">
<title>Node1</title>
<g id="a_Node000001"><a xlink:title=" ">
<polygon fill="#999999" stroke="#666666" points="498,-96 338,-96 338,-66 498,-66 498,-96"/>
<text text-anchor="start" x="346" y="-84" font-family="Helvetica,sans-Serif" font-size="10.00">include/Actions/AllASTBuilder</text>
<text text-anchor="middle" x="418" y="-73" font-family="Helvetica,sans-Serif" font-size="10.00">Action.hpp</text>
</a>
</g>
</g>
<!-- Node2 -->
<g id="Node000002" class="node">
<title>Node2</title>
<g id="a_Node000002"><a xlink:title=" ">
<polygon fill="#e0e0e0" stroke="#999999" points="60,-24.5 0,-24.5 0,-5.5 60,-5.5 60,-24.5"/>
<text text-anchor="middle" x="30" y="-12.5" font-family="Helvetica,sans-Serif" font-size="10.00">iostream</text>
</a>
</g>
</g>
<!-- Node1&#45;&gt;Node2 -->
<g id="edge1_Node000001_Node000002" class="edge">
<title>Node1&#45;&gt;Node2</title>
<g id="a_edge1_Node000001_Node000002"><a xlink:title=" ">
<path fill="none" stroke="#63b8ff" d="M337.76,-73.16C266.45,-65.98 159.74,-52.54 69,-30 66.5,-29.38 63.93,-28.66 61.36,-27.87"/>
<polygon fill="#63b8ff" stroke="#63b8ff" points="62.22,-24.47 51.62,-24.64 60.01,-31.11 62.22,-24.47"/>
</a>
</g>
</g>
<!-- Node3 -->
<g id="Node000003" class="node">
<title>Node3</title>
<g id="a_Node000003"><a xlink:title=" ">
<polygon fill="#e0e0e0" stroke="#999999" points="136,-24.5 78,-24.5 78,-5.5 136,-5.5 136,-24.5"/>
<text text-anchor="middle" x="107" y="-12.5" font-family="Helvetica,sans-Serif" font-size="10.00">memory</text>
</a>
</g>
</g>
<!-- Node1&#45;&gt;Node3 -->
<g id="edge2_Node000001_Node000003" class="edge">
<title>Node1&#45;&gt;Node3</title>
<g id="a_edge2_Node000001_Node000003"><a xlink:title=" ">
<path fill="none" stroke="#63b8ff" d="M337.75,-69.02C282.92,-60.61 208.9,-47.48 145,-30 142.57,-29.33 140.07,-28.58 137.57,-27.78"/>
<polygon fill="#63b8ff" stroke="#63b8ff" points="138.69,-24.46 128.09,-24.5 136.4,-31.07 138.69,-24.46"/>
</a>
</g>
</g>
<!-- Node4 -->
<g id="Node000004" class="node">
<title>Node4</title>
<g id="a_Node000004"><a xlink:title=" ">
<polygon fill="#e0e0e0" stroke="#999999" points="201.5,-24.5 154.5,-24.5 154.5,-5.5 201.5,-5.5 201.5,-24.5"/>
<text text-anchor="middle" x="178" y="-12.5" font-family="Helvetica,sans-Serif" font-size="10.00">vector</text>
</a>
</g>
</g>
<!-- Node1&#45;&gt;Node4 -->
<g id="edge3_Node000001_Node000004" class="edge">
<title>Node1&#45;&gt;Node4</title>
<g id="a_edge3_Node000001_Node000004"><a xlink:title=" ">
<path fill="none" stroke="#63b8ff" d="M347.25,-65.93C306.88,-57.15 255.58,-44.73 211,-30 209.37,-29.46 207.72,-28.88 206.06,-28.27"/>
<polygon fill="#63b8ff" stroke="#63b8ff" points="207.23,-24.97 196.64,-24.54 204.65,-31.48 207.23,-24.97"/>
</a>
</g>
</g>
<!-- Node5 -->
<g id="Node000005" class="node">
<title>Node5</title>
<g id="a_Node000005"><a xlink:title=" ">
<polygon fill="#e0e0e0" stroke="#999999" points="330,-30 220,-30 220,0 330,0 330,-30"/>
<text text-anchor="start" x="228" y="-18" font-family="Helvetica,sans-Serif" font-size="10.00">indicators/progress</text>
<text text-anchor="middle" x="275" y="-7" font-family="Helvetica,sans-Serif" font-size="10.00">_bar.hpp</text>
</a>
</g>
</g>
<!-- Node1&#45;&gt;Node5 -->
<g id="edge4_Node000001_Node000005" class="edge">
<title>Node1&#45;&gt;Node5</title>
<g id="a_edge4_Node000001_Node000005"><a xlink:title=" ">
<path fill="none" stroke="#63b8ff" d="M386.62,-65.95C365.76,-56.62 338.16,-44.27 315.62,-34.18"/>
<polygon fill="#63b8ff" stroke="#63b8ff" points="316.87,-30.9 306.31,-30.01 314.01,-37.29 316.87,-30.9"/>
</a>
</g>
</g>
<!-- Node6 -->
<g id="Node000006" class="node">
<title>Node6</title>
<g id="a_Node000006"><a xlink:title=" ">
<polygon fill="#e0e0e0" stroke="#999999" points="488,-24.5 348,-24.5 348,-5.5 488,-5.5 488,-24.5"/>
<text text-anchor="middle" x="418" y="-12.5" font-family="Helvetica,sans-Serif" font-size="10.00">clang/Frontend/ASTUnit.h</text>
</a>
</g>
</g>
<!-- Node1&#45;&gt;Node6 -->
<g id="edge5_Node000001_Node000006" class="edge">
<title>Node1&#45;&gt;Node6</title>
<g id="a_edge5_Node000001_Node000006"><a xlink:title=" ">
<path fill="none" stroke="#63b8ff" d="M418,-65.8C418,-56.7 418,-44.79 418,-34.9"/>
<polygon fill="#63b8ff" stroke="#63b8ff" points="421.5,-34.84 418,-24.84 414.5,-34.84 421.5,-34.84"/>
</a>
</g>
</g>
<!-- Node7 -->
<g id="Node000007" class="node">
<title>Node7</title>
<g id="a_Node000007"><a xlink:title=" ">
<polygon fill="#e0e0e0" stroke="#999999" points="692,-24.5 506,-24.5 506,-5.5 692,-5.5 692,-24.5"/>
<text text-anchor="middle" x="599" y="-12.5" font-family="Helvetica,sans-Serif" font-size="10.00">clang/Frontend/CompilerInstance.h</text>
</a>
</g>
</g>
<!-- Node1&#45;&gt;Node7 -->
<g id="edge6_Node000001_Node000007" class="edge">
<title>Node1&#45;&gt;Node7</title>
<g id="a_edge6_Node000001_Node000007"><a xlink:title=" ">
<path fill="none" stroke="#63b8ff" d="M457.72,-65.95C489.88,-54.58 534.7,-38.74 565.17,-27.96"/>
<polygon fill="#63b8ff" stroke="#63b8ff" points="566.65,-31.15 574.91,-24.52 564.32,-24.55 566.65,-31.15"/>
</a>
</g>
</g>
<!-- Node8 -->
<g id="Node000008" class="node">
<title>Node8</title>
<g id="a_Node000008"><a xlink:title=" ">
<polygon fill="#e0e0e0" stroke="#999999" points="906,-24.5 710,-24.5 710,-5.5 906,-5.5 906,-24.5"/>
<text text-anchor="middle" x="808" y="-12.5" font-family="Helvetica,sans-Serif" font-size="10.00">clang/Frontend/CompilerInvocation.h</text>
</a>
</g>
</g>
<!-- Node1&#45;&gt;Node8 -->
<g id="edge7_Node000001_Node000008" class="edge">
<title>Node1&#45;&gt;Node8</title>
<g id="a_edge7_Node000001_Node000008"><a xlink:title=" ">
<path fill="none" stroke="#63b8ff" d="M498.34,-66.82C571.83,-54.76 679.02,-37.17 746.07,-26.16"/>
<polygon fill="#63b8ff" stroke="#63b8ff" points="746.77,-29.6 756.07,-24.52 745.63,-22.69 746.77,-29.6"/>
</a>
</g>
</g>
<!-- Node9 -->
<g id="Node000009" class="node">
<title>Node9</title>
<g id="a_Node000009"><a xlink:title=" ">
<polygon fill="#e0e0e0" stroke="#999999" points="1072.5,-30 923.5,-30 923.5,0 1072.5,0 1072.5,-30"/>
<text text-anchor="start" x="931.5" y="-18" font-family="Helvetica,sans-Serif" font-size="10.00">clang/Serialization</text>
<text text-anchor="middle" x="998" y="-7" font-family="Helvetica,sans-Serif" font-size="10.00">/PCHContainerOperations.h</text>
</a>
</g>
</g>
<!-- Node1&#45;&gt;Node9 -->
<g id="edge8_Node000001_Node000009" class="edge">
<title>Node1&#45;&gt;Node9</title>
<g id="a_edge8_Node000001_Node000009"><a xlink:title=" ">
<path fill="none" stroke="#63b8ff" d="M498.25,-73.59C594.54,-65.52 761.11,-50.38 913.37,-30.17"/>
<polygon fill="#63b8ff" stroke="#63b8ff" points="913.93,-33.62 923.38,-28.83 913,-26.69 913.93,-33.62"/>
</a>
</g>
</g>
<!-- Node10 -->
<g id="Node000010" class="node">
<title>Node10</title>
<g id="a_Node000010"><a xlink:title=" ">
<polygon fill="#e0e0e0" stroke="#999999" points="1217.5,-24.5 1090.5,-24.5 1090.5,-5.5 1217.5,-5.5 1217.5,-24.5"/>
<text text-anchor="middle" x="1154" y="-12.5" font-family="Helvetica,sans-Serif" font-size="10.00">clang/Tooling/Tooling.h</text>
</a>
</g>
</g>
<!-- Node1&#45;&gt;Node10 -->
<g id="edge9_Node000001_Node000010" class="edge">
<title>Node1&#45;&gt;Node10</title>
<g id="a_edge9_Node000001_Node000010"><a xlink:title=" ">
<path fill="none" stroke="#63b8ff" d="M498.04,-77C623.12,-71.62 872.33,-58.18 1082,-30 1089.29,-29.02 1096.95,-27.77 1104.45,-26.42"/>
<polygon fill="#63b8ff" stroke="#63b8ff" points="1105.34,-29.82 1114.53,-24.54 1104.05,-22.94 1105.34,-29.82"/>
</a>
</g>
</g>
</g>
</svg>
