<?xml version="1.0" encoding="UTF-8" standalone="no"?>
<!DOCTYPE svg PUBLIC "-//W3C//DTD SVG 1.1//EN"
 "http://www.w3.org/Graphics/SVG/1.1/DTD/svg11.dtd">
<!-- Generated by graphviz version 2.43.0 (0)
 -->
<!-- Title: src/Actions/AllASTBuilderAction.cpp Pages: 1 -->
<svg width="1243pt" height="170pt"
 viewBox="0.00 0.00 1243.00 170.00" xmlns="http://www.w3.org/2000/svg" xmlns:xlink="http://www.w3.org/1999/xlink">
<g id="graph0" class="graph" transform="scale(1 1) rotate(0) translate(4 166)">
<title>src/Actions/AllASTBuilderAction.cpp</title>
<!-- Node1 -->
<g id="Node000001" class="node">
<title>Node1</title>
<g id="a_Node000001"><a xlink:title=" ">
<polygon fill="#999999" stroke="#666666" points="827.5,-162 688.5,-162 688.5,-132 827.5,-132 827.5,-162"/>
<text text-anchor="start" x="696.5" y="-150" font-family="Helvetica,sans-Serif" font-size="10.00">src/Actions/AllASTBuilder</text>
<text text-anchor="middle" x="758" y="-139" font-family="Helvetica,sans-Serif" font-size="10.00">Action.cpp</text>
</a>
</g>
</g>
<!-- Node2 -->
<g id="Node000002" class="node">
<title>Node2</title>
<g id="a_Node000002"><a xlink:href="AllASTBuilderAction_8hpp.html" target="_top" xlink:title=" ">
<polygon fill="white" stroke="#666666" points="479.5,-90.5 306.5,-90.5 306.5,-71.5 479.5,-71.5 479.5,-90.5"/>
<text text-anchor="middle" x="393" y="-78.5" font-family="Helvetica,sans-Serif" font-size="10.00">Actions/AllASTBuilderAction.hpp</text>
</a>
</g>
</g>
<!-- Node1&#45;&gt;Node2 -->
<g id="edge1_Node000001_Node000002" class="edge">
<title>Node1&#45;&gt;Node2</title>
<g id="a_edge1_Node000001_Node000002"><a xlink:title=" ">
<path fill="none" stroke="#63b8ff" d="M688.49,-133.81C619.87,-121.78 516.11,-103.59 451.57,-92.27"/>
<polygon fill="#63b8ff" stroke="#63b8ff" points="452.01,-88.79 441.56,-90.51 450.8,-95.69 452.01,-88.79"/>
</a>
</g>
</g>
<!-- Node10 -->
<g id="Node000010" class="node">
<title>Node10</title>
<g id="a_Node000010"><a xlink:title=" ">
<polygon fill="#e0e0e0" stroke="#999999" points="590.5,-90.5 497.5,-90.5 497.5,-71.5 590.5,-71.5 590.5,-90.5"/>
<text text-anchor="middle" x="544" y="-78.5" font-family="Helvetica,sans-Serif" font-size="10.00">spdlog/spdlog.h</text>
</a>
</g>
</g>
<!-- Node1&#45;&gt;Node10 -->
<g id="edge9_Node000001_Node000010" class="edge">
<title>Node1&#45;&gt;Node10</title>
<g id="a_edge9_Node000001_Node000010"><a xlink:title=" ">
<path fill="none" stroke="#63b8ff" d="M711.04,-131.95C672.35,-120.38 618.18,-104.18 582.14,-93.41"/>
<polygon fill="#63b8ff" stroke="#63b8ff" points="583.06,-90.03 572.48,-90.52 581.06,-96.74 583.06,-90.03"/>
</a>
</g>
</g>
<!-- Node11 -->
<g id="Node000011" class="node">
<title>Node11</title>
<g id="a_Node000011"><a xlink:title=" ">
<polygon fill="#e0e0e0" stroke="#999999" points="745,-90.5 609,-90.5 609,-71.5 745,-71.5 745,-90.5"/>
<text text-anchor="middle" x="677" y="-78.5" font-family="Helvetica,sans-Serif" font-size="10.00">clang/Basic/Diagnostic.h</text>
</a>
</g>
</g>
<!-- Node1&#45;&gt;Node11 -->
<g id="edge10_Node000001_Node000011" class="edge">
<title>Node1&#45;&gt;Node11</title>
<g id="a_edge10_Node000001_Node000011"><a xlink:title=" ">
<path fill="none" stroke="#63b8ff" d="M740.02,-131.8C727.02,-121.53 709.49,-107.67 696.21,-97.18"/>
<polygon fill="#63b8ff" stroke="#63b8ff" points="698.21,-94.3 688.19,-90.84 693.87,-99.79 698.21,-94.3"/>
</a>
</g>
</g>
<!-- Node12 -->
<g id="Node000012" class="node">
<title>Node12</title>
<g id="a_Node000012"><a xlink:title=" ">
<polygon fill="#e0e0e0" stroke="#999999" points="915,-90.5 763,-90.5 763,-71.5 915,-71.5 915,-90.5"/>
<text text-anchor="middle" x="839" y="-78.5" font-family="Helvetica,sans-Serif" font-size="10.00">clang/Basic/DiagnosticIDs.h</text>
</a>
</g>
</g>
<!-- Node1&#45;&gt;Node12 -->
<g id="edge11_Node000001_Node000012" class="edge">
<title>Node1&#45;&gt;Node12</title>
<g id="a_edge11_Node000001_Node000012"><a xlink:title=" ">
<path fill="none" stroke="#63b8ff" d="M775.98,-131.8C788.98,-121.53 806.51,-107.67 819.79,-97.18"/>
<polygon fill="#63b8ff" stroke="#63b8ff" points="822.13,-99.79 827.81,-90.84 817.79,-94.3 822.13,-99.79"/>
</a>
</g>
</g>
<!-- Node13 -->
<g id="Node000013" class="node">
<title>Node13</title>
<g id="a_Node000013"><a xlink:title=" ">
<polygon fill="#e0e0e0" stroke="#999999" points="1076.5,-90.5 933.5,-90.5 933.5,-71.5 1076.5,-71.5 1076.5,-90.5"/>
<text text-anchor="middle" x="1005" y="-78.5" font-family="Helvetica,sans-Serif" font-size="10.00">clang/Basic/FileManager.h</text>
</a>
</g>
</g>
<!-- Node1&#45;&gt;Node13 -->
<g id="edge12_Node000001_Node000013" class="edge">
<title>Node1&#45;&gt;Node13</title>
<g id="a_edge12_Node000001_Node000013"><a xlink:title=" ">
<path fill="none" stroke="#63b8ff" d="M812.21,-131.95C857.34,-120.26 920.72,-103.84 962.31,-93.06"/>
<polygon fill="#63b8ff" stroke="#63b8ff" points="963.33,-96.41 972.13,-90.52 961.57,-89.64 963.33,-96.41"/>
</a>
</g>
</g>
<!-- Node14 -->
<g id="Node000014" class="node">
<title>Node14</title>
<g id="a_Node000014"><a xlink:title=" ">
<polygon fill="#e0e0e0" stroke="#999999" points="1235,-96 1095,-96 1095,-66 1235,-66 1235,-96"/>
<text text-anchor="start" x="1103" y="-84" font-family="Helvetica,sans-Serif" font-size="10.00">llvm/ADT/IntrusiveRefCnt</text>
<text text-anchor="middle" x="1165" y="-73" font-family="Helvetica,sans-Serif" font-size="10.00">Ptr.h</text>
</a>
</g>
</g>
<!-- Node1&#45;&gt;Node14 -->
<g id="edge13_Node000001_Node000014" class="edge">
<title>Node1&#45;&gt;Node14</title>
<g id="a_edge13_Node000001_Node000014"><a xlink:title=" ">
<path fill="none" stroke="#63b8ff" d="M827.5,-135.9C891.68,-126.46 989.91,-111.73 1084.75,-96.18"/>
<polygon fill="#63b8ff" stroke="#63b8ff" points="1085.5,-99.61 1094.8,-94.53 1084.37,-92.7 1085.5,-99.61"/>
</a>
</g>
</g>
<!-- Node3 -->
<g id="Node000003" class="node">
<title>Node3</title>
<g id="a_Node000003"><a xlink:title=" ">
<polygon fill="#e0e0e0" stroke="#999999" points="58,-24.5 0,-24.5 0,-5.5 58,-5.5 58,-24.5"/>
<text text-anchor="middle" x="29" y="-12.5" font-family="Helvetica,sans-Serif" font-size="10.00">memory</text>
</a>
</g>
</g>
<!-- Node2&#45;&gt;Node3 -->
<g id="edge2_Node000002_Node000003" class="edge">
<title>Node2&#45;&gt;Node3</title>
<g id="a_edge2_Node000002_Node000003"><a xlink:title=" ">
<path fill="none" stroke="#63b8ff" d="M306.25,-71.5C240.01,-63.85 146.84,-50.61 67,-30 64.56,-29.37 62.05,-28.64 59.55,-27.85"/>
<polygon fill="#63b8ff" stroke="#63b8ff" points="60.66,-24.53 50.06,-24.61 58.4,-31.16 60.66,-24.53"/>
</a>
</g>
</g>
<!-- Node4 -->
<g id="Node000004" class="node">
<title>Node4</title>
<g id="a_Node000004"><a xlink:title=" ">
<polygon fill="#e0e0e0" stroke="#999999" points="123.5,-24.5 76.5,-24.5 76.5,-5.5 123.5,-5.5 123.5,-24.5"/>
<text text-anchor="middle" x="100" y="-12.5" font-family="Helvetica,sans-Serif" font-size="10.00">vector</text>
</a>
</g>
</g>
<!-- Node2&#45;&gt;Node4 -->
<g id="edge3_Node000002_Node000004" class="edge">
<title>Node2&#45;&gt;Node4</title>
<g id="a_edge3_Node000002_Node000004"><a xlink:title=" ">
<path fill="none" stroke="#63b8ff" d="M328.51,-71.47C275.33,-63.53 198.3,-49.89 133,-30 131.32,-29.49 129.61,-28.92 127.9,-28.31"/>
<polygon fill="#63b8ff" stroke="#63b8ff" points="128.83,-24.92 118.25,-24.55 126.29,-31.44 128.83,-24.92"/>
</a>
</g>
</g>
<!-- Node5 -->
<g id="Node000005" class="node">
<title>Node5</title>
<g id="a_Node000005"><a xlink:title=" ">
<polygon fill="#e0e0e0" stroke="#999999" points="282,-24.5 142,-24.5 142,-5.5 282,-5.5 282,-24.5"/>
<text text-anchor="middle" x="212" y="-12.5" font-family="Helvetica,sans-Serif" font-size="10.00">clang/Frontend/ASTUnit.h</text>
</a>
</g>
</g>
<!-- Node2&#45;&gt;Node5 -->
<g id="edge4_Node000002_Node000005" class="edge">
<title>Node2&#45;&gt;Node5</title>
<g id="a_edge4_Node000002_Node000005"><a xlink:title=" ">
<path fill="none" stroke="#63b8ff" d="M368.59,-71.37C336.92,-60.17 281.53,-40.58 245.82,-27.96"/>
<polygon fill="#63b8ff" stroke="#63b8ff" points="246.91,-24.63 236.31,-24.6 244.57,-31.23 246.91,-24.63"/>
</a>
</g>
</g>
<!-- Node6 -->
<g id="Node000006" class="node">
<title>Node6</title>
<g id="a_Node000006"><a xlink:title=" ">
<polygon fill="#e0e0e0" stroke="#999999" points="486,-24.5 300,-24.5 300,-5.5 486,-5.5 486,-24.5"/>
<text text-anchor="middle" x="393" y="-12.5" font-family="Helvetica,sans-Serif" font-size="10.00">clang/Frontend/CompilerInstance.h</text>
</a>
</g>
</g>
<!-- Node2&#45;&gt;Node6 -->
<g id="edge5_Node000002_Node000006" class="edge">
<title>Node2&#45;&gt;Node6</title>
<g id="a_edge5_Node000002_Node000006"><a xlink:title=" ">
<path fill="none" stroke="#63b8ff" d="M393,-71.37C393,-62.16 393,-47.29 393,-35.27"/>
<polygon fill="#63b8ff" stroke="#63b8ff" points="396.5,-34.91 393,-24.91 389.5,-34.91 396.5,-34.91"/>
</a>
</g>
</g>
<!-- Node7 -->
<g id="Node000007" class="node">
<title>Node7</title>
<g id="a_Node000007"><a xlink:title=" ">
<polygon fill="#e0e0e0" stroke="#999999" points="700,-24.5 504,-24.5 504,-5.5 700,-5.5 700,-24.5"/>
<text text-anchor="middle" x="602" y="-12.5" font-family="Helvetica,sans-Serif" font-size="10.00">clang/Frontend/CompilerInvocation.h</text>
</a>
</g>
</g>
<!-- Node2&#45;&gt;Node7 -->
<g id="edge6_Node000002_Node000007" class="edge">
<title>Node2&#45;&gt;Node7</title>
<g id="a_edge6_Node000002_Node000007"><a xlink:title=" ">
<path fill="none" stroke="#63b8ff" d="M421.19,-71.37C458.14,-60.05 523.09,-40.16 564.26,-27.56"/>
<polygon fill="#63b8ff" stroke="#63b8ff" points="565.39,-30.87 573.93,-24.6 563.34,-24.18 565.39,-30.87"/>
</a>
</g>
</g>
<!-- Node8 -->
<g id="Node000008" class="node">
<title>Node8</title>
<g id="a_Node000008"><a xlink:title=" ">
<polygon fill="#e0e0e0" stroke="#999999" points="866.5,-30 717.5,-30 717.5,0 866.5,0 866.5,-30"/>
<text text-anchor="start" x="725.5" y="-18" font-family="Helvetica,sans-Serif" font-size="10.00">clang/Serialization</text>
<text text-anchor="middle" x="792" y="-7" font-family="Helvetica,sans-Serif" font-size="10.00">/PCHContainerOperations.h</text>
</a>
</g>
</g>
<!-- Node2&#45;&gt;Node8 -->
<g id="edge7_Node000002_Node000008" class="edge">
<title>Node2&#45;&gt;Node8</title>
<g id="a_edge7_Node000002_Node000008"><a xlink:title=" ">
<path fill="none" stroke="#63b8ff" d="M447.83,-71.5C508.78,-62.01 610.43,-46.07 707.38,-30.26"/>
<polygon fill="#63b8ff" stroke="#63b8ff" points="708.04,-33.69 717.35,-28.63 706.92,-26.79 708.04,-33.69"/>
</a>
</g>
</g>
<!-- Node9 -->
<g id="Node000009" class="node">
<title>Node9</title>
<g id="a_Node000009"><a xlink:title=" ">
<polygon fill="#e0e0e0" stroke="#999999" points="1011.5,-24.5 884.5,-24.5 884.5,-5.5 1011.5,-5.5 1011.5,-24.5"/>
<text text-anchor="middle" x="948" y="-12.5" font-family="Helvetica,sans-Serif" font-size="10.00">clang/Tooling/Tooling.h</text>
</a>
</g>
</g>
<!-- Node2&#45;&gt;Node9 -->
<g id="edge8_Node000002_Node000009" class="edge">
<title>Node2&#45;&gt;Node9</title>
<g id="a_edge8_Node000002_Node000009"><a xlink:title=" ">
<path fill="none" stroke="#63b8ff" d="M448.02,-71.47C461.41,-69.54 475.7,-67.59 489,-66 660.53,-45.53 705.01,-54.52 876,-30 883.11,-28.98 890.57,-27.73 897.9,-26.4"/>
<polygon fill="#63b8ff" stroke="#63b8ff" points="898.57,-29.84 907.75,-24.56 897.28,-22.96 898.57,-29.84"/>
</a>
</g>
</g>
</g>
</svg>
