<?xml version="1.0" encoding="UTF-8" standalone="no"?>
<!DOCTYPE svg PUBLIC "-//W3C//DTD SVG 1.1//EN"
 "http://www.w3.org/Graphics/SVG/1.1/DTD/svg11.dtd">
<!-- Generated by graphviz version 2.43.0 (0)
 -->
<!-- Title: src/Actions/ASTBuilderAction.cpp Pages: 1 -->
<svg width="1040pt" height="148pt"
 viewBox="0.00 0.00 1040.00 148.00" xmlns="http://www.w3.org/2000/svg" xmlns:xlink="http://www.w3.org/1999/xlink">
<g id="graph0" class="graph" transform="scale(1 1) rotate(0) translate(4 144)">
<title>src/Actions/ASTBuilderAction.cpp</title>
<!-- Node1 -->
<g id="Node000001" class="node">
<title>Node1</title>
<g id="a_Node000001"><a xlink:title=" ">
<polygon fill="#999999" stroke="#666666" points="454.5,-140 277.5,-140 277.5,-121 454.5,-121 454.5,-140"/>
<text text-anchor="middle" x="366" y="-128" font-family="Helvetica,sans-Serif" font-size="10.00">src/Actions/ASTBuilderAction.cpp</text>
</a>
</g>
</g>
<!-- Node2 -->
<g id="Node000002" class="node">
<title>Node2</title>
<g id="a_Node000002"><a xlink:href="ASTBuilderAction_8hpp.html" target="_top" xlink:title=" ">
<polygon fill="white" stroke="#666666" points="382.5,-85 221.5,-85 221.5,-66 382.5,-66 382.5,-85"/>
<text text-anchor="middle" x="302" y="-73" font-family="Helvetica,sans-Serif" font-size="10.00">Actions/ASTBuilderAction.hpp</text>
</a>
</g>
</g>
<!-- Node1&#45;&gt;Node2 -->
<g id="edge1_Node000001_Node000002" class="edge">
<title>Node1&#45;&gt;Node2</title>
<g id="a_edge1_Node000001_Node000002"><a xlink:title=" ">
<path fill="none" stroke="#63b8ff" d="M355.72,-120.98C346.16,-113.07 331.72,-101.11 320.22,-91.58"/>
<polygon fill="#63b8ff" stroke="#63b8ff" points="322.4,-88.85 312.47,-85.17 317.94,-94.24 322.4,-88.85"/>
</a>
</g>
</g>
<!-- Node3 -->
<g id="Node000003" class="node">
<title>Node3</title>
<g id="a_Node000003"><a xlink:title=" ">
<polygon fill="#e0e0e0" stroke="#999999" points="68,-24.5 0,-24.5 0,-5.5 68,-5.5 68,-24.5"/>
<text text-anchor="middle" x="34" y="-12.5" font-family="Helvetica,sans-Serif" font-size="10.00">filesystem</text>
</a>
</g>
</g>
<!-- Node1&#45;&gt;Node3 -->
<g id="edge9_Node000001_Node000003" class="edge">
<title>Node1&#45;&gt;Node3</title>
<g id="a_edge9_Node000001_Node000003"><a xlink:title=" ">
<path fill="none" stroke="#63b8ff" d="M277.43,-121.69C210.08,-114.53 123.92,-102.4 93,-85 71.61,-72.97 54.42,-50.05 44.23,-33.94"/>
<polygon fill="#63b8ff" stroke="#63b8ff" points="46.97,-31.71 38.81,-24.94 40.97,-35.32 46.97,-31.71"/>
</a>
</g>
</g>
<!-- Node10 -->
<g id="Node000010" class="node">
<title>Node10</title>
<g id="a_Node000010"><a xlink:title=" ">
<polygon fill="#e0e0e0" stroke="#999999" points="461.5,-85 400.5,-85 400.5,-66 461.5,-66 461.5,-85"/>
<text text-anchor="middle" x="431" y="-73" font-family="Helvetica,sans-Serif" font-size="10.00">fmt/std.h</text>
</a>
</g>
</g>
<!-- Node1&#45;&gt;Node10 -->
<g id="edge10_Node000001_Node000010" class="edge">
<title>Node1&#45;&gt;Node10</title>
<g id="a_edge10_Node000001_Node000010"><a xlink:title=" ">
<path fill="none" stroke="#63b8ff" d="M376.44,-120.98C386.15,-113.07 400.82,-101.11 412.5,-91.58"/>
<polygon fill="#63b8ff" stroke="#63b8ff" points="414.83,-94.2 420.37,-85.17 410.4,-88.78 414.83,-94.2"/>
</a>
</g>
</g>
<!-- Node11 -->
<g id="Node000011" class="node">
<title>Node11</title>
<g id="a_Node000011"><a xlink:title=" ">
<polygon fill="#e0e0e0" stroke="#999999" points="572.5,-85 479.5,-85 479.5,-66 572.5,-66 572.5,-85"/>
<text text-anchor="middle" x="526" y="-73" font-family="Helvetica,sans-Serif" font-size="10.00">spdlog/spdlog.h</text>
</a>
</g>
</g>
<!-- Node1&#45;&gt;Node11 -->
<g id="edge11_Node000001_Node000011" class="edge">
<title>Node1&#45;&gt;Node11</title>
<g id="a_edge11_Node000001_Node000011"><a xlink:title=" ">
<path fill="none" stroke="#63b8ff" d="M391.71,-120.98C418.45,-112.13 460.53,-98.19 490.45,-88.28"/>
<polygon fill="#63b8ff" stroke="#63b8ff" points="491.7,-91.55 500.09,-85.08 489.5,-84.9 491.7,-91.55"/>
</a>
</g>
</g>
<!-- Node12 -->
<g id="Node000012" class="node">
<title>Node12</title>
<g id="a_Node000012"><a xlink:title=" ">
<polygon fill="#e0e0e0" stroke="#999999" points="733.5,-85 590.5,-85 590.5,-66 733.5,-66 733.5,-85"/>
<text text-anchor="middle" x="662" y="-73" font-family="Helvetica,sans-Serif" font-size="10.00">clang/Basic/FileManager.h</text>
</a>
</g>
</g>
<!-- Node1&#45;&gt;Node12 -->
<g id="edge12_Node000001_Node000012" class="edge">
<title>Node1&#45;&gt;Node12</title>
<g id="a_edge12_Node000001_Node000012"><a xlink:title=" ">
<path fill="none" stroke="#63b8ff" d="M413.56,-120.98C465.4,-111.7 548.39,-96.84 604.01,-86.88"/>
<polygon fill="#63b8ff" stroke="#63b8ff" points="604.84,-90.29 614.07,-85.08 603.61,-83.4 604.84,-90.29"/>
</a>
</g>
</g>
<!-- Node13 -->
<g id="Node000013" class="node">
<title>Node13</title>
<g id="a_Node000013"><a xlink:href="ASTCreation_8hpp.html" target="_top" xlink:title=" ">
<polygon fill="white" stroke="#666666" points="198.5,-85 101.5,-85 101.5,-66 198.5,-66 198.5,-85"/>
<text text-anchor="middle" x="150" y="-73" font-family="Helvetica,sans-Serif" font-size="10.00">ASTCreation.hpp</text>
</a>
</g>
</g>
<!-- Node1&#45;&gt;Node13 -->
<g id="edge13_Node000001_Node000013" class="edge">
<title>Node1&#45;&gt;Node13</title>
<g id="a_edge13_Node000001_Node000013"><a xlink:title=" ">
<path fill="none" stroke="#63b8ff" d="M331.3,-120.98C294.25,-111.89 235.41,-97.46 194.87,-87.51"/>
<polygon fill="#63b8ff" stroke="#63b8ff" points="195.52,-84.07 184.98,-85.08 193.85,-90.86 195.52,-84.07"/>
</a>
</g>
</g>
<!-- Node2&#45;&gt;Node3 -->
<g id="edge2_Node000002_Node000003" class="edge">
<title>Node2&#45;&gt;Node3</title>
<g id="a_edge2_Node000002_Node000003"><a xlink:title=" ">
<path fill="none" stroke="#63b8ff" d="M250.48,-65.96C204.84,-57.99 136.55,-45.08 78,-30 75.16,-29.27 72.24,-28.46 69.31,-27.61"/>
<polygon fill="#63b8ff" stroke="#63b8ff" points="70.04,-24.18 59.45,-24.63 68.01,-30.88 70.04,-24.18"/>
</a>
</g>
</g>
<!-- Node4 -->
<g id="Node000004" class="node">
<title>Node4</title>
<g id="a_Node000004"><a xlink:title=" ">
<polygon fill="#e0e0e0" stroke="#999999" points="1032,-24.5 974,-24.5 974,-5.5 1032,-5.5 1032,-24.5"/>
<text text-anchor="middle" x="1003" y="-12.5" font-family="Helvetica,sans-Serif" font-size="10.00">memory</text>
</a>
</g>
</g>
<!-- Node2&#45;&gt;Node4 -->
<g id="edge3_Node000002_Node000004" class="edge">
<title>Node2&#45;&gt;Node4</title>
<g id="a_edge3_Node000002_Node000004"><a xlink:title=" ">
<path fill="none" stroke="#63b8ff" d="M382.94,-66.73C386,-66.48 389.03,-66.23 392,-66 646.83,-45.98 716.12,-83.83 966,-30 968.68,-29.42 971.42,-28.69 974.14,-27.85"/>
<polygon fill="#63b8ff" stroke="#63b8ff" points="975.44,-31.11 983.74,-24.53 973.15,-24.49 975.44,-31.11"/>
</a>
</g>
</g>
<!-- Node5 -->
<g id="Node000005" class="node">
<title>Node5</title>
<g id="a_Node000005"><a xlink:title=" ">
<polygon fill="#e0e0e0" stroke="#999999" points="372,-24.5 232,-24.5 232,-5.5 372,-5.5 372,-24.5"/>
<text text-anchor="middle" x="302" y="-12.5" font-family="Helvetica,sans-Serif" font-size="10.00">clang/Frontend/ASTUnit.h</text>
</a>
</g>
</g>
<!-- Node2&#45;&gt;Node5 -->
<g id="edge4_Node000002_Node000005" class="edge">
<title>Node2&#45;&gt;Node5</title>
<g id="a_edge4_Node000002_Node000005"><a xlink:title=" ">
<path fill="none" stroke="#63b8ff" d="M302,-65.87C302,-57.75 302,-45.31 302,-34.89"/>
<polygon fill="#63b8ff" stroke="#63b8ff" points="305.5,-34.67 302,-24.67 298.5,-34.67 305.5,-34.67"/>
</a>
</g>
</g>
<!-- Node6 -->
<g id="Node000006" class="node">
<title>Node6</title>
<g id="a_Node000006"><a xlink:title=" ">
<polygon fill="#e0e0e0" stroke="#999999" points="576,-24.5 390,-24.5 390,-5.5 576,-5.5 576,-24.5"/>
<text text-anchor="middle" x="483" y="-12.5" font-family="Helvetica,sans-Serif" font-size="10.00">clang/Frontend/CompilerInstance.h</text>
</a>
</g>
</g>
<!-- Node2&#45;&gt;Node6 -->
<g id="edge5_Node000002_Node000006" class="edge">
<title>Node2&#45;&gt;Node6</title>
<g id="a_edge5_Node000002_Node000006"><a xlink:title=" ">
<path fill="none" stroke="#63b8ff" d="M328.32,-65.99C359.55,-55.9 411.8,-39.01 446.82,-27.69"/>
<polygon fill="#63b8ff" stroke="#63b8ff" points="448.21,-30.92 456.65,-24.52 446.06,-24.26 448.21,-30.92"/>
</a>
</g>
</g>
<!-- Node7 -->
<g id="Node000007" class="node">
<title>Node7</title>
<g id="a_Node000007"><a xlink:title=" ">
<polygon fill="#e0e0e0" stroke="#999999" points="790,-24.5 594,-24.5 594,-5.5 790,-5.5 790,-24.5"/>
<text text-anchor="middle" x="692" y="-12.5" font-family="Helvetica,sans-Serif" font-size="10.00">clang/Frontend/CompilerInvocation.h</text>
</a>
</g>
</g>
<!-- Node2&#45;&gt;Node7 -->
<g id="edge6_Node000002_Node000007" class="edge">
<title>Node2&#45;&gt;Node7</title>
<g id="a_edge6_Node000002_Node000007"><a xlink:title=" ">
<path fill="none" stroke="#63b8ff" d="M358.71,-65.99C429.33,-55.4 549.8,-37.33 624.93,-26.06"/>
<polygon fill="#63b8ff" stroke="#63b8ff" points="625.85,-29.46 635.22,-24.52 624.81,-22.54 625.85,-29.46"/>
</a>
</g>
</g>
<!-- Node8 -->
<g id="Node000008" class="node">
<title>Node8</title>
<g id="a_Node000008"><a xlink:title=" ">
<polygon fill="#e0e0e0" stroke="#999999" points="956.5,-30 807.5,-30 807.5,0 956.5,0 956.5,-30"/>
<text text-anchor="start" x="815.5" y="-18" font-family="Helvetica,sans-Serif" font-size="10.00">clang/Serialization</text>
<text text-anchor="middle" x="882" y="-7" font-family="Helvetica,sans-Serif" font-size="10.00">/PCHContainerOperations.h</text>
</a>
</g>
</g>
<!-- Node2&#45;&gt;Node8 -->
<g id="edge7_Node000002_Node000008" class="edge">
<title>Node2&#45;&gt;Node8</title>
<g id="a_edge7_Node000002_Node000008"><a xlink:title=" ">
<path fill="none" stroke="#63b8ff" d="M382.95,-66.83C386.01,-66.55 389.03,-66.27 392,-66 569.57,-49.76 617.18,-52.99 797.31,-30.16"/>
<polygon fill="#63b8ff" stroke="#63b8ff" points="797.91,-33.61 807.38,-28.87 797.02,-26.67 797.91,-33.61"/>
</a>
</g>
</g>
<!-- Node9 -->
<g id="Node000009" class="node">
<title>Node9</title>
<g id="a_Node000009"><a xlink:title=" ">
<polygon fill="#e0e0e0" stroke="#999999" points="213.5,-24.5 86.5,-24.5 86.5,-5.5 213.5,-5.5 213.5,-24.5"/>
<text text-anchor="middle" x="150" y="-12.5" font-family="Helvetica,sans-Serif" font-size="10.00">clang/Tooling/Tooling.h</text>
</a>
</g>
</g>
<!-- Node2&#45;&gt;Node9 -->
<g id="edge8_Node000002_Node000009" class="edge">
<title>Node2&#45;&gt;Node9</title>
<g id="a_edge8_Node000002_Node000009"><a xlink:title=" ">
<path fill="none" stroke="#63b8ff" d="M279.9,-65.99C254.01,-56.03 210.92,-39.45 181.53,-28.13"/>
<polygon fill="#63b8ff" stroke="#63b8ff" points="182.72,-24.84 172.13,-24.52 180.2,-31.38 182.72,-24.84"/>
</a>
</g>
</g>
<!-- Node13&#45;&gt;Node3 -->
<g id="edge14_Node000013_Node000003" class="edge">
<title>Node13&#45;&gt;Node3</title>
<g id="a_edge14_Node000013_Node000003"><a xlink:title=" ">
<path fill="none" stroke="#63b8ff" d="M132.88,-65.87C113.78,-56.23 82.63,-40.53 60.4,-29.31"/>
<polygon fill="#63b8ff" stroke="#63b8ff" points="61.69,-26.05 51.19,-24.67 58.54,-32.3 61.69,-26.05"/>
</a>
</g>
</g>
<!-- Node13&#45;&gt;Node9 -->
<g id="edge15_Node000013_Node000009" class="edge">
<title>Node13&#45;&gt;Node9</title>
<g id="a_edge15_Node000013_Node000009"><a xlink:title=" ">
<path fill="none" stroke="#63b8ff" d="M150,-65.87C150,-57.75 150,-45.31 150,-34.89"/>
<polygon fill="#63b8ff" stroke="#63b8ff" points="153.5,-34.67 150,-24.67 146.5,-34.67 153.5,-34.67"/>
</a>
</g>
</g>
</g>
</svg>
