<?xml version="1.0" encoding="UTF-8" standalone="no"?>
<!DOCTYPE svg PUBLIC "-//W3C//DTD SVG 1.1//EN"
 "http://www.w3.org/Graphics/SVG/1.1/DTD/svg11.dtd">
<!-- Generated by graphviz version 2.43.0 (0)
 -->
<!-- Title: include/Actions/ASTBuilderAction.hpp Pages: 1 -->
<svg width="1040pt" height="104pt"
 viewBox="0.00 0.00 1039.50 104.00" xmlns="http://www.w3.org/2000/svg" xmlns:xlink="http://www.w3.org/1999/xlink">
<g id="graph0" class="graph" transform="scale(1 1) rotate(0) translate(4 100)">
<title>include/Actions/ASTBuilderAction.hpp</title>
<!-- Node1 -->
<g id="Node000001" class="node">
<title>Node1</title>
<g id="a_Node000001"><a xlink:title=" ">
<polygon fill="#999999" stroke="#666666" points="486.5,-96 339.5,-96 339.5,-66 486.5,-66 486.5,-96"/>
<text text-anchor="start" x="347.5" y="-84" font-family="Helvetica,sans-Serif" font-size="10.00">include/Actions/ASTBuilder</text>
<text text-anchor="middle" x="413" y="-73" font-family="Helvetica,sans-Serif" font-size="10.00">Action.hpp</text>
</a>
</g>
</g>
<!-- Node2 -->
<g id="Node000002" class="node">
<title>Node2</title>
<g id="a_Node000002"><a xlink:title=" ">
<polygon fill="#e0e0e0" stroke="#999999" points="68,-24.5 0,-24.5 0,-5.5 68,-5.5 68,-24.5"/>
<text text-anchor="middle" x="34" y="-12.5" font-family="Helvetica,sans-Serif" font-size="10.00">filesystem</text>
</a>
</g>
</g>
<!-- Node1&#45;&gt;Node2 -->
<g id="edge1_Node000001_Node000002" class="edge">
<title>Node1&#45;&gt;Node2</title>
<g id="a_edge1_Node000001_Node000002"><a xlink:title=" ">
<path fill="none" stroke="#63b8ff" d="M339.25,-72.61C270.72,-64.91 166.12,-50.98 77,-30 73.96,-29.29 70.84,-28.46 67.72,-27.56"/>
<polygon fill="#63b8ff" stroke="#63b8ff" points="68.49,-24.14 57.91,-24.57 66.45,-30.84 68.49,-24.14"/>
</a>
</g>
</g>
<!-- Node3 -->
<g id="Node000003" class="node">
<title>Node3</title>
<g id="a_Node000003"><a xlink:title=" ">
<polygon fill="#e0e0e0" stroke="#999999" points="144,-24.5 86,-24.5 86,-5.5 144,-5.5 144,-24.5"/>
<text text-anchor="middle" x="115" y="-12.5" font-family="Helvetica,sans-Serif" font-size="10.00">memory</text>
</a>
</g>
</g>
<!-- Node1&#45;&gt;Node3 -->
<g id="edge2_Node000001_Node000003" class="edge">
<title>Node1&#45;&gt;Node3</title>
<g id="a_edge2_Node000001_Node000003"><a xlink:title=" ">
<path fill="none" stroke="#63b8ff" d="M339.41,-69.14C286.94,-60.59 215,-47.26 153,-30 150.71,-29.36 148.37,-28.65 146.02,-27.9"/>
<polygon fill="#63b8ff" stroke="#63b8ff" points="147.1,-24.56 136.5,-24.61 144.82,-31.18 147.1,-24.56"/>
</a>
</g>
</g>
<!-- Node4 -->
<g id="Node000004" class="node">
<title>Node4</title>
<g id="a_Node000004"><a xlink:title=" ">
<polygon fill="#e0e0e0" stroke="#999999" points="302,-24.5 162,-24.5 162,-5.5 302,-5.5 302,-24.5"/>
<text text-anchor="middle" x="232" y="-12.5" font-family="Helvetica,sans-Serif" font-size="10.00">clang/Frontend/ASTUnit.h</text>
</a>
</g>
</g>
<!-- Node1&#45;&gt;Node4 -->
<g id="edge3_Node000001_Node000004" class="edge">
<title>Node1&#45;&gt;Node4</title>
<g id="a_edge3_Node000001_Node000004"><a xlink:title=" ">
<path fill="none" stroke="#63b8ff" d="M373.28,-65.95C341.12,-54.58 296.3,-38.74 265.83,-27.96"/>
<polygon fill="#63b8ff" stroke="#63b8ff" points="266.68,-24.55 256.09,-24.52 264.35,-31.15 266.68,-24.55"/>
</a>
</g>
</g>
<!-- Node5 -->
<g id="Node000005" class="node">
<title>Node5</title>
<g id="a_Node000005"><a xlink:title=" ">
<polygon fill="#e0e0e0" stroke="#999999" points="506,-24.5 320,-24.5 320,-5.5 506,-5.5 506,-24.5"/>
<text text-anchor="middle" x="413" y="-12.5" font-family="Helvetica,sans-Serif" font-size="10.00">clang/Frontend/CompilerInstance.h</text>
</a>
</g>
</g>
<!-- Node1&#45;&gt;Node5 -->
<g id="edge4_Node000001_Node000005" class="edge">
<title>Node1&#45;&gt;Node5</title>
<g id="a_edge4_Node000001_Node000005"><a xlink:title=" ">
<path fill="none" stroke="#63b8ff" d="M413,-65.8C413,-56.7 413,-44.79 413,-34.9"/>
<polygon fill="#63b8ff" stroke="#63b8ff" points="416.5,-34.84 413,-24.84 409.5,-34.84 416.5,-34.84"/>
</a>
</g>
</g>
<!-- Node6 -->
<g id="Node000006" class="node">
<title>Node6</title>
<g id="a_Node000006"><a xlink:title=" ">
<polygon fill="#e0e0e0" stroke="#999999" points="720,-24.5 524,-24.5 524,-5.5 720,-5.5 720,-24.5"/>
<text text-anchor="middle" x="622" y="-12.5" font-family="Helvetica,sans-Serif" font-size="10.00">clang/Frontend/CompilerInvocation.h</text>
</a>
</g>
</g>
<!-- Node1&#45;&gt;Node6 -->
<g id="edge5_Node000001_Node000006" class="edge">
<title>Node1&#45;&gt;Node6</title>
<g id="a_edge5_Node000001_Node000006"><a xlink:title=" ">
<path fill="none" stroke="#63b8ff" d="M458.87,-65.95C496.49,-54.43 549.1,-38.32 584.3,-27.54"/>
<polygon fill="#63b8ff" stroke="#63b8ff" points="585.65,-30.79 594.19,-24.52 583.6,-24.1 585.65,-30.79"/>
</a>
</g>
</g>
<!-- Node7 -->
<g id="Node000007" class="node">
<title>Node7</title>
<g id="a_Node000007"><a xlink:title=" ">
<polygon fill="#e0e0e0" stroke="#999999" points="886.5,-30 737.5,-30 737.5,0 886.5,0 886.5,-30"/>
<text text-anchor="start" x="745.5" y="-18" font-family="Helvetica,sans-Serif" font-size="10.00">clang/Serialization</text>
<text text-anchor="middle" x="812" y="-7" font-family="Helvetica,sans-Serif" font-size="10.00">/PCHContainerOperations.h</text>
</a>
</g>
</g>
<!-- Node1&#45;&gt;Node7 -->
<g id="edge6_Node000001_Node000007" class="edge">
<title>Node1&#45;&gt;Node7</title>
<g id="a_edge6_Node000001_Node000007"><a xlink:title=" ">
<path fill="none" stroke="#63b8ff" d="M486.78,-68.54C548.53,-58.9 639.25,-44.63 727.44,-30.25"/>
<polygon fill="#63b8ff" stroke="#63b8ff" points="728.04,-33.69 737.35,-28.63 726.92,-26.79 728.04,-33.69"/>
</a>
</g>
</g>
<!-- Node8 -->
<g id="Node000008" class="node">
<title>Node8</title>
<g id="a_Node000008"><a xlink:title=" ">
<polygon fill="#e0e0e0" stroke="#999999" points="1031.5,-24.5 904.5,-24.5 904.5,-5.5 1031.5,-5.5 1031.5,-24.5"/>
<text text-anchor="middle" x="968" y="-12.5" font-family="Helvetica,sans-Serif" font-size="10.00">clang/Tooling/Tooling.h</text>
</a>
</g>
</g>
<!-- Node1&#45;&gt;Node8 -->
<g id="edge7_Node000001_Node000008" class="edge">
<title>Node1&#45;&gt;Node8</title>
<g id="a_edge7_Node000001_Node000008"><a xlink:title=" ">
<path fill="none" stroke="#63b8ff" d="M486.9,-74.4C581.88,-66.74 751.74,-51.45 896,-30 902.85,-28.98 910.05,-27.76 917.13,-26.48"/>
<polygon fill="#63b8ff" stroke="#63b8ff" points="918.18,-29.84 927.37,-24.56 916.89,-22.96 918.18,-29.84"/>
</a>
</g>
</g>
</g>
</svg>
