<?xml version="1.0" encoding="UTF-8" standalone="no"?>
<!DOCTYPE svg PUBLIC "-//W3C//DTD SVG 1.1//EN"
 "http://www.w3.org/Graphics/SVG/1.1/DTD/svg11.dtd">
<!-- Generated by graphviz version 2.43.0 (0)
 -->
<!-- Title: src/Actions/ASTBuilderAction.cpp Pages: 1 -->
<svg width="1411pt" height="148pt"
 viewBox="0.00 0.00 1410.50 148.00" xmlns="http://www.w3.org/2000/svg" xmlns:xlink="http://www.w3.org/1999/xlink">
<g id="graph0" class="graph" transform="scale(1 1) rotate(0) translate(4 144)">
<title>src/Actions/ASTBuilderAction.cpp</title>
<!-- Node1 -->
<g id="Node000001" class="node">
<title>Node1</title>
<g id="a_Node000001"><a xlink:title=" ">
<polygon fill="#999999" stroke="#666666" points="1242.5,-140 1065.5,-140 1065.5,-121 1242.5,-121 1242.5,-140"/>
<text text-anchor="middle" x="1154" y="-128" font-family="Helvetica,sans-Serif" font-size="10.00">src/Actions/ASTBuilderAction.cpp</text>
</a>
</g>
</g>
<!-- Node2 -->
<g id="Node000002" class="node">
<title>Node2</title>
<g id="a_Node000002"><a xlink:href="ASTBuilderAction_8hpp.html" target="_top" xlink:title=" ">
<polygon fill="white" stroke="#666666" points="679.5,-85 518.5,-85 518.5,-66 679.5,-66 679.5,-85"/>
<text text-anchor="middle" x="599" y="-73" font-family="Helvetica,sans-Serif" font-size="10.00">Actions/ASTBuilderAction.hpp</text>
</a>
</g>
</g>
<!-- Node1&#45;&gt;Node2 -->
<g id="edge1_Node000001_Node000002" class="edge">
<title>Node1&#45;&gt;Node2</title>
<g id="a_edge1_Node000001_Node000002"><a xlink:title=" ">
<path fill="none" stroke="#63b8ff" d="M1065.44,-121.04C962.52,-111.21 793.57,-95.08 689.73,-85.16"/>
<polygon fill="#63b8ff" stroke="#63b8ff" points="689.86,-81.66 679.57,-84.19 689.2,-88.63 689.86,-81.66"/>
</a>
</g>
</g>
<!-- Node3 -->
<g id="Node000003" class="node">
<title>Node3</title>
<g id="a_Node000003"><a xlink:title=" ">
<polygon fill="#e0e0e0" stroke="#999999" points="1304,-24.5 1236,-24.5 1236,-5.5 1304,-5.5 1304,-24.5"/>
<text text-anchor="middle" x="1270" y="-12.5" font-family="Helvetica,sans-Serif" font-size="10.00">filesystem</text>
</a>
</g>
</g>
<!-- Node1&#45;&gt;Node3 -->
<g id="edge12_Node000001_Node000003" class="edge">
<title>Node1&#45;&gt;Node3</title>
<g id="a_edge12_Node000001_Node000003"><a xlink:title=" ">
<path fill="none" stroke="#63b8ff" d="M1167.09,-120.7C1179.28,-112.22 1197.69,-98.68 1212,-85 1229.23,-68.52 1246.5,-47.21 1257.65,-32.66"/>
<polygon fill="#63b8ff" stroke="#63b8ff" points="1260.52,-34.67 1263.76,-24.58 1254.94,-30.45 1260.52,-34.67"/>
</a>
</g>
</g>
<!-- Node4 -->
<g id="Node000004" class="node">
<title>Node4</title>
<g id="a_Node000004"><a xlink:title=" ">
<polygon fill="#e0e0e0" stroke="#999999" points="60,-24.5 0,-24.5 0,-5.5 60,-5.5 60,-24.5"/>
<text text-anchor="middle" x="30" y="-12.5" font-family="Helvetica,sans-Serif" font-size="10.00">iostream</text>
</a>
</g>
</g>
<!-- Node1&#45;&gt;Node4 -->
<g id="edge13_Node000001_Node000004" class="edge">
<title>Node1&#45;&gt;Node4</title>
<g id="a_edge13_Node000001_Node000004"><a xlink:title=" ">
<path fill="none" stroke="#63b8ff" d="M1065.33,-124.92C941.03,-118.15 708,-104.17 510,-85 313.4,-65.96 261.12,-75.87 69,-30 66.34,-29.36 63.6,-28.61 60.88,-27.78"/>
<polygon fill="#63b8ff" stroke="#63b8ff" points="61.79,-24.4 51.2,-24.57 59.59,-31.04 61.79,-24.4"/>
</a>
</g>
</g>
<!-- Node13 -->
<g id="Node000013" class="node">
<title>Node13</title>
<g id="a_Node000013"><a xlink:href="ASTCreation_8hpp.html" target="_top" xlink:title=" ">
<polygon fill="white" stroke="#666666" points="1202.5,-85 1105.5,-85 1105.5,-66 1202.5,-66 1202.5,-85"/>
<text text-anchor="middle" x="1154" y="-73" font-family="Helvetica,sans-Serif" font-size="10.00">ASTCreation.hpp</text>
</a>
</g>
</g>
<!-- Node1&#45;&gt;Node13 -->
<g id="edge14_Node000001_Node000013" class="edge">
<title>Node1&#45;&gt;Node13</title>
<g id="a_edge14_Node000001_Node000013"><a xlink:title=" ">
<path fill="none" stroke="#63b8ff" d="M1154,-120.75C1154,-113.8 1154,-103.85 1154,-95.13"/>
<polygon fill="#63b8ff" stroke="#63b8ff" points="1157.5,-95.09 1154,-85.09 1150.5,-95.09 1157.5,-95.09"/>
</a>
</g>
</g>
<!-- Node14 -->
<g id="Node000014" class="node">
<title>Node14</title>
<g id="a_Node000014"><a xlink:title=" ">
<polygon fill="#e0e0e0" stroke="#999999" points="1402.5,-85 1259.5,-85 1259.5,-66 1402.5,-66 1402.5,-85"/>
<text text-anchor="middle" x="1331" y="-73" font-family="Helvetica,sans-Serif" font-size="10.00">clang/Basic/FileManager.h</text>
</a>
</g>
</g>
<!-- Node1&#45;&gt;Node14 -->
<g id="edge17_Node000001_Node000014" class="edge">
<title>Node1&#45;&gt;Node14</title>
<g id="a_edge17_Node000001_Node000014"><a xlink:title=" ">
<path fill="none" stroke="#63b8ff" d="M1182.44,-120.98C1212.28,-112.05 1259.38,-97.94 1292.53,-88.02"/>
<polygon fill="#63b8ff" stroke="#63b8ff" points="1293.76,-91.3 1302.34,-85.08 1291.76,-84.6 1293.76,-91.3"/>
</a>
</g>
</g>
<!-- Node2&#45;&gt;Node3 -->
<g id="edge2_Node000002_Node000003" class="edge">
<title>Node2&#45;&gt;Node3</title>
<g id="a_edge2_Node000002_Node000003"><a xlink:title=" ">
<path fill="none" stroke="#63b8ff" d="M679.62,-75.04C799.94,-74.43 1033.1,-67.84 1227,-30 1230.42,-29.33 1233.94,-28.48 1237.43,-27.52"/>
<polygon fill="#63b8ff" stroke="#63b8ff" points="1238.5,-30.85 1247.06,-24.61 1236.48,-24.15 1238.5,-30.85"/>
</a>
</g>
</g>
<!-- Node2&#45;&gt;Node4 -->
<g id="edge3_Node000002_Node000004" class="edge">
<title>Node2&#45;&gt;Node4</title>
<g id="a_edge3_Node000002_Node000004"><a xlink:title=" ">
<path fill="none" stroke="#63b8ff" d="M518.12,-74.22C413.34,-72.39 225.54,-64.06 69,-30 66.17,-29.38 63.26,-28.61 60.37,-27.76"/>
<polygon fill="#63b8ff" stroke="#63b8ff" points="61.35,-24.39 50.76,-24.58 59.15,-31.04 61.35,-24.39"/>
</a>
</g>
</g>
<!-- Node5 -->
<g id="Node000005" class="node">
<title>Node5</title>
<g id="a_Node000005"><a xlink:title=" ">
<polygon fill="#e0e0e0" stroke="#999999" points="136,-24.5 78,-24.5 78,-5.5 136,-5.5 136,-24.5"/>
<text text-anchor="middle" x="107" y="-12.5" font-family="Helvetica,sans-Serif" font-size="10.00">memory</text>
</a>
</g>
</g>
<!-- Node2&#45;&gt;Node5 -->
<g id="edge4_Node000002_Node000005" class="edge">
<title>Node2&#45;&gt;Node5</title>
<g id="a_edge4_Node000002_Node000005"><a xlink:title=" ">
<path fill="none" stroke="#63b8ff" d="M518.46,-72.79C426.92,-69.43 273.53,-59.46 145,-30 142.33,-29.39 139.59,-28.64 136.87,-27.81"/>
<polygon fill="#63b8ff" stroke="#63b8ff" points="137.81,-24.43 127.22,-24.53 135.57,-31.06 137.81,-24.43"/>
</a>
</g>
</g>
<!-- Node6 -->
<g id="Node000006" class="node">
<title>Node6</title>
<g id="a_Node000006"><a xlink:title=" ">
<polygon fill="#e0e0e0" stroke="#999999" points="201.5,-24.5 154.5,-24.5 154.5,-5.5 201.5,-5.5 201.5,-24.5"/>
<text text-anchor="middle" x="178" y="-12.5" font-family="Helvetica,sans-Serif" font-size="10.00">vector</text>
</a>
</g>
</g>
<!-- Node2&#45;&gt;Node6 -->
<g id="edge5_Node000002_Node000006" class="edge">
<title>Node2&#45;&gt;Node6</title>
<g id="a_edge5_Node000002_Node000006"><a xlink:title=" ">
<path fill="none" stroke="#63b8ff" d="M518.25,-71.97C438.89,-67.92 314.92,-57.39 211,-30 209.06,-29.49 207.08,-28.88 205.11,-28.22"/>
<polygon fill="#63b8ff" stroke="#63b8ff" points="206.07,-24.84 195.48,-24.52 203.56,-31.37 206.07,-24.84"/>
</a>
</g>
</g>
<!-- Node7 -->
<g id="Node000007" class="node">
<title>Node7</title>
<g id="a_Node000007"><a xlink:title=" ">
<polygon fill="#e0e0e0" stroke="#999999" points="330,-30 220,-30 220,0 330,0 330,-30"/>
<text text-anchor="start" x="228" y="-18" font-family="Helvetica,sans-Serif" font-size="10.00">indicators/progress</text>
<text text-anchor="middle" x="275" y="-7" font-family="Helvetica,sans-Serif" font-size="10.00">_bar.hpp</text>
</a>
</g>
</g>
<!-- Node2&#45;&gt;Node7 -->
<g id="edge6_Node000002_Node000007" class="edge">
<title>Node2&#45;&gt;Node7</title>
<g id="a_edge6_Node000002_Node000007"><a xlink:title=" ">
<path fill="none" stroke="#63b8ff" d="M544.84,-65.97C494.31,-57.85 416.61,-44.93 339.95,-30.13"/>
<polygon fill="#63b8ff" stroke="#63b8ff" points="340.61,-26.7 330.12,-28.23 339.27,-33.57 340.61,-26.7"/>
</a>
</g>
</g>
<!-- Node8 -->
<g id="Node000008" class="node">
<title>Node8</title>
<g id="a_Node000008"><a xlink:title=" ">
<polygon fill="#e0e0e0" stroke="#999999" points="488,-24.5 348,-24.5 348,-5.5 488,-5.5 488,-24.5"/>
<text text-anchor="middle" x="418" y="-12.5" font-family="Helvetica,sans-Serif" font-size="10.00">clang/Frontend/ASTUnit.h</text>
</a>
</g>
</g>
<!-- Node2&#45;&gt;Node8 -->
<g id="edge7_Node000002_Node000008" class="edge">
<title>Node2&#45;&gt;Node8</title>
<g id="a_edge7_Node000002_Node000008"><a xlink:title=" ">
<path fill="none" stroke="#63b8ff" d="M572.68,-65.99C541.45,-55.9 489.2,-39.01 454.18,-27.69"/>
<polygon fill="#63b8ff" stroke="#63b8ff" points="454.94,-24.26 444.35,-24.52 452.79,-30.92 454.94,-24.26"/>
</a>
</g>
</g>
<!-- Node9 -->
<g id="Node000009" class="node">
<title>Node9</title>
<g id="a_Node000009"><a xlink:title=" ">
<polygon fill="#e0e0e0" stroke="#999999" points="692,-24.5 506,-24.5 506,-5.5 692,-5.5 692,-24.5"/>
<text text-anchor="middle" x="599" y="-12.5" font-family="Helvetica,sans-Serif" font-size="10.00">clang/Frontend/CompilerInstance.h</text>
</a>
</g>
</g>
<!-- Node2&#45;&gt;Node9 -->
<g id="edge8_Node000002_Node000009" class="edge">
<title>Node2&#45;&gt;Node9</title>
<g id="a_edge8_Node000002_Node000009"><a xlink:title=" ">
<path fill="none" stroke="#63b8ff" d="M599,-65.87C599,-57.75 599,-45.31 599,-34.89"/>
<polygon fill="#63b8ff" stroke="#63b8ff" points="602.5,-34.67 599,-24.67 595.5,-34.67 602.5,-34.67"/>
</a>
</g>
</g>
<!-- Node10 -->
<g id="Node000010" class="node">
<title>Node10</title>
<g id="a_Node000010"><a xlink:title=" ">
<polygon fill="#e0e0e0" stroke="#999999" points="906,-24.5 710,-24.5 710,-5.5 906,-5.5 906,-24.5"/>
<text text-anchor="middle" x="808" y="-12.5" font-family="Helvetica,sans-Serif" font-size="10.00">clang/Frontend/CompilerInvocation.h</text>
</a>
</g>
</g>
<!-- Node2&#45;&gt;Node10 -->
<g id="edge9_Node000002_Node000010" class="edge">
<title>Node2&#45;&gt;Node10</title>
<g id="a_edge9_Node000002_Node000010"><a xlink:title=" ">
<path fill="none" stroke="#63b8ff" d="M629.39,-65.99C665.92,-55.77 727.34,-38.58 767.77,-27.26"/>
<polygon fill="#63b8ff" stroke="#63b8ff" points="768.89,-30.58 777.57,-24.52 767,-23.84 768.89,-30.58"/>
</a>
</g>
</g>
<!-- Node11 -->
<g id="Node000011" class="node">
<title>Node11</title>
<g id="a_Node000011"><a xlink:title=" ">
<polygon fill="#e0e0e0" stroke="#999999" points="1072.5,-30 923.5,-30 923.5,0 1072.5,0 1072.5,-30"/>
<text text-anchor="start" x="931.5" y="-18" font-family="Helvetica,sans-Serif" font-size="10.00">clang/Serialization</text>
<text text-anchor="middle" x="998" y="-7" font-family="Helvetica,sans-Serif" font-size="10.00">/PCHContainerOperations.h</text>
</a>
</g>
</g>
<!-- Node2&#45;&gt;Node11 -->
<g id="edge10_Node000002_Node000011" class="edge">
<title>Node2&#45;&gt;Node11</title>
<g id="a_edge10_Node000002_Node000011"><a xlink:title=" ">
<path fill="none" stroke="#63b8ff" d="M663.23,-65.98C724.88,-57.68 820.9,-44.44 913.28,-30.24"/>
<polygon fill="#63b8ff" stroke="#63b8ff" points="914.01,-33.67 923.36,-28.69 912.94,-26.75 914.01,-33.67"/>
</a>
</g>
</g>
<!-- Node12 -->
<g id="Node000012" class="node">
<title>Node12</title>
<g id="a_Node000012"><a xlink:title=" ">
<polygon fill="#e0e0e0" stroke="#999999" points="1217.5,-24.5 1090.5,-24.5 1090.5,-5.5 1217.5,-5.5 1217.5,-24.5"/>
<text text-anchor="middle" x="1154" y="-12.5" font-family="Helvetica,sans-Serif" font-size="10.00">clang/Tooling/Tooling.h</text>
</a>
</g>
</g>
<!-- Node2&#45;&gt;Node12 -->
<g id="edge11_Node000002_Node000012" class="edge">
<title>Node2&#45;&gt;Node12</title>
<g id="a_edge11_Node000002_Node000012"><a xlink:title=" ">
<path fill="none" stroke="#63b8ff" d="M679.62,-69.55C775.75,-63.08 941.12,-50.14 1082,-30 1089.11,-28.98 1096.57,-27.74 1103.9,-26.41"/>
<polygon fill="#63b8ff" stroke="#63b8ff" points="1104.57,-29.84 1113.76,-24.56 1103.28,-22.96 1104.57,-29.84"/>
</a>
</g>
</g>
<!-- Node13&#45;&gt;Node3 -->
<g id="edge16_Node000013_Node000003" class="edge">
<title>Node13&#45;&gt;Node3</title>
<g id="a_edge16_Node000013_Node000003"><a xlink:title=" ">
<path fill="none" stroke="#63b8ff" d="M1171.12,-65.87C1190.22,-56.23 1221.37,-40.53 1243.6,-29.31"/>
<polygon fill="#63b8ff" stroke="#63b8ff" points="1245.46,-32.3 1252.81,-24.67 1242.31,-26.05 1245.46,-32.3"/>
</a>
</g>
</g>
<!-- Node13&#45;&gt;Node12 -->
<g id="edge15_Node000013_Node000012" class="edge">
<title>Node13&#45;&gt;Node12</title>
<g id="a_edge15_Node000013_Node000012"><a xlink:title=" ">
<path fill="none" stroke="#63b8ff" d="M1154,-65.87C1154,-57.75 1154,-45.31 1154,-34.89"/>
<polygon fill="#63b8ff" stroke="#63b8ff" points="1157.5,-34.67 1154,-24.67 1150.5,-34.67 1157.5,-34.67"/>
</a>
</g>
</g>
</g>
</svg>
