<?xml version="1.0" encoding="UTF-8" standalone="no"?>
<!DOCTYPE svg PUBLIC "-//W3C//DTD SVG 1.1//EN"
 "http://www.w3.org/Graphics/SVG/1.1/DTD/svg11.dtd">
<!-- Generated by graphviz version 2.43.0 (0)
 -->
<!-- Title: include/Actions/ASTBuilderAction.hpp Pages: 1 -->
<svg width="1312pt" height="104pt"
 viewBox="0.00 0.00 1311.50 104.00" xmlns="http://www.w3.org/2000/svg" xmlns:xlink="http://www.w3.org/1999/xlink">
<g id="graph0" class="graph" transform="scale(1 1) rotate(0) translate(4 100)">
<title>include/Actions/ASTBuilderAction.hpp</title>
<!-- Node1 -->
<g id="Node000001" class="node">
<title>Node1</title>
<g id="a_Node000001"><a xlink:title=" ">
<polygon fill="#999999" stroke="#666666" points="505.5,-96 358.5,-96 358.5,-66 505.5,-66 505.5,-96"/>
<text text-anchor="start" x="366.5" y="-84" font-family="Helvetica,sans-Serif" font-size="10.00">include/Actions/ASTBuilder</text>
<text text-anchor="middle" x="432" y="-73" font-family="Helvetica,sans-Serif" font-size="10.00">Action.hpp</text>
</a>
</g>
</g>
<!-- Node2 -->
<g id="Node000002" class="node">
<title>Node2</title>
<g id="a_Node000002"><a xlink:title=" ">
<polygon fill="#e0e0e0" stroke="#999999" points="68,-24.5 0,-24.5 0,-5.5 68,-5.5 68,-24.5"/>
<text text-anchor="middle" x="34" y="-12.5" font-family="Helvetica,sans-Serif" font-size="10.00">filesystem</text>
</a>
</g>
</g>
<!-- Node1&#45;&gt;Node2 -->
<g id="edge1_Node000001_Node000002" class="edge">
<title>Node1&#45;&gt;Node2</title>
<g id="a_edge1_Node000001_Node000002"><a xlink:title=" ">
<path fill="none" stroke="#63b8ff" d="M358.22,-73.41C285.94,-66.06 172.96,-52.2 77,-30 73.96,-29.3 70.83,-28.48 67.71,-27.59"/>
<polygon fill="#63b8ff" stroke="#63b8ff" points="68.48,-24.17 57.9,-24.6 66.44,-30.86 68.48,-24.17"/>
</a>
</g>
</g>
<!-- Node3 -->
<g id="Node000003" class="node">
<title>Node3</title>
<g id="a_Node000003"><a xlink:title=" ">
<polygon fill="#e0e0e0" stroke="#999999" points="146,-24.5 86,-24.5 86,-5.5 146,-5.5 146,-24.5"/>
<text text-anchor="middle" x="116" y="-12.5" font-family="Helvetica,sans-Serif" font-size="10.00">iostream</text>
</a>
</g>
</g>
<!-- Node1&#45;&gt;Node3 -->
<g id="edge2_Node000001_Node000003" class="edge">
<title>Node1&#45;&gt;Node3</title>
<g id="a_edge2_Node000001_Node000003"><a xlink:title=" ">
<path fill="none" stroke="#63b8ff" d="M358.37,-70.11C302.12,-61.75 222.97,-48.2 155,-30 152.57,-29.35 150.07,-28.61 147.57,-27.83"/>
<polygon fill="#63b8ff" stroke="#63b8ff" points="148.67,-24.5 138.07,-24.64 146.44,-31.14 148.67,-24.5"/>
</a>
</g>
</g>
<!-- Node4 -->
<g id="Node000004" class="node">
<title>Node4</title>
<g id="a_Node000004"><a xlink:title=" ">
<polygon fill="#e0e0e0" stroke="#999999" points="222,-24.5 164,-24.5 164,-5.5 222,-5.5 222,-24.5"/>
<text text-anchor="middle" x="193" y="-12.5" font-family="Helvetica,sans-Serif" font-size="10.00">memory</text>
</a>
</g>
</g>
<!-- Node1&#45;&gt;Node4 -->
<g id="edge3_Node000001_Node000004" class="edge">
<title>Node1&#45;&gt;Node4</title>
<g id="a_edge3_Node000001_Node000004"><a xlink:title=" ">
<path fill="none" stroke="#63b8ff" d="M368.14,-65.99C328.39,-56.81 276.37,-43.95 231,-30 228.87,-29.35 226.69,-28.64 224.49,-27.9"/>
<polygon fill="#63b8ff" stroke="#63b8ff" points="225.56,-24.57 214.96,-24.55 223.24,-31.17 225.56,-24.57"/>
</a>
</g>
</g>
<!-- Node5 -->
<g id="Node000005" class="node">
<title>Node5</title>
<g id="a_Node000005"><a xlink:title=" ">
<polygon fill="#e0e0e0" stroke="#999999" points="287.5,-24.5 240.5,-24.5 240.5,-5.5 287.5,-5.5 287.5,-24.5"/>
<text text-anchor="middle" x="264" y="-12.5" font-family="Helvetica,sans-Serif" font-size="10.00">vector</text>
</a>
</g>
</g>
<!-- Node1&#45;&gt;Node5 -->
<g id="edge4_Node000001_Node000005" class="edge">
<title>Node1&#45;&gt;Node5</title>
<g id="a_edge4_Node000001_Node000005"><a xlink:title=" ">
<path fill="none" stroke="#63b8ff" d="M392.53,-65.93C365.52,-56.17 328.94,-42.68 297,-30 295.8,-29.52 294.57,-29.03 293.33,-28.53"/>
<polygon fill="#63b8ff" stroke="#63b8ff" points="294.41,-25.18 283.83,-24.59 291.73,-31.65 294.41,-25.18"/>
</a>
</g>
</g>
<!-- Node6 -->
<g id="Node000006" class="node">
<title>Node6</title>
<g id="a_Node000006"><a xlink:title=" ">
<polygon fill="#e0e0e0" stroke="#999999" points="416,-30 306,-30 306,0 416,0 416,-30"/>
<text text-anchor="start" x="314" y="-18" font-family="Helvetica,sans-Serif" font-size="10.00">indicators/progress</text>
<text text-anchor="middle" x="361" y="-7" font-family="Helvetica,sans-Serif" font-size="10.00">_bar.hpp</text>
</a>
</g>
</g>
<!-- Node1&#45;&gt;Node6 -->
<g id="edge5_Node000001_Node000006" class="edge">
<title>Node1&#45;&gt;Node6</title>
<g id="a_edge5_Node000001_Node000006"><a xlink:title=" ">
<path fill="none" stroke="#63b8ff" d="M416.24,-65.8C406.87,-57.34 394.8,-46.46 384.33,-37.03"/>
<polygon fill="#63b8ff" stroke="#63b8ff" points="386.48,-34.26 376.71,-30.16 381.8,-39.46 386.48,-34.26"/>
</a>
</g>
</g>
<!-- Node7 -->
<g id="Node000007" class="node">
<title>Node7</title>
<g id="a_Node000007"><a xlink:title=" ">
<polygon fill="#e0e0e0" stroke="#999999" points="574,-24.5 434,-24.5 434,-5.5 574,-5.5 574,-24.5"/>
<text text-anchor="middle" x="504" y="-12.5" font-family="Helvetica,sans-Serif" font-size="10.00">clang/Frontend/ASTUnit.h</text>
</a>
</g>
</g>
<!-- Node1&#45;&gt;Node7 -->
<g id="edge6_Node000001_Node000007" class="edge">
<title>Node1&#45;&gt;Node7</title>
<g id="a_edge6_Node000001_Node000007"><a xlink:title=" ">
<path fill="none" stroke="#63b8ff" d="M447.98,-65.8C459.31,-55.72 474.53,-42.19 486.25,-31.78"/>
<polygon fill="#63b8ff" stroke="#63b8ff" points="488.9,-34.1 494.05,-24.84 484.25,-28.87 488.9,-34.1"/>
</a>
</g>
</g>
<!-- Node8 -->
<g id="Node000008" class="node">
<title>Node8</title>
<g id="a_Node000008"><a xlink:title=" ">
<polygon fill="#e0e0e0" stroke="#999999" points="778,-24.5 592,-24.5 592,-5.5 778,-5.5 778,-24.5"/>
<text text-anchor="middle" x="685" y="-12.5" font-family="Helvetica,sans-Serif" font-size="10.00">clang/Frontend/CompilerInstance.h</text>
</a>
</g>
</g>
<!-- Node1&#45;&gt;Node8 -->
<g id="edge7_Node000001_Node000008" class="edge">
<title>Node1&#45;&gt;Node8</title>
<g id="a_edge7_Node000001_Node000008"><a xlink:title=" ">
<path fill="none" stroke="#63b8ff" d="M487.52,-65.95C533.85,-54.24 598.95,-37.77 641.54,-26.99"/>
<polygon fill="#63b8ff" stroke="#63b8ff" points="642.49,-30.36 651.33,-24.52 640.78,-23.58 642.49,-30.36"/>
</a>
</g>
</g>
<!-- Node9 -->
<g id="Node000009" class="node">
<title>Node9</title>
<g id="a_Node000009"><a xlink:title=" ">
<polygon fill="#e0e0e0" stroke="#999999" points="992,-24.5 796,-24.5 796,-5.5 992,-5.5 992,-24.5"/>
<text text-anchor="middle" x="894" y="-12.5" font-family="Helvetica,sans-Serif" font-size="10.00">clang/Frontend/CompilerInvocation.h</text>
</a>
</g>
</g>
<!-- Node1&#45;&gt;Node9 -->
<g id="edge8_Node000001_Node000009" class="edge">
<title>Node1&#45;&gt;Node9</title>
<g id="a_edge8_Node000001_Node000009"><a xlink:title=" ">
<path fill="none" stroke="#63b8ff" d="M505.72,-69.79C592.71,-57.74 736.38,-37.83 822.43,-25.91"/>
<polygon fill="#63b8ff" stroke="#63b8ff" points="822.95,-29.38 832.37,-24.54 821.99,-22.44 822.95,-29.38"/>
</a>
</g>
</g>
<!-- Node10 -->
<g id="Node000010" class="node">
<title>Node10</title>
<g id="a_Node000010"><a xlink:title=" ">
<polygon fill="#e0e0e0" stroke="#999999" points="1158.5,-30 1009.5,-30 1009.5,0 1158.5,0 1158.5,-30"/>
<text text-anchor="start" x="1017.5" y="-18" font-family="Helvetica,sans-Serif" font-size="10.00">clang/Serialization</text>
<text text-anchor="middle" x="1084" y="-7" font-family="Helvetica,sans-Serif" font-size="10.00">/PCHContainerOperations.h</text>
</a>
</g>
</g>
<!-- Node1&#45;&gt;Node10 -->
<g id="edge9_Node000001_Node000010" class="edge">
<title>Node1&#45;&gt;Node10</title>
<g id="a_edge9_Node000001_Node000010"><a xlink:title=" ">
<path fill="none" stroke="#63b8ff" d="M505.86,-75.39C612.61,-68.31 816.42,-53.23 999.31,-30.16"/>
<polygon fill="#63b8ff" stroke="#63b8ff" points="999.91,-33.61 1009.38,-28.87 999.02,-26.66 999.91,-33.61"/>
</a>
</g>
</g>
<!-- Node11 -->
<g id="Node000011" class="node">
<title>Node11</title>
<g id="a_Node000011"><a xlink:title=" ">
<polygon fill="#e0e0e0" stroke="#999999" points="1303.5,-24.5 1176.5,-24.5 1176.5,-5.5 1303.5,-5.5 1303.5,-24.5"/>
<text text-anchor="middle" x="1240" y="-12.5" font-family="Helvetica,sans-Serif" font-size="10.00">clang/Tooling/Tooling.h</text>
</a>
</g>
</g>
<!-- Node1&#45;&gt;Node11 -->
<g id="edge10_Node000001_Node000011" class="edge">
<title>Node1&#45;&gt;Node11</title>
<g id="a_edge10_Node000001_Node000011"><a xlink:title=" ">
<path fill="none" stroke="#63b8ff" d="M505.68,-78.02C638.55,-73.78 926.87,-61.51 1168,-30 1175.46,-29.02 1183.32,-27.75 1190.98,-26.38"/>
<polygon fill="#63b8ff" stroke="#63b8ff" points="1191.72,-29.8 1200.91,-24.52 1190.43,-22.92 1191.72,-29.8"/>
</a>
</g>
</g>
</g>
</svg>
