<?xml version="1.0" encoding="UTF-8" standalone="no"?>
<!DOCTYPE svg PUBLIC "-//W3C//DTD SVG 1.1//EN"
 "http://www.w3.org/Graphics/SVG/1.1/DTD/svg11.dtd">
<!-- Generated by graphviz version 2.43.0 (0)
 -->
<!-- Title: src/Actions/ASTBuilderAction.cpp Pages: 1 -->
<svg width="1226pt" height="151pt"
 viewBox="0.00 0.00 1225.50 151.00" xmlns="http://www.w3.org/2000/svg" xmlns:xlink="http://www.w3.org/1999/xlink">
<g id="graph0" class="graph" transform="scale(1 1) rotate(0) translate(4 147)">
<title>src/Actions/ASTBuilderAction.cpp</title>
<!-- Node1 -->
<g id="node1" class="node">
<title>Node1</title>
<g id="a_node1"><a xlink:title=" ">
<polygon fill="#bfbfbf" stroke="black" points="390.5,-123.5 390.5,-142.5 567.5,-142.5 567.5,-123.5 390.5,-123.5"/>
<text text-anchor="middle" x="479" y="-130.5" font-family="Helvetica,sans-Serif" font-size="10.00">src/Actions/ASTBuilderAction.cpp</text>
</a>
</g>
</g>
<!-- Node2 -->
<g id="node2" class="node">
<title>Node2</title>
<g id="a_node2"><a xlink:href="ASTBuilderAction_8hpp.html" target="_top" xlink:title=" ">
<polygon fill="none" stroke="black" points="265.5,-67.5 265.5,-86.5 426.5,-86.5 426.5,-67.5 265.5,-67.5"/>
<text text-anchor="middle" x="346" y="-74.5" font-family="Helvetica,sans-Serif" font-size="10.00">Actions/ASTBuilderAction.hpp</text>
</a>
</g>
</g>
<!-- Node1&#45;&gt;Node2 -->
<g id="edge1" class="edge">
<title>Node1&#45;&gt;Node2</title>
<path fill="none" stroke="midnightblue" d="M457.93,-123.44C435.94,-114.52 401.27,-100.44 376.34,-90.32"/>
<polygon fill="midnightblue" stroke="midnightblue" points="377.56,-87.04 366.98,-86.52 374.92,-93.52 377.56,-87.04"/>
</g>
<!-- Node3 -->
<g id="node3" class="node">
<title>Node3</title>
<g id="a_node3"><a xlink:title=" ">
<polygon fill="none" stroke="#bfbfbf" points="0,-6 0,-25 60,-25 60,-6 0,-6"/>
<text text-anchor="middle" x="30" y="-13" font-family="Helvetica,sans-Serif" font-size="10.00">iostream</text>
</a>
</g>
</g>
<!-- Node1&#45;&gt;Node3 -->
<g id="edge12" class="edge">
<title>Node1&#45;&gt;Node3</title>
<path fill="none" stroke="midnightblue" d="M430.65,-123.49C385.49,-115.24 316.33,-101.82 257,-87 172.41,-65.87 151.68,-58.65 69,-31 66.6,-30.2 64.13,-29.34 61.65,-28.47"/>
<polygon fill="midnightblue" stroke="midnightblue" points="62.78,-25.15 52.18,-25.04 60.39,-31.74 62.78,-25.15"/>
</g>
<!-- Node12 -->
<g id="node12" class="node">
<title>Node12</title>
<g id="a_node12"><a xlink:title=" ">
<polygon fill="none" stroke="#bfbfbf" points="445,-67.5 445,-86.5 513,-86.5 513,-67.5 445,-67.5"/>
<text text-anchor="middle" x="479" y="-74.5" font-family="Helvetica,sans-Serif" font-size="10.00">filesystem</text>
</a>
</g>
</g>
<!-- Node1&#45;&gt;Node12 -->
<g id="edge11" class="edge">
<title>Node1&#45;&gt;Node12</title>
<path fill="none" stroke="midnightblue" d="M479,-123.08C479,-116.01 479,-105.86 479,-96.99"/>
<polygon fill="midnightblue" stroke="midnightblue" points="482.5,-96.75 479,-86.75 475.5,-96.75 482.5,-96.75"/>
</g>
<!-- Node13 -->
<g id="node13" class="node">
<title>Node13</title>
<g id="a_node13"><a xlink:href="ASTCreation_8hpp.html" target="_top" xlink:title=" ">
<polygon fill="none" stroke="black" points="531.5,-67.5 531.5,-86.5 628.5,-86.5 628.5,-67.5 531.5,-67.5"/>
<text text-anchor="middle" x="580" y="-74.5" font-family="Helvetica,sans-Serif" font-size="10.00">ASTCreation.hpp</text>
</a>
</g>
</g>
<!-- Node1&#45;&gt;Node13 -->
<g id="edge13" class="edge">
<title>Node1&#45;&gt;Node13</title>
<path fill="none" stroke="midnightblue" d="M495.23,-123.32C511.35,-114.7 536.3,-101.36 554.96,-91.39"/>
<polygon fill="midnightblue" stroke="midnightblue" points="556.64,-94.46 563.81,-86.65 553.34,-88.28 556.64,-94.46"/>
</g>
<!-- Node14 -->
<g id="node14" class="node">
<title>Node14</title>
<g id="a_node14"><a xlink:title=" ">
<polygon fill="none" stroke="#bfbfbf" points="646.5,-67.5 646.5,-86.5 789.5,-86.5 789.5,-67.5 646.5,-67.5"/>
<text text-anchor="middle" x="718" y="-74.5" font-family="Helvetica,sans-Serif" font-size="10.00">clang/Basic/FileManager.h</text>
</a>
</g>
</g>
<!-- Node1&#45;&gt;Node14 -->
<g id="edge14" class="edge">
<title>Node1&#45;&gt;Node14</title>
<path fill="none" stroke="midnightblue" d="M516.87,-123.44C558.48,-114.04 625.37,-98.93 670.47,-88.74"/>
<polygon fill="midnightblue" stroke="midnightblue" points="671.32,-92.13 680.31,-86.52 669.78,-85.31 671.32,-92.13"/>
</g>
<!-- Node2&#45;&gt;Node3 -->
<g id="edge2" class="edge">
<title>Node2&#45;&gt;Node3</title>
<path fill="none" stroke="midnightblue" d="M268.14,-67.47C212.15,-60.34 135.18,-48.5 69,-31 66.18,-30.26 63.29,-29.39 60.41,-28.45"/>
<polygon fill="midnightblue" stroke="midnightblue" points="61.4,-25.09 50.81,-25.09 59.09,-31.7 61.4,-25.09"/>
</g>
<!-- Node4 -->
<g id="node4" class="node">
<title>Node4</title>
<g id="a_node4"><a xlink:title=" ">
<polygon fill="none" stroke="#bfbfbf" points="78,-6 78,-25 136,-25 136,-6 78,-6"/>
<text text-anchor="middle" x="107" y="-13" font-family="Helvetica,sans-Serif" font-size="10.00">memory</text>
</a>
</g>
</g>
<!-- Node2&#45;&gt;Node4 -->
<g id="edge3" class="edge">
<title>Node2&#45;&gt;Node4</title>
<path fill="none" stroke="midnightblue" d="M299.87,-67.46C259.04,-59.46 198.03,-46.45 146,-31 143.36,-30.22 140.65,-29.35 137.94,-28.43"/>
<polygon fill="midnightblue" stroke="midnightblue" points="138.88,-25.05 128.28,-25 136.53,-31.65 138.88,-25.05"/>
</g>
<!-- Node5 -->
<g id="node5" class="node">
<title>Node5</title>
<g id="a_node5"><a xlink:title=" ">
<polygon fill="none" stroke="#bfbfbf" points="154.5,-6 154.5,-25 201.5,-25 201.5,-6 154.5,-6"/>
<text text-anchor="middle" x="178" y="-13" font-family="Helvetica,sans-Serif" font-size="10.00">vector</text>
</a>
</g>
</g>
<!-- Node2&#45;&gt;Node5 -->
<g id="edge4" class="edge">
<title>Node2&#45;&gt;Node5</title>
<path fill="none" stroke="midnightblue" d="M317.81,-67.44C290.31,-58.89 247.42,-45.04 211,-31 209.39,-30.38 207.75,-29.73 206.1,-29.05"/>
<polygon fill="midnightblue" stroke="midnightblue" points="207.3,-25.76 196.72,-25.08 204.57,-32.21 207.3,-25.76"/>
</g>
<!-- Node6 -->
<g id="node6" class="node">
<title>Node6</title>
<g id="a_node6"><a xlink:title=" ">
<polygon fill="none" stroke="#bfbfbf" points="220,-0.5 220,-30.5 330,-30.5 330,-0.5 220,-0.5"/>
<text text-anchor="start" x="228" y="-18.5" font-family="Helvetica,sans-Serif" font-size="10.00">indicators/progress</text>
<text text-anchor="middle" x="275" y="-7.5" font-family="Helvetica,sans-Serif" font-size="10.00">_bar.hpp</text>
</a>
</g>
</g>
<!-- Node2&#45;&gt;Node6 -->
<g id="edge5" class="edge">
<title>Node2&#45;&gt;Node6</title>
<path fill="none" stroke="midnightblue" d="M335.83,-67.48C326.39,-59.57 311.97,-47.48 299.54,-37.07"/>
<polygon fill="midnightblue" stroke="midnightblue" points="301.65,-34.26 291.73,-30.52 297.15,-39.63 301.65,-34.26"/>
</g>
<!-- Node7 -->
<g id="node7" class="node">
<title>Node7</title>
<g id="a_node7"><a xlink:title=" ">
<polygon fill="none" stroke="#bfbfbf" points="348,-6 348,-25 488,-25 488,-6 348,-6"/>
<text text-anchor="middle" x="418" y="-13" font-family="Helvetica,sans-Serif" font-size="10.00">clang/Frontend/ASTUnit.h</text>
</a>
</g>
</g>
<!-- Node2&#45;&gt;Node7 -->
<g id="edge6" class="edge">
<title>Node2&#45;&gt;Node7</title>
<path fill="none" stroke="midnightblue" d="M356.32,-67.48C367.65,-58.11 386.07,-42.88 399.84,-31.51"/>
<polygon fill="midnightblue" stroke="midnightblue" points="402.22,-34.08 407.7,-25.01 397.77,-28.68 402.22,-34.08"/>
</g>
<!-- Node8 -->
<g id="node8" class="node">
<title>Node8</title>
<g id="a_node8"><a xlink:title=" ">
<polygon fill="none" stroke="#bfbfbf" points="506,-6 506,-25 692,-25 692,-6 506,-6"/>
<text text-anchor="middle" x="599" y="-13" font-family="Helvetica,sans-Serif" font-size="10.00">clang/Frontend/CompilerInstance.h</text>
</a>
</g>
</g>
<!-- Node2&#45;&gt;Node8 -->
<g id="edge7" class="edge">
<title>Node2&#45;&gt;Node8</title>
<path fill="none" stroke="midnightblue" d="M382.25,-67.48C427.15,-56.92 503.71,-38.91 552.78,-27.37"/>
<polygon fill="midnightblue" stroke="midnightblue" points="553.89,-30.71 562.82,-25.01 552.28,-23.89 553.89,-30.71"/>
</g>
<!-- Node9 -->
<g id="node9" class="node">
<title>Node9</title>
<g id="a_node9"><a xlink:title=" ">
<polygon fill="none" stroke="#bfbfbf" points="710,-6 710,-25 906,-25 906,-6 710,-6"/>
<text text-anchor="middle" x="808" y="-13" font-family="Helvetica,sans-Serif" font-size="10.00">clang/Frontend/CompilerInvocation.h</text>
</a>
</g>
</g>
<!-- Node2&#45;&gt;Node9 -->
<g id="edge8" class="edge">
<title>Node2&#45;&gt;Node9</title>
<path fill="none" stroke="midnightblue" d="M414.74,-67.46C486.27,-58.54 601.52,-44.05 701,-31 712.21,-29.53 724.08,-27.95 735.68,-26.39"/>
<polygon fill="midnightblue" stroke="midnightblue" points="736.33,-29.83 745.77,-25.02 735.4,-22.89 736.33,-29.83"/>
</g>
<!-- Node10 -->
<g id="node10" class="node">
<title>Node10</title>
<g id="a_node10"><a xlink:title=" ">
<polygon fill="none" stroke="#bfbfbf" points="923.5,-0.5 923.5,-30.5 1072.5,-30.5 1072.5,-0.5 923.5,-0.5"/>
<text text-anchor="start" x="931.5" y="-18.5" font-family="Helvetica,sans-Serif" font-size="10.00">clang/Serialization</text>
<text text-anchor="middle" x="998" y="-7.5" font-family="Helvetica,sans-Serif" font-size="10.00">/PCHContainerOperations.h</text>
</a>
</g>
</g>
<!-- Node2&#45;&gt;Node10 -->
<g id="edge9" class="edge">
<title>Node2&#45;&gt;Node10</title>
<path fill="none" stroke="midnightblue" d="M426.94,-67.81C430,-67.53 433.03,-67.26 436,-67 645.35,-48.67 701.41,-57.13 913.19,-31.15"/>
<polygon fill="midnightblue" stroke="midnightblue" points="913.9,-34.59 923.4,-29.89 913.04,-27.64 913.9,-34.59"/>
</g>
<!-- Node11 -->
<g id="node11" class="node">
<title>Node11</title>
<g id="a_node11"><a xlink:title=" ">
<polygon fill="none" stroke="#bfbfbf" points="1090.5,-6 1090.5,-25 1217.5,-25 1217.5,-6 1090.5,-6"/>
<text text-anchor="middle" x="1154" y="-13" font-family="Helvetica,sans-Serif" font-size="10.00">clang/Tooling/Tooling.h</text>
</a>
</g>
</g>
<!-- Node2&#45;&gt;Node11 -->
<g id="edge10" class="edge">
<title>Node2&#45;&gt;Node11</title>
<path fill="none" stroke="midnightblue" d="M426.94,-67.74C430,-67.48 433.03,-67.23 436,-67 722.69,-44.69 796.77,-67.48 1082,-31 1090.09,-29.97 1098.64,-28.54 1106.9,-26.99"/>
<polygon fill="midnightblue" stroke="midnightblue" points="1107.66,-30.41 1116.8,-25.05 1106.31,-23.54 1107.66,-30.41"/>
</g>
</g>
</svg>
