<?xml version="1.0" encoding="UTF-8" standalone="no"?>
<!DOCTYPE svg PUBLIC "-//W3C//DTD SVG 1.1//EN"
 "http://www.w3.org/Graphics/SVG/1.1/DTD/svg11.dtd">
<!-- Generated by graphviz version 2.43.0 (0)
 -->
<!-- Title: include/Actions/ASTBuilderAction.hpp Pages: 1 -->
<svg width="1040pt" height="104pt"
 viewBox="0.00 0.00 1040.00 104.00" xmlns="http://www.w3.org/2000/svg" xmlns:xlink="http://www.w3.org/1999/xlink">
<g id="graph0" class="graph" transform="scale(1 1) rotate(0) translate(4 100)">
<title>include/Actions/ASTBuilderAction.hpp</title>
<!-- Node1 -->
<g id="Node000001" class="node">
<title>Node1</title>
<g id="a_Node000001"><a xlink:title=" ">
<polygon fill="#999999" stroke="#666666" points="723.5,-96 576.5,-96 576.5,-66 723.5,-66 723.5,-96"/>
<text text-anchor="start" x="584.5" y="-84" font-family="Helvetica,sans-Serif" font-size="10.00">include/Actions/ASTBuilder</text>
<text text-anchor="middle" x="650" y="-73" font-family="Helvetica,sans-Serif" font-size="10.00">Action.hpp</text>
</a>
</g>
</g>
<!-- Node2 -->
<g id="Node000002" class="node">
<title>Node2</title>
<g id="a_Node000002"><a xlink:title=" ">
<polygon fill="#e0e0e0" stroke="#999999" points="140,-24.5 0,-24.5 0,-5.5 140,-5.5 140,-24.5"/>
<text text-anchor="middle" x="70" y="-12.5" font-family="Helvetica,sans-Serif" font-size="10.00">clang/Frontend/ASTUnit.h</text>
</a>
</g>
</g>
<!-- Node1&#45;&gt;Node2 -->
<g id="edge1_Node000001_Node000002" class="edge">
<title>Node1&#45;&gt;Node2</title>
<g id="a_edge1_Node000001_Node000002"><a xlink:title=" ">
<path fill="none" stroke="#63b8ff" d="M576.36,-74.41C478.5,-66.58 300.31,-50.93 149,-30 141.05,-28.9 132.69,-27.59 124.49,-26.21"/>
<polygon fill="#63b8ff" stroke="#63b8ff" points="125.06,-22.76 114.61,-24.52 123.87,-29.66 125.06,-22.76"/>
</a>
</g>
</g>
<!-- Node3 -->
<g id="Node000003" class="node">
<title>Node3</title>
<g id="a_Node000003"><a xlink:title=" ">
<polygon fill="#e0e0e0" stroke="#999999" points="344,-24.5 158,-24.5 158,-5.5 344,-5.5 344,-24.5"/>
<text text-anchor="middle" x="251" y="-12.5" font-family="Helvetica,sans-Serif" font-size="10.00">clang/Frontend/CompilerInstance.h</text>
</a>
</g>
</g>
<!-- Node1&#45;&gt;Node3 -->
<g id="edge2_Node000001_Node000003" class="edge">
<title>Node1&#45;&gt;Node3</title>
<g id="a_edge2_Node000001_Node000003"><a xlink:title=" ">
<path fill="none" stroke="#63b8ff" d="M576.35,-68.19C501.13,-56.12 385.56,-37.58 314.31,-26.16"/>
<polygon fill="#63b8ff" stroke="#63b8ff" points="314.56,-22.65 304.13,-24.52 313.45,-29.56 314.56,-22.65"/>
</a>
</g>
</g>
<!-- Node4 -->
<g id="Node000004" class="node">
<title>Node4</title>
<g id="a_Node000004"><a xlink:title=" ">
<polygon fill="#e0e0e0" stroke="#999999" points="558,-24.5 362,-24.5 362,-5.5 558,-5.5 558,-24.5"/>
<text text-anchor="middle" x="460" y="-12.5" font-family="Helvetica,sans-Serif" font-size="10.00">clang/Frontend/CompilerInvocation.h</text>
</a>
</g>
</g>
<!-- Node1&#45;&gt;Node4 -->
<g id="edge3_Node000001_Node000004" class="edge">
<title>Node1&#45;&gt;Node4</title>
<g id="a_edge3_Node000001_Node000004"><a xlink:title=" ">
<path fill="none" stroke="#63b8ff" d="M608.3,-65.95C574.4,-54.53 527.09,-38.6 495.1,-27.82"/>
<polygon fill="#63b8ff" stroke="#63b8ff" points="495.88,-24.39 485.29,-24.52 493.65,-31.03 495.88,-24.39"/>
</a>
</g>
</g>
<!-- Node5 -->
<g id="Node000005" class="node">
<title>Node5</title>
<g id="a_Node000005"><a xlink:title=" ">
<polygon fill="#e0e0e0" stroke="#999999" points="724.5,-30 575.5,-30 575.5,0 724.5,0 724.5,-30"/>
<text text-anchor="start" x="583.5" y="-18" font-family="Helvetica,sans-Serif" font-size="10.00">clang/Serialization</text>
<text text-anchor="middle" x="650" y="-7" font-family="Helvetica,sans-Serif" font-size="10.00">/PCHContainerOperations.h</text>
</a>
</g>
</g>
<!-- Node1&#45;&gt;Node5 -->
<g id="edge4_Node000001_Node000005" class="edge">
<title>Node1&#45;&gt;Node5</title>
<g id="a_edge4_Node000001_Node000005"><a xlink:title=" ">
<path fill="none" stroke="#63b8ff" d="M650,-65.8C650,-58.34 650,-48.99 650,-40.41"/>
<polygon fill="#63b8ff" stroke="#63b8ff" points="653.5,-40.16 650,-30.16 646.5,-40.16 653.5,-40.16"/>
</a>
</g>
</g>
<!-- Node6 -->
<g id="Node000006" class="node">
<title>Node6</title>
<g id="a_Node000006"><a xlink:title=" ">
<polygon fill="#e0e0e0" stroke="#999999" points="869.5,-24.5 742.5,-24.5 742.5,-5.5 869.5,-5.5 869.5,-24.5"/>
<text text-anchor="middle" x="806" y="-12.5" font-family="Helvetica,sans-Serif" font-size="10.00">clang/Tooling/Tooling.h</text>
</a>
</g>
</g>
<!-- Node1&#45;&gt;Node6 -->
<g id="edge5_Node000001_Node000006" class="edge">
<title>Node1&#45;&gt;Node6</title>
<g id="a_edge5_Node000001_Node000006"><a xlink:title=" ">
<path fill="none" stroke="#63b8ff" d="M684.23,-65.95C711.59,-54.73 749.57,-39.15 775.81,-28.39"/>
<polygon fill="#63b8ff" stroke="#63b8ff" points="777.32,-31.55 785.24,-24.52 774.66,-25.07 777.32,-31.55"/>
</a>
</g>
</g>
<!-- Node7 -->
<g id="Node000007" class="node">
<title>Node7</title>
<g id="a_Node000007"><a xlink:title=" ">
<polygon fill="#e0e0e0" stroke="#999999" points="956,-24.5 888,-24.5 888,-5.5 956,-5.5 956,-24.5"/>
<text text-anchor="middle" x="922" y="-12.5" font-family="Helvetica,sans-Serif" font-size="10.00">filesystem</text>
</a>
</g>
</g>
<!-- Node1&#45;&gt;Node7 -->
<g id="edge6_Node000001_Node000007" class="edge">
<title>Node1&#45;&gt;Node7</title>
<g id="a_edge6_Node000001_Node000007"><a xlink:title=" ">
<path fill="none" stroke="#63b8ff" d="M723.16,-65.96C768.34,-56.82 827.35,-44.01 879,-30 881.77,-29.25 884.63,-28.43 887.49,-27.57"/>
<polygon fill="#63b8ff" stroke="#63b8ff" points="888.61,-30.88 897.12,-24.57 886.53,-24.2 888.61,-30.88"/>
</a>
</g>
</g>
<!-- Node8 -->
<g id="Node000008" class="node">
<title>Node8</title>
<g id="a_Node000008"><a xlink:title=" ">
<polygon fill="#e0e0e0" stroke="#999999" points="1032,-24.5 974,-24.5 974,-5.5 1032,-5.5 1032,-24.5"/>
<text text-anchor="middle" x="1003" y="-12.5" font-family="Helvetica,sans-Serif" font-size="10.00">memory</text>
</a>
</g>
</g>
<!-- Node1&#45;&gt;Node8 -->
<g id="edge7_Node000001_Node000008" class="edge">
<title>Node1&#45;&gt;Node8</title>
<g id="a_edge7_Node000001_Node000008"><a xlink:title=" ">
<path fill="none" stroke="#63b8ff" d="M723.72,-72.43C788.1,-64.85 883.69,-51.21 965,-30 967.44,-29.36 969.94,-28.63 972.44,-27.84"/>
<polygon fill="#63b8ff" stroke="#63b8ff" points="973.6,-31.14 981.93,-24.59 971.34,-24.52 973.6,-31.14"/>
</a>
</g>
</g>
</g>
</svg>
