<?xml version="1.0" encoding="UTF-8" standalone="no"?>
<!DOCTYPE svg PUBLIC "-//W3C//DTD SVG 1.1//EN"
 "http://www.w3.org/Graphics/SVG/1.1/DTD/svg11.dtd">
<!-- Generated by graphviz version 2.43.0 (0)
 -->
<!-- Title: include/Actions/ASTBuilderAction.hpp Pages: 1 -->
<svg width="1388pt" height="106pt"
 viewBox="0.00 0.00 1387.50 106.00" xmlns="http://www.w3.org/2000/svg" xmlns:xlink="http://www.w3.org/1999/xlink">
<g id="graph0" class="graph" transform="scale(1 1) rotate(0) translate(4 102)">
<title>include/Actions/ASTBuilderAction.hpp</title>
<!-- Node1 -->
<g id="node1" class="node">
<title>Node1</title>
<g id="a_node1"><a xlink:title=" ">
<polygon fill="#bfbfbf" stroke="black" points="426.5,-67.5 426.5,-97.5 573.5,-97.5 573.5,-67.5 426.5,-67.5"/>
<text text-anchor="start" x="434.5" y="-85.5" font-family="Helvetica,sans-Serif" font-size="10.00">include/Actions/ASTBuilder</text>
<text text-anchor="middle" x="500" y="-74.5" font-family="Helvetica,sans-Serif" font-size="10.00">Action.hpp</text>
</a>
</g>
</g>
<!-- Node2 -->
<g id="node2" class="node">
<title>Node2</title>
<g id="a_node2"><a xlink:title=" ">
<polygon fill="none" stroke="#bfbfbf" points="0,-6 0,-25 60,-25 60,-6 0,-6"/>
<text text-anchor="middle" x="30" y="-13" font-family="Helvetica,sans-Serif" font-size="10.00">iostream</text>
</a>
</g>
</g>
<!-- Node1&#45;&gt;Node2 -->
<g id="edge1" class="edge">
<title>Node1&#45;&gt;Node2</title>
<path fill="none" stroke="midnightblue" d="M426.23,-78.23C339.65,-73.16 192.23,-60.67 69,-31 66.01,-30.28 62.93,-29.4 59.88,-28.43"/>
<polygon fill="midnightblue" stroke="midnightblue" points="60.95,-25.09 50.36,-25.12 58.65,-31.71 60.95,-25.09"/>
</g>
<!-- Node3 -->
<g id="node3" class="node">
<title>Node3</title>
<g id="a_node3"><a xlink:title=" ">
<polygon fill="none" stroke="#bfbfbf" points="78,-6 78,-25 136,-25 136,-6 78,-6"/>
<text text-anchor="middle" x="107" y="-13" font-family="Helvetica,sans-Serif" font-size="10.00">memory</text>
</a>
</g>
</g>
<!-- Node1&#45;&gt;Node3 -->
<g id="edge2" class="edge">
<title>Node1&#45;&gt;Node3</title>
<path fill="none" stroke="midnightblue" d="M426.31,-75.85C353.85,-69.17 240.53,-55.69 145,-31 142.18,-30.27 139.28,-29.4 136.4,-28.45"/>
<polygon fill="midnightblue" stroke="midnightblue" points="137.44,-25.11 126.84,-25.03 135.08,-31.7 137.44,-25.11"/>
</g>
<!-- Node4 -->
<g id="node4" class="node">
<title>Node4</title>
<g id="a_node4"><a xlink:title=" ">
<polygon fill="none" stroke="#bfbfbf" points="154.5,-6 154.5,-25 201.5,-25 201.5,-6 154.5,-6"/>
<text text-anchor="middle" x="178" y="-13" font-family="Helvetica,sans-Serif" font-size="10.00">vector</text>
</a>
</g>
</g>
<!-- Node1&#45;&gt;Node4 -->
<g id="edge3" class="edge">
<title>Node1&#45;&gt;Node4</title>
<path fill="none" stroke="midnightblue" d="M426.42,-73.61C367.32,-66.1 282.67,-52.66 211,-31 209.07,-30.42 207.1,-29.75 205.13,-29.03"/>
<polygon fill="midnightblue" stroke="midnightblue" points="206.1,-25.64 195.51,-25.13 203.47,-32.13 206.1,-25.64"/>
</g>
<!-- Node5 -->
<g id="node5" class="node">
<title>Node5</title>
<g id="a_node5"><a xlink:title=" ">
<polygon fill="none" stroke="#bfbfbf" points="220,-0.5 220,-30.5 330,-30.5 330,-0.5 220,-0.5"/>
<text text-anchor="start" x="228" y="-18.5" font-family="Helvetica,sans-Serif" font-size="10.00">indicators/progress</text>
<text text-anchor="middle" x="275" y="-7.5" font-family="Helvetica,sans-Serif" font-size="10.00">_bar.hpp</text>
</a>
</g>
</g>
<!-- Node1&#45;&gt;Node5 -->
<g id="edge4" class="edge">
<title>Node1&#45;&gt;Node5</title>
<path fill="none" stroke="midnightblue" d="M451.46,-67.48C416.97,-57.51 370.49,-44.09 333.89,-33.51"/>
<polygon fill="midnightblue" stroke="midnightblue" points="334.42,-30.02 323.85,-30.61 332.48,-36.75 334.42,-30.02"/>
</g>
<!-- Node6 -->
<g id="node6" class="node">
<title>Node6</title>
<g id="a_node6"><a xlink:title=" ">
<polygon fill="none" stroke="#bfbfbf" points="348.5,-6 348.5,-25 491.5,-25 491.5,-6 348.5,-6"/>
<text text-anchor="middle" x="420" y="-13" font-family="Helvetica,sans-Serif" font-size="10.00">clang/Basic/FileManager.h</text>
</a>
</g>
</g>
<!-- Node1&#45;&gt;Node6 -->
<g id="edge5" class="edge">
<title>Node1&#45;&gt;Node6</title>
<path fill="none" stroke="midnightblue" d="M482.64,-67.4C469.67,-56.86 451.97,-42.48 438.69,-31.69"/>
<polygon fill="midnightblue" stroke="midnightblue" points="440.67,-28.78 430.7,-25.19 436.26,-34.22 440.67,-28.78"/>
</g>
<!-- Node7 -->
<g id="node7" class="node">
<title>Node7</title>
<g id="a_node7"><a xlink:title=" ">
<polygon fill="none" stroke="#bfbfbf" points="510,-6 510,-25 650,-25 650,-6 510,-6"/>
<text text-anchor="middle" x="580" y="-13" font-family="Helvetica,sans-Serif" font-size="10.00">clang/Frontend/ASTUnit.h</text>
</a>
</g>
</g>
<!-- Node1&#45;&gt;Node7 -->
<g id="edge6" class="edge">
<title>Node1&#45;&gt;Node7</title>
<path fill="none" stroke="midnightblue" d="M517.36,-67.4C530.33,-56.86 548.03,-42.48 561.31,-31.69"/>
<polygon fill="midnightblue" stroke="midnightblue" points="563.74,-34.22 569.3,-25.19 559.33,-28.78 563.74,-34.22"/>
</g>
<!-- Node8 -->
<g id="node8" class="node">
<title>Node8</title>
<g id="a_node8"><a xlink:title=" ">
<polygon fill="none" stroke="#bfbfbf" points="668,-6 668,-25 854,-25 854,-6 668,-6"/>
<text text-anchor="middle" x="761" y="-13" font-family="Helvetica,sans-Serif" font-size="10.00">clang/Frontend/CompilerInstance.h</text>
</a>
</g>
</g>
<!-- Node1&#45;&gt;Node8 -->
<g id="edge7" class="edge">
<title>Node1&#45;&gt;Node8</title>
<path fill="none" stroke="midnightblue" d="M556.31,-67.48C604.42,-55.5 672.66,-38.5 716.88,-27.49"/>
<polygon fill="midnightblue" stroke="midnightblue" points="717.9,-30.84 726.75,-25.03 716.2,-24.05 717.9,-30.84"/>
</g>
<!-- Node9 -->
<g id="node9" class="node">
<title>Node9</title>
<g id="a_node9"><a xlink:title=" ">
<polygon fill="none" stroke="#bfbfbf" points="872,-6 872,-25 1068,-25 1068,-6 872,-6"/>
<text text-anchor="middle" x="970" y="-13" font-family="Helvetica,sans-Serif" font-size="10.00">clang/Frontend/CompilerInvocation.h</text>
</a>
</g>
</g>
<!-- Node1&#45;&gt;Node9 -->
<g id="edge8" class="edge">
<title>Node1&#45;&gt;Node9</title>
<path fill="none" stroke="midnightblue" d="M573.7,-71.31C662.41,-59.04 810.4,-38.57 898.24,-26.42"/>
<polygon fill="midnightblue" stroke="midnightblue" points="898.96,-29.86 908.39,-25.02 898,-22.92 898.96,-29.86"/>
</g>
<!-- Node10 -->
<g id="node10" class="node">
<title>Node10</title>
<g id="a_node10"><a xlink:title=" ">
<polygon fill="none" stroke="#bfbfbf" points="1085.5,-0.5 1085.5,-30.5 1234.5,-30.5 1234.5,-0.5 1085.5,-0.5"/>
<text text-anchor="start" x="1093.5" y="-18.5" font-family="Helvetica,sans-Serif" font-size="10.00">clang/Serialization</text>
<text text-anchor="middle" x="1160" y="-7.5" font-family="Helvetica,sans-Serif" font-size="10.00">/PCHContainerOperations.h</text>
</a>
</g>
</g>
<!-- Node1&#45;&gt;Node10 -->
<g id="edge9" class="edge">
<title>Node1&#45;&gt;Node10</title>
<path fill="none" stroke="midnightblue" d="M573.54,-77.09C681.48,-70.16 889.31,-55.13 1075.42,-31.14"/>
<polygon fill="midnightblue" stroke="midnightblue" points="1075.92,-34.61 1085.39,-29.84 1075.02,-27.66 1075.92,-34.61"/>
</g>
<!-- Node11 -->
<g id="node11" class="node">
<title>Node11</title>
<g id="a_node11"><a xlink:title=" ">
<polygon fill="none" stroke="#bfbfbf" points="1252.5,-6 1252.5,-25 1379.5,-25 1379.5,-6 1252.5,-6"/>
<text text-anchor="middle" x="1316" y="-13" font-family="Helvetica,sans-Serif" font-size="10.00">clang/Tooling/Tooling.h</text>
</a>
</g>
</g>
<!-- Node1&#45;&gt;Node11 -->
<g id="edge10" class="edge">
<title>Node1&#45;&gt;Node11</title>
<path fill="none" stroke="midnightblue" d="M573.71,-79.69C707.7,-75.7 999.88,-63.72 1244,-31 1251.91,-29.94 1260.25,-28.53 1268.35,-27.01"/>
<polygon fill="midnightblue" stroke="midnightblue" points="1269.28,-30.39 1278.42,-25.04 1267.93,-23.52 1269.28,-30.39"/>
</g>
</g>
</svg>
