<?xml version="1.0" encoding="UTF-8" standalone="no"?>
<!DOCTYPE svg PUBLIC "-//W3C//DTD SVG 1.1//EN"
 "http://www.w3.org/Graphics/SVG/1.1/DTD/svg11.dtd">
<!-- Generated by graphviz version 2.43.0 (0)
 -->
<!-- Title: src/Actions/ASTBuilderAction.cpp Pages: 1 -->
<svg width="1236pt" height="148pt"
 viewBox="0.00 0.00 1236.00 148.00" xmlns="http://www.w3.org/2000/svg" xmlns:xlink="http://www.w3.org/1999/xlink">
<g id="graph0" class="graph" transform="scale(1 1) rotate(0) translate(4 144)">
<title>src/Actions/ASTBuilderAction.cpp</title>
<!-- Node1 -->
<g id="Node000001" class="node">
<title>Node1</title>
<g id="a_Node000001"><a xlink:title=" ">
<polygon fill="#999999" stroke="#666666" points="1066.5,-140 889.5,-140 889.5,-121 1066.5,-121 1066.5,-140"/>
<text text-anchor="middle" x="978" y="-128" font-family="Helvetica,sans-Serif" font-size="10.00">src/Actions/ASTBuilderAction.cpp</text>
</a>
</g>
</g>
<!-- Node2 -->
<g id="Node000002" class="node">
<title>Node2</title>
<g id="a_Node000002"><a xlink:href="ASTBuilderAction_8hpp.html" target="_top" xlink:title=" ">
<polygon fill="white" stroke="#666666" points="752.5,-85 591.5,-85 591.5,-66 752.5,-66 752.5,-85"/>
<text text-anchor="middle" x="672" y="-73" font-family="Helvetica,sans-Serif" font-size="10.00">Actions/ASTBuilderAction.hpp</text>
</a>
</g>
</g>
<!-- Node1&#45;&gt;Node2 -->
<g id="edge1_Node000001_Node000002" class="edge">
<title>Node1&#45;&gt;Node2</title>
<g id="a_edge1_Node000001_Node000002"><a xlink:title=" ">
<path fill="none" stroke="#63b8ff" d="M928.84,-120.98C875.05,-111.67 788.84,-96.74 731.33,-86.78"/>
<polygon fill="#63b8ff" stroke="#63b8ff" points="731.75,-83.3 721.3,-85.04 730.55,-90.19 731.75,-83.3"/>
</a>
</g>
</g>
<!-- Node8 -->
<g id="Node000008" class="node">
<title>Node8</title>
<g id="a_Node000008"><a xlink:title=" ">
<polygon fill="#e0e0e0" stroke="#999999" points="1032,-24.5 964,-24.5 964,-5.5 1032,-5.5 1032,-24.5"/>
<text text-anchor="middle" x="998" y="-12.5" font-family="Helvetica,sans-Serif" font-size="10.00">filesystem</text>
</a>
</g>
</g>
<!-- Node1&#45;&gt;Node8 -->
<g id="edge13_Node000001_Node000008" class="edge">
<title>Node1&#45;&gt;Node8</title>
<g id="a_edge13_Node000001_Node000008"><a xlink:title=" ">
<path fill="none" stroke="#63b8ff" d="M979.5,-120.97C982.72,-102.73 990.32,-59.57 994.71,-34.64"/>
<polygon fill="#63b8ff" stroke="#63b8ff" points="998.19,-35.09 996.48,-24.63 991.3,-33.87 998.19,-35.09"/>
</a>
</g>
</g>
<!-- Node10 -->
<g id="Node000010" class="node">
<title>Node10</title>
<g id="a_Node000010"><a xlink:href="ASTCreation_8hpp.html" target="_top" xlink:title=" ">
<polygon fill="white" stroke="#666666" points="949.5,-85 852.5,-85 852.5,-66 949.5,-66 949.5,-85"/>
<text text-anchor="middle" x="901" y="-73" font-family="Helvetica,sans-Serif" font-size="10.00">ASTCreation.hpp</text>
</a>
</g>
</g>
<!-- Node1&#45;&gt;Node10 -->
<g id="edge9_Node000001_Node000010" class="edge">
<title>Node1&#45;&gt;Node10</title>
<g id="a_edge9_Node000001_Node000010"><a xlink:title=" ">
<path fill="none" stroke="#63b8ff" d="M965.63,-120.98C953.91,-112.92 936.08,-100.65 922.11,-91.03"/>
<polygon fill="#63b8ff" stroke="#63b8ff" points="923.82,-87.96 913.6,-85.17 919.85,-93.72 923.82,-87.96"/>
</a>
</g>
</g>
<!-- Node11 -->
<g id="Node000011" class="node">
<title>Node11</title>
<g id="a_Node000011"><a xlink:title=" ">
<polygon fill="#e0e0e0" stroke="#999999" points="1149.5,-85 1006.5,-85 1006.5,-66 1149.5,-66 1149.5,-85"/>
<text text-anchor="middle" x="1078" y="-73" font-family="Helvetica,sans-Serif" font-size="10.00">clang/Basic/FileManager.h</text>
</a>
</g>
</g>
<!-- Node1&#45;&gt;Node11 -->
<g id="edge12_Node000001_Node000011" class="edge">
<title>Node1&#45;&gt;Node11</title>
<g id="a_edge12_Node000001_Node000011"><a xlink:title=" ">
<path fill="none" stroke="#63b8ff" d="M994.07,-120.98C1009.86,-112.61 1034.22,-99.7 1052.63,-89.95"/>
<polygon fill="#63b8ff" stroke="#63b8ff" points="1054.44,-92.95 1061.64,-85.17 1051.17,-86.76 1054.44,-92.95"/>
</a>
</g>
</g>
<!-- Node12 -->
<g id="Node000012" class="node">
<title>Node12</title>
<g id="a_Node000012"><a xlink:title=" ">
<polygon fill="#e0e0e0" stroke="#999999" points="1228,-85 1168,-85 1168,-66 1228,-66 1228,-85"/>
<text text-anchor="middle" x="1198" y="-73" font-family="Helvetica,sans-Serif" font-size="10.00">iostream</text>
</a>
</g>
</g>
<!-- Node1&#45;&gt;Node12 -->
<g id="edge14_Node000001_Node000012" class="edge">
<title>Node1&#45;&gt;Node12</title>
<g id="a_edge14_Node000001_Node000012"><a xlink:title=" ">
<path fill="none" stroke="#63b8ff" d="M1013.35,-120.98C1052.84,-111.47 1116.66,-96.1 1157.97,-86.14"/>
<polygon fill="#63b8ff" stroke="#63b8ff" points="1158.8,-89.54 1167.7,-83.8 1157.16,-82.74 1158.8,-89.54"/>
</a>
</g>
</g>
<!-- Node3 -->
<g id="Node000003" class="node">
<title>Node3</title>
<g id="a_Node000003"><a xlink:title=" ">
<polygon fill="#e0e0e0" stroke="#999999" points="800,-24.5 660,-24.5 660,-5.5 800,-5.5 800,-24.5"/>
<text text-anchor="middle" x="730" y="-12.5" font-family="Helvetica,sans-Serif" font-size="10.00">clang/Frontend/ASTUnit.h</text>
</a>
</g>
</g>
<!-- Node2&#45;&gt;Node3 -->
<g id="edge2_Node000002_Node000003" class="edge">
<title>Node2&#45;&gt;Node3</title>
<g id="a_edge2_Node000002_Node000003"><a xlink:title=" ">
<path fill="none" stroke="#63b8ff" d="M680.56,-65.87C689.38,-56.97 703.34,-42.89 714.18,-31.95"/>
<polygon fill="#63b8ff" stroke="#63b8ff" points="716.85,-34.23 721.41,-24.67 711.88,-29.3 716.85,-34.23"/>
</a>
</g>
</g>
<!-- Node4 -->
<g id="Node000004" class="node">
<title>Node4</title>
<g id="a_Node000004"><a xlink:title=" ">
<polygon fill="#e0e0e0" stroke="#999999" points="186,-24.5 0,-24.5 0,-5.5 186,-5.5 186,-24.5"/>
<text text-anchor="middle" x="93" y="-12.5" font-family="Helvetica,sans-Serif" font-size="10.00">clang/Frontend/CompilerInstance.h</text>
</a>
</g>
</g>
<!-- Node2&#45;&gt;Node4 -->
<g id="edge3_Node000002_Node000004" class="edge">
<title>Node2&#45;&gt;Node4</title>
<g id="a_edge3_Node000002_Node000004"><a xlink:title=" ">
<path fill="none" stroke="#63b8ff" d="M591.29,-68.04C496.34,-60.2 334.02,-46.02 195,-30 184.26,-28.76 172.9,-27.33 161.82,-25.86"/>
<polygon fill="#63b8ff" stroke="#63b8ff" points="162.11,-22.37 151.74,-24.51 161.18,-29.31 162.11,-22.37"/>
</a>
</g>
</g>
<!-- Node5 -->
<g id="Node000005" class="node">
<title>Node5</title>
<g id="a_Node000005"><a xlink:title=" ">
<polygon fill="#e0e0e0" stroke="#999999" points="400,-24.5 204,-24.5 204,-5.5 400,-5.5 400,-24.5"/>
<text text-anchor="middle" x="302" y="-12.5" font-family="Helvetica,sans-Serif" font-size="10.00">clang/Frontend/CompilerInvocation.h</text>
</a>
</g>
</g>
<!-- Node2&#45;&gt;Node5 -->
<g id="edge4_Node000002_Node000005" class="edge">
<title>Node2&#45;&gt;Node5</title>
<g id="a_edge4_Node000002_Node000005"><a xlink:title=" ">
<path fill="none" stroke="#63b8ff" d="M618.2,-65.99C551.34,-55.42 437.37,-37.4 366.07,-26.13"/>
<polygon fill="#63b8ff" stroke="#63b8ff" points="366.29,-22.62 355.87,-24.52 365.2,-29.54 366.29,-22.62"/>
</a>
</g>
</g>
<!-- Node6 -->
<g id="Node000006" class="node">
<title>Node6</title>
<g id="a_Node000006"><a xlink:title=" ">
<polygon fill="#e0e0e0" stroke="#999999" points="566.5,-30 417.5,-30 417.5,0 566.5,0 566.5,-30"/>
<text text-anchor="start" x="425.5" y="-18" font-family="Helvetica,sans-Serif" font-size="10.00">clang/Serialization</text>
<text text-anchor="middle" x="492" y="-7" font-family="Helvetica,sans-Serif" font-size="10.00">/PCHContainerOperations.h</text>
</a>
</g>
</g>
<!-- Node2&#45;&gt;Node6 -->
<g id="edge5_Node000002_Node000006" class="edge">
<title>Node2&#45;&gt;Node6</title>
<g id="a_edge5_Node000002_Node000006"><a xlink:title=" ">
<path fill="none" stroke="#63b8ff" d="M645.83,-65.99C619.47,-57.43 578.07,-43.97 544.85,-33.18"/>
<polygon fill="#63b8ff" stroke="#63b8ff" points="545.87,-29.83 535.27,-30.06 543.7,-36.48 545.87,-29.83"/>
</a>
</g>
</g>
<!-- Node7 -->
<g id="Node000007" class="node">
<title>Node7</title>
<g id="a_Node000007"><a xlink:title=" ">
<polygon fill="#e0e0e0" stroke="#999999" points="945.5,-24.5 818.5,-24.5 818.5,-5.5 945.5,-5.5 945.5,-24.5"/>
<text text-anchor="middle" x="882" y="-12.5" font-family="Helvetica,sans-Serif" font-size="10.00">clang/Tooling/Tooling.h</text>
</a>
</g>
</g>
<!-- Node2&#45;&gt;Node7 -->
<g id="edge6_Node000002_Node000007" class="edge">
<title>Node2&#45;&gt;Node7</title>
<g id="a_edge6_Node000002_Node000007"><a xlink:title=" ">
<path fill="none" stroke="#63b8ff" d="M702.54,-65.99C739.24,-55.77 800.95,-38.58 841.58,-27.26"/>
<polygon fill="#63b8ff" stroke="#63b8ff" points="842.73,-30.57 851.43,-24.52 840.85,-23.83 842.73,-30.57"/>
</a>
</g>
</g>
<!-- Node2&#45;&gt;Node8 -->
<g id="edge7_Node000002_Node000008" class="edge">
<title>Node2&#45;&gt;Node8</title>
<g id="a_edge7_Node000002_Node000008"><a xlink:title=" ">
<path fill="none" stroke="#63b8ff" d="M747.12,-65.99C804.52,-58.69 885.36,-46.7 955,-30 958.03,-29.27 961.16,-28.43 964.28,-27.54"/>
<polygon fill="#63b8ff" stroke="#63b8ff" points="965.55,-30.81 974.09,-24.53 963.5,-24.11 965.55,-30.81"/>
</a>
</g>
</g>
<!-- Node9 -->
<g id="Node000009" class="node">
<title>Node9</title>
<g id="a_Node000009"><a xlink:title=" ">
<polygon fill="#e0e0e0" stroke="#999999" points="642,-24.5 584,-24.5 584,-5.5 642,-5.5 642,-24.5"/>
<text text-anchor="middle" x="613" y="-12.5" font-family="Helvetica,sans-Serif" font-size="10.00">memory</text>
</a>
</g>
</g>
<!-- Node2&#45;&gt;Node9 -->
<g id="edge8_Node000002_Node000009" class="edge">
<title>Node2&#45;&gt;Node9</title>
<g id="a_edge8_Node000002_Node000009"><a xlink:title=" ">
<path fill="none" stroke="#63b8ff" d="M663.29,-65.87C654.32,-56.97 640.12,-42.89 629.09,-31.95"/>
<polygon fill="#63b8ff" stroke="#63b8ff" points="631.31,-29.22 621.74,-24.67 626.38,-34.19 631.31,-29.22"/>
</a>
</g>
</g>
<!-- Node10&#45;&gt;Node7 -->
<g id="edge10_Node000010_Node000007" class="edge">
<title>Node10&#45;&gt;Node7</title>
<g id="a_edge10_Node000010_Node000007"><a xlink:title=" ">
<path fill="none" stroke="#63b8ff" d="M898.2,-65.87C895.5,-57.57 891.35,-44.78 887.92,-34.22"/>
<polygon fill="#63b8ff" stroke="#63b8ff" points="891.23,-33.1 884.82,-24.67 884.58,-35.26 891.23,-33.1"/>
</a>
</g>
</g>
<!-- Node10&#45;&gt;Node8 -->
<g id="edge11_Node000010_Node000008" class="edge">
<title>Node10&#45;&gt;Node8</title>
<g id="a_edge11_Node000010_Node000008"><a xlink:title=" ">
<path fill="none" stroke="#63b8ff" d="M915.31,-65.87C931,-56.41 956.4,-41.09 974.91,-29.92"/>
<polygon fill="#63b8ff" stroke="#63b8ff" points="976.87,-32.83 983.63,-24.67 973.26,-26.83 976.87,-32.83"/>
</a>
</g>
</g>
</g>
</svg>
