<?xml version="1.0" encoding="UTF-8" standalone="no"?>
<!DOCTYPE svg PUBLIC "-//W3C//DTD SVG 1.1//EN"
 "http://www.w3.org/Graphics/SVG/1.1/DTD/svg11.dtd">
<!-- Generated by graphviz version 2.43.0 (0)
 -->
<!-- Title: src/Actions/ASTBuilderAction.cpp Pages: 1 -->
<svg width="1225pt" height="159pt"
 viewBox="0.00 0.00 1225.00 159.00" xmlns="http://www.w3.org/2000/svg" xmlns:xlink="http://www.w3.org/1999/xlink">
<g id="graph0" class="graph" transform="scale(1 1) rotate(0) translate(4 155)">
<title>src/Actions/ASTBuilderAction.cpp</title>
<!-- Node1 -->
<g id="Node000001" class="node">
<title>Node1</title>
<g id="a_Node000001"><a xlink:title=" ">
<polygon fill="#999999" stroke="#666666" points="614.5,-151 437.5,-151 437.5,-132 614.5,-132 614.5,-151"/>
<text text-anchor="middle" x="526" y="-139" font-family="Helvetica,sans-Serif" font-size="10.00">src/Actions/ASTBuilderAction.cpp</text>
</a>
</g>
</g>
<!-- Node2 -->
<g id="Node000002" class="node">
<title>Node2</title>
<g id="a_Node000002"><a xlink:href="ASTBuilderAction_8hpp.html" target="_top" xlink:title=" ">
<polygon fill="white" stroke="#666666" points="382.5,-90.5 221.5,-90.5 221.5,-71.5 382.5,-71.5 382.5,-90.5"/>
<text text-anchor="middle" x="302" y="-78.5" font-family="Helvetica,sans-Serif" font-size="10.00">Actions/ASTBuilderAction.hpp</text>
</a>
</g>
</g>
<!-- Node1&#45;&gt;Node2 -->
<g id="edge1_Node000001_Node000002" class="edge">
<title>Node1&#45;&gt;Node2</title>
<g id="a_edge1_Node000001_Node000002"><a xlink:title=" ">
<path fill="none" stroke="#63b8ff" d="M493.43,-131.99C454.03,-121.7 387.61,-104.36 344.29,-93.04"/>
<polygon fill="#63b8ff" stroke="#63b8ff" points="345.17,-89.66 334.61,-90.52 343.4,-96.43 345.17,-89.66"/>
</a>
</g>
</g>
<!-- Node3 -->
<g id="Node000003" class="node">
<title>Node3</title>
<g id="a_Node000003"><a xlink:title=" ">
<polygon fill="#e0e0e0" stroke="#999999" points="68,-24.5 0,-24.5 0,-5.5 68,-5.5 68,-24.5"/>
<text text-anchor="middle" x="34" y="-12.5" font-family="Helvetica,sans-Serif" font-size="10.00">filesystem</text>
</a>
</g>
</g>
<!-- Node1&#45;&gt;Node3 -->
<g id="edge9_Node000001_Node000003" class="edge">
<title>Node1&#45;&gt;Node3</title>
<g id="a_edge9_Node000001_Node000003"><a xlink:title=" ">
<path fill="none" stroke="#63b8ff" d="M437.34,-139.73C328.06,-137.37 149.85,-128.46 93,-96 68.34,-81.92 51.01,-52.89 41.77,-33.95"/>
<polygon fill="#63b8ff" stroke="#63b8ff" points="44.84,-32.24 37.48,-24.62 38.48,-35.17 44.84,-32.24"/>
</a>
</g>
</g>
<!-- Node10 -->
<g id="Node000010" class="node">
<title>Node10</title>
<g id="a_Node000010"><a xlink:title=" ">
<polygon fill="#e0e0e0" stroke="#999999" points="461.5,-90.5 400.5,-90.5 400.5,-71.5 461.5,-71.5 461.5,-90.5"/>
<text text-anchor="middle" x="431" y="-78.5" font-family="Helvetica,sans-Serif" font-size="10.00">fmt/std.h</text>
</a>
</g>
</g>
<!-- Node1&#45;&gt;Node10 -->
<g id="edge10_Node000001_Node000010" class="edge">
<title>Node1&#45;&gt;Node10</title>
<g id="a_edge10_Node000001_Node000010"><a xlink:title=" ">
<path fill="none" stroke="#63b8ff" d="M511.98,-131.87C496.69,-122.45 471.97,-107.23 453.86,-96.08"/>
<polygon fill="#63b8ff" stroke="#63b8ff" points="455.43,-92.93 445.08,-90.67 451.75,-98.89 455.43,-92.93"/>
</a>
</g>
</g>
<!-- Node11 -->
<g id="Node000011" class="node">
<title>Node11</title>
<g id="a_Node000011"><a xlink:title=" ">
<polygon fill="#e0e0e0" stroke="#999999" points="572.5,-90.5 479.5,-90.5 479.5,-71.5 572.5,-71.5 572.5,-90.5"/>
<text text-anchor="middle" x="526" y="-78.5" font-family="Helvetica,sans-Serif" font-size="10.00">spdlog/spdlog.h</text>
</a>
</g>
</g>
<!-- Node1&#45;&gt;Node11 -->
<g id="edge11_Node000001_Node000011" class="edge">
<title>Node1&#45;&gt;Node11</title>
<g id="a_edge11_Node000001_Node000011"><a xlink:title=" ">
<path fill="none" stroke="#63b8ff" d="M526,-131.87C526,-123.75 526,-111.31 526,-100.89"/>
<polygon fill="#63b8ff" stroke="#63b8ff" points="529.5,-100.67 526,-90.67 522.5,-100.67 529.5,-100.67"/>
</a>
</g>
</g>
<!-- Node12 -->
<g id="Node000012" class="node">
<title>Node12</title>
<g id="a_Node000012"><a xlink:title=" ">
<polygon fill="#e0e0e0" stroke="#999999" points="727,-90.5 591,-90.5 591,-71.5 727,-71.5 727,-90.5"/>
<text text-anchor="middle" x="659" y="-78.5" font-family="Helvetica,sans-Serif" font-size="10.00">clang/Basic/Diagnostic.h</text>
</a>
</g>
</g>
<!-- Node1&#45;&gt;Node12 -->
<g id="edge12_Node000001_Node000012" class="edge">
<title>Node1&#45;&gt;Node12</title>
<g id="a_edge12_Node000001_Node000012"><a xlink:title=" ">
<path fill="none" stroke="#63b8ff" d="M545.34,-131.99C567.7,-122.16 604.71,-105.88 630.4,-94.58"/>
<polygon fill="#63b8ff" stroke="#63b8ff" points="631.89,-97.75 639.64,-90.52 629.07,-91.34 631.89,-97.75"/>
</a>
</g>
</g>
<!-- Node13 -->
<g id="Node000013" class="node">
<title>Node13</title>
<g id="a_Node000013"><a xlink:title=" ">
<polygon fill="#e0e0e0" stroke="#999999" points="897,-90.5 745,-90.5 745,-71.5 897,-71.5 897,-90.5"/>
<text text-anchor="middle" x="821" y="-78.5" font-family="Helvetica,sans-Serif" font-size="10.00">clang/Basic/DiagnosticIDs.h</text>
</a>
</g>
</g>
<!-- Node1&#45;&gt;Node13 -->
<g id="edge13_Node000001_Node000013" class="edge">
<title>Node1&#45;&gt;Node13</title>
<g id="a_edge13_Node000001_Node000013"><a xlink:title=" ">
<path fill="none" stroke="#63b8ff" d="M568.9,-131.99C621.66,-121.53 711.21,-103.77 768.16,-92.48"/>
<polygon fill="#63b8ff" stroke="#63b8ff" points="768.92,-95.9 778.05,-90.52 767.56,-89.03 768.92,-95.9"/>
</a>
</g>
</g>
<!-- Node14 -->
<g id="Node000014" class="node">
<title>Node14</title>
<g id="a_Node000014"><a xlink:title=" ">
<polygon fill="#e0e0e0" stroke="#999999" points="1058.5,-90.5 915.5,-90.5 915.5,-71.5 1058.5,-71.5 1058.5,-90.5"/>
<text text-anchor="middle" x="987" y="-78.5" font-family="Helvetica,sans-Serif" font-size="10.00">clang/Basic/FileManager.h</text>
</a>
</g>
</g>
<!-- Node1&#45;&gt;Node14 -->
<g id="edge14_Node000001_Node000014" class="edge">
<title>Node1&#45;&gt;Node14</title>
<g id="a_edge14_Node000001_Node000014"><a xlink:title=" ">
<path fill="none" stroke="#63b8ff" d="M609.94,-132C687.06,-123.88 804.44,-110.71 906,-96 913.93,-94.85 922.28,-93.53 930.49,-92.17"/>
<polygon fill="#63b8ff" stroke="#63b8ff" points="931.1,-95.62 940.38,-90.51 929.94,-88.72 931.1,-95.62"/>
</a>
</g>
</g>
<!-- Node15 -->
<g id="Node000015" class="node">
<title>Node15</title>
<g id="a_Node000015"><a xlink:title=" ">
<polygon fill="#e0e0e0" stroke="#999999" points="1217,-96 1077,-96 1077,-66 1217,-66 1217,-96"/>
<text text-anchor="start" x="1085" y="-84" font-family="Helvetica,sans-Serif" font-size="10.00">llvm/ADT/IntrusiveRefCnt</text>
<text text-anchor="middle" x="1147" y="-73" font-family="Helvetica,sans-Serif" font-size="10.00">Ptr.h</text>
</a>
</g>
</g>
<!-- Node1&#45;&gt;Node15 -->
<g id="edge15_Node000001_Node000015" class="edge">
<title>Node1&#45;&gt;Node15</title>
<g id="a_edge15_Node000001_Node000015"><a xlink:title=" ">
<path fill="none" stroke="#63b8ff" d="M614.51,-135.78C719.84,-129.59 901.2,-117.12 1066.48,-96.11"/>
<polygon fill="#63b8ff" stroke="#63b8ff" points="1067.37,-99.53 1076.84,-94.78 1066.48,-92.59 1067.37,-99.53"/>
</a>
</g>
</g>
<!-- Node16 -->
<g id="Node000016" class="node">
<title>Node16</title>
<g id="a_Node000016"><a xlink:href="ASTCreation_8hpp.html" target="_top" xlink:title=" ">
<polygon fill="white" stroke="#666666" points="198.5,-90.5 101.5,-90.5 101.5,-71.5 198.5,-71.5 198.5,-90.5"/>
<text text-anchor="middle" x="150" y="-78.5" font-family="Helvetica,sans-Serif" font-size="10.00">ASTCreation.hpp</text>
</a>
</g>
</g>
<!-- Node1&#45;&gt;Node16 -->
<g id="edge16_Node000001_Node000016" class="edge">
<title>Node1&#45;&gt;Node16</title>
<g id="a_edge16_Node000001_Node000016"><a xlink:title=" ">
<path fill="none" stroke="#63b8ff" d="M454.89,-131.98C391.29,-123.99 295.62,-111.03 213,-96 207.56,-95.01 201.87,-93.88 196.24,-92.7"/>
<polygon fill="#63b8ff" stroke="#63b8ff" points="196.73,-89.23 186.22,-90.55 195.26,-96.07 196.73,-89.23"/>
</a>
</g>
</g>
<!-- Node2&#45;&gt;Node3 -->
<g id="edge2_Node000002_Node000003" class="edge">
<title>Node2&#45;&gt;Node3</title>
<g id="a_edge2_Node000002_Node000003"><a xlink:title=" ">
<path fill="none" stroke="#63b8ff" d="M258.36,-71.45C213.01,-62.29 140.12,-46.78 78,-30 75.17,-29.24 72.25,-28.4 69.33,-27.54"/>
<polygon fill="#63b8ff" stroke="#63b8ff" points="70.07,-24.11 59.48,-24.53 68.02,-30.8 70.07,-24.11"/>
</a>
</g>
</g>
<!-- Node4 -->
<g id="Node000004" class="node">
<title>Node4</title>
<g id="a_Node000004"><a xlink:title=" ">
<polygon fill="#e0e0e0" stroke="#999999" points="1032,-24.5 974,-24.5 974,-5.5 1032,-5.5 1032,-24.5"/>
<text text-anchor="middle" x="1003" y="-12.5" font-family="Helvetica,sans-Serif" font-size="10.00">memory</text>
</a>
</g>
</g>
<!-- Node2&#45;&gt;Node4 -->
<g id="edge3_Node000002_Node000004" class="edge">
<title>Node2&#45;&gt;Node4</title>
<g id="a_edge3_Node000002_Node000004"><a xlink:title=" ">
<path fill="none" stroke="#63b8ff" d="M351.41,-71.48C364.57,-69.44 378.8,-67.44 392,-66 646.11,-38.33 716.12,-83.83 966,-30 968.68,-29.42 971.42,-28.69 974.14,-27.85"/>
<polygon fill="#63b8ff" stroke="#63b8ff" points="975.44,-31.11 983.74,-24.53 973.15,-24.49 975.44,-31.11"/>
</a>
</g>
</g>
<!-- Node5 -->
<g id="Node000005" class="node">
<title>Node5</title>
<g id="a_Node000005"><a xlink:title=" ">
<polygon fill="#e0e0e0" stroke="#999999" points="372,-24.5 232,-24.5 232,-5.5 372,-5.5 372,-24.5"/>
<text text-anchor="middle" x="302" y="-12.5" font-family="Helvetica,sans-Serif" font-size="10.00">clang/Frontend/ASTUnit.h</text>
</a>
</g>
</g>
<!-- Node2&#45;&gt;Node5 -->
<g id="edge4_Node000002_Node000005" class="edge">
<title>Node2&#45;&gt;Node5</title>
<g id="a_edge4_Node000002_Node000005"><a xlink:title=" ">
<path fill="none" stroke="#63b8ff" d="M302,-71.37C302,-62.16 302,-47.29 302,-35.27"/>
<polygon fill="#63b8ff" stroke="#63b8ff" points="305.5,-34.91 302,-24.91 298.5,-34.91 305.5,-34.91"/>
</a>
</g>
</g>
<!-- Node6 -->
<g id="Node000006" class="node">
<title>Node6</title>
<g id="a_Node000006"><a xlink:title=" ">
<polygon fill="#e0e0e0" stroke="#999999" points="576,-24.5 390,-24.5 390,-5.5 576,-5.5 576,-24.5"/>
<text text-anchor="middle" x="483" y="-12.5" font-family="Helvetica,sans-Serif" font-size="10.00">clang/Frontend/CompilerInstance.h</text>
</a>
</g>
</g>
<!-- Node2&#45;&gt;Node6 -->
<g id="edge5_Node000002_Node000006" class="edge">
<title>Node2&#45;&gt;Node6</title>
<g id="a_edge5_Node000002_Node000006"><a xlink:title=" ">
<path fill="none" stroke="#63b8ff" d="M326.41,-71.37C358.08,-60.17 413.47,-40.58 449.18,-27.96"/>
<polygon fill="#63b8ff" stroke="#63b8ff" points="450.43,-31.23 458.69,-24.6 448.09,-24.63 450.43,-31.23"/>
</a>
</g>
</g>
<!-- Node7 -->
<g id="Node000007" class="node">
<title>Node7</title>
<g id="a_Node000007"><a xlink:title=" ">
<polygon fill="#e0e0e0" stroke="#999999" points="790,-24.5 594,-24.5 594,-5.5 790,-5.5 790,-24.5"/>
<text text-anchor="middle" x="692" y="-12.5" font-family="Helvetica,sans-Serif" font-size="10.00">clang/Frontend/CompilerInvocation.h</text>
</a>
</g>
</g>
<!-- Node2&#45;&gt;Node7 -->
<g id="edge6_Node000002_Node000007" class="edge">
<title>Node2&#45;&gt;Node7</title>
<g id="a_edge6_Node000002_Node000007"><a xlink:title=" ">
<path fill="none" stroke="#63b8ff" d="M354.19,-71.44C425.7,-59.7 553.94,-38.66 630.17,-26.15"/>
<polygon fill="#63b8ff" stroke="#63b8ff" points="630.82,-29.59 640.12,-24.51 629.68,-22.68 630.82,-29.59"/>
</a>
</g>
</g>
<!-- Node8 -->
<g id="Node000008" class="node">
<title>Node8</title>
<g id="a_Node000008"><a xlink:title=" ">
<polygon fill="#e0e0e0" stroke="#999999" points="956.5,-30 807.5,-30 807.5,0 956.5,0 956.5,-30"/>
<text text-anchor="start" x="815.5" y="-18" font-family="Helvetica,sans-Serif" font-size="10.00">clang/Serialization</text>
<text text-anchor="middle" x="882" y="-7" font-family="Helvetica,sans-Serif" font-size="10.00">/PCHContainerOperations.h</text>
</a>
</g>
</g>
<!-- Node2&#45;&gt;Node8 -->
<g id="edge7_Node000002_Node000008" class="edge">
<title>Node2&#45;&gt;Node8</title>
<g id="a_edge7_Node000002_Node000008"><a xlink:title=" ">
<path fill="none" stroke="#63b8ff" d="M352.85,-71.49C365.61,-69.52 379.29,-67.55 392,-66 569,-44.43 617.15,-52.8 797.31,-30.15"/>
<polygon fill="#63b8ff" stroke="#63b8ff" points="797.91,-33.61 807.38,-28.87 797.02,-26.66 797.91,-33.61"/>
</a>
</g>
</g>
<!-- Node9 -->
<g id="Node000009" class="node">
<title>Node9</title>
<g id="a_Node000009"><a xlink:title=" ">
<polygon fill="#e0e0e0" stroke="#999999" points="213.5,-24.5 86.5,-24.5 86.5,-5.5 213.5,-5.5 213.5,-24.5"/>
<text text-anchor="middle" x="150" y="-12.5" font-family="Helvetica,sans-Serif" font-size="10.00">clang/Tooling/Tooling.h</text>
</a>
</g>
</g>
<!-- Node2&#45;&gt;Node9 -->
<g id="edge8_Node000002_Node000009" class="edge">
<title>Node2&#45;&gt;Node9</title>
<g id="a_edge8_Node000002_Node000009"><a xlink:title=" ">
<path fill="none" stroke="#63b8ff" d="M281.5,-71.37C255.44,-60.39 210.22,-41.36 180.21,-28.72"/>
<polygon fill="#63b8ff" stroke="#63b8ff" points="181.23,-25.35 170.66,-24.7 178.52,-31.81 181.23,-25.35"/>
</a>
</g>
</g>
<!-- Node16&#45;&gt;Node3 -->
<g id="edge17_Node000016_Node000003" class="edge">
<title>Node16&#45;&gt;Node3</title>
<g id="a_edge17_Node000016_Node000003"><a xlink:title=" ">
<path fill="none" stroke="#63b8ff" d="M134.36,-71.37C114.9,-60.63 81.45,-42.18 58.56,-29.55"/>
<polygon fill="#63b8ff" stroke="#63b8ff" points="60.21,-26.47 49.77,-24.7 56.83,-32.59 60.21,-26.47"/>
</a>
</g>
</g>
<!-- Node16&#45;&gt;Node9 -->
<g id="edge18_Node000016_Node000009" class="edge">
<title>Node16&#45;&gt;Node9</title>
<g id="a_edge18_Node000016_Node000009"><a xlink:title=" ">
<path fill="none" stroke="#63b8ff" d="M150,-71.37C150,-62.16 150,-47.29 150,-35.27"/>
<polygon fill="#63b8ff" stroke="#63b8ff" points="153.5,-34.91 150,-24.91 146.5,-34.91 153.5,-34.91"/>
</a>
</g>
</g>
</g>
</svg>
