<?xml version="1.0" encoding="UTF-8" standalone="no"?>
<!DOCTYPE svg PUBLIC "-//W3C//DTD SVG 1.1//EN"
 "http://www.w3.org/Graphics/SVG/1.1/DTD/svg11.dtd">
<!-- Generated by graphviz version 2.43.0 (0)
 -->
<!-- Title: src/ASTCreation.cpp Pages: 1 -->
<svg width="1379pt" height="148pt"
 viewBox="0.00 0.00 1378.50 148.00" xmlns="http://www.w3.org/2000/svg" xmlns:xlink="http://www.w3.org/1999/xlink">
<g id="graph0" class="graph" transform="scale(1 1) rotate(0) translate(4 144)">
<title>src/ASTCreation.cpp</title>
<!-- Node1 -->
<g id="Node000001" class="node">
<title>Node1</title>
<g id="a_Node000001"><a xlink:title=" ">
<polygon fill="#999999" stroke="#666666" points="855.5,-140 742.5,-140 742.5,-121 855.5,-121 855.5,-140"/>
<text text-anchor="middle" x="799" y="-128" font-family="Helvetica,sans-Serif" font-size="10.00">src/ASTCreation.cpp</text>
</a>
</g>
</g>
<!-- Node2 -->
<g id="Node000002" class="node">
<title>Node2</title>
<g id="a_Node000002"><a xlink:href="ASTCreation_8hpp.html" target="_top" xlink:title=" ">
<polygon fill="white" stroke="#666666" points="198.5,-85 101.5,-85 101.5,-66 198.5,-66 198.5,-85"/>
<text text-anchor="middle" x="150" y="-73" font-family="Helvetica,sans-Serif" font-size="10.00">ASTCreation.hpp</text>
</a>
</g>
</g>
<!-- Node1&#45;&gt;Node2 -->
<g id="edge1_Node000001_Node000002" class="edge">
<title>Node1&#45;&gt;Node2</title>
<g id="a_edge1_Node000001_Node000002"><a xlink:title=" ">
<path fill="none" stroke="#63b8ff" d="M742.26,-124.87C619.99,-114.88 332.73,-91.42 208.71,-81.29"/>
<polygon fill="#63b8ff" stroke="#63b8ff" points="208.9,-77.8 198.65,-80.47 208.33,-84.78 208.9,-77.8"/>
</a>
</g>
</g>
<!-- Node4 -->
<g id="Node000004" class="node">
<title>Node4</title>
<g id="a_Node000004"><a xlink:title=" ">
<polygon fill="#e0e0e0" stroke="#999999" points="68,-24.5 0,-24.5 0,-5.5 68,-5.5 68,-24.5"/>
<text text-anchor="middle" x="34" y="-12.5" font-family="Helvetica,sans-Serif" font-size="10.00">filesystem</text>
</a>
</g>
</g>
<!-- Node1&#45;&gt;Node4 -->
<g id="edge17_Node000001_Node000004" class="edge">
<title>Node1&#45;&gt;Node4</title>
<g id="a_edge17_Node000001_Node000004"><a xlink:title=" ">
<path fill="none" stroke="#63b8ff" d="M742.34,-128.48C584.81,-125.3 149.4,-113.97 92,-85 70.02,-73.91 53.15,-50.38 43.41,-33.9"/>
<polygon fill="#63b8ff" stroke="#63b8ff" points="46.21,-31.75 38.28,-24.72 40.1,-35.16 46.21,-31.75"/>
</a>
</g>
</g>
<!-- Node5 -->
<g id="Node000005" class="node">
<title>Node5</title>
<g id="a_Node000005"><a xlink:href="ASTBuilderAction_8hpp.html" target="_top" xlink:title=" ">
<polygon fill="white" stroke="#666666" points="663.5,-85 502.5,-85 502.5,-66 663.5,-66 663.5,-85"/>
<text text-anchor="middle" x="583" y="-73" font-family="Helvetica,sans-Serif" font-size="10.00">Actions/ASTBuilderAction.hpp</text>
</a>
</g>
</g>
<!-- Node1&#45;&gt;Node5 -->
<g id="edge4_Node000001_Node000005" class="edge">
<title>Node1&#45;&gt;Node5</title>
<g id="a_edge4_Node000001_Node000005"><a xlink:title=" ">
<path fill="none" stroke="#63b8ff" d="M764.3,-120.98C727.25,-111.89 668.41,-97.46 627.87,-87.51"/>
<polygon fill="#63b8ff" stroke="#63b8ff" points="628.52,-84.07 617.98,-85.08 626.85,-90.86 628.52,-84.07"/>
</a>
</g>
</g>
<!-- Node10 -->
<g id="Node000010" class="node">
<title>Node10</title>
<g id="a_Node000010"><a xlink:title=" ">
<polygon fill="#e0e0e0" stroke="#999999" points="828,-24.5 770,-24.5 770,-5.5 828,-5.5 828,-24.5"/>
<text text-anchor="middle" x="799" y="-12.5" font-family="Helvetica,sans-Serif" font-size="10.00">memory</text>
</a>
</g>
</g>
<!-- Node1&#45;&gt;Node10 -->
<g id="edge18_Node000001_Node000010" class="edge">
<title>Node1&#45;&gt;Node10</title>
<g id="a_edge18_Node000001_Node000010"><a xlink:title=" ">
<path fill="none" stroke="#63b8ff" d="M799,-120.97C799,-102.73 799,-59.57 799,-34.64"/>
<polygon fill="#63b8ff" stroke="#63b8ff" points="802.5,-34.63 799,-24.63 795.5,-34.63 802.5,-34.63"/>
</a>
</g>
</g>
<!-- Node11 -->
<g id="Node000011" class="node">
<title>Node11</title>
<g id="a_Node000011"><a xlink:href="DependencyAction_8hpp.html" target="_top" xlink:title=" ">
<polygon fill="white" stroke="#666666" points="1009,-85 841,-85 841,-66 1009,-66 1009,-85"/>
<text text-anchor="middle" x="925" y="-73" font-family="Helvetica,sans-Serif" font-size="10.00">Actions/DependencyAction.hpp</text>
</a>
</g>
</g>
<!-- Node1&#45;&gt;Node11 -->
<g id="edge12_Node000001_Node000011" class="edge">
<title>Node1&#45;&gt;Node11</title>
<g id="a_edge12_Node000001_Node000011"><a xlink:title=" ">
<path fill="none" stroke="#63b8ff" d="M819.24,-120.98C839.7,-112.38 871.53,-98.99 894.93,-89.15"/>
<polygon fill="#63b8ff" stroke="#63b8ff" points="896.53,-92.27 904.39,-85.17 893.81,-85.82 896.53,-92.27"/>
</a>
</g>
</g>
<!-- Node14 -->
<g id="Node000014" class="node">
<title>Node14</title>
<g id="a_Node000014"><a xlink:title=" ">
<polygon fill="#e0e0e0" stroke="#999999" points="1077,-85 1027,-85 1027,-66 1077,-66 1077,-85"/>
<text text-anchor="middle" x="1052" y="-73" font-family="Helvetica,sans-Serif" font-size="10.00">chrono</text>
</a>
</g>
</g>
<!-- Node1&#45;&gt;Node14 -->
<g id="edge16_Node000001_Node000014" class="edge">
<title>Node1&#45;&gt;Node14</title>
<g id="a_edge16_Node000001_Node000014"><a xlink:title=" ">
<path fill="none" stroke="#63b8ff" d="M844,-120.96C886.2,-112.82 951.28,-99.92 1016.7,-85.22"/>
<polygon fill="#63b8ff" stroke="#63b8ff" points="1017.8,-88.56 1026.78,-82.94 1016.25,-81.73 1017.8,-88.56"/>
</a>
</g>
</g>
<!-- Node15 -->
<g id="Node000015" class="node">
<title>Node15</title>
<g id="a_Node000015"><a xlink:title=" ">
<polygon fill="#e0e0e0" stroke="#999999" points="1160.5,-85 1095.5,-85 1095.5,-66 1160.5,-66 1160.5,-85"/>
<text text-anchor="middle" x="1128" y="-73" font-family="Helvetica,sans-Serif" font-size="10.00">stdexcept</text>
</a>
</g>
</g>
<!-- Node1&#45;&gt;Node15 -->
<g id="edge19_Node000001_Node000015" class="edge">
<title>Node1&#45;&gt;Node15</title>
<g id="a_edge19_Node000001_Node000015"><a xlink:title=" ">
<path fill="none" stroke="#63b8ff" d="M855.76,-121.48C911.6,-113.42 999.51,-100.25 1085.53,-85.01"/>
<polygon fill="#63b8ff" stroke="#63b8ff" points="1086.24,-88.44 1095.47,-83.24 1085.01,-81.55 1086.24,-88.44"/>
</a>
</g>
</g>
<!-- Node3 -->
<g id="Node000003" class="node">
<title>Node3</title>
<g id="a_Node000003"><a xlink:title=" ">
<polygon fill="#e0e0e0" stroke="#999999" points="213.5,-24.5 86.5,-24.5 86.5,-5.5 213.5,-5.5 213.5,-24.5"/>
<text text-anchor="middle" x="150" y="-12.5" font-family="Helvetica,sans-Serif" font-size="10.00">clang/Tooling/Tooling.h</text>
</a>
</g>
</g>
<!-- Node2&#45;&gt;Node3 -->
<g id="edge2_Node000002_Node000003" class="edge">
<title>Node2&#45;&gt;Node3</title>
<g id="a_edge2_Node000002_Node000003"><a xlink:title=" ">
<path fill="none" stroke="#63b8ff" d="M150,-65.87C150,-57.75 150,-45.31 150,-34.89"/>
<polygon fill="#63b8ff" stroke="#63b8ff" points="153.5,-34.67 150,-24.67 146.5,-34.67 153.5,-34.67"/>
</a>
</g>
</g>
<!-- Node2&#45;&gt;Node4 -->
<g id="edge3_Node000002_Node000004" class="edge">
<title>Node2&#45;&gt;Node4</title>
<g id="a_edge3_Node000002_Node000004"><a xlink:title=" ">
<path fill="none" stroke="#63b8ff" d="M132.88,-65.87C113.78,-56.23 82.63,-40.53 60.4,-29.31"/>
<polygon fill="#63b8ff" stroke="#63b8ff" points="61.69,-26.05 51.19,-24.67 58.54,-32.3 61.69,-26.05"/>
</a>
</g>
</g>
<!-- Node5&#45;&gt;Node3 -->
<g id="edge9_Node000005_Node000003" class="edge">
<title>Node5&#45;&gt;Node3</title>
<g id="a_edge9_Node000005_Node000003"><a xlink:title=" ">
<path fill="none" stroke="#63b8ff" d="M502.36,-66.08C429.26,-58.09 318.65,-45.07 223,-30 216.23,-28.93 209.14,-27.71 202.13,-26.44"/>
<polygon fill="#63b8ff" stroke="#63b8ff" points="202.46,-22.94 191.99,-24.55 201.18,-29.82 202.46,-22.94"/>
</a>
</g>
</g>
<!-- Node5&#45;&gt;Node4 -->
<g id="edge10_Node000005_Node000004" class="edge">
<title>Node5&#45;&gt;Node4</title>
<g id="a_edge10_Node000005_Node000004"><a xlink:title=" ">
<path fill="none" stroke="#63b8ff" d="M502.44,-73.04C401.92,-69.93 225.19,-60.23 77,-30 73.59,-29.3 70.07,-28.43 66.58,-27.46"/>
<polygon fill="#63b8ff" stroke="#63b8ff" points="67.54,-24.09 56.95,-24.54 65.5,-30.79 67.54,-24.09"/>
</a>
</g>
</g>
<!-- Node6 -->
<g id="Node000006" class="node">
<title>Node6</title>
<g id="a_Node000006"><a xlink:title=" ">
<polygon fill="#e0e0e0" stroke="#999999" points="372,-24.5 232,-24.5 232,-5.5 372,-5.5 372,-24.5"/>
<text text-anchor="middle" x="302" y="-12.5" font-family="Helvetica,sans-Serif" font-size="10.00">clang/Frontend/ASTUnit.h</text>
</a>
</g>
</g>
<!-- Node5&#45;&gt;Node6 -->
<g id="edge5_Node000005_Node000006" class="edge">
<title>Node5&#45;&gt;Node6</title>
<g id="a_edge5_Node000005_Node000006"><a xlink:title=" ">
<path fill="none" stroke="#63b8ff" d="M542.14,-65.99C492.09,-55.57 407.28,-37.92 353.01,-26.62"/>
<polygon fill="#63b8ff" stroke="#63b8ff" points="353.41,-23.13 342.91,-24.52 351.99,-29.98 353.41,-23.13"/>
</a>
</g>
</g>
<!-- Node7 -->
<g id="Node000007" class="node">
<title>Node7</title>
<g id="a_Node000007"><a xlink:title=" ">
<polygon fill="#e0e0e0" stroke="#999999" points="1032,-24.5 846,-24.5 846,-5.5 1032,-5.5 1032,-24.5"/>
<text text-anchor="middle" x="939" y="-12.5" font-family="Helvetica,sans-Serif" font-size="10.00">clang/Frontend/CompilerInstance.h</text>
</a>
</g>
</g>
<!-- Node5&#45;&gt;Node7 -->
<g id="edge6_Node000005_Node000007" class="edge">
<title>Node5&#45;&gt;Node7</title>
<g id="a_edge6_Node000005_Node000007"><a xlink:title=" ">
<path fill="none" stroke="#63b8ff" d="M634.77,-65.99C698.96,-55.44 808.3,-37.48 876.94,-26.2"/>
<polygon fill="#63b8ff" stroke="#63b8ff" points="877.87,-29.59 887.17,-24.52 876.74,-22.68 877.87,-29.59"/>
</a>
</g>
</g>
<!-- Node8 -->
<g id="Node000008" class="node">
<title>Node8</title>
<g id="a_Node000008"><a xlink:title=" ">
<polygon fill="#e0e0e0" stroke="#999999" points="586,-24.5 390,-24.5 390,-5.5 586,-5.5 586,-24.5"/>
<text text-anchor="middle" x="488" y="-12.5" font-family="Helvetica,sans-Serif" font-size="10.00">clang/Frontend/CompilerInvocation.h</text>
</a>
</g>
</g>
<!-- Node5&#45;&gt;Node8 -->
<g id="edge7_Node000005_Node000008" class="edge">
<title>Node5&#45;&gt;Node8</title>
<g id="a_edge7_Node000005_Node000008"><a xlink:title=" ">
<path fill="none" stroke="#63b8ff" d="M568.98,-65.87C553.69,-56.45 528.97,-41.23 510.86,-30.08"/>
<polygon fill="#63b8ff" stroke="#63b8ff" points="512.43,-26.93 502.08,-24.67 508.75,-32.89 512.43,-26.93"/>
</a>
</g>
</g>
<!-- Node9 -->
<g id="Node000009" class="node">
<title>Node9</title>
<g id="a_Node000009"><a xlink:title=" ">
<polygon fill="#e0e0e0" stroke="#999999" points="752.5,-30 603.5,-30 603.5,0 752.5,0 752.5,-30"/>
<text text-anchor="start" x="611.5" y="-18" font-family="Helvetica,sans-Serif" font-size="10.00">clang/Serialization</text>
<text text-anchor="middle" x="678" y="-7" font-family="Helvetica,sans-Serif" font-size="10.00">/PCHContainerOperations.h</text>
</a>
</g>
</g>
<!-- Node5&#45;&gt;Node9 -->
<g id="edge8_Node000005_Node000009" class="edge">
<title>Node5&#45;&gt;Node9</title>
<g id="a_edge8_Node000005_Node000009"><a xlink:title=" ">
<path fill="none" stroke="#63b8ff" d="M597.02,-65.87C609.91,-57.93 629.49,-45.87 646.17,-35.6"/>
<polygon fill="#63b8ff" stroke="#63b8ff" points="648.4,-38.34 655.08,-30.11 644.73,-32.38 648.4,-38.34"/>
</a>
</g>
</g>
<!-- Node5&#45;&gt;Node10 -->
<g id="edge11_Node000005_Node000010" class="edge">
<title>Node5&#45;&gt;Node10</title>
<g id="a_edge11_Node000005_Node000010"><a xlink:title=" ">
<path fill="none" stroke="#63b8ff" d="M622.22,-65.98C658.52,-57.79 713.82,-44.54 761,-30 763.13,-29.34 765.31,-28.64 767.51,-27.9"/>
<polygon fill="#63b8ff" stroke="#63b8ff" points="768.76,-31.17 777.03,-24.55 766.44,-24.56 768.76,-31.17"/>
</a>
</g>
</g>
<!-- Node11&#45;&gt;Node7 -->
<g id="edge13_Node000011_Node000007" class="edge">
<title>Node11&#45;&gt;Node7</title>
<g id="a_edge13_Node000011_Node000007"><a xlink:title=" ">
<path fill="none" stroke="#63b8ff" d="M927.07,-65.87C929.03,-57.66 932.05,-45.04 934.56,-34.55"/>
<polygon fill="#63b8ff" stroke="#63b8ff" points="938,-35.21 936.93,-24.67 931.19,-33.58 938,-35.21"/>
</a>
</g>
</g>
<!-- Node12 -->
<g id="Node000012" class="node">
<title>Node12</title>
<g id="a_Node000012"><a xlink:title=" ">
<polygon fill="#e0e0e0" stroke="#999999" points="1370.5,-24.5 1191.5,-24.5 1191.5,-5.5 1370.5,-5.5 1370.5,-24.5"/>
<text text-anchor="middle" x="1281" y="-12.5" font-family="Helvetica,sans-Serif" font-size="10.00">clang/Frontend/FrontendActions.h</text>
</a>
</g>
</g>
<!-- Node11&#45;&gt;Node12 -->
<g id="edge14_Node000011_Node000012" class="edge">
<title>Node11&#45;&gt;Node12</title>
<g id="a_edge14_Node000011_Node000012"><a xlink:title=" ">
<path fill="none" stroke="#63b8ff" d="M976.77,-65.99C1040.96,-55.44 1150.3,-37.48 1218.94,-26.2"/>
<polygon fill="#63b8ff" stroke="#63b8ff" points="1219.87,-29.59 1229.17,-24.52 1218.74,-22.68 1219.87,-29.59"/>
</a>
</g>
</g>
<!-- Node13 -->
<g id="Node000013" class="node">
<title>Node13</title>
<g id="a_Node000013"><a xlink:title=" ">
<polygon fill="#e0e0e0" stroke="#999999" points="1173.5,-24.5 1050.5,-24.5 1050.5,-5.5 1173.5,-5.5 1173.5,-24.5"/>
<text text-anchor="middle" x="1112" y="-12.5" font-family="Helvetica,sans-Serif" font-size="10.00">clang/Frontend/Utils.h</text>
</a>
</g>
</g>
<!-- Node11&#45;&gt;Node13 -->
<g id="edge15_Node000011_Node000013" class="edge">
<title>Node11&#45;&gt;Node13</title>
<g id="a_edge15_Node000011_Node000013"><a xlink:title=" ">
<path fill="none" stroke="#63b8ff" d="M952.19,-65.99C984.6,-55.86 1038.9,-38.87 1075.08,-27.55"/>
<polygon fill="#63b8ff" stroke="#63b8ff" points="1076.28,-30.84 1084.78,-24.52 1074.19,-24.16 1076.28,-30.84"/>
</a>
</g>
</g>
</g>
</svg>
