<?xml version="1.0" encoding="UTF-8" standalone="no"?>
<!DOCTYPE svg PUBLIC "-//W3C//DTD SVG 1.1//EN"
 "http://www.w3.org/Graphics/SVG/1.1/DTD/svg11.dtd">
<!-- Generated by graphviz version 2.43.0 (0)
 -->
<!-- Title: src/ASTCreation.cpp Pages: 1 -->
<svg width="1379pt" height="148pt"
 viewBox="0.00 0.00 1378.50 148.00" xmlns="http://www.w3.org/2000/svg" xmlns:xlink="http://www.w3.org/1999/xlink">
<g id="graph0" class="graph" transform="scale(1 1) rotate(0) translate(4 144)">
<title>src/ASTCreation.cpp</title>
<!-- Node1 -->
<g id="Node000001" class="node">
<title>Node1</title>
<g id="a_Node000001"><a xlink:title=" ">
<polygon fill="#999999" stroke="#666666" points="525.5,-140 412.5,-140 412.5,-121 525.5,-121 525.5,-140"/>
<text text-anchor="middle" x="469" y="-128" font-family="Helvetica,sans-Serif" font-size="10.00">src/ASTCreation.cpp</text>
</a>
</g>
</g>
<!-- Node2 -->
<g id="Node000002" class="node">
<title>Node2</title>
<g id="a_Node000002"><a xlink:href="ASTCreation_8hpp.html" target="_top" xlink:title=" ">
<polygon fill="white" stroke="#666666" points="198.5,-85 101.5,-85 101.5,-66 198.5,-66 198.5,-85"/>
<text text-anchor="middle" x="150" y="-73" font-family="Helvetica,sans-Serif" font-size="10.00">ASTCreation.hpp</text>
</a>
</g>
</g>
<!-- Node1&#45;&gt;Node2 -->
<g id="edge1_Node000001_Node000002" class="edge">
<title>Node1&#45;&gt;Node2</title>
<g id="a_edge1_Node000001_Node000002"><a xlink:title=" ">
<path fill="none" stroke="#63b8ff" d="M417.75,-120.98C360.64,-111.5 268.48,-96.19 208.57,-86.23"/>
<polygon fill="#63b8ff" stroke="#63b8ff" points="208.95,-82.75 198.51,-84.56 207.8,-89.65 208.95,-82.75"/>
</a>
</g>
</g>
<!-- Node3 -->
<g id="Node000003" class="node">
<title>Node3</title>
<g id="a_Node000003"><a xlink:title=" ">
<polygon fill="#e0e0e0" stroke="#999999" points="68,-24.5 0,-24.5 0,-5.5 68,-5.5 68,-24.5"/>
<text text-anchor="middle" x="34" y="-12.5" font-family="Helvetica,sans-Serif" font-size="10.00">filesystem</text>
</a>
</g>
</g>
<!-- Node1&#45;&gt;Node3 -->
<g id="edge5_Node000001_Node000003" class="edge">
<title>Node1&#45;&gt;Node3</title>
<g id="a_edge5_Node000001_Node000003"><a xlink:title=" ">
<path fill="none" stroke="#63b8ff" d="M412.32,-127.88C320.99,-124.43 146.02,-114.14 92,-85 70.33,-73.31 53.39,-49.93 43.55,-33.64"/>
<polygon fill="#63b8ff" stroke="#63b8ff" points="46.37,-31.52 38.36,-24.58 40.29,-35 46.37,-31.52"/>
</a>
</g>
</g>
<!-- Node5 -->
<g id="Node000005" class="node">
<title>Node5</title>
<g id="a_Node000005"><a xlink:title=" ">
<polygon fill="#e0e0e0" stroke="#999999" points="713,-85 663,-85 663,-66 713,-66 713,-85"/>
<text text-anchor="middle" x="688" y="-73" font-family="Helvetica,sans-Serif" font-size="10.00">chrono</text>
</a>
</g>
</g>
<!-- Node1&#45;&gt;Node5 -->
<g id="edge4_Node000001_Node000005" class="edge">
<title>Node1&#45;&gt;Node5</title>
<g id="a_edge4_Node000001_Node000005"><a xlink:title=" ">
<path fill="none" stroke="#63b8ff" d="M504.83,-120.98C540.08,-112.58 595.68,-99.27 652.83,-85.27"/>
<polygon fill="#63b8ff" stroke="#63b8ff" points="653.88,-88.62 662.76,-82.84 652.21,-81.82 653.88,-88.62"/>
</a>
</g>
</g>
<!-- Node6 -->
<g id="Node000006" class="node">
<title>Node6</title>
<g id="a_Node000006"><a xlink:title=" ">
<polygon fill="#e0e0e0" stroke="#999999" points="290,-24.5 232,-24.5 232,-5.5 290,-5.5 290,-24.5"/>
<text text-anchor="middle" x="261" y="-12.5" font-family="Helvetica,sans-Serif" font-size="10.00">memory</text>
</a>
</g>
</g>
<!-- Node1&#45;&gt;Node6 -->
<g id="edge6_Node000001_Node000006" class="edge">
<title>Node1&#45;&gt;Node6</title>
<g id="a_edge6_Node000001_Node000006"><a xlink:title=" ">
<path fill="none" stroke="#63b8ff" d="M412.18,-128.76C373.01,-125.36 322.08,-114.85 288,-85 273.36,-72.18 266.6,-50.41 263.51,-34.75"/>
<polygon fill="#63b8ff" stroke="#63b8ff" points="266.92,-33.95 261.85,-24.65 260.02,-35.08 266.92,-33.95"/>
</a>
</g>
</g>
<!-- Node7 -->
<g id="Node000007" class="node">
<title>Node7</title>
<g id="a_Node000007"><a xlink:title=" ">
<polygon fill="#e0e0e0" stroke="#999999" points="796.5,-85 731.5,-85 731.5,-66 796.5,-66 796.5,-85"/>
<text text-anchor="middle" x="764" y="-73" font-family="Helvetica,sans-Serif" font-size="10.00">stdexcept</text>
</a>
</g>
</g>
<!-- Node1&#45;&gt;Node7 -->
<g id="edge7_Node000001_Node000007" class="edge">
<title>Node1&#45;&gt;Node7</title>
<g id="a_edge7_Node000001_Node000007"><a xlink:title=" ">
<path fill="none" stroke="#63b8ff" d="M519.95,-120.93C568.9,-112.61 645.2,-99.41 721.22,-85.11"/>
<polygon fill="#63b8ff" stroke="#63b8ff" points="722.28,-88.47 731.46,-83.17 720.98,-81.59 722.28,-88.47"/>
</a>
</g>
</g>
<!-- Node8 -->
<g id="Node000008" class="node">
<title>Node8</title>
<g id="a_Node000008"><a xlink:title=" ">
<polygon fill="#e0e0e0" stroke="#999999" points="907.5,-85 814.5,-85 814.5,-66 907.5,-66 907.5,-85"/>
<text text-anchor="middle" x="861" y="-73" font-family="Helvetica,sans-Serif" font-size="10.00">spdlog/spdlog.h</text>
</a>
</g>
</g>
<!-- Node1&#45;&gt;Node8 -->
<g id="edge8_Node000001_Node000008" class="edge">
<title>Node1&#45;&gt;Node8</title>
<g id="a_edge8_Node000001_Node000008"><a xlink:title=" ">
<path fill="none" stroke="#63b8ff" d="M525.7,-122.4C590.62,-114.18 700.43,-100.02 804.45,-85.2"/>
<polygon fill="#63b8ff" stroke="#63b8ff" points="805.1,-88.64 814.5,-83.76 804.11,-81.71 805.1,-88.64"/>
</a>
</g>
</g>
<!-- Node9 -->
<g id="Node000009" class="node">
<title>Node9</title>
<g id="a_Node000009"><a xlink:href="ASTBuilderAction_8hpp.html" target="_top" xlink:title=" ">
<polygon fill="white" stroke="#666666" points="458.5,-85 297.5,-85 297.5,-66 458.5,-66 458.5,-85"/>
<text text-anchor="middle" x="378" y="-73" font-family="Helvetica,sans-Serif" font-size="10.00">Actions/ASTBuilderAction.hpp</text>
</a>
</g>
</g>
<!-- Node1&#45;&gt;Node9 -->
<g id="edge9_Node000001_Node000009" class="edge">
<title>Node1&#45;&gt;Node9</title>
<g id="a_edge9_Node000001_Node000009"><a xlink:title=" ">
<path fill="none" stroke="#63b8ff" d="M454.38,-120.98C440.14,-112.69 418.25,-99.94 401.55,-90.22"/>
<polygon fill="#63b8ff" stroke="#63b8ff" points="403.29,-87.18 392.89,-85.17 399.77,-93.23 403.29,-87.18"/>
</a>
</g>
</g>
<!-- Node14 -->
<g id="Node000014" class="node">
<title>Node14</title>
<g id="a_Node000014"><a xlink:href="DependencyAction_8hpp.html" target="_top" xlink:title=" ">
<polygon fill="white" stroke="#666666" points="645,-85 477,-85 477,-66 645,-66 645,-85"/>
<text text-anchor="middle" x="561" y="-73" font-family="Helvetica,sans-Serif" font-size="10.00">Actions/DependencyAction.hpp</text>
</a>
</g>
</g>
<!-- Node1&#45;&gt;Node14 -->
<g id="edge17_Node000001_Node000014" class="edge">
<title>Node1&#45;&gt;Node14</title>
<g id="a_edge17_Node000001_Node000014"><a xlink:title=" ">
<path fill="none" stroke="#63b8ff" d="M483.78,-120.98C498.18,-112.69 520.31,-99.94 537.19,-90.22"/>
<polygon fill="#63b8ff" stroke="#63b8ff" points="539.03,-93.19 545.95,-85.17 535.54,-87.13 539.03,-93.19"/>
</a>
</g>
</g>
<!-- Node2&#45;&gt;Node3 -->
<g id="edge2_Node000002_Node000003" class="edge">
<title>Node2&#45;&gt;Node3</title>
<g id="a_edge2_Node000002_Node000003"><a xlink:title=" ">
<path fill="none" stroke="#63b8ff" d="M132.88,-65.87C113.78,-56.23 82.63,-40.53 60.4,-29.31"/>
<polygon fill="#63b8ff" stroke="#63b8ff" points="61.69,-26.05 51.19,-24.67 58.54,-32.3 61.69,-26.05"/>
</a>
</g>
</g>
<!-- Node4 -->
<g id="Node000004" class="node">
<title>Node4</title>
<g id="a_Node000004"><a xlink:title=" ">
<polygon fill="#e0e0e0" stroke="#999999" points="213.5,-24.5 86.5,-24.5 86.5,-5.5 213.5,-5.5 213.5,-24.5"/>
<text text-anchor="middle" x="150" y="-12.5" font-family="Helvetica,sans-Serif" font-size="10.00">clang/Tooling/Tooling.h</text>
</a>
</g>
</g>
<!-- Node2&#45;&gt;Node4 -->
<g id="edge3_Node000002_Node000004" class="edge">
<title>Node2&#45;&gt;Node4</title>
<g id="a_edge3_Node000002_Node000004"><a xlink:title=" ">
<path fill="none" stroke="#63b8ff" d="M150,-65.87C150,-57.75 150,-45.31 150,-34.89"/>
<polygon fill="#63b8ff" stroke="#63b8ff" points="153.5,-34.67 150,-24.67 146.5,-34.67 153.5,-34.67"/>
</a>
</g>
</g>
<!-- Node9&#45;&gt;Node3 -->
<g id="edge10_Node000009_Node000003" class="edge">
<title>Node9&#45;&gt;Node3</title>
<g id="a_edge10_Node000009_Node000003"><a xlink:title=" ">
<path fill="none" stroke="#63b8ff" d="M297.46,-66.32C236.44,-59.22 150.79,-47.34 77,-30 73.96,-29.29 70.84,-28.46 67.72,-27.57"/>
<polygon fill="#63b8ff" stroke="#63b8ff" points="68.49,-24.14 57.91,-24.57 66.45,-30.84 68.49,-24.14"/>
</a>
</g>
</g>
<!-- Node9&#45;&gt;Node4 -->
<g id="edge16_Node000009_Node000004" class="edge">
<title>Node9&#45;&gt;Node4</title>
<g id="a_edge16_Node000009_Node000004"><a xlink:title=" ">
<path fill="none" stroke="#63b8ff" d="M344.85,-65.99C304.74,-55.7 237.14,-38.36 193.05,-27.04"/>
<polygon fill="#63b8ff" stroke="#63b8ff" points="193.75,-23.61 183.19,-24.52 192.01,-30.39 193.75,-23.61"/>
</a>
</g>
</g>
<!-- Node9&#45;&gt;Node6 -->
<g id="edge11_Node000009_Node000006" class="edge">
<title>Node9&#45;&gt;Node6</title>
<g id="a_edge11_Node000009_Node000006"><a xlink:title=" ">
<path fill="none" stroke="#63b8ff" d="M360.99,-65.99C341.58,-56.29 309.61,-40.31 287.06,-29.03"/>
<polygon fill="#63b8ff" stroke="#63b8ff" points="288.54,-25.86 278.03,-24.52 285.41,-32.12 288.54,-25.86"/>
</a>
</g>
</g>
<!-- Node10 -->
<g id="Node000010" class="node">
<title>Node10</title>
<g id="a_Node000010"><a xlink:title=" ">
<polygon fill="#e0e0e0" stroke="#999999" points="448,-24.5 308,-24.5 308,-5.5 448,-5.5 448,-24.5"/>
<text text-anchor="middle" x="378" y="-12.5" font-family="Helvetica,sans-Serif" font-size="10.00">clang/Frontend/ASTUnit.h</text>
</a>
</g>
</g>
<!-- Node9&#45;&gt;Node10 -->
<g id="edge12_Node000009_Node000010" class="edge">
<title>Node9&#45;&gt;Node10</title>
<g id="a_edge12_Node000009_Node000010"><a xlink:title=" ">
<path fill="none" stroke="#63b8ff" d="M378,-65.87C378,-57.75 378,-45.31 378,-34.89"/>
<polygon fill="#63b8ff" stroke="#63b8ff" points="381.5,-34.67 378,-24.67 374.5,-34.67 381.5,-34.67"/>
</a>
</g>
</g>
<!-- Node11 -->
<g id="Node000011" class="node">
<title>Node11</title>
<g id="a_Node000011"><a xlink:title=" ">
<polygon fill="#e0e0e0" stroke="#999999" points="1032,-24.5 846,-24.5 846,-5.5 1032,-5.5 1032,-24.5"/>
<text text-anchor="middle" x="939" y="-12.5" font-family="Helvetica,sans-Serif" font-size="10.00">clang/Frontend/CompilerInstance.h</text>
</a>
</g>
</g>
<!-- Node9&#45;&gt;Node11 -->
<g id="edge13_Node000009_Node000011" class="edge">
<title>Node9&#45;&gt;Node11</title>
<g id="a_edge13_Node000009_Node000011"><a xlink:title=" ">
<path fill="none" stroke="#63b8ff" d="M458.99,-66.85C580.95,-55.3 801.44,-34.3 838,-30 848.57,-28.76 859.74,-27.33 870.65,-25.86"/>
<polygon fill="#63b8ff" stroke="#63b8ff" points="871.13,-29.33 880.57,-24.52 870.19,-22.39 871.13,-29.33"/>
</a>
</g>
</g>
<!-- Node12 -->
<g id="Node000012" class="node">
<title>Node12</title>
<g id="a_Node000012"><a xlink:title=" ">
<polygon fill="#e0e0e0" stroke="#999999" points="662,-24.5 466,-24.5 466,-5.5 662,-5.5 662,-24.5"/>
<text text-anchor="middle" x="564" y="-12.5" font-family="Helvetica,sans-Serif" font-size="10.00">clang/Frontend/CompilerInvocation.h</text>
</a>
</g>
</g>
<!-- Node9&#45;&gt;Node12 -->
<g id="edge14_Node000009_Node000012" class="edge">
<title>Node9&#45;&gt;Node12</title>
<g id="a_edge14_Node000009_Node000012"><a xlink:title=" ">
<path fill="none" stroke="#63b8ff" d="M405.05,-65.99C437.28,-55.86 491.29,-38.87 527.28,-27.55"/>
<polygon fill="#63b8ff" stroke="#63b8ff" points="528.43,-30.86 536.92,-24.52 526.33,-24.18 528.43,-30.86"/>
</a>
</g>
</g>
<!-- Node13 -->
<g id="Node000013" class="node">
<title>Node13</title>
<g id="a_Node000013"><a xlink:title=" ">
<polygon fill="#e0e0e0" stroke="#999999" points="828.5,-30 679.5,-30 679.5,0 828.5,0 828.5,-30"/>
<text text-anchor="start" x="687.5" y="-18" font-family="Helvetica,sans-Serif" font-size="10.00">clang/Serialization</text>
<text text-anchor="middle" x="754" y="-7" font-family="Helvetica,sans-Serif" font-size="10.00">/PCHContainerOperations.h</text>
</a>
</g>
</g>
<!-- Node9&#45;&gt;Node13 -->
<g id="edge15_Node000009_Node000013" class="edge">
<title>Node9&#45;&gt;Node13</title>
<g id="a_edge15_Node000009_Node000013"><a xlink:title=" ">
<path fill="none" stroke="#63b8ff" d="M435.86,-66C492.8,-57.57 582.5,-44.11 669.33,-30.25"/>
<polygon fill="#63b8ff" stroke="#63b8ff" points="670.03,-33.69 679.35,-28.65 668.93,-26.77 670.03,-33.69"/>
</a>
</g>
</g>
<!-- Node14&#45;&gt;Node11 -->
<g id="edge18_Node000014_Node000011" class="edge">
<title>Node14&#45;&gt;Node11</title>
<g id="a_edge18_Node000014_Node000011"><a xlink:title=" ">
<path fill="none" stroke="#63b8ff" d="M615.96,-65.99C684.41,-55.4 801.18,-37.33 874,-26.06"/>
<polygon fill="#63b8ff" stroke="#63b8ff" points="874.62,-29.5 883.97,-24.52 873.55,-22.59 874.62,-29.5"/>
</a>
</g>
</g>
<!-- Node15 -->
<g id="Node000015" class="node">
<title>Node15</title>
<g id="a_Node000015"><a xlink:title=" ">
<polygon fill="#e0e0e0" stroke="#999999" points="1370.5,-24.5 1191.5,-24.5 1191.5,-5.5 1370.5,-5.5 1370.5,-24.5"/>
<text text-anchor="middle" x="1281" y="-12.5" font-family="Helvetica,sans-Serif" font-size="10.00">clang/Frontend/FrontendActions.h</text>
</a>
</g>
</g>
<!-- Node14&#45;&gt;Node15 -->
<g id="edge19_Node000014_Node000015" class="edge">
<title>Node14&#45;&gt;Node15</title>
<g id="a_edge19_Node000014_Node000015"><a xlink:title=" ">
<path fill="none" stroke="#63b8ff" d="M645.14,-66.72C648.13,-66.47 651.09,-66.23 654,-66 888.91,-47.27 948.64,-54.68 1183,-30 1193.8,-28.86 1205.23,-27.43 1216.33,-25.93"/>
<polygon fill="#63b8ff" stroke="#63b8ff" points="1216.98,-29.37 1226.4,-24.53 1216.02,-22.44 1216.98,-29.37"/>
</a>
</g>
</g>
<!-- Node16 -->
<g id="Node000016" class="node">
<title>Node16</title>
<g id="a_Node000016"><a xlink:title=" ">
<polygon fill="#e0e0e0" stroke="#999999" points="1173.5,-24.5 1050.5,-24.5 1050.5,-5.5 1173.5,-5.5 1173.5,-24.5"/>
<text text-anchor="middle" x="1112" y="-12.5" font-family="Helvetica,sans-Serif" font-size="10.00">clang/Frontend/Utils.h</text>
</a>
</g>
</g>
<!-- Node14&#45;&gt;Node16 -->
<g id="edge20_Node000014_Node000016" class="edge">
<title>Node14&#45;&gt;Node16</title>
<g id="a_edge20_Node000014_Node000016"><a xlink:title=" ">
<path fill="none" stroke="#63b8ff" d="M645.25,-66.8C780.33,-54.44 1031.33,-31.4 1041,-30 1047.85,-29.01 1055.04,-27.8 1062.11,-26.5"/>
<polygon fill="#63b8ff" stroke="#63b8ff" points="1063.15,-29.87 1072.32,-24.57 1061.84,-22.99 1063.15,-29.87"/>
</a>
</g>
</g>
</g>
</svg>
