<?xml version="1.0" encoding="UTF-8" standalone="no"?>
<!DOCTYPE svg PUBLIC "-//W3C//DTD SVG 1.1//EN"
 "http://www.w3.org/Graphics/SVG/1.1/DTD/svg11.dtd">
<!-- Generated by graphviz version 2.43.0 (0)
 -->
<!-- Title: src/ASTCreation.cpp Pages: 1 -->
<svg width="1565pt" height="148pt"
 viewBox="0.00 0.00 1564.50 148.00" xmlns="http://www.w3.org/2000/svg" xmlns:xlink="http://www.w3.org/1999/xlink">
<g id="graph0" class="graph" transform="scale(1 1) rotate(0) translate(4 144)">
<title>src/ASTCreation.cpp</title>
<!-- Node1 -->
<g id="Node000001" class="node">
<title>Node1</title>
<g id="a_Node000001"><a xlink:title=" ">
<polygon fill="#999999" stroke="#666666" points="538.5,-140 425.5,-140 425.5,-121 538.5,-121 538.5,-140"/>
<text text-anchor="middle" x="482" y="-128" font-family="Helvetica,sans-Serif" font-size="10.00">src/ASTCreation.cpp</text>
</a>
</g>
</g>
<!-- Node2 -->
<g id="Node000002" class="node">
<title>Node2</title>
<g id="a_Node000002"><a xlink:title=" ">
<polygon fill="#e0e0e0" stroke="#999999" points="256,-85 206,-85 206,-66 256,-66 256,-85"/>
<text text-anchor="middle" x="231" y="-73" font-family="Helvetica,sans-Serif" font-size="10.00">chrono</text>
</a>
</g>
</g>
<!-- Node1&#45;&gt;Node2 -->
<g id="edge1_Node000001_Node000002" class="edge">
<title>Node1&#45;&gt;Node2</title>
<g id="a_edge1_Node000001_Node000002"><a xlink:title=" ">
<path fill="none" stroke="#63b8ff" d="M437.41,-120.93C395.6,-112.77 331.12,-99.86 266.22,-85.2"/>
<polygon fill="#63b8ff" stroke="#63b8ff" points="266.75,-81.73 256.22,-82.93 265.2,-88.56 266.75,-81.73"/>
</a>
</g>
</g>
<!-- Node3 -->
<g id="Node000003" class="node">
<title>Node3</title>
<g id="a_Node000003"><a xlink:title=" ">
<polygon fill="#e0e0e0" stroke="#999999" points="342,-85 274,-85 274,-66 342,-66 342,-85"/>
<text text-anchor="middle" x="308" y="-73" font-family="Helvetica,sans-Serif" font-size="10.00">filesystem</text>
</a>
</g>
</g>
<!-- Node1&#45;&gt;Node3 -->
<g id="edge2_Node000001_Node000003" class="edge">
<title>Node1&#45;&gt;Node3</title>
<g id="a_edge2_Node000001_Node000003"><a xlink:title=" ">
<path fill="none" stroke="#63b8ff" d="M454.04,-120.98C424.7,-112.05 378.4,-97.94 345.81,-88.02"/>
<polygon fill="#63b8ff" stroke="#63b8ff" points="346.76,-84.65 336.18,-85.08 344.72,-91.34 346.76,-84.65"/>
</a>
</g>
</g>
<!-- Node4 -->
<g id="Node000004" class="node">
<title>Node4</title>
<g id="a_Node000004"><a xlink:title=" ">
<polygon fill="#e0e0e0" stroke="#999999" points="416,-85 360,-85 360,-66 416,-66 416,-85"/>
<text text-anchor="middle" x="388" y="-73" font-family="Helvetica,sans-Serif" font-size="10.00">iomanip</text>
</a>
</g>
</g>
<!-- Node1&#45;&gt;Node4 -->
<g id="edge3_Node000001_Node000004" class="edge">
<title>Node1&#45;&gt;Node4</title>
<g id="a_edge3_Node000001_Node000004"><a xlink:title=" ">
<path fill="none" stroke="#63b8ff" d="M466.9,-120.98C452.18,-112.69 429.58,-99.94 412.33,-90.22"/>
<polygon fill="#63b8ff" stroke="#63b8ff" points="413.81,-87.03 403.38,-85.17 410.37,-93.13 413.81,-87.03"/>
</a>
</g>
</g>
<!-- Node5 -->
<g id="Node000005" class="node">
<title>Node5</title>
<g id="a_Node000005"><a xlink:title=" ">
<polygon fill="#e0e0e0" stroke="#999999" points="58,-24.5 0,-24.5 0,-5.5 58,-5.5 58,-24.5"/>
<text text-anchor="middle" x="29" y="-12.5" font-family="Helvetica,sans-Serif" font-size="10.00">memory</text>
</a>
</g>
</g>
<!-- Node1&#45;&gt;Node5 -->
<g id="edge4_Node000001_Node000005" class="edge">
<title>Node1&#45;&gt;Node5</title>
<g id="a_edge4_Node000001_Node000005"><a xlink:title=" ">
<path fill="none" stroke="#63b8ff" d="M477.06,-120.65C468.53,-106.34 449.57,-78.47 425,-66 282.41,6.39 222.83,-65.93 67,-30 64.33,-29.38 61.59,-28.63 58.87,-27.8"/>
<polygon fill="#63b8ff" stroke="#63b8ff" points="59.82,-24.42 49.22,-24.52 57.57,-31.05 59.82,-24.42"/>
</a>
</g>
</g>
<!-- Node6 -->
<g id="Node000006" class="node">
<title>Node6</title>
<g id="a_Node000006"><a xlink:title=" ">
<polygon fill="#e0e0e0" stroke="#999999" points="1271,-85 1227,-85 1227,-66 1271,-66 1271,-85"/>
<text text-anchor="middle" x="1249" y="-73" font-family="Helvetica,sans-Serif" font-size="10.00">regex</text>
</a>
</g>
</g>
<!-- Node1&#45;&gt;Node6 -->
<g id="edge5_Node000001_Node000006" class="edge">
<title>Node1&#45;&gt;Node6</title>
<g id="a_edge5_Node000001_Node000006"><a xlink:title=" ">
<path fill="none" stroke="#63b8ff" d="M538.77,-130.05C661.3,-130.39 959.61,-126.59 1216.87,-84.82"/>
<polygon fill="#63b8ff" stroke="#63b8ff" points="1217.47,-88.27 1226.77,-83.19 1216.34,-81.36 1217.47,-88.27"/>
</a>
</g>
</g>
<!-- Node7 -->
<g id="Node000007" class="node">
<title>Node7</title>
<g id="a_Node000007"><a xlink:href="ASTCreation_8hpp.html" target="_top" xlink:title=" ">
<polygon fill="white" stroke="#666666" points="569.5,-85 472.5,-85 472.5,-66 569.5,-66 569.5,-85"/>
<text text-anchor="middle" x="521" y="-73" font-family="Helvetica,sans-Serif" font-size="10.00">ASTCreation.hpp</text>
</a>
</g>
</g>
<!-- Node1&#45;&gt;Node7 -->
<g id="edge6_Node000001_Node000007" class="edge">
<title>Node1&#45;&gt;Node7</title>
<g id="a_edge6_Node000001_Node000007"><a xlink:title=" ">
<path fill="none" stroke="#63b8ff" d="M488.44,-120.75C493.89,-113.34 501.86,-102.5 508.56,-93.41"/>
<polygon fill="#63b8ff" stroke="#63b8ff" points="511.57,-95.22 514.68,-85.09 505.93,-91.07 511.57,-95.22"/>
</a>
</g>
</g>
<!-- Node9 -->
<g id="Node000009" class="node">
<title>Node9</title>
<g id="a_Node000009"><a xlink:href="ASTBuilderAction_8hpp.html" target="_top" xlink:title=" ">
<polygon fill="white" stroke="#666666" points="748.5,-85 587.5,-85 587.5,-66 748.5,-66 748.5,-85"/>
<text text-anchor="middle" x="668" y="-73" font-family="Helvetica,sans-Serif" font-size="10.00">Actions/ASTBuilderAction.hpp</text>
</a>
</g>
</g>
<!-- Node1&#45;&gt;Node9 -->
<g id="edge8_Node000001_Node000009" class="edge">
<title>Node1&#45;&gt;Node9</title>
<g id="a_edge8_Node000001_Node000009"><a xlink:title=" ">
<path fill="none" stroke="#63b8ff" d="M511.88,-120.98C543.38,-112.01 593.17,-97.82 628.03,-87.89"/>
<polygon fill="#63b8ff" stroke="#63b8ff" points="629.22,-91.19 637.88,-85.08 627.31,-84.46 629.22,-91.19"/>
</a>
</g>
</g>
<!-- Node17 -->
<g id="Node000017" class="node">
<title>Node17</title>
<g id="a_Node000017"><a xlink:href="DependencyAction_8hpp.html" target="_top" xlink:title=" ">
<polygon fill="white" stroke="#666666" points="1209,-85 1041,-85 1041,-66 1209,-66 1209,-85"/>
<text text-anchor="middle" x="1125" y="-73" font-family="Helvetica,sans-Serif" font-size="10.00">Actions/DependencyAction.hpp</text>
</a>
</g>
</g>
<!-- Node1&#45;&gt;Node17 -->
<g id="edge18_Node000001_Node000017" class="edge">
<title>Node1&#45;&gt;Node17</title>
<g id="a_edge18_Node000001_Node000017"><a xlink:title=" ">
<path fill="none" stroke="#63b8ff" d="M538.78,-124.82C649.45,-115.7 895.02,-95.46 1030.57,-84.28"/>
<polygon fill="#63b8ff" stroke="#63b8ff" points="1031.26,-87.74 1040.94,-83.43 1030.69,-80.76 1031.26,-87.74"/>
</a>
</g>
</g>
<!-- Node8 -->
<g id="Node000008" class="node">
<title>Node8</title>
<g id="a_Node000008"><a xlink:title=" ">
<polygon fill="#e0e0e0" stroke="#999999" points="203.5,-24.5 76.5,-24.5 76.5,-5.5 203.5,-5.5 203.5,-24.5"/>
<text text-anchor="middle" x="140" y="-12.5" font-family="Helvetica,sans-Serif" font-size="10.00">clang/Tooling/Tooling.h</text>
</a>
</g>
</g>
<!-- Node7&#45;&gt;Node8 -->
<g id="edge7_Node000007_Node000008" class="edge">
<title>Node7&#45;&gt;Node8</title>
<g id="a_edge7_Node000007_Node000008"><a xlink:title=" ">
<path fill="none" stroke="#63b8ff" d="M472.34,-67.75C398.57,-57.46 261.82,-38.2 213,-30 206.42,-28.89 199.51,-27.66 192.69,-26.4"/>
<polygon fill="#63b8ff" stroke="#63b8ff" points="193.26,-22.95 182.79,-24.55 191.97,-29.83 193.26,-22.95"/>
</a>
</g>
</g>
<!-- Node9&#45;&gt;Node5 -->
<g id="edge10_Node000009_Node000005" class="edge">
<title>Node9&#45;&gt;Node5</title>
<g id="a_edge10_Node000009_Node000005"><a xlink:title=" ">
<path fill="none" stroke="#63b8ff" d="M587.06,-66.76C584,-66.5 580.97,-66.24 578,-66 351.1,-47.3 289.59,-77.83 67,-30 64.32,-29.42 61.58,-28.7 58.85,-27.88"/>
<polygon fill="#63b8ff" stroke="#63b8ff" points="59.79,-24.51 49.2,-24.64 57.56,-31.14 59.79,-24.51"/>
</a>
</g>
</g>
<!-- Node9&#45;&gt;Node8 -->
<g id="edge17_Node000009_Node000008" class="edge">
<title>Node9&#45;&gt;Node8</title>
<g id="a_edge17_Node000009_Node000008"><a xlink:title=" ">
<path fill="none" stroke="#63b8ff" d="M587.37,-66.81C461.62,-54.78 231.2,-32.63 213,-30 205.8,-28.96 198.23,-27.7 190.8,-26.36"/>
<polygon fill="#63b8ff" stroke="#63b8ff" points="191.28,-22.89 180.81,-24.51 190.01,-29.78 191.28,-22.89"/>
</a>
</g>
</g>
<!-- Node10 -->
<g id="Node000010" class="node">
<title>Node10</title>
<g id="a_Node000010"><a xlink:title=" ">
<polygon fill="#e0e0e0" stroke="#999999" points="820,-24.5 760,-24.5 760,-5.5 820,-5.5 820,-24.5"/>
<text text-anchor="middle" x="790" y="-12.5" font-family="Helvetica,sans-Serif" font-size="10.00">iostream</text>
</a>
</g>
</g>
<!-- Node9&#45;&gt;Node10 -->
<g id="edge9_Node000009_Node000010" class="edge">
<title>Node9&#45;&gt;Node10</title>
<g id="a_edge9_Node000009_Node000010"><a xlink:title=" ">
<path fill="none" stroke="#63b8ff" d="M685.74,-65.99C706.07,-56.25 739.61,-40.16 763.14,-28.88"/>
<polygon fill="#63b8ff" stroke="#63b8ff" points="764.74,-32 772.24,-24.52 761.71,-25.68 764.74,-32"/>
</a>
</g>
</g>
<!-- Node11 -->
<g id="Node000011" class="node">
<title>Node11</title>
<g id="a_Node000011"><a xlink:title=" ">
<polygon fill="#e0e0e0" stroke="#999999" points="885.5,-24.5 838.5,-24.5 838.5,-5.5 885.5,-5.5 885.5,-24.5"/>
<text text-anchor="middle" x="862" y="-12.5" font-family="Helvetica,sans-Serif" font-size="10.00">vector</text>
</a>
</g>
</g>
<!-- Node9&#45;&gt;Node11 -->
<g id="edge11_Node000009_Node000011" class="edge">
<title>Node9&#45;&gt;Node11</title>
<g id="a_edge11_Node000009_Node000011"><a xlink:title=" ">
<path fill="none" stroke="#63b8ff" d="M704.23,-65.94C737.13,-57.82 786.83,-44.7 829,-30 830.43,-29.5 831.89,-28.97 833.36,-28.42"/>
<polygon fill="#63b8ff" stroke="#63b8ff" points="834.98,-31.54 842.97,-24.58 832.39,-25.04 834.98,-31.54"/>
</a>
</g>
</g>
<!-- Node12 -->
<g id="Node000012" class="node">
<title>Node12</title>
<g id="a_Node000012"><a xlink:title=" ">
<polygon fill="#e0e0e0" stroke="#999999" points="1014,-30 904,-30 904,0 1014,0 1014,-30"/>
<text text-anchor="start" x="912" y="-18" font-family="Helvetica,sans-Serif" font-size="10.00">indicators/progress</text>
<text text-anchor="middle" x="959" y="-7" font-family="Helvetica,sans-Serif" font-size="10.00">_bar.hpp</text>
</a>
</g>
</g>
<!-- Node9&#45;&gt;Node12 -->
<g id="edge12_Node000009_Node000012" class="edge">
<title>Node9&#45;&gt;Node12</title>
<g id="a_edge12_Node000009_Node000012"><a xlink:title=" ">
<path fill="none" stroke="#63b8ff" d="M712.64,-65.95C756.13,-57.57 824.37,-44.28 893.49,-30.08"/>
<polygon fill="#63b8ff" stroke="#63b8ff" points="894.61,-33.43 903.7,-27.98 893.2,-26.57 894.61,-33.43"/>
</a>
</g>
</g>
<!-- Node13 -->
<g id="Node000013" class="node">
<title>Node13</title>
<g id="a_Node000013"><a xlink:title=" ">
<polygon fill="#e0e0e0" stroke="#999999" points="362,-24.5 222,-24.5 222,-5.5 362,-5.5 362,-24.5"/>
<text text-anchor="middle" x="292" y="-12.5" font-family="Helvetica,sans-Serif" font-size="10.00">clang/Frontend/ASTUnit.h</text>
</a>
</g>
</g>
<!-- Node9&#45;&gt;Node13 -->
<g id="edge13_Node000009_Node000013" class="edge">
<title>Node9&#45;&gt;Node13</title>
<g id="a_edge13_Node000009_Node000013"><a xlink:title=" ">
<path fill="none" stroke="#63b8ff" d="M607.91,-65.98C547.87,-57.35 452.94,-43.4 371,-30 363.91,-28.84 356.47,-27.58 349.12,-26.31"/>
<polygon fill="#63b8ff" stroke="#63b8ff" points="349.62,-22.84 339.17,-24.57 348.42,-29.74 349.62,-22.84"/>
</a>
</g>
</g>
<!-- Node14 -->
<g id="Node000014" class="node">
<title>Node14</title>
<g id="a_Node000014"><a xlink:title=" ">
<polygon fill="#e0e0e0" stroke="#999999" points="1218,-24.5 1032,-24.5 1032,-5.5 1218,-5.5 1218,-24.5"/>
<text text-anchor="middle" x="1125" y="-12.5" font-family="Helvetica,sans-Serif" font-size="10.00">clang/Frontend/CompilerInstance.h</text>
</a>
</g>
</g>
<!-- Node9&#45;&gt;Node14 -->
<g id="edge14_Node000009_Node000014" class="edge">
<title>Node9&#45;&gt;Node14</title>
<g id="a_edge14_Node000009_Node000014"><a xlink:title=" ">
<path fill="none" stroke="#63b8ff" d="M738.08,-65.96C809.71,-57.17 924.15,-42.98 1023,-30 1032.9,-28.7 1043.34,-27.3 1053.61,-25.91"/>
<polygon fill="#63b8ff" stroke="#63b8ff" points="1054.36,-29.34 1063.8,-24.52 1053.42,-22.4 1054.36,-29.34"/>
</a>
</g>
</g>
<!-- Node15 -->
<g id="Node000015" class="node">
<title>Node15</title>
<g id="a_Node000015"><a xlink:title=" ">
<polygon fill="#e0e0e0" stroke="#999999" points="576,-24.5 380,-24.5 380,-5.5 576,-5.5 576,-24.5"/>
<text text-anchor="middle" x="478" y="-12.5" font-family="Helvetica,sans-Serif" font-size="10.00">clang/Frontend/CompilerInvocation.h</text>
</a>
</g>
</g>
<!-- Node9&#45;&gt;Node15 -->
<g id="edge15_Node000009_Node000015" class="edge">
<title>Node9&#45;&gt;Node15</title>
<g id="a_edge15_Node000009_Node000015"><a xlink:title=" ">
<path fill="none" stroke="#63b8ff" d="M640.37,-65.99C607.45,-55.86 552.27,-38.87 515.51,-27.55"/>
<polygon fill="#63b8ff" stroke="#63b8ff" points="516.25,-24.11 505.66,-24.52 514.19,-30.8 516.25,-24.11"/>
</a>
</g>
</g>
<!-- Node16 -->
<g id="Node000016" class="node">
<title>Node16</title>
<g id="a_Node000016"><a xlink:title=" ">
<polygon fill="#e0e0e0" stroke="#999999" points="742.5,-30 593.5,-30 593.5,0 742.5,0 742.5,-30"/>
<text text-anchor="start" x="601.5" y="-18" font-family="Helvetica,sans-Serif" font-size="10.00">clang/Serialization</text>
<text text-anchor="middle" x="668" y="-7" font-family="Helvetica,sans-Serif" font-size="10.00">/PCHContainerOperations.h</text>
</a>
</g>
</g>
<!-- Node9&#45;&gt;Node16 -->
<g id="edge16_Node000009_Node000016" class="edge">
<title>Node9&#45;&gt;Node16</title>
<g id="a_edge16_Node000009_Node000016"><a xlink:title=" ">
<path fill="none" stroke="#63b8ff" d="M668,-65.87C668,-59.11 668,-49.35 668,-40.26"/>
<polygon fill="#63b8ff" stroke="#63b8ff" points="671.5,-40.11 668,-30.11 664.5,-40.11 671.5,-40.11"/>
</a>
</g>
</g>
<!-- Node17&#45;&gt;Node14 -->
<g id="edge19_Node000017_Node000014" class="edge">
<title>Node17&#45;&gt;Node14</title>
<g id="a_edge19_Node000017_Node000014"><a xlink:title=" ">
<path fill="none" stroke="#63b8ff" d="M1125,-65.87C1125,-57.75 1125,-45.31 1125,-34.89"/>
<polygon fill="#63b8ff" stroke="#63b8ff" points="1128.5,-34.67 1125,-24.67 1121.5,-34.67 1128.5,-34.67"/>
</a>
</g>
</g>
<!-- Node18 -->
<g id="Node000018" class="node">
<title>Node18</title>
<g id="a_Node000018"><a xlink:title=" ">
<polygon fill="#e0e0e0" stroke="#999999" points="1556.5,-24.5 1377.5,-24.5 1377.5,-5.5 1556.5,-5.5 1556.5,-24.5"/>
<text text-anchor="middle" x="1467" y="-12.5" font-family="Helvetica,sans-Serif" font-size="10.00">clang/Frontend/FrontendActions.h</text>
</a>
</g>
</g>
<!-- Node17&#45;&gt;Node18 -->
<g id="edge20_Node000017_Node000018" class="edge">
<title>Node17&#45;&gt;Node18</title>
<g id="a_edge20_Node000017_Node000018"><a xlink:title=" ">
<path fill="none" stroke="#63b8ff" d="M1174.73,-65.99C1236.28,-55.47 1341.01,-37.55 1406.97,-26.27"/>
<polygon fill="#63b8ff" stroke="#63b8ff" points="1407.94,-29.65 1417.21,-24.52 1406.76,-22.75 1407.94,-29.65"/>
</a>
</g>
</g>
<!-- Node19 -->
<g id="Node000019" class="node">
<title>Node19</title>
<g id="a_Node000019"><a xlink:title=" ">
<polygon fill="#e0e0e0" stroke="#999999" points="1359.5,-24.5 1236.5,-24.5 1236.5,-5.5 1359.5,-5.5 1359.5,-24.5"/>
<text text-anchor="middle" x="1298" y="-12.5" font-family="Helvetica,sans-Serif" font-size="10.00">clang/Frontend/Utils.h</text>
</a>
</g>
</g>
<!-- Node17&#45;&gt;Node19 -->
<g id="edge21_Node000017_Node000019" class="edge">
<title>Node17&#45;&gt;Node19</title>
<g id="a_edge21_Node000017_Node000019"><a xlink:title=" ">
<path fill="none" stroke="#63b8ff" d="M1150.16,-65.99C1179.88,-55.94 1229.52,-39.16 1262.99,-27.84"/>
<polygon fill="#63b8ff" stroke="#63b8ff" points="1264.46,-31.04 1272.81,-24.52 1262.22,-24.4 1264.46,-31.04"/>
</a>
</g>
</g>
</g>
</svg>
