<?xml version="1.0" encoding="UTF-8" standalone="no"?>
<!DOCTYPE svg PUBLIC "-//W3C//DTD SVG 1.1//EN"
 "http://www.w3.org/Graphics/SVG/1.1/DTD/svg11.dtd">
<!-- Generated by graphviz version 2.43.0 (0)
 -->
<!-- Title: src/ASTCreation.cpp Pages: 1 -->
<svg width="1565pt" height="151pt"
 viewBox="0.00 0.00 1564.50 151.00" xmlns="http://www.w3.org/2000/svg" xmlns:xlink="http://www.w3.org/1999/xlink">
<g id="graph0" class="graph" transform="scale(1 1) rotate(0) translate(4 147)">
<title>src/ASTCreation.cpp</title>
<!-- Node1 -->
<g id="node1" class="node">
<title>Node1</title>
<g id="a_node1"><a xlink:title=" ">
<polygon fill="#bfbfbf" stroke="black" points="483.5,-123.5 483.5,-142.5 596.5,-142.5 596.5,-123.5 483.5,-123.5"/>
<text text-anchor="middle" x="540" y="-130.5" font-family="Helvetica,sans-Serif" font-size="10.00">src/ASTCreation.cpp</text>
</a>
</g>
</g>
<!-- Node2 -->
<g id="node2" class="node">
<title>Node2</title>
<g id="a_node2"><a xlink:title=" ">
<polygon fill="none" stroke="#bfbfbf" points="283,-67.5 283,-86.5 333,-86.5 333,-67.5 283,-67.5"/>
<text text-anchor="middle" x="308" y="-74.5" font-family="Helvetica,sans-Serif" font-size="10.00">chrono</text>
</a>
</g>
</g>
<!-- Node1&#45;&gt;Node2 -->
<g id="edge1" class="edge">
<title>Node1&#45;&gt;Node2</title>
<path fill="none" stroke="midnightblue" d="M500.46,-123.44C462.53,-115.14 403.42,-101.95 343.28,-87.25"/>
<polygon fill="midnightblue" stroke="midnightblue" points="343.77,-83.77 333.23,-84.78 342.1,-90.57 343.77,-83.77"/>
</g>
<!-- Node3 -->
<g id="node3" class="node">
<title>Node3</title>
<g id="a_node3"><a xlink:title=" ">
<polygon fill="none" stroke="#bfbfbf" points="351,-67.5 351,-86.5 419,-86.5 419,-67.5 351,-67.5"/>
<text text-anchor="middle" x="385" y="-74.5" font-family="Helvetica,sans-Serif" font-size="10.00">filesystem</text>
</a>
</g>
</g>
<!-- Node1&#45;&gt;Node3 -->
<g id="edge2" class="edge">
<title>Node1&#45;&gt;Node3</title>
<path fill="none" stroke="midnightblue" d="M515.44,-123.44C489.48,-114.4 448.33,-100.06 419.2,-89.92"/>
<polygon fill="midnightblue" stroke="midnightblue" points="420.04,-86.5 409.45,-86.52 417.74,-93.11 420.04,-86.5"/>
</g>
<!-- Node4 -->
<g id="node4" class="node">
<title>Node4</title>
<g id="a_node4"><a xlink:title=" ">
<polygon fill="none" stroke="#bfbfbf" points="437,-67.5 437,-86.5 493,-86.5 493,-67.5 437,-67.5"/>
<text text-anchor="middle" x="465" y="-74.5" font-family="Helvetica,sans-Serif" font-size="10.00">iomanip</text>
</a>
</g>
</g>
<!-- Node1&#45;&gt;Node4 -->
<g id="edge3" class="edge">
<title>Node1&#45;&gt;Node4</title>
<path fill="none" stroke="midnightblue" d="M527.95,-123.32C516.54,-115.11 499.17,-102.6 485.57,-92.81"/>
<polygon fill="midnightblue" stroke="midnightblue" points="487.43,-89.84 477.27,-86.83 483.34,-95.52 487.43,-89.84"/>
</g>
<!-- Node5 -->
<g id="node5" class="node">
<title>Node5</title>
<g id="a_node5"><a xlink:title=" ">
<polygon fill="none" stroke="#bfbfbf" points="0,-6 0,-25 58,-25 58,-6 0,-6"/>
<text text-anchor="middle" x="29" y="-13" font-family="Helvetica,sans-Serif" font-size="10.00">memory</text>
</a>
</g>
</g>
<!-- Node1&#45;&gt;Node5 -->
<g id="edge4" class="edge">
<title>Node1&#45;&gt;Node5</title>
<path fill="none" stroke="midnightblue" d="M537.78,-123.45C533.54,-109.01 522.79,-80.1 502,-67 419.93,-15.3 161.58,-52.5 67,-31 64,-30.32 60.92,-29.45 57.87,-28.47"/>
<polygon fill="midnightblue" stroke="midnightblue" points="58.99,-25.16 48.4,-25.11 56.65,-31.75 58.99,-25.16"/>
</g>
<!-- Node6 -->
<g id="node6" class="node">
<title>Node6</title>
<g id="a_node6"><a xlink:title=" ">
<polygon fill="none" stroke="#bfbfbf" points="1227,-67.5 1227,-86.5 1271,-86.5 1271,-67.5 1227,-67.5"/>
<text text-anchor="middle" x="1249" y="-74.5" font-family="Helvetica,sans-Serif" font-size="10.00">regex</text>
</a>
</g>
</g>
<!-- Node1&#45;&gt;Node6 -->
<g id="edge5" class="edge">
<title>Node1&#45;&gt;Node6</title>
<path fill="none" stroke="midnightblue" d="M596.75,-132.36C712.17,-132.19 982.49,-127.27 1216.72,-86.84"/>
<polygon fill="midnightblue" stroke="midnightblue" points="1217.54,-90.25 1226.78,-85.07 1216.33,-83.35 1217.54,-90.25"/>
</g>
<!-- Node7 -->
<g id="node7" class="node">
<title>Node7</title>
<g id="a_node7"><a xlink:title=" ">
<polygon fill="none" stroke="#bfbfbf" points="76.5,-6 76.5,-25 203.5,-25 203.5,-6 76.5,-6"/>
<text text-anchor="middle" x="140" y="-13" font-family="Helvetica,sans-Serif" font-size="10.00">clang/Tooling/Tooling.h</text>
</a>
</g>
</g>
<!-- Node1&#45;&gt;Node7 -->
<g id="edge6" class="edge">
<title>Node1&#45;&gt;Node7</title>
<path fill="none" stroke="midnightblue" d="M542.36,-123.47C545.64,-109.59 549.63,-82.14 535,-67 484.97,-15.22 284.15,-42.02 213,-31 205.45,-29.83 197.5,-28.43 189.73,-26.96"/>
<polygon fill="midnightblue" stroke="midnightblue" points="190.16,-23.48 179.67,-25.02 188.82,-30.35 190.16,-23.48"/>
</g>
<!-- Node8 -->
<g id="node8" class="node">
<title>Node8</title>
<g id="a_node8"><a xlink:href="ASTBuilderAction_8hpp.html" target="_top" xlink:title=" ">
<polygon fill="none" stroke="black" points="587.5,-67.5 587.5,-86.5 748.5,-86.5 748.5,-67.5 587.5,-67.5"/>
<text text-anchor="middle" x="668" y="-74.5" font-family="Helvetica,sans-Serif" font-size="10.00">Actions/ASTBuilderAction.hpp</text>
</a>
</g>
</g>
<!-- Node1&#45;&gt;Node8 -->
<g id="edge7" class="edge">
<title>Node1&#45;&gt;Node8</title>
<path fill="none" stroke="midnightblue" d="M560.28,-123.44C581.35,-114.56 614.52,-100.56 638.49,-90.45"/>
<polygon fill="midnightblue" stroke="midnightblue" points="639.96,-93.63 647.81,-86.52 637.24,-87.18 639.96,-93.63"/>
</g>
<!-- Node16 -->
<g id="node16" class="node">
<title>Node16</title>
<g id="a_node16"><a xlink:href="DependencyAction_8hpp.html" target="_top" xlink:title=" ">
<polygon fill="none" stroke="black" points="1041,-67.5 1041,-86.5 1209,-86.5 1209,-67.5 1041,-67.5"/>
<text text-anchor="middle" x="1125" y="-74.5" font-family="Helvetica,sans-Serif" font-size="10.00">Actions/DependencyAction.hpp</text>
</a>
</g>
</g>
<!-- Node1&#45;&gt;Node16 -->
<g id="edge17" class="edge">
<title>Node1&#45;&gt;Node16</title>
<path fill="none" stroke="midnightblue" d="M596.62,-126.77C697.24,-117.49 908.11,-98.02 1030.86,-86.69"/>
<polygon fill="midnightblue" stroke="midnightblue" points="1031.36,-90.16 1040.99,-85.75 1030.72,-83.19 1031.36,-90.16"/>
</g>
<!-- Node8&#45;&gt;Node5 -->
<g id="edge9" class="edge">
<title>Node8&#45;&gt;Node5</title>
<path fill="none" stroke="midnightblue" d="M587.42,-70.27C426.48,-58.78 79.53,-33.8 67,-31 64,-30.33 60.91,-29.47 57.86,-28.5"/>
<polygon fill="midnightblue" stroke="midnightblue" points="58.98,-25.18 48.39,-25.14 56.64,-31.78 58.98,-25.18"/>
</g>
<!-- Node8&#45;&gt;Node7 -->
<g id="edge16" class="edge">
<title>Node8&#45;&gt;Node7</title>
<path fill="none" stroke="midnightblue" d="M587.37,-68.23C461.62,-56.09 231.19,-33.7 213,-31 205.27,-29.85 197.12,-28.44 189.18,-26.95"/>
<polygon fill="midnightblue" stroke="midnightblue" points="189.76,-23.5 179.28,-25.03 188.43,-30.37 189.76,-23.5"/>
</g>
<!-- Node9 -->
<g id="node9" class="node">
<title>Node9</title>
<g id="a_node9"><a xlink:title=" ">
<polygon fill="none" stroke="#bfbfbf" points="760,-6 760,-25 820,-25 820,-6 760,-6"/>
<text text-anchor="middle" x="790" y="-13" font-family="Helvetica,sans-Serif" font-size="10.00">iostream</text>
</a>
</g>
</g>
<!-- Node8&#45;&gt;Node9 -->
<g id="edge8" class="edge">
<title>Node8&#45;&gt;Node9</title>
<path fill="none" stroke="midnightblue" d="M685.48,-67.48C705.86,-57.53 739.78,-40.99 763.42,-29.46"/>
<polygon fill="midnightblue" stroke="midnightblue" points="765.1,-32.54 772.55,-25.01 762.03,-26.25 765.1,-32.54"/>
</g>
<!-- Node10 -->
<g id="node10" class="node">
<title>Node10</title>
<g id="a_node10"><a xlink:title=" ">
<polygon fill="none" stroke="#bfbfbf" points="838.5,-6 838.5,-25 885.5,-25 885.5,-6 838.5,-6"/>
<text text-anchor="middle" x="862" y="-13" font-family="Helvetica,sans-Serif" font-size="10.00">vector</text>
</a>
</g>
</g>
<!-- Node8&#45;&gt;Node10 -->
<g id="edge10" class="edge">
<title>Node8&#45;&gt;Node10</title>
<path fill="none" stroke="midnightblue" d="M704.27,-67.43C737.2,-59.27 786.91,-46.04 829,-31 830.66,-30.41 832.36,-29.77 834.06,-29.1"/>
<polygon fill="midnightblue" stroke="midnightblue" points="835.8,-32.17 843.69,-25.1 833.11,-25.71 835.8,-32.17"/>
</g>
<!-- Node11 -->
<g id="node11" class="node">
<title>Node11</title>
<g id="a_node11"><a xlink:title=" ">
<polygon fill="none" stroke="#bfbfbf" points="904,-0.5 904,-30.5 1014,-30.5 1014,-0.5 904,-0.5"/>
<text text-anchor="start" x="912" y="-18.5" font-family="Helvetica,sans-Serif" font-size="10.00">indicators/progress</text>
<text text-anchor="middle" x="959" y="-7.5" font-family="Helvetica,sans-Serif" font-size="10.00">_bar.hpp</text>
</a>
</g>
</g>
<!-- Node8&#45;&gt;Node11 -->
<g id="edge11" class="edge">
<title>Node8&#45;&gt;Node11</title>
<path fill="none" stroke="midnightblue" d="M712.66,-67.42C756.15,-59 824.4,-45.59 893.5,-31.08"/>
<polygon fill="midnightblue" stroke="midnightblue" points="894.64,-34.41 903.7,-28.93 893.19,-27.56 894.64,-34.41"/>
</g>
<!-- Node12 -->
<g id="node12" class="node">
<title>Node12</title>
<g id="a_node12"><a xlink:title=" ">
<polygon fill="none" stroke="#bfbfbf" points="222,-6 222,-25 362,-25 362,-6 222,-6"/>
<text text-anchor="middle" x="292" y="-13" font-family="Helvetica,sans-Serif" font-size="10.00">clang/Frontend/ASTUnit.h</text>
</a>
</g>
</g>
<!-- Node8&#45;&gt;Node12 -->
<g id="edge12" class="edge">
<title>Node8&#45;&gt;Node12</title>
<path fill="none" stroke="midnightblue" d="M608.18,-67.5C548.14,-58.83 453.04,-44.74 371,-31 363.26,-29.7 355.11,-28.28 347.1,-26.84"/>
<polygon fill="midnightblue" stroke="midnightblue" points="347.54,-23.36 337.08,-25.02 346.29,-30.25 347.54,-23.36"/>
</g>
<!-- Node13 -->
<g id="node13" class="node">
<title>Node13</title>
<g id="a_node13"><a xlink:title=" ">
<polygon fill="none" stroke="#bfbfbf" points="1032,-6 1032,-25 1218,-25 1218,-6 1032,-6"/>
<text text-anchor="middle" x="1125" y="-13" font-family="Helvetica,sans-Serif" font-size="10.00">clang/Frontend/CompilerInstance.h</text>
</a>
</g>
</g>
<!-- Node8&#45;&gt;Node13 -->
<g id="edge13" class="edge">
<title>Node8&#45;&gt;Node13</title>
<path fill="none" stroke="midnightblue" d="M737.76,-67.47C809.37,-58.65 924.02,-44.31 1023,-31 1033.72,-29.56 1045.07,-27.99 1056.15,-26.43"/>
<polygon fill="midnightblue" stroke="midnightblue" points="1056.82,-29.87 1066.23,-25.01 1055.84,-22.94 1056.82,-29.87"/>
</g>
<!-- Node14 -->
<g id="node14" class="node">
<title>Node14</title>
<g id="a_node14"><a xlink:title=" ">
<polygon fill="none" stroke="#bfbfbf" points="380,-6 380,-25 576,-25 576,-6 380,-6"/>
<text text-anchor="middle" x="478" y="-13" font-family="Helvetica,sans-Serif" font-size="10.00">clang/Frontend/CompilerInvocation.h</text>
</a>
</g>
</g>
<!-- Node8&#45;&gt;Node14 -->
<g id="edge14" class="edge">
<title>Node8&#45;&gt;Node14</title>
<path fill="none" stroke="midnightblue" d="M640.78,-67.48C607.76,-57.14 551.96,-39.66 515.05,-28.1"/>
<polygon fill="midnightblue" stroke="midnightblue" points="515.76,-24.66 505.17,-25.01 513.67,-31.34 515.76,-24.66"/>
</g>
<!-- Node15 -->
<g id="node15" class="node">
<title>Node15</title>
<g id="a_node15"><a xlink:title=" ">
<polygon fill="none" stroke="#bfbfbf" points="593.5,-0.5 593.5,-30.5 742.5,-30.5 742.5,-0.5 593.5,-0.5"/>
<text text-anchor="start" x="601.5" y="-18.5" font-family="Helvetica,sans-Serif" font-size="10.00">clang/Serialization</text>
<text text-anchor="middle" x="668" y="-7.5" font-family="Helvetica,sans-Serif" font-size="10.00">/PCHContainerOperations.h</text>
</a>
</g>
</g>
<!-- Node8&#45;&gt;Node15 -->
<g id="edge15" class="edge">
<title>Node8&#45;&gt;Node15</title>
<path fill="none" stroke="midnightblue" d="M668,-67.48C668,-60.47 668,-50.19 668,-40.7"/>
<polygon fill="midnightblue" stroke="midnightblue" points="671.5,-40.52 668,-30.52 664.5,-40.52 671.5,-40.52"/>
</g>
<!-- Node16&#45;&gt;Node13 -->
<g id="edge18" class="edge">
<title>Node16&#45;&gt;Node13</title>
<path fill="none" stroke="midnightblue" d="M1125,-67.48C1125,-59.08 1125,-45.98 1125,-35.16"/>
<polygon fill="midnightblue" stroke="midnightblue" points="1128.5,-35.01 1125,-25.01 1121.5,-35.01 1128.5,-35.01"/>
</g>
<!-- Node17 -->
<g id="node17" class="node">
<title>Node17</title>
<g id="a_node17"><a xlink:title=" ">
<polygon fill="none" stroke="#bfbfbf" points="1377.5,-6 1377.5,-25 1556.5,-25 1556.5,-6 1377.5,-6"/>
<text text-anchor="middle" x="1467" y="-13" font-family="Helvetica,sans-Serif" font-size="10.00">clang/Frontend/FrontendActions.h</text>
</a>
</g>
</g>
<!-- Node16&#45;&gt;Node17 -->
<g id="edge19" class="edge">
<title>Node16&#45;&gt;Node17</title>
<path fill="none" stroke="midnightblue" d="M1174,-67.48C1235.84,-56.72 1342.1,-38.23 1408.23,-26.72"/>
<polygon fill="midnightblue" stroke="midnightblue" points="1408.84,-30.17 1418.09,-25.01 1407.64,-23.27 1408.84,-30.17"/>
</g>
<!-- Node18 -->
<g id="node18" class="node">
<title>Node18</title>
<g id="a_node18"><a xlink:title=" ">
<polygon fill="none" stroke="#bfbfbf" points="1236.5,-6 1236.5,-25 1359.5,-25 1359.5,-6 1236.5,-6"/>
<text text-anchor="middle" x="1298" y="-13" font-family="Helvetica,sans-Serif" font-size="10.00">clang/Frontend/Utils.h</text>
</a>
</g>
</g>
<!-- Node16&#45;&gt;Node18 -->
<g id="edge20" class="edge">
<title>Node16&#45;&gt;Node18</title>
<path fill="none" stroke="midnightblue" d="M1149.79,-67.48C1179.59,-57.22 1229.79,-39.96 1263.4,-28.4"/>
<polygon fill="midnightblue" stroke="midnightblue" points="1264.94,-31.57 1273.26,-25.01 1262.66,-24.95 1264.94,-31.57"/>
</g>
</g>
</svg>
