<?xml version="1.0" encoding="UTF-8" standalone="no"?>
<!DOCTYPE svg PUBLIC "-//W3C//DTD SVG 1.1//EN"
 "http://www.w3.org/Graphics/SVG/1.1/DTD/svg11.dtd">
<!-- Generated by graphviz version 2.43.0 (0)
 -->
<!-- Title: src/ASTCreation.cpp Pages: 1 -->
<svg width="1651pt" height="148pt"
 viewBox="0.00 0.00 1650.50 148.00" xmlns="http://www.w3.org/2000/svg" xmlns:xlink="http://www.w3.org/1999/xlink">
<g id="graph0" class="graph" transform="scale(1 1) rotate(0) translate(4 144)">
<title>src/ASTCreation.cpp</title>
<!-- Node1 -->
<g id="Node000001" class="node">
<title>Node1</title>
<g id="a_Node000001"><a xlink:title=" ">
<polygon fill="#999999" stroke="#666666" points="411.5,-140 298.5,-140 298.5,-121 411.5,-121 411.5,-140"/>
<text text-anchor="middle" x="355" y="-128" font-family="Helvetica,sans-Serif" font-size="10.00">src/ASTCreation.cpp</text>
</a>
</g>
</g>
<!-- Node2 -->
<g id="Node000002" class="node">
<title>Node2</title>
<g id="a_Node000002"><a xlink:title=" ">
<polygon fill="#e0e0e0" stroke="#999999" points="82,-85 32,-85 32,-66 82,-66 82,-85"/>
<text text-anchor="middle" x="57" y="-73" font-family="Helvetica,sans-Serif" font-size="10.00">chrono</text>
</a>
</g>
</g>
<!-- Node1&#45;&gt;Node2 -->
<g id="edge1_Node000001_Node000002" class="edge">
<title>Node1&#45;&gt;Node2</title>
<g id="a_edge1_Node000001_Node000002"><a xlink:title=" ">
<path fill="none" stroke="#63b8ff" d="M301.3,-120.99C248.83,-112.5 166.76,-98.78 96,-85 94.74,-84.75 93.45,-84.5 92.16,-84.24"/>
<polygon fill="#63b8ff" stroke="#63b8ff" points="92.64,-80.76 82.14,-82.15 91.22,-87.62 92.64,-80.76"/>
</a>
</g>
</g>
<!-- Node3 -->
<g id="Node000003" class="node">
<title>Node3</title>
<g id="a_Node000003"><a xlink:title=" ">
<polygon fill="#e0e0e0" stroke="#999999" points="68,-24.5 0,-24.5 0,-5.5 68,-5.5 68,-24.5"/>
<text text-anchor="middle" x="34" y="-12.5" font-family="Helvetica,sans-Serif" font-size="10.00">filesystem</text>
</a>
</g>
</g>
<!-- Node1&#45;&gt;Node3 -->
<g id="edge2_Node000001_Node000003" class="edge">
<title>Node1&#45;&gt;Node3</title>
<g id="a_edge2_Node000001_Node000003"><a xlink:title=" ">
<path fill="none" stroke="#63b8ff" d="M298.18,-125.16C251.21,-119.99 183.62,-108.82 129,-85 98.65,-71.76 68.57,-47.55 50.64,-31.61"/>
<polygon fill="#63b8ff" stroke="#63b8ff" points="52.61,-28.68 42.86,-24.54 47.9,-33.86 52.61,-28.68"/>
</a>
</g>
</g>
<!-- Node4 -->
<g id="Node000004" class="node">
<title>Node4</title>
<g id="a_Node000004"><a xlink:title=" ">
<polygon fill="#e0e0e0" stroke="#999999" points="1060,-85 1004,-85 1004,-66 1060,-66 1060,-85"/>
<text text-anchor="middle" x="1032" y="-73" font-family="Helvetica,sans-Serif" font-size="10.00">iomanip</text>
</a>
</g>
</g>
<!-- Node1&#45;&gt;Node4 -->
<g id="edge3_Node000001_Node000004" class="edge">
<title>Node1&#45;&gt;Node4</title>
<g id="a_edge3_Node000001_Node000004"><a xlink:title=" ">
<path fill="none" stroke="#63b8ff" d="M411.83,-128.53C522.24,-125.99 773.52,-117.06 993.68,-84.95"/>
<polygon fill="#63b8ff" stroke="#63b8ff" points="994.42,-88.38 1003.8,-83.46 993.4,-81.46 994.42,-88.38"/>
</a>
</g>
</g>
<!-- Node5 -->
<g id="Node000005" class="node">
<title>Node5</title>
<g id="a_Node000005"><a xlink:title=" ">
<polygon fill="#e0e0e0" stroke="#999999" points="290,-24.5 232,-24.5 232,-5.5 290,-5.5 290,-24.5"/>
<text text-anchor="middle" x="261" y="-12.5" font-family="Helvetica,sans-Serif" font-size="10.00">memory</text>
</a>
</g>
</g>
<!-- Node1&#45;&gt;Node5 -->
<g id="edge4_Node000001_Node000005" class="edge">
<title>Node1&#45;&gt;Node5</title>
<g id="a_edge4_Node000001_Node000005"><a xlink:title=" ">
<path fill="none" stroke="#63b8ff" d="M347.93,-120.97C332.35,-102.15 294.81,-56.82 274.53,-32.34"/>
<polygon fill="#63b8ff" stroke="#63b8ff" points="277.22,-30.1 268.15,-24.63 271.83,-34.56 277.22,-30.1"/>
</a>
</g>
</g>
<!-- Node6 -->
<g id="Node000006" class="node">
<title>Node6</title>
<g id="a_Node000006"><a xlink:title=" ">
<polygon fill="#e0e0e0" stroke="#999999" points="1122,-85 1078,-85 1078,-66 1122,-66 1122,-85"/>
<text text-anchor="middle" x="1100" y="-73" font-family="Helvetica,sans-Serif" font-size="10.00">regex</text>
</a>
</g>
</g>
<!-- Node1&#45;&gt;Node6 -->
<g id="edge5_Node000001_Node000006" class="edge">
<title>Node1&#45;&gt;Node6</title>
<g id="a_edge5_Node000001_Node000006"><a xlink:title=" ">
<path fill="none" stroke="#63b8ff" d="M411.91,-129.9C531.85,-129.89 819.32,-125.39 1067.83,-84.83"/>
<polygon fill="#63b8ff" stroke="#63b8ff" points="1068.48,-88.27 1077.77,-83.18 1067.33,-81.36 1068.48,-88.27"/>
</a>
</g>
</g>
<!-- Node7 -->
<g id="Node000007" class="node">
<title>Node7</title>
<g id="a_Node000007"><a xlink:href="ASTCreation_8hpp.html" target="_top" xlink:title=" ">
<polygon fill="white" stroke="#666666" points="235.5,-85 138.5,-85 138.5,-66 235.5,-66 235.5,-85"/>
<text text-anchor="middle" x="187" y="-73" font-family="Helvetica,sans-Serif" font-size="10.00">ASTCreation.hpp</text>
</a>
</g>
</g>
<!-- Node1&#45;&gt;Node7 -->
<g id="edge6_Node000001_Node000007" class="edge">
<title>Node1&#45;&gt;Node7</title>
<g id="a_edge6_Node000001_Node000007"><a xlink:title=" ">
<path fill="none" stroke="#63b8ff" d="M328.01,-120.98C299.8,-112.09 255.36,-98.07 223.92,-88.15"/>
<polygon fill="#63b8ff" stroke="#63b8ff" points="224.79,-84.75 214.2,-85.08 222.69,-91.43 224.79,-84.75"/>
</a>
</g>
</g>
<!-- Node9 -->
<g id="Node000009" class="node">
<title>Node9</title>
<g id="a_Node000009"><a xlink:href="ASTBuilderAction_8hpp.html" target="_top" xlink:title=" ">
<polygon fill="white" stroke="#666666" points="490.5,-85 329.5,-85 329.5,-66 490.5,-66 490.5,-85"/>
<text text-anchor="middle" x="410" y="-73" font-family="Helvetica,sans-Serif" font-size="10.00">Actions/ASTBuilderAction.hpp</text>
</a>
</g>
</g>
<!-- Node1&#45;&gt;Node9 -->
<g id="edge9_Node000001_Node000009" class="edge">
<title>Node1&#45;&gt;Node9</title>
<g id="a_edge9_Node000001_Node000009"><a xlink:title=" ">
<path fill="none" stroke="#63b8ff" d="M364.08,-120.75C372.09,-113.03 383.96,-101.6 393.62,-92.28"/>
<polygon fill="#63b8ff" stroke="#63b8ff" points="396.31,-94.55 401.09,-85.09 391.46,-89.51 396.31,-94.55"/>
</a>
</g>
</g>
<!-- Node17 -->
<g id="Node000017" class="node">
<title>Node17</title>
<g id="a_Node000017"><a xlink:href="DependencyAction_8hpp.html" target="_top" xlink:title=" ">
<polygon fill="white" stroke="#666666" points="986,-85 818,-85 818,-66 986,-66 986,-85"/>
<text text-anchor="middle" x="902" y="-73" font-family="Helvetica,sans-Serif" font-size="10.00">Actions/DependencyAction.hpp</text>
</a>
</g>
</g>
<!-- Node1&#45;&gt;Node17 -->
<g id="edge20_Node000001_Node000017" class="edge">
<title>Node1&#45;&gt;Node17</title>
<g id="a_edge20_Node000001_Node000017"><a xlink:title=" ">
<path fill="none" stroke="#63b8ff" d="M411.73,-124C505.52,-114.92 693.8,-96.67 807.8,-85.63"/>
<polygon fill="#63b8ff" stroke="#63b8ff" points="808.3,-89.1 817.91,-84.65 807.62,-82.13 808.3,-89.1"/>
</a>
</g>
</g>
<!-- Node7&#45;&gt;Node3 -->
<g id="edge8_Node000007_Node000003" class="edge">
<title>Node7&#45;&gt;Node3</title>
<g id="a_edge8_Node000007_Node000003"><a xlink:title=" ">
<path fill="none" stroke="#63b8ff" d="M164.75,-65.99C138.69,-56.03 95.32,-39.45 65.73,-28.13"/>
<polygon fill="#63b8ff" stroke="#63b8ff" points="66.86,-24.82 56.27,-24.52 64.36,-31.36 66.86,-24.82"/>
</a>
</g>
</g>
<!-- Node8 -->
<g id="Node000008" class="node">
<title>Node8</title>
<g id="a_Node000008"><a xlink:title=" ">
<polygon fill="#e0e0e0" stroke="#999999" points="213.5,-24.5 86.5,-24.5 86.5,-5.5 213.5,-5.5 213.5,-24.5"/>
<text text-anchor="middle" x="150" y="-12.5" font-family="Helvetica,sans-Serif" font-size="10.00">clang/Tooling/Tooling.h</text>
</a>
</g>
</g>
<!-- Node7&#45;&gt;Node8 -->
<g id="edge7_Node000007_Node000008" class="edge">
<title>Node7&#45;&gt;Node8</title>
<g id="a_edge7_Node000007_Node000008"><a xlink:title=" ">
<path fill="none" stroke="#63b8ff" d="M181.54,-65.87C176.13,-57.31 167.69,-43.97 160.9,-33.24"/>
<polygon fill="#63b8ff" stroke="#63b8ff" points="163.79,-31.25 155.48,-24.67 157.87,-34.99 163.79,-31.25"/>
</a>
</g>
</g>
<!-- Node9&#45;&gt;Node3 -->
<g id="edge10_Node000009_Node000003" class="edge">
<title>Node9&#45;&gt;Node3</title>
<g id="a_edge10_Node000009_Node000003"><a xlink:title=" ">
<path fill="none" stroke="#63b8ff" d="M329.2,-67.85C261.31,-61.28 162.02,-49.35 77,-30 73.96,-29.31 70.83,-28.49 67.71,-27.61"/>
<polygon fill="#63b8ff" stroke="#63b8ff" points="68.48,-24.19 57.89,-24.63 66.44,-30.89 68.48,-24.19"/>
</a>
</g>
</g>
<!-- Node9&#45;&gt;Node5 -->
<g id="edge12_Node000009_Node000005" class="edge">
<title>Node9&#45;&gt;Node5</title>
<g id="a_edge12_Node000009_Node000005"><a xlink:title=" ">
<path fill="none" stroke="#63b8ff" d="M388.33,-65.99C363.06,-56.07 321.09,-39.59 292.28,-28.28"/>
<polygon fill="#63b8ff" stroke="#63b8ff" points="293.28,-24.91 282.69,-24.52 290.72,-31.43 293.28,-24.91"/>
</a>
</g>
</g>
<!-- Node9&#45;&gt;Node8 -->
<g id="edge19_Node000009_Node000008" class="edge">
<title>Node9&#45;&gt;Node8</title>
<g id="a_edge19_Node000009_Node000008"><a xlink:title=" ">
<path fill="none" stroke="#63b8ff" d="M372.19,-65.99C326.08,-55.62 248.07,-38.07 197.82,-26.76"/>
<polygon fill="#63b8ff" stroke="#63b8ff" points="198.38,-23.3 187.85,-24.52 196.84,-30.13 198.38,-23.3"/>
</a>
</g>
</g>
<!-- Node10 -->
<g id="Node000010" class="node">
<title>Node10</title>
<g id="a_Node000010"><a xlink:title=" ">
<polygon fill="#e0e0e0" stroke="#999999" points="368,-24.5 308,-24.5 308,-5.5 368,-5.5 368,-24.5"/>
<text text-anchor="middle" x="338" y="-12.5" font-family="Helvetica,sans-Serif" font-size="10.00">iostream</text>
</a>
</g>
</g>
<!-- Node9&#45;&gt;Node10 -->
<g id="edge11_Node000009_Node000010" class="edge">
<title>Node9&#45;&gt;Node10</title>
<g id="a_edge11_Node000009_Node000010"><a xlink:title=" ">
<path fill="none" stroke="#63b8ff" d="M399.38,-65.87C388.1,-56.71 370.08,-42.06 356.47,-31.01"/>
<polygon fill="#63b8ff" stroke="#63b8ff" points="358.64,-28.26 348.67,-24.67 354.22,-33.69 358.64,-28.26"/>
</a>
</g>
</g>
<!-- Node11 -->
<g id="Node000011" class="node">
<title>Node11</title>
<g id="a_Node000011"><a xlink:title=" ">
<polygon fill="#e0e0e0" stroke="#999999" points="433.5,-24.5 386.5,-24.5 386.5,-5.5 433.5,-5.5 433.5,-24.5"/>
<text text-anchor="middle" x="410" y="-12.5" font-family="Helvetica,sans-Serif" font-size="10.00">vector</text>
</a>
</g>
</g>
<!-- Node9&#45;&gt;Node11 -->
<g id="edge13_Node000009_Node000011" class="edge">
<title>Node9&#45;&gt;Node11</title>
<g id="a_edge13_Node000009_Node000011"><a xlink:title=" ">
<path fill="none" stroke="#63b8ff" d="M410,-65.87C410,-57.75 410,-45.31 410,-34.89"/>
<polygon fill="#63b8ff" stroke="#63b8ff" points="413.5,-34.67 410,-24.67 406.5,-34.67 413.5,-34.67"/>
</a>
</g>
</g>
<!-- Node12 -->
<g id="Node000012" class="node">
<title>Node12</title>
<g id="a_Node000012"><a xlink:title=" ">
<polygon fill="#e0e0e0" stroke="#999999" points="562,-30 452,-30 452,0 562,0 562,-30"/>
<text text-anchor="start" x="460" y="-18" font-family="Helvetica,sans-Serif" font-size="10.00">indicators/progress</text>
<text text-anchor="middle" x="507" y="-7" font-family="Helvetica,sans-Serif" font-size="10.00">_bar.hpp</text>
</a>
</g>
</g>
<!-- Node9&#45;&gt;Node12 -->
<g id="edge14_Node000009_Node000012" class="edge">
<title>Node9&#45;&gt;Node12</title>
<g id="a_edge14_Node000009_Node000012"><a xlink:title=" ">
<path fill="none" stroke="#63b8ff" d="M424.31,-65.87C437.6,-57.86 457.84,-45.65 474.97,-35.31"/>
<polygon fill="#63b8ff" stroke="#63b8ff" points="476.84,-38.28 483.6,-30.11 473.23,-32.28 476.84,-38.28"/>
</a>
</g>
</g>
<!-- Node13 -->
<g id="Node000013" class="node">
<title>Node13</title>
<g id="a_Node000013"><a xlink:title=" ">
<polygon fill="#e0e0e0" stroke="#999999" points="720,-24.5 580,-24.5 580,-5.5 720,-5.5 720,-24.5"/>
<text text-anchor="middle" x="650" y="-12.5" font-family="Helvetica,sans-Serif" font-size="10.00">clang/Frontend/ASTUnit.h</text>
</a>
</g>
</g>
<!-- Node9&#45;&gt;Node13 -->
<g id="edge15_Node000009_Node000013" class="edge">
<title>Node9&#45;&gt;Node13</title>
<g id="a_edge15_Node000009_Node000013"><a xlink:title=" ">
<path fill="none" stroke="#63b8ff" d="M444.9,-65.99C487.29,-55.66 558.87,-38.21 605.27,-26.9"/>
<polygon fill="#63b8ff" stroke="#63b8ff" points="606.17,-30.29 615.06,-24.52 604.52,-23.48 606.17,-30.29"/>
</a>
</g>
</g>
<!-- Node14 -->
<g id="Node000014" class="node">
<title>Node14</title>
<g id="a_Node000014"><a xlink:title=" ">
<polygon fill="#e0e0e0" stroke="#999999" points="1304,-24.5 1118,-24.5 1118,-5.5 1304,-5.5 1304,-24.5"/>
<text text-anchor="middle" x="1211" y="-12.5" font-family="Helvetica,sans-Serif" font-size="10.00">clang/Frontend/CompilerInstance.h</text>
</a>
</g>
</g>
<!-- Node9&#45;&gt;Node14 -->
<g id="edge16_Node000009_Node000014" class="edge">
<title>Node9&#45;&gt;Node14</title>
<g id="a_edge16_Node000009_Node000014"><a xlink:title=" ">
<path fill="none" stroke="#63b8ff" d="M490.74,-71.32C621.19,-65.74 886.31,-52.58 1110,-30 1121.31,-28.86 1133.29,-27.41 1144.91,-25.88"/>
<polygon fill="#63b8ff" stroke="#63b8ff" points="1145.55,-29.32 1154.99,-24.52 1144.62,-22.39 1145.55,-29.32"/>
</a>
</g>
</g>
<!-- Node15 -->
<g id="Node000015" class="node">
<title>Node15</title>
<g id="a_Node000015"><a xlink:title=" ">
<polygon fill="#e0e0e0" stroke="#999999" points="934,-24.5 738,-24.5 738,-5.5 934,-5.5 934,-24.5"/>
<text text-anchor="middle" x="836" y="-12.5" font-family="Helvetica,sans-Serif" font-size="10.00">clang/Frontend/CompilerInvocation.h</text>
</a>
</g>
</g>
<!-- Node9&#45;&gt;Node15 -->
<g id="edge17_Node000009_Node000015" class="edge">
<title>Node9&#45;&gt;Node15</title>
<g id="a_edge17_Node000009_Node000015"><a xlink:title=" ">
<path fill="none" stroke="#63b8ff" d="M471.94,-65.99C549.48,-55.35 682.03,-37.14 764,-25.89"/>
<polygon fill="#63b8ff" stroke="#63b8ff" points="764.55,-29.34 773.98,-24.52 763.6,-22.41 764.55,-29.34"/>
</a>
</g>
</g>
<!-- Node16 -->
<g id="Node000016" class="node">
<title>Node16</title>
<g id="a_Node000016"><a xlink:title=" ">
<polygon fill="#e0e0e0" stroke="#999999" points="1100.5,-30 951.5,-30 951.5,0 1100.5,0 1100.5,-30"/>
<text text-anchor="start" x="959.5" y="-18" font-family="Helvetica,sans-Serif" font-size="10.00">clang/Serialization</text>
<text text-anchor="middle" x="1026" y="-7" font-family="Helvetica,sans-Serif" font-size="10.00">/PCHContainerOperations.h</text>
</a>
</g>
</g>
<!-- Node9&#45;&gt;Node16 -->
<g id="edge18_Node000009_Node000016" class="edge">
<title>Node9&#45;&gt;Node16</title>
<g id="a_edge18_Node000009_Node000016"><a xlink:title=" ">
<path fill="none" stroke="#63b8ff" d="M490.58,-69.88C593.01,-63.54 775.48,-50.66 941.01,-30.18"/>
<polygon fill="#63b8ff" stroke="#63b8ff" points="941.9,-33.6 951.39,-28.89 941.03,-26.66 941.9,-33.6"/>
</a>
</g>
</g>
<!-- Node17&#45;&gt;Node14 -->
<g id="edge21_Node000017_Node000014" class="edge">
<title>Node17&#45;&gt;Node14</title>
<g id="a_edge21_Node000017_Node000014"><a xlink:title=" ">
<path fill="none" stroke="#63b8ff" d="M946.93,-65.99C1002.31,-55.51 1096.39,-37.7 1156.02,-26.41"/>
<polygon fill="#63b8ff" stroke="#63b8ff" points="1156.84,-29.82 1166.01,-24.52 1155.54,-22.94 1156.84,-29.82"/>
</a>
</g>
</g>
<!-- Node18 -->
<g id="Node000018" class="node">
<title>Node18</title>
<g id="a_Node000018"><a xlink:title=" ">
<polygon fill="#e0e0e0" stroke="#999999" points="1501.5,-24.5 1322.5,-24.5 1322.5,-5.5 1501.5,-5.5 1501.5,-24.5"/>
<text text-anchor="middle" x="1412" y="-12.5" font-family="Helvetica,sans-Serif" font-size="10.00">clang/Frontend/FrontendActions.h</text>
</a>
</g>
</g>
<!-- Node17&#45;&gt;Node18 -->
<g id="edge22_Node000017_Node000018" class="edge">
<title>Node17&#45;&gt;Node18</title>
<g id="a_edge22_Node000017_Node000018"><a xlink:title=" ">
<path fill="none" stroke="#63b8ff" d="M986.32,-66.18C1069.47,-57.79 1200.12,-44.09 1313,-30 1322.95,-28.76 1333.44,-27.36 1343.74,-25.95"/>
<polygon fill="#63b8ff" stroke="#63b8ff" points="1344.51,-29.38 1353.93,-24.53 1343.55,-22.44 1344.51,-29.38"/>
</a>
</g>
</g>
<!-- Node19 -->
<g id="Node000019" class="node">
<title>Node19</title>
<g id="a_Node000019"><a xlink:title=" ">
<polygon fill="#e0e0e0" stroke="#999999" points="1642.5,-24.5 1519.5,-24.5 1519.5,-5.5 1642.5,-5.5 1642.5,-24.5"/>
<text text-anchor="middle" x="1581" y="-12.5" font-family="Helvetica,sans-Serif" font-size="10.00">clang/Frontend/Utils.h</text>
</a>
</g>
</g>
<!-- Node17&#45;&gt;Node19 -->
<g id="edge23_Node000017_Node000019" class="edge">
<title>Node17&#45;&gt;Node19</title>
<g id="a_edge23_Node000017_Node000019"><a xlink:title=" ">
<path fill="none" stroke="#63b8ff" d="M986.14,-66.73C989.13,-66.48 992.09,-66.23 995,-66 1224.15,-47.54 1283.16,-60.61 1511,-30 1518.18,-29.04 1525.73,-27.78 1533.1,-26.42"/>
<polygon fill="#63b8ff" stroke="#63b8ff" points="1533.84,-29.84 1543,-24.52 1532.52,-22.97 1533.84,-29.84"/>
</a>
</g>
</g>
</g>
</svg>
