<?xml version="1.0" encoding="UTF-8" standalone="no"?>
<!DOCTYPE svg PUBLIC "-//W3C//DTD SVG 1.1//EN"
 "http://www.w3.org/Graphics/SVG/1.1/DTD/svg11.dtd">
<!-- Generated by graphviz version 2.43.0 (0)
 -->
<!-- Title: include/ASTCreation.hpp Pages: 1 -->
<svg width="296pt" height="84pt"
 viewBox="0.00 0.00 295.50 84.00" xmlns="http://www.w3.org/2000/svg" xmlns:xlink="http://www.w3.org/1999/xlink">
<g id="graph0" class="graph" transform="scale(1 1) rotate(0) translate(4 80)">
<title>include/ASTCreation.hpp</title>
<!-- Node1 -->
<g id="node1" class="node">
<title>Node1</title>
<g id="a_node1"><a xlink:title=" ">
<polygon fill="#bfbfbf" stroke="black" points="54.5,-56.5 54.5,-75.5 189.5,-75.5 189.5,-56.5 54.5,-56.5"/>
<text text-anchor="middle" x="122" y="-63.5" font-family="Helvetica,sans-Serif" font-size="10.00">include/ASTCreation.hpp</text>
</a>
</g>
</g>
<!-- Node2 -->
<g id="node2" class="node">
<title>Node2</title>
<g id="a_node2"><a xlink:href="Instantiator_8cpp.html" target="_top" xlink:title=" ">
<polygon fill="none" stroke="black" points="0,-0.5 0,-19.5 92,-19.5 92,-0.5 0,-0.5"/>
<text text-anchor="middle" x="46" y="-7.5" font-family="Helvetica,sans-Serif" font-size="10.00">Instantiator.cpp</text>
</a>
</g>
</g>
<!-- Node1&#45;&gt;Node2 -->
<g id="edge1" class="edge">
<title>Node1&#45;&gt;Node2</title>
<path fill="none" stroke="midnightblue" d="M101.42,-50.38C87.69,-40.62 70.07,-28.11 58.43,-19.83"/>
<polygon fill="midnightblue" stroke="midnightblue" points="99.61,-53.38 109.79,-56.32 103.66,-47.68 99.61,-53.38"/>
</g>
<!-- Node3 -->
<g id="node3" class="node">
<title>Node3</title>
<g id="a_node3"><a xlink:href="ASTBuilderAction_8cpp.html" target="_top" xlink:title=" ">
<polygon fill="none" stroke="black" points="110.5,-0.5 110.5,-19.5 287.5,-19.5 287.5,-0.5 110.5,-0.5"/>
<text text-anchor="middle" x="199" y="-7.5" font-family="Helvetica,sans-Serif" font-size="10.00">src/Actions/ASTBuilderAction.cpp</text>
</a>
</g>
</g>
<!-- Node1&#45;&gt;Node3 -->
<g id="edge2" class="edge">
<title>Node1&#45;&gt;Node3</title>
<path fill="none" stroke="midnightblue" d="M142.9,-50.34C156.91,-40.52 174.88,-27.91 186.66,-19.65"/>
<polygon fill="midnightblue" stroke="midnightblue" points="140.55,-47.72 134.37,-56.32 144.57,-53.45 140.55,-47.72"/>
</g>
</g>
</svg>
