<?xml version="1.0" encoding="UTF-8" standalone="no"?>
<!DOCTYPE svg PUBLIC "-//W3C//DTD SVG 1.1//EN"
 "http://www.w3.org/Graphics/SVG/1.1/DTD/svg11.dtd">
<!-- Generated by graphviz version 2.43.0 (0)
 -->
<!-- Title: AllASTBuilderAction Pages: 1 -->
<svg width="306pt" height="181pt"
 viewBox="0.00 0.00 305.50 181.00" xmlns="http://www.w3.org/2000/svg" xmlns:xlink="http://www.w3.org/1999/xlink">
<g id="graph0" class="graph" transform="scale(1 1) rotate(0) translate(4 177)">
<title>AllASTBuilderAction</title>
<!-- Node1 -->
<g id="Node000001" class="node">
<title>Node1</title>
<g id="a_Node000001"><a xlink:title="Action to compute all ASTs.">
<polygon fill="#999999" stroke="#666666" points="142,-19 29,-19 29,0 142,0 142,-19"/>
<text text-anchor="middle" x="85.5" y="-7" font-family="Helvetica,sans-Serif" font-size="10.00">AllASTBuilderAction</text>
</a>
</g>
</g>
<!-- Node2 -->
<g id="Node000002" class="node">
<title>Node2</title>
<g id="a_Node000002"><a xlink:title=" ">
<polygon fill="white" stroke="#666666" points="139,-90.5 0,-90.5 0,-71.5 139,-71.5 139,-90.5"/>
<text text-anchor="middle" x="69.5" y="-78.5" font-family="Helvetica,sans-Serif" font-size="10.00">clang::tooling::ToolAction</text>
</a>
</g>
</g>
<!-- Node2&#45;&gt;Node1 -->
<g id="edge1_Node000001_Node000002" class="edge">
<title>Node2&#45;&gt;Node1</title>
<g id="a_edge1_Node000001_Node000002"><a xlink:title=" ">
<path fill="none" stroke="#63b8ff" d="M73.73,-61.62C76.9,-47.86 81.09,-29.65 83.52,-19.09"/>
<polygon fill="#63b8ff" stroke="#63b8ff" points="70.29,-60.95 71.46,-71.48 77.12,-62.52 70.29,-60.95"/>
</a>
</g>
</g>
<!-- Node3 -->
<g id="Node000003" class="node">
<title>Node3</title>
<g id="a_Node000003"><a xlink:title=" ">
<polygon fill="white" stroke="#666666" points="297.5,-96 157.5,-96 157.5,-66 297.5,-66 297.5,-96"/>
<text text-anchor="start" x="165.5" y="-84" font-family="Helvetica,sans-Serif" font-size="10.00">std::vector&lt; std::unique</text>
<text text-anchor="middle" x="227.5" y="-73" font-family="Helvetica,sans-Serif" font-size="10.00">_ptr&lt; clang::ASTUnit &gt; &gt;</text>
</a>
</g>
</g>
<!-- Node3&#45;&gt;Node1 -->
<g id="edge2_Node000001_Node000003" class="edge">
<title>Node3&#45;&gt;Node1</title>
<g id="a_edge2_Node000001_Node000003"><a xlink:title=" ">
<path fill="none" stroke="#9a32cd" stroke-dasharray="5,2" d="M189.61,-61.46C161.51,-47.7 124.48,-29.58 103.01,-19.07"/>
<polygon fill="#9a32cd" stroke="#9a32cd" points="188.24,-64.68 198.76,-65.94 191.32,-58.4 188.24,-64.68"/>
</a>
</g>
<text text-anchor="middle" x="173.5" y="-40" font-family="Helvetica,sans-Serif" font-size="10.00" fill="grey"> ASTs</text>
</g>
<!-- Node4 -->
<g id="Node000004" class="node">
<title>Node4</title>
<g id="a_Node000004"><a xlink:title=" ">
<polygon fill="white" stroke="#666666" points="291,-173 164,-173 164,-143 291,-143 291,-173"/>
<text text-anchor="start" x="172" y="-161" font-family="Helvetica,sans-Serif" font-size="10.00">std::unique_ptr&lt; clang</text>
<text text-anchor="middle" x="227.5" y="-150" font-family="Helvetica,sans-Serif" font-size="10.00">::ASTUnit &gt;</text>
</a>
</g>
</g>
<!-- Node4&#45;&gt;Node3 -->
<g id="edge3_Node000003_Node000004" class="edge">
<title>Node4&#45;&gt;Node3</title>
<g id="a_edge3_Node000003_Node000004"><a xlink:title=" ">
<path fill="none" stroke="#9a32cd" stroke-dasharray="5,2" d="M227.5,-132.54C227.5,-120.45 227.5,-106.29 227.5,-96.04"/>
<polygon fill="#9a32cd" stroke="#9a32cd" points="224,-132.89 227.5,-142.89 231,-132.89 224,-132.89"/>
</a>
</g>
<text text-anchor="middle" x="252" y="-117" font-family="Helvetica,sans-Serif" font-size="10.00" fill="grey"> elements</text>
</g>
</g>
</svg>
