<?xml version="1.0" encoding="UTF-8" standalone="no"?>
<!DOCTYPE svg PUBLIC "-//W3C//DTD SVG 1.1//EN"
 "http://www.w3.org/Graphics/SVG/1.1/DTD/svg11.dtd">
<!-- Generated by graphviz version 2.43.0 (0)
 -->
<!-- Title: ProgressBar Pages: 1 -->
<svg width="194pt" height="171pt"
 viewBox="0.00 0.00 193.50 171.00" xmlns="http://www.w3.org/2000/svg" xmlns:xlink="http://www.w3.org/1999/xlink">
<g id="graph0" class="graph" transform="scale(1 1) rotate(0) translate(4 167)">
<title>ProgressBar</title>
<!-- Node1 -->
<g id="Node000001" class="node">
<title>Node1</title>
<g id="a_Node000001"><a xlink:title=" ">
<polygon fill="#999999" stroke="#666666" points="148.5,-19 73.5,-19 73.5,0 148.5,0 148.5,-19"/>
<text text-anchor="middle" x="111" y="-7" font-family="Helvetica,sans-Serif" font-size="10.00">ProgressBar</text>
</a>
</g>
</g>
<!-- Node2 -->
<g id="Node000002" class="node">
<title>Node2</title>
<g id="a_Node000002"><a xlink:title=" ">
<polygon fill="white" stroke="#666666" points="84.5,-96 19.5,-96 19.5,-77 84.5,-77 84.5,-96"/>
<text text-anchor="middle" x="52" y="-84" font-family="Helvetica,sans-Serif" font-size="10.00">std::string</text>
</a>
</g>
</g>
<!-- Node2&#45;&gt;Node1 -->
<g id="edge1_Node000001_Node000002" class="edge">
<title>Node2&#45;&gt;Node1</title>
<g id="a_edge1_Node000001_Node000002"><a xlink:title=" ">
<path fill="none" stroke="#9a32cd" stroke-dasharray="5,2" d="M59.02,-67.52C63.32,-57.86 69.45,-46.1 77,-37 82.73,-30.09 90.56,-23.83 97.26,-19.14"/>
<polygon fill="#9a32cd" stroke="#9a32cd" points="55.7,-66.38 55.09,-76.95 62.16,-69.07 55.7,-66.38"/>
</a>
</g>
<text text-anchor="middle" x="98" y="-51" font-family="Helvetica,sans-Serif" font-size="10.00" fill="grey"> fill_do</text>
<text text-anchor="middle" x="98" y="-40" font-family="Helvetica,sans-Serif" font-size="10.00" fill="grey">fill_done</text>
</g>
<!-- Node3 -->
<g id="Node000003" class="node">
<title>Node3</title>
<g id="a_Node000003"><a xlink:title=" ">
<polygon fill="white" stroke="#666666" points="104,-163 0,-163 0,-133 104,-133 104,-163"/>
<text text-anchor="start" x="8" y="-151" font-family="Helvetica,sans-Serif" font-size="10.00">std::basic_string&lt;</text>
<text text-anchor="middle" x="52" y="-140" font-family="Helvetica,sans-Serif" font-size="10.00"> Char &gt;</text>
</a>
</g>
</g>
<!-- Node3&#45;&gt;Node2 -->
<g id="edge2_Node000002_Node000003" class="edge">
<title>Node3&#45;&gt;Node2</title>
<g id="a_edge2_Node000002_Node000003"><a xlink:title=" ">
<path fill="none" stroke="#63b8ff" d="M52,-122.79C52,-113.36 52,-103.15 52,-96.16"/>
<polygon fill="#63b8ff" stroke="#63b8ff" points="48.5,-122.9 52,-132.9 55.5,-122.9 48.5,-122.9"/>
</a>
</g>
</g>
<!-- Node4 -->
<g id="Node000004" class="node">
<title>Node4</title>
<g id="a_Node000004"><a xlink:href="structProgressStyle.html" target="_top" xlink:title=" ">
<polygon fill="white" stroke="#666666" points="185.5,-96 102.5,-96 102.5,-77 185.5,-77 185.5,-96"/>
<text text-anchor="middle" x="144" y="-84" font-family="Helvetica,sans-Serif" font-size="10.00">ProgressStyle</text>
</a>
</g>
</g>
<!-- Node4&#45;&gt;Node1 -->
<g id="edge3_Node000001_Node000004" class="edge">
<title>Node4&#45;&gt;Node1</title>
<g id="a_edge3_Node000001_Node000004"><a xlink:title=" ">
<path fill="none" stroke="#9a32cd" stroke-dasharray="5,2" d="M136.04,-67.42C129.29,-52.06 119.89,-30.7 114.74,-19"/>
<polygon fill="#9a32cd" stroke="#9a32cd" points="132.98,-69.15 140.21,-76.9 139.39,-66.33 132.98,-69.15"/>
</a>
</g>
<text text-anchor="middle" x="145" y="-45.5" font-family="Helvetica,sans-Serif" font-size="10.00" fill="grey"> style</text>
</g>
</g>
</svg>
