<?xml version="1.0" encoding="UTF-8" standalone="no"?>
<!DOCTYPE svg PUBLIC "-//W3C//DTD SVG 1.1//EN"
 "http://www.w3.org/Graphics/SVG/1.1/DTD/svg11.dtd">
<!-- Generated by graphviz version 2.43.0 (0)
 -->
<!-- Title: ASTBuilderAction Pages: 1 -->
<svg width="395pt" height="171pt"
 viewBox="0.00 0.00 394.50 171.00" xmlns="http://www.w3.org/2000/svg" xmlns:xlink="http://www.w3.org/1999/xlink">
<g id="graph0" class="graph" transform="scale(1 1) rotate(0) translate(4 167)">
<title>ASTBuilderAction</title>
<!-- Node1 -->
<g id="Node000001" class="node">
<title>Node1</title>
<g id="a_Node000001"><a xlink:title="Action to compute a single AST of file filename.">
<polygon fill="#999999" stroke="#666666" points="271,-19 170,-19 170,0 271,0 271,-19"/>
<text text-anchor="middle" x="220.5" y="-7" font-family="Helvetica,sans-Serif" font-size="10.00">ASTBuilderAction</text>
</a>
</g>
</g>
<!-- Node2 -->
<g id="Node000002" class="node">
<title>Node2</title>
<g id="a_Node000002"><a xlink:title=" ">
<polygon fill="white" stroke="#666666" points="139,-90.5 0,-90.5 0,-71.5 139,-71.5 139,-90.5"/>
<text text-anchor="middle" x="69.5" y="-78.5" font-family="Helvetica,sans-Serif" font-size="10.00">clang::tooling::ToolAction</text>
</a>
</g>
</g>
<!-- Node2&#45;&gt;Node1 -->
<g id="edge1_Node000001_Node000002" class="edge">
<title>Node2&#45;&gt;Node1</title>
<g id="a_edge1_Node000001_Node000002"><a xlink:title=" ">
<path fill="none" stroke="#63b8ff" d="M97.22,-67.24C127.63,-53.24 175.6,-31.17 201.83,-19.09"/>
<polygon fill="#63b8ff" stroke="#63b8ff" points="95.64,-64.12 88.02,-71.48 98.56,-70.48 95.64,-64.12"/>
</a>
</g>
</g>
<!-- Node3 -->
<g id="Node000003" class="node">
<title>Node3</title>
<g id="a_Node000003"><a xlink:title=" ">
<polygon fill="white" stroke="#666666" points="284,-96 157,-96 157,-66 284,-66 284,-96"/>
<text text-anchor="start" x="165" y="-84" font-family="Helvetica,sans-Serif" font-size="10.00">std::unique_ptr&lt; clang</text>
<text text-anchor="middle" x="220.5" y="-73" font-family="Helvetica,sans-Serif" font-size="10.00">::ASTUnit &gt;</text>
</a>
</g>
</g>
<!-- Node3&#45;&gt;Node1 -->
<g id="edge2_Node000001_Node000003" class="edge">
<title>Node3&#45;&gt;Node1</title>
<g id="a_edge2_Node000001_Node000003"><a xlink:title=" ">
<path fill="none" stroke="#9a32cd" stroke-dasharray="5,2" d="M220.5,-55.56C220.5,-42.95 220.5,-28.35 220.5,-19.27"/>
<polygon fill="#9a32cd" stroke="#9a32cd" points="217,-55.94 220.5,-65.94 224,-55.94 217,-55.94"/>
</a>
</g>
<text text-anchor="middle" x="231.5" y="-40" font-family="Helvetica,sans-Serif" font-size="10.00" fill="grey"> AST</text>
</g>
<!-- Node4 -->
<g id="Node000004" class="node">
<title>Node4</title>
<g id="a_Node000004"><a xlink:title=" ">
<polygon fill="white" stroke="#666666" points="367,-90.5 302,-90.5 302,-71.5 367,-71.5 367,-90.5"/>
<text text-anchor="middle" x="334.5" y="-78.5" font-family="Helvetica,sans-Serif" font-size="10.00">std::string</text>
</a>
</g>
</g>
<!-- Node4&#45;&gt;Node1 -->
<g id="edge3_Node000001_Node000004" class="edge">
<title>Node4&#45;&gt;Node1</title>
<g id="a_edge3_Node000001_Node000004"><a xlink:title=" ">
<path fill="none" stroke="#9a32cd" stroke-dasharray="5,2" d="M311.76,-66.13C288.74,-52.1 253.88,-30.85 234.59,-19.09"/>
<polygon fill="#9a32cd" stroke="#9a32cd" points="310.16,-69.26 320.52,-71.48 313.8,-63.28 310.16,-69.26"/>
</a>
</g>
<text text-anchor="middle" x="303.5" y="-40" font-family="Helvetica,sans-Serif" font-size="10.00" fill="grey"> filename</text>
</g>
<!-- Node5 -->
<g id="Node000005" class="node">
<title>Node5</title>
<g id="a_Node000005"><a xlink:title=" ">
<polygon fill="white" stroke="#666666" points="386.5,-163 282.5,-163 282.5,-133 386.5,-133 386.5,-163"/>
<text text-anchor="start" x="290.5" y="-151" font-family="Helvetica,sans-Serif" font-size="10.00">std::basic_string&lt;</text>
<text text-anchor="middle" x="334.5" y="-140" font-family="Helvetica,sans-Serif" font-size="10.00"> Char &gt;</text>
</a>
</g>
</g>
<!-- Node5&#45;&gt;Node4 -->
<g id="edge4_Node000004_Node000005" class="edge">
<title>Node5&#45;&gt;Node4</title>
<g id="a_edge4_Node000004_Node000005"><a xlink:title=" ">
<path fill="none" stroke="#63b8ff" d="M334.5,-122.75C334.5,-111.52 334.5,-98.88 334.5,-90.69"/>
<polygon fill="#63b8ff" stroke="#63b8ff" points="331,-122.9 334.5,-132.9 338,-122.9 331,-122.9"/>
</a>
</g>
</g>
</g>
</svg>
