<?xml version="1.0" encoding="UTF-8" standalone="no"?>
<!DOCTYPE svg PUBLIC "-//W3C//DTD SVG 1.1//EN"
 "http://www.w3.org/Graphics/SVG/1.1/DTD/svg11.dtd">
<!-- Generated by graphviz version 2.43.0 (0)
 -->
<!-- Title: GetNeededInstantiations Pages: 1 -->
<svg width="1637pt" height="221pt"
 viewBox="0.00 0.00 1637.00 220.51" xmlns="http://www.w3.org/2000/svg" xmlns:xlink="http://www.w3.org/1999/xlink">
<g id="graph0" class="graph" transform="scale(1 1) rotate(0) translate(4 216.51)">
<title>GetNeededInstantiations</title>
<!-- Node1 -->
<g id="Node000001" class="node">
<title>Node1</title>
<g id="a_Node000001"><a xlink:title="MatchCallback for template instantiation detections.">
<polygon fill="#999999" stroke="#666666" points="1629,-118.01 1491,-118.01 1491,-99.01 1629,-99.01 1629,-118.01"/>
<text text-anchor="middle" x="1560" y="-106.01" font-family="Helvetica,sans-Serif" font-size="10.00">GetNeededInstantiations</text>
</a>
</g>
</g>
<!-- Node2 -->
<g id="Node000002" class="node">
<title>Node2</title>
<g id="a_Node000002"><a xlink:title=" ">
<polygon fill="white" stroke="#666666" points="1411,-144.51 1250,-144.51 1250,-114.51 1411,-114.51 1411,-144.51"/>
<text text-anchor="start" x="1258" y="-132.51" font-family="Helvetica,sans-Serif" font-size="10.00">clang::ast_matchers</text>
<text text-anchor="middle" x="1330.5" y="-121.51" font-family="Helvetica,sans-Serif" font-size="10.00">::MatchFinder::MatchCallback</text>
</a>
</g>
</g>
<!-- Node2&#45;&gt;Node1 -->
<g id="edge1_Node000001_Node000002" class="edge">
<title>Node2&#45;&gt;Node1</title>
<g id="a_edge1_Node000001_Node000002"><a xlink:title=" ">
<path fill="none" stroke="#63b8ff" d="M1421.25,-121.23C1444.4,-119.09 1468.95,-116.82 1490.81,-114.81"/>
<polygon fill="#63b8ff" stroke="#63b8ff" points="1420.7,-117.76 1411.07,-122.17 1421.35,-124.73 1420.7,-117.76"/>
</a>
</g>
</g>
<!-- Node3 -->
<g id="Node000003" class="node">
<title>Node3</title>
<g id="a_Node000003"><a xlink:title=" ">
<polygon fill="white" stroke="#666666" points="1397,-96.01 1264,-96.01 1264,-77.01 1397,-77.01 1397,-96.01"/>
<text text-anchor="middle" x="1330.5" y="-84.01" font-family="Helvetica,sans-Serif" font-size="10.00">std::vector&lt; Injection &gt;</text>
</a>
</g>
</g>
<!-- Node3&#45;&gt;Node1 -->
<g id="edge2_Node000001_Node000003" class="edge">
<title>Node3&#45;&gt;Node1</title>
<g id="a_edge2_Node000001_Node000003"><a xlink:title=" ">
<path fill="none" stroke="#9a32cd" stroke-dasharray="5,2" d="M1407.48,-93.86C1434.48,-96.47 1464.68,-99.39 1490.97,-101.93"/>
<polygon fill="#9a32cd" stroke="#9a32cd" points="1407.59,-90.35 1397.3,-92.87 1406.92,-97.32 1407.59,-90.35"/>
</a>
</g>
<text text-anchor="middle" x="1451" y="-103.51" font-family="Helvetica,sans-Serif" font-size="10.00" fill="grey"> toDoList</text>
</g>
<!-- Node4 -->
<g id="Node000004" class="node">
<title>Node4</title>
<g id="a_Node000004"><a xlink:href="structInjection.html" target="_top" xlink:title="Struct for the collection of all relevant data for a template instantiation which needs to be inserte...">
<polygon fill="white" stroke="#666666" points="1165,-96.01 1106,-96.01 1106,-77.01 1165,-77.01 1165,-96.01"/>
<text text-anchor="middle" x="1135.5" y="-84.01" font-family="Helvetica,sans-Serif" font-size="10.00">Injection</text>
</a>
</g>
</g>
<!-- Node4&#45;&gt;Node3 -->
<g id="edge3_Node000003_Node000004" class="edge">
<title>Node4&#45;&gt;Node3</title>
<g id="a_edge3_Node000003_Node000004"><a xlink:title=" ">
<path fill="none" stroke="#9a32cd" stroke-dasharray="5,2" d="M1175.71,-86.51C1201.06,-86.51 1234.66,-86.51 1264,-86.51"/>
<polygon fill="#9a32cd" stroke="#9a32cd" points="1175.39,-83.01 1165.39,-86.51 1175.39,-90.01 1175.39,-83.01"/>
</a>
</g>
<text text-anchor="middle" x="1207.5" y="-89.51" font-family="Helvetica,sans-Serif" font-size="10.00" fill="grey"> elements</text>
</g>
<!-- Node5 -->
<g id="Node000005" class="node">
<title>Node5</title>
<g id="a_Node000005"><a xlink:title=" ">
<polygon fill="white" stroke="#666666" points="206,-99.01 141,-99.01 141,-80.01 206,-80.01 206,-99.01"/>
<text text-anchor="middle" x="173.5" y="-87.01" font-family="Helvetica,sans-Serif" font-size="10.00">std::string</text>
</a>
</g>
</g>
<!-- Node5&#45;&gt;Node4 -->
<g id="edge4_Node000004_Node000005" class="edge">
<title>Node5&#45;&gt;Node4</title>
<g id="a_edge4_Node000004_Node000005"><a xlink:title=" ">
<path fill="none" stroke="#9a32cd" stroke-dasharray="5,2" d="M205.04,-103C246.04,-119.85 321.54,-146.51 389,-146.51 389,-146.51 389,-146.51 944,-146.51 1010.4,-146.51 1084.06,-112.94 1116.96,-96.02"/>
<polygon fill="#9a32cd" stroke="#9a32cd" points="206.2,-99.69 195.62,-99.05 203.49,-106.15 206.2,-99.69"/>
</a>
</g>
<text text-anchor="middle" x="631" y="-204.51" font-family="Helvetica,sans-Serif" font-size="10.00" fill="grey"> class_name</text>
<text text-anchor="middle" x="631" y="-193.51" font-family="Helvetica,sans-Serif" font-size="10.00" fill="grey">func_name</text>
<text text-anchor="start" x="583.5" y="-182.51" font-family="Helvetica,sans-Serif" font-size="10.00" fill="grey">guess_injection</text>
<text text-anchor="middle" x="631" y="-171.51" font-family="Helvetica,sans-Serif" font-size="10.00" fill="grey">_place</text>
<text text-anchor="middle" x="631" y="-160.51" font-family="Helvetica,sans-Serif" font-size="10.00" fill="grey">nested_namespace</text>
<text text-anchor="middle" x="631" y="-149.51" font-family="Helvetica,sans-Serif" font-size="10.00" fill="grey">return_type</text>
</g>
<!-- Node7 -->
<g id="Node000007" class="node">
<title>Node7</title>
<g id="a_Node000007"><a xlink:title=" ">
<polygon fill="white" stroke="#666666" points="460,-99.01 320,-99.01 320,-80.01 460,-80.01 460,-99.01"/>
<text text-anchor="middle" x="390" y="-87.01" font-family="Helvetica,sans-Serif" font-size="10.00">std::vector&lt; std::string &gt;</text>
</a>
</g>
</g>
<!-- Node5&#45;&gt;Node7 -->
<g id="edge7_Node000007_Node000005" class="edge">
<title>Node5&#45;&gt;Node7</title>
<g id="a_edge7_Node000007_Node000005"><a xlink:title=" ">
<path fill="none" stroke="#9a32cd" stroke-dasharray="5,2" d="M216.48,-89.51C245.89,-89.51 285.88,-89.51 319.95,-89.51"/>
<polygon fill="#9a32cd" stroke="#9a32cd" points="216.15,-86.01 206.15,-89.51 216.15,-93.01 216.15,-86.01"/>
</a>
</g>
<text text-anchor="middle" x="263" y="-92.51" font-family="Helvetica,sans-Serif" font-size="10.00" fill="grey"> elements</text>
</g>
<!-- Node11 -->
<g id="Node000011" class="node">
<title>Node11</title>
<g id="a_Node000011"><a xlink:href="structParam.html" target="_top" xlink:title="Struct for the collection of all relevant data for a function parameter.">
<polygon fill="white" stroke="#666666" points="413.5,-33.01 366.5,-33.01 366.5,-14.01 413.5,-14.01 413.5,-33.01"/>
<text text-anchor="middle" x="390" y="-21.01" font-family="Helvetica,sans-Serif" font-size="10.00">Param</text>
</a>
</g>
</g>
<!-- Node5&#45;&gt;Node11 -->
<g id="edge13_Node000011_Node000005" class="edge">
<title>Node5&#45;&gt;Node11</title>
<g id="a_edge13_Node000011_Node000005"><a xlink:title=" ">
<path fill="none" stroke="#9a32cd" stroke-dasharray="5,2" d="M199.38,-74.92C207.09,-70.82 215.74,-66.63 224,-63.51 273.23,-44.94 334.03,-32.82 366.32,-27.18"/>
<polygon fill="#9a32cd" stroke="#9a32cd" points="197.6,-71.91 190.53,-79.8 200.98,-78.03 197.6,-71.91"/>
</a>
</g>
<text text-anchor="middle" x="263" y="-77.51" font-family="Helvetica,sans-Serif" font-size="10.00" fill="grey"> name</text>
<text text-anchor="middle" x="263" y="-66.51" font-family="Helvetica,sans-Serif" font-size="10.00" fill="grey">template_name</text>
</g>
<!-- Node6 -->
<g id="Node000006" class="node">
<title>Node6</title>
<g id="a_Node000006"><a xlink:title=" ">
<polygon fill="white" stroke="#666666" points="104,-104.51 0,-104.51 0,-74.51 104,-74.51 104,-104.51"/>
<text text-anchor="start" x="8" y="-92.51" font-family="Helvetica,sans-Serif" font-size="10.00">std::basic_string&lt;</text>
<text text-anchor="middle" x="52" y="-81.51" font-family="Helvetica,sans-Serif" font-size="10.00"> Char &gt;</text>
</a>
</g>
</g>
<!-- Node6&#45;&gt;Node5 -->
<g id="edge5_Node000005_Node000006" class="edge">
<title>Node6&#45;&gt;Node5</title>
<g id="a_edge5_Node000005_Node000006"><a xlink:title=" ">
<path fill="none" stroke="#63b8ff" d="M114.1,-89.51C123.41,-89.51 132.68,-89.51 141,-89.51"/>
<polygon fill="#63b8ff" stroke="#63b8ff" points="114.03,-86.01 104.03,-89.51 114.03,-93.01 114.03,-86.01"/>
</a>
</g>
</g>
<!-- Node7&#45;&gt;Node4 -->
<g id="edge6_Node000004_Node000007" class="edge">
<title>Node7&#45;&gt;Node4</title>
<g id="a_edge6_Node000004_Node000007"><a xlink:title=" ">
<path fill="none" stroke="#9a32cd" stroke-dasharray="5,2" d="M470.75,-89.19C634.22,-88.53 1000.77,-87.05 1105.85,-86.63"/>
<polygon fill="#9a32cd" stroke="#9a32cd" points="470.26,-85.69 460.28,-89.23 470.29,-92.69 470.26,-85.69"/>
</a>
</g>
<text text-anchor="middle" x="796" y="-91.51" font-family="Helvetica,sans-Serif" font-size="10.00" fill="grey"> func_Ttypes</text>
</g>
<!-- Node9 -->
<g id="Node000009" class="node">
<title>Node9</title>
<g id="a_Node000009"><a xlink:href="structInstantiator_1_1TemplateArgument.html" target="_top" xlink:title="Struct for the collection of all relevant data for a function parameter.">
<polygon fill="white" stroke="#666666" points="717,-70.01 545,-70.01 545,-51.01 717,-51.01 717,-70.01"/>
<text text-anchor="middle" x="631" y="-58.01" font-family="Helvetica,sans-Serif" font-size="10.00">Instantiator::TemplateArgument</text>
</a>
</g>
</g>
<!-- Node7&#45;&gt;Node9 -->
<g id="edge10_Node000009_Node000007" class="edge">
<title>Node7&#45;&gt;Node9</title>
<g id="a_edge10_Node000009_Node000007"><a xlink:title=" ">
<path fill="none" stroke="#9a32cd" stroke-dasharray="5,2" d="M457.28,-78.41C464.27,-77.37 471.27,-76.38 478,-75.51 499.56,-72.71 522.91,-70.17 544.68,-68"/>
<polygon fill="#9a32cd" stroke="#9a32cd" points="456.44,-75 447.09,-79.97 457.5,-81.92 456.44,-75"/>
</a>
</g>
<text text-anchor="middle" x="502.5" y="-78.51" font-family="Helvetica,sans-Serif" font-size="10.00" fill="grey"> names</text>
</g>
<!-- Node8 -->
<g id="Node000008" class="node">
<title>Node8</title>
<g id="a_Node000008"><a xlink:title=" ">
<polygon fill="white" stroke="#666666" points="1011,-72.51 875,-72.51 875,-42.51 1011,-42.51 1011,-72.51"/>
<text text-anchor="start" x="883" y="-60.51" font-family="Helvetica,sans-Serif" font-size="10.00">std::vector&lt; Instantiator</text>
<text text-anchor="middle" x="943" y="-49.51" font-family="Helvetica,sans-Serif" font-size="10.00">::TemplateArgument &gt;</text>
</a>
</g>
</g>
<!-- Node8&#45;&gt;Node4 -->
<g id="edge8_Node000004_Node000008" class="edge">
<title>Node8&#45;&gt;Node4</title>
<g id="a_edge8_Node000004_Node000008"><a xlink:title=" ">
<path fill="none" stroke="#9a32cd" stroke-dasharray="5,2" d="M1021.39,-65.63C1043.02,-68.32 1066.49,-71.63 1088,-75.51 1093.71,-76.54 1099.78,-77.83 1105.58,-79.16"/>
<polygon fill="#9a32cd" stroke="#9a32cd" points="1021.61,-62.13 1011.26,-64.4 1020.77,-69.08 1021.61,-62.13"/>
</a>
</g>
<text text-anchor="middle" x="1058.5" y="-78.51" font-family="Helvetica,sans-Serif" font-size="10.00" fill="grey"> class_Targs</text>
</g>
<!-- Node9&#45;&gt;Node8 -->
<g id="edge9_Node000008_Node000009" class="edge">
<title>Node9&#45;&gt;Node8</title>
<g id="a_edge9_Node000008_Node000009"><a xlink:title=" ">
<path fill="none" stroke="#9a32cd" stroke-dasharray="5,2" d="M727.18,-59.59C775.01,-59.13 831.81,-58.58 874.99,-58.16"/>
<polygon fill="#9a32cd" stroke="#9a32cd" points="727.08,-56.09 717.12,-59.69 727.15,-63.09 727.08,-56.09"/>
</a>
</g>
<text text-anchor="middle" x="796" y="-62.51" font-family="Helvetica,sans-Serif" font-size="10.00" fill="grey"> elements</text>
</g>
<!-- Node10 -->
<g id="Node000010" class="node">
<title>Node10</title>
<g id="a_Node000010"><a xlink:title=" ">
<polygon fill="white" stroke="#666666" points="857,-23.01 735,-23.01 735,-4.01 857,-4.01 857,-23.01"/>
<text text-anchor="middle" x="796" y="-11.01" font-family="Helvetica,sans-Serif" font-size="10.00">std::vector&lt; Param &gt;</text>
</a>
</g>
</g>
<!-- Node10&#45;&gt;Node4 -->
<g id="edge11_Node000004_Node000010" class="edge">
<title>Node10&#45;&gt;Node4</title>
<g id="a_edge11_Node000004_Node000010"><a xlink:title=" ">
<path fill="none" stroke="#9a32cd" stroke-dasharray="5,2" d="M867.17,-3.12C909.58,0.78 964.29,1.56 1011,-11.51 1057.14,-24.42 1103.18,-59.82 1123.58,-76.96"/>
<polygon fill="#9a32cd" stroke="#9a32cd" points="866.82,0.36 857.21,-4.12 867.51,-6.6 866.82,0.36"/>
</a>
</g>
<text text-anchor="middle" x="943" y="-25.51" font-family="Helvetica,sans-Serif" font-size="10.00" fill="grey"> nonresolved_params</text>
<text text-anchor="middle" x="943" y="-14.51" font-family="Helvetica,sans-Serif" font-size="10.00" fill="grey">params</text>
</g>
<!-- Node11&#45;&gt;Node10 -->
<g id="edge12_Node000010_Node000011" class="edge">
<title>Node11&#45;&gt;Node10</title>
<g id="a_edge12_Node000010_Node000011"><a xlink:title=" ">
<path fill="none" stroke="#9a32cd" stroke-dasharray="5,2" d="M423.68,-22.7C491.47,-21.02 648.27,-17.14 734.86,-15"/>
<polygon fill="#9a32cd" stroke="#9a32cd" points="423.5,-19.21 413.59,-22.95 423.67,-26.2 423.5,-19.21"/>
</a>
</g>
<text text-anchor="middle" x="502.5" y="-24.51" font-family="Helvetica,sans-Serif" font-size="10.00" fill="grey"> elements</text>
</g>
</g>
</svg>
