<?xml version="1.0" encoding="UTF-8" standalone="no"?>
<!DOCTYPE svg PUBLIC "-//W3C//DTD SVG 1.1//EN"
 "http://www.w3.org/Graphics/SVG/1.1/DTD/svg11.dtd">
<!-- Generated by graphviz version 2.43.0 (0)
 -->
<!-- Title: DependencyAction Pages: 1 -->
<svg width="812pt" height="119pt"
 viewBox="0.00 0.00 812.00 118.50" xmlns="http://www.w3.org/2000/svg" xmlns:xlink="http://www.w3.org/1999/xlink">
<g id="graph0" class="graph" transform="scale(1 1) rotate(0) translate(4 114.5)">
<title>DependencyAction</title>
<!-- Node1 -->
<g id="Node000001" class="node">
<title>Node1</title>
<g id="a_Node000001"><a xlink:title="Action to compute the (header) dependencies of a source file.">
<polygon fill="#999999" stroke="#666666" points="804,-67.5 696,-67.5 696,-48.5 804,-48.5 804,-67.5"/>
<text text-anchor="middle" x="750" y="-55.5" font-family="Helvetica,sans-Serif" font-size="10.00">DependencyAction</text>
</a>
</g>
</g>
<!-- Node2 -->
<g id="Node000002" class="node">
<title>Node2</title>
<g id="a_Node000002"><a xlink:title=" ">
<polygon fill="white" stroke="#666666" points="578,-110.5 423,-110.5 423,-91.5 578,-91.5 578,-110.5"/>
<text text-anchor="middle" x="500.5" y="-98.5" font-family="Helvetica,sans-Serif" font-size="10.00">clang::PreprocessOnlyAction</text>
</a>
</g>
</g>
<!-- Node2&#45;&gt;Node1 -->
<g id="edge1_Node000001_Node000002" class="edge">
<title>Node2&#45;&gt;Node1</title>
<g id="a_edge1_Node000001_Node000002"><a xlink:title=" ">
<path fill="none" stroke="#63b8ff" d="M576.59,-89.95C607.99,-85.11 644.83,-79.13 678,-73 686.92,-71.35 696.44,-69.44 705.51,-67.55"/>
<polygon fill="#63b8ff" stroke="#63b8ff" points="575.95,-86.51 566.6,-91.48 577.01,-93.43 575.95,-86.51"/>
</a>
</g>
</g>
<!-- Node3 -->
<g id="Node000003" class="node">
<title>Node3</title>
<g id="a_Node000003"><a xlink:title=" ">
<polygon fill="white" stroke="#666666" points="589,-73 412,-73 412,-43 589,-43 589,-73"/>
<text text-anchor="start" x="420" y="-61" font-family="Helvetica,sans-Serif" font-size="10.00">std::unique_ptr&lt; myDependency</text>
<text text-anchor="middle" x="500.5" y="-50" font-family="Helvetica,sans-Serif" font-size="10.00">Collector &gt;</text>
</a>
</g>
</g>
<!-- Node3&#45;&gt;Node1 -->
<g id="edge2_Node000001_Node000003" class="edge">
<title>Node3&#45;&gt;Node1</title>
<g id="a_edge2_Node000001_Node000003"><a xlink:title=" ">
<path fill="none" stroke="#9a32cd" stroke-dasharray="5,2" d="M599.22,-58C632.12,-58 667.59,-58 695.75,-58"/>
<polygon fill="#9a32cd" stroke="#9a32cd" points="599.11,-54.5 589.11,-58 599.11,-61.5 599.11,-54.5"/>
</a>
</g>
<text text-anchor="middle" x="642.5" y="-61" font-family="Helvetica,sans-Serif" font-size="10.00" fill="grey"> col</text>
</g>
<!-- Node4 -->
<g id="Node000004" class="node">
<title>Node4</title>
<g id="a_Node000004"><a xlink:href="classmyDependencyCollector.html" target="_top" xlink:title="This class sets the options for the collection of dependencies.">
<polygon fill="white" stroke="#666666" points="327,-67.5 190,-67.5 190,-48.5 327,-48.5 327,-67.5"/>
<text text-anchor="middle" x="258.5" y="-55.5" font-family="Helvetica,sans-Serif" font-size="10.00">myDependencyCollector</text>
</a>
</g>
</g>
<!-- Node4&#45;&gt;Node3 -->
<g id="edge3_Node000003_Node000004" class="edge">
<title>Node4&#45;&gt;Node3</title>
<g id="a_edge3_Node000003_Node000004"><a xlink:title=" ">
<path fill="none" stroke="#9a32cd" stroke-dasharray="5,2" d="M337.32,-58C361.05,-58 387.31,-58 411.66,-58"/>
<polygon fill="#9a32cd" stroke="#9a32cd" points="337.31,-54.5 327.31,-58 337.31,-61.5 337.31,-54.5"/>
</a>
</g>
<text text-anchor="middle" x="369.5" y="-61" font-family="Helvetica,sans-Serif" font-size="10.00" fill="grey"> ptr</text>
</g>
<!-- Node5 -->
<g id="Node000005" class="node">
<title>Node5</title>
<g id="a_Node000005"><a xlink:title=" ">
<polygon fill="white" stroke="#666666" points="153,-67.5 0,-67.5 0,-48.5 153,-48.5 153,-67.5"/>
<text text-anchor="middle" x="76.5" y="-55.5" font-family="Helvetica,sans-Serif" font-size="10.00">clang::DependencyCollector</text>
</a>
</g>
</g>
<!-- Node5&#45;&gt;Node4 -->
<g id="edge4_Node000004_Node000005" class="edge">
<title>Node5&#45;&gt;Node4</title>
<g id="a_edge4_Node000004_Node000005"><a xlink:title=" ">
<path fill="none" stroke="#63b8ff" d="M163.14,-58C172.11,-58 181.14,-58 189.87,-58"/>
<polygon fill="#63b8ff" stroke="#63b8ff" points="163.05,-54.5 153.05,-58 163.05,-61.5 163.05,-54.5"/>
</a>
</g>
</g>
<!-- Node6 -->
<g id="Node000006" class="node">
<title>Node6</title>
<g id="a_Node000006"><a xlink:title=" ">
<polygon fill="white" stroke="#666666" points="570.5,-24.5 430.5,-24.5 430.5,-5.5 570.5,-5.5 570.5,-24.5"/>
<text text-anchor="middle" x="500.5" y="-12.5" font-family="Helvetica,sans-Serif" font-size="10.00">std::vector&lt; std::string &gt;</text>
</a>
</g>
</g>
<!-- Node6&#45;&gt;Node1 -->
<g id="edge5_Node000001_Node000006" class="edge">
<title>Node6&#45;&gt;Node1</title>
<g id="a_edge5_Node000001_Node000006"><a xlink:title=" ">
<path fill="none" stroke="#9a32cd" stroke-dasharray="5,2" d="M576.59,-26.05C607.99,-30.89 644.83,-36.87 678,-43 686.92,-44.65 696.44,-46.56 705.51,-48.45"/>
<polygon fill="#9a32cd" stroke="#9a32cd" points="577.01,-22.57 566.6,-24.52 575.95,-29.49 577.01,-22.57"/>
</a>
</g>
<text text-anchor="middle" x="642.5" y="-46" font-family="Helvetica,sans-Serif" font-size="10.00" fill="grey"> dependencies</text>
</g>
<!-- Node7 -->
<g id="Node000007" class="node">
<title>Node7</title>
<g id="a_Node000007"><a xlink:title=" ">
<polygon fill="white" stroke="#666666" points="291,-24.5 226,-24.5 226,-5.5 291,-5.5 291,-24.5"/>
<text text-anchor="middle" x="258.5" y="-12.5" font-family="Helvetica,sans-Serif" font-size="10.00">std::string</text>
</a>
</g>
</g>
<!-- Node7&#45;&gt;Node6 -->
<g id="edge6_Node000006_Node000007" class="edge">
<title>Node7&#45;&gt;Node6</title>
<g id="a_edge6_Node000006_Node000007"><a xlink:title=" ">
<path fill="none" stroke="#9a32cd" stroke-dasharray="5,2" d="M301.38,-15C336.84,-15 388.4,-15 430.04,-15"/>
<polygon fill="#9a32cd" stroke="#9a32cd" points="301.37,-11.5 291.37,-15 301.37,-18.5 301.37,-11.5"/>
</a>
</g>
<text text-anchor="middle" x="369.5" y="-18" font-family="Helvetica,sans-Serif" font-size="10.00" fill="grey"> elements</text>
</g>
<!-- Node8 -->
<g id="Node000008" class="node">
<title>Node8</title>
<g id="a_Node000008"><a xlink:title=" ">
<polygon fill="white" stroke="#666666" points="128.5,-30 24.5,-30 24.5,0 128.5,0 128.5,-30"/>
<text text-anchor="start" x="32.5" y="-18" font-family="Helvetica,sans-Serif" font-size="10.00">std::basic_string&lt;</text>
<text text-anchor="middle" x="76.5" y="-7" font-family="Helvetica,sans-Serif" font-size="10.00"> Char &gt;</text>
</a>
</g>
</g>
<!-- Node8&#45;&gt;Node7 -->
<g id="edge7_Node000007_Node000008" class="edge">
<title>Node8&#45;&gt;Node7</title>
<g id="a_edge7_Node000007_Node000008"><a xlink:title=" ">
<path fill="none" stroke="#63b8ff" d="M138.73,-15C167.99,-15 201.77,-15 225.81,-15"/>
<polygon fill="#63b8ff" stroke="#63b8ff" points="138.6,-11.5 128.6,-15 138.6,-18.5 138.6,-11.5"/>
</a>
</g>
</g>
</g>
</svg>
