<?xml version="1.0" encoding="UTF-8" standalone="no"?>
<!DOCTYPE svg PUBLIC "-//W3C//DTD SVG 1.1//EN"
 "http://www.w3.org/Graphics/SVG/1.1/DTD/svg11.dtd">
<!-- Generated by graphviz version 2.43.0 (0)
 -->
<!-- Title: GetNeededInstantiations Pages: 1 -->
<svg width="461pt" height="515pt"
 viewBox="0.00 0.00 460.50 515.00" xmlns="http://www.w3.org/2000/svg" xmlns:xlink="http://www.w3.org/1999/xlink">
<g id="graph0" class="graph" transform="scale(1 1) rotate(0) translate(4 511)">
<title>GetNeededInstantiations</title>
<!-- Node1 -->
<g id="Node000001" class="node">
<title>Node1</title>
<g id="a_Node000001"><a xlink:title="MatchCallback for template instantiation detections.">
<polygon fill="#999999" stroke="#666666" points="165.5,-19 27.5,-19 27.5,0 165.5,0 165.5,-19"/>
<text text-anchor="middle" x="96.5" y="-7" font-family="Helvetica,sans-Serif" font-size="10.00">GetNeededInstantiations</text>
</a>
</g>
</g>
<!-- Node2 -->
<g id="Node000002" class="node">
<title>Node2</title>
<g id="a_Node000002"><a xlink:title=" ">
<polygon fill="white" stroke="#666666" points="161,-96 0,-96 0,-66 161,-66 161,-96"/>
<text text-anchor="start" x="8" y="-84" font-family="Helvetica,sans-Serif" font-size="10.00">clang::ast_matchers</text>
<text text-anchor="middle" x="80.5" y="-73" font-family="Helvetica,sans-Serif" font-size="10.00">::MatchFinder::MatchCallback</text>
</a>
</g>
</g>
<!-- Node2&#45;&gt;Node1 -->
<g id="edge1_Node000001_Node000002" class="edge">
<title>Node2&#45;&gt;Node1</title>
<g id="a_edge1_Node000001_Node000002"><a xlink:title=" ">
<path fill="none" stroke="#63b8ff" d="M86.04,-55.94C88.96,-43.24 92.37,-28.44 94.48,-19.27"/>
<polygon fill="#63b8ff" stroke="#63b8ff" points="82.57,-55.41 83.74,-65.94 89.39,-56.98 82.57,-55.41"/>
</a>
</g>
</g>
<!-- Node3 -->
<g id="Node000003" class="node">
<title>Node3</title>
<g id="a_Node000003"><a xlink:title=" ">
<polygon fill="white" stroke="#666666" points="312,-90.5 179,-90.5 179,-71.5 312,-71.5 312,-90.5"/>
<text text-anchor="middle" x="245.5" y="-78.5" font-family="Helvetica,sans-Serif" font-size="10.00">std::vector&lt; Injection &gt;</text>
</a>
</g>
</g>
<!-- Node3&#45;&gt;Node1 -->
<g id="edge2_Node000001_Node000003" class="edge">
<title>Node3&#45;&gt;Node1</title>
<g id="a_edge2_Node000001_Node000003"><a xlink:title=" ">
<path fill="none" stroke="#9a32cd" stroke-dasharray="5,2" d="M218.14,-67.24C188.14,-53.24 140.81,-31.17 114.92,-19.09"/>
<polygon fill="#9a32cd" stroke="#9a32cd" points="216.69,-70.42 227.23,-71.48 219.65,-64.08 216.69,-70.42"/>
</a>
</g>
<text text-anchor="middle" x="197.5" y="-40" font-family="Helvetica,sans-Serif" font-size="10.00" fill="grey"> toDoList</text>
</g>
<!-- Node4 -->
<g id="Node000004" class="node">
<title>Node4</title>
<g id="a_Node000004"><a xlink:href="structInjection.html" target="_top" xlink:title="Struct for the collection of all relevant data for a template instantiation which needs to be inserte...">
<polygon fill="white" stroke="#666666" points="275,-162 216,-162 216,-143 275,-143 275,-162"/>
<text text-anchor="middle" x="245.5" y="-150" font-family="Helvetica,sans-Serif" font-size="10.00">Injection</text>
</a>
</g>
</g>
<!-- Node4&#45;&gt;Node3 -->
<g id="edge3_Node000003_Node000004" class="edge">
<title>Node4&#45;&gt;Node3</title>
<g id="a_edge3_Node000003_Node000004"><a xlink:title=" ">
<path fill="none" stroke="#9a32cd" stroke-dasharray="5,2" d="M245.5,-132.71C245.5,-119 245.5,-101.05 245.5,-90.59"/>
<polygon fill="#9a32cd" stroke="#9a32cd" points="242,-132.98 245.5,-142.98 249,-132.98 242,-132.98"/>
</a>
</g>
<text text-anchor="middle" x="270" y="-117" font-family="Helvetica,sans-Serif" font-size="10.00" fill="grey"> elements</text>
</g>
<!-- Node5 -->
<g id="Node000005" class="node">
<title>Node5</title>
<g id="a_Node000005"><a xlink:title=" ">
<polygon fill="white" stroke="#666666" points="331,-440 266,-440 266,-421 331,-421 331,-440"/>
<text text-anchor="middle" x="298.5" y="-428" font-family="Helvetica,sans-Serif" font-size="10.00">std::string</text>
</a>
</g>
</g>
<!-- Node5&#45;&gt;Node4 -->
<g id="edge4_Node000004_Node000005" class="edge">
<title>Node5&#45;&gt;Node4</title>
<g id="a_edge4_Node000004_Node000005"><a xlink:title=" ">
<path fill="none" stroke="#9a32cd" stroke-dasharray="5,2" d="M256.38,-417.79C214.5,-403.64 152.57,-375.36 124.5,-326 110,-300.5 112.42,-286.73 124.5,-260 146.05,-212.31 200.68,-177.47 228.57,-162.15"/>
<polygon fill="#9a32cd" stroke="#9a32cd" points="255.45,-421.16 266.04,-420.92 257.61,-414.5 255.45,-421.16"/>
</a>
</g>
<text text-anchor="middle" x="172" y="-318" font-family="Helvetica,sans-Serif" font-size="10.00" fill="grey"> class_name</text>
<text text-anchor="middle" x="172" y="-307" font-family="Helvetica,sans-Serif" font-size="10.00" fill="grey">func_name</text>
<text text-anchor="start" x="124.5" y="-296" font-family="Helvetica,sans-Serif" font-size="10.00" fill="grey">guess_injection</text>
<text text-anchor="middle" x="172" y="-285" font-family="Helvetica,sans-Serif" font-size="10.00" fill="grey">_place</text>
<text text-anchor="middle" x="172" y="-274" font-family="Helvetica,sans-Serif" font-size="10.00" fill="grey">nested_namespace</text>
<text text-anchor="middle" x="172" y="-263" font-family="Helvetica,sans-Serif" font-size="10.00" fill="grey">return_type</text>
</g>
<!-- Node7 -->
<g id="Node000007" class="node">
<title>Node7</title>
<g id="a_Node000007"><a xlink:title=" ">
<polygon fill="white" stroke="#666666" points="368.5,-302.5 228.5,-302.5 228.5,-283.5 368.5,-283.5 368.5,-302.5"/>
<text text-anchor="middle" x="298.5" y="-290.5" font-family="Helvetica,sans-Serif" font-size="10.00">std::vector&lt; std::string &gt;</text>
</a>
</g>
</g>
<!-- Node5&#45;&gt;Node7 -->
<g id="edge7_Node000007_Node000005" class="edge">
<title>Node5&#45;&gt;Node7</title>
<g id="a_edge7_Node000007_Node000005"><a xlink:title=" ">
<path fill="none" stroke="#9a32cd" stroke-dasharray="5,2" d="M298.5,-410.28C298.5,-380.48 298.5,-324.32 298.5,-302.75"/>
<polygon fill="#9a32cd" stroke="#9a32cd" points="295,-410.61 298.5,-420.61 302,-410.61 295,-410.61"/>
</a>
</g>
<text text-anchor="middle" x="323" y="-389.5" font-family="Helvetica,sans-Serif" font-size="10.00" fill="grey"> elements</text>
</g>
<!-- Node9 -->
<g id="Node000009" class="node">
<title>Node9</title>
<g id="a_Node000009"><a xlink:href="structParam.html" target="_top" xlink:title="Struct for the collection of all relevant data for a function parameter.">
<polygon fill="white" stroke="#666666" points="409,-363 362,-363 362,-344 409,-344 409,-363"/>
<text text-anchor="middle" x="385.5" y="-351" font-family="Helvetica,sans-Serif" font-size="10.00">Param</text>
</a>
</g>
</g>
<!-- Node5&#45;&gt;Node9 -->
<g id="edge10_Node000009_Node000005" class="edge">
<title>Node5&#45;&gt;Node9</title>
<g id="a_edge10_Node000009_Node000005"><a xlink:title=" ">
<path fill="none" stroke="#9a32cd" stroke-dasharray="5,2" d="M330.72,-416.59C337.99,-412.83 345.36,-408.29 351.5,-403 364.9,-391.45 375.64,-373.53 381.25,-363.01"/>
<polygon fill="#9a32cd" stroke="#9a32cd" points="329.17,-413.45 321.66,-420.92 332.19,-419.76 329.17,-413.45"/>
</a>
</g>
<text text-anchor="middle" x="408.5" y="-395" font-family="Helvetica,sans-Serif" font-size="10.00" fill="grey"> name</text>
<text text-anchor="middle" x="408.5" y="-384" font-family="Helvetica,sans-Serif" font-size="10.00" fill="grey">template_name</text>
</g>
<!-- Node6 -->
<g id="Node000006" class="node">
<title>Node6</title>
<g id="a_Node000006"><a xlink:title=" ">
<polygon fill="white" stroke="#666666" points="350.5,-507 246.5,-507 246.5,-477 350.5,-477 350.5,-507"/>
<text text-anchor="start" x="254.5" y="-495" font-family="Helvetica,sans-Serif" font-size="10.00">std::basic_string&lt;</text>
<text text-anchor="middle" x="298.5" y="-484" font-family="Helvetica,sans-Serif" font-size="10.00"> Char &gt;</text>
</a>
</g>
</g>
<!-- Node6&#45;&gt;Node5 -->
<g id="edge5_Node000005_Node000006" class="edge">
<title>Node6&#45;&gt;Node5</title>
<g id="a_edge5_Node000005_Node000006"><a xlink:title=" ">
<path fill="none" stroke="#63b8ff" d="M298.5,-466.79C298.5,-457.36 298.5,-447.15 298.5,-440.16"/>
<polygon fill="#63b8ff" stroke="#63b8ff" points="295,-466.9 298.5,-476.9 302,-466.9 295,-466.9"/>
</a>
</g>
</g>
<!-- Node7&#45;&gt;Node4 -->
<g id="edge6_Node000004_Node000007" class="edge">
<title>Node7&#45;&gt;Node4</title>
<g id="a_edge6_Node000004_Node000007"><a xlink:title=" ">
<path fill="none" stroke="#9a32cd" stroke-dasharray="5,2" d="M280.27,-276.53C270.91,-267.48 260.28,-255.25 254.5,-242 242.64,-214.82 243.51,-178.63 244.68,-162.23"/>
<polygon fill="#9a32cd" stroke="#9a32cd" points="277.96,-279.16 287.7,-283.33 282.69,-274 277.96,-279.16"/>
</a>
</g>
<text text-anchor="middle" x="288" y="-234" font-family="Helvetica,sans-Serif" font-size="10.00" fill="grey"> class_Ttypes</text>
<text text-anchor="middle" x="288" y="-223" font-family="Helvetica,sans-Serif" font-size="10.00" fill="grey">func_Ttypes</text>
</g>
<!-- Node8 -->
<g id="Node000008" class="node">
<title>Node8</title>
<g id="a_Node000008"><a xlink:title=" ">
<polygon fill="white" stroke="#666666" points="452.5,-240.5 330.5,-240.5 330.5,-221.5 452.5,-221.5 452.5,-240.5"/>
<text text-anchor="middle" x="391.5" y="-228.5" font-family="Helvetica,sans-Serif" font-size="10.00">std::vector&lt; Param &gt;</text>
</a>
</g>
</g>
<!-- Node8&#45;&gt;Node4 -->
<g id="edge8_Node000004_Node000008" class="edge">
<title>Node8&#45;&gt;Node4</title>
<g id="a_edge8_Node000004_Node000008"><a xlink:title=" ">
<path fill="none" stroke="#9a32cd" stroke-dasharray="5,2" d="M366.05,-216.67C336.19,-201.02 287.53,-175.52 262.13,-162.21"/>
<polygon fill="#9a32cd" stroke="#9a32cd" points="364.55,-219.83 375.04,-221.37 367.8,-213.63 364.55,-219.83"/>
</a>
</g>
<text text-anchor="middle" x="389.5" y="-194" font-family="Helvetica,sans-Serif" font-size="10.00" fill="grey"> nonresolved_params</text>
<text text-anchor="middle" x="389.5" y="-183" font-family="Helvetica,sans-Serif" font-size="10.00" fill="grey">params</text>
</g>
<!-- Node9&#45;&gt;Node8 -->
<g id="edge9_Node000008_Node000009" class="edge">
<title>Node9&#45;&gt;Node8</title>
<g id="a_edge9_Node000008_Node000009"><a xlink:title=" ">
<path fill="none" stroke="#9a32cd" stroke-dasharray="5,2" d="M386.44,-333.57C387.76,-307.03 390.11,-259.88 391.07,-240.59"/>
<polygon fill="#9a32cd" stroke="#9a32cd" points="382.93,-333.67 385.93,-343.83 389.92,-334.02 382.93,-333.67"/>
</a>
</g>
<text text-anchor="middle" x="414" y="-290.5" font-family="Helvetica,sans-Serif" font-size="10.00" fill="grey"> elements</text>
</g>
</g>
</svg>
