<?xml version="1.0" encoding="UTF-8" standalone="no"?>
<!DOCTYPE svg PUBLIC "-//W3C//DTD SVG 1.1//EN"
 "http://www.w3.org/Graphics/SVG/1.1/DTD/svg11.dtd">
<!-- Generated by graphviz version 2.43.0 (0)
 -->
<!-- Title: src/Callbacks/DeleteInstantiations.cpp Pages: 1 -->
<svg width="1317pt" height="159pt"
 viewBox="0.00 0.00 1316.50 159.00" xmlns="http://www.w3.org/2000/svg" xmlns:xlink="http://www.w3.org/1999/xlink">
<g id="graph0" class="graph" transform="scale(1 1) rotate(0) translate(4 155)">
<title>src/Callbacks/DeleteInstantiations.cpp</title>
<!-- Node1 -->
<g id="Node000001" class="node">
<title>Node1</title>
<g id="a_Node000001"><a xlink:title=" ">
<polygon fill="#999999" stroke="#666666" points="736.5,-151 533.5,-151 533.5,-132 736.5,-132 736.5,-151"/>
<text text-anchor="middle" x="635" y="-139" font-family="Helvetica,sans-Serif" font-size="10.00">src/Callbacks/DeleteInstantiations.cpp</text>
</a>
</g>
</g>
<!-- Node2 -->
<g id="Node000002" class="node">
<title>Node2</title>
<g id="a_Node000002"><a xlink:title=" ">
<polygon fill="#e0e0e0" stroke="#999999" points="158,-90.5 0,-90.5 0,-71.5 158,-71.5 158,-90.5"/>
<text text-anchor="middle" x="79" y="-78.5" font-family="Helvetica,sans-Serif" font-size="10.00">clang/Basic/SourceLocation.h</text>
</a>
</g>
</g>
<!-- Node1&#45;&gt;Node2 -->
<g id="edge1_Node000001_Node000002" class="edge">
<title>Node1&#45;&gt;Node2</title>
<g id="a_edge1_Node000001_Node000002"><a xlink:title=" ">
<path fill="none" stroke="#63b8ff" d="M533.23,-132.6C438.49,-124.82 293.45,-111.83 168,-96 158.88,-94.85 149.26,-93.49 139.85,-92.08"/>
<polygon fill="#63b8ff" stroke="#63b8ff" points="140.17,-88.59 129.75,-90.53 139.11,-95.5 140.17,-88.59"/>
</a>
</g>
</g>
<!-- Node3 -->
<g id="Node000003" class="node">
<title>Node3</title>
<g id="a_Node000003"><a xlink:title=" ">
<polygon fill="#e0e0e0" stroke="#999999" points="315.5,-90.5 176.5,-90.5 176.5,-71.5 315.5,-71.5 315.5,-90.5"/>
<text text-anchor="middle" x="246" y="-78.5" font-family="Helvetica,sans-Serif" font-size="10.00">clang/Basic/TokenKinds.h</text>
</a>
</g>
</g>
<!-- Node1&#45;&gt;Node3 -->
<g id="edge2_Node000001_Node000003" class="edge">
<title>Node1&#45;&gt;Node3</title>
<g id="a_edge2_Node000001_Node000003"><a xlink:title=" ">
<path fill="none" stroke="#63b8ff" d="M571.38,-131.99C508.65,-123.45 410.09,-109.64 325,-96 317.81,-94.85 310.27,-93.58 302.81,-92.3"/>
<polygon fill="#63b8ff" stroke="#63b8ff" points="303.2,-88.81 292.74,-90.55 301.99,-95.71 303.2,-88.81"/>
</a>
</g>
</g>
<!-- Node4 -->
<g id="Node000004" class="node">
<title>Node4</title>
<g id="a_Node000004"><a xlink:title=" ">
<polygon fill="#e0e0e0" stroke="#999999" points="364.5,-90.5 333.5,-90.5 333.5,-71.5 364.5,-71.5 364.5,-90.5"/>
<text text-anchor="middle" x="349" y="-78.5" font-family="Helvetica,sans-Serif" font-size="10.00">ios</text>
</a>
</g>
</g>
<!-- Node1&#45;&gt;Node4 -->
<g id="edge3_Node000001_Node000004" class="edge">
<title>Node1&#45;&gt;Node4</title>
<g id="a_edge3_Node000001_Node000004"><a xlink:title=" ">
<path fill="none" stroke="#63b8ff" d="M538.17,-131.97C488.12,-125.58 426.66,-114.61 374,-96 373.14,-95.7 372.27,-95.36 371.4,-95.01"/>
<polygon fill="#63b8ff" stroke="#63b8ff" points="372.88,-91.83 362.36,-90.58 369.8,-98.12 372.88,-91.83"/>
</a>
</g>
</g>
<!-- Node5 -->
<g id="Node000005" class="node">
<title>Node5</title>
<g id="a_Node000005"><a xlink:title=" ">
<polygon fill="#e0e0e0" stroke="#999999" points="443,-90.5 383,-90.5 383,-71.5 443,-71.5 443,-90.5"/>
<text text-anchor="middle" x="413" y="-78.5" font-family="Helvetica,sans-Serif" font-size="10.00">iostream</text>
</a>
</g>
</g>
<!-- Node1&#45;&gt;Node5 -->
<g id="edge4_Node000001_Node000005" class="edge">
<title>Node1&#45;&gt;Node5</title>
<g id="a_edge4_Node000001_Node000005"><a xlink:title=" ">
<path fill="none" stroke="#63b8ff" d="M595.3,-131.96C558.23,-123.71 501.49,-110.38 453,-96 450.59,-95.29 448.12,-94.51 445.63,-93.71"/>
<polygon fill="#63b8ff" stroke="#63b8ff" points="446.74,-90.39 436.14,-90.53 444.51,-97.03 446.74,-90.39"/>
</a>
</g>
</g>
<!-- Node6 -->
<g id="Node000006" class="node">
<title>Node6</title>
<g id="a_Node000006"><a xlink:href="DeleteInstantiations_8hpp.html" target="_top" xlink:title=" ">
<polygon fill="white" stroke="#666666" points="648.5,-90.5 461.5,-90.5 461.5,-71.5 648.5,-71.5 648.5,-90.5"/>
<text text-anchor="middle" x="555" y="-78.5" font-family="Helvetica,sans-Serif" font-size="10.00">Callbacks/DeleteInstantiations.hpp</text>
</a>
</g>
</g>
<!-- Node1&#45;&gt;Node6 -->
<g id="edge5_Node000001_Node000006" class="edge">
<title>Node1&#45;&gt;Node6</title>
<g id="a_edge5_Node000001_Node000006"><a xlink:title=" ">
<path fill="none" stroke="#63b8ff" d="M623.2,-131.87C610.55,-122.62 590.26,-107.78 575.09,-96.69"/>
<polygon fill="#63b8ff" stroke="#63b8ff" points="576.99,-93.74 566.85,-90.67 572.86,-99.4 576.99,-93.74"/>
</a>
</g>
</g>
<!-- Node8 -->
<g id="Node000008" class="node">
<title>Node8</title>
<g id="a_Node000008"><a xlink:title=" ">
<polygon fill="#e0e0e0" stroke="#999999" points="764,-90.5 666,-90.5 666,-71.5 764,-71.5 764,-90.5"/>
<text text-anchor="middle" x="715" y="-78.5" font-family="Helvetica,sans-Serif" font-size="10.00">clang/AST/Decl.h</text>
</a>
</g>
</g>
<!-- Node1&#45;&gt;Node8 -->
<g id="edge7_Node000001_Node000008" class="edge">
<title>Node1&#45;&gt;Node8</title>
<g id="a_edge7_Node000001_Node000008"><a xlink:title=" ">
<path fill="none" stroke="#63b8ff" d="M646.8,-131.87C659.45,-122.62 679.74,-107.78 694.91,-96.69"/>
<polygon fill="#63b8ff" stroke="#63b8ff" points="697.14,-99.4 703.15,-90.67 693.01,-93.74 697.14,-99.4"/>
</a>
</g>
</g>
<!-- Node9 -->
<g id="Node000009" class="node">
<title>Node9</title>
<g id="a_Node000009"><a xlink:title=" ">
<polygon fill="#e0e0e0" stroke="#999999" points="901.5,-90.5 782.5,-90.5 782.5,-71.5 901.5,-71.5 901.5,-90.5"/>
<text text-anchor="middle" x="842" y="-78.5" font-family="Helvetica,sans-Serif" font-size="10.00">clang/AST/DeclCXX.h</text>
</a>
</g>
</g>
<!-- Node1&#45;&gt;Node9 -->
<g id="edge8_Node000001_Node000009" class="edge">
<title>Node1&#45;&gt;Node9</title>
<g id="a_edge8_Node000001_Node000009"><a xlink:title=" ">
<path fill="none" stroke="#63b8ff" d="M665.1,-131.99C701.28,-121.77 762.11,-104.58 802.16,-93.26"/>
<polygon fill="#63b8ff" stroke="#63b8ff" points="803.19,-96.6 811.86,-90.52 801.29,-89.87 803.19,-96.6"/>
</a>
</g>
</g>
<!-- Node10 -->
<g id="Node000010" class="node">
<title>Node10</title>
<g id="a_Node000010"><a xlink:title=" ">
<polygon fill="#e0e0e0" stroke="#999999" points="1062.5,-90.5 919.5,-90.5 919.5,-71.5 1062.5,-71.5 1062.5,-90.5"/>
<text text-anchor="middle" x="991" y="-78.5" font-family="Helvetica,sans-Serif" font-size="10.00">clang/AST/DeclTemplate.h</text>
</a>
</g>
</g>
<!-- Node1&#45;&gt;Node10 -->
<g id="edge9_Node000001_Node000010" class="edge">
<title>Node1&#45;&gt;Node10</title>
<g id="a_edge9_Node000001_Node000010"><a xlink:title=" ">
<path fill="none" stroke="#63b8ff" d="M689.24,-131.97C744.92,-123.17 834.06,-108.93 911,-96 918.07,-94.81 925.5,-93.54 932.85,-92.27"/>
<polygon fill="#63b8ff" stroke="#63b8ff" points="933.54,-95.7 942.79,-90.54 932.34,-88.81 933.54,-95.7"/>
</a>
</g>
</g>
<!-- Node11 -->
<g id="Node000011" class="node">
<title>Node11</title>
<g id="a_Node000011"><a xlink:title=" ">
<polygon fill="#e0e0e0" stroke="#999999" points="1181.5,-90.5 1080.5,-90.5 1080.5,-71.5 1181.5,-71.5 1181.5,-90.5"/>
<text text-anchor="middle" x="1131" y="-78.5" font-family="Helvetica,sans-Serif" font-size="10.00">clang/Lex/Lexer.h</text>
</a>
</g>
</g>
<!-- Node1&#45;&gt;Node11 -->
<g id="edge10_Node000001_Node000011" class="edge">
<title>Node1&#45;&gt;Node11</title>
<g id="a_edge10_Node000001_Node000011"><a xlink:title=" ">
<path fill="none" stroke="#63b8ff" d="M736.61,-133.95C825.51,-127.32 957.89,-115.26 1072,-96 1077.38,-95.09 1083.01,-93.98 1088.56,-92.77"/>
<polygon fill="#63b8ff" stroke="#63b8ff" points="1089.41,-96.17 1098.39,-90.55 1087.86,-89.34 1089.41,-96.17"/>
</a>
</g>
</g>
<!-- Node12 -->
<g id="Node000012" class="node">
<title>Node12</title>
<g id="a_Node000012"><a xlink:title=" ">
<polygon fill="#e0e0e0" stroke="#999999" points="1308.5,-96 1199.5,-96 1199.5,-66 1308.5,-66 1308.5,-96"/>
<text text-anchor="start" x="1207.5" y="-84" font-family="Helvetica,sans-Serif" font-size="10.00">clang/Rewrite/Core</text>
<text text-anchor="middle" x="1254" y="-73" font-family="Helvetica,sans-Serif" font-size="10.00">/Rewriter.h</text>
</a>
</g>
</g>
<!-- Node1&#45;&gt;Node12 -->
<g id="edge11_Node000001_Node000012" class="edge">
<title>Node1&#45;&gt;Node12</title>
<g id="a_edge11_Node000001_Node000012"><a xlink:title=" ">
<path fill="none" stroke="#63b8ff" d="M736.69,-136.6C846.24,-131.43 1025.81,-120.18 1189.21,-96.14"/>
<polygon fill="#63b8ff" stroke="#63b8ff" points="1190.08,-99.54 1199.45,-94.61 1189.04,-92.62 1190.08,-99.54"/>
</a>
</g>
</g>
<!-- Node7 -->
<g id="Node000007" class="node">
<title>Node7</title>
<g id="a_Node000007"><a xlink:title=" ">
<polygon fill="#e0e0e0" stroke="#999999" points="635.5,-30 474.5,-30 474.5,0 635.5,0 635.5,-30"/>
<text text-anchor="start" x="482.5" y="-18" font-family="Helvetica,sans-Serif" font-size="10.00">clang/ASTMatchers/ASTMatch</text>
<text text-anchor="middle" x="555" y="-7" font-family="Helvetica,sans-Serif" font-size="10.00">Finder.h</text>
</a>
</g>
</g>
<!-- Node6&#45;&gt;Node7 -->
<g id="edge6_Node000006_Node000007" class="edge">
<title>Node6&#45;&gt;Node7</title>
<g id="a_edge6_Node000006_Node000007"><a xlink:title=" ">
<path fill="none" stroke="#63b8ff" d="M555,-71.37C555,-63.49 555,-51.45 555,-40.6"/>
<polygon fill="#63b8ff" stroke="#63b8ff" points="558.5,-40.36 555,-30.36 551.5,-40.36 558.5,-40.36"/>
</a>
</g>
</g>
</g>
</svg>
