<?xml version="1.0" encoding="UTF-8" standalone="no"?>
<!DOCTYPE svg PUBLIC "-//W3C//DTD SVG 1.1//EN"
 "http://www.w3.org/Graphics/SVG/1.1/DTD/svg11.dtd">
<!-- Generated by graphviz version 2.43.0 (0)
 -->
<!-- Title: src/Callbacks/DeleteInstantiations.cpp Pages: 1 -->
<svg width="1268pt" height="159pt"
 viewBox="0.00 0.00 1267.50 159.00" xmlns="http://www.w3.org/2000/svg" xmlns:xlink="http://www.w3.org/1999/xlink">
<g id="graph0" class="graph" transform="scale(1 1) rotate(0) translate(4 155)">
<title>src/Callbacks/DeleteInstantiations.cpp</title>
<!-- Node1 -->
<g id="Node000001" class="node">
<title>Node1</title>
<g id="a_Node000001"><a xlink:title=" ">
<polygon fill="#999999" stroke="#666666" points="771,-151 568,-151 568,-132 771,-132 771,-151"/>
<text text-anchor="middle" x="669.5" y="-139" font-family="Helvetica,sans-Serif" font-size="10.00">src/Callbacks/DeleteInstantiations.cpp</text>
</a>
</g>
</g>
<!-- Node2 -->
<g id="Node000002" class="node">
<title>Node2</title>
<g id="a_Node000002"><a xlink:href="DeleteInstantiations_8hpp.html" target="_top" xlink:title=" ">
<polygon fill="white" stroke="#666666" points="187,-90.5 0,-90.5 0,-71.5 187,-71.5 187,-90.5"/>
<text text-anchor="middle" x="93.5" y="-78.5" font-family="Helvetica,sans-Serif" font-size="10.00">Callbacks/DeleteInstantiations.hpp</text>
</a>
</g>
</g>
<!-- Node1&#45;&gt;Node2 -->
<g id="edge1_Node000001_Node000002" class="edge">
<title>Node1&#45;&gt;Node2</title>
<g id="a_edge1_Node000001_Node000002"><a xlink:title=" ">
<path fill="none" stroke="#63b8ff" d="M567.66,-132.21C471.58,-124.08 323.59,-110.8 195.5,-96 184.83,-94.77 173.55,-93.34 162.53,-91.88"/>
<polygon fill="#63b8ff" stroke="#63b8ff" points="162.88,-88.4 152.51,-90.54 161.95,-95.34 162.88,-88.4"/>
</a>
</g>
</g>
<!-- Node4 -->
<g id="Node000004" class="node">
<title>Node4</title>
<g id="a_Node000004"><a xlink:title=" ">
<polygon fill="#e0e0e0" stroke="#999999" points="302.5,-90.5 204.5,-90.5 204.5,-71.5 302.5,-71.5 302.5,-90.5"/>
<text text-anchor="middle" x="253.5" y="-78.5" font-family="Helvetica,sans-Serif" font-size="10.00">clang/AST/Decl.h</text>
</a>
</g>
</g>
<!-- Node1&#45;&gt;Node4 -->
<g id="edge3_Node000001_Node000004" class="edge">
<title>Node1&#45;&gt;Node4</title>
<g id="a_edge3_Node000001_Node000004"><a xlink:title=" ">
<path fill="none" stroke="#63b8ff" d="M579.22,-132C506.8,-124.51 402.7,-112.27 312.5,-96 307.39,-95.08 302.05,-93.99 296.77,-92.84"/>
<polygon fill="#63b8ff" stroke="#63b8ff" points="297.28,-89.36 286.75,-90.56 295.73,-96.19 297.28,-89.36"/>
</a>
</g>
</g>
<!-- Node5 -->
<g id="Node000005" class="node">
<title>Node5</title>
<g id="a_Node000005"><a xlink:title=" ">
<polygon fill="#e0e0e0" stroke="#999999" points="440,-90.5 321,-90.5 321,-71.5 440,-71.5 440,-90.5"/>
<text text-anchor="middle" x="380.5" y="-78.5" font-family="Helvetica,sans-Serif" font-size="10.00">clang/AST/DeclCXX.h</text>
</a>
</g>
</g>
<!-- Node1&#45;&gt;Node5 -->
<g id="edge4_Node000001_Node000005" class="edge">
<title>Node1&#45;&gt;Node5</title>
<g id="a_edge4_Node000001_Node000005"><a xlink:title=" ">
<path fill="none" stroke="#63b8ff" d="M627.32,-131.98C583.04,-123.02 511.37,-108.53 449.5,-96 444.03,-94.89 438.32,-93.74 432.63,-92.58"/>
<polygon fill="#63b8ff" stroke="#63b8ff" points="432.96,-89.08 422.46,-90.52 431.57,-95.94 432.96,-89.08"/>
</a>
</g>
</g>
<!-- Node6 -->
<g id="Node000006" class="node">
<title>Node6</title>
<g id="a_Node000006"><a xlink:title=" ">
<polygon fill="#e0e0e0" stroke="#999999" points="601,-90.5 458,-90.5 458,-71.5 601,-71.5 601,-90.5"/>
<text text-anchor="middle" x="529.5" y="-78.5" font-family="Helvetica,sans-Serif" font-size="10.00">clang/AST/DeclTemplate.h</text>
</a>
</g>
</g>
<!-- Node1&#45;&gt;Node6 -->
<g id="edge5_Node000001_Node000006" class="edge">
<title>Node1&#45;&gt;Node6</title>
<g id="a_edge5_Node000001_Node000006"><a xlink:title=" ">
<path fill="none" stroke="#63b8ff" d="M649.14,-131.99C625.5,-122.12 586.3,-105.73 559.25,-94.43"/>
<polygon fill="#63b8ff" stroke="#63b8ff" points="560.46,-91.14 549.88,-90.52 557.76,-97.6 560.46,-91.14"/>
</a>
</g>
</g>
<!-- Node7 -->
<g id="Node000007" class="node">
<title>Node7</title>
<g id="a_Node000007"><a xlink:title=" ">
<polygon fill="#e0e0e0" stroke="#999999" points="720,-90.5 619,-90.5 619,-71.5 720,-71.5 720,-90.5"/>
<text text-anchor="middle" x="669.5" y="-78.5" font-family="Helvetica,sans-Serif" font-size="10.00">clang/Lex/Lexer.h</text>
</a>
</g>
</g>
<!-- Node1&#45;&gt;Node7 -->
<g id="edge6_Node000001_Node000007" class="edge">
<title>Node1&#45;&gt;Node7</title>
<g id="a_edge6_Node000001_Node000007"><a xlink:title=" ">
<path fill="none" stroke="#63b8ff" d="M669.5,-131.87C669.5,-123.75 669.5,-111.31 669.5,-100.89"/>
<polygon fill="#63b8ff" stroke="#63b8ff" points="673,-100.67 669.5,-90.67 666,-100.67 673,-100.67"/>
</a>
</g>
</g>
<!-- Node8 -->
<g id="Node000008" class="node">
<title>Node8</title>
<g id="a_Node000008"><a xlink:title=" ">
<polygon fill="#e0e0e0" stroke="#999999" points="847,-96 738,-96 738,-66 847,-66 847,-96"/>
<text text-anchor="start" x="746" y="-84" font-family="Helvetica,sans-Serif" font-size="10.00">clang/Rewrite/Core</text>
<text text-anchor="middle" x="792.5" y="-73" font-family="Helvetica,sans-Serif" font-size="10.00">/Rewriter.h</text>
</a>
</g>
</g>
<!-- Node1&#45;&gt;Node8 -->
<g id="edge7_Node000001_Node000008" class="edge">
<title>Node1&#45;&gt;Node8</title>
<g id="a_edge7_Node000001_Node000008"><a xlink:title=" ">
<path fill="none" stroke="#63b8ff" d="M687.39,-131.99C704.64,-123.79 731.34,-111.09 753.51,-100.55"/>
<polygon fill="#63b8ff" stroke="#63b8ff" points="755.16,-103.63 762.69,-96.18 752.16,-97.31 755.16,-103.63"/>
</a>
</g>
</g>
<!-- Node9 -->
<g id="Node000009" class="node">
<title>Node9</title>
<g id="a_Node000009"><a xlink:title=" ">
<polygon fill="#e0e0e0" stroke="#999999" points="1023.5,-90.5 865.5,-90.5 865.5,-71.5 1023.5,-71.5 1023.5,-90.5"/>
<text text-anchor="middle" x="944.5" y="-78.5" font-family="Helvetica,sans-Serif" font-size="10.00">clang/Basic/SourceLocation.h</text>
</a>
</g>
</g>
<!-- Node1&#45;&gt;Node9 -->
<g id="edge8_Node000001_Node000009" class="edge">
<title>Node1&#45;&gt;Node9</title>
<g id="a_edge8_Node000001_Node000009"><a xlink:title=" ">
<path fill="none" stroke="#63b8ff" d="M709.49,-131.99C758.47,-121.57 841.46,-103.92 894.58,-92.62"/>
<polygon fill="#63b8ff" stroke="#63b8ff" points="895.41,-96.02 904.46,-90.52 893.95,-89.17 895.41,-96.02"/>
</a>
</g>
</g>
<!-- Node10 -->
<g id="Node000010" class="node">
<title>Node10</title>
<g id="a_Node000010"><a xlink:title=" ">
<polygon fill="#e0e0e0" stroke="#999999" points="1181,-90.5 1042,-90.5 1042,-71.5 1181,-71.5 1181,-90.5"/>
<text text-anchor="middle" x="1111.5" y="-78.5" font-family="Helvetica,sans-Serif" font-size="10.00">clang/Basic/TokenKinds.h</text>
</a>
</g>
</g>
<!-- Node1&#45;&gt;Node10 -->
<g id="edge9_Node000001_Node000010" class="edge">
<title>Node1&#45;&gt;Node10</title>
<g id="a_edge9_Node000001_Node000010"><a xlink:title=" ">
<path fill="none" stroke="#63b8ff" d="M748.98,-131.99C822.63,-123.82 935.17,-110.58 1032.5,-96 1039.97,-94.88 1047.82,-93.61 1055.56,-92.3"/>
<polygon fill="#63b8ff" stroke="#63b8ff" points="1056.36,-95.71 1065.62,-90.56 1055.17,-88.81 1056.36,-95.71"/>
</a>
</g>
</g>
<!-- Node11 -->
<g id="Node000011" class="node">
<title>Node11</title>
<g id="a_Node000011"><a xlink:title=" ">
<polygon fill="#e0e0e0" stroke="#999999" points="1259.5,-90.5 1199.5,-90.5 1199.5,-71.5 1259.5,-71.5 1259.5,-90.5"/>
<text text-anchor="middle" x="1229.5" y="-78.5" font-family="Helvetica,sans-Serif" font-size="10.00">iostream</text>
</a>
</g>
</g>
<!-- Node1&#45;&gt;Node11 -->
<g id="edge10_Node000001_Node000011" class="edge">
<title>Node1&#45;&gt;Node11</title>
<g id="a_edge10_Node000001_Node000011"><a xlink:title=" ">
<path fill="none" stroke="#63b8ff" d="M771.02,-139.58C876.87,-136.82 1047.04,-127.32 1190.5,-96 1193.33,-95.38 1196.24,-94.61 1199.13,-93.75"/>
<polygon fill="#63b8ff" stroke="#63b8ff" points="1200.35,-97.04 1208.74,-90.58 1198.15,-90.39 1200.35,-97.04"/>
</a>
</g>
</g>
<!-- Node3 -->
<g id="Node000003" class="node">
<title>Node3</title>
<g id="a_Node000003"><a xlink:title=" ">
<polygon fill="#e0e0e0" stroke="#999999" points="174,-30 13,-30 13,0 174,0 174,-30"/>
<text text-anchor="start" x="21" y="-18" font-family="Helvetica,sans-Serif" font-size="10.00">clang/ASTMatchers/ASTMatch</text>
<text text-anchor="middle" x="93.5" y="-7" font-family="Helvetica,sans-Serif" font-size="10.00">Finder.h</text>
</a>
</g>
</g>
<!-- Node2&#45;&gt;Node3 -->
<g id="edge2_Node000002_Node000003" class="edge">
<title>Node2&#45;&gt;Node3</title>
<g id="a_edge2_Node000002_Node000003"><a xlink:title=" ">
<path fill="none" stroke="#63b8ff" d="M93.5,-71.37C93.5,-63.49 93.5,-51.45 93.5,-40.6"/>
<polygon fill="#63b8ff" stroke="#63b8ff" points="97,-40.36 93.5,-30.36 90,-40.36 97,-40.36"/>
</a>
</g>
</g>
</g>
</svg>
