<?xml version="1.0" encoding="UTF-8" standalone="no"?>
<!DOCTYPE svg PUBLIC "-//W3C//DTD SVG 1.1//EN"
 "http://www.w3.org/Graphics/SVG/1.1/DTD/svg11.dtd">
<!-- Generated by graphviz version 2.43.0 (0)
 -->
<!-- Title: src/Callbacks/DeleteInstantiations.cpp Pages: 1 -->
<svg width="736pt" height="162pt"
 viewBox="0.00 0.00 736.00 162.00" xmlns="http://www.w3.org/2000/svg" xmlns:xlink="http://www.w3.org/1999/xlink">
<g id="graph0" class="graph" transform="scale(1 1) rotate(0) translate(4 158)">
<title>src/Callbacks/DeleteInstantiations.cpp</title>
<!-- Node1 -->
<g id="node1" class="node">
<title>Node1</title>
<g id="a_node1"><a xlink:title=" ">
<polygon fill="#bfbfbf" stroke="black" points="279,-134.5 279,-153.5 482,-153.5 482,-134.5 279,-134.5"/>
<text text-anchor="middle" x="380.5" y="-141.5" font-family="Helvetica,sans-Serif" font-size="10.00">src/Callbacks/DeleteInstantiations.cpp</text>
</a>
</g>
</g>
<!-- Node2 -->
<g id="node2" class="node">
<title>Node2</title>
<g id="a_node2"><a xlink:href="DeleteInstantiations_8hpp.html" target="_top" xlink:title=" ">
<polygon fill="none" stroke="black" points="0,-73 0,-92 187,-92 187,-73 0,-73"/>
<text text-anchor="middle" x="93.5" y="-80" font-family="Helvetica,sans-Serif" font-size="10.00">Callbacks/DeleteInstantiations.hpp</text>
</a>
</g>
</g>
<!-- Node1&#45;&gt;Node2 -->
<g id="edge1" class="edge">
<title>Node1&#45;&gt;Node2</title>
<path fill="none" stroke="midnightblue" d="M339.38,-134.48C288.02,-123.83 200.14,-105.61 144.54,-94.08"/>
<polygon fill="midnightblue" stroke="midnightblue" points="145.05,-90.61 134.54,-92.01 143.63,-97.47 145.05,-90.61"/>
</g>
<!-- Node4 -->
<g id="node4" class="node">
<title>Node4</title>
<g id="a_node4"><a xlink:title=" ">
<polygon fill="none" stroke="#bfbfbf" points="204.5,-73 204.5,-92 302.5,-92 302.5,-73 204.5,-73"/>
<text text-anchor="middle" x="253.5" y="-80" font-family="Helvetica,sans-Serif" font-size="10.00">clang/AST/Decl.h</text>
</a>
</g>
</g>
<!-- Node1&#45;&gt;Node4 -->
<g id="edge3" class="edge">
<title>Node1&#45;&gt;Node4</title>
<path fill="none" stroke="midnightblue" d="M362.3,-134.48C340.99,-124.49 305.47,-107.85 280.84,-96.31"/>
<polygon fill="midnightblue" stroke="midnightblue" points="282.2,-93.08 271.66,-92.01 279.23,-99.42 282.2,-93.08"/>
</g>
<!-- Node5 -->
<g id="node5" class="node">
<title>Node5</title>
<g id="a_node5"><a xlink:title=" ">
<polygon fill="none" stroke="#bfbfbf" points="321,-73 321,-92 440,-92 440,-73 321,-73"/>
<text text-anchor="middle" x="380.5" y="-80" font-family="Helvetica,sans-Serif" font-size="10.00">clang/AST/DeclCXX.h</text>
</a>
</g>
</g>
<!-- Node1&#45;&gt;Node5 -->
<g id="edge4" class="edge">
<title>Node1&#45;&gt;Node5</title>
<path fill="none" stroke="midnightblue" d="M380.5,-134.48C380.5,-126.08 380.5,-112.98 380.5,-102.16"/>
<polygon fill="midnightblue" stroke="midnightblue" points="384,-102.01 380.5,-92.01 377,-102.01 384,-102.01"/>
</g>
<!-- Node6 -->
<g id="node6" class="node">
<title>Node6</title>
<g id="a_node6"><a xlink:title=" ">
<polygon fill="none" stroke="#bfbfbf" points="458,-73 458,-92 601,-92 601,-73 458,-73"/>
<text text-anchor="middle" x="529.5" y="-80" font-family="Helvetica,sans-Serif" font-size="10.00">clang/AST/DeclTemplate.h</text>
</a>
</g>
</g>
<!-- Node1&#45;&gt;Node6 -->
<g id="edge5" class="edge">
<title>Node1&#45;&gt;Node6</title>
<path fill="none" stroke="midnightblue" d="M401.85,-134.48C427.19,-124.36 469.64,-107.4 498.57,-95.85"/>
<polygon fill="midnightblue" stroke="midnightblue" points="500.2,-98.97 508.19,-92.01 497.61,-92.47 500.2,-98.97"/>
</g>
<!-- Node7 -->
<g id="node7" class="node">
<title>Node7</title>
<g id="a_node7"><a xlink:title=" ">
<polygon fill="none" stroke="#bfbfbf" points="619,-67.5 619,-97.5 728,-97.5 728,-67.5 619,-67.5"/>
<text text-anchor="start" x="627" y="-85.5" font-family="Helvetica,sans-Serif" font-size="10.00">clang/Rewrite/Core</text>
<text text-anchor="middle" x="673.5" y="-74.5" font-family="Helvetica,sans-Serif" font-size="10.00">/Rewriter.h</text>
</a>
</g>
</g>
<!-- Node1&#45;&gt;Node7 -->
<g id="edge6" class="edge">
<title>Node1&#45;&gt;Node7</title>
<path fill="none" stroke="midnightblue" d="M426.41,-134.48C470.72,-126.15 539.96,-112.87 608.75,-98.34"/>
<polygon fill="midnightblue" stroke="midnightblue" points="609.83,-101.69 618.89,-96.19 608.38,-94.84 609.83,-101.69"/>
</g>
<!-- Node3 -->
<g id="node3" class="node">
<title>Node3</title>
<g id="a_node3"><a xlink:title=" ">
<polygon fill="none" stroke="#bfbfbf" points="13,-0.5 13,-30.5 174,-30.5 174,-0.5 13,-0.5"/>
<text text-anchor="start" x="21" y="-18.5" font-family="Helvetica,sans-Serif" font-size="10.00">clang/ASTMatchers/ASTMatch</text>
<text text-anchor="middle" x="93.5" y="-7.5" font-family="Helvetica,sans-Serif" font-size="10.00">Finder.h</text>
</a>
</g>
</g>
<!-- Node2&#45;&gt;Node3 -->
<g id="edge2" class="edge">
<title>Node2&#45;&gt;Node3</title>
<path fill="none" stroke="midnightblue" d="M93.5,-72.73C93.5,-64.54 93.5,-51.92 93.5,-40.71"/>
<polygon fill="midnightblue" stroke="midnightblue" points="97,-40.59 93.5,-30.59 90,-40.59 97,-40.59"/>
</g>
</g>
</svg>
