<?xml version="1.0" encoding="UTF-8" standalone="no"?>
<!DOCTYPE svg PUBLIC "-//W3C//DTD SVG 1.1//EN"
 "http://www.w3.org/Graphics/SVG/1.1/DTD/svg11.dtd">
<!-- Generated by graphviz version 2.43.0 (0)
 -->
<!-- Title: src/Callbacks/DeleteInstantiations.cpp Pages: 1 -->
<svg width="1379pt" height="159pt"
 viewBox="0.00 0.00 1379.00 159.00" xmlns="http://www.w3.org/2000/svg" xmlns:xlink="http://www.w3.org/1999/xlink">
<g id="graph0" class="graph" transform="scale(1 1) rotate(0) translate(4 155)">
<title>src/Callbacks/DeleteInstantiations.cpp</title>
<!-- Node1 -->
<g id="Node000001" class="node">
<title>Node1</title>
<g id="a_Node000001"><a xlink:title=" ">
<polygon fill="#999999" stroke="#666666" points="746,-151 543,-151 543,-132 746,-132 746,-151"/>
<text text-anchor="middle" x="644.5" y="-139" font-family="Helvetica,sans-Serif" font-size="10.00">src/Callbacks/DeleteInstantiations.cpp</text>
</a>
</g>
</g>
<!-- Node2 -->
<g id="Node000002" class="node">
<title>Node2</title>
<g id="a_Node000002"><a xlink:href="DeleteInstantiations_8hpp.html" target="_top" xlink:title=" ">
<polygon fill="white" stroke="#666666" points="187,-90.5 0,-90.5 0,-71.5 187,-71.5 187,-90.5"/>
<text text-anchor="middle" x="93.5" y="-78.5" font-family="Helvetica,sans-Serif" font-size="10.00">Callbacks/DeleteInstantiations.hpp</text>
</a>
</g>
</g>
<!-- Node1&#45;&gt;Node2 -->
<g id="edge1_Node000001_Node000002" class="edge">
<title>Node1&#45;&gt;Node2</title>
<g id="a_edge1_Node000001_Node000002"><a xlink:title=" ">
<path fill="none" stroke="#63b8ff" d="M548.04,-132C457.04,-123.73 316.86,-110.34 195.5,-96 184.9,-94.75 173.69,-93.32 162.74,-91.86"/>
<polygon fill="#63b8ff" stroke="#63b8ff" points="163.16,-88.39 152.78,-90.52 162.23,-95.32 163.16,-88.39"/>
</a>
</g>
</g>
<!-- Node4 -->
<g id="Node000004" class="node">
<title>Node4</title>
<g id="a_Node000004"><a xlink:title=" ">
<polygon fill="#e0e0e0" stroke="#999999" points="264.5,-90.5 204.5,-90.5 204.5,-71.5 264.5,-71.5 264.5,-90.5"/>
<text text-anchor="middle" x="234.5" y="-78.5" font-family="Helvetica,sans-Serif" font-size="10.00">iostream</text>
</a>
</g>
</g>
<!-- Node1&#45;&gt;Node4 -->
<g id="edge3_Node000001_Node000004" class="edge">
<title>Node1&#45;&gt;Node4</title>
<g id="a_edge3_Node000001_Node000004"><a xlink:title=" ">
<path fill="none" stroke="#63b8ff" d="M542.97,-134.25C468.04,-128.2 363.99,-116.78 274.5,-96 271.68,-95.34 268.78,-94.56 265.89,-93.7"/>
<polygon fill="#63b8ff" stroke="#63b8ff" points="266.85,-90.33 256.25,-90.57 264.69,-96.99 266.85,-90.33"/>
</a>
</g>
</g>
<!-- Node5 -->
<g id="Node000005" class="node">
<title>Node5</title>
<g id="a_Node000005"><a xlink:title=" ">
<polygon fill="#e0e0e0" stroke="#999999" points="376,-90.5 283,-90.5 283,-71.5 376,-71.5 376,-90.5"/>
<text text-anchor="middle" x="329.5" y="-78.5" font-family="Helvetica,sans-Serif" font-size="10.00">spdlog/spdlog.h</text>
</a>
</g>
</g>
<!-- Node1&#45;&gt;Node5 -->
<g id="edge4_Node000001_Node000005" class="edge">
<title>Node1&#45;&gt;Node5</title>
<g id="a_edge4_Node000001_Node000005"><a xlink:title=" ">
<path fill="none" stroke="#63b8ff" d="M587.68,-131.99C535.05,-123.81 454.7,-110.57 385.5,-96 381.08,-95.07 376.48,-94.03 371.9,-92.95"/>
<polygon fill="#63b8ff" stroke="#63b8ff" points="372.52,-89.5 361.98,-90.56 370.88,-96.31 372.52,-89.5"/>
</a>
</g>
</g>
<!-- Node6 -->
<g id="Node000006" class="node">
<title>Node6</title>
<g id="a_Node000006"><a xlink:title=" ">
<polygon fill="#e0e0e0" stroke="#999999" points="492.5,-90.5 394.5,-90.5 394.5,-71.5 492.5,-71.5 492.5,-90.5"/>
<text text-anchor="middle" x="443.5" y="-78.5" font-family="Helvetica,sans-Serif" font-size="10.00">clang/AST/Decl.h</text>
</a>
</g>
</g>
<!-- Node1&#45;&gt;Node6 -->
<g id="edge5_Node000001_Node000006" class="edge">
<title>Node1&#45;&gt;Node6</title>
<g id="a_edge5_Node000001_Node000006"><a xlink:title=" ">
<path fill="none" stroke="#63b8ff" d="M615.27,-131.99C580.29,-121.81 521.57,-104.72 482.68,-93.4"/>
<polygon fill="#63b8ff" stroke="#63b8ff" points="483.34,-89.95 472.76,-90.52 481.39,-96.67 483.34,-89.95"/>
</a>
</g>
</g>
<!-- Node7 -->
<g id="Node000007" class="node">
<title>Node7</title>
<g id="a_Node000007"><a xlink:title=" ">
<polygon fill="#e0e0e0" stroke="#999999" points="630,-90.5 511,-90.5 511,-71.5 630,-71.5 630,-90.5"/>
<text text-anchor="middle" x="570.5" y="-78.5" font-family="Helvetica,sans-Serif" font-size="10.00">clang/AST/DeclCXX.h</text>
</a>
</g>
</g>
<!-- Node1&#45;&gt;Node7 -->
<g id="edge6_Node000001_Node000007" class="edge">
<title>Node1&#45;&gt;Node7</title>
<g id="a_edge6_Node000001_Node000007"><a xlink:title=" ">
<path fill="none" stroke="#63b8ff" d="M633.58,-131.87C621.99,-122.71 603.47,-108.06 589.48,-97.01"/>
<polygon fill="#63b8ff" stroke="#63b8ff" points="591.48,-94.12 581.46,-90.67 587.14,-99.61 591.48,-94.12"/>
</a>
</g>
</g>
<!-- Node8 -->
<g id="Node000008" class="node">
<title>Node8</title>
<g id="a_Node000008"><a xlink:title=" ">
<polygon fill="#e0e0e0" stroke="#999999" points="791,-90.5 648,-90.5 648,-71.5 791,-71.5 791,-90.5"/>
<text text-anchor="middle" x="719.5" y="-78.5" font-family="Helvetica,sans-Serif" font-size="10.00">clang/AST/DeclTemplate.h</text>
</a>
</g>
</g>
<!-- Node1&#45;&gt;Node8 -->
<g id="edge7_Node000001_Node000008" class="edge">
<title>Node1&#45;&gt;Node8</title>
<g id="a_edge7_Node000001_Node000008"><a xlink:title=" ">
<path fill="none" stroke="#63b8ff" d="M655.57,-131.87C667.31,-122.71 686.09,-108.06 700.26,-97.01"/>
<polygon fill="#63b8ff" stroke="#63b8ff" points="702.66,-99.58 708.39,-90.67 698.35,-94.06 702.66,-99.58"/>
</a>
</g>
</g>
<!-- Node9 -->
<g id="Node000009" class="node">
<title>Node9</title>
<g id="a_Node000009"><a xlink:title=" ">
<polygon fill="#e0e0e0" stroke="#999999" points="967.5,-90.5 809.5,-90.5 809.5,-71.5 967.5,-71.5 967.5,-90.5"/>
<text text-anchor="middle" x="888.5" y="-78.5" font-family="Helvetica,sans-Serif" font-size="10.00">clang/Basic/SourceLocation.h</text>
</a>
</g>
</g>
<!-- Node1&#45;&gt;Node9 -->
<g id="edge8_Node000001_Node000009" class="edge">
<title>Node1&#45;&gt;Node9</title>
<g id="a_edge8_Node000001_Node000009"><a xlink:title=" ">
<path fill="none" stroke="#63b8ff" d="M679.98,-131.99C723.08,-121.66 795.86,-104.21 843.03,-92.9"/>
<polygon fill="#63b8ff" stroke="#63b8ff" points="844.07,-96.25 852.98,-90.52 842.44,-89.44 844.07,-96.25"/>
</a>
</g>
</g>
<!-- Node10 -->
<g id="Node000010" class="node">
<title>Node10</title>
<g id="a_Node000010"><a xlink:title=" ">
<polygon fill="#e0e0e0" stroke="#999999" points="1125,-90.5 986,-90.5 986,-71.5 1125,-71.5 1125,-90.5"/>
<text text-anchor="middle" x="1055.5" y="-78.5" font-family="Helvetica,sans-Serif" font-size="10.00">clang/Basic/TokenKinds.h</text>
</a>
</g>
</g>
<!-- Node1&#45;&gt;Node10 -->
<g id="edge9_Node000001_Node000010" class="edge">
<title>Node1&#45;&gt;Node10</title>
<g id="a_edge9_Node000001_Node000010"><a xlink:title=" ">
<path fill="none" stroke="#63b8ff" d="M714.57,-131.98C781.85,-123.59 886.28,-110.03 976.5,-96 983.87,-94.85 991.61,-93.57 999.25,-92.27"/>
<polygon fill="#63b8ff" stroke="#63b8ff" points="999.93,-95.7 1009.19,-90.54 998.73,-88.81 999.93,-95.7"/>
</a>
</g>
</g>
<!-- Node11 -->
<g id="Node000011" class="node">
<title>Node11</title>
<g id="a_Node000011"><a xlink:title=" ">
<polygon fill="#e0e0e0" stroke="#999999" points="1244,-90.5 1143,-90.5 1143,-71.5 1244,-71.5 1244,-90.5"/>
<text text-anchor="middle" x="1193.5" y="-78.5" font-family="Helvetica,sans-Serif" font-size="10.00">clang/Lex/Lexer.h</text>
</a>
</g>
</g>
<!-- Node1&#45;&gt;Node11 -->
<g id="edge10_Node000001_Node000011" class="edge">
<title>Node1&#45;&gt;Node11</title>
<g id="a_edge10_Node000001_Node000011"><a xlink:title=" ">
<path fill="none" stroke="#63b8ff" d="M746.38,-135.49C845.87,-129.59 1001.3,-117.74 1134.5,-96 1139.95,-95.11 1145.65,-94 1151.27,-92.79"/>
<polygon fill="#63b8ff" stroke="#63b8ff" points="1152.23,-96.16 1161.21,-90.54 1150.68,-89.33 1152.23,-96.16"/>
</a>
</g>
</g>
<!-- Node12 -->
<g id="Node000012" class="node">
<title>Node12</title>
<g id="a_Node000012"><a xlink:title=" ">
<polygon fill="#e0e0e0" stroke="#999999" points="1371,-96 1262,-96 1262,-66 1371,-66 1371,-96"/>
<text text-anchor="start" x="1270" y="-84" font-family="Helvetica,sans-Serif" font-size="10.00">clang/Rewrite/Core</text>
<text text-anchor="middle" x="1316.5" y="-73" font-family="Helvetica,sans-Serif" font-size="10.00">/Rewriter.h</text>
</a>
</g>
</g>
<!-- Node1&#45;&gt;Node12 -->
<g id="edge11_Node000001_Node000012" class="edge">
<title>Node1&#45;&gt;Node12</title>
<g id="a_edge11_Node000001_Node000012"><a xlink:title=" ">
<path fill="none" stroke="#63b8ff" d="M746.02,-137.6C865.11,-133.18 1068.6,-122.45 1251.86,-96.1"/>
<polygon fill="#63b8ff" stroke="#63b8ff" points="1252.56,-99.54 1261.95,-94.63 1251.55,-92.61 1252.56,-99.54"/>
</a>
</g>
</g>
<!-- Node3 -->
<g id="Node000003" class="node">
<title>Node3</title>
<g id="a_Node000003"><a xlink:title=" ">
<polygon fill="#e0e0e0" stroke="#999999" points="174,-30 13,-30 13,0 174,0 174,-30"/>
<text text-anchor="start" x="21" y="-18" font-family="Helvetica,sans-Serif" font-size="10.00">clang/ASTMatchers/ASTMatch</text>
<text text-anchor="middle" x="93.5" y="-7" font-family="Helvetica,sans-Serif" font-size="10.00">Finder.h</text>
</a>
</g>
</g>
<!-- Node2&#45;&gt;Node3 -->
<g id="edge2_Node000002_Node000003" class="edge">
<title>Node2&#45;&gt;Node3</title>
<g id="a_edge2_Node000002_Node000003"><a xlink:title=" ">
<path fill="none" stroke="#63b8ff" d="M93.5,-71.37C93.5,-63.49 93.5,-51.45 93.5,-40.6"/>
<polygon fill="#63b8ff" stroke="#63b8ff" points="97,-40.36 93.5,-30.36 90,-40.36 97,-40.36"/>
</a>
</g>
</g>
</g>
</svg>
