<?xml version="1.0" encoding="UTF-8" standalone="no"?>
<!DOCTYPE svg PUBLIC "-//W3C//DTD SVG 1.1//EN"
 "http://www.w3.org/Graphics/SVG/1.1/DTD/svg11.dtd">
<!-- Generated by graphviz version 2.43.0 (0)
 -->
<!-- Title: src/Callbacks/DeleteInstantiations.cpp Pages: 1 -->
<svg width="736pt" height="159pt"
 viewBox="0.00 0.00 736.00 159.00" xmlns="http://www.w3.org/2000/svg" xmlns:xlink="http://www.w3.org/1999/xlink">
<g id="graph0" class="graph" transform="scale(1 1) rotate(0) translate(4 155)">
<title>src/Callbacks/DeleteInstantiations.cpp</title>
<!-- Node1 -->
<g id="Node000001" class="node">
<title>Node1</title>
<g id="a_Node000001"><a xlink:title=" ">
<polygon fill="#999999" stroke="#666666" points="482,-151 279,-151 279,-132 482,-132 482,-151"/>
<text text-anchor="middle" x="380.5" y="-139" font-family="Helvetica,sans-Serif" font-size="10.00">src/Callbacks/DeleteInstantiations.cpp</text>
</a>
</g>
</g>
<!-- Node2 -->
<g id="Node000002" class="node">
<title>Node2</title>
<g id="a_Node000002"><a xlink:href="DeleteInstantiations_8hpp.html" target="_top" xlink:title=" ">
<polygon fill="white" stroke="#666666" points="187,-90.5 0,-90.5 0,-71.5 187,-71.5 187,-90.5"/>
<text text-anchor="middle" x="93.5" y="-78.5" font-family="Helvetica,sans-Serif" font-size="10.00">Callbacks/DeleteInstantiations.hpp</text>
</a>
</g>
</g>
<!-- Node1&#45;&gt;Node2 -->
<g id="edge1_Node000001_Node000002" class="edge">
<title>Node1&#45;&gt;Node2</title>
<g id="a_edge1_Node000001_Node000002"><a xlink:title=" ">
<path fill="none" stroke="#63b8ff" d="M338.77,-131.99C287.54,-121.55 200.67,-103.85 145.25,-92.55"/>
<polygon fill="#63b8ff" stroke="#63b8ff" points="145.78,-89.08 135.28,-90.52 144.38,-95.94 145.78,-89.08"/>
</a>
</g>
</g>
<!-- Node4 -->
<g id="Node000004" class="node">
<title>Node4</title>
<g id="a_Node000004"><a xlink:title=" ">
<polygon fill="#e0e0e0" stroke="#999999" points="302.5,-90.5 204.5,-90.5 204.5,-71.5 302.5,-71.5 302.5,-90.5"/>
<text text-anchor="middle" x="253.5" y="-78.5" font-family="Helvetica,sans-Serif" font-size="10.00">clang/AST/Decl.h</text>
</a>
</g>
</g>
<!-- Node1&#45;&gt;Node4 -->
<g id="edge3_Node000001_Node000004" class="edge">
<title>Node1&#45;&gt;Node4</title>
<g id="a_edge3_Node000001_Node000004"><a xlink:title=" ">
<path fill="none" stroke="#63b8ff" d="M362.03,-131.99C340.78,-122.2 305.65,-106.02 281.13,-94.73"/>
<polygon fill="#63b8ff" stroke="#63b8ff" points="282.54,-91.52 271.99,-90.52 279.61,-97.88 282.54,-91.52"/>
</a>
</g>
</g>
<!-- Node5 -->
<g id="Node000005" class="node">
<title>Node5</title>
<g id="a_Node000005"><a xlink:title=" ">
<polygon fill="#e0e0e0" stroke="#999999" points="440,-90.5 321,-90.5 321,-71.5 440,-71.5 440,-90.5"/>
<text text-anchor="middle" x="380.5" y="-78.5" font-family="Helvetica,sans-Serif" font-size="10.00">clang/AST/DeclCXX.h</text>
</a>
</g>
</g>
<!-- Node1&#45;&gt;Node5 -->
<g id="edge4_Node000001_Node000005" class="edge">
<title>Node1&#45;&gt;Node5</title>
<g id="a_edge4_Node000001_Node000005"><a xlink:title=" ">
<path fill="none" stroke="#63b8ff" d="M380.5,-131.87C380.5,-123.75 380.5,-111.31 380.5,-100.89"/>
<polygon fill="#63b8ff" stroke="#63b8ff" points="384,-100.67 380.5,-90.67 377,-100.67 384,-100.67"/>
</a>
</g>
</g>
<!-- Node6 -->
<g id="Node000006" class="node">
<title>Node6</title>
<g id="a_Node000006"><a xlink:title=" ">
<polygon fill="#e0e0e0" stroke="#999999" points="601,-90.5 458,-90.5 458,-71.5 601,-71.5 601,-90.5"/>
<text text-anchor="middle" x="529.5" y="-78.5" font-family="Helvetica,sans-Serif" font-size="10.00">clang/AST/DeclTemplate.h</text>
</a>
</g>
</g>
<!-- Node1&#45;&gt;Node6 -->
<g id="edge5_Node000001_Node000006" class="edge">
<title>Node1&#45;&gt;Node6</title>
<g id="a_edge5_Node000001_Node000006"><a xlink:title=" ">
<path fill="none" stroke="#63b8ff" d="M402.17,-131.99C427.44,-122.07 469.41,-105.59 498.22,-94.28"/>
<polygon fill="#63b8ff" stroke="#63b8ff" points="499.78,-97.43 507.81,-90.52 497.22,-90.91 499.78,-97.43"/>
</a>
</g>
</g>
<!-- Node7 -->
<g id="Node000007" class="node">
<title>Node7</title>
<g id="a_Node000007"><a xlink:title=" ">
<polygon fill="#e0e0e0" stroke="#999999" points="728,-96 619,-96 619,-66 728,-66 728,-96"/>
<text text-anchor="start" x="627" y="-84" font-family="Helvetica,sans-Serif" font-size="10.00">clang/Rewrite/Core</text>
<text text-anchor="middle" x="673.5" y="-73" font-family="Helvetica,sans-Serif" font-size="10.00">/Rewriter.h</text>
</a>
</g>
</g>
<!-- Node1&#45;&gt;Node7 -->
<g id="edge6_Node000001_Node000007" class="edge">
<title>Node1&#45;&gt;Node7</title>
<g id="a_edge6_Node000001_Node000007"><a xlink:title=" ">
<path fill="none" stroke="#63b8ff" d="M426.83,-131.92C471.15,-123.63 540.14,-110.5 608.76,-96.33"/>
<polygon fill="#63b8ff" stroke="#63b8ff" points="609.8,-99.69 618.88,-94.23 608.38,-92.84 609.8,-99.69"/>
</a>
</g>
</g>
<!-- Node3 -->
<g id="Node000003" class="node">
<title>Node3</title>
<g id="a_Node000003"><a xlink:title=" ">
<polygon fill="#e0e0e0" stroke="#999999" points="174,-30 13,-30 13,0 174,0 174,-30"/>
<text text-anchor="start" x="21" y="-18" font-family="Helvetica,sans-Serif" font-size="10.00">clang/ASTMatchers/ASTMatch</text>
<text text-anchor="middle" x="93.5" y="-7" font-family="Helvetica,sans-Serif" font-size="10.00">Finder.h</text>
</a>
</g>
</g>
<!-- Node2&#45;&gt;Node3 -->
<g id="edge2_Node000002_Node000003" class="edge">
<title>Node2&#45;&gt;Node3</title>
<g id="a_edge2_Node000002_Node000003"><a xlink:title=" ">
<path fill="none" stroke="#63b8ff" d="M93.5,-71.37C93.5,-63.49 93.5,-51.45 93.5,-40.6"/>
<polygon fill="#63b8ff" stroke="#63b8ff" points="97,-40.36 93.5,-30.36 90,-40.36 97,-40.36"/>
</a>
</g>
</g>
</g>
</svg>
