<?xml version="1.0" encoding="UTF-8" standalone="no"?>
<!DOCTYPE svg PUBLIC "-//W3C//DTD SVG 1.1//EN"
 "http://www.w3.org/Graphics/SVG/1.1/DTD/svg11.dtd">
<!-- Generated by graphviz version 2.43.0 (0)
 -->
<!-- Title: include/Callbacks/DeleteInstantiations.hpp Pages: 1 -->
<svg width="322pt" height="95pt"
 viewBox="0.00 0.00 321.50 95.00" xmlns="http://www.w3.org/2000/svg" xmlns:xlink="http://www.w3.org/1999/xlink">
<g id="graph0" class="graph" transform="scale(1 1) rotate(0) translate(4 91)">
<title>include/Callbacks/DeleteInstantiations.hpp</title>
<!-- Node1 -->
<g id="node1" class="node">
<title>Node1</title>
<g id="a_node1"><a xlink:title=" ">
<polygon fill="#bfbfbf" stroke="black" points="60.5,-56.5 60.5,-86.5 197.5,-86.5 197.5,-56.5 60.5,-56.5"/>
<text text-anchor="start" x="68.5" y="-74.5" font-family="Helvetica,sans-Serif" font-size="10.00">include/Callbacks/Delete</text>
<text text-anchor="middle" x="129" y="-63.5" font-family="Helvetica,sans-Serif" font-size="10.00">Instantiations.hpp</text>
</a>
</g>
</g>
<!-- Node2 -->
<g id="node2" class="node">
<title>Node2</title>
<g id="a_node2"><a xlink:href="Instantiator_8cpp.html" target="_top" xlink:title=" ">
<polygon fill="none" stroke="black" points="0,-0.5 0,-19.5 92,-19.5 92,-0.5 0,-0.5"/>
<text text-anchor="middle" x="46" y="-7.5" font-family="Helvetica,sans-Serif" font-size="10.00">Instantiator.cpp</text>
</a>
</g>
</g>
<!-- Node1&#45;&gt;Node2 -->
<g id="edge1" class="edge">
<title>Node1&#45;&gt;Node2</title>
<path fill="none" stroke="midnightblue" d="M101.08,-50.48C86.46,-40 69.31,-27.71 58.08,-19.66"/>
<polygon fill="midnightblue" stroke="midnightblue" points="99.16,-53.42 109.33,-56.4 103.24,-47.73 99.16,-53.42"/>
</g>
<!-- Node3 -->
<g id="node3" class="node">
<title>Node3</title>
<g id="a_node3"><a xlink:href="DeleteInstantiations_8cpp.html" target="_top" xlink:title=" ">
<polygon fill="none" stroke="black" points="110.5,-0.5 110.5,-19.5 313.5,-19.5 313.5,-0.5 110.5,-0.5"/>
<text text-anchor="middle" x="212" y="-7.5" font-family="Helvetica,sans-Serif" font-size="10.00">src/Callbacks/DeleteInstantiations.cpp</text>
</a>
</g>
</g>
<!-- Node1&#45;&gt;Node3 -->
<g id="edge2" class="edge">
<title>Node1&#45;&gt;Node3</title>
<path fill="none" stroke="midnightblue" d="M156.92,-50.48C171.54,-40 188.69,-27.71 199.92,-19.66"/>
<polygon fill="midnightblue" stroke="midnightblue" points="154.76,-47.73 148.67,-56.4 158.84,-53.42 154.76,-47.73"/>
</g>
</g>
</svg>
