<?xml version="1.0" encoding="UTF-8" standalone="no"?>
<!DOCTYPE svg PUBLIC "-//W3C//DTD SVG 1.1//EN"
 "http://www.w3.org/Graphics/SVG/1.1/DTD/svg11.dtd">
<!-- Generated by graphviz version 2.43.0 (0)
 -->
<!-- Title: src/Callbacks/DeleteInstantiations.cpp Pages: 1 -->
<svg width="666pt" height="151pt"
 viewBox="0.00 0.00 666.00 151.00" xmlns="http://www.w3.org/2000/svg" xmlns:xlink="http://www.w3.org/1999/xlink">
<g id="graph0" class="graph" transform="scale(1 1) rotate(0) translate(4 147)">
<title>src/Callbacks/DeleteInstantiations.cpp</title>
<!-- Node1 -->
<g id="node1" class="node">
<title>Node1</title>
<g id="a_node1"><a xlink:title=" ">
<polygon fill="#bfbfbf" stroke="black" points="209,-123.5 209,-142.5 412,-142.5 412,-123.5 209,-123.5"/>
<text text-anchor="middle" x="310.5" y="-130.5" font-family="Helvetica,sans-Serif" font-size="10.00">src/Callbacks/DeleteInstantiations.cpp</text>
</a>
</g>
</g>
<!-- Node2 -->
<g id="node2" class="node">
<title>Node2</title>
<g id="a_node2"><a xlink:href="DeleteInstantiations_8hpp.html" target="_top" xlink:title=" ">
<polygon fill="none" stroke="black" points="19,-67.5 19,-86.5 206,-86.5 206,-67.5 19,-67.5"/>
<text text-anchor="middle" x="112.5" y="-74.5" font-family="Helvetica,sans-Serif" font-size="10.00">Callbacks/DeleteInstantiations.hpp</text>
</a>
</g>
</g>
<!-- Node1&#45;&gt;Node2 -->
<g id="edge1" class="edge">
<title>Node1&#45;&gt;Node2</title>
<path fill="none" stroke="midnightblue" d="M279.13,-123.44C245.24,-114.2 191.1,-99.44 153.78,-89.26"/>
<polygon fill="midnightblue" stroke="midnightblue" points="154.3,-85.77 143.73,-86.52 152.45,-92.52 154.3,-85.77"/>
</g>
<!-- Node4 -->
<g id="node4" class="node">
<title>Node4</title>
<g id="a_node4"><a xlink:title=" ">
<polygon fill="none" stroke="#bfbfbf" points="179,-0.5 179,-30.5 288,-30.5 288,-0.5 179,-0.5"/>
<text text-anchor="start" x="187" y="-18.5" font-family="Helvetica,sans-Serif" font-size="10.00">clang/Rewrite/Core</text>
<text text-anchor="middle" x="233.5" y="-7.5" font-family="Helvetica,sans-Serif" font-size="10.00">/Rewriter.h</text>
</a>
</g>
</g>
<!-- Node1&#45;&gt;Node4 -->
<g id="edge7" class="edge">
<title>Node1&#45;&gt;Node4</title>
<path fill="none" stroke="midnightblue" d="M294.35,-123.43C281.18,-115.63 263.09,-102.92 252.5,-87 243.32,-73.21 238.56,-55.12 236.1,-40.73"/>
<polygon fill="midnightblue" stroke="midnightblue" points="239.53,-39.96 234.64,-30.57 232.6,-40.96 239.53,-39.96"/>
</g>
<!-- Node5 -->
<g id="node5" class="node">
<title>Node5</title>
<g id="a_node5"><a xlink:title=" ">
<polygon fill="none" stroke="#bfbfbf" points="261.5,-67.5 261.5,-86.5 359.5,-86.5 359.5,-67.5 261.5,-67.5"/>
<text text-anchor="middle" x="310.5" y="-74.5" font-family="Helvetica,sans-Serif" font-size="10.00">clang/AST/Decl.h</text>
</a>
</g>
</g>
<!-- Node1&#45;&gt;Node5 -->
<g id="edge4" class="edge">
<title>Node1&#45;&gt;Node5</title>
<path fill="none" stroke="midnightblue" d="M310.5,-123.08C310.5,-116.01 310.5,-105.86 310.5,-96.99"/>
<polygon fill="midnightblue" stroke="midnightblue" points="314,-96.75 310.5,-86.75 307,-96.75 314,-96.75"/>
</g>
<!-- Node6 -->
<g id="node6" class="node">
<title>Node6</title>
<g id="a_node6"><a xlink:title=" ">
<polygon fill="none" stroke="#bfbfbf" points="378,-67.5 378,-86.5 497,-86.5 497,-67.5 378,-67.5"/>
<text text-anchor="middle" x="437.5" y="-74.5" font-family="Helvetica,sans-Serif" font-size="10.00">clang/AST/DeclCXX.h</text>
</a>
</g>
</g>
<!-- Node1&#45;&gt;Node6 -->
<g id="edge5" class="edge">
<title>Node1&#45;&gt;Node6</title>
<path fill="none" stroke="midnightblue" d="M330.62,-123.44C351.52,-114.56 384.43,-100.56 408.22,-90.45"/>
<polygon fill="midnightblue" stroke="midnightblue" points="409.64,-93.65 417.47,-86.52 406.9,-87.21 409.64,-93.65"/>
</g>
<!-- Node7 -->
<g id="node7" class="node">
<title>Node7</title>
<g id="a_node7"><a xlink:title=" ">
<polygon fill="none" stroke="#bfbfbf" points="515,-67.5 515,-86.5 658,-86.5 658,-67.5 515,-67.5"/>
<text text-anchor="middle" x="586.5" y="-74.5" font-family="Helvetica,sans-Serif" font-size="10.00">clang/AST/DeclTemplate.h</text>
</a>
</g>
</g>
<!-- Node1&#45;&gt;Node7 -->
<g id="edge6" class="edge">
<title>Node1&#45;&gt;Node7</title>
<path fill="none" stroke="midnightblue" d="M354.23,-123.44C402.68,-113.96 480.83,-98.67 532.92,-88.48"/>
<polygon fill="midnightblue" stroke="midnightblue" points="533.83,-91.87 542.97,-86.52 532.49,-85 533.83,-91.87"/>
</g>
<!-- Node3 -->
<g id="node3" class="node">
<title>Node3</title>
<g id="a_node3"><a xlink:title=" ">
<polygon fill="none" stroke="#bfbfbf" points="0,-0.5 0,-30.5 161,-30.5 161,-0.5 0,-0.5"/>
<text text-anchor="start" x="8" y="-18.5" font-family="Helvetica,sans-Serif" font-size="10.00">clang/ASTMatchers/ASTMatch</text>
<text text-anchor="middle" x="80.5" y="-7.5" font-family="Helvetica,sans-Serif" font-size="10.00">Finder.h</text>
</a>
</g>
</g>
<!-- Node2&#45;&gt;Node3 -->
<g id="edge2" class="edge">
<title>Node2&#45;&gt;Node3</title>
<path fill="none" stroke="midnightblue" d="M107.92,-67.48C103.99,-60.17 98.14,-49.3 92.86,-39.47"/>
<polygon fill="midnightblue" stroke="midnightblue" points="95.86,-37.67 88.04,-30.52 89.7,-40.99 95.86,-37.67"/>
</g>
<!-- Node2&#45;&gt;Node4 -->
<g id="edge3" class="edge">
<title>Node2&#45;&gt;Node4</title>
<path fill="none" stroke="midnightblue" d="M129.84,-67.48C146.99,-59.04 173.8,-45.86 195.86,-35.01"/>
<polygon fill="midnightblue" stroke="midnightblue" points="197.55,-38.08 204.98,-30.52 194.46,-31.79 197.55,-38.08"/>
</g>
</g>
</svg>
