<?xml version="1.0" encoding="UTF-8" standalone="no"?>
<!DOCTYPE svg PUBLIC "-//W3C//DTD SVG 1.1//EN"
 "http://www.w3.org/Graphics/SVG/1.1/DTD/svg11.dtd">
<!-- Generated by graphviz version 2.43.0 (0)
 -->
<!-- Title: include/Callbacks/DeleteInstantiations.hpp Pages: 1 -->
<svg width="296pt" height="106pt"
 viewBox="0.00 0.00 296.00 106.00" xmlns="http://www.w3.org/2000/svg" xmlns:xlink="http://www.w3.org/1999/xlink">
<g id="graph0" class="graph" transform="scale(1 1) rotate(0) translate(4 102)">
<title>include/Callbacks/DeleteInstantiations.hpp</title>
<!-- Node1 -->
<g id="node1" class="node">
<title>Node1</title>
<g id="a_node1"><a xlink:title=" ">
<polygon fill="#bfbfbf" stroke="black" points="88,-67.5 88,-97.5 225,-97.5 225,-67.5 88,-67.5"/>
<text text-anchor="start" x="96" y="-85.5" font-family="Helvetica,sans-Serif" font-size="10.00">include/Callbacks/Delete</text>
<text text-anchor="middle" x="156.5" y="-74.5" font-family="Helvetica,sans-Serif" font-size="10.00">Instantiations.hpp</text>
</a>
</g>
</g>
<!-- Node2 -->
<g id="node2" class="node">
<title>Node2</title>
<g id="a_node2"><a xlink:title=" ">
<polygon fill="none" stroke="#bfbfbf" points="0,-0.5 0,-30.5 161,-30.5 161,-0.5 0,-0.5"/>
<text text-anchor="start" x="8" y="-18.5" font-family="Helvetica,sans-Serif" font-size="10.00">clang/ASTMatchers/ASTMatch</text>
<text text-anchor="middle" x="80.5" y="-7.5" font-family="Helvetica,sans-Serif" font-size="10.00">Finder.h</text>
</a>
</g>
</g>
<!-- Node1&#45;&gt;Node2 -->
<g id="edge1" class="edge">
<title>Node1&#45;&gt;Node2</title>
<path fill="none" stroke="midnightblue" d="M140.01,-67.4C129.65,-58.54 116.12,-46.96 104.57,-37.09"/>
<polygon fill="midnightblue" stroke="midnightblue" points="106.83,-34.42 96.96,-30.58 102.28,-39.74 106.83,-34.42"/>
</g>
<!-- Node3 -->
<g id="node3" class="node">
<title>Node3</title>
<g id="a_node3"><a xlink:title=" ">
<polygon fill="none" stroke="#bfbfbf" points="179,-0.5 179,-30.5 288,-30.5 288,-0.5 179,-0.5"/>
<text text-anchor="start" x="187" y="-18.5" font-family="Helvetica,sans-Serif" font-size="10.00">clang/Rewrite/Core</text>
<text text-anchor="middle" x="233.5" y="-7.5" font-family="Helvetica,sans-Serif" font-size="10.00">/Rewriter.h</text>
</a>
</g>
</g>
<!-- Node1&#45;&gt;Node3 -->
<g id="edge2" class="edge">
<title>Node1&#45;&gt;Node3</title>
<path fill="none" stroke="midnightblue" d="M173.21,-67.4C183.7,-58.54 197.42,-46.96 209.11,-37.09"/>
<polygon fill="midnightblue" stroke="midnightblue" points="211.44,-39.7 216.82,-30.58 206.93,-34.35 211.44,-39.7"/>
</g>
</g>
</svg>
