<?xml version="1.0" encoding="UTF-8" standalone="no"?>
<!DOCTYPE svg PUBLIC "-//W3C//DTD SVG 1.1//EN"
 "http://www.w3.org/Graphics/SVG/1.1/DTD/svg11.dtd">
<!-- Generated by graphviz version 2.43.0 (0)
 -->
<!-- Title: include/Actions/DependencyAction.hpp Pages: 1 -->
<svg width="533pt" height="95pt"
 viewBox="0.00 0.00 532.50 95.00" xmlns="http://www.w3.org/2000/svg" xmlns:xlink="http://www.w3.org/1999/xlink">
<g id="graph0" class="graph" transform="scale(1 1) rotate(0) translate(4 91)">
<title>include/Actions/DependencyAction.hpp</title>
<!-- Node1 -->
<g id="node1" class="node">
<title>Node1</title>
<g id="a_node1"><a xlink:title=" ">
<polygon fill="#bfbfbf" stroke="black" points="216.5,-56.5 216.5,-86.5 371.5,-86.5 371.5,-56.5 216.5,-56.5"/>
<text text-anchor="start" x="224.5" y="-74.5" font-family="Helvetica,sans-Serif" font-size="10.00">include/Actions/Dependency</text>
<text text-anchor="middle" x="294" y="-63.5" font-family="Helvetica,sans-Serif" font-size="10.00">Action.hpp</text>
</a>
</g>
</g>
<!-- Node2 -->
<g id="node2" class="node">
<title>Node2</title>
<g id="a_node2"><a xlink:title=" ">
<polygon fill="none" stroke="#bfbfbf" points="0,-0.5 0,-19.5 186,-19.5 186,-0.5 0,-0.5"/>
<text text-anchor="middle" x="93" y="-7.5" font-family="Helvetica,sans-Serif" font-size="10.00">clang/Frontend/CompilerInstance.h</text>
</a>
</g>
</g>
<!-- Node1&#45;&gt;Node2 -->
<g id="edge1" class="edge">
<title>Node1&#45;&gt;Node2</title>
<path fill="none" stroke="midnightblue" d="M246.62,-56.47C211.49,-46.08 164.21,-32.08 131.42,-22.37"/>
<polygon fill="midnightblue" stroke="midnightblue" points="132.32,-18.99 121.74,-19.51 130.33,-25.7 132.32,-18.99"/>
</g>
<!-- Node3 -->
<g id="node3" class="node">
<title>Node3</title>
<g id="a_node3"><a xlink:title=" ">
<polygon fill="none" stroke="#bfbfbf" points="204.5,-0.5 204.5,-19.5 383.5,-19.5 383.5,-0.5 204.5,-0.5"/>
<text text-anchor="middle" x="294" y="-7.5" font-family="Helvetica,sans-Serif" font-size="10.00">clang/Frontend/FrontendActions.h</text>
</a>
</g>
</g>
<!-- Node1&#45;&gt;Node3 -->
<g id="edge2" class="edge">
<title>Node1&#45;&gt;Node3</title>
<path fill="none" stroke="midnightblue" d="M294,-56.4C294,-48.47 294,-38.46 294,-29.86"/>
<polygon fill="midnightblue" stroke="midnightblue" points="297.5,-29.66 294,-19.66 290.5,-29.66 297.5,-29.66"/>
</g>
<!-- Node4 -->
<g id="node4" class="node">
<title>Node4</title>
<g id="a_node4"><a xlink:title=" ">
<polygon fill="none" stroke="#bfbfbf" points="401.5,-0.5 401.5,-19.5 524.5,-19.5 524.5,-0.5 401.5,-0.5"/>
<text text-anchor="middle" x="463" y="-7.5" font-family="Helvetica,sans-Serif" font-size="10.00">clang/Frontend/Utils.h</text>
</a>
</g>
</g>
<!-- Node1&#45;&gt;Node4 -->
<g id="edge3" class="edge">
<title>Node1&#45;&gt;Node4</title>
<path fill="none" stroke="midnightblue" d="M334.05,-56.4C362.91,-46.24 401.45,-32.67 428.85,-23.02"/>
<polygon fill="midnightblue" stroke="midnightblue" points="430.14,-26.28 438.41,-19.66 427.81,-19.68 430.14,-26.28"/>
</g>
</g>
</svg>
