<?xml version="1.0" encoding="UTF-8" standalone="no"?>
<!DOCTYPE svg PUBLIC "-//W3C//DTD SVG 1.1//EN"
 "http://www.w3.org/Graphics/SVG/1.1/DTD/svg11.dtd">
<!-- Generated by graphviz version 2.43.0 (0)
 -->
<!-- Title: src/Actions/DependencyAction.cpp Pages: 1 -->
<svg width="533pt" height="137pt"
 viewBox="0.00 0.00 532.50 137.00" xmlns="http://www.w3.org/2000/svg" xmlns:xlink="http://www.w3.org/1999/xlink">
<g id="graph0" class="graph" transform="scale(1 1) rotate(0) translate(4 133)">
<title>src/Actions/DependencyAction.cpp</title>
<!-- Node1 -->
<g id="Node000001" class="node">
<title>Node1</title>
<g id="a_Node000001"><a xlink:title=" ">
<polygon fill="#999999" stroke="#666666" points="386.5,-129 201.5,-129 201.5,-110 386.5,-110 386.5,-129"/>
<text text-anchor="middle" x="294" y="-117" font-family="Helvetica,sans-Serif" font-size="10.00">src/Actions/DependencyAction.cpp</text>
</a>
</g>
</g>
<!-- Node2 -->
<g id="Node000002" class="node">
<title>Node2</title>
<g id="a_Node000002"><a xlink:href="DependencyAction_8hpp.html" target="_top" xlink:title=" ">
<polygon fill="white" stroke="#666666" points="378,-74 210,-74 210,-55 378,-55 378,-74"/>
<text text-anchor="middle" x="294" y="-62" font-family="Helvetica,sans-Serif" font-size="10.00">Actions/DependencyAction.hpp</text>
</a>
</g>
</g>
<!-- Node1&#45;&gt;Node2 -->
<g id="edge1_Node000001_Node000002" class="edge">
<title>Node1&#45;&gt;Node2</title>
<g id="a_edge1_Node000001_Node000002"><a xlink:title=" ">
<path fill="none" stroke="#63b8ff" d="M294,-109.75C294,-102.8 294,-92.85 294,-84.13"/>
<polygon fill="#63b8ff" stroke="#63b8ff" points="297.5,-84.09 294,-74.09 290.5,-84.09 297.5,-84.09"/>
</a>
</g>
</g>
<!-- Node3 -->
<g id="Node000003" class="node">
<title>Node3</title>
<g id="a_Node000003"><a xlink:title=" ">
<polygon fill="#e0e0e0" stroke="#999999" points="186,-19 0,-19 0,0 186,0 186,-19"/>
<text text-anchor="middle" x="93" y="-7" font-family="Helvetica,sans-Serif" font-size="10.00">clang/Frontend/CompilerInstance.h</text>
</a>
</g>
</g>
<!-- Node2&#45;&gt;Node3 -->
<g id="edge2_Node000002_Node000003" class="edge">
<title>Node2&#45;&gt;Node3</title>
<g id="a_edge2_Node000002_Node000003"><a xlink:title=" ">
<path fill="none" stroke="#63b8ff" d="M261.71,-54.98C227.38,-45.93 172.94,-31.58 135.23,-21.64"/>
<polygon fill="#63b8ff" stroke="#63b8ff" points="136.11,-18.25 125.55,-19.08 134.32,-25.02 136.11,-18.25"/>
</a>
</g>
</g>
<!-- Node4 -->
<g id="Node000004" class="node">
<title>Node4</title>
<g id="a_Node000004"><a xlink:title=" ">
<polygon fill="#e0e0e0" stroke="#999999" points="383.5,-19 204.5,-19 204.5,0 383.5,0 383.5,-19"/>
<text text-anchor="middle" x="294" y="-7" font-family="Helvetica,sans-Serif" font-size="10.00">clang/Frontend/FrontendActions.h</text>
</a>
</g>
</g>
<!-- Node2&#45;&gt;Node4 -->
<g id="edge3_Node000002_Node000004" class="edge">
<title>Node2&#45;&gt;Node4</title>
<g id="a_edge3_Node000002_Node000004"><a xlink:title=" ">
<path fill="none" stroke="#63b8ff" d="M294,-54.75C294,-47.8 294,-37.85 294,-29.13"/>
<polygon fill="#63b8ff" stroke="#63b8ff" points="297.5,-29.09 294,-19.09 290.5,-29.09 297.5,-29.09"/>
</a>
</g>
</g>
<!-- Node5 -->
<g id="Node000005" class="node">
<title>Node5</title>
<g id="a_Node000005"><a xlink:title=" ">
<polygon fill="#e0e0e0" stroke="#999999" points="524.5,-19 401.5,-19 401.5,0 524.5,0 524.5,-19"/>
<text text-anchor="middle" x="463" y="-7" font-family="Helvetica,sans-Serif" font-size="10.00">clang/Frontend/Utils.h</text>
</a>
</g>
</g>
<!-- Node2&#45;&gt;Node5 -->
<g id="edge4_Node000002_Node000005" class="edge">
<title>Node2&#45;&gt;Node5</title>
<g id="a_edge4_Node000002_Node000005"><a xlink:title=" ">
<path fill="none" stroke="#63b8ff" d="M321.15,-54.98C349.53,-46.09 394.23,-32.07 425.86,-22.15"/>
<polygon fill="#63b8ff" stroke="#63b8ff" points="427.14,-25.41 435.63,-19.08 425.05,-18.73 427.14,-25.41"/>
</a>
</g>
</g>
</g>
</svg>
