<?xml version="1.0" encoding="UTF-8" standalone="no"?>
<!DOCTYPE svg PUBLIC "-//W3C//DTD SVG 1.1//EN"
 "http://www.w3.org/Graphics/SVG/1.1/DTD/svg11.dtd">
<!-- Generated by graphviz version 2.43.0 (0)
 -->
<!-- Title: src Pages: 1 -->
<svg width="250pt" height="132pt"
 viewBox="0.00 0.00 250.00 132.00" xmlns="http://www.w3.org/2000/svg" xmlns:xlink="http://www.w3.org/1999/xlink">
<g id="graph0" class="graph" transform="scale(1 1) rotate(0) translate(4 128)">
<title>src</title>
<g id="clust1" class="cluster">
<title>clusterdir_68267d1309a1af8e8297ef4c3efbcdba</title>
<g id="a_clust1"><a xlink:href="dir_68267d1309a1af8e8297ef4c3efbcdba.html" target="_top">
<polygon fill="#eeeeff" stroke="black" points="8,-64 8,-116 234,-116 234,-64 8,-64"/>
</a>
</g>
</g>
<!-- dir_68267d1309a1af8e8297ef4c3efbcdba -->
<g id="node1" class="node">
<title>dir_68267d1309a1af8e8297ef4c3efbcdba</title>
<text text-anchor="middle" x="199" y="-87.5" font-family="Helvetica,sans-Serif" font-size="10.00">src</text>
</g>
<!-- dir_7b13917f847da1f7b289bf78886ebc77 -->
<g id="node2" class="node">
<title>dir_7b13917f847da1f7b289bf78886ebc77</title>
<g id="a_node2"><a xlink:href="dir_7b13917f847da1f7b289bf78886ebc77.html" target="_top" xlink:title="Callbacks">
<polygon fill="white" stroke="black" points="154,-108 90,-108 90,-72 154,-72 154,-108"/>
<text text-anchor="middle" x="122" y="-87.5" font-family="Helvetica,sans-Serif" font-size="10.00">Callbacks</text>
</a>
</g>
</g>
<!-- dir_d44c64559bbebec7f509842c48db8b23 -->
<g id="node4" class="node">
<title>dir_d44c64559bbebec7f509842c48db8b23</title>
<g id="a_node4"><a xlink:href="dir_d44c64559bbebec7f509842c48db8b23.html" target="_top" xlink:title="include">
<polygon fill="none" stroke="red" points="110,-36 56,-36 56,0 110,0 110,-36"/>
<text text-anchor="middle" x="83" y="-15.5" font-family="Helvetica,sans-Serif" font-size="10.00">include</text>
</a>
</g>
</g>
<!-- dir_7b13917f847da1f7b289bf78886ebc77&#45;&gt;dir_d44c64559bbebec7f509842c48db8b23 -->
<g id="edge1" class="edge">
<title>dir_7b13917f847da1f7b289bf78886ebc77&#45;&gt;dir_d44c64559bbebec7f509842c48db8b23</title>
<path fill="none" stroke="black" d="M112.36,-71.7C107.87,-63.64 102.44,-53.89 97.48,-44.98"/>
<polygon fill="black" stroke="black" points="100.45,-43.14 92.53,-36.1 94.34,-46.54 100.45,-43.14"/>
<g id="a_edge1&#45;headlabel"><a xlink:href="dir_000004_000000.html" target="_top" xlink:title="5">
<text text-anchor="middle" x="104.68" y="-42.39" font-family="Helvetica,sans-Serif" font-size="10.00">5</text>
</a>
</g>
</g>
<!-- dir_b8f4473302bc85bc90141e5ae078c276 -->
<g id="node3" class="node">
<title>dir_b8f4473302bc85bc90141e5ae078c276</title>
<g id="a_node3"><a xlink:href="dir_b8f4473302bc85bc90141e5ae078c276.html" target="_top" xlink:title="Matcher">
<polygon fill="white" stroke="black" points="72,-108 16,-108 16,-72 72,-72 72,-108"/>
<text text-anchor="middle" x="44" y="-87.5" font-family="Helvetica,sans-Serif" font-size="10.00">Matcher</text>
</a>
</g>
</g>
<!-- dir_b8f4473302bc85bc90141e5ae078c276&#45;&gt;dir_d44c64559bbebec7f509842c48db8b23 -->
<g id="edge2" class="edge">
<title>dir_b8f4473302bc85bc90141e5ae078c276&#45;&gt;dir_d44c64559bbebec7f509842c48db8b23</title>
<path fill="none" stroke="black" d="M53.64,-71.7C58.13,-63.64 63.56,-53.89 68.52,-44.98"/>
<polygon fill="black" stroke="black" points="71.66,-46.54 73.47,-36.1 65.55,-43.14 71.66,-46.54"/>
<g id="a_edge2&#45;headlabel"><a xlink:href="dir_000005_000000.html" target="_top" xlink:title="1">
<text text-anchor="middle" x="72.39" y="-48.57" font-family="Helvetica,sans-Serif" font-size="10.00">1</text>
</a>
</g>
</g>
</g>
</svg>
