<?xml version="1.0" encoding="UTF-8" standalone="no"?>
<!DOCTYPE svg PUBLIC "-//W3C//DTD SVG 1.1//EN"
 "http://www.w3.org/Graphics/SVG/1.1/DTD/svg11.dtd">
<!-- Generated by graphviz version 2.43.0 (0)
 -->
<!-- Title: src Pages: 1 -->
<svg width="347pt" height="98pt"
 viewBox="0.00 0.00 347.00 98.00" xmlns="http://www.w3.org/2000/svg" xmlns:xlink="http://www.w3.org/1999/xlink">
<g id="graph0" class="graph" transform="scale(1 1) rotate(0) translate(4 94)">
<title>src</title>
<g id="clust1" class="cluster">
<title>clusterdir_68267d1309a1af8e8297ef4c3efbcdba</title>
<g id="a_clust1"><a xlink:href="dir_68267d1309a1af8e8297ef4c3efbcdba.html" target="_top">
<polygon fill="#daedff" stroke="#404040" stroke-width="2" points="8,-47 8,-82 331,-82 331,-47 8,-47"/>
</a>
</g>
</g>
<!-- dir_68267d1309a1af8e8297ef4c3efbcdba -->
<g id="node1" class="node">
<title>dir_68267d1309a1af8e8297ef4c3efbcdba</title>
<text text-anchor="middle" x="307" y="-62" font-family="Helvetica,sans-Serif" font-size="10.00">src</text>
</g>
<!-- dir_d44c64559bbebec7f509842c48db8b23 -->
<g id="node6" class="node">
<title>dir_d44c64559bbebec7f509842c48db8b23</title>
<g id="a_node6"><a xlink:href="dir_d44c64559bbebec7f509842c48db8b23.html" target="_top" xlink:title="include">
<polygon fill="#daedff" stroke="red" points="196,-19 144,-19 144,0 196,0 196,-19"/>
<text text-anchor="middle" x="170" y="-7" font-family="Helvetica,sans-Serif" font-size="10.00">include</text>
</a>
</g>
</g>
<!-- dir_68267d1309a1af8e8297ef4c3efbcdba&#45;&gt;dir_d44c64559bbebec7f509842c48db8b23 -->
<g id="edge1" class="edge">
<title>dir_68267d1309a1af8e8297ef4c3efbcdba&#45;&gt;dir_d44c64559bbebec7f509842c48db8b23</title>
<g id="a_edge1"><a xlink:href="dir_000010_000005.html" target="_top">
<path fill="none" stroke="#63b8ff" d="M295.7,-54.73C291.82,-52 287.36,-49.14 283,-47 258.46,-34.92 229,-25.56 206.32,-19.34"/>
<polygon fill="#63b8ff" stroke="#63b8ff" points="206.98,-15.89 196.41,-16.71 205.18,-22.66 206.98,-15.89"/>
</a>
</g>
<g id="a_edge1&#45;headlabel"><a xlink:href="dir_000010_000005.html" target="_top" xlink:title="22">
<text text-anchor="middle" x="211.18" y="-11.57" font-family="Helvetica,sans-Serif" font-size="10.00" fill="#63b8ff">22</text>
</a>
</g>
</g>
<!-- dir_0f2339d204149e590ec376b2c2ae3818 -->
<g id="node2" class="node">
<title>dir_0f2339d204149e590ec376b2c2ae3818</title>
<g id="a_node2"><a xlink:href="dir_0f2339d204149e590ec376b2c2ae3818.html" target="_top" xlink:title="Actions">
<polygon fill="#4ea9ff" stroke="#404040" points="273.5,-74 220.5,-74 220.5,-55 273.5,-55 273.5,-74"/>
<text text-anchor="middle" x="247" y="-62" font-family="Helvetica,sans-Serif" font-size="10.00">Actions</text>
</a>
</g>
</g>
<!-- dir_0f2339d204149e590ec376b2c2ae3818&#45;&gt;dir_d44c64559bbebec7f509842c48db8b23 -->
<g id="edge2" class="edge">
<title>dir_0f2339d204149e590ec376b2c2ae3818&#45;&gt;dir_d44c64559bbebec7f509842c48db8b23</title>
<g id="a_edge2"><a xlink:href="dir_000001_000005.html" target="_top">
<path fill="none" stroke="#63b8ff" d="M234.63,-54.98C222.91,-46.92 205.08,-34.65 191.11,-25.03"/>
<polygon fill="#63b8ff" stroke="#63b8ff" points="192.82,-21.96 182.6,-19.17 188.85,-27.72 192.82,-21.96"/>
</a>
</g>
<g id="a_edge2&#45;headlabel"><a xlink:href="dir_000001_000005.html" target="_top" xlink:title="4">
<text text-anchor="middle" x="197.39" y="-19.16" font-family="Helvetica,sans-Serif" font-size="10.00" fill="#63b8ff">4</text>
</a>
</g>
</g>
<!-- dir_7b13917f847da1f7b289bf78886ebc77 -->
<g id="node3" class="node">
<title>dir_7b13917f847da1f7b289bf78886ebc77</title>
<g id="a_node3"><a xlink:href="dir_7b13917f847da1f7b289bf78886ebc77.html" target="_top" xlink:title="Callbacks">
<polygon fill="#4ea9ff" stroke="#404040" points="202,-74 138,-74 138,-55 202,-55 202,-74"/>
<text text-anchor="middle" x="170" y="-62" font-family="Helvetica,sans-Serif" font-size="10.00">Callbacks</text>
</a>
</g>
</g>
<!-- dir_7b13917f847da1f7b289bf78886ebc77&#45;&gt;dir_d44c64559bbebec7f509842c48db8b23 -->
<g id="edge3" class="edge">
<title>dir_7b13917f847da1f7b289bf78886ebc77&#45;&gt;dir_d44c64559bbebec7f509842c48db8b23</title>
<g id="a_edge3"><a xlink:href="dir_000003_000005.html" target="_top">
<path fill="none" stroke="#63b8ff" d="M170,-54.75C170,-47.8 170,-37.85 170,-29.13"/>
<polygon fill="#63b8ff" stroke="#63b8ff" points="173.5,-29.09 170,-19.09 166.5,-29.09 173.5,-29.09"/>
</a>
</g>
<g id="a_edge3&#45;headlabel"><a xlink:href="dir_000003_000005.html" target="_top" xlink:title="6">
<text text-anchor="middle" x="176.34" y="-30.18" font-family="Helvetica,sans-Serif" font-size="10.00" fill="#63b8ff">6</text>
</a>
</g>
</g>
<!-- dir_fae119eb913a40fe8ed97cde8b98911e -->
<g id="node4" class="node">
<title>dir_fae119eb913a40fe8ed97cde8b98911e</title>
<g id="a_node4"><a xlink:href="dir_fae119eb913a40fe8ed97cde8b98911e.html" target="_top" xlink:title="IO">
<polygon fill="#4ea9ff" stroke="#404040" points="119.5,-74 90.5,-74 90.5,-55 119.5,-55 119.5,-74"/>
<text text-anchor="middle" x="105" y="-62" font-family="Helvetica,sans-Serif" font-size="10.00">IO</text>
</a>
</g>
</g>
<!-- dir_fae119eb913a40fe8ed97cde8b98911e&#45;&gt;dir_d44c64559bbebec7f509842c48db8b23 -->
<g id="edge4" class="edge">
<title>dir_fae119eb913a40fe8ed97cde8b98911e&#45;&gt;dir_d44c64559bbebec7f509842c48db8b23</title>
<g id="a_edge4"><a xlink:href="dir_000007_000005.html" target="_top">
<path fill="none" stroke="#63b8ff" d="M115.44,-54.98C125.15,-47.07 139.82,-35.11 151.5,-25.58"/>
<polygon fill="#63b8ff" stroke="#63b8ff" points="153.83,-28.2 159.37,-19.17 149.4,-22.78 153.83,-28.2"/>
</a>
</g>
<g id="a_edge4&#45;headlabel"><a xlink:href="dir_000007_000005.html" target="_top" xlink:title="1">
<text text-anchor="middle" x="152.84" y="-30.17" font-family="Helvetica,sans-Serif" font-size="10.00" fill="#63b8ff">1</text>
</a>
</g>
</g>
<!-- dir_b8f4473302bc85bc90141e5ae078c276 -->
<g id="node5" class="node">
<title>dir_b8f4473302bc85bc90141e5ae078c276</title>
<g id="a_node5"><a xlink:href="dir_b8f4473302bc85bc90141e5ae078c276.html" target="_top" xlink:title="Matcher">
<polygon fill="#4ea9ff" stroke="#404040" points="72,-74 16,-74 16,-55 72,-55 72,-74"/>
<text text-anchor="middle" x="44" y="-62" font-family="Helvetica,sans-Serif" font-size="10.00">Matcher</text>
</a>
</g>
</g>
<!-- dir_b8f4473302bc85bc90141e5ae078c276&#45;&gt;dir_d44c64559bbebec7f509842c48db8b23 -->
<g id="edge5" class="edge">
<title>dir_b8f4473302bc85bc90141e5ae078c276&#45;&gt;dir_d44c64559bbebec7f509842c48db8b23</title>
<g id="a_edge5"><a xlink:href="dir_000009_000005.html" target="_top">
<path fill="none" stroke="#63b8ff" d="M63.7,-54.87C69.58,-52.32 76.04,-49.53 82,-47 101.09,-38.9 122.59,-29.97 139.56,-22.98"/>
<polygon fill="#63b8ff" stroke="#63b8ff" points="141.06,-26.15 148.98,-19.11 138.4,-19.67 141.06,-26.15"/>
</a>
</g>
<g id="a_edge5&#45;headlabel"><a xlink:href="dir_000009_000005.html" target="_top" xlink:title="1">
<text text-anchor="middle" x="138.82" y="-27.64" font-family="Helvetica,sans-Serif" font-size="10.00" fill="#63b8ff">1</text>
</a>
</g>
</g>
</g>
</svg>
