<?xml version="1.0" encoding="UTF-8" standalone="no"?>
<!DOCTYPE svg PUBLIC "-//W3C//DTD SVG 1.1//EN"
 "http://www.w3.org/Graphics/SVG/1.1/DTD/svg11.dtd">
<!-- Generated by graphviz version 2.43.0 (0)
 -->
<!-- Title: src Pages: 1 -->
<svg width="322pt" height="132pt"
 viewBox="0.00 0.00 322.00 132.00" xmlns="http://www.w3.org/2000/svg" xmlns:xlink="http://www.w3.org/1999/xlink">
<g id="graph0" class="graph" transform="scale(1 1) rotate(0) translate(4 128)">
<title>src</title>
<g id="clust1" class="cluster">
<title>clusterdir_68267d1309a1af8e8297ef4c3efbcdba</title>
<g id="a_clust1"><a xlink:href="dir_68267d1309a1af8e8297ef4c3efbcdba.html" target="_top">
<polygon fill="#eeeeff" stroke="black" points="8,-64 8,-116 306,-116 306,-64 8,-64"/>
</a>
</g>
</g>
<!-- dir_68267d1309a1af8e8297ef4c3efbcdba -->
<g id="node1" class="node">
<title>dir_68267d1309a1af8e8297ef4c3efbcdba</title>
<text text-anchor="middle" x="271" y="-87.5" font-family="Helvetica,sans-Serif" font-size="10.00">src</text>
</g>
<!-- dir_0f2339d204149e590ec376b2c2ae3818 -->
<g id="node2" class="node">
<title>dir_0f2339d204149e590ec376b2c2ae3818</title>
<g id="a_node2"><a xlink:href="dir_0f2339d204149e590ec376b2c2ae3818.html" target="_top" xlink:title="Actions">
<polygon fill="white" stroke="black" points="226,-108 172,-108 172,-72 226,-72 226,-108"/>
<text text-anchor="middle" x="199" y="-87.5" font-family="Helvetica,sans-Serif" font-size="10.00">Actions</text>
</a>
</g>
</g>
<!-- dir_d44c64559bbebec7f509842c48db8b23 -->
<g id="node5" class="node">
<title>dir_d44c64559bbebec7f509842c48db8b23</title>
<g id="a_node5"><a xlink:href="dir_d44c64559bbebec7f509842c48db8b23.html" target="_top" xlink:title="include">
<polygon fill="none" stroke="red" points="149,-36 95,-36 95,0 149,0 149,-36"/>
<text text-anchor="middle" x="122" y="-15.5" font-family="Helvetica,sans-Serif" font-size="10.00">include</text>
</a>
</g>
</g>
<!-- dir_0f2339d204149e590ec376b2c2ae3818&#45;&gt;dir_d44c64559bbebec7f509842c48db8b23 -->
<g id="edge1" class="edge">
<title>dir_0f2339d204149e590ec376b2c2ae3818&#45;&gt;dir_d44c64559bbebec7f509842c48db8b23</title>
<path fill="none" stroke="black" d="M179.97,-71.7C170.46,-63.05 158.79,-52.45 148.43,-43.03"/>
<polygon fill="black" stroke="black" points="150.57,-40.24 140.81,-36.1 145.86,-45.42 150.57,-40.24"/>
<g id="a_edge1&#45;headlabel"><a xlink:href="dir_000006_000001.html" target="_top" xlink:title="4">
<text text-anchor="middle" x="155.14" y="-38.06" font-family="Helvetica,sans-Serif" font-size="10.00">4</text>
</a>
</g>
</g>
<!-- dir_7b13917f847da1f7b289bf78886ebc77 -->
<g id="node3" class="node">
<title>dir_7b13917f847da1f7b289bf78886ebc77</title>
<g id="a_node3"><a xlink:href="dir_7b13917f847da1f7b289bf78886ebc77.html" target="_top" xlink:title="Callbacks">
<polygon fill="white" stroke="black" points="154,-108 90,-108 90,-72 154,-72 154,-108"/>
<text text-anchor="middle" x="122" y="-87.5" font-family="Helvetica,sans-Serif" font-size="10.00">Callbacks</text>
</a>
</g>
</g>
<!-- dir_7b13917f847da1f7b289bf78886ebc77&#45;&gt;dir_d44c64559bbebec7f509842c48db8b23 -->
<g id="edge2" class="edge">
<title>dir_7b13917f847da1f7b289bf78886ebc77&#45;&gt;dir_d44c64559bbebec7f509842c48db8b23</title>
<path fill="none" stroke="black" d="M122,-71.7C122,-63.98 122,-54.71 122,-46.11"/>
<polygon fill="black" stroke="black" points="125.5,-46.1 122,-36.1 118.5,-46.1 125.5,-46.1"/>
<g id="a_edge2&#45;headlabel"><a xlink:href="dir_000007_000001.html" target="_top" xlink:title="6">
<text text-anchor="middle" x="128.34" y="-47.2" font-family="Helvetica,sans-Serif" font-size="10.00">6</text>
</a>
</g>
</g>
<!-- dir_b8f4473302bc85bc90141e5ae078c276 -->
<g id="node4" class="node">
<title>dir_b8f4473302bc85bc90141e5ae078c276</title>
<g id="a_node4"><a xlink:href="dir_b8f4473302bc85bc90141e5ae078c276.html" target="_top" xlink:title="Matcher">
<polygon fill="white" stroke="black" points="72,-108 16,-108 16,-72 72,-72 72,-108"/>
<text text-anchor="middle" x="44" y="-87.5" font-family="Helvetica,sans-Serif" font-size="10.00">Matcher</text>
</a>
</g>
</g>
<!-- dir_b8f4473302bc85bc90141e5ae078c276&#45;&gt;dir_d44c64559bbebec7f509842c48db8b23 -->
<g id="edge3" class="edge">
<title>dir_b8f4473302bc85bc90141e5ae078c276&#45;&gt;dir_d44c64559bbebec7f509842c48db8b23</title>
<path fill="none" stroke="black" d="M63.28,-71.7C72.92,-63.05 84.73,-52.45 95.23,-43.03"/>
<polygon fill="black" stroke="black" points="97.84,-45.39 102.94,-36.1 93.16,-40.18 97.84,-45.39"/>
<g id="a_edge3&#45;headlabel"><a xlink:href="dir_000008_000001.html" target="_top" xlink:title="1">
<text text-anchor="middle" x="97.06" y="-47.4" font-family="Helvetica,sans-Serif" font-size="10.00">1</text>
</a>
</g>
</g>
</g>
</svg>
