<?xml version="1.0" encoding="UTF-8" standalone="no"?>
<!DOCTYPE svg PUBLIC "-//W3C//DTD SVG 1.1//EN"
 "http://www.w3.org/Graphics/SVG/1.1/DTD/svg11.dtd">
<!-- Generated by graphviz version 2.43.0 (0)
 -->
<!-- Title: src/Callbacks/GetNeededInstantiations.cpp Pages: 1 -->
<svg width="1111pt" height="263pt"
 viewBox="0.00 0.00 1110.50 263.00" xmlns="http://www.w3.org/2000/svg" xmlns:xlink="http://www.w3.org/1999/xlink">
<g id="graph0" class="graph" transform="scale(1 1) rotate(0) translate(4 259)">
<title>src/Callbacks/GetNeededInstantiations.cpp</title>
<!-- Node1 -->
<g id="node1" class="node">
<title>Node1</title>
<g id="a_node1"><a xlink:title=" ">
<polygon fill="#bfbfbf" stroke="black" points="514,-235.5 514,-254.5 740,-254.5 740,-235.5 514,-235.5"/>
<text text-anchor="middle" x="627" y="-242.5" font-family="Helvetica,sans-Serif" font-size="10.00">src/Callbacks/GetNeededInstantiations.cpp</text>
</a>
</g>
</g>
<!-- Node2 -->
<g id="node2" class="node">
<title>Node2</title>
<g id="a_node2"><a xlink:title=" ">
<polygon fill="none" stroke="#bfbfbf" points="185,-179.5 185,-198.5 245,-198.5 245,-179.5 185,-179.5"/>
<text text-anchor="middle" x="215" y="-186.5" font-family="Helvetica,sans-Serif" font-size="10.00">iostream</text>
</a>
</g>
</g>
<!-- Node1&#45;&gt;Node2 -->
<g id="edge1" class="edge">
<title>Node1&#45;&gt;Node2</title>
<path fill="none" stroke="midnightblue" d="M541.21,-235.48C466.45,-227.58 355.24,-214.7 259,-199 257.74,-198.8 256.47,-198.58 255.19,-198.36"/>
<polygon fill="midnightblue" stroke="midnightblue" points="255.71,-194.89 245.24,-196.52 254.43,-201.78 255.71,-194.89"/>
</g>
<!-- Node3 -->
<g id="node3" class="node">
<title>Node3</title>
<g id="a_node3"><a xlink:title=" ">
<polygon fill="none" stroke="#bfbfbf" points="0,-56.5 0,-75.5 56,-75.5 56,-56.5 0,-56.5"/>
<text text-anchor="middle" x="28" y="-63.5" font-family="Helvetica,sans-Serif" font-size="10.00">optional</text>
</a>
</g>
</g>
<!-- Node1&#45;&gt;Node3 -->
<g id="edge2" class="edge">
<title>Node1&#45;&gt;Node3</title>
<path fill="none" stroke="midnightblue" d="M544.42,-235.49C489.02,-228.58 414.78,-216.98 351,-199 236.83,-166.81 108.34,-106.64 54.23,-80.12"/>
<polygon fill="midnightblue" stroke="midnightblue" points="55.53,-76.86 45.02,-75.58 52.44,-83.14 55.53,-76.86"/>
</g>
<!-- Node4 -->
<g id="node4" class="node">
<title>Node4</title>
<g id="a_node4"><a xlink:href="GetNeededInstantiations_8hpp.html" target="_top" xlink:title=" ">
<polygon fill="none" stroke="black" points="379.5,-179.5 379.5,-198.5 588.5,-198.5 588.5,-179.5 379.5,-179.5"/>
<text text-anchor="middle" x="484" y="-186.5" font-family="Helvetica,sans-Serif" font-size="10.00">Callbacks/GetNeededInstantiations.hpp</text>
</a>
</g>
</g>
<!-- Node1&#45;&gt;Node4 -->
<g id="edge3" class="edge">
<title>Node1&#45;&gt;Node4</title>
<path fill="none" stroke="midnightblue" d="M604.34,-235.44C580.6,-226.48 543.09,-212.31 516.26,-202.18"/>
<polygon fill="midnightblue" stroke="midnightblue" points="517.14,-198.77 506.55,-198.52 514.67,-205.32 517.14,-198.77"/>
</g>
<!-- Node7 -->
<g id="node7" class="node">
<title>Node7</title>
<g id="a_node7"><a xlink:href="Injection_8hpp.html" target="_top" xlink:title=" ">
<polygon fill="none" stroke="black" points="301,-118 301,-137 381,-137 381,-118 301,-118"/>
<text text-anchor="middle" x="341" y="-125" font-family="Helvetica,sans-Serif" font-size="10.00">Injection.hpp</text>
</a>
</g>
</g>
<!-- Node1&#45;&gt;Node7 -->
<g id="edge24" class="edge">
<title>Node1&#45;&gt;Node7</title>
<path fill="none" stroke="midnightblue" d="M518.53,-235.47C459.12,-228.8 392.99,-217.48 370,-199 354.07,-186.2 346.81,-163.2 343.55,-146.96"/>
<polygon fill="midnightblue" stroke="midnightblue" points="346.99,-146.28 341.88,-137 340.08,-147.44 346.99,-146.28"/>
</g>
<!-- Node10 -->
<g id="node10" class="node">
<title>Node10</title>
<g id="a_node10"><a xlink:title=" ">
<polygon fill="none" stroke="#bfbfbf" points="517.5,-56.5 517.5,-75.5 636.5,-75.5 636.5,-56.5 517.5,-56.5"/>
<text text-anchor="middle" x="577" y="-63.5" font-family="Helvetica,sans-Serif" font-size="10.00">clang/AST/DeclCXX.h</text>
</a>
</g>
</g>
<!-- Node1&#45;&gt;Node10 -->
<g id="edge22" class="edge">
<title>Node1&#45;&gt;Node10</title>
<path fill="none" stroke="midnightblue" d="M627.1,-235.32C627.06,-213.69 625.22,-155.98 608,-112 603.99,-101.75 597.24,-91.55 591.07,-83.45"/>
<polygon fill="midnightblue" stroke="midnightblue" points="593.74,-81.2 584.75,-75.6 588.29,-85.58 593.74,-81.2"/>
</g>
<!-- Node14 -->
<g id="node14" class="node">
<title>Node14</title>
<g id="a_node14"><a xlink:title=" ">
<polygon fill="none" stroke="#bfbfbf" points="616,-0.5 616,-19.5 714,-19.5 714,-0.5 616,-0.5"/>
<text text-anchor="middle" x="665" y="-7.5" font-family="Helvetica,sans-Serif" font-size="10.00">clang/AST/Decl.h</text>
</a>
</g>
</g>
<!-- Node1&#45;&gt;Node14 -->
<g id="edge21" class="edge">
<title>Node1&#45;&gt;Node14</title>
<path fill="none" stroke="midnightblue" d="M629.36,-235.43C631.78,-226.41 635.52,-211.79 638,-199 649.88,-137.61 658.98,-64.01 662.89,-29.97"/>
<polygon fill="midnightblue" stroke="midnightblue" points="666.41,-30 664.06,-19.67 659.46,-29.21 666.41,-30"/>
</g>
<!-- Node17 -->
<g id="node17" class="node">
<title>Node17</title>
<g id="a_node17"><a xlink:title=" ">
<polygon fill="none" stroke="#bfbfbf" points="693.5,-179.5 693.5,-198.5 792.5,-198.5 792.5,-179.5 693.5,-179.5"/>
<text text-anchor="middle" x="743" y="-186.5" font-family="Helvetica,sans-Serif" font-size="10.00">llvm/ADT/APInt.h</text>
</a>
</g>
</g>
<!-- Node1&#45;&gt;Node17 -->
<g id="edge19" class="edge">
<title>Node1&#45;&gt;Node17</title>
<path fill="none" stroke="midnightblue" d="M645.38,-235.44C664.22,-226.68 693.73,-212.94 715.38,-202.86"/>
<polygon fill="midnightblue" stroke="midnightblue" points="717.12,-205.91 724.71,-198.52 714.16,-199.56 717.12,-205.91"/>
</g>
<!-- Node18 -->
<g id="node18" class="node">
<title>Node18</title>
<g id="a_node18"><a xlink:title=" ">
<polygon fill="none" stroke="#bfbfbf" points="811,-179.5 811,-198.5 941,-198.5 941,-179.5 811,-179.5"/>
<text text-anchor="middle" x="876" y="-186.5" font-family="Helvetica,sans-Serif" font-size="10.00">llvm/ADT/SmallString.h</text>
</a>
</g>
</g>
<!-- Node1&#45;&gt;Node18 -->
<g id="edge20" class="edge">
<title>Node1&#45;&gt;Node18</title>
<path fill="none" stroke="midnightblue" d="M666.45,-235.44C709.89,-226.02 779.79,-210.87 826.78,-200.68"/>
<polygon fill="midnightblue" stroke="midnightblue" points="827.7,-204.06 836.73,-198.52 826.22,-197.22 827.7,-204.06"/>
</g>
<!-- Node19 -->
<g id="node19" class="node">
<title>Node19</title>
<g id="a_node19"><a xlink:title=" ">
<polygon fill="none" stroke="#bfbfbf" points="959.5,-179.5 959.5,-198.5 1102.5,-198.5 1102.5,-179.5 959.5,-179.5"/>
<text text-anchor="middle" x="1031" y="-186.5" font-family="Helvetica,sans-Serif" font-size="10.00">clang/AST/DeclTemplate.h</text>
</a>
</g>
</g>
<!-- Node1&#45;&gt;Node19 -->
<g id="edge23" class="edge">
<title>Node1&#45;&gt;Node19</title>
<path fill="none" stroke="midnightblue" d="M691.02,-235.44C763.41,-225.77 881.11,-210.04 957.28,-199.85"/>
<polygon fill="midnightblue" stroke="midnightblue" points="957.84,-203.31 967.28,-198.52 956.91,-196.37 957.84,-203.31"/>
</g>
<!-- Node5 -->
<g id="node5" class="node">
<title>Node5</title>
<g id="a_node5"><a xlink:title=" ">
<polygon fill="none" stroke="#bfbfbf" points="452.5,-56.5 452.5,-75.5 499.5,-75.5 499.5,-56.5 452.5,-56.5"/>
<text text-anchor="middle" x="476" y="-63.5" font-family="Helvetica,sans-Serif" font-size="10.00">vector</text>
</a>
</g>
</g>
<!-- Node4&#45;&gt;Node5 -->
<g id="edge4" class="edge">
<title>Node4&#45;&gt;Node5</title>
<path fill="none" stroke="midnightblue" d="M466.5,-179.46C453.21,-171.92 435.92,-159.53 428,-143 422.05,-130.58 422.52,-124.64 428,-112 433.27,-99.84 443.62,-89.46 453.36,-81.74"/>
<polygon fill="midnightblue" stroke="midnightblue" points="455.64,-84.41 461.63,-75.67 451.5,-78.77 455.64,-84.41"/>
</g>
<!-- Node6 -->
<g id="node6" class="node">
<title>Node6</title>
<g id="a_node6"><a xlink:title=" ">
<polygon fill="none" stroke="#bfbfbf" points="437.5,-112.5 437.5,-142.5 598.5,-142.5 598.5,-112.5 437.5,-112.5"/>
<text text-anchor="start" x="445.5" y="-130.5" font-family="Helvetica,sans-Serif" font-size="10.00">clang/ASTMatchers/ASTMatch</text>
<text text-anchor="middle" x="518" y="-119.5" font-family="Helvetica,sans-Serif" font-size="10.00">Finder.h</text>
</a>
</g>
</g>
<!-- Node4&#45;&gt;Node6 -->
<g id="edge5" class="edge">
<title>Node4&#45;&gt;Node6</title>
<path fill="none" stroke="midnightblue" d="M488.87,-179.48C493.05,-172.17 499.26,-161.3 504.87,-151.47"/>
<polygon fill="midnightblue" stroke="midnightblue" points="508.06,-152.94 509.99,-142.52 501.99,-149.47 508.06,-152.94"/>
</g>
<!-- Node4&#45;&gt;Node7 -->
<g id="edge6" class="edge">
<title>Node4&#45;&gt;Node7</title>
<path fill="none" stroke="midnightblue" d="M463.51,-179.48C439.19,-169.36 398.45,-152.4 370.68,-140.85"/>
<polygon fill="midnightblue" stroke="midnightblue" points="372.03,-137.62 361.45,-137.01 369.34,-144.08 372.03,-137.62"/>
</g>
<!-- Node7&#45;&gt;Node3 -->
<g id="edge7" class="edge">
<title>Node7&#45;&gt;Node3</title>
<path fill="none" stroke="midnightblue" d="M311.42,-117.98C303.53,-115.86 294.97,-113.71 287,-112 192.42,-91.69 164.74,-95.54 66.3,-76.13"/>
<polygon fill="midnightblue" stroke="midnightblue" points="66.72,-72.64 56.23,-74.11 65.35,-79.5 66.72,-72.64"/>
</g>
<!-- Node7&#45;&gt;Node5 -->
<g id="edge9" class="edge">
<title>Node7&#45;&gt;Node5</title>
<path fill="none" stroke="midnightblue" d="M360.34,-117.98C383.1,-107.95 421.09,-91.2 447.29,-79.65"/>
<polygon fill="midnightblue" stroke="midnightblue" points="448.95,-82.74 456.69,-75.51 446.13,-76.34 448.95,-82.74"/>
</g>
<!-- Node8 -->
<g id="node8" class="node">
<title>Node8</title>
<g id="a_node8"><a xlink:title=" ">
<polygon fill="none" stroke="#bfbfbf" points="140,-0.5 140,-19.5 184,-19.5 184,-0.5 140,-0.5"/>
<text text-anchor="middle" x="162" y="-7.5" font-family="Helvetica,sans-Serif" font-size="10.00">string</text>
</a>
</g>
</g>
<!-- Node7&#45;&gt;Node8 -->
<g id="edge8" class="edge">
<title>Node7&#45;&gt;Node8</title>
<path fill="none" stroke="midnightblue" d="M311.06,-117.94C285.6,-109.75 248.86,-95.72 221,-76 202.23,-62.71 185.08,-42.49 174.17,-28.14"/>
<polygon fill="midnightblue" stroke="midnightblue" points="176.69,-25.67 167.94,-19.69 171.06,-29.82 176.69,-25.67"/>
</g>
<!-- Node9 -->
<g id="node9" class="node">
<title>Node9</title>
<g id="a_node9"><a xlink:title=" ">
<polygon fill="none" stroke="#bfbfbf" points="316,-56.5 316,-75.5 434,-75.5 434,-56.5 316,-56.5"/>
<text text-anchor="middle" x="375" y="-63.5" font-family="Helvetica,sans-Serif" font-size="10.00">llvm/ADT/StringRef.h</text>
</a>
</g>
</g>
<!-- Node7&#45;&gt;Node9 -->
<g id="edge10" class="edge">
<title>Node7&#45;&gt;Node9</title>
<path fill="none" stroke="midnightblue" d="M345.87,-117.98C350.87,-109.23 358.79,-95.37 365.11,-84.31"/>
<polygon fill="midnightblue" stroke="midnightblue" points="368.22,-85.93 370.14,-75.51 362.14,-82.46 368.22,-85.93"/>
</g>
<!-- Node7&#45;&gt;Node10 -->
<g id="edge11" class="edge">
<title>Node7&#45;&gt;Node10</title>
<path fill="none" stroke="midnightblue" d="M374.81,-117.98C416.52,-107.46 487.51,-89.56 533.31,-78.01"/>
<polygon fill="midnightblue" stroke="midnightblue" points="534.41,-81.35 543.25,-75.51 532.7,-74.56 534.41,-81.35"/>
</g>
<!-- Node11 -->
<g id="node11" class="node">
<title>Node11</title>
<g id="a_node11"><a xlink:title=" ">
<polygon fill="none" stroke="#bfbfbf" points="74.5,-56.5 74.5,-75.5 173.5,-75.5 173.5,-56.5 74.5,-56.5"/>
<text text-anchor="middle" x="124" y="-63.5" font-family="Helvetica,sans-Serif" font-size="10.00">clang/AST/Type.h</text>
</a>
</g>
</g>
<!-- Node7&#45;&gt;Node11 -->
<g id="edge12" class="edge">
<title>Node7&#45;&gt;Node11</title>
<path fill="none" stroke="midnightblue" d="M309.91,-117.98C271.72,-107.5 206.83,-89.71 164.7,-78.16"/>
<polygon fill="midnightblue" stroke="midnightblue" points="165.6,-74.78 155.03,-75.51 163.75,-81.53 165.6,-74.78"/>
</g>
<!-- Node12 -->
<g id="node12" class="node">
<title>Node12</title>
<g id="a_node12"><a xlink:href="Param_8hpp.html" target="_top" xlink:title=" ">
<polygon fill="none" stroke="black" points="230,-56.5 230,-75.5 298,-75.5 298,-56.5 230,-56.5"/>
<text text-anchor="middle" x="264" y="-63.5" font-family="Helvetica,sans-Serif" font-size="10.00">Param.hpp</text>
</a>
</g>
</g>
<!-- Node7&#45;&gt;Node12 -->
<g id="edge13" class="edge">
<title>Node7&#45;&gt;Node12</title>
<path fill="none" stroke="midnightblue" d="M329.97,-117.98C317.73,-108.52 297.77,-93.1 283.01,-81.69"/>
<polygon fill="midnightblue" stroke="midnightblue" points="285.06,-78.85 275.01,-75.51 280.78,-84.39 285.06,-78.85"/>
</g>
<!-- Node12&#45;&gt;Node8 -->
<g id="edge15" class="edge">
<title>Node12&#45;&gt;Node8</title>
<path fill="none" stroke="midnightblue" d="M247.61,-56.32C231.33,-47.7 206.13,-34.36 187.28,-24.39"/>
<polygon fill="midnightblue" stroke="midnightblue" points="188.82,-21.24 178.35,-19.65 185.55,-27.43 188.82,-21.24"/>
</g>
<!-- Node13 -->
<g id="node13" class="node">
<title>Node13</title>
<g id="a_node13"><a xlink:title=" ">
<polygon fill="none" stroke="#bfbfbf" points="202.5,-0.5 202.5,-19.5 259.5,-19.5 259.5,-0.5 202.5,-0.5"/>
<text text-anchor="middle" x="231" y="-7.5" font-family="Helvetica,sans-Serif" font-size="10.00">ostream</text>
</a>
</g>
</g>
<!-- Node12&#45;&gt;Node13 -->
<g id="edge14" class="edge">
<title>Node12&#45;&gt;Node13</title>
<path fill="none" stroke="midnightblue" d="M258.55,-56.08C253.99,-48.61 247.33,-37.72 241.71,-28.52"/>
<polygon fill="midnightblue" stroke="midnightblue" points="244.55,-26.46 236.35,-19.75 238.58,-30.11 244.55,-26.46"/>
</g>
<!-- Node12&#45;&gt;Node14 -->
<g id="edge16" class="edge">
<title>Node12&#45;&gt;Node14</title>
<path fill="none" stroke="midnightblue" d="M298.22,-57.56C301.18,-57 304.14,-56.47 307,-56 436.28,-34.76 472.22,-38.12 605.76,-20.12"/>
<polygon fill="midnightblue" stroke="midnightblue" points="606.53,-23.55 615.97,-18.73 605.59,-16.61 606.53,-23.55"/>
</g>
<!-- Node15 -->
<g id="node15" class="node">
<title>Node15</title>
<g id="a_node15"><a xlink:title=" ">
<polygon fill="none" stroke="#bfbfbf" points="278,-0.5 278,-19.5 442,-19.5 442,-0.5 278,-0.5"/>
<text text-anchor="middle" x="360" y="-7.5" font-family="Helvetica,sans-Serif" font-size="10.00">clang/AST/DependenceFlags.h</text>
</a>
</g>
</g>
<!-- Node12&#45;&gt;Node15 -->
<g id="edge17" class="edge">
<title>Node12&#45;&gt;Node15</title>
<path fill="none" stroke="midnightblue" d="M279.42,-56.32C294.54,-47.82 317.82,-34.73 335.47,-24.8"/>
<polygon fill="midnightblue" stroke="midnightblue" points="337.61,-27.61 344.61,-19.65 334.18,-21.51 337.61,-27.61"/>
</g>
<!-- Node16 -->
<g id="node16" class="node">
<title>Node16</title>
<g id="a_node16"><a xlink:title=" ">
<polygon fill="none" stroke="#bfbfbf" points="460.5,-0.5 460.5,-19.5 597.5,-19.5 597.5,-0.5 460.5,-0.5"/>
<text text-anchor="middle" x="529" y="-7.5" font-family="Helvetica,sans-Serif" font-size="10.00">clang/AST/PrettyPrinter.h</text>
</a>
</g>
</g>
<!-- Node12&#45;&gt;Node16 -->
<g id="edge18" class="edge">
<title>Node12&#45;&gt;Node16</title>
<path fill="none" stroke="midnightblue" d="M298.26,-57.81C301.22,-57.19 304.16,-56.58 307,-56 365.01,-44.05 431.6,-30.59 476.6,-21.52"/>
<polygon fill="midnightblue" stroke="midnightblue" points="477.31,-24.95 486.42,-19.55 475.93,-18.09 477.31,-24.95"/>
</g>
</g>
</svg>
