<?xml version="1.0" encoding="UTF-8" standalone="no"?>
<!DOCTYPE svg PUBLIC "-//W3C//DTD SVG 1.1//EN"
 "http://www.w3.org/Graphics/SVG/1.1/DTD/svg11.dtd">
<!-- Generated by graphviz version 2.43.0 (0)
 -->
<!-- Title: src/Callbacks/GetNeededInstantiations.cpp Pages: 1 -->
<svg width="1026pt" height="258pt"
 viewBox="0.00 0.00 1026.00 258.00" xmlns="http://www.w3.org/2000/svg" xmlns:xlink="http://www.w3.org/1999/xlink">
<g id="graph0" class="graph" transform="scale(1 1) rotate(0) translate(4 254)">
<title>src/Callbacks/GetNeededInstantiations.cpp</title>
<!-- Node1 -->
<g id="Node000001" class="node">
<title>Node1</title>
<g id="a_Node000001"><a xlink:title=" ">
<polygon fill="#999999" stroke="#666666" points="623,-250 397,-250 397,-231 623,-231 623,-250"/>
<text text-anchor="middle" x="510" y="-238" font-family="Helvetica,sans-Serif" font-size="10.00">src/Callbacks/GetNeededInstantiations.cpp</text>
</a>
</g>
</g>
<!-- Node2 -->
<g id="Node000002" class="node">
<title>Node2</title>
<g id="a_Node000002"><a xlink:href="GetNeededInstantiations_8hpp.html" target="_top" xlink:title=" ">
<polygon fill="white" stroke="#666666" points="517.5,-195 308.5,-195 308.5,-176 517.5,-176 517.5,-195"/>
<text text-anchor="middle" x="413" y="-183" font-family="Helvetica,sans-Serif" font-size="10.00">Callbacks/GetNeededInstantiations.hpp</text>
</a>
</g>
</g>
<!-- Node1&#45;&gt;Node2 -->
<g id="edge1_Node000001_Node000002" class="edge">
<title>Node1&#45;&gt;Node2</title>
<g id="a_edge1_Node000001_Node000002"><a xlink:title=" ">
<path fill="none" stroke="#63b8ff" d="M494.42,-230.98C479.23,-222.69 455.9,-209.94 438.1,-200.22"/>
<polygon fill="#63b8ff" stroke="#63b8ff" points="439.32,-196.89 428.87,-195.17 435.97,-203.04 439.32,-196.89"/>
</a>
</g>
</g>
<!-- Node3 -->
<g id="Node000003" class="node">
<title>Node3</title>
<g id="a_Node000003"><a xlink:href="Injection_8hpp.html" target="_top" xlink:title=" ">
<polygon fill="white" stroke="#666666" points="370,-134.5 290,-134.5 290,-115.5 370,-115.5 370,-134.5"/>
<text text-anchor="middle" x="330" y="-122.5" font-family="Helvetica,sans-Serif" font-size="10.00">Injection.hpp</text>
</a>
</g>
</g>
<!-- Node1&#45;&gt;Node3 -->
<g id="edge18_Node000001_Node000003" class="edge">
<title>Node1&#45;&gt;Node3</title>
<g id="a_edge18_Node000001_Node000003"><a xlink:title=" ">
<path fill="none" stroke="#63b8ff" d="M414.1,-230.98C365.61,-224.47 313.92,-213.39 299,-195 286.16,-179.17 300.29,-157.16 313.41,-142.29"/>
<polygon fill="#63b8ff" stroke="#63b8ff" points="316.11,-144.53 320.41,-134.85 311.01,-139.73 316.11,-144.53"/>
</a>
</g>
</g>
<!-- Node7 -->
<g id="Node000007" class="node">
<title>Node7</title>
<g id="a_Node000007"><a xlink:title=" ">
<polygon fill="#e0e0e0" stroke="#999999" points="98,-19 0,-19 0,0 98,0 98,-19"/>
<text text-anchor="middle" x="49" y="-7" font-family="Helvetica,sans-Serif" font-size="10.00">clang/AST/Decl.h</text>
</a>
</g>
</g>
<!-- Node1&#45;&gt;Node7 -->
<g id="edge19_Node000001_Node000007" class="edge">
<title>Node1&#45;&gt;Node7</title>
<g id="a_edge19_Node000001_Node000007"><a xlink:title=" ">
<path fill="none" stroke="#63b8ff" d="M409.87,-230.99C361.87,-224.67 304.24,-213.76 255,-195 159.69,-158.68 117.04,-158.55 60,-74 51.1,-60.81 48.7,-42.68 48.31,-29.17"/>
<polygon fill="#63b8ff" stroke="#63b8ff" points="51.81,-29.14 48.37,-19.12 44.81,-29.1 51.81,-29.14"/>
</a>
</g>
</g>
<!-- Node11 -->
<g id="Node000011" class="node">
<title>Node11</title>
<g id="a_Node000011"><a xlink:title=" ">
<polygon fill="#e0e0e0" stroke="#999999" points="188.5,-74 69.5,-74 69.5,-55 188.5,-55 188.5,-74"/>
<text text-anchor="middle" x="129" y="-62" font-family="Helvetica,sans-Serif" font-size="10.00">clang/AST/DeclCXX.h</text>
</a>
</g>
</g>
<!-- Node1&#45;&gt;Node11 -->
<g id="edge20_Node000001_Node000011" class="edge">
<title>Node1&#45;&gt;Node11</title>
<g id="a_edge20_Node000001_Node000011"><a xlink:title=" ">
<path fill="none" stroke="#63b8ff" d="M418.88,-230.98C378.04,-224.7 330.13,-213.82 290,-195 228.52,-166.17 169.92,-109.16 143.57,-81.42"/>
<polygon fill="#63b8ff" stroke="#63b8ff" points="146.12,-79.02 136.73,-74.11 141.01,-83.8 146.12,-79.02"/>
</a>
</g>
</g>
<!-- Node15 -->
<g id="Node000015" class="node">
<title>Node15</title>
<g id="a_Node000015"><a xlink:title=" ">
<polygon fill="#e0e0e0" stroke="#999999" points="678.5,-195 535.5,-195 535.5,-176 678.5,-176 678.5,-195"/>
<text text-anchor="middle" x="607" y="-183" font-family="Helvetica,sans-Serif" font-size="10.00">clang/AST/DeclTemplate.h</text>
</a>
</g>
</g>
<!-- Node1&#45;&gt;Node15 -->
<g id="edge21_Node000001_Node000015" class="edge">
<title>Node1&#45;&gt;Node15</title>
<g id="a_edge21_Node000001_Node000015"><a xlink:title=" ">
<path fill="none" stroke="#63b8ff" d="M525.58,-230.98C540.77,-222.69 564.1,-209.94 581.9,-200.22"/>
<polygon fill="#63b8ff" stroke="#63b8ff" points="584.03,-203.04 591.13,-195.17 580.68,-196.89 584.03,-203.04"/>
</a>
</g>
</g>
<!-- Node16 -->
<g id="Node000016" class="node">
<title>Node16</title>
<g id="a_Node000016"><a xlink:title=" ">
<polygon fill="#e0e0e0" stroke="#999999" points="795.5,-195 696.5,-195 696.5,-176 795.5,-176 795.5,-195"/>
<text text-anchor="middle" x="746" y="-183" font-family="Helvetica,sans-Serif" font-size="10.00">llvm/ADT/APInt.h</text>
</a>
</g>
</g>
<!-- Node1&#45;&gt;Node16 -->
<g id="edge22_Node000001_Node000016" class="edge">
<title>Node1&#45;&gt;Node16</title>
<g id="a_edge22_Node000001_Node000016"><a xlink:title=" ">
<path fill="none" stroke="#63b8ff" d="M547.92,-230.98C588.65,-221.84 653.5,-207.27 697.82,-197.32"/>
<polygon fill="#63b8ff" stroke="#63b8ff" points="698.8,-200.69 707.79,-195.08 697.26,-193.86 698.8,-200.69"/>
</a>
</g>
</g>
<!-- Node17 -->
<g id="Node000017" class="node">
<title>Node17</title>
<g id="a_Node000017"><a xlink:title=" ">
<polygon fill="#e0e0e0" stroke="#999999" points="944,-195 814,-195 814,-176 944,-176 944,-195"/>
<text text-anchor="middle" x="879" y="-183" font-family="Helvetica,sans-Serif" font-size="10.00">llvm/ADT/SmallString.h</text>
</a>
</g>
</g>
<!-- Node1&#45;&gt;Node17 -->
<g id="edge23_Node000001_Node000017" class="edge">
<title>Node1&#45;&gt;Node17</title>
<g id="a_edge23_Node000001_Node000017"><a xlink:title=" ">
<path fill="none" stroke="#63b8ff" d="M569.29,-230.98C634.82,-221.57 740.26,-206.43 809.6,-196.47"/>
<polygon fill="#63b8ff" stroke="#63b8ff" points="810.15,-199.92 819.56,-195.04 809.16,-193 810.15,-199.92"/>
</a>
</g>
</g>
<!-- Node18 -->
<g id="Node000018" class="node">
<title>Node18</title>
<g id="a_Node000018"><a xlink:title=" ">
<polygon fill="#e0e0e0" stroke="#999999" points="1018,-195 962,-195 962,-176 1018,-176 1018,-195"/>
<text text-anchor="middle" x="990" y="-183" font-family="Helvetica,sans-Serif" font-size="10.00">optional</text>
</a>
</g>
</g>
<!-- Node1&#45;&gt;Node18 -->
<g id="edge24_Node000001_Node000018" class="edge">
<title>Node1&#45;&gt;Node18</title>
<g id="a_edge24_Node000001_Node000018"><a xlink:title=" ">
<path fill="none" stroke="#63b8ff" d="M623.4,-232.05C710.76,-225.4 834.65,-213.96 951.92,-194.98"/>
<polygon fill="#63b8ff" stroke="#63b8ff" points="952.49,-198.44 961.79,-193.37 951.36,-191.53 952.49,-198.44"/>
</a>
</g>
</g>
<!-- Node2&#45;&gt;Node3 -->
<g id="edge2_Node000002_Node000003" class="edge">
<title>Node2&#45;&gt;Node3</title>
<g id="a_edge2_Node000002_Node000003"><a xlink:title=" ">
<path fill="none" stroke="#63b8ff" d="M400.75,-175.87C387.64,-166.62 366.58,-151.78 350.85,-140.69"/>
<polygon fill="#63b8ff" stroke="#63b8ff" points="352.49,-137.57 342.3,-134.67 348.45,-143.29 352.49,-137.57"/>
</a>
</g>
</g>
<!-- Node13 -->
<g id="Node000013" class="node">
<title>Node13</title>
<g id="a_Node000013"><a xlink:title=" ">
<polygon fill="#e0e0e0" stroke="#999999" points="598.5,-74 551.5,-74 551.5,-55 598.5,-55 598.5,-74"/>
<text text-anchor="middle" x="575" y="-62" font-family="Helvetica,sans-Serif" font-size="10.00">vector</text>
</a>
</g>
</g>
<!-- Node2&#45;&gt;Node13 -->
<g id="edge17_Node000002_Node000013" class="edge">
<title>Node2&#45;&gt;Node13</title>
<g id="a_edge17_Node000002_Node000013"><a xlink:title=" ">
<path fill="none" stroke="#63b8ff" d="M493.01,-175.93C517.21,-169.56 541.88,-158.63 559,-140 572.82,-124.96 575.79,-100.97 575.97,-84.29"/>
<polygon fill="#63b8ff" stroke="#63b8ff" points="579.47,-84.03 575.75,-74.11 572.47,-84.19 579.47,-84.03"/>
</a>
</g>
</g>
<!-- Node14 -->
<g id="Node000014" class="node">
<title>Node14</title>
<g id="a_Node000014"><a xlink:title=" ">
<polygon fill="#e0e0e0" stroke="#999999" points="549.5,-140 388.5,-140 388.5,-110 549.5,-110 549.5,-140"/>
<text text-anchor="start" x="396.5" y="-128" font-family="Helvetica,sans-Serif" font-size="10.00">clang/ASTMatchers/ASTMatch</text>
<text text-anchor="middle" x="469" y="-117" font-family="Helvetica,sans-Serif" font-size="10.00">Finder.h</text>
</a>
</g>
</g>
<!-- Node2&#45;&gt;Node14 -->
<g id="edge16_Node000002_Node000014" class="edge">
<title>Node2&#45;&gt;Node14</title>
<g id="a_edge16_Node000002_Node000014"><a xlink:title=" ">
<path fill="none" stroke="#63b8ff" d="M421.26,-175.87C428.37,-168.44 438.93,-157.42 448.31,-147.62"/>
<polygon fill="#63b8ff" stroke="#63b8ff" points="451.1,-149.76 455.49,-140.11 446.05,-144.92 451.1,-149.76"/>
</a>
</g>
</g>
<!-- Node4 -->
<g id="Node000004" class="node">
<title>Node4</title>
<g id="a_Node000004"><a xlink:href="Param_8hpp.html" target="_top" xlink:title=" ">
<polygon fill="white" stroke="#666666" points="430,-74 362,-74 362,-55 430,-55 430,-74"/>
<text text-anchor="middle" x="396" y="-62" font-family="Helvetica,sans-Serif" font-size="10.00">Param.hpp</text>
</a>
</g>
</g>
<!-- Node3&#45;&gt;Node4 -->
<g id="edge3_Node000003_Node000004" class="edge">
<title>Node3&#45;&gt;Node4</title>
<g id="a_edge3_Node000003_Node000004"><a xlink:title=" ">
<path fill="none" stroke="#63b8ff" d="M339.74,-115.37C349.97,-106.3 366.29,-91.84 378.72,-80.82"/>
<polygon fill="#63b8ff" stroke="#63b8ff" points="381.06,-83.42 386.22,-74.17 376.42,-78.18 381.06,-83.42"/>
</a>
</g>
</g>
<!-- Node5 -->
<g id="Node000005" class="node">
<title>Node5</title>
<g id="a_Node000005"><a xlink:title=" ">
<polygon fill="#e0e0e0" stroke="#999999" points="189.5,-19 120.5,-19 120.5,0 189.5,0 189.5,-19"/>
<text text-anchor="middle" x="155" y="-7" font-family="Helvetica,sans-Serif" font-size="10.00">fmt/color.h</text>
</a>
</g>
</g>
<!-- Node3&#45;&gt;Node5 -->
<g id="edge10_Node000003_Node000005" class="edge">
<title>Node3&#45;&gt;Node5</title>
<g id="a_edge10_Node000003_Node000005"><a xlink:title=" ">
<path fill="none" stroke="#63b8ff" d="M330.61,-115.05C331.09,-100.47 329.81,-71.53 314,-55 305.94,-46.57 243.81,-30.86 199.66,-20.54"/>
<polygon fill="#63b8ff" stroke="#63b8ff" points="200.23,-17.08 189.7,-18.24 198.65,-23.9 200.23,-17.08"/>
</a>
</g>
</g>
<!-- Node6 -->
<g id="Node000006" class="node">
<title>Node6</title>
<g id="a_Node000006"><a xlink:title=" ">
<polygon fill="#e0e0e0" stroke="#999999" points="504.5,-19 437.5,-19 437.5,0 504.5,0 504.5,-19"/>
<text text-anchor="middle" x="471" y="-7" font-family="Helvetica,sans-Serif" font-size="10.00">fmt/core.h</text>
</a>
</g>
</g>
<!-- Node3&#45;&gt;Node6 -->
<g id="edge11_Node000003_Node000006" class="edge">
<title>Node3&#45;&gt;Node6</title>
<g id="a_edge11_Node000003_Node000006"><a xlink:title=" ">
<path fill="none" stroke="#63b8ff" d="M362.43,-115.45C386.07,-107.84 417.57,-94.66 439,-74 451.9,-61.56 460.46,-42.81 465.46,-28.9"/>
<polygon fill="#63b8ff" stroke="#63b8ff" points="468.91,-29.6 468.71,-19 462.26,-27.41 468.91,-29.6"/>
</a>
</g>
</g>
<!-- Node10 -->
<g id="Node000010" class="node">
<title>Node10</title>
<g id="a_Node000010"><a xlink:title=" ">
<polygon fill="#e0e0e0" stroke="#999999" points="567,-19 523,-19 523,0 567,0 567,-19"/>
<text text-anchor="middle" x="545" y="-7" font-family="Helvetica,sans-Serif" font-size="10.00">string</text>
</a>
</g>
</g>
<!-- Node3&#45;&gt;Node10 -->
<g id="edge14_Node000003_Node000010" class="edge">
<title>Node3&#45;&gt;Node10</title>
<g id="a_edge14_Node000003_Node000010"><a xlink:title=" ">
<path fill="none" stroke="#63b8ff" d="M359.14,-115.5C386.4,-106.95 427.78,-92.4 461,-74 485.92,-60.19 511.63,-39.67 527.93,-25.72"/>
<polygon fill="#63b8ff" stroke="#63b8ff" points="530.3,-28.3 535.54,-19.09 525.7,-23.01 530.3,-28.3"/>
</a>
</g>
</g>
<!-- Node3&#45;&gt;Node11 -->
<g id="edge12_Node000003_Node000011" class="edge">
<title>Node3&#45;&gt;Node11</title>
<g id="a_edge12_Node000003_Node000011"><a xlink:title=" ">
<path fill="none" stroke="#63b8ff" d="M300.77,-115.49C265.79,-105.31 207.07,-88.22 168.18,-76.9"/>
<polygon fill="#63b8ff" stroke="#63b8ff" points="168.84,-73.45 158.26,-74.02 166.89,-80.17 168.84,-73.45"/>
</a>
</g>
</g>
<!-- Node12 -->
<g id="Node000012" class="node">
<title>Node12</title>
<g id="a_Node000012"><a xlink:title=" ">
<polygon fill="#e0e0e0" stroke="#999999" points="305.5,-74 206.5,-74 206.5,-55 305.5,-55 305.5,-74"/>
<text text-anchor="middle" x="256" y="-62" font-family="Helvetica,sans-Serif" font-size="10.00">clang/AST/Type.h</text>
</a>
</g>
</g>
<!-- Node3&#45;&gt;Node12 -->
<g id="edge13_Node000003_Node000012" class="edge">
<title>Node3&#45;&gt;Node12</title>
<g id="a_edge13_Node000003_Node000012"><a xlink:title=" ">
<path fill="none" stroke="#63b8ff" d="M319.08,-115.37C307.49,-106.21 288.97,-91.56 274.98,-80.51"/>
<polygon fill="#63b8ff" stroke="#63b8ff" points="276.98,-77.62 266.96,-74.17 272.64,-83.11 276.98,-77.62"/>
</a>
</g>
</g>
<!-- Node3&#45;&gt;Node13 -->
<g id="edge15_Node000003_Node000013" class="edge">
<title>Node3&#45;&gt;Node13</title>
<g id="a_edge15_Node000003_Node000013"><a xlink:title=" ">
<path fill="none" stroke="#63b8ff" d="M358.95,-115.44C365.52,-113.58 372.49,-111.67 379,-110 435.78,-95.45 502.44,-80.84 541.56,-72.5"/>
<polygon fill="#63b8ff" stroke="#63b8ff" points="542.31,-75.92 551.37,-70.43 540.86,-69.08 542.31,-75.92"/>
</a>
</g>
</g>
<!-- Node4&#45;&gt;Node5 -->
<g id="edge4_Node000004_Node000005" class="edge">
<title>Node4&#45;&gt;Node5</title>
<g id="a_edge4_Node000004_Node000005"><a xlink:title=" ">
<path fill="none" stroke="#63b8ff" d="M361.98,-56.02C319.43,-46.66 246.48,-30.62 199.52,-20.29"/>
<polygon fill="#63b8ff" stroke="#63b8ff" points="200.14,-16.84 189.63,-18.11 198.64,-23.68 200.14,-16.84"/>
</a>
</g>
</g>
<!-- Node4&#45;&gt;Node6 -->
<g id="edge5_Node000004_Node000006" class="edge">
<title>Node4&#45;&gt;Node6</title>
<g id="a_edge5_Node000004_Node000006"><a xlink:title=" ">
<path fill="none" stroke="#63b8ff" d="M408.05,-54.98C419.46,-46.92 436.83,-34.65 450.43,-25.03"/>
<polygon fill="#63b8ff" stroke="#63b8ff" points="452.58,-27.8 458.73,-19.17 448.54,-22.08 452.58,-27.8"/>
</a>
</g>
</g>
<!-- Node4&#45;&gt;Node7 -->
<g id="edge6_Node000004_Node000007" class="edge">
<title>Node4&#45;&gt;Node7</title>
<g id="a_edge6_Node000004_Node000007"><a xlink:title=" ">
<path fill="none" stroke="#63b8ff" d="M361.78,-58.27C302.75,-49.26 181.1,-30.68 108.13,-19.53"/>
<polygon fill="#63b8ff" stroke="#63b8ff" points="108.58,-16.06 98.17,-18.01 107.52,-22.98 108.58,-16.06"/>
</a>
</g>
</g>
<!-- Node8 -->
<g id="Node000008" class="node">
<title>Node8</title>
<g id="a_Node000008"><a xlink:title=" ">
<polygon fill="#e0e0e0" stroke="#999999" points="344.5,-19 207.5,-19 207.5,0 344.5,0 344.5,-19"/>
<text text-anchor="middle" x="276" y="-7" font-family="Helvetica,sans-Serif" font-size="10.00">clang/AST/PrettyPrinter.h</text>
</a>
</g>
</g>
<!-- Node4&#45;&gt;Node8 -->
<g id="edge7_Node000004_Node000008" class="edge">
<title>Node4&#45;&gt;Node8</title>
<g id="a_edge7_Node000004_Node000008"><a xlink:title=" ">
<path fill="none" stroke="#63b8ff" d="M376.72,-54.98C357.33,-46.42 327.19,-33.11 304.93,-23.28"/>
<polygon fill="#63b8ff" stroke="#63b8ff" points="306.19,-20.01 295.63,-19.17 303.36,-26.41 306.19,-20.01"/>
</a>
</g>
</g>
<!-- Node9 -->
<g id="Node000009" class="node">
<title>Node9</title>
<g id="a_Node000009"><a xlink:title=" ">
<polygon fill="#e0e0e0" stroke="#999999" points="419.5,-19 362.5,-19 362.5,0 419.5,0 419.5,-19"/>
<text text-anchor="middle" x="391" y="-7" font-family="Helvetica,sans-Serif" font-size="10.00">ostream</text>
</a>
</g>
</g>
<!-- Node4&#45;&gt;Node9 -->
<g id="edge8_Node000004_Node000009" class="edge">
<title>Node4&#45;&gt;Node9</title>
<g id="a_edge8_Node000004_Node000009"><a xlink:title=" ">
<path fill="none" stroke="#63b8ff" d="M395.17,-54.75C394.52,-47.8 393.58,-37.85 392.76,-29.13"/>
<polygon fill="#63b8ff" stroke="#63b8ff" points="396.23,-28.72 391.81,-19.09 389.27,-29.37 396.23,-28.72"/>
</a>
</g>
</g>
<!-- Node4&#45;&gt;Node10 -->
<g id="edge9_Node000004_Node000010" class="edge">
<title>Node4&#45;&gt;Node10</title>
<g id="a_edge9_Node000004_Node000010"><a xlink:title=" ">
<path fill="none" stroke="#63b8ff" d="M419.94,-54.98C445.14,-46.02 484.96,-31.86 512.88,-21.92"/>
<polygon fill="#63b8ff" stroke="#63b8ff" points="514.33,-25.12 522.58,-18.47 511.99,-18.53 514.33,-25.12"/>
</a>
</g>
</g>
</g>
</svg>
