<?xml version="1.0" encoding="UTF-8" standalone="no"?>
<!DOCTYPE svg PUBLIC "-//W3C//DTD SVG 1.1//EN"
 "http://www.w3.org/Graphics/SVG/1.1/DTD/svg11.dtd">
<!-- Generated by graphviz version 2.43.0 (0)
 -->
<!-- Title: include/Callbacks/GetNeededInstantiations.hpp Pages: 1 -->
<svg width="751pt" height="214pt"
 viewBox="0.00 0.00 751.00 214.00" xmlns="http://www.w3.org/2000/svg" xmlns:xlink="http://www.w3.org/1999/xlink">
<g id="graph0" class="graph" transform="scale(1 1) rotate(0) translate(4 210)">
<title>include/Callbacks/GetNeededInstantiations.hpp</title>
<!-- Node1 -->
<g id="Node000001" class="node">
<title>Node1</title>
<g id="a_Node000001"><a xlink:title=" ">
<polygon fill="#999999" stroke="#666666" points="633.5,-206 473.5,-206 473.5,-176 633.5,-176 633.5,-206"/>
<text text-anchor="start" x="481.5" y="-194" font-family="Helvetica,sans-Serif" font-size="10.00">include/Callbacks/GetNeeded</text>
<text text-anchor="middle" x="553.5" y="-183" font-family="Helvetica,sans-Serif" font-size="10.00">Instantiations.hpp</text>
</a>
</g>
</g>
<!-- Node2 -->
<g id="Node000002" class="node">
<title>Node2</title>
<g id="a_Node000002"><a xlink:href="Injection_8hpp.html" target="_top" xlink:title=" ">
<polygon fill="white" stroke="#666666" points="462.5,-134.5 382.5,-134.5 382.5,-115.5 462.5,-115.5 462.5,-134.5"/>
<text text-anchor="middle" x="422.5" y="-122.5" font-family="Helvetica,sans-Serif" font-size="10.00">Injection.hpp</text>
</a>
</g>
</g>
<!-- Node1&#45;&gt;Node2 -->
<g id="edge1_Node000001_Node000002" class="edge">
<title>Node1&#45;&gt;Node2</title>
<g id="a_edge1_Node000001_Node000002"><a xlink:title=" ">
<path fill="none" stroke="#63b8ff" d="M524.75,-175.95C502.18,-164.93 471.01,-149.7 449.03,-138.96"/>
<polygon fill="#63b8ff" stroke="#63b8ff" points="450.46,-135.76 439.93,-134.52 447.38,-142.05 450.46,-135.76"/>
</a>
</g>
</g>
<!-- Node12 -->
<g id="Node000012" class="node">
<title>Node12</title>
<g id="a_Node000012"><a xlink:title=" ">
<polygon fill="#e0e0e0" stroke="#999999" points="640,-74 593,-74 593,-55 640,-55 640,-74"/>
<text text-anchor="middle" x="616.5" y="-62" font-family="Helvetica,sans-Serif" font-size="10.00">vector</text>
</a>
</g>
</g>
<!-- Node1&#45;&gt;Node12 -->
<g id="edge16_Node000001_Node000012" class="edge">
<title>Node1&#45;&gt;Node12</title>
<g id="a_edge16_Node000001_Node000012"><a xlink:title=" ">
<path fill="none" stroke="#63b8ff" d="M554.54,-175.87C556.27,-159.2 560.8,-131.1 572.5,-110 578.71,-98.8 588.54,-88.48 597.33,-80.6"/>
<polygon fill="#63b8ff" stroke="#63b8ff" points="599.62,-83.24 604.98,-74.1 595.09,-77.91 599.62,-83.24"/>
</a>
</g>
</g>
<!-- Node13 -->
<g id="Node000013" class="node">
<title>Node13</title>
<g id="a_Node000013"><a xlink:title=" ">
<polygon fill="#e0e0e0" stroke="#999999" points="743,-140 582,-140 582,-110 743,-110 743,-140"/>
<text text-anchor="start" x="590" y="-128" font-family="Helvetica,sans-Serif" font-size="10.00">clang/ASTMatchers/ASTMatch</text>
<text text-anchor="middle" x="662.5" y="-117" font-family="Helvetica,sans-Serif" font-size="10.00">Finder.h</text>
</a>
</g>
</g>
<!-- Node1&#45;&gt;Node13 -->
<g id="edge15_Node000001_Node000013" class="edge">
<title>Node1&#45;&gt;Node13</title>
<g id="a_edge15_Node000001_Node000013"><a xlink:title=" ">
<path fill="none" stroke="#63b8ff" d="M577.42,-175.95C592.75,-166.95 612.86,-155.14 629.68,-145.27"/>
<polygon fill="#63b8ff" stroke="#63b8ff" points="631.78,-148.09 638.64,-140.01 628.24,-142.06 631.78,-148.09"/>
</a>
</g>
</g>
<!-- Node3 -->
<g id="Node000003" class="node">
<title>Node3</title>
<g id="a_Node000003"><a xlink:href="Param_8hpp.html" target="_top" xlink:title=" ">
<polygon fill="white" stroke="#666666" points="243.5,-74 175.5,-74 175.5,-55 243.5,-55 243.5,-74"/>
<text text-anchor="middle" x="209.5" y="-62" font-family="Helvetica,sans-Serif" font-size="10.00">Param.hpp</text>
</a>
</g>
</g>
<!-- Node2&#45;&gt;Node3 -->
<g id="edge2_Node000002_Node000003" class="edge">
<title>Node2&#45;&gt;Node3</title>
<g id="a_edge2_Node000002_Node000003"><a xlink:title=" ">
<path fill="none" stroke="#63b8ff" d="M391.53,-115.49C354.22,-105.25 291.44,-88 250.23,-76.69"/>
<polygon fill="#63b8ff" stroke="#63b8ff" points="251.08,-73.29 240.51,-74.02 249.23,-80.04 251.08,-73.29"/>
</a>
</g>
</g>
<!-- Node4 -->
<g id="Node000004" class="node">
<title>Node4</title>
<g id="a_Node000004"><a xlink:title=" ">
<polygon fill="#e0e0e0" stroke="#999999" points="582,-19 513,-19 513,0 582,0 582,-19"/>
<text text-anchor="middle" x="547.5" y="-7" font-family="Helvetica,sans-Serif" font-size="10.00">fmt/color.h</text>
</a>
</g>
</g>
<!-- Node2&#45;&gt;Node4 -->
<g id="edge9_Node000002_Node000004" class="edge">
<title>Node2&#45;&gt;Node4</title>
<g id="a_edge9_Node000002_Node000004"><a xlink:title=" ">
<path fill="none" stroke="#63b8ff" d="M462.68,-118.82C490.52,-112.95 525.82,-100.46 544.5,-74 553.55,-61.18 553.47,-43.01 551.61,-29.39"/>
<polygon fill="#63b8ff" stroke="#63b8ff" points="555,-28.46 549.8,-19.24 548.11,-29.7 555,-28.46"/>
</a>
</g>
</g>
<!-- Node5 -->
<g id="Node000005" class="node">
<title>Node5</title>
<g id="a_Node000005"><a xlink:title=" ">
<polygon fill="#e0e0e0" stroke="#999999" points="67,-19 0,-19 0,0 67,0 67,-19"/>
<text text-anchor="middle" x="33.5" y="-7" font-family="Helvetica,sans-Serif" font-size="10.00">fmt/core.h</text>
</a>
</g>
</g>
<!-- Node2&#45;&gt;Node5 -->
<g id="edge10_Node000002_Node000005" class="edge">
<title>Node2&#45;&gt;Node5</title>
<g id="a_edge10_Node000002_Node000005"><a xlink:title=" ">
<path fill="none" stroke="#63b8ff" d="M382.23,-119.33C331.12,-112.69 240.67,-98.51 166.5,-74 126.47,-60.77 82.87,-38.27 56.88,-23.91"/>
<polygon fill="#63b8ff" stroke="#63b8ff" points="58.58,-20.85 48.14,-19.02 55.16,-26.95 58.58,-20.85"/>
</a>
</g>
</g>
<!-- Node9 -->
<g id="Node000009" class="node">
<title>Node9</title>
<g id="a_Node000009"><a xlink:title=" ">
<polygon fill="#e0e0e0" stroke="#999999" points="476.5,-19 432.5,-19 432.5,0 476.5,0 476.5,-19"/>
<text text-anchor="middle" x="454.5" y="-7" font-family="Helvetica,sans-Serif" font-size="10.00">string</text>
</a>
</g>
</g>
<!-- Node2&#45;&gt;Node9 -->
<g id="edge13_Node000002_Node000009" class="edge">
<title>Node2&#45;&gt;Node9</title>
<g id="a_edge13_Node000002_Node000009"><a xlink:title=" ">
<path fill="none" stroke="#63b8ff" d="M382.13,-118.3C333.97,-109.77 263.17,-90.74 290.5,-55 291.01,-54.33 375.08,-31.75 422.64,-19.02"/>
<polygon fill="#63b8ff" stroke="#63b8ff" points="423.71,-22.35 432.47,-16.39 421.91,-15.59 423.71,-22.35"/>
</a>
</g>
</g>
<!-- Node10 -->
<g id="Node000010" class="node">
<title>Node10</title>
<g id="a_Node000010"><a xlink:title=" ">
<polygon fill="#e0e0e0" stroke="#999999" points="419,-74 300,-74 300,-55 419,-55 419,-74"/>
<text text-anchor="middle" x="359.5" y="-62" font-family="Helvetica,sans-Serif" font-size="10.00">clang/AST/DeclCXX.h</text>
</a>
</g>
</g>
<!-- Node2&#45;&gt;Node10 -->
<g id="edge11_Node000002_Node000010" class="edge">
<title>Node2&#45;&gt;Node10</title>
<g id="a_edge11_Node000002_Node000010"><a xlink:title=" ">
<path fill="none" stroke="#63b8ff" d="M413.2,-115.37C403.53,-106.38 388.16,-92.11 376.34,-81.14"/>
<polygon fill="#63b8ff" stroke="#63b8ff" points="378.54,-78.41 368.83,-74.17 373.78,-83.54 378.54,-78.41"/>
</a>
</g>
</g>
<!-- Node11 -->
<g id="Node000011" class="node">
<title>Node11</title>
<g id="a_Node000011"><a xlink:title=" ">
<polygon fill="#e0e0e0" stroke="#999999" points="536,-74 437,-74 437,-55 536,-55 536,-74"/>
<text text-anchor="middle" x="486.5" y="-62" font-family="Helvetica,sans-Serif" font-size="10.00">clang/AST/Type.h</text>
</a>
</g>
</g>
<!-- Node2&#45;&gt;Node11 -->
<g id="edge12_Node000002_Node000011" class="edge">
<title>Node2&#45;&gt;Node11</title>
<g id="a_edge12_Node000002_Node000011"><a xlink:title=" ">
<path fill="none" stroke="#63b8ff" d="M431.94,-115.37C441.77,-106.38 457.39,-92.11 469.39,-81.14"/>
<polygon fill="#63b8ff" stroke="#63b8ff" points="472,-83.5 477.02,-74.17 467.28,-78.33 472,-83.5"/>
</a>
</g>
</g>
<!-- Node2&#45;&gt;Node12 -->
<g id="edge14_Node000002_Node000012" class="edge">
<title>Node2&#45;&gt;Node12</title>
<g id="a_edge14_Node000002_Node000012"><a xlink:title=" ">
<path fill="none" stroke="#63b8ff" d="M450.71,-115.49C485.77,-104.92 545.54,-86.9 582.92,-75.63"/>
<polygon fill="#63b8ff" stroke="#63b8ff" points="584.27,-78.87 592.83,-72.64 582.25,-72.17 584.27,-78.87"/>
</a>
</g>
</g>
<!-- Node3&#45;&gt;Node4 -->
<g id="edge3_Node000003_Node000004" class="edge">
<title>Node3&#45;&gt;Node4</title>
<g id="a_edge3_Node000003_Node000004"><a xlink:title=" ">
<path fill="none" stroke="#63b8ff" d="M243.77,-58.13C305.31,-48.48 434.48,-28.22 502.86,-17.5"/>
<polygon fill="#63b8ff" stroke="#63b8ff" points="503.55,-20.93 512.89,-15.93 502.47,-14.02 503.55,-20.93"/>
</a>
</g>
</g>
<!-- Node3&#45;&gt;Node5 -->
<g id="edge4_Node000003_Node000005" class="edge">
<title>Node3&#45;&gt;Node5</title>
<g id="a_edge4_Node000003_Node000005"><a xlink:title=" ">
<path fill="none" stroke="#63b8ff" d="M181.22,-54.98C151.55,-46.05 104.71,-31.94 71.75,-22.02"/>
<polygon fill="#63b8ff" stroke="#63b8ff" points="72.58,-18.61 62,-19.08 70.57,-25.32 72.58,-18.61"/>
</a>
</g>
</g>
<!-- Node6 -->
<g id="Node000006" class="node">
<title>Node6</title>
<g id="a_Node000006"><a xlink:title=" ">
<polygon fill="#e0e0e0" stroke="#999999" points="258.5,-19 160.5,-19 160.5,0 258.5,0 258.5,-19"/>
<text text-anchor="middle" x="209.5" y="-7" font-family="Helvetica,sans-Serif" font-size="10.00">clang/AST/Decl.h</text>
</a>
</g>
</g>
<!-- Node3&#45;&gt;Node6 -->
<g id="edge5_Node000003_Node000006" class="edge">
<title>Node3&#45;&gt;Node6</title>
<g id="a_edge5_Node000003_Node000006"><a xlink:title=" ">
<path fill="none" stroke="#63b8ff" d="M209.5,-54.75C209.5,-47.8 209.5,-37.85 209.5,-29.13"/>
<polygon fill="#63b8ff" stroke="#63b8ff" points="213,-29.09 209.5,-19.09 206,-29.09 213,-29.09"/>
</a>
</g>
</g>
<!-- Node7 -->
<g id="Node000007" class="node">
<title>Node7</title>
<g id="a_Node000007"><a xlink:title=" ">
<polygon fill="#e0e0e0" stroke="#999999" points="414,-19 277,-19 277,0 414,0 414,-19"/>
<text text-anchor="middle" x="345.5" y="-7" font-family="Helvetica,sans-Serif" font-size="10.00">clang/AST/PrettyPrinter.h</text>
</a>
</g>
</g>
<!-- Node3&#45;&gt;Node7 -->
<g id="edge6_Node000003_Node000007" class="edge">
<title>Node3&#45;&gt;Node7</title>
<g id="a_edge6_Node000003_Node000007"><a xlink:title=" ">
<path fill="none" stroke="#63b8ff" d="M231.35,-54.98C253.62,-46.3 288.4,-32.75 313.72,-22.88"/>
<polygon fill="#63b8ff" stroke="#63b8ff" points="315.21,-26.06 323.25,-19.17 312.66,-19.54 315.21,-26.06"/>
</a>
</g>
</g>
<!-- Node8 -->
<g id="Node000008" class="node">
<title>Node8</title>
<g id="a_Node000008"><a xlink:title=" ">
<polygon fill="#e0e0e0" stroke="#999999" points="142,-19 85,-19 85,0 142,0 142,-19"/>
<text text-anchor="middle" x="113.5" y="-7" font-family="Helvetica,sans-Serif" font-size="10.00">ostream</text>
</a>
</g>
</g>
<!-- Node3&#45;&gt;Node8 -->
<g id="edge7_Node000003_Node000008" class="edge">
<title>Node3&#45;&gt;Node8</title>
<g id="a_edge7_Node000003_Node000008"><a xlink:title=" ">
<path fill="none" stroke="#63b8ff" d="M194.08,-54.98C179.05,-46.69 155.96,-33.94 138.34,-24.22"/>
<polygon fill="#63b8ff" stroke="#63b8ff" points="139.65,-20.94 129.2,-19.17 136.27,-27.07 139.65,-20.94"/>
</a>
</g>
</g>
<!-- Node3&#45;&gt;Node9 -->
<g id="edge8_Node000003_Node000009" class="edge">
<title>Node3&#45;&gt;Node9</title>
<g id="a_edge8_Node000003_Node000009"><a xlink:title=" ">
<path fill="none" stroke="#63b8ff" d="M243.56,-56.97C283.83,-49.12 353.07,-35.22 422.38,-18.91"/>
<polygon fill="#63b8ff" stroke="#63b8ff" points="423.24,-22.31 432.16,-16.6 421.62,-15.5 423.24,-22.31"/>
</a>
</g>
</g>
</g>
</svg>
