<?xml version="1.0" encoding="UTF-8" standalone="no"?>
<!DOCTYPE svg PUBLIC "-//W3C//DTD SVG 1.1//EN"
 "http://www.w3.org/Graphics/SVG/1.1/DTD/svg11.dtd">
<!-- Generated by graphviz version 2.43.0 (0)
 -->
<!-- Title: include/Callbacks/GetNeededInstantiations.hpp Pages: 1 -->
<svg width="931pt" height="218pt"
 viewBox="0.00 0.00 931.00 218.00" xmlns="http://www.w3.org/2000/svg" xmlns:xlink="http://www.w3.org/1999/xlink">
<g id="graph0" class="graph" transform="scale(1 1) rotate(0) translate(4 214)">
<title>include/Callbacks/GetNeededInstantiations.hpp</title>
<!-- Node1 -->
<g id="node1" class="node">
<title>Node1</title>
<g id="a_node1"><a xlink:title=" ">
<polygon fill="#bfbfbf" stroke="black" points="35.5,-179.5 35.5,-209.5 195.5,-209.5 195.5,-179.5 35.5,-179.5"/>
<text text-anchor="start" x="43.5" y="-197.5" font-family="Helvetica,sans-Serif" font-size="10.00">include/Callbacks/GetNeeded</text>
<text text-anchor="middle" x="115.5" y="-186.5" font-family="Helvetica,sans-Serif" font-size="10.00">Instantiations.hpp</text>
</a>
</g>
</g>
<!-- Node2 -->
<g id="node2" class="node">
<title>Node2</title>
<g id="a_node2"><a xlink:title=" ">
<polygon fill="none" stroke="#bfbfbf" points="0,-56.5 0,-75.5 47,-75.5 47,-56.5 0,-56.5"/>
<text text-anchor="middle" x="23.5" y="-63.5" font-family="Helvetica,sans-Serif" font-size="10.00">vector</text>
</a>
</g>
</g>
<!-- Node1&#45;&gt;Node2 -->
<g id="edge1" class="edge">
<title>Node1&#45;&gt;Node2</title>
<path fill="none" stroke="midnightblue" d="M71.01,-179.42C53.73,-171.57 35.68,-159.87 25.5,-143 15.08,-125.74 16.39,-102.02 19.13,-85.69"/>
<polygon fill="midnightblue" stroke="midnightblue" points="22.59,-86.24 21.13,-75.74 15.73,-84.85 22.59,-86.24"/>
</g>
<!-- Node3 -->
<g id="node3" class="node">
<title>Node3</title>
<g id="a_node3"><a xlink:title=" ">
<polygon fill="none" stroke="#bfbfbf" points="35,-112.5 35,-142.5 196,-142.5 196,-112.5 35,-112.5"/>
<text text-anchor="start" x="43" y="-130.5" font-family="Helvetica,sans-Serif" font-size="10.00">clang/ASTMatchers/ASTMatch</text>
<text text-anchor="middle" x="115.5" y="-119.5" font-family="Helvetica,sans-Serif" font-size="10.00">Finder.h</text>
</a>
</g>
</g>
<!-- Node1&#45;&gt;Node3 -->
<g id="edge2" class="edge">
<title>Node1&#45;&gt;Node3</title>
<path fill="none" stroke="midnightblue" d="M115.5,-179.4C115.5,-171.64 115.5,-161.81 115.5,-152.86"/>
<polygon fill="midnightblue" stroke="midnightblue" points="119,-152.58 115.5,-142.58 112,-152.58 119,-152.58"/>
</g>
<!-- Node4 -->
<g id="node4" class="node">
<title>Node4</title>
<g id="a_node4"><a xlink:href="Injection_8hpp.html" target="_top" xlink:title=" ">
<polygon fill="none" stroke="black" points="214.5,-118 214.5,-137 294.5,-137 294.5,-118 214.5,-118"/>
<text text-anchor="middle" x="254.5" y="-125" font-family="Helvetica,sans-Serif" font-size="10.00">Injection.hpp</text>
</a>
</g>
</g>
<!-- Node1&#45;&gt;Node4 -->
<g id="edge3" class="edge">
<title>Node1&#45;&gt;Node4</title>
<path fill="none" stroke="midnightblue" d="M145.66,-179.4C169.94,-168.04 203.78,-152.22 227.25,-141.24"/>
<polygon fill="midnightblue" stroke="midnightblue" points="228.73,-144.41 236.31,-137.01 225.77,-138.07 228.73,-144.41"/>
</g>
<!-- Node4&#45;&gt;Node2 -->
<g id="edge6" class="edge">
<title>Node4&#45;&gt;Node2</title>
<path fill="none" stroke="midnightblue" d="M225.73,-117.95C218.8,-115.95 211.39,-113.86 204.5,-112 153.28,-98.21 93.49,-83.64 57.07,-74.94"/>
<polygon fill="midnightblue" stroke="midnightblue" points="57.54,-71.45 47,-72.54 55.92,-78.26 57.54,-71.45"/>
</g>
<!-- Node5 -->
<g id="node5" class="node">
<title>Node5</title>
<g id="a_node5"><a xlink:title=" ">
<polygon fill="none" stroke="#bfbfbf" points="74.5,-56.5 74.5,-75.5 130.5,-75.5 130.5,-56.5 74.5,-56.5"/>
<text text-anchor="middle" x="102.5" y="-63.5" font-family="Helvetica,sans-Serif" font-size="10.00">optional</text>
</a>
</g>
</g>
<!-- Node4&#45;&gt;Node5 -->
<g id="edge4" class="edge">
<title>Node4&#45;&gt;Node5</title>
<path fill="none" stroke="midnightblue" d="M232.72,-117.98C206.76,-107.81 163.19,-90.76 133.67,-79.2"/>
<polygon fill="midnightblue" stroke="midnightblue" points="134.83,-75.9 124.24,-75.51 132.27,-82.41 134.83,-75.9"/>
</g>
<!-- Node6 -->
<g id="node6" class="node">
<title>Node6</title>
<g id="a_node6"><a xlink:title=" ">
<polygon fill="none" stroke="#bfbfbf" points="280.5,-0.5 280.5,-19.5 324.5,-19.5 324.5,-0.5 280.5,-0.5"/>
<text text-anchor="middle" x="302.5" y="-7.5" font-family="Helvetica,sans-Serif" font-size="10.00">string</text>
</a>
</g>
</g>
<!-- Node4&#45;&gt;Node6 -->
<g id="edge5" class="edge">
<title>Node4&#45;&gt;Node6</title>
<path fill="none" stroke="midnightblue" d="M231.27,-117.79C202.43,-105.63 159.16,-82.1 177.5,-56 198.29,-26.42 240.48,-16.19 270.08,-12.71"/>
<polygon fill="midnightblue" stroke="midnightblue" points="270.73,-16.16 280.35,-11.71 270.05,-9.19 270.73,-16.16"/>
</g>
<!-- Node7 -->
<g id="node7" class="node">
<title>Node7</title>
<g id="a_node7"><a xlink:title=" ">
<polygon fill="none" stroke="#bfbfbf" points="186.5,-56.5 186.5,-75.5 304.5,-75.5 304.5,-56.5 186.5,-56.5"/>
<text text-anchor="middle" x="245.5" y="-63.5" font-family="Helvetica,sans-Serif" font-size="10.00">llvm/ADT/StringRef.h</text>
</a>
</g>
</g>
<!-- Node4&#45;&gt;Node7 -->
<g id="edge7" class="edge">
<title>Node4&#45;&gt;Node7</title>
<path fill="none" stroke="midnightblue" d="M253.21,-117.98C251.94,-109.58 249.96,-96.48 248.32,-85.66"/>
<polygon fill="midnightblue" stroke="midnightblue" points="251.74,-84.87 246.79,-75.51 244.82,-85.92 251.74,-84.87"/>
</g>
<!-- Node8 -->
<g id="node8" class="node">
<title>Node8</title>
<g id="a_node8"><a xlink:title=" ">
<polygon fill="none" stroke="#bfbfbf" points="323,-56.5 323,-75.5 442,-75.5 442,-56.5 323,-56.5"/>
<text text-anchor="middle" x="382.5" y="-63.5" font-family="Helvetica,sans-Serif" font-size="10.00">clang/AST/DeclCXX.h</text>
</a>
</g>
</g>
<!-- Node4&#45;&gt;Node8 -->
<g id="edge8" class="edge">
<title>Node4&#45;&gt;Node8</title>
<path fill="none" stroke="midnightblue" d="M272.84,-117.98C294.32,-107.99 330.12,-91.35 354.95,-79.81"/>
<polygon fill="midnightblue" stroke="midnightblue" points="356.6,-82.9 364.19,-75.51 353.65,-76.55 356.6,-82.9"/>
</g>
<!-- Node9 -->
<g id="node9" class="node">
<title>Node9</title>
<g id="a_node9"><a xlink:title=" ">
<polygon fill="none" stroke="#bfbfbf" points="460,-56.5 460,-75.5 559,-75.5 559,-56.5 460,-56.5"/>
<text text-anchor="middle" x="509.5" y="-63.5" font-family="Helvetica,sans-Serif" font-size="10.00">clang/AST/Type.h</text>
</a>
</g>
</g>
<!-- Node4&#45;&gt;Node9 -->
<g id="edge9" class="edge">
<title>Node4&#45;&gt;Node9</title>
<path fill="none" stroke="midnightblue" d="M291.04,-117.98C336.39,-107.39 413.78,-89.34 463.23,-77.8"/>
<polygon fill="midnightblue" stroke="midnightblue" points="464.09,-81.19 473.03,-75.51 462.5,-74.37 464.09,-81.19"/>
</g>
<!-- Node10 -->
<g id="node10" class="node">
<title>Node10</title>
<g id="a_node10"><a xlink:href="Param_8hpp.html" target="_top" xlink:title=" ">
<polygon fill="none" stroke="black" points="577.5,-56.5 577.5,-75.5 645.5,-75.5 645.5,-56.5 577.5,-56.5"/>
<text text-anchor="middle" x="611.5" y="-63.5" font-family="Helvetica,sans-Serif" font-size="10.00">Param.hpp</text>
</a>
</g>
</g>
<!-- Node4&#45;&gt;Node10 -->
<g id="edge10" class="edge">
<title>Node4&#45;&gt;Node10</title>
<path fill="none" stroke="midnightblue" d="M294.75,-120.64C352.72,-112.07 463.31,-95.22 567.23,-76.17"/>
<polygon fill="midnightblue" stroke="midnightblue" points="568.06,-79.57 577.26,-74.32 566.79,-72.69 568.06,-79.57"/>
</g>
<!-- Node10&#45;&gt;Node6 -->
<g id="edge12" class="edge">
<title>Node10&#45;&gt;Node6</title>
<path fill="none" stroke="midnightblue" d="M577.26,-57.71C574.3,-57.12 571.35,-56.54 568.5,-56 484.29,-40.07 384.56,-23.92 334.52,-16.01"/>
<polygon fill="midnightblue" stroke="midnightblue" points="335.04,-12.55 324.62,-14.45 333.95,-19.46 335.04,-12.55"/>
</g>
<!-- Node11 -->
<g id="node11" class="node">
<title>Node11</title>
<g id="a_node11"><a xlink:title=" ">
<polygon fill="none" stroke="#bfbfbf" points="412,-0.5 412,-19.5 469,-19.5 469,-0.5 412,-0.5"/>
<text text-anchor="middle" x="440.5" y="-7.5" font-family="Helvetica,sans-Serif" font-size="10.00">ostream</text>
</a>
</g>
</g>
<!-- Node10&#45;&gt;Node11 -->
<g id="edge11" class="edge">
<title>Node10&#45;&gt;Node11</title>
<path fill="none" stroke="midnightblue" d="M584.4,-56.44C555.51,-47.32 509.58,-32.81 477.39,-22.65"/>
<polygon fill="midnightblue" stroke="midnightblue" points="478.06,-19.19 467.47,-19.52 475.95,-25.87 478.06,-19.19"/>
</g>
<!-- Node12 -->
<g id="node12" class="node">
<title>Node12</title>
<g id="a_node12"><a xlink:title=" ">
<polygon fill="none" stroke="#bfbfbf" points="487.5,-0.5 487.5,-19.5 585.5,-19.5 585.5,-0.5 487.5,-0.5"/>
<text text-anchor="middle" x="536.5" y="-7.5" font-family="Helvetica,sans-Serif" font-size="10.00">clang/AST/Decl.h</text>
</a>
</g>
</g>
<!-- Node10&#45;&gt;Node12 -->
<g id="edge13" class="edge">
<title>Node10&#45;&gt;Node12</title>
<path fill="none" stroke="midnightblue" d="M599.45,-56.32C588.04,-48.11 570.67,-35.6 557.07,-25.81"/>
<polygon fill="midnightblue" stroke="midnightblue" points="558.93,-22.84 548.77,-19.83 554.84,-28.52 558.93,-22.84"/>
</g>
<!-- Node13 -->
<g id="node13" class="node">
<title>Node13</title>
<g id="a_node13"><a xlink:title=" ">
<polygon fill="none" stroke="#bfbfbf" points="603.5,-0.5 603.5,-19.5 767.5,-19.5 767.5,-0.5 603.5,-0.5"/>
<text text-anchor="middle" x="685.5" y="-7.5" font-family="Helvetica,sans-Serif" font-size="10.00">clang/AST/DependenceFlags.h</text>
</a>
</g>
</g>
<!-- Node10&#45;&gt;Node13 -->
<g id="edge14" class="edge">
<title>Node10&#45;&gt;Node13</title>
<path fill="none" stroke="midnightblue" d="M623.39,-56.32C634.65,-48.11 651.79,-35.6 665.21,-25.81"/>
<polygon fill="midnightblue" stroke="midnightblue" points="667.38,-28.56 673.39,-19.83 663.25,-22.9 667.38,-28.56"/>
</g>
<!-- Node14 -->
<g id="node14" class="node">
<title>Node14</title>
<g id="a_node14"><a xlink:title=" ">
<polygon fill="none" stroke="#bfbfbf" points="786,-0.5 786,-19.5 923,-19.5 923,-0.5 786,-0.5"/>
<text text-anchor="middle" x="854.5" y="-7.5" font-family="Helvetica,sans-Serif" font-size="10.00">clang/AST/PrettyPrinter.h</text>
</a>
</g>
</g>
<!-- Node10&#45;&gt;Node14 -->
<g id="edge15" class="edge">
<title>Node10&#45;&gt;Node14</title>
<path fill="none" stroke="midnightblue" d="M645.54,-57.43C687.28,-48.16 758.32,-32.37 805.82,-21.82"/>
<polygon fill="midnightblue" stroke="midnightblue" points="806.87,-25.17 815.87,-19.58 805.35,-18.34 806.87,-25.17"/>
</g>
</g>
</svg>
