<?xml version="1.0" encoding="UTF-8" standalone="no"?>
<!DOCTYPE svg PUBLIC "-//W3C//DTD SVG 1.1//EN"
 "http://www.w3.org/Graphics/SVG/1.1/DTD/svg11.dtd">
<!-- Generated by graphviz version 2.43.0 (0)
 -->
<!-- Title: src/Callbacks/GetNeededInstantiations.cpp Pages: 1 -->
<svg width="937pt" height="207pt"
 viewBox="0.00 0.00 937.00 207.00" xmlns="http://www.w3.org/2000/svg" xmlns:xlink="http://www.w3.org/1999/xlink">
<g id="graph0" class="graph" transform="scale(1 1) rotate(0) translate(4 203)">
<title>src/Callbacks/GetNeededInstantiations.cpp</title>
<!-- Node1 -->
<g id="node1" class="node">
<title>Node1</title>
<g id="a_node1"><a xlink:title=" ">
<polygon fill="#bfbfbf" stroke="black" points="336.5,-179.5 336.5,-198.5 562.5,-198.5 562.5,-179.5 336.5,-179.5"/>
<text text-anchor="middle" x="449.5" y="-186.5" font-family="Helvetica,sans-Serif" font-size="10.00">src/Callbacks/GetNeededInstantiations.cpp</text>
</a>
</g>
</g>
<!-- Node2 -->
<g id="node2" class="node">
<title>Node2</title>
<g id="a_node2"><a xlink:href="GetNeededInstantiations_8hpp.html" target="_top" xlink:title=" ">
<polygon fill="none" stroke="black" points="0,-123.5 0,-142.5 209,-142.5 209,-123.5 0,-123.5"/>
<text text-anchor="middle" x="104.5" y="-130.5" font-family="Helvetica,sans-Serif" font-size="10.00">Callbacks/GetNeededInstantiations.hpp</text>
</a>
</g>
</g>
<!-- Node1&#45;&gt;Node2 -->
<g id="edge1" class="edge">
<title>Node1&#45;&gt;Node2</title>
<path fill="none" stroke="midnightblue" d="M394.83,-179.44C333.51,-169.85 234.14,-154.29 169.05,-144.1"/>
<polygon fill="midnightblue" stroke="midnightblue" points="169.33,-140.61 158.91,-142.52 168.25,-147.52 169.33,-140.61"/>
</g>
<!-- Node5 -->
<g id="node5" class="node">
<title>Node5</title>
<g id="a_node5"><a xlink:href="Injection_8hpp.html" target="_top" xlink:title=" ">
<polygon fill="none" stroke="black" points="200.5,-62 200.5,-81 280.5,-81 280.5,-62 200.5,-62"/>
<text text-anchor="middle" x="240.5" y="-69" font-family="Helvetica,sans-Serif" font-size="10.00">Injection.hpp</text>
</a>
</g>
</g>
<!-- Node1&#45;&gt;Node5 -->
<g id="edge14" class="edge">
<title>Node1&#45;&gt;Node5</title>
<path fill="none" stroke="midnightblue" d="M380.2,-179.48C332.54,-172.23 274.83,-160.22 257.5,-143 243.99,-129.57 240.51,-107.4 239.92,-91.5"/>
<polygon fill="midnightblue" stroke="midnightblue" points="243.42,-91.24 239.91,-81.25 236.42,-91.25 243.42,-91.24"/>
</g>
<!-- Node9 -->
<g id="node9" class="node">
<title>Node9</title>
<g id="a_node9"><a xlink:title=" ">
<polygon fill="none" stroke="#bfbfbf" points="267,-123.5 267,-142.5 366,-142.5 366,-123.5 267,-123.5"/>
<text text-anchor="middle" x="316.5" y="-130.5" font-family="Helvetica,sans-Serif" font-size="10.00">llvm/ADT/APInt.h</text>
</a>
</g>
</g>
<!-- Node1&#45;&gt;Node9 -->
<g id="edge9" class="edge">
<title>Node1&#45;&gt;Node9</title>
<path fill="none" stroke="midnightblue" d="M428.43,-179.44C406.44,-170.52 371.77,-156.44 346.84,-146.32"/>
<polygon fill="midnightblue" stroke="midnightblue" points="348.06,-143.04 337.48,-142.52 345.42,-149.52 348.06,-143.04"/>
</g>
<!-- Node10 -->
<g id="node10" class="node">
<title>Node10</title>
<g id="a_node10"><a xlink:title=" ">
<polygon fill="none" stroke="#bfbfbf" points="384.5,-123.5 384.5,-142.5 514.5,-142.5 514.5,-123.5 384.5,-123.5"/>
<text text-anchor="middle" x="449.5" y="-130.5" font-family="Helvetica,sans-Serif" font-size="10.00">llvm/ADT/SmallString.h</text>
</a>
</g>
</g>
<!-- Node1&#45;&gt;Node10 -->
<g id="edge10" class="edge">
<title>Node1&#45;&gt;Node10</title>
<path fill="none" stroke="midnightblue" d="M449.5,-179.08C449.5,-172.01 449.5,-161.86 449.5,-152.99"/>
<polygon fill="midnightblue" stroke="midnightblue" points="453,-152.75 449.5,-142.75 446,-152.75 453,-152.75"/>
</g>
<!-- Node11 -->
<g id="node11" class="node">
<title>Node11</title>
<g id="a_node11"><a xlink:title=" ">
<polygon fill="none" stroke="#bfbfbf" points="532.5,-123.5 532.5,-142.5 630.5,-142.5 630.5,-123.5 532.5,-123.5"/>
<text text-anchor="middle" x="581.5" y="-130.5" font-family="Helvetica,sans-Serif" font-size="10.00">clang/AST/Decl.h</text>
</a>
</g>
</g>
<!-- Node1&#45;&gt;Node11 -->
<g id="edge11" class="edge">
<title>Node1&#45;&gt;Node11</title>
<path fill="none" stroke="midnightblue" d="M470.42,-179.44C492.24,-170.52 526.65,-156.44 551.39,-146.32"/>
<polygon fill="midnightblue" stroke="midnightblue" points="552.75,-149.54 560.68,-142.52 550.1,-143.06 552.75,-149.54"/>
</g>
<!-- Node12 -->
<g id="node12" class="node">
<title>Node12</title>
<g id="a_node12"><a xlink:title=" ">
<polygon fill="none" stroke="#bfbfbf" points="649,-123.5 649,-142.5 768,-142.5 768,-123.5 649,-123.5"/>
<text text-anchor="middle" x="708.5" y="-130.5" font-family="Helvetica,sans-Serif" font-size="10.00">clang/AST/DeclCXX.h</text>
</a>
</g>
</g>
<!-- Node1&#45;&gt;Node12 -->
<g id="edge12" class="edge">
<title>Node1&#45;&gt;Node12</title>
<path fill="none" stroke="midnightblue" d="M490.54,-179.44C535.82,-170 608.73,-154.8 657.61,-144.61"/>
<polygon fill="midnightblue" stroke="midnightblue" points="658.58,-147.98 667.65,-142.52 657.15,-141.13 658.58,-147.98"/>
</g>
<!-- Node13 -->
<g id="node13" class="node">
<title>Node13</title>
<g id="a_node13"><a xlink:title=" ">
<polygon fill="none" stroke="#bfbfbf" points="786,-123.5 786,-142.5 929,-142.5 929,-123.5 786,-123.5"/>
<text text-anchor="middle" x="857.5" y="-130.5" font-family="Helvetica,sans-Serif" font-size="10.00">clang/AST/DeclTemplate.h</text>
</a>
</g>
</g>
<!-- Node1&#45;&gt;Node13 -->
<g id="edge13" class="edge">
<title>Node1&#45;&gt;Node13</title>
<path fill="none" stroke="midnightblue" d="M514.15,-179.44C587.26,-169.77 706.12,-154.04 783.05,-143.85"/>
<polygon fill="midnightblue" stroke="midnightblue" points="783.7,-147.3 793.15,-142.52 782.78,-140.36 783.7,-147.3"/>
</g>
<!-- Node3 -->
<g id="node3" class="node">
<title>Node3</title>
<g id="a_node3"><a xlink:title=" ">
<polygon fill="none" stroke="#bfbfbf" points="12,-0.5 12,-19.5 59,-19.5 59,-0.5 12,-0.5"/>
<text text-anchor="middle" x="35.5" y="-7.5" font-family="Helvetica,sans-Serif" font-size="10.00">vector</text>
</a>
</g>
</g>
<!-- Node2&#45;&gt;Node3 -->
<g id="edge2" class="edge">
<title>Node2&#45;&gt;Node3</title>
<path fill="none" stroke="midnightblue" d="M65.25,-123.48C45.5,-116.99 23.32,-105.84 11.5,-87 -0.05,-68.58 11.62,-44.13 22.36,-28"/>
<polygon fill="midnightblue" stroke="midnightblue" points="25.42,-29.74 28.39,-19.57 19.73,-25.67 25.42,-29.74"/>
</g>
<!-- Node4 -->
<g id="node4" class="node">
<title>Node4</title>
<g id="a_node4"><a xlink:title=" ">
<polygon fill="none" stroke="#bfbfbf" points="21,-56.5 21,-86.5 182,-86.5 182,-56.5 21,-56.5"/>
<text text-anchor="start" x="29" y="-74.5" font-family="Helvetica,sans-Serif" font-size="10.00">clang/ASTMatchers/ASTMatch</text>
<text text-anchor="middle" x="101.5" y="-63.5" font-family="Helvetica,sans-Serif" font-size="10.00">Finder.h</text>
</a>
</g>
</g>
<!-- Node2&#45;&gt;Node4 -->
<g id="edge3" class="edge">
<title>Node2&#45;&gt;Node4</title>
<path fill="none" stroke="midnightblue" d="M104.07,-123.48C103.72,-116.47 103.2,-106.19 102.72,-96.7"/>
<polygon fill="midnightblue" stroke="midnightblue" points="106.21,-96.33 102.21,-86.52 99.22,-96.69 106.21,-96.33"/>
</g>
<!-- Node2&#45;&gt;Node5 -->
<g id="edge4" class="edge">
<title>Node2&#45;&gt;Node5</title>
<path fill="none" stroke="midnightblue" d="M123.99,-123.48C146.91,-113.45 185.19,-96.7 211.58,-85.15"/>
<polygon fill="midnightblue" stroke="midnightblue" points="213.29,-88.22 221.05,-81.01 210.49,-81.81 213.29,-88.22"/>
</g>
<!-- Node5&#45;&gt;Node3 -->
<g id="edge6" class="edge">
<title>Node5&#45;&gt;Node3</title>
<path fill="none" stroke="midnightblue" d="M211.13,-61.98C173.45,-51.04 108.25,-32.11 68.77,-20.66"/>
<polygon fill="midnightblue" stroke="midnightblue" points="69.66,-17.27 59.08,-17.84 67.71,-23.99 69.66,-17.27"/>
</g>
<!-- Node6 -->
<g id="node6" class="node">
<title>Node6</title>
<g id="a_node6"><a xlink:title=" ">
<polygon fill="none" stroke="#bfbfbf" points="119.5,-0.5 119.5,-19.5 163.5,-19.5 163.5,-0.5 119.5,-0.5"/>
<text text-anchor="middle" x="141.5" y="-7.5" font-family="Helvetica,sans-Serif" font-size="10.00">string</text>
</a>
</g>
</g>
<!-- Node5&#45;&gt;Node6 -->
<g id="edge5" class="edge">
<title>Node5&#45;&gt;Node6</title>
<path fill="none" stroke="midnightblue" d="M226.32,-61.98C210.14,-52.25 183.47,-36.23 164.36,-24.74"/>
<polygon fill="midnightblue" stroke="midnightblue" points="166.03,-21.66 155.66,-19.51 162.43,-27.66 166.03,-21.66"/>
</g>
<!-- Node7 -->
<g id="node7" class="node">
<title>Node7</title>
<g id="a_node7"><a xlink:title=" ">
<polygon fill="none" stroke="#bfbfbf" points="181.5,-0.5 181.5,-19.5 299.5,-19.5 299.5,-0.5 181.5,-0.5"/>
<text text-anchor="middle" x="240.5" y="-7.5" font-family="Helvetica,sans-Serif" font-size="10.00">llvm/ADT/StringRef.h</text>
</a>
</g>
</g>
<!-- Node5&#45;&gt;Node7 -->
<g id="edge7" class="edge">
<title>Node5&#45;&gt;Node7</title>
<path fill="none" stroke="midnightblue" d="M240.5,-61.98C240.5,-53.58 240.5,-40.48 240.5,-29.66"/>
<polygon fill="midnightblue" stroke="midnightblue" points="244,-29.51 240.5,-19.51 237,-29.51 244,-29.51"/>
</g>
<!-- Node8 -->
<g id="node8" class="node">
<title>Node8</title>
<g id="a_node8"><a xlink:title=" ">
<polygon fill="none" stroke="#bfbfbf" points="318,-0.5 318,-19.5 417,-19.5 417,-0.5 318,-0.5"/>
<text text-anchor="middle" x="367.5" y="-7.5" font-family="Helvetica,sans-Serif" font-size="10.00">clang/AST/Type.h</text>
</a>
</g>
</g>
<!-- Node5&#45;&gt;Node8 -->
<g id="edge8" class="edge">
<title>Node5&#45;&gt;Node8</title>
<path fill="none" stroke="midnightblue" d="M258.7,-61.98C280.01,-51.99 315.53,-35.35 340.16,-23.81"/>
<polygon fill="midnightblue" stroke="midnightblue" points="341.77,-26.92 349.34,-19.51 338.8,-20.58 341.77,-26.92"/>
</g>
</g>
</svg>
