<?xml version="1.0" encoding="UTF-8" standalone="no"?>
<!DOCTYPE svg PUBLIC "-//W3C//DTD SVG 1.1//EN"
 "http://www.w3.org/Graphics/SVG/1.1/DTD/svg11.dtd">
<!-- Generated by graphviz version 2.43.0 (0)
 -->
<!-- Title: include/Callbacks/GetNeededInstantiations.hpp Pages: 1 -->
<svg width="418pt" height="162pt"
 viewBox="0.00 0.00 418.19 162.00" xmlns="http://www.w3.org/2000/svg" xmlns:xlink="http://www.w3.org/1999/xlink">
<g id="graph0" class="graph" transform="scale(1 1) rotate(0) translate(4 158)">
<title>include/Callbacks/GetNeededInstantiations.hpp</title>
<!-- Node1 -->
<g id="node1" class="node">
<title>Node1</title>
<g id="a_node1"><a xlink:title=" ">
<polygon fill="#bfbfbf" stroke="black" points="14.69,-123.5 14.69,-153.5 174.69,-153.5 174.69,-123.5 14.69,-123.5"/>
<text text-anchor="start" x="22.69" y="-141.5" font-family="Helvetica,sans-Serif" font-size="10.00">include/Callbacks/GetNeeded</text>
<text text-anchor="middle" x="94.69" y="-130.5" font-family="Helvetica,sans-Serif" font-size="10.00">Instantiations.hpp</text>
</a>
</g>
</g>
<!-- Node2 -->
<g id="node2" class="node">
<title>Node2</title>
<g id="a_node2"><a xlink:title=" ">
<polygon fill="none" stroke="#bfbfbf" points="5.19,-0.5 5.19,-19.5 52.19,-19.5 52.19,-0.5 5.19,-0.5"/>
<text text-anchor="middle" x="28.69" y="-7.5" font-family="Helvetica,sans-Serif" font-size="10.00">vector</text>
</a>
</g>
</g>
<!-- Node1&#45;&gt;Node2 -->
<g id="edge1" class="edge">
<title>Node1&#45;&gt;Node2</title>
<path fill="none" stroke="midnightblue" d="M49.51,-123.34C32.34,-115.51 14.56,-103.85 4.69,-87 -6.18,-68.43 5.01,-44.39 15.47,-28.36"/>
<polygon fill="midnightblue" stroke="midnightblue" points="18.49,-30.15 21.37,-19.96 12.76,-26.13 18.49,-30.15"/>
</g>
<!-- Node3 -->
<g id="node3" class="node">
<title>Node3</title>
<g id="a_node3"><a xlink:title=" ">
<polygon fill="none" stroke="#bfbfbf" points="14.19,-56.5 14.19,-86.5 175.19,-86.5 175.19,-56.5 14.19,-56.5"/>
<text text-anchor="start" x="22.19" y="-74.5" font-family="Helvetica,sans-Serif" font-size="10.00">clang/ASTMatchers/ASTMatch</text>
<text text-anchor="middle" x="94.69" y="-63.5" font-family="Helvetica,sans-Serif" font-size="10.00">Finder.h</text>
</a>
</g>
</g>
<!-- Node1&#45;&gt;Node3 -->
<g id="edge2" class="edge">
<title>Node1&#45;&gt;Node3</title>
<path fill="none" stroke="midnightblue" d="M94.69,-123.4C94.69,-115.64 94.69,-105.81 94.69,-96.86"/>
<polygon fill="midnightblue" stroke="midnightblue" points="98.19,-96.58 94.69,-86.58 91.19,-96.58 98.19,-96.58"/>
</g>
<!-- Node4 -->
<g id="node4" class="node">
<title>Node4</title>
<g id="a_node4"><a xlink:href="Injection_8hpp.html" target="_top" xlink:title=" ">
<polygon fill="none" stroke="black" points="193.69,-62 193.69,-81 273.69,-81 273.69,-62 193.69,-62"/>
<text text-anchor="middle" x="233.69" y="-69" font-family="Helvetica,sans-Serif" font-size="10.00">Injection.hpp</text>
</a>
</g>
</g>
<!-- Node1&#45;&gt;Node4 -->
<g id="edge3" class="edge">
<title>Node1&#45;&gt;Node4</title>
<path fill="none" stroke="midnightblue" d="M124.85,-123.4C149.13,-112.04 182.97,-96.22 206.44,-85.24"/>
<polygon fill="midnightblue" stroke="midnightblue" points="207.92,-88.41 215.5,-81.01 204.96,-82.07 207.92,-88.41"/>
</g>
<!-- Node4&#45;&gt;Node2 -->
<g id="edge5" class="edge">
<title>Node4&#45;&gt;Node2</title>
<path fill="none" stroke="midnightblue" d="M204.94,-61.96C198.29,-59.99 191.25,-57.92 184.69,-56 142.33,-43.62 93.44,-29.55 61.85,-20.49"/>
<polygon fill="midnightblue" stroke="midnightblue" points="62.8,-17.13 52.23,-17.73 60.87,-23.86 62.8,-17.13"/>
</g>
<!-- Node5 -->
<g id="node5" class="node">
<title>Node5</title>
<g id="a_node5"><a xlink:title=" ">
<polygon fill="none" stroke="#bfbfbf" points="112.69,-0.5 112.69,-19.5 156.69,-19.5 156.69,-0.5 112.69,-0.5"/>
<text text-anchor="middle" x="134.69" y="-7.5" font-family="Helvetica,sans-Serif" font-size="10.00">string</text>
</a>
</g>
</g>
<!-- Node4&#45;&gt;Node5 -->
<g id="edge4" class="edge">
<title>Node4&#45;&gt;Node5</title>
<path fill="none" stroke="midnightblue" d="M219.51,-61.98C203.33,-52.25 176.66,-36.23 157.55,-24.74"/>
<polygon fill="midnightblue" stroke="midnightblue" points="159.22,-21.66 148.85,-19.51 155.62,-27.66 159.22,-21.66"/>
</g>
<!-- Node6 -->
<g id="node6" class="node">
<title>Node6</title>
<g id="a_node6"><a xlink:title=" ">
<polygon fill="none" stroke="#bfbfbf" points="174.69,-0.5 174.69,-19.5 292.69,-19.5 292.69,-0.5 174.69,-0.5"/>
<text text-anchor="middle" x="233.69" y="-7.5" font-family="Helvetica,sans-Serif" font-size="10.00">llvm/ADT/StringRef.h</text>
</a>
</g>
</g>
<!-- Node4&#45;&gt;Node6 -->
<g id="edge6" class="edge">
<title>Node4&#45;&gt;Node6</title>
<path fill="none" stroke="midnightblue" d="M233.69,-61.98C233.69,-53.58 233.69,-40.48 233.69,-29.66"/>
<polygon fill="midnightblue" stroke="midnightblue" points="237.19,-29.51 233.69,-19.51 230.19,-29.51 237.19,-29.51"/>
</g>
<!-- Node7 -->
<g id="node7" class="node">
<title>Node7</title>
<g id="a_node7"><a xlink:title=" ">
<polygon fill="none" stroke="#bfbfbf" points="311.19,-0.5 311.19,-19.5 410.19,-19.5 410.19,-0.5 311.19,-0.5"/>
<text text-anchor="middle" x="360.69" y="-7.5" font-family="Helvetica,sans-Serif" font-size="10.00">clang/AST/Type.h</text>
</a>
</g>
</g>
<!-- Node4&#45;&gt;Node7 -->
<g id="edge7" class="edge">
<title>Node4&#45;&gt;Node7</title>
<path fill="none" stroke="midnightblue" d="M251.89,-61.98C273.2,-51.99 308.72,-35.35 333.35,-23.81"/>
<polygon fill="midnightblue" stroke="midnightblue" points="334.96,-26.92 342.53,-19.51 331.99,-20.58 334.96,-26.92"/>
</g>
</g>
</svg>
