<?xml version="1.0" encoding="UTF-8" standalone="no"?>
<!DOCTYPE svg PUBLIC "-//W3C//DTD SVG 1.1//EN"
 "http://www.w3.org/Graphics/SVG/1.1/DTD/svg11.dtd">
<!-- Generated by graphviz version 2.43.0 (0)
 -->
<!-- Title: src/Callbacks/GetNeededInstantiations.cpp Pages: 1 -->
<svg width="1147pt" height="258pt"
 viewBox="0.00 0.00 1146.50 258.00" xmlns="http://www.w3.org/2000/svg" xmlns:xlink="http://www.w3.org/1999/xlink">
<g id="graph0" class="graph" transform="scale(1 1) rotate(0) translate(4 254)">
<title>src/Callbacks/GetNeededInstantiations.cpp</title>
<!-- Node1 -->
<g id="Node000001" class="node">
<title>Node1</title>
<g id="a_Node000001"><a xlink:title=" ">
<polygon fill="#999999" stroke="#666666" points="947,-250 721,-250 721,-231 947,-231 947,-250"/>
<text text-anchor="middle" x="834" y="-238" font-family="Helvetica,sans-Serif" font-size="10.00">src/Callbacks/GetNeededInstantiations.cpp</text>
</a>
</g>
</g>
<!-- Node2 -->
<g id="Node000002" class="node">
<title>Node2</title>
<g id="a_Node000002"><a xlink:href="GetNeededInstantiations_8hpp.html" target="_top" xlink:title=" ">
<polygon fill="white" stroke="#666666" points="570.5,-195 361.5,-195 361.5,-176 570.5,-176 570.5,-195"/>
<text text-anchor="middle" x="466" y="-183" font-family="Helvetica,sans-Serif" font-size="10.00">Callbacks/GetNeededInstantiations.hpp</text>
</a>
</g>
</g>
<!-- Node1&#45;&gt;Node2 -->
<g id="edge1_Node000001_Node000002" class="edge">
<title>Node1&#45;&gt;Node2</title>
<g id="a_edge1_Node000001_Node000002"><a xlink:title=" ">
<path fill="none" stroke="#63b8ff" d="M774.87,-230.98C709.52,-221.57 604.36,-206.43 535.22,-196.47"/>
<polygon fill="#63b8ff" stroke="#63b8ff" points="535.68,-193 525.28,-195.04 534.68,-199.93 535.68,-193"/>
</a>
</g>
</g>
<!-- Node5 -->
<g id="Node000005" class="node">
<title>Node5</title>
<g id="a_Node000005"><a xlink:href="Injection_8hpp.html" target="_top" xlink:title=" ">
<polygon fill="white" stroke="#666666" points="540,-134.5 460,-134.5 460,-115.5 540,-115.5 540,-134.5"/>
<text text-anchor="middle" x="500" y="-122.5" font-family="Helvetica,sans-Serif" font-size="10.00">Injection.hpp</text>
</a>
</g>
</g>
<!-- Node1&#45;&gt;Node5 -->
<g id="edge28_Node000001_Node000005" class="edge">
<title>Node1&#45;&gt;Node5</title>
<g id="a_edge28_Node000001_Node000005"><a xlink:title=" ">
<path fill="none" stroke="#63b8ff" d="M808.9,-230.97C750.02,-210.96 602.93,-160.98 535.18,-137.95"/>
<polygon fill="#63b8ff" stroke="#63b8ff" points="535.99,-134.53 525.4,-134.63 533.74,-141.16 535.99,-134.53"/>
</a>
</g>
</g>
<!-- Node10 -->
<g id="Node000010" class="node">
<title>Node10</title>
<g id="a_Node000010"><a xlink:title=" ">
<polygon fill="#e0e0e0" stroke="#999999" points="827.5,-74 708.5,-74 708.5,-55 827.5,-55 827.5,-74"/>
<text text-anchor="middle" x="768" y="-62" font-family="Helvetica,sans-Serif" font-size="10.00">clang/AST/DeclCXX.h</text>
</a>
</g>
</g>
<!-- Node1&#45;&gt;Node10 -->
<g id="edge26_Node000001_Node000010" class="edge">
<title>Node1&#45;&gt;Node10</title>
<g id="a_edge26_Node000001_Node000010"><a xlink:title=" ">
<path fill="none" stroke="#63b8ff" d="M830.64,-230.63C820.31,-203.4 788.9,-120.61 774.88,-83.65"/>
<polygon fill="#63b8ff" stroke="#63b8ff" points="778.1,-82.25 771.28,-74.14 771.55,-84.73 778.1,-82.25"/>
</a>
</g>
</g>
<!-- Node13 -->
<g id="Node000013" class="node">
<title>Node13</title>
<g id="a_Node000013"><a xlink:title=" ">
<polygon fill="#e0e0e0" stroke="#999999" points="756,-19 658,-19 658,0 756,0 756,-19"/>
<text text-anchor="middle" x="707" y="-7" font-family="Helvetica,sans-Serif" font-size="10.00">clang/AST/Decl.h</text>
</a>
</g>
</g>
<!-- Node1&#45;&gt;Node13 -->
<g id="edge25_Node000001_Node000013" class="edge">
<title>Node1&#45;&gt;Node13</title>
<g id="a_edge25_Node000001_Node000013"><a xlink:title=" ">
<path fill="none" stroke="#63b8ff" d="M837.43,-230.74C847.98,-202.23 876.86,-110.78 837,-55 820.77,-32.28 792.2,-21.04 765.97,-15.52"/>
<polygon fill="#63b8ff" stroke="#63b8ff" points="766.54,-12.07 756.07,-13.68 765.26,-18.95 766.54,-12.07"/>
</a>
</g>
</g>
<!-- Node17 -->
<g id="Node000017" class="node">
<title>Node17</title>
<g id="a_Node000017"><a xlink:title=" ">
<polygon fill="#e0e0e0" stroke="#999999" points="977.5,-195 884.5,-195 884.5,-176 977.5,-176 977.5,-195"/>
<text text-anchor="middle" x="931" y="-183" font-family="Helvetica,sans-Serif" font-size="10.00">spdlog/spdlog.h</text>
</a>
</g>
</g>
<!-- Node1&#45;&gt;Node17 -->
<g id="edge24_Node000001_Node000017" class="edge">
<title>Node1&#45;&gt;Node17</title>
<g id="a_edge24_Node000001_Node000017"><a xlink:title=" ">
<path fill="none" stroke="#63b8ff" d="M849.58,-230.98C864.77,-222.69 888.1,-209.94 905.9,-200.22"/>
<polygon fill="#63b8ff" stroke="#63b8ff" points="908.03,-203.04 915.13,-195.17 904.68,-196.89 908.03,-203.04"/>
</a>
</g>
</g>
<!-- Node18 -->
<g id="Node000018" class="node">
<title>Node18</title>
<g id="a_Node000018"><a xlink:title=" ">
<polygon fill="#e0e0e0" stroke="#999999" points="1138.5,-195 995.5,-195 995.5,-176 1138.5,-176 1138.5,-195"/>
<text text-anchor="middle" x="1067" y="-183" font-family="Helvetica,sans-Serif" font-size="10.00">clang/AST/DeclTemplate.h</text>
</a>
</g>
</g>
<!-- Node1&#45;&gt;Node18 -->
<g id="edge27_Node000001_Node000018" class="edge">
<title>Node1&#45;&gt;Node18</title>
<g id="a_edge27_Node000001_Node000018"><a xlink:title=" ">
<path fill="none" stroke="#63b8ff" d="M871.44,-230.98C911.65,-221.84 975.68,-207.27 1019.44,-197.32"/>
<polygon fill="#63b8ff" stroke="#63b8ff" points="1020.3,-200.71 1029.27,-195.08 1018.74,-193.89 1020.3,-200.71"/>
</a>
</g>
</g>
<!-- Node3 -->
<g id="Node000003" class="node">
<title>Node3</title>
<g id="a_Node000003"><a xlink:title=" ">
<polygon fill="#e0e0e0" stroke="#999999" points="124.5,-74 77.5,-74 77.5,-55 124.5,-55 124.5,-74"/>
<text text-anchor="middle" x="101" y="-62" font-family="Helvetica,sans-Serif" font-size="10.00">vector</text>
</a>
</g>
</g>
<!-- Node2&#45;&gt;Node3 -->
<g id="edge2_Node000002_Node000003" class="edge">
<title>Node2&#45;&gt;Node3</title>
<g id="a_edge2_Node000002_Node000003"><a xlink:title=" ">
<path fill="none" stroke="#63b8ff" d="M462.49,-175.83C455.51,-159.83 438.26,-125.84 412,-110 409.03,-108.21 214.51,-81.18 134.65,-70.14"/>
<polygon fill="#63b8ff" stroke="#63b8ff" points="135,-66.66 124.62,-68.76 134.05,-73.59 135,-66.66"/>
</a>
</g>
</g>
<!-- Node4 -->
<g id="Node000004" class="node">
<title>Node4</title>
<g id="a_Node000004"><a xlink:title=" ">
<polygon fill="#e0e0e0" stroke="#999999" points="403.5,-140 242.5,-140 242.5,-110 403.5,-110 403.5,-140"/>
<text text-anchor="start" x="250.5" y="-128" font-family="Helvetica,sans-Serif" font-size="10.00">clang/ASTMatchers/ASTMatch</text>
<text text-anchor="middle" x="323" y="-117" font-family="Helvetica,sans-Serif" font-size="10.00">Finder.h</text>
</a>
</g>
</g>
<!-- Node2&#45;&gt;Node4 -->
<g id="edge3_Node000002_Node000004" class="edge">
<title>Node2&#45;&gt;Node4</title>
<g id="a_edge3_Node000002_Node000004"><a xlink:title=" ">
<path fill="none" stroke="#63b8ff" d="M445.21,-175.99C424.72,-167.61 392.78,-154.55 366.69,-143.87"/>
<polygon fill="#63b8ff" stroke="#63b8ff" points="367.96,-140.61 357.38,-140.06 365.31,-147.09 367.96,-140.61"/>
</a>
</g>
</g>
<!-- Node2&#45;&gt;Node5 -->
<g id="edge4_Node000002_Node000005" class="edge">
<title>Node2&#45;&gt;Node5</title>
<g id="a_edge4_Node000002_Node000005"><a xlink:title=" ">
<path fill="none" stroke="#63b8ff" d="M471.02,-175.87C475.94,-167.4 483.59,-154.24 489.79,-143.57"/>
<polygon fill="#63b8ff" stroke="#63b8ff" points="492.96,-145.07 494.96,-134.67 486.91,-141.55 492.96,-145.07"/>
</a>
</g>
</g>
<!-- Node5&#45;&gt;Node3 -->
<g id="edge6_Node000005_Node000003" class="edge">
<title>Node5&#45;&gt;Node3</title>
<g id="a_edge6_Node000005_Node000003"><a xlink:title=" ">
<path fill="none" stroke="#63b8ff" d="M470.17,-115.49C462.36,-113.47 453.9,-111.48 446,-110 310.97,-84.7 274.44,-97.02 139,-74 137.54,-73.75 136.06,-73.48 134.56,-73.2"/>
<polygon fill="#63b8ff" stroke="#63b8ff" points="135.14,-69.75 124.64,-71.18 133.74,-76.61 135.14,-69.75"/>
</a>
</g>
</g>
<!-- Node6 -->
<g id="Node000006" class="node">
<title>Node6</title>
<g id="a_Node000006"><a xlink:title=" ">
<polygon fill="#e0e0e0" stroke="#999999" points="536,-19 492,-19 492,0 536,0 536,-19"/>
<text text-anchor="middle" x="514" y="-7" font-family="Helvetica,sans-Serif" font-size="10.00">string</text>
</a>
</g>
</g>
<!-- Node5&#45;&gt;Node6 -->
<g id="edge5_Node000005_Node000006" class="edge">
<title>Node5&#45;&gt;Node6</title>
<g id="a_edge5_Node000005_Node000006"><a xlink:title=" ">
<path fill="none" stroke="#63b8ff" d="M540.14,-123.53C576.97,-120.7 629.68,-110.07 656,-74 685.65,-33.37 596.99,-18.25 546.48,-13.02"/>
<polygon fill="#63b8ff" stroke="#63b8ff" points="546.63,-9.52 536.34,-12.05 545.96,-16.49 546.63,-9.52"/>
</a>
</g>
</g>
<!-- Node7 -->
<g id="Node000007" class="node">
<title>Node7</title>
<g id="a_Node000007"><a xlink:title=" ">
<polygon fill="#e0e0e0" stroke="#999999" points="233.5,-19 164.5,-19 164.5,0 233.5,0 233.5,-19"/>
<text text-anchor="middle" x="199" y="-7" font-family="Helvetica,sans-Serif" font-size="10.00">fmt/color.h</text>
</a>
</g>
</g>
<!-- Node5&#45;&gt;Node7 -->
<g id="edge7_Node000005_Node000007" class="edge">
<title>Node5&#45;&gt;Node7</title>
<g id="a_edge7_Node000005_Node000007"><a xlink:title=" ">
<path fill="none" stroke="#63b8ff" d="M469.88,-115.49C462.14,-113.5 453.8,-111.52 446,-110 385.72,-98.27 212.5,-120.17 172,-74 160.09,-60.43 171.57,-40.83 183.02,-27"/>
<polygon fill="#63b8ff" stroke="#63b8ff" points="185.89,-29.03 189.93,-19.24 180.66,-24.38 185.89,-29.03"/>
</a>
</g>
</g>
<!-- Node8 -->
<g id="Node000008" class="node">
<title>Node8</title>
<g id="a_Node000008"><a xlink:title=" ">
<polygon fill="#e0e0e0" stroke="#999999" points="473.5,-19 406.5,-19 406.5,0 473.5,0 473.5,-19"/>
<text text-anchor="middle" x="440" y="-7" font-family="Helvetica,sans-Serif" font-size="10.00">fmt/core.h</text>
</a>
</g>
</g>
<!-- Node5&#45;&gt;Node8 -->
<g id="edge8_Node000005_Node000008" class="edge">
<title>Node5&#45;&gt;Node8</title>
<g id="a_edge8_Node000005_Node000008"><a xlink:title=" ">
<path fill="none" stroke="#63b8ff" d="M540.23,-117.12C585.3,-107.65 648.87,-87.92 623,-55 618.62,-49.43 536.28,-31 483.56,-19.68"/>
<polygon fill="#63b8ff" stroke="#63b8ff" points="484.27,-16.26 473.76,-17.59 482.81,-23.1 484.27,-16.26"/>
</a>
</g>
</g>
<!-- Node9 -->
<g id="Node000009" class="node">
<title>Node9</title>
<g id="a_Node000009"><a xlink:title=" ">
<polygon fill="#e0e0e0" stroke="#999999" points="496.5,-74 417.5,-74 417.5,-55 496.5,-55 496.5,-74"/>
<text text-anchor="middle" x="457" y="-62" font-family="Helvetica,sans-Serif" font-size="10.00">fmt/ranges.h</text>
</a>
</g>
</g>
<!-- Node5&#45;&gt;Node9 -->
<g id="edge9_Node000005_Node000009" class="edge">
<title>Node5&#45;&gt;Node9</title>
<g id="a_edge9_Node000005_Node000009"><a xlink:title=" ">
<path fill="none" stroke="#63b8ff" d="M493.66,-115.37C487.3,-106.73 477.36,-93.2 469.43,-82.42"/>
<polygon fill="#63b8ff" stroke="#63b8ff" points="472.11,-80.15 463.37,-74.17 466.47,-84.3 472.11,-80.15"/>
</a>
</g>
</g>
<!-- Node5&#45;&gt;Node10 -->
<g id="edge10_Node000005_Node000010" class="edge">
<title>Node5&#45;&gt;Node10</title>
<g id="a_edge10_Node000005_Node000010"><a xlink:title=" ">
<path fill="none" stroke="#63b8ff" d="M538.97,-115.49C586.6,-105.1 667.25,-87.49 719.03,-76.19"/>
<polygon fill="#63b8ff" stroke="#63b8ff" points="719.96,-79.57 728.98,-74.02 718.47,-72.73 719.96,-79.57"/>
</a>
</g>
</g>
<!-- Node11 -->
<g id="Node000011" class="node">
<title>Node11</title>
<g id="a_Node000011"><a xlink:title=" ">
<polygon fill="#e0e0e0" stroke="#999999" points="613.5,-74 514.5,-74 514.5,-55 613.5,-55 613.5,-74"/>
<text text-anchor="middle" x="564" y="-62" font-family="Helvetica,sans-Serif" font-size="10.00">clang/AST/Type.h</text>
</a>
</g>
</g>
<!-- Node5&#45;&gt;Node11 -->
<g id="edge11_Node000005_Node000011" class="edge">
<title>Node5&#45;&gt;Node11</title>
<g id="a_edge11_Node000005_Node000011"><a xlink:title=" ">
<path fill="none" stroke="#63b8ff" d="M509.44,-115.37C519.27,-106.38 534.89,-92.11 546.89,-81.14"/>
<polygon fill="#63b8ff" stroke="#63b8ff" points="549.5,-83.5 554.52,-74.17 544.78,-78.33 549.5,-83.5"/>
</a>
</g>
</g>
<!-- Node12 -->
<g id="Node000012" class="node">
<title>Node12</title>
<g id="a_Node000012"><a xlink:href="Param_8hpp.html" target="_top" xlink:title=" ">
<polygon fill="white" stroke="#666666" points="399,-74 331,-74 331,-55 399,-55 399,-74"/>
<text text-anchor="middle" x="365" y="-62" font-family="Helvetica,sans-Serif" font-size="10.00">Param.hpp</text>
</a>
</g>
</g>
<!-- Node5&#45;&gt;Node12 -->
<g id="edge12_Node000005_Node000012" class="edge">
<title>Node5&#45;&gt;Node12</title>
<g id="a_edge12_Node000005_Node000012"><a xlink:title=" ">
<path fill="none" stroke="#63b8ff" d="M480.37,-115.49C457.67,-105.66 420.1,-89.38 394.03,-78.08"/>
<polygon fill="#63b8ff" stroke="#63b8ff" points="395.22,-74.78 384.65,-74.02 392.44,-81.2 395.22,-74.78"/>
</a>
</g>
</g>
<!-- Node15 -->
<g id="Node000015" class="node">
<title>Node15</title>
<g id="a_Node000015"><a xlink:href="TemplateArgument_8hpp.html" target="_top" xlink:title=" ">
<polygon fill="white" stroke="#666666" points="312.5,-74 181.5,-74 181.5,-55 312.5,-55 312.5,-74"/>
<text text-anchor="middle" x="247" y="-62" font-family="Helvetica,sans-Serif" font-size="10.00">TemplateArgument.hpp</text>
</a>
</g>
</g>
<!-- Node5&#45;&gt;Node15 -->
<g id="edge18_Node000005_Node000015" class="edge">
<title>Node5&#45;&gt;Node15</title>
<g id="a_edge18_Node000005_Node000015"><a xlink:title=" ">
<path fill="none" stroke="#63b8ff" d="M467.78,-115.46C460.62,-113.61 453.06,-111.7 446,-110 395.4,-97.79 337.27,-84.92 296.96,-76.18"/>
<polygon fill="#63b8ff" stroke="#63b8ff" points="297.63,-72.75 287.11,-74.05 296.15,-79.59 297.63,-72.75"/>
</a>
</g>
</g>
<!-- Node12&#45;&gt;Node6 -->
<g id="edge13_Node000012_Node000006" class="edge">
<title>Node12&#45;&gt;Node6</title>
<g id="a_edge13_Node000012_Node000006"><a xlink:title=" ">
<path fill="none" stroke="#63b8ff" d="M388.94,-54.98C414.14,-46.02 453.96,-31.86 481.88,-21.92"/>
<polygon fill="#63b8ff" stroke="#63b8ff" points="483.33,-25.12 491.58,-18.47 480.99,-18.53 483.33,-25.12"/>
</a>
</g>
</g>
<!-- Node12&#45;&gt;Node7 -->
<g id="edge14_Node000012_Node000007" class="edge">
<title>Node12&#45;&gt;Node7</title>
<g id="a_edge14_Node000012_Node000007"><a xlink:title=" ">
<path fill="none" stroke="#63b8ff" d="M338.33,-54.98C310.46,-46.09 266.55,-32.07 235.48,-22.15"/>
<polygon fill="#63b8ff" stroke="#63b8ff" points="236.47,-18.79 225.88,-19.08 234.34,-25.46 236.47,-18.79"/>
</a>
</g>
</g>
<!-- Node12&#45;&gt;Node8 -->
<g id="edge15_Node000012_Node000008" class="edge">
<title>Node12&#45;&gt;Node8</title>
<g id="a_edge15_Node000012_Node000008"><a xlink:title=" ">
<path fill="none" stroke="#63b8ff" d="M377.05,-54.98C388.46,-46.92 405.83,-34.65 419.43,-25.03"/>
<polygon fill="#63b8ff" stroke="#63b8ff" points="421.58,-27.8 427.73,-19.17 417.54,-22.08 421.58,-27.8"/>
</a>
</g>
</g>
<!-- Node12&#45;&gt;Node13 -->
<g id="edge16_Node000012_Node000013" class="edge">
<title>Node12&#45;&gt;Node13</title>
<g id="a_edge16_Node000012_Node000013"><a xlink:title=" ">
<path fill="none" stroke="#63b8ff" d="M399.24,-56.58C402.2,-56.03 405.15,-55.49 408,-55 490.98,-40.63 587.41,-26.79 647.83,-18.46"/>
<polygon fill="#63b8ff" stroke="#63b8ff" points="648.51,-21.9 657.94,-17.07 647.56,-14.97 648.51,-21.9"/>
</a>
</g>
</g>
<!-- Node14 -->
<g id="Node000014" class="node">
<title>Node14</title>
<g id="a_Node000014"><a xlink:title=" ">
<polygon fill="#e0e0e0" stroke="#999999" points="388.5,-19 251.5,-19 251.5,0 388.5,0 388.5,-19"/>
<text text-anchor="middle" x="320" y="-7" font-family="Helvetica,sans-Serif" font-size="10.00">clang/AST/PrettyPrinter.h</text>
</a>
</g>
</g>
<!-- Node12&#45;&gt;Node14 -->
<g id="edge17_Node000012_Node000014" class="edge">
<title>Node12&#45;&gt;Node14</title>
<g id="a_edge17_Node000012_Node000014"><a xlink:title=" ">
<path fill="none" stroke="#63b8ff" d="M357.57,-54.75C351.15,-47.18 341.69,-36.05 333.88,-26.84"/>
<polygon fill="#63b8ff" stroke="#63b8ff" points="336.43,-24.45 327.29,-19.09 331.1,-28.98 336.43,-24.45"/>
</a>
</g>
</g>
<!-- Node15&#45;&gt;Node6 -->
<g id="edge20_Node000015_Node000006" class="edge">
<title>Node15&#45;&gt;Node6</title>
<g id="a_edge20_Node000015_Node000006"><a xlink:title=" ">
<path fill="none" stroke="#63b8ff" d="M298.1,-54.92C343.71,-47.02 412.51,-34.49 481.88,-18.88"/>
<polygon fill="#63b8ff" stroke="#63b8ff" points="482.7,-22.28 491.67,-16.65 481.14,-15.45 482.7,-22.28"/>
</a>
</g>
</g>
<!-- Node15&#45;&gt;Node7 -->
<g id="edge21_Node000015_Node000007" class="edge">
<title>Node15&#45;&gt;Node7</title>
<g id="a_edge21_Node000015_Node000007"><a xlink:title=" ">
<path fill="none" stroke="#63b8ff" d="M239.07,-54.75C232.15,-47.11 221.93,-35.82 213.55,-26.56"/>
<polygon fill="#63b8ff" stroke="#63b8ff" points="216.09,-24.15 206.78,-19.09 210.9,-28.85 216.09,-24.15"/>
</a>
</g>
</g>
<!-- Node15&#45;&gt;Node8 -->
<g id="edge22_Node000015_Node000008" class="edge">
<title>Node15&#45;&gt;Node8</title>
<g id="a_edge22_Node000015_Node000008"><a xlink:title=" ">
<path fill="none" stroke="#63b8ff" d="M278.01,-54.98C310.83,-45.97 362.8,-31.7 398.99,-21.76"/>
<polygon fill="#63b8ff" stroke="#63b8ff" points="400.03,-25.11 408.75,-19.08 398.18,-18.36 400.03,-25.11"/>
</a>
</g>
</g>
<!-- Node15&#45;&gt;Node14 -->
<g id="edge23_Node000015_Node000014" class="edge">
<title>Node15&#45;&gt;Node14</title>
<g id="a_edge23_Node000015_Node000014"><a xlink:title=" ">
<path fill="none" stroke="#63b8ff" d="M258.73,-54.98C269.73,-47 286.42,-34.88 299.6,-25.31"/>
<polygon fill="#63b8ff" stroke="#63b8ff" points="302.02,-27.88 308.06,-19.17 297.91,-22.21 302.02,-27.88"/>
</a>
</g>
</g>
<!-- Node16 -->
<g id="Node000016" class="node">
<title>Node16</title>
<g id="a_Node000016"><a xlink:title=" ">
<polygon fill="#e0e0e0" stroke="#999999" points="146,-19 0,-19 0,0 146,0 146,-19"/>
<text text-anchor="middle" x="73" y="-7" font-family="Helvetica,sans-Serif" font-size="10.00">clang/AST/TemplateBase.h</text>
</a>
</g>
</g>
<!-- Node15&#45;&gt;Node16 -->
<g id="edge19_Node000015_Node000016" class="edge">
<title>Node15&#45;&gt;Node16</title>
<g id="a_edge19_Node000015_Node000016"><a xlink:title=" ">
<path fill="none" stroke="#63b8ff" d="M219.04,-54.98C189.7,-46.05 143.4,-31.94 110.81,-22.02"/>
<polygon fill="#63b8ff" stroke="#63b8ff" points="111.76,-18.65 101.18,-19.08 109.72,-25.34 111.76,-18.65"/>
</a>
</g>
</g>
</g>
</svg>
