<?xml version="1.0" encoding="UTF-8" standalone="no"?>
<!DOCTYPE svg PUBLIC "-//W3C//DTD SVG 1.1//EN"
 "http://www.w3.org/Graphics/SVG/1.1/DTD/svg11.dtd">
<!-- Generated by graphviz version 2.43.0 (0)
 -->
<!-- Title: src/Callbacks/GetNeededInstantiations.cpp Pages: 1 -->
<svg width="1111pt" height="263pt"
 viewBox="0.00 0.00 1110.50 263.00" xmlns="http://www.w3.org/2000/svg" xmlns:xlink="http://www.w3.org/1999/xlink">
<g id="graph0" class="graph" transform="scale(1 1) rotate(0) translate(4 259)">
<title>src/Callbacks/GetNeededInstantiations.cpp</title>
<!-- Node1 -->
<g id="node1" class="node">
<title>Node1</title>
<g id="a_node1"><a xlink:title=" ">
<polygon fill="#bfbfbf" stroke="black" points="533,-235.5 533,-254.5 759,-254.5 759,-235.5 533,-235.5"/>
<text text-anchor="middle" x="646" y="-242.5" font-family="Helvetica,sans-Serif" font-size="10.00">src/Callbacks/GetNeededInstantiations.cpp</text>
</a>
</g>
</g>
<!-- Node2 -->
<g id="node2" class="node">
<title>Node2</title>
<g id="a_node2"><a xlink:title=" ">
<polygon fill="none" stroke="#bfbfbf" points="0,-56.5 0,-75.5 56,-75.5 56,-56.5 0,-56.5"/>
<text text-anchor="middle" x="28" y="-63.5" font-family="Helvetica,sans-Serif" font-size="10.00">optional</text>
</a>
</g>
</g>
<!-- Node1&#45;&gt;Node2 -->
<g id="edge1" class="edge">
<title>Node1&#45;&gt;Node2</title>
<path fill="none" stroke="midnightblue" d="M555.72,-235.46C497.68,-228.65 421.05,-217.18 355,-199 239.18,-167.13 108.8,-106.56 54.22,-80.02"/>
<polygon fill="midnightblue" stroke="midnightblue" points="55.75,-76.87 45.23,-75.62 52.67,-83.16 55.75,-76.87"/>
</g>
<!-- Node3 -->
<g id="node3" class="node">
<title>Node3</title>
<g id="a_node3"><a xlink:href="GetNeededInstantiations_8hpp.html" target="_top" xlink:title=" ">
<polygon fill="none" stroke="black" points="384.5,-179.5 384.5,-198.5 593.5,-198.5 593.5,-179.5 384.5,-179.5"/>
<text text-anchor="middle" x="489" y="-186.5" font-family="Helvetica,sans-Serif" font-size="10.00">Callbacks/GetNeededInstantiations.hpp</text>
</a>
</g>
</g>
<!-- Node1&#45;&gt;Node3 -->
<g id="edge2" class="edge">
<title>Node1&#45;&gt;Node3</title>
<path fill="none" stroke="midnightblue" d="M621.12,-235.44C594.71,-226.36 552.78,-211.94 523.26,-201.78"/>
<polygon fill="midnightblue" stroke="midnightblue" points="524.36,-198.46 513.76,-198.52 522.08,-205.08 524.36,-198.46"/>
</g>
<!-- Node6 -->
<g id="node6" class="node">
<title>Node6</title>
<g id="a_node6"><a xlink:href="Injection_8hpp.html" target="_top" xlink:title=" ">
<polygon fill="none" stroke="black" points="301,-118 301,-137 381,-137 381,-118 301,-118"/>
<text text-anchor="middle" x="341" y="-125" font-family="Helvetica,sans-Serif" font-size="10.00">Injection.hpp</text>
</a>
</g>
</g>
<!-- Node1&#45;&gt;Node6 -->
<g id="edge23" class="edge">
<title>Node1&#45;&gt;Node6</title>
<path fill="none" stroke="midnightblue" d="M532.79,-235.65C470.11,-229.03 399.95,-217.69 375,-199 358.21,-186.42 349.31,-163.38 344.88,-147.06"/>
<polygon fill="midnightblue" stroke="midnightblue" points="348.22,-145.97 342.49,-137.05 341.41,-147.59 348.22,-145.97"/>
</g>
<!-- Node9 -->
<g id="node9" class="node">
<title>Node9</title>
<g id="a_node9"><a xlink:title=" ">
<polygon fill="none" stroke="#bfbfbf" points="517.5,-56.5 517.5,-75.5 636.5,-75.5 636.5,-56.5 517.5,-56.5"/>
<text text-anchor="middle" x="577" y="-63.5" font-family="Helvetica,sans-Serif" font-size="10.00">clang/AST/DeclCXX.h</text>
</a>
</g>
</g>
<!-- Node1&#45;&gt;Node9 -->
<g id="edge21" class="edge">
<title>Node1&#45;&gt;Node9</title>
<path fill="none" stroke="midnightblue" d="M644.51,-235.32C640.58,-213.69 628.8,-155.98 608,-112 603.29,-102.05 596.49,-91.87 590.45,-83.72"/>
<polygon fill="midnightblue" stroke="midnightblue" points="593.21,-81.57 584.33,-75.78 587.66,-85.84 593.21,-81.57"/>
</g>
<!-- Node13 -->
<g id="node13" class="node">
<title>Node13</title>
<g id="a_node13"><a xlink:title=" ">
<polygon fill="none" stroke="#bfbfbf" points="616,-0.5 616,-19.5 714,-19.5 714,-0.5 616,-0.5"/>
<text text-anchor="middle" x="665" y="-7.5" font-family="Helvetica,sans-Serif" font-size="10.00">clang/AST/Decl.h</text>
</a>
</g>
</g>
<!-- Node1&#45;&gt;Node13 -->
<g id="edge20" class="edge">
<title>Node1&#45;&gt;Node13</title>
<path fill="none" stroke="midnightblue" d="M646.7,-235.43C649.44,-201.75 659.54,-77.99 663.44,-30.1"/>
<polygon fill="midnightblue" stroke="midnightblue" points="666.95,-30.15 664.27,-19.9 659.97,-29.58 666.95,-30.15"/>
</g>
<!-- Node16 -->
<g id="node16" class="node">
<title>Node16</title>
<g id="a_node16"><a xlink:title=" ">
<polygon fill="none" stroke="#bfbfbf" points="693.5,-179.5 693.5,-198.5 792.5,-198.5 792.5,-179.5 693.5,-179.5"/>
<text text-anchor="middle" x="743" y="-186.5" font-family="Helvetica,sans-Serif" font-size="10.00">llvm/ADT/APInt.h</text>
</a>
</g>
</g>
<!-- Node1&#45;&gt;Node16 -->
<g id="edge18" class="edge">
<title>Node1&#45;&gt;Node16</title>
<path fill="none" stroke="midnightblue" d="M661.58,-235.32C677,-226.74 700.81,-213.49 718.71,-203.52"/>
<polygon fill="midnightblue" stroke="midnightblue" points="720.42,-206.58 727.45,-198.65 717.01,-200.46 720.42,-206.58"/>
</g>
<!-- Node17 -->
<g id="node17" class="node">
<title>Node17</title>
<g id="a_node17"><a xlink:title=" ">
<polygon fill="none" stroke="#bfbfbf" points="811,-179.5 811,-198.5 941,-198.5 941,-179.5 811,-179.5"/>
<text text-anchor="middle" x="876" y="-186.5" font-family="Helvetica,sans-Serif" font-size="10.00">llvm/ADT/SmallString.h</text>
</a>
</g>
</g>
<!-- Node1&#45;&gt;Node17 -->
<g id="edge19" class="edge">
<title>Node1&#45;&gt;Node17</title>
<path fill="none" stroke="midnightblue" d="M682.44,-235.44C722.4,-226.06 786.59,-210.99 829.98,-200.8"/>
<polygon fill="midnightblue" stroke="midnightblue" points="830.79,-204.21 839.73,-198.52 829.19,-197.39 830.79,-204.21"/>
</g>
<!-- Node18 -->
<g id="node18" class="node">
<title>Node18</title>
<g id="a_node18"><a xlink:title=" ">
<polygon fill="none" stroke="#bfbfbf" points="959.5,-179.5 959.5,-198.5 1102.5,-198.5 1102.5,-179.5 959.5,-179.5"/>
<text text-anchor="middle" x="1031" y="-186.5" font-family="Helvetica,sans-Serif" font-size="10.00">clang/AST/DeclTemplate.h</text>
</a>
</g>
</g>
<!-- Node1&#45;&gt;Node18 -->
<g id="edge22" class="edge">
<title>Node1&#45;&gt;Node18</title>
<path fill="none" stroke="midnightblue" d="M707,-235.44C775.86,-225.79 887.7,-210.1 960.3,-199.92"/>
<polygon fill="midnightblue" stroke="midnightblue" points="960.86,-203.37 970.28,-198.52 959.89,-196.44 960.86,-203.37"/>
</g>
<!-- Node4 -->
<g id="node4" class="node">
<title>Node4</title>
<g id="a_node4"><a xlink:title=" ">
<polygon fill="none" stroke="#bfbfbf" points="452.5,-56.5 452.5,-75.5 499.5,-75.5 499.5,-56.5 452.5,-56.5"/>
<text text-anchor="middle" x="476" y="-63.5" font-family="Helvetica,sans-Serif" font-size="10.00">vector</text>
</a>
</g>
</g>
<!-- Node3&#45;&gt;Node4 -->
<g id="edge3" class="edge">
<title>Node3&#45;&gt;Node4</title>
<path fill="none" stroke="midnightblue" d="M469.09,-179.41C454.78,-172.04 436.54,-159.92 428,-143 421.79,-130.7 422.52,-124.64 428,-112 433.27,-99.84 443.62,-89.46 453.36,-81.74"/>
<polygon fill="midnightblue" stroke="midnightblue" points="455.64,-84.41 461.63,-75.67 451.5,-78.77 455.64,-84.41"/>
</g>
<!-- Node5 -->
<g id="node5" class="node">
<title>Node5</title>
<g id="a_node5"><a xlink:title=" ">
<polygon fill="none" stroke="#bfbfbf" points="437.5,-112.5 437.5,-142.5 598.5,-142.5 598.5,-112.5 437.5,-112.5"/>
<text text-anchor="start" x="445.5" y="-130.5" font-family="Helvetica,sans-Serif" font-size="10.00">clang/ASTMatchers/ASTMatch</text>
<text text-anchor="middle" x="518" y="-119.5" font-family="Helvetica,sans-Serif" font-size="10.00">Finder.h</text>
</a>
</g>
</g>
<!-- Node3&#45;&gt;Node5 -->
<g id="edge4" class="edge">
<title>Node3&#45;&gt;Node5</title>
<path fill="none" stroke="midnightblue" d="M493.15,-179.48C496.68,-172.25 501.9,-161.53 506.65,-151.78"/>
<polygon fill="midnightblue" stroke="midnightblue" points="509.93,-153.05 511.17,-142.52 503.64,-149.98 509.93,-153.05"/>
</g>
<!-- Node3&#45;&gt;Node6 -->
<g id="edge5" class="edge">
<title>Node3&#45;&gt;Node6</title>
<path fill="none" stroke="midnightblue" d="M467.8,-179.48C442.63,-169.36 400.46,-152.4 371.72,-140.85"/>
<polygon fill="midnightblue" stroke="midnightblue" points="372.75,-137.49 362.17,-137.01 370.14,-143.99 372.75,-137.49"/>
</g>
<!-- Node6&#45;&gt;Node2 -->
<g id="edge6" class="edge">
<title>Node6&#45;&gt;Node2</title>
<path fill="none" stroke="midnightblue" d="M300.63,-119.86C248.68,-111.16 155.43,-94.98 66.25,-76.17"/>
<polygon fill="midnightblue" stroke="midnightblue" points="66.75,-72.7 56.24,-74.05 65.3,-79.55 66.75,-72.7"/>
</g>
<!-- Node6&#45;&gt;Node4 -->
<g id="edge8" class="edge">
<title>Node6&#45;&gt;Node4</title>
<path fill="none" stroke="midnightblue" d="M360.34,-117.98C383.1,-107.95 421.09,-91.2 447.29,-79.65"/>
<polygon fill="midnightblue" stroke="midnightblue" points="448.95,-82.74 456.69,-75.51 446.13,-76.34 448.95,-82.74"/>
</g>
<!-- Node7 -->
<g id="node7" class="node">
<title>Node7</title>
<g id="a_node7"><a xlink:title=" ">
<polygon fill="none" stroke="#bfbfbf" points="140,-0.5 140,-19.5 184,-19.5 184,-0.5 140,-0.5"/>
<text text-anchor="middle" x="162" y="-7.5" font-family="Helvetica,sans-Serif" font-size="10.00">string</text>
</a>
</g>
</g>
<!-- Node6&#45;&gt;Node7 -->
<g id="edge7" class="edge">
<title>Node6&#45;&gt;Node7</title>
<path fill="none" stroke="midnightblue" d="M311.06,-117.94C285.6,-109.75 248.86,-95.72 221,-76 202.23,-62.71 185.08,-42.49 174.17,-28.14"/>
<polygon fill="midnightblue" stroke="midnightblue" points="176.69,-25.67 167.94,-19.69 171.06,-29.82 176.69,-25.67"/>
</g>
<!-- Node8 -->
<g id="node8" class="node">
<title>Node8</title>
<g id="a_node8"><a xlink:title=" ">
<polygon fill="none" stroke="#bfbfbf" points="316,-56.5 316,-75.5 434,-75.5 434,-56.5 316,-56.5"/>
<text text-anchor="middle" x="375" y="-63.5" font-family="Helvetica,sans-Serif" font-size="10.00">llvm/ADT/StringRef.h</text>
</a>
</g>
</g>
<!-- Node6&#45;&gt;Node8 -->
<g id="edge9" class="edge">
<title>Node6&#45;&gt;Node8</title>
<path fill="none" stroke="midnightblue" d="M345.87,-117.98C350.87,-109.23 358.79,-95.37 365.11,-84.31"/>
<polygon fill="midnightblue" stroke="midnightblue" points="368.22,-85.93 370.14,-75.51 362.14,-82.46 368.22,-85.93"/>
</g>
<!-- Node6&#45;&gt;Node9 -->
<g id="edge10" class="edge">
<title>Node6&#45;&gt;Node9</title>
<path fill="none" stroke="midnightblue" d="M374.81,-117.98C416.52,-107.46 487.51,-89.56 533.31,-78.01"/>
<polygon fill="midnightblue" stroke="midnightblue" points="534.41,-81.35 543.25,-75.51 532.7,-74.56 534.41,-81.35"/>
</g>
<!-- Node10 -->
<g id="node10" class="node">
<title>Node10</title>
<g id="a_node10"><a xlink:title=" ">
<polygon fill="none" stroke="#bfbfbf" points="74.5,-56.5 74.5,-75.5 173.5,-75.5 173.5,-56.5 74.5,-56.5"/>
<text text-anchor="middle" x="124" y="-63.5" font-family="Helvetica,sans-Serif" font-size="10.00">clang/AST/Type.h</text>
</a>
</g>
</g>
<!-- Node6&#45;&gt;Node10 -->
<g id="edge11" class="edge">
<title>Node6&#45;&gt;Node10</title>
<path fill="none" stroke="midnightblue" d="M309.91,-117.98C271.72,-107.5 206.83,-89.71 164.7,-78.16"/>
<polygon fill="midnightblue" stroke="midnightblue" points="165.6,-74.78 155.03,-75.51 163.75,-81.53 165.6,-74.78"/>
</g>
<!-- Node11 -->
<g id="node11" class="node">
<title>Node11</title>
<g id="a_node11"><a xlink:href="Param_8hpp.html" target="_top" xlink:title=" ">
<polygon fill="none" stroke="black" points="230,-56.5 230,-75.5 298,-75.5 298,-56.5 230,-56.5"/>
<text text-anchor="middle" x="264" y="-63.5" font-family="Helvetica,sans-Serif" font-size="10.00">Param.hpp</text>
</a>
</g>
</g>
<!-- Node6&#45;&gt;Node11 -->
<g id="edge12" class="edge">
<title>Node6&#45;&gt;Node11</title>
<path fill="none" stroke="midnightblue" d="M329.97,-117.98C317.73,-108.52 297.77,-93.1 283.01,-81.69"/>
<polygon fill="midnightblue" stroke="midnightblue" points="285.06,-78.85 275.01,-75.51 280.78,-84.39 285.06,-78.85"/>
</g>
<!-- Node11&#45;&gt;Node7 -->
<g id="edge14" class="edge">
<title>Node11&#45;&gt;Node7</title>
<path fill="none" stroke="midnightblue" d="M247.61,-56.32C231.33,-47.7 206.13,-34.36 187.28,-24.39"/>
<polygon fill="midnightblue" stroke="midnightblue" points="188.82,-21.24 178.35,-19.65 185.55,-27.43 188.82,-21.24"/>
</g>
<!-- Node12 -->
<g id="node12" class="node">
<title>Node12</title>
<g id="a_node12"><a xlink:title=" ">
<polygon fill="none" stroke="#bfbfbf" points="202.5,-0.5 202.5,-19.5 259.5,-19.5 259.5,-0.5 202.5,-0.5"/>
<text text-anchor="middle" x="231" y="-7.5" font-family="Helvetica,sans-Serif" font-size="10.00">ostream</text>
</a>
</g>
</g>
<!-- Node11&#45;&gt;Node12 -->
<g id="edge13" class="edge">
<title>Node11&#45;&gt;Node12</title>
<path fill="none" stroke="midnightblue" d="M258.55,-56.08C253.99,-48.61 247.33,-37.72 241.71,-28.52"/>
<polygon fill="midnightblue" stroke="midnightblue" points="244.55,-26.46 236.35,-19.75 238.58,-30.11 244.55,-26.46"/>
</g>
<!-- Node11&#45;&gt;Node13 -->
<g id="edge15" class="edge">
<title>Node11&#45;&gt;Node13</title>
<path fill="none" stroke="midnightblue" d="M298.22,-57.56C301.18,-57 304.14,-56.47 307,-56 436.28,-34.76 472.22,-38.12 605.76,-20.12"/>
<polygon fill="midnightblue" stroke="midnightblue" points="606.53,-23.55 615.97,-18.73 605.59,-16.61 606.53,-23.55"/>
</g>
<!-- Node14 -->
<g id="node14" class="node">
<title>Node14</title>
<g id="a_node14"><a xlink:title=" ">
<polygon fill="none" stroke="#bfbfbf" points="278,-0.5 278,-19.5 442,-19.5 442,-0.5 278,-0.5"/>
<text text-anchor="middle" x="360" y="-7.5" font-family="Helvetica,sans-Serif" font-size="10.00">clang/AST/DependenceFlags.h</text>
</a>
</g>
</g>
<!-- Node11&#45;&gt;Node14 -->
<g id="edge16" class="edge">
<title>Node11&#45;&gt;Node14</title>
<path fill="none" stroke="midnightblue" d="M279.42,-56.32C294.54,-47.82 317.82,-34.73 335.47,-24.8"/>
<polygon fill="midnightblue" stroke="midnightblue" points="337.61,-27.61 344.61,-19.65 334.18,-21.51 337.61,-27.61"/>
</g>
<!-- Node15 -->
<g id="node15" class="node">
<title>Node15</title>
<g id="a_node15"><a xlink:title=" ">
<polygon fill="none" stroke="#bfbfbf" points="460.5,-0.5 460.5,-19.5 597.5,-19.5 597.5,-0.5 460.5,-0.5"/>
<text text-anchor="middle" x="529" y="-7.5" font-family="Helvetica,sans-Serif" font-size="10.00">clang/AST/PrettyPrinter.h</text>
</a>
</g>
</g>
<!-- Node11&#45;&gt;Node15 -->
<g id="edge17" class="edge">
<title>Node11&#45;&gt;Node15</title>
<path fill="none" stroke="midnightblue" d="M298.26,-57.81C301.22,-57.19 304.16,-56.58 307,-56 365.01,-44.05 431.6,-30.59 476.6,-21.52"/>
<polygon fill="midnightblue" stroke="midnightblue" points="477.31,-24.95 486.42,-19.55 475.93,-18.09 477.31,-24.95"/>
</g>
</g>
</svg>
