<?xml version="1.0" encoding="UTF-8" standalone="no"?>
<!DOCTYPE svg PUBLIC "-//W3C//DTD SVG 1.1//EN"
 "http://www.w3.org/Graphics/SVG/1.1/DTD/svg11.dtd">
<!-- Generated by graphviz version 2.43.0 (0)
 -->
<!-- Title: src/Callbacks/GetNeededInstantiations.cpp Pages: 1 -->
<svg width="919pt" height="258pt"
 viewBox="0.00 0.00 919.00 258.00" xmlns="http://www.w3.org/2000/svg" xmlns:xlink="http://www.w3.org/1999/xlink">
<g id="graph0" class="graph" transform="scale(1 1) rotate(0) translate(4 254)">
<title>src/Callbacks/GetNeededInstantiations.cpp</title>
<!-- Node1 -->
<g id="Node000001" class="node">
<title>Node1</title>
<g id="a_Node000001"><a xlink:title=" ">
<polygon fill="#999999" stroke="#666666" points="719.5,-250 493.5,-250 493.5,-231 719.5,-231 719.5,-250"/>
<text text-anchor="middle" x="606.5" y="-238" font-family="Helvetica,sans-Serif" font-size="10.00">src/Callbacks/GetNeededInstantiations.cpp</text>
</a>
</g>
</g>
<!-- Node2 -->
<g id="Node000002" class="node">
<title>Node2</title>
<g id="a_Node000002"><a xlink:href="GetNeededInstantiations_8hpp.html" target="_top" xlink:title=" ">
<polygon fill="white" stroke="#666666" points="399,-195 190,-195 190,-176 399,-176 399,-195"/>
<text text-anchor="middle" x="294.5" y="-183" font-family="Helvetica,sans-Serif" font-size="10.00">Callbacks/GetNeededInstantiations.hpp</text>
</a>
</g>
</g>
<!-- Node1&#45;&gt;Node2 -->
<g id="edge1_Node000001_Node000002" class="edge">
<title>Node1&#45;&gt;Node2</title>
<g id="a_edge1_Node000001_Node000002"><a xlink:title=" ">
<path fill="none" stroke="#63b8ff" d="M556.37,-230.98C501.41,-221.65 413.27,-206.67 354.63,-196.71"/>
<polygon fill="#63b8ff" stroke="#63b8ff" points="355.21,-193.26 344.76,-195.04 354.03,-200.16 355.21,-193.26"/>
</a>
</g>
</g>
<!-- Node5 -->
<g id="Node000005" class="node">
<title>Node5</title>
<g id="a_Node000005"><a xlink:href="Injection_8hpp.html" target="_top" xlink:title=" ">
<polygon fill="white" stroke="#666666" points="368.5,-134.5 288.5,-134.5 288.5,-115.5 368.5,-115.5 368.5,-134.5"/>
<text text-anchor="middle" x="328.5" y="-122.5" font-family="Helvetica,sans-Serif" font-size="10.00">Injection.hpp</text>
</a>
</g>
</g>
<!-- Node1&#45;&gt;Node5 -->
<g id="edge22_Node000001_Node000005" class="edge">
<title>Node1&#45;&gt;Node5</title>
<g id="a_edge22_Node000001_Node000005"><a xlink:title=" ">
<path fill="none" stroke="#63b8ff" d="M585.6,-230.97C537,-211.13 416.18,-161.8 359.18,-138.53"/>
<polygon fill="#63b8ff" stroke="#63b8ff" points="360.22,-135.17 349.64,-134.63 357.57,-141.65 360.22,-135.17"/>
</a>
</g>
</g>
<!-- Node10 -->
<g id="Node000010" class="node">
<title>Node10</title>
<g id="a_Node000010"><a xlink:title=" ">
<polygon fill="#e0e0e0" stroke="#999999" points="600,-74 481,-74 481,-55 600,-55 600,-74"/>
<text text-anchor="middle" x="540.5" y="-62" font-family="Helvetica,sans-Serif" font-size="10.00">clang/AST/DeclCXX.h</text>
</a>
</g>
</g>
<!-- Node1&#45;&gt;Node10 -->
<g id="edge20_Node000001_Node000010" class="edge">
<title>Node1&#45;&gt;Node10</title>
<g id="a_edge20_Node000001_Node000010"><a xlink:title=" ">
<path fill="none" stroke="#63b8ff" d="M603.14,-230.63C592.81,-203.4 561.4,-120.61 547.38,-83.65"/>
<polygon fill="#63b8ff" stroke="#63b8ff" points="550.6,-82.25 543.78,-74.14 544.05,-84.73 550.6,-82.25"/>
</a>
</g>
</g>
<!-- Node13 -->
<g id="Node000013" class="node">
<title>Node13</title>
<g id="a_Node000013"><a xlink:title=" ">
<polygon fill="#e0e0e0" stroke="#999999" points="669.5,-19 571.5,-19 571.5,0 669.5,0 669.5,-19"/>
<text text-anchor="middle" x="620.5" y="-7" font-family="Helvetica,sans-Serif" font-size="10.00">clang/AST/Decl.h</text>
</a>
</g>
</g>
<!-- Node1&#45;&gt;Node13 -->
<g id="edge19_Node000001_Node000013" class="edge">
<title>Node1&#45;&gt;Node13</title>
<g id="a_edge19_Node000001_Node000013"><a xlink:title=" ">
<path fill="none" stroke="#63b8ff" d="M607.03,-230.8C609.08,-197.29 616.49,-76.08 619.36,-29.2"/>
<polygon fill="#63b8ff" stroke="#63b8ff" points="622.85,-29.4 619.97,-19.21 615.86,-28.97 622.85,-29.4"/>
</a>
</g>
</g>
<!-- Node15 -->
<g id="Node000015" class="node">
<title>Node15</title>
<g id="a_Node000015"><a xlink:title=" ">
<polygon fill="#e0e0e0" stroke="#999999" points="750,-195 657,-195 657,-176 750,-176 750,-195"/>
<text text-anchor="middle" x="703.5" y="-183" font-family="Helvetica,sans-Serif" font-size="10.00">spdlog/spdlog.h</text>
</a>
</g>
</g>
<!-- Node1&#45;&gt;Node15 -->
<g id="edge18_Node000001_Node000015" class="edge">
<title>Node1&#45;&gt;Node15</title>
<g id="a_edge18_Node000001_Node000015"><a xlink:title=" ">
<path fill="none" stroke="#63b8ff" d="M622.08,-230.98C637.27,-222.69 660.6,-209.94 678.4,-200.22"/>
<polygon fill="#63b8ff" stroke="#63b8ff" points="680.53,-203.04 687.63,-195.17 677.18,-196.89 680.53,-203.04"/>
</a>
</g>
</g>
<!-- Node16 -->
<g id="Node000016" class="node">
<title>Node16</title>
<g id="a_Node000016"><a xlink:title=" ">
<polygon fill="#e0e0e0" stroke="#999999" points="911,-195 768,-195 768,-176 911,-176 911,-195"/>
<text text-anchor="middle" x="839.5" y="-183" font-family="Helvetica,sans-Serif" font-size="10.00">clang/AST/DeclTemplate.h</text>
</a>
</g>
</g>
<!-- Node1&#45;&gt;Node16 -->
<g id="edge21_Node000001_Node000016" class="edge">
<title>Node1&#45;&gt;Node16</title>
<g id="a_edge21_Node000001_Node000016"><a xlink:title=" ">
<path fill="none" stroke="#63b8ff" d="M643.94,-230.98C684.15,-221.84 748.18,-207.27 791.94,-197.32"/>
<polygon fill="#63b8ff" stroke="#63b8ff" points="792.8,-200.71 801.77,-195.08 791.24,-193.89 792.8,-200.71"/>
</a>
</g>
</g>
<!-- Node3 -->
<g id="Node000003" class="node">
<title>Node3</title>
<g id="a_Node000003"><a xlink:title=" ">
<polygon fill="#e0e0e0" stroke="#999999" points="47,-74 0,-74 0,-55 47,-55 47,-74"/>
<text text-anchor="middle" x="23.5" y="-62" font-family="Helvetica,sans-Serif" font-size="10.00">vector</text>
</a>
</g>
</g>
<!-- Node2&#45;&gt;Node3 -->
<g id="edge2_Node000002_Node000003" class="edge">
<title>Node2&#45;&gt;Node3</title>
<g id="a_edge2_Node000002_Node000003"><a xlink:title=" ">
<path fill="none" stroke="#63b8ff" d="M290.89,-175.98C283.76,-160.22 266.27,-126.63 240.5,-110 225.25,-100.16 114.52,-80.64 57.4,-71.06"/>
<polygon fill="#63b8ff" stroke="#63b8ff" points="57.83,-67.59 47.39,-69.39 56.68,-74.49 57.83,-67.59"/>
</a>
</g>
</g>
<!-- Node4 -->
<g id="Node000004" class="node">
<title>Node4</title>
<g id="a_Node000004"><a xlink:title=" ">
<polygon fill="#e0e0e0" stroke="#999999" points="232,-140 71,-140 71,-110 232,-110 232,-140"/>
<text text-anchor="start" x="79" y="-128" font-family="Helvetica,sans-Serif" font-size="10.00">clang/ASTMatchers/ASTMatch</text>
<text text-anchor="middle" x="151.5" y="-117" font-family="Helvetica,sans-Serif" font-size="10.00">Finder.h</text>
</a>
</g>
</g>
<!-- Node2&#45;&gt;Node4 -->
<g id="edge3_Node000002_Node000004" class="edge">
<title>Node2&#45;&gt;Node4</title>
<g id="a_edge3_Node000002_Node000004"><a xlink:title=" ">
<path fill="none" stroke="#63b8ff" d="M273.71,-175.99C253.22,-167.61 221.28,-154.55 195.19,-143.87"/>
<polygon fill="#63b8ff" stroke="#63b8ff" points="196.46,-140.61 185.88,-140.06 193.81,-147.09 196.46,-140.61"/>
</a>
</g>
</g>
<!-- Node2&#45;&gt;Node5 -->
<g id="edge4_Node000002_Node000005" class="edge">
<title>Node2&#45;&gt;Node5</title>
<g id="a_edge4_Node000002_Node000005"><a xlink:title=" ">
<path fill="none" stroke="#63b8ff" d="M299.52,-175.87C304.44,-167.4 312.09,-154.24 318.29,-143.57"/>
<polygon fill="#63b8ff" stroke="#63b8ff" points="321.46,-145.07 323.46,-134.67 315.41,-141.55 321.46,-145.07"/>
</a>
</g>
</g>
<!-- Node5&#45;&gt;Node3 -->
<g id="edge6_Node000005_Node000003" class="edge">
<title>Node5&#45;&gt;Node3</title>
<g id="a_edge6_Node000005_Node000003"><a xlink:title=" ">
<path fill="none" stroke="#63b8ff" d="M297.48,-115.47C289.99,-113.54 281.98,-111.6 274.5,-110 180.61,-89.93 155.71,-92.49 61.5,-74 60.05,-73.72 58.57,-73.42 57.07,-73.11"/>
<polygon fill="#63b8ff" stroke="#63b8ff" points="57.69,-69.66 47.18,-71 56.23,-76.51 57.69,-69.66"/>
</a>
</g>
</g>
<!-- Node6 -->
<g id="Node000006" class="node">
<title>Node6</title>
<g id="a_Node000006"><a xlink:title=" ">
<polygon fill="#e0e0e0" stroke="#999999" points="303.5,-19 259.5,-19 259.5,0 303.5,0 303.5,-19"/>
<text text-anchor="middle" x="281.5" y="-7" font-family="Helvetica,sans-Serif" font-size="10.00">string</text>
</a>
</g>
</g>
<!-- Node5&#45;&gt;Node6 -->
<g id="edge5_Node000005_Node000006" class="edge">
<title>Node5&#45;&gt;Node6</title>
<g id="a_edge5_Node000005_Node000006"><a xlink:title=" ">
<path fill="none" stroke="#63b8ff" d="M326.74,-115.25C323.88,-101.89 317.63,-75.78 308.5,-55 304.37,-45.6 298.6,-35.79 293.44,-27.77"/>
<polygon fill="#63b8ff" stroke="#63b8ff" points="296.27,-25.71 287.82,-19.32 290.45,-29.59 296.27,-25.71"/>
</a>
</g>
</g>
<!-- Node7 -->
<g id="Node000007" class="node">
<title>Node7</title>
<g id="a_Node000007"><a xlink:title=" ">
<polygon fill="#e0e0e0" stroke="#999999" points="546,-19 477,-19 477,0 546,0 546,-19"/>
<text text-anchor="middle" x="511.5" y="-7" font-family="Helvetica,sans-Serif" font-size="10.00">fmt/color.h</text>
</a>
</g>
</g>
<!-- Node5&#45;&gt;Node7 -->
<g id="edge7_Node000005_Node000007" class="edge">
<title>Node5&#45;&gt;Node7</title>
<g id="a_edge7_Node000005_Node000007"><a xlink:title=" ">
<path fill="none" stroke="#63b8ff" d="M350.2,-115.46C372.01,-106.48 406.2,-91.27 433.5,-74 456.16,-59.67 479.7,-39.68 494.91,-25.98"/>
<polygon fill="#63b8ff" stroke="#63b8ff" points="497.43,-28.42 502.45,-19.09 492.71,-23.26 497.43,-28.42"/>
</a>
</g>
</g>
<!-- Node8 -->
<g id="Node000008" class="node">
<title>Node8</title>
<g id="a_Node000008"><a xlink:title=" ">
<polygon fill="#e0e0e0" stroke="#999999" points="175,-19 108,-19 108,0 175,0 175,-19"/>
<text text-anchor="middle" x="141.5" y="-7" font-family="Helvetica,sans-Serif" font-size="10.00">fmt/core.h</text>
</a>
</g>
</g>
<!-- Node5&#45;&gt;Node8 -->
<g id="edge8_Node000005_Node000008" class="edge">
<title>Node5&#45;&gt;Node8</title>
<g id="a_edge8_Node000005_Node000008"><a xlink:title=" ">
<path fill="none" stroke="#63b8ff" d="M296.88,-115.48C289.55,-113.6 281.77,-111.67 274.5,-110 194.98,-91.76 146.22,-137.09 94.5,-74 81.12,-57.68 100.79,-38.05 118.62,-24.97"/>
<polygon fill="#63b8ff" stroke="#63b8ff" points="120.84,-27.69 127.08,-19.13 116.86,-21.94 120.84,-27.69"/>
</a>
</g>
</g>
<!-- Node9 -->
<g id="Node000009" class="node">
<title>Node9</title>
<g id="a_Node000009"><a xlink:title=" ">
<polygon fill="#e0e0e0" stroke="#999999" points="183,-74 104,-74 104,-55 183,-55 183,-74"/>
<text text-anchor="middle" x="143.5" y="-62" font-family="Helvetica,sans-Serif" font-size="10.00">fmt/ranges.h</text>
</a>
</g>
</g>
<!-- Node5&#45;&gt;Node9 -->
<g id="edge9_Node000005_Node000009" class="edge">
<title>Node5&#45;&gt;Node9</title>
<g id="a_edge9_Node000005_Node000009"><a xlink:title=" ">
<path fill="none" stroke="#63b8ff" d="M301.6,-115.49C269.54,-105.36 215.82,-88.37 180.02,-77.05"/>
<polygon fill="#63b8ff" stroke="#63b8ff" points="181.02,-73.69 170.43,-74.02 178.91,-80.37 181.02,-73.69"/>
</a>
</g>
</g>
<!-- Node5&#45;&gt;Node10 -->
<g id="edge10_Node000005_Node000010" class="edge">
<title>Node5&#45;&gt;Node10</title>
<g id="a_edge10_Node000005_Node000010"><a xlink:title=" ">
<path fill="none" stroke="#63b8ff" d="M359.33,-115.49C396.46,-105.25 458.95,-88 499.96,-76.69"/>
<polygon fill="#63b8ff" stroke="#63b8ff" points="500.93,-80.05 509.64,-74.02 499.07,-73.3 500.93,-80.05"/>
</a>
</g>
</g>
<!-- Node11 -->
<g id="Node000011" class="node">
<title>Node11</title>
<g id="a_Node000011"><a xlink:title=" ">
<polygon fill="#e0e0e0" stroke="#999999" points="300,-74 201,-74 201,-55 300,-55 300,-74"/>
<text text-anchor="middle" x="250.5" y="-62" font-family="Helvetica,sans-Serif" font-size="10.00">clang/AST/Type.h</text>
</a>
</g>
</g>
<!-- Node5&#45;&gt;Node11 -->
<g id="edge11_Node000005_Node000011" class="edge">
<title>Node5&#45;&gt;Node11</title>
<g id="a_edge11_Node000005_Node000011"><a xlink:title=" ">
<path fill="none" stroke="#63b8ff" d="M316.99,-115.37C304.66,-106.12 284.88,-91.28 270.09,-80.19"/>
<polygon fill="#63b8ff" stroke="#63b8ff" points="272.16,-77.37 262.06,-74.17 267.96,-82.97 272.16,-77.37"/>
</a>
</g>
</g>
<!-- Node12 -->
<g id="Node000012" class="node">
<title>Node12</title>
<g id="a_Node000012"><a xlink:href="Param_8hpp.html" target="_top" xlink:title=" ">
<polygon fill="white" stroke="#666666" points="424.5,-74 356.5,-74 356.5,-55 424.5,-55 424.5,-74"/>
<text text-anchor="middle" x="390.5" y="-62" font-family="Helvetica,sans-Serif" font-size="10.00">Param.hpp</text>
</a>
</g>
</g>
<!-- Node5&#45;&gt;Node12 -->
<g id="edge12_Node000005_Node000012" class="edge">
<title>Node5&#45;&gt;Node12</title>
<g id="a_edge12_Node000005_Node000012"><a xlink:title=" ">
<path fill="none" stroke="#63b8ff" d="M337.65,-115.37C347.17,-106.38 362.3,-92.11 373.93,-81.14"/>
<polygon fill="#63b8ff" stroke="#63b8ff" points="376.44,-83.58 381.31,-74.17 371.64,-78.48 376.44,-83.58"/>
</a>
</g>
</g>
<!-- Node12&#45;&gt;Node6 -->
<g id="edge13_Node000012_Node000006" class="edge">
<title>Node12&#45;&gt;Node6</title>
<g id="a_edge13_Node000012_Node000006"><a xlink:title=" ">
<path fill="none" stroke="#63b8ff" d="M372.99,-54.98C355.53,-46.5 328.49,-33.35 308.33,-23.54"/>
<polygon fill="#63b8ff" stroke="#63b8ff" points="309.86,-20.4 299.33,-19.17 306.79,-26.69 309.86,-20.4"/>
</a>
</g>
</g>
<!-- Node12&#45;&gt;Node7 -->
<g id="edge14_Node000012_Node000007" class="edge">
<title>Node12&#45;&gt;Node7</title>
<g id="a_edge14_Node000012_Node000007"><a xlink:title=" ">
<path fill="none" stroke="#63b8ff" d="M409.94,-54.98C429.49,-46.42 459.88,-33.11 482.32,-23.28"/>
<polygon fill="#63b8ff" stroke="#63b8ff" points="483.95,-26.39 491.71,-19.17 481.14,-19.98 483.95,-26.39"/>
</a>
</g>
</g>
<!-- Node12&#45;&gt;Node8 -->
<g id="edge15_Node000012_Node000008" class="edge">
<title>Node12&#45;&gt;Node8</title>
<g id="a_edge15_Node000012_Node000008"><a xlink:title=" ">
<path fill="none" stroke="#63b8ff" d="M356.4,-56.24C311.88,-46.77 233.91,-30.17 185.13,-19.79"/>
<polygon fill="#63b8ff" stroke="#63b8ff" points="185.7,-16.33 175.19,-17.67 184.24,-23.18 185.7,-16.33"/>
</a>
</g>
</g>
<!-- Node12&#45;&gt;Node13 -->
<g id="edge16_Node000012_Node000013" class="edge">
<title>Node12&#45;&gt;Node13</title>
<g id="a_edge16_Node000012_Node000013"><a xlink:title=" ">
<path fill="none" stroke="#63b8ff" d="M424.93,-55.57C464.46,-46.46 529.51,-31.47 573.63,-21.3"/>
<polygon fill="#63b8ff" stroke="#63b8ff" points="574.58,-24.67 583.54,-19.02 573.01,-17.85 574.58,-24.67"/>
</a>
</g>
</g>
<!-- Node14 -->
<g id="Node000014" class="node">
<title>Node14</title>
<g id="a_Node000014"><a xlink:title=" ">
<polygon fill="#e0e0e0" stroke="#999999" points="459,-19 322,-19 322,0 459,0 459,-19"/>
<text text-anchor="middle" x="390.5" y="-7" font-family="Helvetica,sans-Serif" font-size="10.00">clang/AST/PrettyPrinter.h</text>
</a>
</g>
</g>
<!-- Node12&#45;&gt;Node14 -->
<g id="edge17_Node000012_Node000014" class="edge">
<title>Node12&#45;&gt;Node14</title>
<g id="a_edge17_Node000012_Node000014"><a xlink:title=" ">
<path fill="none" stroke="#63b8ff" d="M390.5,-54.75C390.5,-47.8 390.5,-37.85 390.5,-29.13"/>
<polygon fill="#63b8ff" stroke="#63b8ff" points="394,-29.09 390.5,-19.09 387,-29.09 394,-29.09"/>
</a>
</g>
</g>
</g>
</svg>
