<?xml version="1.0" encoding="UTF-8" standalone="no"?>
<!DOCTYPE svg PUBLIC "-//W3C//DTD SVG 1.1//EN"
 "http://www.w3.org/Graphics/SVG/1.1/DTD/svg11.dtd">
<!-- Generated by graphviz version 2.43.0 (0)
 -->
<!-- Title: src/Callbacks/GetNeededInstantiations.cpp Pages: 1 -->
<svg width="1111pt" height="258pt"
 viewBox="0.00 0.00 1110.50 258.00" xmlns="http://www.w3.org/2000/svg" xmlns:xlink="http://www.w3.org/1999/xlink">
<g id="graph0" class="graph" transform="scale(1 1) rotate(0) translate(4 254)">
<title>src/Callbacks/GetNeededInstantiations.cpp</title>
<!-- Node1 -->
<g id="Node000001" class="node">
<title>Node1</title>
<g id="a_Node000001"><a xlink:title=" ">
<polygon fill="#999999" stroke="#666666" points="759,-250 533,-250 533,-231 759,-231 759,-250"/>
<text text-anchor="middle" x="646" y="-238" font-family="Helvetica,sans-Serif" font-size="10.00">src/Callbacks/GetNeededInstantiations.cpp</text>
</a>
</g>
</g>
<!-- Node2 -->
<g id="Node000002" class="node">
<title>Node2</title>
<g id="a_Node000002"><a xlink:title=" ">
<polygon fill="#e0e0e0" stroke="#999999" points="56,-74 0,-74 0,-55 56,-55 56,-74"/>
<text text-anchor="middle" x="28" y="-62" font-family="Helvetica,sans-Serif" font-size="10.00">optional</text>
</a>
</g>
</g>
<!-- Node1&#45;&gt;Node2 -->
<g id="edge1_Node000001_Node000002" class="edge">
<title>Node1&#45;&gt;Node2</title>
<g id="a_edge1_Node000001_Node000002"><a xlink:title=" ">
<path fill="none" stroke="#63b8ff" d="M555.44,-230.97C497.45,-224.21 420.98,-212.86 355,-195 239.63,-163.76 109.51,-104.58 54.64,-78.45"/>
<polygon fill="#63b8ff" stroke="#63b8ff" points="56.13,-75.28 45.59,-74.12 53.1,-81.6 56.13,-75.28"/>
</a>
</g>
</g>
<!-- Node3 -->
<g id="Node000003" class="node">
<title>Node3</title>
<g id="a_Node000003"><a xlink:href="GetNeededInstantiations_8hpp.html" target="_top" xlink:title=" ">
<polygon fill="white" stroke="#666666" points="593.5,-195 384.5,-195 384.5,-176 593.5,-176 593.5,-195"/>
<text text-anchor="middle" x="489" y="-183" font-family="Helvetica,sans-Serif" font-size="10.00">Callbacks/GetNeededInstantiations.hpp</text>
</a>
</g>
</g>
<!-- Node1&#45;&gt;Node3 -->
<g id="edge2_Node000001_Node000003" class="edge">
<title>Node1&#45;&gt;Node3</title>
<g id="a_edge2_Node000001_Node000003"><a xlink:title=" ">
<path fill="none" stroke="#63b8ff" d="M620.78,-230.98C594.64,-222.16 553.6,-208.31 524.27,-198.41"/>
<polygon fill="#63b8ff" stroke="#63b8ff" points="525.02,-194.96 514.42,-195.08 522.78,-201.6 525.02,-194.96"/>
</a>
</g>
</g>
<!-- Node6 -->
<g id="Node000006" class="node">
<title>Node6</title>
<g id="a_Node000006"><a xlink:href="Injection_8hpp.html" target="_top" xlink:title=" ">
<polygon fill="white" stroke="#666666" points="381,-134.5 301,-134.5 301,-115.5 381,-115.5 381,-134.5"/>
<text text-anchor="middle" x="341" y="-122.5" font-family="Helvetica,sans-Serif" font-size="10.00">Injection.hpp</text>
</a>
</g>
</g>
<!-- Node1&#45;&gt;Node6 -->
<g id="edge23_Node000001_Node000006" class="edge">
<title>Node1&#45;&gt;Node6</title>
<g id="a_edge23_Node000001_Node000006"><a xlink:title=" ">
<path fill="none" stroke="#63b8ff" d="M532.85,-231.3C470.2,-224.77 400.04,-213.56 375,-195 358.61,-182.85 349.68,-160.64 345.13,-144.69"/>
<polygon fill="#63b8ff" stroke="#63b8ff" points="348.49,-143.69 342.65,-134.85 341.7,-145.41 348.49,-143.69"/>
</a>
</g>
</g>
<!-- Node9 -->
<g id="Node000009" class="node">
<title>Node9</title>
<g id="a_Node000009"><a xlink:title=" ">
<polygon fill="#e0e0e0" stroke="#999999" points="636.5,-74 517.5,-74 517.5,-55 636.5,-55 636.5,-74"/>
<text text-anchor="middle" x="577" y="-62" font-family="Helvetica,sans-Serif" font-size="10.00">clang/AST/DeclCXX.h</text>
</a>
</g>
</g>
<!-- Node1&#45;&gt;Node9 -->
<g id="edge21_Node000001_Node000009" class="edge">
<title>Node1&#45;&gt;Node9</title>
<g id="a_edge21_Node000001_Node000009"><a xlink:title=" ">
<path fill="none" stroke="#63b8ff" d="M644.49,-230.98C640.52,-209.74 628.66,-153.1 608,-110 603.33,-100.25 596.61,-90.3 590.63,-82.28"/>
<polygon fill="#63b8ff" stroke="#63b8ff" points="593.22,-79.92 584.32,-74.17 587.7,-84.22 593.22,-79.92"/>
</a>
</g>
</g>
<!-- Node13 -->
<g id="Node000013" class="node">
<title>Node13</title>
<g id="a_Node000013"><a xlink:title=" ">
<polygon fill="#e0e0e0" stroke="#999999" points="714,-19 616,-19 616,0 714,0 714,-19"/>
<text text-anchor="middle" x="665" y="-7" font-family="Helvetica,sans-Serif" font-size="10.00">clang/AST/Decl.h</text>
</a>
</g>
</g>
<!-- Node1&#45;&gt;Node13 -->
<g id="edge20_Node000001_Node000013" class="edge">
<title>Node1&#45;&gt;Node13</title>
<g id="a_edge20_Node000001_Node000013"><a xlink:title=" ">
<path fill="none" stroke="#63b8ff" d="M646.72,-230.8C649.5,-197.29 659.56,-76.08 663.45,-29.2"/>
<polygon fill="#63b8ff" stroke="#63b8ff" points="666.94,-29.46 664.28,-19.21 659.96,-28.88 666.94,-29.46"/>
</a>
</g>
</g>
<!-- Node16 -->
<g id="Node000016" class="node">
<title>Node16</title>
<g id="a_Node000016"><a xlink:title=" ">
<polygon fill="#e0e0e0" stroke="#999999" points="792.5,-195 693.5,-195 693.5,-176 792.5,-176 792.5,-195"/>
<text text-anchor="middle" x="743" y="-183" font-family="Helvetica,sans-Serif" font-size="10.00">llvm/ADT/APInt.h</text>
</a>
</g>
</g>
<!-- Node1&#45;&gt;Node16 -->
<g id="edge18_Node000001_Node000016" class="edge">
<title>Node1&#45;&gt;Node16</title>
<g id="a_edge18_Node000001_Node000016"><a xlink:title=" ">
<path fill="none" stroke="#63b8ff" d="M661.58,-230.98C676.77,-222.69 700.1,-209.94 717.9,-200.22"/>
<polygon fill="#63b8ff" stroke="#63b8ff" points="720.03,-203.04 727.13,-195.17 716.68,-196.89 720.03,-203.04"/>
</a>
</g>
</g>
<!-- Node17 -->
<g id="Node000017" class="node">
<title>Node17</title>
<g id="a_Node000017"><a xlink:title=" ">
<polygon fill="#e0e0e0" stroke="#999999" points="941,-195 811,-195 811,-176 941,-176 941,-195"/>
<text text-anchor="middle" x="876" y="-183" font-family="Helvetica,sans-Serif" font-size="10.00">llvm/ADT/SmallString.h</text>
</a>
</g>
</g>
<!-- Node1&#45;&gt;Node17 -->
<g id="edge19_Node000001_Node000017" class="edge">
<title>Node1&#45;&gt;Node17</title>
<g id="a_edge19_Node000001_Node000017"><a xlink:title=" ">
<path fill="none" stroke="#63b8ff" d="M682.95,-230.98C722.57,-221.86 785.59,-207.33 828.77,-197.38"/>
<polygon fill="#63b8ff" stroke="#63b8ff" points="829.8,-200.74 838.76,-195.08 828.23,-193.92 829.8,-200.74"/>
</a>
</g>
</g>
<!-- Node18 -->
<g id="Node000018" class="node">
<title>Node18</title>
<g id="a_Node000018"><a xlink:title=" ">
<polygon fill="#e0e0e0" stroke="#999999" points="1102.5,-195 959.5,-195 959.5,-176 1102.5,-176 1102.5,-195"/>
<text text-anchor="middle" x="1031" y="-183" font-family="Helvetica,sans-Serif" font-size="10.00">clang/AST/DeclTemplate.h</text>
</a>
</g>
</g>
<!-- Node1&#45;&gt;Node18 -->
<g id="edge22_Node000001_Node000018" class="edge">
<title>Node1&#45;&gt;Node18</title>
<g id="a_edge22_Node000001_Node000018"><a xlink:title=" ">
<path fill="none" stroke="#63b8ff" d="M707.86,-230.98C776.37,-221.55 886.7,-206.36 959.03,-196.41"/>
<polygon fill="#63b8ff" stroke="#63b8ff" points="959.55,-199.87 968.98,-195.04 958.59,-192.93 959.55,-199.87"/>
</a>
</g>
</g>
<!-- Node4 -->
<g id="Node000004" class="node">
<title>Node4</title>
<g id="a_Node000004"><a xlink:title=" ">
<polygon fill="#e0e0e0" stroke="#999999" points="499.5,-74 452.5,-74 452.5,-55 499.5,-55 499.5,-74"/>
<text text-anchor="middle" x="476" y="-62" font-family="Helvetica,sans-Serif" font-size="10.00">vector</text>
</a>
</g>
</g>
<!-- Node3&#45;&gt;Node4 -->
<g id="edge3_Node000003_Node000004" class="edge">
<title>Node3&#45;&gt;Node4</title>
<g id="a_edge3_Node000003_Node000004"><a xlink:title=" ">
<path fill="none" stroke="#63b8ff" d="M468.8,-175.91C454.53,-168.64 436.49,-156.71 428,-140 421.96,-128.11 422.67,-122.22 428,-110 433.27,-97.92 443.63,-87.65 453.37,-80.03"/>
<polygon fill="#63b8ff" stroke="#63b8ff" points="455.59,-82.74 461.63,-74.04 451.48,-77.07 455.59,-82.74"/>
</a>
</g>
</g>
<!-- Node5 -->
<g id="Node000005" class="node">
<title>Node5</title>
<g id="a_Node000005"><a xlink:title=" ">
<polygon fill="#e0e0e0" stroke="#999999" points="598.5,-140 437.5,-140 437.5,-110 598.5,-110 598.5,-140"/>
<text text-anchor="start" x="445.5" y="-128" font-family="Helvetica,sans-Serif" font-size="10.00">clang/ASTMatchers/ASTMatch</text>
<text text-anchor="middle" x="518" y="-117" font-family="Helvetica,sans-Serif" font-size="10.00">Finder.h</text>
</a>
</g>
</g>
<!-- Node3&#45;&gt;Node5 -->
<g id="edge4_Node000003_Node000005" class="edge">
<title>Node3&#45;&gt;Node5</title>
<g id="a_edge4_Node000003_Node000005"><a xlink:title=" ">
<path fill="none" stroke="#63b8ff" d="M493.28,-175.87C496.78,-168.81 501.89,-158.5 506.56,-149.08"/>
<polygon fill="#63b8ff" stroke="#63b8ff" points="509.7,-150.63 511,-140.11 503.43,-147.52 509.7,-150.63"/>
</a>
</g>
</g>
<!-- Node3&#45;&gt;Node6 -->
<g id="edge5_Node000003_Node000006" class="edge">
<title>Node3&#45;&gt;Node6</title>
<g id="a_edge5_Node000003_Node000006"><a xlink:title=" ">
<path fill="none" stroke="#63b8ff" d="M467.48,-175.99C442.38,-166.07 400.68,-149.59 372.07,-138.28"/>
<polygon fill="#63b8ff" stroke="#63b8ff" points="373.13,-134.94 362.55,-134.52 370.56,-141.45 373.13,-134.94"/>
</a>
</g>
</g>
<!-- Node6&#45;&gt;Node2 -->
<g id="edge6_Node000006_Node000002" class="edge">
<title>Node6&#45;&gt;Node2</title>
<g id="a_edge6_Node000006_Node000002"><a xlink:title=" ">
<path fill="none" stroke="#63b8ff" d="M300.66,-117.3C248.75,-108.54 155.52,-92.36 66.27,-74.19"/>
<polygon fill="#63b8ff" stroke="#63b8ff" points="66.75,-70.71 56.25,-72.13 65.35,-77.57 66.75,-70.71"/>
</a>
</g>
</g>
<!-- Node6&#45;&gt;Node4 -->
<g id="edge8_Node000006_Node000004" class="edge">
<title>Node6&#45;&gt;Node4</title>
<g id="a_edge8_Node000006_Node000004"><a xlink:title=" ">
<path fill="none" stroke="#63b8ff" d="M360.63,-115.49C383.33,-105.66 420.9,-89.38 446.97,-78.08"/>
<polygon fill="#63b8ff" stroke="#63b8ff" points="448.56,-81.2 456.35,-74.02 445.78,-74.78 448.56,-81.2"/>
</a>
</g>
</g>
<!-- Node7 -->
<g id="Node000007" class="node">
<title>Node7</title>
<g id="a_Node000007"><a xlink:title=" ">
<polygon fill="#e0e0e0" stroke="#999999" points="184,-19 140,-19 140,0 184,0 184,-19"/>
<text text-anchor="middle" x="162" y="-7" font-family="Helvetica,sans-Serif" font-size="10.00">string</text>
</a>
</g>
</g>
<!-- Node6&#45;&gt;Node7 -->
<g id="edge7_Node000006_Node000007" class="edge">
<title>Node6&#45;&gt;Node7</title>
<g id="a_edge7_Node000006_Node000007"><a xlink:title=" ">
<path fill="none" stroke="#63b8ff" d="M311.11,-115.5C285.69,-107.38 248.96,-93.48 221,-74 202.57,-61.16 185.57,-41.7 174.6,-27.71"/>
<polygon fill="#63b8ff" stroke="#63b8ff" points="177.14,-25.27 168.31,-19.43 171.57,-29.51 177.14,-25.27"/>
</a>
</g>
</g>
<!-- Node8 -->
<g id="Node000008" class="node">
<title>Node8</title>
<g id="a_Node000008"><a xlink:title=" ">
<polygon fill="#e0e0e0" stroke="#999999" points="434,-74 316,-74 316,-55 434,-55 434,-74"/>
<text text-anchor="middle" x="375" y="-62" font-family="Helvetica,sans-Serif" font-size="10.00">llvm/ADT/StringRef.h</text>
</a>
</g>
</g>
<!-- Node6&#45;&gt;Node8 -->
<g id="edge9_Node000006_Node000008" class="edge">
<title>Node6&#45;&gt;Node8</title>
<g id="a_edge9_Node000006_Node000008"><a xlink:title=" ">
<path fill="none" stroke="#63b8ff" d="M346.02,-115.37C350.94,-106.9 358.59,-93.74 364.79,-83.07"/>
<polygon fill="#63b8ff" stroke="#63b8ff" points="367.96,-84.57 369.96,-74.17 361.91,-81.05 367.96,-84.57"/>
</a>
</g>
</g>
<!-- Node6&#45;&gt;Node9 -->
<g id="edge10_Node000006_Node000009" class="edge">
<title>Node6&#45;&gt;Node9</title>
<g id="a_edge10_Node000006_Node000009"><a xlink:title=" ">
<path fill="none" stroke="#63b8ff" d="M375.32,-115.49C416.91,-105.18 487.1,-87.78 532.73,-76.47"/>
<polygon fill="#63b8ff" stroke="#63b8ff" points="533.78,-79.82 542.64,-74.02 532.09,-73.03 533.78,-79.82"/>
</a>
</g>
</g>
<!-- Node10 -->
<g id="Node000010" class="node">
<title>Node10</title>
<g id="a_Node000010"><a xlink:title=" ">
<polygon fill="#e0e0e0" stroke="#999999" points="173.5,-74 74.5,-74 74.5,-55 173.5,-55 173.5,-74"/>
<text text-anchor="middle" x="124" y="-62" font-family="Helvetica,sans-Serif" font-size="10.00">clang/AST/Type.h</text>
</a>
</g>
</g>
<!-- Node6&#45;&gt;Node10 -->
<g id="edge11_Node000006_Node000010" class="edge">
<title>Node6&#45;&gt;Node10</title>
<g id="a_edge11_Node000006_Node000010"><a xlink:title=" ">
<path fill="none" stroke="#63b8ff" d="M309.45,-115.49C271.44,-105.25 207.48,-88 165.5,-76.69"/>
<polygon fill="#63b8ff" stroke="#63b8ff" points="166.16,-73.24 155.59,-74.02 164.34,-80 166.16,-73.24"/>
</a>
</g>
</g>
<!-- Node11 -->
<g id="Node000011" class="node">
<title>Node11</title>
<g id="a_Node000011"><a xlink:href="Param_8hpp.html" target="_top" xlink:title=" ">
<polygon fill="white" stroke="#666666" points="298,-74 230,-74 230,-55 298,-55 298,-74"/>
<text text-anchor="middle" x="264" y="-62" font-family="Helvetica,sans-Serif" font-size="10.00">Param.hpp</text>
</a>
</g>
</g>
<!-- Node6&#45;&gt;Node11 -->
<g id="edge12_Node000006_Node000011" class="edge">
<title>Node6&#45;&gt;Node11</title>
<g id="a_edge12_Node000006_Node000011"><a xlink:title=" ">
<path fill="none" stroke="#63b8ff" d="M329.64,-115.37C317.58,-106.21 298.3,-91.56 283.75,-80.51"/>
<polygon fill="#63b8ff" stroke="#63b8ff" points="285.49,-77.43 275.41,-74.17 281.25,-83 285.49,-77.43"/>
</a>
</g>
</g>
<!-- Node11&#45;&gt;Node7 -->
<g id="edge14_Node000011_Node000007" class="edge">
<title>Node11&#45;&gt;Node7</title>
<g id="a_edge14_Node000011_Node000007"><a xlink:title=" ">
<path fill="none" stroke="#63b8ff" d="M247.61,-54.98C231.43,-46.57 206.43,-33.59 187.62,-23.81"/>
<polygon fill="#63b8ff" stroke="#63b8ff" points="189.17,-20.68 178.69,-19.17 185.95,-26.89 189.17,-20.68"/>
</a>
</g>
</g>
<!-- Node12 -->
<g id="Node000012" class="node">
<title>Node12</title>
<g id="a_Node000012"><a xlink:title=" ">
<polygon fill="#e0e0e0" stroke="#999999" points="259.5,-19 202.5,-19 202.5,0 259.5,0 259.5,-19"/>
<text text-anchor="middle" x="231" y="-7" font-family="Helvetica,sans-Serif" font-size="10.00">ostream</text>
</a>
</g>
</g>
<!-- Node11&#45;&gt;Node12 -->
<g id="edge13_Node000011_Node000012" class="edge">
<title>Node11&#45;&gt;Node12</title>
<g id="a_edge13_Node000011_Node000012"><a xlink:title=" ">
<path fill="none" stroke="#63b8ff" d="M258.55,-54.75C253.99,-47.42 247.33,-36.73 241.71,-27.7"/>
<polygon fill="#63b8ff" stroke="#63b8ff" points="244.6,-25.73 236.35,-19.09 238.66,-29.43 244.6,-25.73"/>
</a>
</g>
</g>
<!-- Node11&#45;&gt;Node13 -->
<g id="edge15_Node000011_Node000013" class="edge">
<title>Node11&#45;&gt;Node13</title>
<g id="a_edge15_Node000011_Node000013"><a xlink:title=" ">
<path fill="none" stroke="#63b8ff" d="M298.23,-56.49C301.19,-55.96 304.14,-55.45 307,-55 436.39,-34.48 472.16,-36.62 605.75,-19.13"/>
<polygon fill="#63b8ff" stroke="#63b8ff" points="606.51,-22.56 615.96,-17.78 605.59,-15.62 606.51,-22.56"/>
</a>
</g>
</g>
<!-- Node14 -->
<g id="Node000014" class="node">
<title>Node14</title>
<g id="a_Node000014"><a xlink:title=" ">
<polygon fill="#e0e0e0" stroke="#999999" points="442,-19 278,-19 278,0 442,0 442,-19"/>
<text text-anchor="middle" x="360" y="-7" font-family="Helvetica,sans-Serif" font-size="10.00">clang/AST/DependenceFlags.h</text>
</a>
</g>
</g>
<!-- Node11&#45;&gt;Node14 -->
<g id="edge16_Node000011_Node000014" class="edge">
<title>Node11&#45;&gt;Node14</title>
<g id="a_edge16_Node000011_Node000014"><a xlink:title=" ">
<path fill="none" stroke="#63b8ff" d="M279.42,-54.98C294.45,-46.69 317.54,-33.94 335.16,-24.22"/>
<polygon fill="#63b8ff" stroke="#63b8ff" points="337.23,-27.07 344.3,-19.17 333.85,-20.94 337.23,-27.07"/>
</a>
</g>
</g>
<!-- Node15 -->
<g id="Node000015" class="node">
<title>Node15</title>
<g id="a_Node000015"><a xlink:title=" ">
<polygon fill="#e0e0e0" stroke="#999999" points="597.5,-19 460.5,-19 460.5,0 597.5,0 597.5,-19"/>
<text text-anchor="middle" x="529" y="-7" font-family="Helvetica,sans-Serif" font-size="10.00">clang/AST/PrettyPrinter.h</text>
</a>
</g>
</g>
<!-- Node11&#45;&gt;Node15 -->
<g id="edge17_Node000011_Node000015" class="edge">
<title>Node11&#45;&gt;Node15</title>
<g id="a_edge17_Node000011_Node000015"><a xlink:title=" ">
<path fill="none" stroke="#63b8ff" d="M298.1,-56.68C343.28,-47.64 423.42,-31.62 476.38,-21.02"/>
<polygon fill="#63b8ff" stroke="#63b8ff" points="477.15,-24.44 486.27,-19.05 475.77,-17.58 477.15,-24.44"/>
</a>
</g>
</g>
</g>
</svg>
