<?xml version="1.0" encoding="UTF-8" standalone="no"?>
<!DOCTYPE svg PUBLIC "-//W3C//DTD SVG 1.1//EN"
 "http://www.w3.org/Graphics/SVG/1.1/DTD/svg11.dtd">
<!-- Generated by graphviz version 2.43.0 (0)
 -->
<!-- Title: include/Callbacks/GetNeededInstantiations.hpp Pages: 1 -->
<svg width="589pt" height="214pt"
 viewBox="0.00 0.00 589.00 214.00" xmlns="http://www.w3.org/2000/svg" xmlns:xlink="http://www.w3.org/1999/xlink">
<g id="graph0" class="graph" transform="scale(1 1) rotate(0) translate(4 210)">
<title>include/Callbacks/GetNeededInstantiations.hpp</title>
<!-- Node1 -->
<g id="Node000001" class="node">
<title>Node1</title>
<g id="a_Node000001"><a xlink:title=" ">
<polygon fill="#999999" stroke="#666666" points="309.5,-206 149.5,-206 149.5,-176 309.5,-176 309.5,-206"/>
<text text-anchor="start" x="157.5" y="-194" font-family="Helvetica,sans-Serif" font-size="10.00">include/Callbacks/GetNeeded</text>
<text text-anchor="middle" x="229.5" y="-183" font-family="Helvetica,sans-Serif" font-size="10.00">Instantiations.hpp</text>
</a>
</g>
</g>
<!-- Node2 -->
<g id="Node000002" class="node">
<title>Node2</title>
<g id="a_Node000002"><a xlink:title=" ">
<polygon fill="#e0e0e0" stroke="#999999" points="47,-74 0,-74 0,-55 47,-55 47,-74"/>
<text text-anchor="middle" x="23.5" y="-62" font-family="Helvetica,sans-Serif" font-size="10.00">vector</text>
</a>
</g>
</g>
<!-- Node1&#45;&gt;Node2 -->
<g id="edge1_Node000001_Node000002" class="edge">
<title>Node1&#45;&gt;Node2</title>
<g id="a_edge1_Node000001_Node000002"><a xlink:title=" ">
<path fill="none" stroke="#63b8ff" d="M206.27,-175.96C166.52,-151.94 85.95,-103.24 46.42,-79.35"/>
<polygon fill="#63b8ff" stroke="#63b8ff" points="48.11,-76.29 37.75,-74.11 44.49,-82.28 48.11,-76.29"/>
</a>
</g>
</g>
<!-- Node3 -->
<g id="Node000003" class="node">
<title>Node3</title>
<g id="a_Node000003"><a xlink:title=" ">
<polygon fill="#e0e0e0" stroke="#999999" points="449,-140 288,-140 288,-110 449,-110 449,-140"/>
<text text-anchor="start" x="296" y="-128" font-family="Helvetica,sans-Serif" font-size="10.00">clang/ASTMatchers/ASTMatch</text>
<text text-anchor="middle" x="368.5" y="-117" font-family="Helvetica,sans-Serif" font-size="10.00">Finder.h</text>
</a>
</g>
</g>
<!-- Node1&#45;&gt;Node3 -->
<g id="edge2_Node000001_Node000003" class="edge">
<title>Node1&#45;&gt;Node3</title>
<g id="a_edge2_Node000001_Node000003"><a xlink:title=" ">
<path fill="none" stroke="#63b8ff" d="M260,-175.95C280.19,-166.66 306.87,-154.38 328.72,-144.32"/>
<polygon fill="#63b8ff" stroke="#63b8ff" points="330.45,-147.37 338.07,-140.01 327.52,-141.02 330.45,-147.37"/>
</a>
</g>
</g>
<!-- Node4 -->
<g id="Node000004" class="node">
<title>Node4</title>
<g id="a_Node000004"><a xlink:href="Injection_8hpp.html" target="_top" xlink:title=" ">
<polygon fill="white" stroke="#666666" points="269.5,-134.5 189.5,-134.5 189.5,-115.5 269.5,-115.5 269.5,-134.5"/>
<text text-anchor="middle" x="229.5" y="-122.5" font-family="Helvetica,sans-Serif" font-size="10.00">Injection.hpp</text>
</a>
</g>
</g>
<!-- Node1&#45;&gt;Node4 -->
<g id="edge3_Node000001_Node000004" class="edge">
<title>Node1&#45;&gt;Node4</title>
<g id="a_edge3_Node000001_Node000004"><a xlink:title=" ">
<path fill="none" stroke="#63b8ff" d="M229.5,-175.8C229.5,-166.7 229.5,-154.79 229.5,-144.9"/>
<polygon fill="#63b8ff" stroke="#63b8ff" points="233,-144.84 229.5,-134.84 226,-144.84 233,-144.84"/>
</a>
</g>
</g>
<!-- Node4&#45;&gt;Node2 -->
<g id="edge5_Node000004_Node000002" class="edge">
<title>Node4&#45;&gt;Node2</title>
<g id="a_edge5_Node000004_Node000002"><a xlink:title=" ">
<path fill="none" stroke="#63b8ff" d="M199.55,-115.49C161.56,-104.71 96.28,-86.17 56.78,-74.95"/>
<polygon fill="#63b8ff" stroke="#63b8ff" points="57.66,-71.56 47.09,-72.2 55.75,-78.3 57.66,-71.56"/>
</a>
</g>
</g>
<!-- Node5 -->
<g id="Node000005" class="node">
<title>Node5</title>
<g id="a_Node000005"><a xlink:title=" ">
<polygon fill="#e0e0e0" stroke="#999999" points="470.5,-19 426.5,-19 426.5,0 470.5,0 470.5,-19"/>
<text text-anchor="middle" x="448.5" y="-7" font-family="Helvetica,sans-Serif" font-size="10.00">string</text>
</a>
</g>
</g>
<!-- Node4&#45;&gt;Node5 -->
<g id="edge4_Node000004_Node000005" class="edge">
<title>Node4&#45;&gt;Node5</title>
<g id="a_edge4_Node000004_Node000005"><a xlink:title=" ">
<path fill="none" stroke="#63b8ff" d="M256.8,-115.48C263.83,-113.49 271.4,-111.51 278.5,-110 334.26,-98.14 495.12,-117.05 532.5,-74 552.24,-51.27 511.82,-31.51 480.48,-20.3"/>
<polygon fill="#63b8ff" stroke="#63b8ff" points="481.3,-16.88 470.71,-16.97 479.04,-23.51 481.3,-16.88"/>
</a>
</g>
</g>
<!-- Node6 -->
<g id="Node000006" class="node">
<title>Node6</title>
<g id="a_Node000006"><a xlink:title=" ">
<polygon fill="#e0e0e0" stroke="#999999" points="581,-19 512,-19 512,0 581,0 581,-19"/>
<text text-anchor="middle" x="546.5" y="-7" font-family="Helvetica,sans-Serif" font-size="10.00">fmt/color.h</text>
</a>
</g>
</g>
<!-- Node4&#45;&gt;Node6 -->
<g id="edge6_Node000004_Node000006" class="edge">
<title>Node4&#45;&gt;Node6</title>
<g id="a_edge6_Node000004_Node000006"><a xlink:title=" ">
<path fill="none" stroke="#63b8ff" d="M256.8,-115.44C263.82,-113.45 271.4,-111.48 278.5,-110 337.76,-97.65 508.63,-119.54 548.5,-74 559.15,-61.83 556.95,-42.77 553.12,-28.71"/>
<polygon fill="#63b8ff" stroke="#63b8ff" points="556.43,-27.58 550.06,-19.12 549.76,-29.71 556.43,-27.58"/>
</a>
</g>
</g>
<!-- Node7 -->
<g id="Node000007" class="node">
<title>Node7</title>
<g id="a_Node000007"><a xlink:title=" ">
<polygon fill="#e0e0e0" stroke="#999999" points="90,-19 23,-19 23,0 90,0 90,-19"/>
<text text-anchor="middle" x="56.5" y="-7" font-family="Helvetica,sans-Serif" font-size="10.00">fmt/core.h</text>
</a>
</g>
</g>
<!-- Node4&#45;&gt;Node7 -->
<g id="edge7_Node000004_Node000007" class="edge">
<title>Node4&#45;&gt;Node7</title>
<g id="a_edge7_Node000004_Node000007"><a xlink:title=" ">
<path fill="none" stroke="#63b8ff" d="M189.27,-116.58C160.35,-109.58 121.8,-96.68 94.5,-74 80.01,-61.96 69.65,-42.88 63.45,-28.78"/>
<polygon fill="#63b8ff" stroke="#63b8ff" points="66.54,-27.09 59.51,-19.16 60.06,-29.74 66.54,-27.09"/>
</a>
</g>
</g>
<!-- Node8 -->
<g id="Node000008" class="node">
<title>Node8</title>
<g id="a_Node000008"><a xlink:title=" ">
<polygon fill="#e0e0e0" stroke="#999999" points="269,-74 190,-74 190,-55 269,-55 269,-74"/>
<text text-anchor="middle" x="229.5" y="-62" font-family="Helvetica,sans-Serif" font-size="10.00">fmt/ranges.h</text>
</a>
</g>
</g>
<!-- Node4&#45;&gt;Node8 -->
<g id="edge8_Node000004_Node000008" class="edge">
<title>Node4&#45;&gt;Node8</title>
<g id="a_edge8_Node000004_Node000008"><a xlink:title=" ">
<path fill="none" stroke="#63b8ff" d="M229.5,-115.37C229.5,-107.25 229.5,-94.81 229.5,-84.39"/>
<polygon fill="#63b8ff" stroke="#63b8ff" points="233,-84.17 229.5,-74.17 226,-84.17 233,-84.17"/>
</a>
</g>
</g>
<!-- Node9 -->
<g id="Node000009" class="node">
<title>Node9</title>
<g id="a_Node000009"><a xlink:title=" ">
<polygon fill="#e0e0e0" stroke="#999999" points="406,-74 287,-74 287,-55 406,-55 406,-74"/>
<text text-anchor="middle" x="346.5" y="-62" font-family="Helvetica,sans-Serif" font-size="10.00">clang/AST/DeclCXX.h</text>
</a>
</g>
</g>
<!-- Node4&#45;&gt;Node9 -->
<g id="edge9_Node000004_Node000009" class="edge">
<title>Node4&#45;&gt;Node9</title>
<g id="a_edge9_Node000004_Node000009"><a xlink:title=" ">
<path fill="none" stroke="#63b8ff" d="M246.51,-115.49C265.92,-105.79 297.89,-89.81 320.44,-78.53"/>
<polygon fill="#63b8ff" stroke="#63b8ff" points="322.09,-81.62 329.47,-74.02 318.96,-75.36 322.09,-81.62"/>
</a>
</g>
</g>
<!-- Node10 -->
<g id="Node000010" class="node">
<title>Node10</title>
<g id="a_Node000010"><a xlink:title=" ">
<polygon fill="#e0e0e0" stroke="#999999" points="523,-74 424,-74 424,-55 523,-55 523,-74"/>
<text text-anchor="middle" x="473.5" y="-62" font-family="Helvetica,sans-Serif" font-size="10.00">clang/AST/Type.h</text>
</a>
</g>
</g>
<!-- Node4&#45;&gt;Node10 -->
<g id="edge10_Node000004_Node000010" class="edge">
<title>Node4&#45;&gt;Node10</title>
<g id="a_edge10_Node000004_Node000010"><a xlink:title=" ">
<path fill="none" stroke="#63b8ff" d="M258.45,-115.45C265.02,-113.59 271.99,-111.67 278.5,-110 327.39,-97.45 383.62,-84.8 423.1,-76.22"/>
<polygon fill="#63b8ff" stroke="#63b8ff" points="423.98,-79.61 433.01,-74.07 422.5,-72.77 423.98,-79.61"/>
</a>
</g>
</g>
<!-- Node11 -->
<g id="Node000011" class="node">
<title>Node11</title>
<g id="a_Node000011"><a xlink:href="Param_8hpp.html" target="_top" xlink:title=" ">
<polygon fill="white" stroke="#666666" points="171.5,-74 103.5,-74 103.5,-55 171.5,-55 171.5,-74"/>
<text text-anchor="middle" x="137.5" y="-62" font-family="Helvetica,sans-Serif" font-size="10.00">Param.hpp</text>
</a>
</g>
</g>
<!-- Node4&#45;&gt;Node11 -->
<g id="edge11_Node000004_Node000011" class="edge">
<title>Node4&#45;&gt;Node11</title>
<g id="a_edge11_Node000004_Node000011"><a xlink:title=" ">
<path fill="none" stroke="#63b8ff" d="M215.93,-115.37C201.11,-105.95 177.17,-90.73 159.64,-79.58"/>
<polygon fill="#63b8ff" stroke="#63b8ff" points="161.45,-76.58 151.13,-74.17 157.69,-82.49 161.45,-76.58"/>
</a>
</g>
</g>
<!-- Node11&#45;&gt;Node5 -->
<g id="edge12_Node000011_Node000005" class="edge">
<title>Node11&#45;&gt;Node5</title>
<g id="a_edge12_Node000011_Node000005"><a xlink:title=" ">
<path fill="none" stroke="#63b8ff" d="M171.75,-56.63C174.71,-56.07 177.65,-55.52 180.5,-55 265.41,-39.56 365.86,-23.46 416.25,-15.53"/>
<polygon fill="#63b8ff" stroke="#63b8ff" points="416.89,-18.97 426.22,-13.96 415.8,-12.06 416.89,-18.97"/>
</a>
</g>
</g>
<!-- Node11&#45;&gt;Node6 -->
<g id="edge13_Node000011_Node000006" class="edge">
<title>Node11&#45;&gt;Node6</title>
<g id="a_edge13_Node000011_Node000006"><a xlink:title=" ">
<path fill="none" stroke="#63b8ff" d="M171.73,-56.49C174.69,-55.96 177.64,-55.45 180.5,-55 312.69,-34.01 346.66,-35.42 479.5,-19 486.7,-18.11 494.33,-17.15 501.77,-16.21"/>
<polygon fill="#63b8ff" stroke="#63b8ff" points="502.25,-19.68 511.73,-14.95 501.37,-12.74 502.25,-19.68"/>
</a>
</g>
</g>
<!-- Node11&#45;&gt;Node7 -->
<g id="edge14_Node000011_Node000007" class="edge">
<title>Node11&#45;&gt;Node7</title>
<g id="a_edge14_Node000011_Node000007"><a xlink:title=" ">
<path fill="none" stroke="#63b8ff" d="M124.49,-54.98C112.04,-46.84 93.04,-34.41 78.29,-24.76"/>
<polygon fill="#63b8ff" stroke="#63b8ff" points="80.04,-21.72 69.75,-19.17 76.2,-27.57 80.04,-21.72"/>
</a>
</g>
</g>
<!-- Node12 -->
<g id="Node000012" class="node">
<title>Node12</title>
<g id="a_Node000012"><a xlink:title=" ">
<polygon fill="#e0e0e0" stroke="#999999" points="206.5,-19 108.5,-19 108.5,0 206.5,0 206.5,-19"/>
<text text-anchor="middle" x="157.5" y="-7" font-family="Helvetica,sans-Serif" font-size="10.00">clang/AST/Decl.h</text>
</a>
</g>
</g>
<!-- Node11&#45;&gt;Node12 -->
<g id="edge15_Node000011_Node000012" class="edge">
<title>Node11&#45;&gt;Node12</title>
<g id="a_edge15_Node000011_Node000012"><a xlink:title=" ">
<path fill="none" stroke="#63b8ff" d="M140.8,-54.75C143.48,-47.65 147.35,-37.4 150.69,-28.56"/>
<polygon fill="#63b8ff" stroke="#63b8ff" points="154,-29.68 154.26,-19.09 147.45,-27.21 154,-29.68"/>
</a>
</g>
</g>
<!-- Node13 -->
<g id="Node000013" class="node">
<title>Node13</title>
<g id="a_Node000013"><a xlink:title=" ">
<polygon fill="#e0e0e0" stroke="#999999" points="362,-19 225,-19 225,0 362,0 362,-19"/>
<text text-anchor="middle" x="293.5" y="-7" font-family="Helvetica,sans-Serif" font-size="10.00">clang/AST/PrettyPrinter.h</text>
</a>
</g>
</g>
<!-- Node11&#45;&gt;Node13 -->
<g id="edge16_Node000011_Node000013" class="edge">
<title>Node11&#45;&gt;Node13</title>
<g id="a_edge16_Node000011_Node000013"><a xlink:title=" ">
<path fill="none" stroke="#63b8ff" d="M162.56,-54.98C188.53,-46.16 229.31,-32.31 258.46,-22.41"/>
<polygon fill="#63b8ff" stroke="#63b8ff" points="259.9,-25.61 268.24,-19.08 257.65,-18.99 259.9,-25.61"/>
</a>
</g>
</g>
</g>
</svg>
