<?xml version="1.0" encoding="UTF-8" standalone="no"?>
<!DOCTYPE svg PUBLIC "-//W3C//DTD SVG 1.1//EN"
 "http://www.w3.org/Graphics/SVG/1.1/DTD/svg11.dtd">
<!-- Generated by graphviz version 2.43.0 (0)
 -->
<!-- Title: Graphical Class Hierarchy Pages: 1 -->
<svg width="343pt" height="101pt"
 viewBox="0.00 0.00 343.00 101.00" xmlns="http://www.w3.org/2000/svg" xmlns:xlink="http://www.w3.org/1999/xlink">
<g id="graph0" class="graph" transform="scale(1 1) rotate(0) translate(4 97)">
<title>Graphical Class Hierarchy</title>
<!-- Node0 -->
<g id="Node000000" class="node">
<title>Node0</title>
<g id="a_Node000000"><a xlink:title=" ">
<polygon fill="#e0e0e0" stroke="#999999" points="161,-61.5 0,-61.5 0,-31.5 161,-31.5 161,-61.5"/>
<text text-anchor="start" x="8" y="-49.5" font-family="Helvetica,sans-Serif" font-size="10.00">clang::ast_matchers</text>
<text text-anchor="middle" x="80.5" y="-38.5" font-family="Helvetica,sans-Serif" font-size="10.00">::MatchFinder::MatchCallback</text>
</a>
</g>
</g>
<!-- Node1 -->
<g id="Node000001" class="node">
<title>Node1</title>
<g id="a_Node000001"><a xlink:href="classDeleteInstantiations.html" target="_top" xlink:title="MatchCallback for template instantiation deletions.">
<polygon fill="white" stroke="#666666" points="324,-93 208,-93 208,-74 324,-74 324,-93"/>
<text text-anchor="middle" x="266" y="-81" font-family="Helvetica,sans-Serif" font-size="10.00">DeleteInstantiations</text>
</a>
</g>
</g>
<!-- Node0&#45;&gt;Node1 -->
<g id="edge1_Node000000_Node000001" class="edge">
<title>Node0&#45;&gt;Node1</title>
<g id="a_edge1_Node000000_Node000001"><a xlink:title=" ">
<path fill="none" stroke="#63b8ff" d="M165.98,-63.53C183.79,-67.12 201.96,-70.79 217.8,-73.98"/>
<polygon fill="#63b8ff" stroke="#63b8ff" points="166.63,-60.1 156.14,-61.55 165.25,-66.96 166.63,-60.1"/>
</a>
</g>
</g>
<!-- Node2 -->
<g id="Node000002" class="node">
<title>Node2</title>
<g id="a_Node000002"><a xlink:href="classGetNeededInstantiations.html" target="_top" xlink:title="MatchCallback for template instantiation detections.">
<polygon fill="white" stroke="#666666" points="335,-56 197,-56 197,-37 335,-37 335,-56"/>
<text text-anchor="middle" x="266" y="-44" font-family="Helvetica,sans-Serif" font-size="10.00">GetNeededInstantiations</text>
</a>
</g>
</g>
<!-- Node0&#45;&gt;Node2 -->
<g id="edge2_Node000000_Node000002" class="edge">
<title>Node0&#45;&gt;Node2</title>
<g id="a_edge2_Node000000_Node000002"><a xlink:title=" ">
<path fill="none" stroke="#63b8ff" d="M171.27,-46.5C179.89,-46.5 188.52,-46.5 196.88,-46.5"/>
<polygon fill="#63b8ff" stroke="#63b8ff" points="171.19,-43 161.19,-46.5 171.19,-50 171.19,-43"/>
</a>
</g>
</g>
<!-- Node3 -->
<g id="Node000003" class="node">
<title>Node3</title>
<g id="a_Node000003"><a xlink:href="classInjectInstantiation.html" target="_top" xlink:title="MatchCallback for injection of explicit instantiations into the source files at appropriate places.">
<polygon fill="white" stroke="#666666" points="318.5,-19 213.5,-19 213.5,0 318.5,0 318.5,-19"/>
<text text-anchor="middle" x="266" y="-7" font-family="Helvetica,sans-Serif" font-size="10.00">InjectInstantiation</text>
</a>
</g>
</g>
<!-- Node0&#45;&gt;Node3 -->
<g id="edge3_Node000000_Node000003" class="edge">
<title>Node0&#45;&gt;Node3</title>
<g id="a_edge3_Node000000_Node000003"><a xlink:title=" ">
<path fill="none" stroke="#63b8ff" d="M165.98,-29.47C183.79,-25.88 201.96,-22.21 217.8,-19.02"/>
<polygon fill="#63b8ff" stroke="#63b8ff" points="165.25,-26.04 156.14,-31.45 166.63,-32.9 165.25,-26.04"/>
</a>
</g>
</g>
</g>
</svg>
