<?xml version="1.0" encoding="UTF-8" standalone="no"?>
<!DOCTYPE svg PUBLIC "-//W3C//DTD SVG 1.1//EN"
 "http://www.w3.org/Graphics/SVG/1.1/DTD/svg11.dtd">
<!-- Generated by graphviz version 2.43.0 (0)
 -->
<!-- Title: Graphical Class Hierarchy Pages: 1 -->
<svg width="343pt" height="104pt"
 viewBox="0.00 0.00 343.00 104.00" xmlns="http://www.w3.org/2000/svg" xmlns:xlink="http://www.w3.org/1999/xlink">
<g id="graph0" class="graph" transform="scale(1 1) rotate(0) translate(4 100)">
<title>Graphical Class Hierarchy</title>
<!-- Node2 -->
<g id="node1" class="node">
<title>Node2</title>
<g id="a_node1"><a xlink:title=" ">
<polygon fill="none" stroke="#bfbfbf" points="0,-33 0,-63 161,-63 161,-33 0,-33"/>
<text text-anchor="start" x="8" y="-51" font-family="Helvetica,sans-Serif" font-size="10.00">clang::ast_matchers</text>
<text text-anchor="middle" x="80.5" y="-40" font-family="Helvetica,sans-Serif" font-size="10.00">::MatchFinder::MatchCallback</text>
</a>
</g>
</g>
<!-- Node0 -->
<g id="node2" class="node">
<title>Node0</title>
<g id="a_node2"><a xlink:href="classDeleteInstantiations.html" target="_top" xlink:title="MatchCallback for template instantiation deletions.">
<polygon fill="none" stroke="black" points="208,-76.5 208,-95.5 324,-95.5 324,-76.5 208,-76.5"/>
<text text-anchor="middle" x="266" y="-83.5" font-family="Helvetica,sans-Serif" font-size="10.00">DeleteInstantiations</text>
</a>
</g>
</g>
<!-- Node2&#45;&gt;Node0 -->
<g id="edge1" class="edge">
<title>Node2&#45;&gt;Node0</title>
<path fill="none" stroke="midnightblue" d="M163.88,-65.06C182.85,-68.99 202.36,-73.03 219.12,-76.5"/>
<polygon fill="midnightblue" stroke="midnightblue" points="164.53,-61.62 154.02,-63.02 163.11,-68.47 164.53,-61.62"/>
</g>
<!-- Node4 -->
<g id="node3" class="node">
<title>Node4</title>
<g id="a_node3"><a xlink:href="classGetNeededInstantiations.html" target="_top" xlink:title="MatchCallback for template instantiation detections.">
<polygon fill="none" stroke="black" points="197,-38.5 197,-57.5 335,-57.5 335,-38.5 197,-38.5"/>
<text text-anchor="middle" x="266" y="-45.5" font-family="Helvetica,sans-Serif" font-size="10.00">GetNeededInstantiations</text>
</a>
</g>
</g>
<!-- Node2&#45;&gt;Node4 -->
<g id="edge2" class="edge">
<title>Node2&#45;&gt;Node4</title>
<path fill="none" stroke="midnightblue" d="M171.27,-48C179.89,-48 188.52,-48 196.88,-48"/>
<polygon fill="midnightblue" stroke="midnightblue" points="171.19,-44.5 161.19,-48 171.19,-51.5 171.19,-44.5"/>
</g>
<!-- Node5 -->
<g id="node4" class="node">
<title>Node5</title>
<g id="a_node4"><a xlink:href="classInjectInstantiation.html" target="_top" xlink:title="MatchCallback for injection of explicit instantiations into the source files at appropriate places.">
<polygon fill="none" stroke="black" points="213.5,-0.5 213.5,-19.5 318.5,-19.5 318.5,-0.5 213.5,-0.5"/>
<text text-anchor="middle" x="266" y="-7.5" font-family="Helvetica,sans-Serif" font-size="10.00">InjectInstantiation</text>
</a>
</g>
</g>
<!-- Node2&#45;&gt;Node5 -->
<g id="edge3" class="edge">
<title>Node2&#45;&gt;Node5</title>
<path fill="none" stroke="midnightblue" d="M163.88,-30.94C182.85,-27.01 202.36,-22.97 219.12,-19.5"/>
<polygon fill="midnightblue" stroke="midnightblue" points="163.11,-27.53 154.02,-32.98 164.53,-34.38 163.11,-27.53"/>
</g>
</g>
</svg>
