<?xml version="1.0" encoding="UTF-8" standalone="no"?>
<!DOCTYPE svg PUBLIC "-//W3C//DTD SVG 1.1//EN"
 "http://www.w3.org/Graphics/SVG/1.1/DTD/svg11.dtd">
<!-- Generated by graphviz version 2.43.0 (0)
 -->
<!-- Title: Graphical Class Hierarchy Pages: 1 -->
<svg width="296pt" height="66pt"
 viewBox="0.00 0.00 296.00 66.00" xmlns="http://www.w3.org/2000/svg" xmlns:xlink="http://www.w3.org/1999/xlink">
<g id="graph0" class="graph" transform="scale(1 1) rotate(0) translate(4 62)">
<title>Graphical Class Hierarchy</title>
<!-- Node11 -->
<g id="node1" class="node">
<title>Node11</title>
<g id="a_node1"><a xlink:title=" ">
<polygon fill="none" stroke="#bfbfbf" points="0,-19.5 0,-38.5 139,-38.5 139,-19.5 0,-19.5"/>
<text text-anchor="middle" x="69.5" y="-26.5" font-family="Helvetica,sans-Serif" font-size="10.00">clang::tooling::ToolAction</text>
</a>
</g>
</g>
<!-- Node0 -->
<g id="node2" class="node">
<title>Node0</title>
<g id="a_node2"><a xlink:href="classASTBuilderAction.html" target="_top" xlink:title="Action to compute a single AST of file filename.">
<polygon fill="none" stroke="black" points="181,-38.5 181,-57.5 282,-57.5 282,-38.5 181,-38.5"/>
<text text-anchor="middle" x="231.5" y="-45.5" font-family="Helvetica,sans-Serif" font-size="10.00">ASTBuilderAction</text>
</a>
</g>
</g>
<!-- Node11&#45;&gt;Node0 -->
<g id="edge1" class="edge">
<title>Node11&#45;&gt;Node0</title>
<path fill="none" stroke="midnightblue" d="M149.43,-38.37C160.05,-39.63 170.69,-40.9 180.62,-42.08"/>
<polygon fill="midnightblue" stroke="midnightblue" points="149.63,-34.87 139.28,-37.17 148.8,-41.82 149.63,-34.87"/>
</g>
<!-- Node13 -->
<g id="node3" class="node">
<title>Node13</title>
<g id="a_node3"><a xlink:href="classAllASTBuilderAction.html" target="_top" xlink:title="Action to compute all ASTs.">
<polygon fill="none" stroke="black" points="175,-0.5 175,-19.5 288,-19.5 288,-0.5 175,-0.5"/>
<text text-anchor="middle" x="231.5" y="-7.5" font-family="Helvetica,sans-Serif" font-size="10.00">AllASTBuilderAction</text>
</a>
</g>
</g>
<!-- Node11&#45;&gt;Node13 -->
<g id="edge2" class="edge">
<title>Node11&#45;&gt;Node13</title>
<path fill="none" stroke="midnightblue" d="M149.34,-19.64C157.94,-18.62 166.56,-17.59 174.79,-16.62"/>
<polygon fill="midnightblue" stroke="midnightblue" points="148.8,-16.18 139.28,-20.83 149.63,-23.13 148.8,-16.18"/>
</g>
</g>
</svg>
