<?xml version="1.0" encoding="UTF-8" standalone="no"?>
<!DOCTYPE svg PUBLIC "-//W3C//DTD SVG 1.1//EN"
 "http://www.w3.org/Graphics/SVG/1.1/DTD/svg11.dtd">
<!-- Generated by graphviz version 2.43.0 (0)
 -->
<!-- Title: Graphical Class Hierarchy Pages: 1 -->
<svg width="296pt" height="64pt"
 viewBox="0.00 0.00 296.00 64.00" xmlns="http://www.w3.org/2000/svg" xmlns:xlink="http://www.w3.org/1999/xlink">
<g id="graph0" class="graph" transform="scale(1 1) rotate(0) translate(4 60)">
<title>Graphical Class Hierarchy</title>
<!-- Node0 -->
<g id="Node000000" class="node">
<title>Node0</title>
<g id="a_Node000000"><a xlink:title=" ">
<polygon fill="#e0e0e0" stroke="#999999" points="139,-37 0,-37 0,-18 139,-18 139,-37"/>
<text text-anchor="middle" x="69.5" y="-25" font-family="Helvetica,sans-Serif" font-size="10.00">clang::tooling::ToolAction</text>
</a>
</g>
</g>
<!-- Node1 -->
<g id="Node000001" class="node">
<title>Node1</title>
<g id="a_Node000001"><a xlink:href="classASTBuilderAction.html" target="_top" xlink:title="Action to compute a single AST of file filename.">
<polygon fill="white" stroke="#666666" points="282,-56 181,-56 181,-37 282,-37 282,-56"/>
<text text-anchor="middle" x="231.5" y="-44" font-family="Helvetica,sans-Serif" font-size="10.00">ASTBuilderAction</text>
</a>
</g>
</g>
<!-- Node0&#45;&gt;Node1 -->
<g id="edge6_Node000000_Node000001" class="edge">
<title>Node0&#45;&gt;Node1</title>
<g id="a_edge6_Node000000_Node000001"><a xlink:title=" ">
<path fill="none" stroke="#63b8ff" d="M149.43,-36.87C160.05,-38.13 170.69,-39.4 180.62,-40.58"/>
<polygon fill="#63b8ff" stroke="#63b8ff" points="149.63,-33.37 139.28,-35.67 148.8,-40.32 149.63,-33.37"/>
</a>
</g>
</g>
<!-- Node2 -->
<g id="Node000002" class="node">
<title>Node2</title>
<g id="a_Node000002"><a xlink:href="classAllASTBuilderAction.html" target="_top" xlink:title="Action to compute all ASTs.">
<polygon fill="white" stroke="#666666" points="288,-19 175,-19 175,0 288,0 288,-19"/>
<text text-anchor="middle" x="231.5" y="-7" font-family="Helvetica,sans-Serif" font-size="10.00">AllASTBuilderAction</text>
</a>
</g>
</g>
<!-- Node0&#45;&gt;Node2 -->
<g id="edge7_Node000000_Node000002" class="edge">
<title>Node0&#45;&gt;Node2</title>
<g id="a_edge7_Node000000_Node000002"><a xlink:title=" ">
<path fill="none" stroke="#63b8ff" d="M149.34,-18.63C157.94,-17.66 166.56,-16.69 174.79,-15.77"/>
<polygon fill="#63b8ff" stroke="#63b8ff" points="148.83,-15.17 139.28,-19.76 149.61,-22.12 148.83,-15.17"/>
</a>
</g>
</g>
</g>
</svg>
