<?xml version="1.0" encoding="UTF-8" standalone="no"?>
<!DOCTYPE svg PUBLIC "-//W3C//DTD SVG 1.1//EN"
 "http://www.w3.org/Graphics/SVG/1.1/DTD/svg11.dtd">
<!-- Generated by graphviz version 2.43.0 (0)
 -->
<!-- Title: src/Injection.cpp Pages: 1 -->
<svg width="1100pt" height="196pt"
 viewBox="0.00 0.00 1100.00 196.00" xmlns="http://www.w3.org/2000/svg" xmlns:xlink="http://www.w3.org/1999/xlink">
<g id="graph0" class="graph" transform="scale(1 1) rotate(0) translate(4 192)">
<title>src/Injection.cpp</title>
<!-- Node1 -->
<g id="node1" class="node">
<title>Node1</title>
<g id="a_node1"><a xlink:title=" ">
<polygon fill="#bfbfbf" stroke="black" points="477.5,-168.5 477.5,-187.5 573.5,-187.5 573.5,-168.5 477.5,-168.5"/>
<text text-anchor="middle" x="525.5" y="-175.5" font-family="Helvetica,sans-Serif" font-size="10.00">src/Injection.cpp</text>
</a>
</g>
</g>
<!-- Node2 -->
<g id="node2" class="node">
<title>Node2</title>
<g id="a_node2"><a xlink:href="Injection_8hpp.html" target="_top" xlink:title=" ">
<polygon fill="none" stroke="black" points="417.5,-112.5 417.5,-131.5 497.5,-131.5 497.5,-112.5 417.5,-112.5"/>
<text text-anchor="middle" x="457.5" y="-119.5" font-family="Helvetica,sans-Serif" font-size="10.00">Injection.hpp</text>
</a>
</g>
</g>
<!-- Node1&#45;&gt;Node2 -->
<g id="edge1" class="edge">
<title>Node1&#45;&gt;Node2</title>
<path fill="none" stroke="midnightblue" d="M514.57,-168.32C504.33,-160.18 488.78,-147.84 476.5,-138.09"/>
<polygon fill="midnightblue" stroke="midnightblue" points="478.63,-135.31 468.62,-131.83 474.28,-140.79 478.63,-135.31"/>
</g>
<!-- Node7 -->
<g id="node7" class="node">
<title>Node7</title>
<g id="a_node7"><a xlink:title=" ">
<polygon fill="none" stroke="#bfbfbf" points="813,-56.5 813,-75.5 932,-75.5 932,-56.5 813,-56.5"/>
<text text-anchor="middle" x="872.5" y="-63.5" font-family="Helvetica,sans-Serif" font-size="10.00">clang/AST/DeclCXX.h</text>
</a>
</g>
</g>
<!-- Node1&#45;&gt;Node7 -->
<g id="edge18" class="edge">
<title>Node1&#45;&gt;Node7</title>
<path fill="none" stroke="midnightblue" d="M525.27,-168.28C525.41,-154.12 527.94,-126.28 544.5,-112 545.72,-110.95 706.74,-89.21 802.69,-76.34"/>
<polygon fill="midnightblue" stroke="midnightblue" points="803.18,-79.81 812.62,-75.01 802.25,-72.87 803.18,-79.81"/>
</g>
<!-- Node10 -->
<g id="node10" class="node">
<title>Node10</title>
<g id="a_node10"><a xlink:title=" ">
<polygon fill="none" stroke="#bfbfbf" points="0,-0.5 0,-19.5 57,-19.5 57,-0.5 0,-0.5"/>
<text text-anchor="middle" x="28.5" y="-7.5" font-family="Helvetica,sans-Serif" font-size="10.00">ostream</text>
</a>
</g>
</g>
<!-- Node1&#45;&gt;Node10 -->
<g id="edge14" class="edge">
<title>Node1&#45;&gt;Node10</title>
<path fill="none" stroke="midnightblue" d="M477.48,-173.04C424.49,-167.69 337.21,-155.9 265.5,-132 181.74,-104.08 90.96,-50.41 50.32,-25"/>
<polygon fill="midnightblue" stroke="midnightblue" points="52.08,-21.98 41.76,-19.6 48.35,-27.9 52.08,-21.98"/>
</g>
<!-- Node11 -->
<g id="node11" class="node">
<title>Node11</title>
<g id="a_node11"><a xlink:title=" ">
<polygon fill="none" stroke="#bfbfbf" points="75.5,-0.5 75.5,-19.5 173.5,-19.5 173.5,-0.5 75.5,-0.5"/>
<text text-anchor="middle" x="124.5" y="-7.5" font-family="Helvetica,sans-Serif" font-size="10.00">clang/AST/Decl.h</text>
</a>
</g>
</g>
<!-- Node1&#45;&gt;Node11 -->
<g id="edge17" class="edge">
<title>Node1&#45;&gt;Node11</title>
<path fill="none" stroke="midnightblue" d="M477.18,-172.36C431.94,-166.79 363.17,-155.14 307.5,-132 241.27,-104.48 173.47,-51.98 142.23,-26.14"/>
<polygon fill="midnightblue" stroke="midnightblue" points="144.34,-23.34 134.42,-19.6 139.84,-28.7 144.34,-23.34"/>
</g>
<!-- Node14 -->
<g id="node14" class="node">
<title>Node14</title>
<g id="a_node14"><a xlink:title=" ">
<polygon fill="none" stroke="#bfbfbf" points="553.5,-112.5 553.5,-131.5 609.5,-131.5 609.5,-112.5 553.5,-112.5"/>
<text text-anchor="middle" x="581.5" y="-119.5" font-family="Helvetica,sans-Serif" font-size="10.00">sstream</text>
</a>
</g>
</g>
<!-- Node1&#45;&gt;Node14 -->
<g id="edge15" class="edge">
<title>Node1&#45;&gt;Node14</title>
<path fill="none" stroke="midnightblue" d="M534.5,-168.32C542.69,-160.42 555.01,-148.55 564.97,-138.94"/>
<polygon fill="midnightblue" stroke="midnightblue" points="567.57,-141.29 572.34,-131.83 562.71,-136.26 567.57,-141.29"/>
</g>
<!-- Node15 -->
<g id="node15" class="node">
<title>Node15</title>
<g id="a_node15"><a xlink:title=" ">
<polygon fill="none" stroke="#bfbfbf" points="627.5,-112.5 627.5,-131.5 761.5,-131.5 761.5,-112.5 627.5,-112.5"/>
<text text-anchor="middle" x="694.5" y="-119.5" font-family="Helvetica,sans-Serif" font-size="10.00">termcolor/termcolor.hpp</text>
</a>
</g>
</g>
<!-- Node1&#45;&gt;Node15 -->
<g id="edge16" class="edge">
<title>Node1&#45;&gt;Node15</title>
<path fill="none" stroke="midnightblue" d="M552.28,-168.44C580.83,-159.32 626.23,-144.81 658.04,-134.65"/>
<polygon fill="midnightblue" stroke="midnightblue" points="659.39,-137.89 667.85,-131.52 657.26,-131.23 659.39,-137.89"/>
</g>
<!-- Node16 -->
<g id="node16" class="node">
<title>Node16</title>
<g id="a_node16"><a xlink:title=" ">
<polygon fill="none" stroke="#bfbfbf" points="780,-112.5 780,-131.5 923,-131.5 923,-112.5 780,-112.5"/>
<text text-anchor="middle" x="851.5" y="-119.5" font-family="Helvetica,sans-Serif" font-size="10.00">clang/AST/DeclTemplate.h</text>
</a>
</g>
</g>
<!-- Node1&#45;&gt;Node16 -->
<g id="edge19" class="edge">
<title>Node1&#45;&gt;Node16</title>
<path fill="none" stroke="midnightblue" d="M573.6,-169.03C630.98,-159.53 727.01,-143.62 789.8,-133.22"/>
<polygon fill="midnightblue" stroke="midnightblue" points="790.67,-136.62 799.97,-131.54 789.53,-129.72 790.67,-136.62"/>
</g>
<!-- Node17 -->
<g id="node17" class="node">
<title>Node17</title>
<g id="a_node17"><a xlink:title=" ">
<polygon fill="none" stroke="#bfbfbf" points="941,-112.5 941,-131.5 1092,-131.5 1092,-112.5 941,-112.5"/>
<text text-anchor="middle" x="1016.5" y="-119.5" font-family="Helvetica,sans-Serif" font-size="10.00">clang/AST/TemplateName.h</text>
</a>
</g>
</g>
<!-- Node1&#45;&gt;Node17 -->
<g id="edge20" class="edge">
<title>Node1&#45;&gt;Node17</title>
<path fill="none" stroke="midnightblue" d="M573.92,-171.67C656.93,-162.55 827.41,-143.8 930.87,-132.42"/>
<polygon fill="midnightblue" stroke="midnightblue" points="931.42,-135.88 940.97,-131.31 930.65,-128.92 931.42,-135.88"/>
</g>
<!-- Node18 -->
<g id="node18" class="node">
<title>Node18</title>
<g id="a_node18"><a xlink:href="Parsing_8hpp.html" target="_top" xlink:title="Helper functions for parsing information from AST nodes.">
<polygon fill="none" stroke="black" points="317,-112.5 317,-131.5 390,-131.5 390,-112.5 317,-112.5"/>
<text text-anchor="middle" x="353.5" y="-119.5" font-family="Helvetica,sans-Serif" font-size="10.00">Parsing.hpp</text>
</a>
</g>
</g>
<!-- Node1&#45;&gt;Node18 -->
<g id="edge21" class="edge">
<title>Node1&#45;&gt;Node18</title>
<path fill="none" stroke="midnightblue" d="M498.25,-168.44C469.06,-159.28 422.58,-144.69 390.19,-134.52"/>
<polygon fill="midnightblue" stroke="midnightblue" points="391.22,-131.17 380.63,-131.52 389.12,-137.85 391.22,-131.17"/>
</g>
<!-- Node3 -->
<g id="node3" class="node">
<title>Node3</title>
<g id="a_node3"><a xlink:title=" ">
<polygon fill="none" stroke="#bfbfbf" points="485.5,-56.5 485.5,-75.5 541.5,-75.5 541.5,-56.5 485.5,-56.5"/>
<text text-anchor="middle" x="513.5" y="-63.5" font-family="Helvetica,sans-Serif" font-size="10.00">optional</text>
</a>
</g>
</g>
<!-- Node2&#45;&gt;Node3 -->
<g id="edge2" class="edge">
<title>Node2&#45;&gt;Node3</title>
<path fill="none" stroke="midnightblue" d="M466.5,-112.32C474.69,-104.42 487.01,-92.55 496.97,-82.94"/>
<polygon fill="midnightblue" stroke="midnightblue" points="499.57,-85.29 504.34,-75.83 494.71,-80.26 499.57,-85.29"/>
</g>
<!-- Node4 -->
<g id="node4" class="node">
<title>Node4</title>
<g id="a_node4"><a xlink:title=" ">
<polygon fill="none" stroke="#bfbfbf" points="529.5,-0.5 529.5,-19.5 573.5,-19.5 573.5,-0.5 529.5,-0.5"/>
<text text-anchor="middle" x="551.5" y="-7.5" font-family="Helvetica,sans-Serif" font-size="10.00">string</text>
</a>
</g>
</g>
<!-- Node2&#45;&gt;Node4 -->
<g id="edge3" class="edge">
<title>Node2&#45;&gt;Node4</title>
<path fill="none" stroke="midnightblue" d="M458.07,-112.09C459.34,-98.65 463.43,-72.94 476.5,-56 487.72,-41.47 505.07,-30.62 520.26,-23.23"/>
<polygon fill="midnightblue" stroke="midnightblue" points="521.72,-26.41 529.36,-19.06 518.81,-20.04 521.72,-26.41"/>
</g>
<!-- Node5 -->
<g id="node5" class="node">
<title>Node5</title>
<g id="a_node5"><a xlink:title=" ">
<polygon fill="none" stroke="#bfbfbf" points="382,-56.5 382,-75.5 429,-75.5 429,-56.5 382,-56.5"/>
<text text-anchor="middle" x="405.5" y="-63.5" font-family="Helvetica,sans-Serif" font-size="10.00">vector</text>
</a>
</g>
</g>
<!-- Node2&#45;&gt;Node5 -->
<g id="edge4" class="edge">
<title>Node2&#45;&gt;Node5</title>
<path fill="none" stroke="midnightblue" d="M448.91,-112.08C441.34,-104.22 430.12,-92.57 420.99,-83.08"/>
<polygon fill="midnightblue" stroke="midnightblue" points="423.38,-80.53 413.93,-75.75 418.34,-85.38 423.38,-80.53"/>
</g>
<!-- Node6 -->
<g id="node6" class="node">
<title>Node6</title>
<g id="a_node6"><a xlink:title=" ">
<polygon fill="none" stroke="#bfbfbf" points="559.5,-56.5 559.5,-75.5 677.5,-75.5 677.5,-56.5 559.5,-56.5"/>
<text text-anchor="middle" x="618.5" y="-63.5" font-family="Helvetica,sans-Serif" font-size="10.00">llvm/ADT/StringRef.h</text>
</a>
</g>
</g>
<!-- Node2&#45;&gt;Node6 -->
<g id="edge5" class="edge">
<title>Node2&#45;&gt;Node6</title>
<path fill="none" stroke="midnightblue" d="M483.01,-112.44C510.1,-103.36 553.09,-88.94 583.37,-78.78"/>
<polygon fill="midnightblue" stroke="midnightblue" points="584.74,-82.01 593.11,-75.52 582.51,-75.38 584.74,-82.01"/>
</g>
<!-- Node2&#45;&gt;Node7 -->
<g id="edge6" class="edge">
<title>Node2&#45;&gt;Node7</title>
<path fill="none" stroke="midnightblue" d="M497.57,-114.12C502.26,-113.38 506.98,-112.65 511.5,-112 638.18,-93.67 672.68,-92.65 802.85,-76.2"/>
<polygon fill="midnightblue" stroke="midnightblue" points="803.32,-79.67 812.8,-74.93 802.44,-72.72 803.32,-79.67"/>
</g>
<!-- Node8 -->
<g id="node8" class="node">
<title>Node8</title>
<g id="a_node8"><a xlink:title=" ">
<polygon fill="none" stroke="#bfbfbf" points="696,-56.5 696,-75.5 795,-75.5 795,-56.5 696,-56.5"/>
<text text-anchor="middle" x="745.5" y="-63.5" font-family="Helvetica,sans-Serif" font-size="10.00">clang/AST/Type.h</text>
</a>
</g>
</g>
<!-- Node2&#45;&gt;Node8 -->
<g id="edge7" class="edge">
<title>Node2&#45;&gt;Node8</title>
<path fill="none" stroke="midnightblue" d="M497.55,-113.49C547.6,-104.11 633.53,-87.99 689.93,-77.42"/>
<polygon fill="midnightblue" stroke="midnightblue" points="690.92,-80.79 700.1,-75.51 689.63,-73.91 690.92,-80.79"/>
</g>
<!-- Node9 -->
<g id="node9" class="node">
<title>Node9</title>
<g id="a_node9"><a xlink:href="Param_8hpp.html" target="_top" xlink:title=" ">
<polygon fill="none" stroke="black" points="257.5,-56.5 257.5,-75.5 325.5,-75.5 325.5,-56.5 257.5,-56.5"/>
<text text-anchor="middle" x="291.5" y="-63.5" font-family="Helvetica,sans-Serif" font-size="10.00">Param.hpp</text>
</a>
</g>
</g>
<!-- Node2&#45;&gt;Node9 -->
<g id="edge8" class="edge">
<title>Node2&#45;&gt;Node9</title>
<path fill="none" stroke="midnightblue" d="M431.2,-112.44C403.15,-103.32 358.56,-88.81 327.32,-78.65"/>
<polygon fill="midnightblue" stroke="midnightblue" points="328.27,-75.28 317.68,-75.52 326.11,-81.94 328.27,-75.28"/>
</g>
<!-- Node9&#45;&gt;Node4 -->
<g id="edge10" class="edge">
<title>Node9&#45;&gt;Node4</title>
<path fill="none" stroke="midnightblue" d="M325.59,-58.48C379.17,-48.19 480.35,-28.68 519.26,-20.04"/>
<polygon fill="midnightblue" stroke="midnightblue" points="520.26,-23.4 529.21,-17.73 518.68,-16.58 520.26,-23.4"/>
</g>
<!-- Node9&#45;&gt;Node10 -->
<g id="edge9" class="edge">
<title>Node9&#45;&gt;Node10</title>
<path fill="none" stroke="midnightblue" d="M257.5,-58.59C215.27,-50.53 140.78,-36.06 67.03,-20.05"/>
<polygon fill="midnightblue" stroke="midnightblue" points="67.63,-16.6 57.11,-17.89 66.13,-23.44 67.63,-16.6"/>
</g>
<!-- Node9&#45;&gt;Node11 -->
<g id="edge11" class="edge">
<title>Node9&#45;&gt;Node11</title>
<path fill="none" stroke="midnightblue" d="M265.04,-56.44C236.82,-47.32 191.96,-32.81 160.53,-22.65"/>
<polygon fill="midnightblue" stroke="midnightblue" points="161.43,-19.26 150.84,-19.52 159.28,-25.92 161.43,-19.26"/>
</g>
<!-- Node12 -->
<g id="node12" class="node">
<title>Node12</title>
<g id="a_node12"><a xlink:title=" ">
<polygon fill="none" stroke="#bfbfbf" points="347.5,-0.5 347.5,-19.5 511.5,-19.5 511.5,-0.5 347.5,-0.5"/>
<text text-anchor="middle" x="429.5" y="-7.5" font-family="Helvetica,sans-Serif" font-size="10.00">clang/AST/DependenceFlags.h</text>
</a>
</g>
</g>
<!-- Node9&#45;&gt;Node12 -->
<g id="edge12" class="edge">
<title>Node9&#45;&gt;Node12</title>
<path fill="none" stroke="midnightblue" d="M313.37,-56.44C336.28,-47.48 372.48,-33.31 398.37,-23.18"/>
<polygon fill="midnightblue" stroke="midnightblue" points="399.7,-26.42 407.74,-19.52 397.15,-19.9 399.7,-26.42"/>
</g>
<!-- Node13 -->
<g id="node13" class="node">
<title>Node13</title>
<g id="a_node13"><a xlink:title=" ">
<polygon fill="none" stroke="#bfbfbf" points="192,-0.5 192,-19.5 329,-19.5 329,-0.5 192,-0.5"/>
<text text-anchor="middle" x="260.5" y="-7.5" font-family="Helvetica,sans-Serif" font-size="10.00">clang/AST/PrettyPrinter.h</text>
</a>
</g>
</g>
<!-- Node9&#45;&gt;Node13 -->
<g id="edge13" class="edge">
<title>Node9&#45;&gt;Node13</title>
<path fill="none" stroke="midnightblue" d="M286.38,-56.08C282.09,-48.61 275.84,-37.72 270.56,-28.52"/>
<polygon fill="midnightblue" stroke="midnightblue" points="273.54,-26.68 265.52,-19.75 267.47,-30.17 273.54,-26.68"/>
</g>
<!-- Node18&#45;&gt;Node4 -->
<g id="edge22" class="edge">
<title>Node18&#45;&gt;Node4</title>
<path fill="none" stroke="midnightblue" d="M353.44,-112.47C353.82,-98.57 356.69,-71.11 372.5,-56 419.25,-11.34 452.04,-35.06 519.44,-20"/>
<polygon fill="midnightblue" stroke="midnightblue" points="520.31,-23.39 529.18,-17.61 518.64,-16.59 520.31,-23.39"/>
</g>
<!-- Node18&#45;&gt;Node5 -->
<g id="edge23" class="edge">
<title>Node18&#45;&gt;Node5</title>
<path fill="none" stroke="midnightblue" d="M362.09,-112.08C369.66,-104.22 380.88,-92.57 390.01,-83.08"/>
<polygon fill="midnightblue" stroke="midnightblue" points="392.66,-85.38 397.07,-75.75 387.62,-80.53 392.66,-85.38"/>
</g>
<!-- Node18&#45;&gt;Node9 -->
<g id="edge25" class="edge">
<title>Node18&#45;&gt;Node9</title>
<path fill="none" stroke="midnightblue" d="M343.54,-112.32C334.37,-104.34 320.56,-92.31 309.47,-82.65"/>
<polygon fill="midnightblue" stroke="midnightblue" points="311.48,-79.76 301.64,-75.83 306.88,-85.04 311.48,-79.76"/>
</g>
<!-- Node18&#45;&gt;Node13 -->
<g id="edge24" class="edge">
<title>Node18&#45;&gt;Node13</title>
<path fill="none" stroke="midnightblue" d="M316.74,-115.7C292.9,-110.14 263.57,-98.85 248.5,-76 239.25,-61.97 244.51,-42.72 250.71,-28.81"/>
<polygon fill="midnightblue" stroke="midnightblue" points="253.88,-30.3 255.19,-19.78 247.61,-27.18 253.88,-30.3"/>
</g>
</g>
</svg>
