<?xml version="1.0" encoding="UTF-8" standalone="no"?>
<!DOCTYPE svg PUBLIC "-//W3C//DTD SVG 1.1//EN"
 "http://www.w3.org/Graphics/SVG/1.1/DTD/svg11.dtd">
<!-- Generated by graphviz version 2.43.0 (0)
 -->
<!-- Title: src/Injection.cpp Pages: 1 -->
<svg width="1100pt" height="192pt"
 viewBox="0.00 0.00 1100.00 192.00" xmlns="http://www.w3.org/2000/svg" xmlns:xlink="http://www.w3.org/1999/xlink">
<g id="graph0" class="graph" transform="scale(1 1) rotate(0) translate(4 188)">
<title>src/Injection.cpp</title>
<!-- Node1 -->
<g id="Node000001" class="node">
<title>Node1</title>
<g id="a_Node000001"><a xlink:title=" ">
<polygon fill="#999999" stroke="#666666" points="573.5,-184 477.5,-184 477.5,-165 573.5,-165 573.5,-184"/>
<text text-anchor="middle" x="525.5" y="-172" font-family="Helvetica,sans-Serif" font-size="10.00">src/Injection.cpp</text>
</a>
</g>
</g>
<!-- Node2 -->
<g id="Node000002" class="node">
<title>Node2</title>
<g id="a_Node000002"><a xlink:href="Injection_8hpp.html" target="_top" xlink:title=" ">
<polygon fill="white" stroke="#666666" points="497.5,-129 417.5,-129 417.5,-110 497.5,-110 497.5,-129"/>
<text text-anchor="middle" x="457.5" y="-117" font-family="Helvetica,sans-Serif" font-size="10.00">Injection.hpp</text>
</a>
</g>
</g>
<!-- Node1&#45;&gt;Node2 -->
<g id="edge1_Node000001_Node000002" class="edge">
<title>Node1&#45;&gt;Node2</title>
<g id="a_edge1_Node000001_Node000002"><a xlink:title=" ">
<path fill="none" stroke="#63b8ff" d="M514.57,-164.98C504.42,-157.07 489.08,-145.11 476.85,-135.58"/>
<polygon fill="#63b8ff" stroke="#63b8ff" points="478.66,-132.56 468.62,-129.17 474.36,-138.08 478.66,-132.56"/>
</a>
</g>
</g>
<!-- Node7 -->
<g id="Node000007" class="node">
<title>Node7</title>
<g id="a_Node000007"><a xlink:title=" ">
<polygon fill="#e0e0e0" stroke="#999999" points="932,-74 813,-74 813,-55 932,-55 932,-74"/>
<text text-anchor="middle" x="872.5" y="-62" font-family="Helvetica,sans-Serif" font-size="10.00">clang/AST/DeclCXX.h</text>
</a>
</g>
</g>
<!-- Node1&#45;&gt;Node7 -->
<g id="edge18_Node000001_Node000007" class="edge">
<title>Node1&#45;&gt;Node7</title>
<g id="a_edge18_Node000001_Node000007"><a xlink:title=" ">
<path fill="none" stroke="#63b8ff" d="M525.34,-164.97C525.57,-151.13 528.23,-123.91 544.5,-110 546.95,-107.91 707.15,-86.88 802.73,-74.49"/>
<polygon fill="#63b8ff" stroke="#63b8ff" points="803.44,-77.93 812.91,-73.18 802.54,-70.99 803.44,-77.93"/>
</a>
</g>
</g>
<!-- Node10 -->
<g id="Node000010" class="node">
<title>Node10</title>
<g id="a_Node000010"><a xlink:title=" ">
<polygon fill="#e0e0e0" stroke="#999999" points="57,-19 0,-19 0,0 57,0 57,-19"/>
<text text-anchor="middle" x="28.5" y="-7" font-family="Helvetica,sans-Serif" font-size="10.00">ostream</text>
</a>
</g>
</g>
<!-- Node1&#45;&gt;Node10 -->
<g id="edge14_Node000001_Node000010" class="edge">
<title>Node1&#45;&gt;Node10</title>
<g id="a_edge14_Node000001_Node000010"><a xlink:title=" ">
<path fill="none" stroke="#63b8ff" d="M477.04,-169.5C424.03,-164.14 337.09,-152.45 265.5,-129 182.15,-101.7 91.5,-49.34 50.65,-24.39"/>
<polygon fill="#63b8ff" stroke="#63b8ff" points="52.39,-21.35 42.04,-19.08 48.72,-27.3 52.39,-21.35"/>
</a>
</g>
</g>
<!-- Node11 -->
<g id="Node000011" class="node">
<title>Node11</title>
<g id="a_Node000011"><a xlink:title=" ">
<polygon fill="#e0e0e0" stroke="#999999" points="173.5,-19 75.5,-19 75.5,0 173.5,0 173.5,-19"/>
<text text-anchor="middle" x="124.5" y="-7" font-family="Helvetica,sans-Serif" font-size="10.00">clang/AST/Decl.h</text>
</a>
</g>
</g>
<!-- Node1&#45;&gt;Node11 -->
<g id="edge17_Node000001_Node000011" class="edge">
<title>Node1&#45;&gt;Node11</title>
<g id="a_edge17_Node000001_Node000011"><a xlink:title=" ">
<path fill="none" stroke="#63b8ff" d="M477.23,-168.87C432.03,-163.34 363.28,-151.8 307.5,-129 241.85,-102.17 174.26,-51.13 142.74,-25.69"/>
<polygon fill="#63b8ff" stroke="#63b8ff" points="144.8,-22.86 134.84,-19.24 140.37,-28.28 144.8,-22.86"/>
</a>
</g>
</g>
<!-- Node14 -->
<g id="Node000014" class="node">
<title>Node14</title>
<g id="a_Node000014"><a xlink:title=" ">
<polygon fill="#e0e0e0" stroke="#999999" points="609.5,-129 553.5,-129 553.5,-110 609.5,-110 609.5,-129"/>
<text text-anchor="middle" x="581.5" y="-117" font-family="Helvetica,sans-Serif" font-size="10.00">sstream</text>
</a>
</g>
</g>
<!-- Node1&#45;&gt;Node14 -->
<g id="edge15_Node000001_Node000014" class="edge">
<title>Node1&#45;&gt;Node14</title>
<g id="a_edge15_Node000001_Node000014"><a xlink:title=" ">
<path fill="none" stroke="#63b8ff" d="M534.5,-164.98C542.69,-157.23 555.01,-145.58 564.97,-136.14"/>
<polygon fill="#63b8ff" stroke="#63b8ff" points="567.48,-138.59 572.34,-129.17 562.67,-133.5 567.48,-138.59"/>
</a>
</g>
</g>
<!-- Node15 -->
<g id="Node000015" class="node">
<title>Node15</title>
<g id="a_Node000015"><a xlink:title=" ">
<polygon fill="#e0e0e0" stroke="#999999" points="761.5,-129 627.5,-129 627.5,-110 761.5,-110 761.5,-129"/>
<text text-anchor="middle" x="694.5" y="-117" font-family="Helvetica,sans-Serif" font-size="10.00">termcolor/termcolor.hpp</text>
</a>
</g>
</g>
<!-- Node1&#45;&gt;Node15 -->
<g id="edge16_Node000001_Node000015" class="edge">
<title>Node1&#45;&gt;Node15</title>
<g id="a_edge16_Node000001_Node000015"><a xlink:title=" ">
<path fill="none" stroke="#63b8ff" d="M552.65,-164.98C581.03,-156.09 625.73,-142.07 657.36,-132.15"/>
<polygon fill="#63b8ff" stroke="#63b8ff" points="658.64,-135.41 667.13,-129.08 656.55,-128.73 658.64,-135.41"/>
</a>
</g>
</g>
<!-- Node16 -->
<g id="Node000016" class="node">
<title>Node16</title>
<g id="a_Node000016"><a xlink:title=" ">
<polygon fill="#e0e0e0" stroke="#999999" points="923,-129 780,-129 780,-110 923,-110 923,-129"/>
<text text-anchor="middle" x="851.5" y="-117" font-family="Helvetica,sans-Serif" font-size="10.00">clang/AST/DeclTemplate.h</text>
</a>
</g>
</g>
<!-- Node1&#45;&gt;Node16 -->
<g id="edge19_Node000001_Node000016" class="edge">
<title>Node1&#45;&gt;Node16</title>
<g id="a_edge19_Node000001_Node000016"><a xlink:title=" ">
<path fill="none" stroke="#63b8ff" d="M573.6,-165.68C630.73,-156.39 726.17,-140.88 788.97,-130.67"/>
<polygon fill="#63b8ff" stroke="#63b8ff" points="789.84,-134.07 799.15,-129.01 788.72,-127.16 789.84,-134.07"/>
</a>
</g>
</g>
<!-- Node17 -->
<g id="Node000017" class="node">
<title>Node17</title>
<g id="a_Node000017"><a xlink:title=" ">
<polygon fill="#e0e0e0" stroke="#999999" points="1092,-129 941,-129 941,-110 1092,-110 1092,-129"/>
<text text-anchor="middle" x="1016.5" y="-117" font-family="Helvetica,sans-Serif" font-size="10.00">clang/AST/TemplateName.h</text>
</a>
</g>
</g>
<!-- Node1&#45;&gt;Node17 -->
<g id="edge20_Node000001_Node000017" class="edge">
<title>Node1&#45;&gt;Node17</title>
<g id="a_edge20_Node000001_Node000017"><a xlink:title=" ">
<path fill="none" stroke="#63b8ff" d="M573.92,-168.27C656.93,-159.31 827.41,-140.91 930.87,-129.74"/>
<polygon fill="#63b8ff" stroke="#63b8ff" points="931.41,-133.21 940.97,-128.65 930.66,-126.25 931.41,-133.21"/>
</a>
</g>
</g>
<!-- Node18 -->
<g id="Node000018" class="node">
<title>Node18</title>
<g id="a_Node000018"><a xlink:href="Parsing_8hpp.html" target="_top" xlink:title="Helper functions for parsing information from AST nodes.">
<polygon fill="white" stroke="#666666" points="390,-129 317,-129 317,-110 390,-110 390,-129"/>
<text text-anchor="middle" x="353.5" y="-117" font-family="Helvetica,sans-Serif" font-size="10.00">Parsing.hpp</text>
</a>
</g>
</g>
<!-- Node1&#45;&gt;Node18 -->
<g id="edge21_Node000001_Node000018" class="edge">
<title>Node1&#45;&gt;Node18</title>
<g id="a_edge21_Node000001_Node000018"><a xlink:title=" ">
<path fill="none" stroke="#63b8ff" d="M497.87,-164.98C468.99,-156.09 423.49,-142.07 391.3,-132.15"/>
<polygon fill="#63b8ff" stroke="#63b8ff" points="391.94,-128.68 381.35,-129.08 389.88,-135.37 391.94,-128.68"/>
</a>
</g>
</g>
<!-- Node3 -->
<g id="Node000003" class="node">
<title>Node3</title>
<g id="a_Node000003"><a xlink:title=" ">
<polygon fill="#e0e0e0" stroke="#999999" points="541.5,-74 485.5,-74 485.5,-55 541.5,-55 541.5,-74"/>
<text text-anchor="middle" x="513.5" y="-62" font-family="Helvetica,sans-Serif" font-size="10.00">optional</text>
</a>
</g>
</g>
<!-- Node2&#45;&gt;Node3 -->
<g id="edge2_Node000002_Node000003" class="edge">
<title>Node2&#45;&gt;Node3</title>
<g id="a_edge2_Node000002_Node000003"><a xlink:title=" ">
<path fill="none" stroke="#63b8ff" d="M466.5,-109.98C474.69,-102.23 487.01,-90.58 496.97,-81.14"/>
<polygon fill="#63b8ff" stroke="#63b8ff" points="499.48,-83.59 504.34,-74.17 494.67,-78.5 499.48,-83.59"/>
</a>
</g>
</g>
<!-- Node4 -->
<g id="Node000004" class="node">
<title>Node4</title>
<g id="a_Node000004"><a xlink:title=" ">
<polygon fill="#e0e0e0" stroke="#999999" points="573.5,-19 529.5,-19 529.5,0 573.5,0 573.5,-19"/>
<text text-anchor="middle" x="551.5" y="-7" font-family="Helvetica,sans-Serif" font-size="10.00">string</text>
</a>
</g>
</g>
<!-- Node2&#45;&gt;Node4 -->
<g id="edge3_Node000002_Node000004" class="edge">
<title>Node2&#45;&gt;Node4</title>
<g id="a_edge3_Node000002_Node000004"><a xlink:title=" ">
<path fill="none" stroke="#63b8ff" d="M458.11,-109.79C459.44,-96.64 463.61,-71.51 476.5,-55 487.66,-40.71 504.79,-30.05 519.87,-22.75"/>
<polygon fill="#63b8ff" stroke="#63b8ff" points="521.73,-25.75 529.39,-18.44 518.84,-19.38 521.73,-25.75"/>
</a>
</g>
</g>
<!-- Node5 -->
<g id="Node000005" class="node">
<title>Node5</title>
<g id="a_Node000005"><a xlink:title=" ">
<polygon fill="#e0e0e0" stroke="#999999" points="429,-74 382,-74 382,-55 429,-55 429,-74"/>
<text text-anchor="middle" x="405.5" y="-62" font-family="Helvetica,sans-Serif" font-size="10.00">vector</text>
</a>
</g>
</g>
<!-- Node2&#45;&gt;Node5 -->
<g id="edge4_Node000002_Node000005" class="edge">
<title>Node2&#45;&gt;Node5</title>
<g id="a_edge4_Node000002_Node000005"><a xlink:title=" ">
<path fill="none" stroke="#63b8ff" d="M448.91,-109.75C441.34,-102.03 430.12,-90.6 420.99,-81.28"/>
<polygon fill="#63b8ff" stroke="#63b8ff" points="423.43,-78.78 413.93,-74.09 418.43,-83.68 423.43,-78.78"/>
</a>
</g>
</g>
<!-- Node6 -->
<g id="Node000006" class="node">
<title>Node6</title>
<g id="a_Node000006"><a xlink:title=" ">
<polygon fill="#e0e0e0" stroke="#999999" points="677.5,-74 559.5,-74 559.5,-55 677.5,-55 677.5,-74"/>
<text text-anchor="middle" x="618.5" y="-62" font-family="Helvetica,sans-Serif" font-size="10.00">llvm/ADT/StringRef.h</text>
</a>
</g>
</g>
<!-- Node2&#45;&gt;Node6 -->
<g id="edge5_Node000002_Node000006" class="edge">
<title>Node2&#45;&gt;Node6</title>
<g id="a_edge5_Node000002_Node000006"><a xlink:title=" ">
<path fill="none" stroke="#63b8ff" d="M483.37,-109.98C510.28,-101.13 552.62,-87.19 582.73,-77.28"/>
<polygon fill="#63b8ff" stroke="#63b8ff" points="584.03,-80.53 592.43,-74.08 581.84,-73.88 584.03,-80.53"/>
</a>
</g>
</g>
<!-- Node2&#45;&gt;Node7 -->
<g id="edge6_Node000002_Node000007" class="edge">
<title>Node2&#45;&gt;Node7</title>
<g id="a_edge6_Node000002_Node000007"><a xlink:title=" ">
<path fill="none" stroke="#63b8ff" d="M497.58,-112.04C502.27,-111.33 506.99,-110.63 511.5,-110 638.26,-92.24 672.63,-90.23 802.84,-74.2"/>
<polygon fill="#63b8ff" stroke="#63b8ff" points="803.3,-77.67 812.8,-72.97 802.44,-70.72 803.3,-77.67"/>
</a>
</g>
</g>
<!-- Node8 -->
<g id="Node000008" class="node">
<title>Node8</title>
<g id="a_Node000008"><a xlink:title=" ">
<polygon fill="#e0e0e0" stroke="#999999" points="795,-74 696,-74 696,-55 795,-55 795,-74"/>
<text text-anchor="middle" x="745.5" y="-62" font-family="Helvetica,sans-Serif" font-size="10.00">clang/AST/Type.h</text>
</a>
</g>
</g>
<!-- Node2&#45;&gt;Node8 -->
<g id="edge7_Node000002_Node000008" class="edge">
<title>Node2&#45;&gt;Node8</title>
<g id="a_edge7_Node000002_Node000008"><a xlink:title=" ">
<path fill="none" stroke="#63b8ff" d="M497.55,-111.13C547.31,-101.97 632.53,-86.29 688.95,-75.91"/>
<polygon fill="#63b8ff" stroke="#63b8ff" points="689.93,-79.29 699.13,-74.03 688.66,-72.4 689.93,-79.29"/>
</a>
</g>
</g>
<!-- Node9 -->
<g id="Node000009" class="node">
<title>Node9</title>
<g id="a_Node000009"><a xlink:href="Param_8hpp.html" target="_top" xlink:title=" ">
<polygon fill="white" stroke="#666666" points="325.5,-74 257.5,-74 257.5,-55 325.5,-55 325.5,-74"/>
<text text-anchor="middle" x="291.5" y="-62" font-family="Helvetica,sans-Serif" font-size="10.00">Param.hpp</text>
</a>
</g>
</g>
<!-- Node2&#45;&gt;Node9 -->
<g id="edge8_Node000002_Node000009" class="edge">
<title>Node2&#45;&gt;Node9</title>
<g id="a_edge8_Node000002_Node000009"><a xlink:title=" ">
<path fill="none" stroke="#63b8ff" d="M430.83,-109.98C402.96,-101.09 359.05,-87.07 327.98,-77.15"/>
<polygon fill="#63b8ff" stroke="#63b8ff" points="328.97,-73.79 318.38,-74.08 326.84,-80.46 328.97,-73.79"/>
</a>
</g>
</g>
<!-- Node9&#45;&gt;Node4 -->
<g id="edge10_Node000009_Node000004" class="edge">
<title>Node9&#45;&gt;Node4</title>
<g id="a_edge10_Node000009_Node000004"><a xlink:title=" ">
<path fill="none" stroke="#63b8ff" d="M325.71,-57.18C376.5,-47.75 470.35,-30.11 519.44,-19.08"/>
<polygon fill="#63b8ff" stroke="#63b8ff" points="520.24,-22.49 529.2,-16.83 518.67,-15.66 520.24,-22.49"/>
</a>
</g>
</g>
<!-- Node9&#45;&gt;Node10 -->
<g id="edge9_Node000009_Node000010" class="edge">
<title>Node9&#45;&gt;Node10</title>
<g id="a_edge9_Node000009_Node000010"><a xlink:title=" ">
<path fill="none" stroke="#63b8ff" d="M257.14,-56.98C214.86,-48.89 140.64,-34.51 67.03,-19.07"/>
<polygon fill="#63b8ff" stroke="#63b8ff" points="67.62,-15.62 57.12,-16.98 66.18,-22.47 67.62,-15.62"/>
</a>
</g>
</g>
<!-- Node9&#45;&gt;Node11 -->
<g id="edge11_Node000009_Node000011" class="edge">
<title>Node9&#45;&gt;Node11</title>
<g id="a_edge11_Node000009_Node000011"><a xlink:title=" ">
<path fill="none" stroke="#63b8ff" d="M264.67,-54.98C236.63,-46.09 192.45,-32.07 161.2,-22.15"/>
<polygon fill="#63b8ff" stroke="#63b8ff" points="162.13,-18.77 151.54,-19.08 160.01,-25.44 162.13,-18.77"/>
</a>
</g>
</g>
<!-- Node12 -->
<g id="Node000012" class="node">
<title>Node12</title>
<g id="a_Node000012"><a xlink:title=" ">
<polygon fill="#e0e0e0" stroke="#999999" points="511.5,-19 347.5,-19 347.5,0 511.5,0 511.5,-19"/>
<text text-anchor="middle" x="429.5" y="-7" font-family="Helvetica,sans-Serif" font-size="10.00">clang/AST/DependenceFlags.h</text>
</a>
</g>
</g>
<!-- Node9&#45;&gt;Node12 -->
<g id="edge12_Node000009_Node000012" class="edge">
<title>Node9&#45;&gt;Node12</title>
<g id="a_edge12_Node000009_Node000012"><a xlink:title=" ">
<path fill="none" stroke="#63b8ff" d="M313.67,-54.98C336.27,-46.3 371.56,-32.75 397.25,-22.88"/>
<polygon fill="#63b8ff" stroke="#63b8ff" points="398.84,-26.02 406.92,-19.17 396.33,-19.49 398.84,-26.02"/>
</a>
</g>
</g>
<!-- Node13 -->
<g id="Node000013" class="node">
<title>Node13</title>
<g id="a_Node000013"><a xlink:title=" ">
<polygon fill="#e0e0e0" stroke="#999999" points="329,-19 192,-19 192,0 329,0 329,-19"/>
<text text-anchor="middle" x="260.5" y="-7" font-family="Helvetica,sans-Serif" font-size="10.00">clang/AST/PrettyPrinter.h</text>
</a>
</g>
</g>
<!-- Node9&#45;&gt;Node13 -->
<g id="edge13_Node000009_Node000013" class="edge">
<title>Node9&#45;&gt;Node13</title>
<g id="a_edge13_Node000009_Node000013"><a xlink:title=" ">
<path fill="none" stroke="#63b8ff" d="M286.38,-54.75C282.14,-47.49 275.97,-36.95 270.72,-27.98"/>
<polygon fill="#63b8ff" stroke="#63b8ff" points="273.59,-25.95 265.52,-19.09 267.55,-29.49 273.59,-25.95"/>
</a>
</g>
</g>
<!-- Node18&#45;&gt;Node4 -->
<g id="edge22_Node000018_Node000004" class="edge">
<title>Node18&#45;&gt;Node4</title>
<g id="a_edge22_Node000018_Node000004"><a xlink:title=" ">
<path fill="none" stroke="#63b8ff" d="M353.52,-109.72C354.05,-96 357.14,-69.58 372.5,-55 419.39,-10.49 451.93,-33.63 519.41,-19.03"/>
<polygon fill="#63b8ff" stroke="#63b8ff" points="520.25,-22.43 529.17,-16.71 518.63,-15.62 520.25,-22.43"/>
</a>
</g>
</g>
<!-- Node18&#45;&gt;Node5 -->
<g id="edge23_Node000018_Node000005" class="edge">
<title>Node18&#45;&gt;Node5</title>
<g id="a_edge23_Node000018_Node000005"><a xlink:title=" ">
<path fill="none" stroke="#63b8ff" d="M362.09,-109.75C369.66,-102.03 380.88,-90.6 390.01,-81.28"/>
<polygon fill="#63b8ff" stroke="#63b8ff" points="392.57,-83.68 397.07,-74.09 387.57,-78.78 392.57,-83.68"/>
</a>
</g>
</g>
<!-- Node18&#45;&gt;Node9 -->
<g id="edge25_Node000018_Node000009" class="edge">
<title>Node18&#45;&gt;Node9</title>
<g id="a_edge25_Node000018_Node000009"><a xlink:title=" ">
<path fill="none" stroke="#63b8ff" d="M343.54,-109.98C334.37,-102.15 320.56,-90.34 309.47,-80.86"/>
<polygon fill="#63b8ff" stroke="#63b8ff" points="311.52,-78.01 301.64,-74.17 306.97,-83.33 311.52,-78.01"/>
</a>
</g>
</g>
<!-- Node18&#45;&gt;Node13 -->
<g id="edge24_Node000018_Node000013" class="edge">
<title>Node18&#45;&gt;Node13</title>
<g id="a_edge24_Node000018_Node000013"><a xlink:title=" ">
<path fill="none" stroke="#63b8ff" d="M316.76,-113.37C292.92,-107.93 263.59,-96.78 248.5,-74 239.52,-60.43 244.56,-41.86 250.63,-28.3"/>
<polygon fill="#63b8ff" stroke="#63b8ff" points="253.9,-29.59 255.25,-19.08 247.64,-26.46 253.9,-29.59"/>
</a>
</g>
</g>
</g>
</svg>
