<?xml version="1.0" encoding="UTF-8" standalone="no"?>
<!DOCTYPE svg PUBLIC "-//W3C//DTD SVG 1.1//EN"
 "http://www.w3.org/Graphics/SVG/1.1/DTD/svg11.dtd">
<!-- Generated by graphviz version 2.43.0 (0)
 -->
<!-- Title: src/Callbacks/InjectInstantiation.cpp Pages: 1 -->
<svg width="1858pt" height="269pt"
 viewBox="0.00 0.00 1857.50 269.00" xmlns="http://www.w3.org/2000/svg" xmlns:xlink="http://www.w3.org/1999/xlink">
<g id="graph0" class="graph" transform="scale(1 1) rotate(0) translate(4 265)">
<title>src/Callbacks/InjectInstantiation.cpp</title>
<!-- Node1 -->
<g id="Node000001" class="node">
<title>Node1</title>
<g id="a_Node000001"><a xlink:title=" ">
<polygon fill="#999999" stroke="#666666" points="938,-261 745,-261 745,-242 938,-242 938,-261"/>
<text text-anchor="middle" x="841.5" y="-249" font-family="Helvetica,sans-Serif" font-size="10.00">src/Callbacks/InjectInstantiation.cpp</text>
</a>
</g>
</g>
<!-- Node2 -->
<g id="Node000002" class="node">
<title>Node2</title>
<g id="a_Node000002"><a xlink:href="InjectInstantiation_8hpp.html" target="_top" xlink:title=" ">
<polygon fill="white" stroke="#666666" points="285.5,-200.5 109.5,-200.5 109.5,-181.5 285.5,-181.5 285.5,-200.5"/>
<text text-anchor="middle" x="197.5" y="-188.5" font-family="Helvetica,sans-Serif" font-size="10.00">Callbacks/InjectInstantiation.hpp</text>
</a>
</g>
</g>
<!-- Node1&#45;&gt;Node2 -->
<g id="edge1_Node000001_Node000002" class="edge">
<title>Node1&#45;&gt;Node2</title>
<g id="a_edge1_Node000001_Node000002"><a xlink:title=" ">
<path fill="none" stroke="#63b8ff" d="M744.72,-242.64C641.73,-234.14 474.04,-219.95 329.5,-206 315.34,-204.63 300.32,-203.11 285.7,-201.59"/>
<polygon fill="#63b8ff" stroke="#63b8ff" points="285.96,-198.1 275.65,-200.54 285.23,-205.06 285.96,-198.1"/>
</a>
</g>
</g>
<!-- Node5 -->
<g id="Node000005" class="node">
<title>Node5</title>
<g id="a_Node000005"><a xlink:href="Injection_8hpp.html" target="_top" xlink:title=" ">
<polygon fill="white" stroke="#666666" points="335.5,-134.5 255.5,-134.5 255.5,-115.5 335.5,-115.5 335.5,-134.5"/>
<text text-anchor="middle" x="295.5" y="-122.5" font-family="Helvetica,sans-Serif" font-size="10.00">Injection.hpp</text>
</a>
</g>
</g>
<!-- Node1&#45;&gt;Node5 -->
<g id="edge29_Node000001_Node000005" class="edge">
<title>Node1&#45;&gt;Node5</title>
<g id="a_edge29_Node000001_Node000005"><a xlink:title=" ">
<path fill="none" stroke="#63b8ff" d="M744.81,-248.73C628.39,-245.31 440.63,-235.29 377.5,-206 347.27,-191.97 321.48,-162.03 307.27,-143.02"/>
<polygon fill="#63b8ff" stroke="#63b8ff" points="309.94,-140.75 301.26,-134.68 304.27,-144.84 309.94,-140.75"/>
</a>
</g>
</g>
<!-- Node10 -->
<g id="Node000010" class="node">
<title>Node10</title>
<g id="a_Node000010"><a xlink:title=" ">
<polygon fill="#e0e0e0" stroke="#999999" points="654,-74 535,-74 535,-55 654,-55 654,-74"/>
<text text-anchor="middle" x="594.5" y="-62" font-family="Helvetica,sans-Serif" font-size="10.00">clang/AST/DeclCXX.h</text>
</a>
</g>
</g>
<!-- Node1&#45;&gt;Node10 -->
<g id="edge22_Node000001_Node000010" class="edge">
<title>Node1&#45;&gt;Node10</title>
<g id="a_edge22_Node000001_Node000010"><a xlink:title=" ">
<path fill="none" stroke="#63b8ff" d="M764.36,-241.96C714.34,-234.92 655.14,-223.26 636.5,-206 601.88,-173.94 595.38,-114.67 594.42,-84.38"/>
<polygon fill="#63b8ff" stroke="#63b8ff" points="597.92,-84.26 594.28,-74.31 590.92,-84.36 597.92,-84.26"/>
</a>
</g>
</g>
<!-- Node13 -->
<g id="Node000013" class="node">
<title>Node13</title>
<g id="a_Node000013"><a xlink:title=" ">
<polygon fill="#e0e0e0" stroke="#999999" points="637.5,-19 539.5,-19 539.5,0 637.5,0 637.5,-19"/>
<text text-anchor="middle" x="588.5" y="-7" font-family="Helvetica,sans-Serif" font-size="10.00">clang/AST/Decl.h</text>
</a>
</g>
</g>
<!-- Node1&#45;&gt;Node13 -->
<g id="edge21_Node000001_Node000013" class="edge">
<title>Node1&#45;&gt;Node13</title>
<g id="a_edge21_Node000001_Node000013"><a xlink:title=" ">
<path fill="none" stroke="#63b8ff" d="M777.28,-241.95C734.3,-234.79 683.2,-222.99 669.5,-206 627.34,-153.72 697.89,-112.69 663.5,-55 654.85,-40.49 639.5,-30.18 624.92,-23.16"/>
<polygon fill="#63b8ff" stroke="#63b8ff" points="626.1,-19.85 615.54,-19.01 623.27,-26.25 626.1,-19.85"/>
</a>
</g>
</g>
<!-- Node15 -->
<g id="Node000015" class="node">
<title>Node15</title>
<g id="a_Node000015"><a xlink:title=" ">
<polygon fill="#e0e0e0" stroke="#999999" points="746.5,-200.5 678.5,-200.5 678.5,-181.5 746.5,-181.5 746.5,-200.5"/>
<text text-anchor="middle" x="712.5" y="-188.5" font-family="Helvetica,sans-Serif" font-size="10.00">filesystem</text>
</a>
</g>
</g>
<!-- Node1&#45;&gt;Node15 -->
<g id="edge18_Node000001_Node000015" class="edge">
<title>Node1&#45;&gt;Node15</title>
<g id="a_edge18_Node000001_Node000015"><a xlink:title=" ">
<path fill="none" stroke="#63b8ff" d="M822.74,-241.99C801.15,-232.2 765.47,-216.02 740.57,-204.73"/>
<polygon fill="#63b8ff" stroke="#63b8ff" points="741.83,-201.46 731.28,-200.52 738.94,-207.83 741.83,-201.46"/>
</a>
</g>
</g>
<!-- Node16 -->
<g id="Node000016" class="node">
<title>Node16</title>
<g id="a_Node000016"><a xlink:title=" ">
<polygon fill="#e0e0e0" stroke="#999999" points="824.5,-200.5 764.5,-200.5 764.5,-181.5 824.5,-181.5 824.5,-200.5"/>
<text text-anchor="middle" x="794.5" y="-188.5" font-family="Helvetica,sans-Serif" font-size="10.00">iostream</text>
</a>
</g>
</g>
<!-- Node1&#45;&gt;Node16 -->
<g id="edge19_Node000001_Node000016" class="edge">
<title>Node1&#45;&gt;Node16</title>
<g id="a_edge19_Node000001_Node000016"><a xlink:title=" ">
<path fill="none" stroke="#63b8ff" d="M834.56,-241.87C827.55,-233.14 816.54,-219.43 807.83,-208.59"/>
<polygon fill="#63b8ff" stroke="#63b8ff" points="810.46,-206.27 801.46,-200.67 805,-210.66 810.46,-206.27"/>
</a>
</g>
</g>
<!-- Node17 -->
<g id="Node000017" class="node">
<title>Node17</title>
<g id="a_Node000017"><a xlink:title=" ">
<polygon fill="#e0e0e0" stroke="#999999" points="936,-200.5 843,-200.5 843,-181.5 936,-181.5 936,-200.5"/>
<text text-anchor="middle" x="889.5" y="-188.5" font-family="Helvetica,sans-Serif" font-size="10.00">spdlog/spdlog.h</text>
</a>
</g>
</g>
<!-- Node1&#45;&gt;Node17 -->
<g id="edge20_Node000001_Node000017" class="edge">
<title>Node1&#45;&gt;Node17</title>
<g id="a_edge20_Node000001_Node000017"><a xlink:title=" ">
<path fill="none" stroke="#63b8ff" d="M848.58,-241.87C855.74,-233.14 866.99,-219.43 875.89,-208.59"/>
<polygon fill="#63b8ff" stroke="#63b8ff" points="878.75,-210.62 882.39,-200.67 873.34,-206.18 878.75,-210.62"/>
</a>
</g>
</g>
<!-- Node18 -->
<g id="Node000018" class="node">
<title>Node18</title>
<g id="a_Node000018"><a xlink:title=" ">
<polygon fill="#e0e0e0" stroke="#999999" points="1097,-200.5 954,-200.5 954,-181.5 1097,-181.5 1097,-200.5"/>
<text text-anchor="middle" x="1025.5" y="-188.5" font-family="Helvetica,sans-Serif" font-size="10.00">clang/AST/DeclTemplate.h</text>
</a>
</g>
</g>
<!-- Node1&#45;&gt;Node18 -->
<g id="edge23_Node000001_Node000018" class="edge">
<title>Node1&#45;&gt;Node18</title>
<g id="a_edge23_Node000001_Node000018"><a xlink:title=" ">
<path fill="none" stroke="#63b8ff" d="M868.26,-241.99C900.14,-231.86 953.57,-214.87 989.18,-203.55"/>
<polygon fill="#63b8ff" stroke="#63b8ff" points="990.24,-206.88 998.71,-200.52 988.12,-200.21 990.24,-206.88"/>
</a>
</g>
</g>
<!-- Node19 -->
<g id="Node000019" class="node">
<title>Node19</title>
<g id="a_Node000019"><a xlink:title=" ">
<polygon fill="#e0e0e0" stroke="#999999" points="1266,-200.5 1115,-200.5 1115,-181.5 1266,-181.5 1266,-200.5"/>
<text text-anchor="middle" x="1190.5" y="-188.5" font-family="Helvetica,sans-Serif" font-size="10.00">clang/AST/TemplateName.h</text>
</a>
</g>
</g>
<!-- Node1&#45;&gt;Node19 -->
<g id="edge24_Node000001_Node000019" class="edge">
<title>Node1&#45;&gt;Node19</title>
<g id="a_edge24_Node000001_Node000019"><a xlink:title=" ">
<path fill="none" stroke="#63b8ff" d="M892.25,-241.99C955.18,-231.44 1062.37,-213.48 1129.66,-202.2"/>
<polygon fill="#63b8ff" stroke="#63b8ff" points="1130.41,-205.62 1139.69,-200.52 1129.25,-198.72 1130.41,-205.62"/>
</a>
</g>
</g>
<!-- Node20 -->
<g id="Node000020" class="node">
<title>Node20</title>
<g id="a_Node000020"><a xlink:title=" ">
<polygon fill="#e0e0e0" stroke="#999999" points="1469,-200.5 1284,-200.5 1284,-181.5 1469,-181.5 1469,-200.5"/>
<text text-anchor="middle" x="1376.5" y="-188.5" font-family="Helvetica,sans-Serif" font-size="10.00">clang/ASTMatchers/ASTMatchers.h</text>
</a>
</g>
</g>
<!-- Node1&#45;&gt;Node20 -->
<g id="edge25_Node000001_Node000020" class="edge">
<title>Node1&#45;&gt;Node20</title>
<g id="a_edge25_Node000001_Node000020"><a xlink:title=" ">
<path fill="none" stroke="#63b8ff" d="M933.89,-241.99C1021.82,-233.66 1157.82,-220.19 1275.5,-206 1285.82,-204.76 1296.72,-203.35 1307.4,-201.91"/>
<polygon fill="#63b8ff" stroke="#63b8ff" points="1308.09,-205.35 1317.53,-200.53 1307.15,-198.41 1308.09,-205.35"/>
</a>
</g>
</g>
<!-- Node21 -->
<g id="Node000021" class="node">
<title>Node21</title>
<g id="a_Node000021"><a xlink:title=" ">
<polygon fill="#e0e0e0" stroke="#999999" points="1596,-206 1487,-206 1487,-176 1596,-176 1596,-206"/>
<text text-anchor="start" x="1495" y="-194" font-family="Helvetica,sans-Serif" font-size="10.00">clang/Rewrite/Core</text>
<text text-anchor="middle" x="1541.5" y="-183" font-family="Helvetica,sans-Serif" font-size="10.00">/Rewriter.h</text>
</a>
</g>
</g>
<!-- Node1&#45;&gt;Node21 -->
<g id="edge26_Node000001_Node000021" class="edge">
<title>Node1&#45;&gt;Node21</title>
<g id="a_edge26_Node000001_Node000021"><a xlink:title=" ">
<path fill="none" stroke="#63b8ff" d="M938.02,-248.23C1061.15,-244.32 1280.71,-233.99 1477.03,-206.07"/>
<polygon fill="#63b8ff" stroke="#63b8ff" points="1477.56,-209.53 1486.96,-204.64 1476.56,-202.6 1477.56,-209.53"/>
</a>
</g>
</g>
<!-- Node22 -->
<g id="Node000022" class="node">
<title>Node22</title>
<g id="a_Node000022"><a xlink:title=" ">
<polygon fill="#e0e0e0" stroke="#999999" points="1713,-200.5 1614,-200.5 1614,-181.5 1713,-181.5 1713,-200.5"/>
<text text-anchor="middle" x="1663.5" y="-188.5" font-family="Helvetica,sans-Serif" font-size="10.00">llvm/ADT/APInt.h</text>
</a>
</g>
</g>
<!-- Node1&#45;&gt;Node22 -->
<g id="edge27_Node000001_Node000022" class="edge">
<title>Node1&#45;&gt;Node22</title>
<g id="a_edge27_Node000001_Node000022"><a xlink:title=" ">
<path fill="none" stroke="#63b8ff" d="M938.25,-250.38C1083.81,-248.97 1367.46,-241.37 1605.5,-206 1611.07,-205.17 1616.89,-204.06 1622.61,-202.83"/>
<polygon fill="#63b8ff" stroke="#63b8ff" points="1623.73,-206.17 1632.7,-200.52 1622.17,-199.34 1623.73,-206.17"/>
</a>
</g>
</g>
<!-- Node23 -->
<g id="Node000023" class="node">
<title>Node23</title>
<g id="a_Node000023"><a xlink:title=" ">
<polygon fill="#e0e0e0" stroke="#999999" points="1849.5,-200.5 1731.5,-200.5 1731.5,-181.5 1849.5,-181.5 1849.5,-200.5"/>
<text text-anchor="middle" x="1790.5" y="-188.5" font-family="Helvetica,sans-Serif" font-size="10.00">llvm/ADT/StringRef.h</text>
</a>
</g>
</g>
<!-- Node1&#45;&gt;Node23 -->
<g id="edge28_Node000001_Node000023" class="edge">
<title>Node1&#45;&gt;Node23</title>
<g id="a_edge28_Node000001_Node000023"><a xlink:title=" ">
<path fill="none" stroke="#63b8ff" d="M938.07,-250.43C1100.63,-249.23 1438.98,-242.13 1722.5,-206 1729.65,-205.09 1737.17,-203.84 1744.5,-202.46"/>
<polygon fill="#63b8ff" stroke="#63b8ff" points="1745.19,-205.89 1754.32,-200.52 1743.83,-199.02 1745.19,-205.89"/>
</a>
</g>
</g>
<!-- Node24 -->
<g id="Node000024" class="node">
<title>Node24</title>
<g id="a_Node000024"><a xlink:href="Template_8hpp.html" target="_top" xlink:title=" ">
<polygon fill="white" stroke="#666666" points="470,-200.5 387,-200.5 387,-181.5 470,-181.5 470,-200.5"/>
<text text-anchor="middle" x="428.5" y="-188.5" font-family="Helvetica,sans-Serif" font-size="10.00">Template.hpp</text>
</a>
</g>
</g>
<!-- Node1&#45;&gt;Node24 -->
<g id="edge30_Node000001_Node000024" class="edge">
<title>Node1&#45;&gt;Node24</title>
<g id="a_edge30_Node000001_Node000024"><a xlink:title=" ">
<path fill="none" stroke="#63b8ff" d="M781.45,-241.99C700.36,-230.51 557.2,-210.23 480.49,-199.36"/>
<polygon fill="#63b8ff" stroke="#63b8ff" points="480.51,-195.83 470.12,-197.9 479.53,-202.76 480.51,-195.83"/>
</a>
</g>
</g>
<!-- Node3 -->
<g id="Node000003" class="node">
<title>Node3</title>
<g id="a_Node000003"><a xlink:title=" ">
<polygon fill="#e0e0e0" stroke="#999999" points="62,-74 15,-74 15,-55 62,-55 62,-74"/>
<text text-anchor="middle" x="38.5" y="-62" font-family="Helvetica,sans-Serif" font-size="10.00">vector</text>
</a>
</g>
</g>
<!-- Node2&#45;&gt;Node3 -->
<g id="edge2_Node000002_Node000003" class="edge">
<title>Node2&#45;&gt;Node3</title>
<g id="a_edge2_Node000002_Node000003"><a xlink:title=" ">
<path fill="none" stroke="#63b8ff" d="M196.89,-181.23C195.28,-164.94 189.57,-129.89 169.5,-110 155.58,-96.21 106.21,-81.93 72.22,-73.38"/>
<polygon fill="#63b8ff" stroke="#63b8ff" points="72.77,-69.91 62.22,-70.91 71.09,-76.7 72.77,-69.91"/>
</a>
</g>
</g>
<!-- Node4 -->
<g id="Node000004" class="node">
<title>Node4</title>
<g id="a_Node000004"><a xlink:title=" ">
<polygon fill="#e0e0e0" stroke="#999999" points="161,-140 0,-140 0,-110 161,-110 161,-140"/>
<text text-anchor="start" x="8" y="-128" font-family="Helvetica,sans-Serif" font-size="10.00">clang/ASTMatchers/ASTMatch</text>
<text text-anchor="middle" x="80.5" y="-117" font-family="Helvetica,sans-Serif" font-size="10.00">Finder.h</text>
</a>
</g>
</g>
<!-- Node2&#45;&gt;Node4 -->
<g id="edge3_Node000002_Node000004" class="edge">
<title>Node2&#45;&gt;Node4</title>
<g id="a_edge3_Node000002_Node000004"><a xlink:title=" ">
<path fill="none" stroke="#63b8ff" d="M181.72,-181.37C164.8,-172.11 137.4,-157.12 115.37,-145.07"/>
<polygon fill="#63b8ff" stroke="#63b8ff" points="116.76,-141.84 106.31,-140.12 113.4,-147.99 116.76,-141.84"/>
</a>
</g>
</g>
<!-- Node2&#45;&gt;Node5 -->
<g id="edge4_Node000002_Node000005" class="edge">
<title>Node2&#45;&gt;Node5</title>
<g id="a_edge4_Node000002_Node000005"><a xlink:title=" ">
<path fill="none" stroke="#63b8ff" d="M210.72,-181.37C226.86,-170.82 254.41,-152.84 273.71,-140.23"/>
<polygon fill="#63b8ff" stroke="#63b8ff" points="275.72,-143.1 282.18,-134.7 271.89,-137.24 275.72,-143.1"/>
</a>
</g>
</g>
<!-- Node5&#45;&gt;Node3 -->
<g id="edge6_Node000005_Node000003" class="edge">
<title>Node5&#45;&gt;Node3</title>
<g id="a_edge6_Node000005_Node000003"><a xlink:title=" ">
<path fill="none" stroke="#63b8ff" d="M263.28,-115.43C256.13,-113.59 248.57,-111.69 241.5,-110 168.49,-92.58 149.79,-90.19 76.5,-74 75.06,-73.68 73.58,-73.35 72.09,-73.02"/>
<polygon fill="#63b8ff" stroke="#63b8ff" points="72.73,-69.58 62.21,-70.82 71.21,-76.41 72.73,-69.58"/>
</a>
</g>
</g>
<!-- Node6 -->
<g id="Node000006" class="node">
<title>Node6</title>
<g id="a_Node000006"><a xlink:title=" ">
<polygon fill="#e0e0e0" stroke="#999999" points="423.5,-19 379.5,-19 379.5,0 423.5,0 423.5,-19"/>
<text text-anchor="middle" x="401.5" y="-7" font-family="Helvetica,sans-Serif" font-size="10.00">string</text>
</a>
</g>
</g>
<!-- Node5&#45;&gt;Node6 -->
<g id="edge5_Node000005_Node000006" class="edge">
<title>Node5&#45;&gt;Node6</title>
<g id="a_edge5_Node000005_Node000006"><a xlink:title=" ">
<path fill="none" stroke="#63b8ff" d="M303.47,-115.47C321.12,-96.57 363.74,-50.93 386.54,-26.52"/>
<polygon fill="#63b8ff" stroke="#63b8ff" points="389.17,-28.83 393.44,-19.13 384.06,-24.05 389.17,-28.83"/>
</a>
</g>
</g>
<!-- Node7 -->
<g id="Node000007" class="node">
<title>Node7</title>
<g id="a_Node000007"><a xlink:title=" ">
<polygon fill="#e0e0e0" stroke="#999999" points="121,-19 52,-19 52,0 121,0 121,-19"/>
<text text-anchor="middle" x="86.5" y="-7" font-family="Helvetica,sans-Serif" font-size="10.00">fmt/color.h</text>
</a>
</g>
</g>
<!-- Node5&#45;&gt;Node7 -->
<g id="edge7_Node000005_Node000007" class="edge">
<title>Node5&#45;&gt;Node7</title>
<g id="a_edge7_Node000005_Node000007"><a xlink:title=" ">
<path fill="none" stroke="#63b8ff" d="M265.93,-115.49C223.74,-103.21 150.17,-81.19 139.5,-74 121.52,-61.89 106.32,-41.99 96.87,-27.69"/>
<polygon fill="#63b8ff" stroke="#63b8ff" points="99.83,-25.82 91.52,-19.24 93.91,-29.56 99.83,-25.82"/>
</a>
</g>
</g>
<!-- Node8 -->
<g id="Node000008" class="node">
<title>Node8</title>
<g id="a_Node000008"><a xlink:title=" ">
<polygon fill="#e0e0e0" stroke="#999999" points="206,-19 139,-19 139,0 206,0 206,-19"/>
<text text-anchor="middle" x="172.5" y="-7" font-family="Helvetica,sans-Serif" font-size="10.00">fmt/core.h</text>
</a>
</g>
</g>
<!-- Node5&#45;&gt;Node8 -->
<g id="edge8_Node000005_Node000008" class="edge">
<title>Node5&#45;&gt;Node8</title>
<g id="a_edge8_Node000005_Node000008"><a xlink:title=" ">
<path fill="none" stroke="#63b8ff" d="M263.92,-115.44C222.57,-103.92 154.5,-83.75 147.5,-74 137.3,-59.79 147.18,-40.84 157.38,-27.36"/>
<polygon fill="#63b8ff" stroke="#63b8ff" points="160.28,-29.34 163.91,-19.39 154.86,-24.9 160.28,-29.34"/>
</a>
</g>
</g>
<!-- Node9 -->
<g id="Node000009" class="node">
<title>Node9</title>
<g id="a_Node000009"><a xlink:title=" ">
<polygon fill="#e0e0e0" stroke="#999999" points="236,-74 157,-74 157,-55 236,-55 236,-74"/>
<text text-anchor="middle" x="196.5" y="-62" font-family="Helvetica,sans-Serif" font-size="10.00">fmt/ranges.h</text>
</a>
</g>
</g>
<!-- Node5&#45;&gt;Node9 -->
<g id="edge9_Node000005_Node000009" class="edge">
<title>Node5&#45;&gt;Node9</title>
<g id="a_edge9_Node000005_Node000009"><a xlink:title=" ">
<path fill="none" stroke="#63b8ff" d="M280.89,-115.37C264.81,-105.86 238.72,-90.45 219.8,-79.27"/>
<polygon fill="#63b8ff" stroke="#63b8ff" points="221.56,-76.24 211.17,-74.17 218,-82.27 221.56,-76.24"/>
</a>
</g>
</g>
<!-- Node5&#45;&gt;Node10 -->
<g id="edge10_Node000005_Node000010" class="edge">
<title>Node5&#45;&gt;Node10</title>
<g id="a_edge10_Node000005_Node000010"><a xlink:title=" ">
<path fill="none" stroke="#63b8ff" d="M335.51,-116.17C388.46,-105.81 481.98,-87.52 540.97,-75.97"/>
<polygon fill="#63b8ff" stroke="#63b8ff" points="541.7,-79.4 550.84,-74.04 540.36,-72.53 541.7,-79.4"/>
</a>
</g>
</g>
<!-- Node11 -->
<g id="Node000011" class="node">
<title>Node11</title>
<g id="a_Node000011"><a xlink:title=" ">
<polygon fill="#e0e0e0" stroke="#999999" points="478,-74 379,-74 379,-55 478,-55 478,-74"/>
<text text-anchor="middle" x="428.5" y="-62" font-family="Helvetica,sans-Serif" font-size="10.00">clang/AST/Type.h</text>
</a>
</g>
</g>
<!-- Node5&#45;&gt;Node11 -->
<g id="edge11_Node000005_Node000011" class="edge">
<title>Node5&#45;&gt;Node11</title>
<g id="a_edge11_Node000005_Node000011"><a xlink:title=" ">
<path fill="none" stroke="#63b8ff" d="M314.84,-115.49C337.2,-105.66 374.21,-89.38 399.9,-78.08"/>
<polygon fill="#63b8ff" stroke="#63b8ff" points="401.39,-81.25 409.14,-74.02 398.57,-74.84 401.39,-81.25"/>
</a>
</g>
</g>
<!-- Node12 -->
<g id="Node000012" class="node">
<title>Node12</title>
<g id="a_Node000012"><a xlink:href="Param_8hpp.html" target="_top" xlink:title=" ">
<polygon fill="white" stroke="#666666" points="322.5,-74 254.5,-74 254.5,-55 322.5,-55 322.5,-74"/>
<text text-anchor="middle" x="288.5" y="-62" font-family="Helvetica,sans-Serif" font-size="10.00">Param.hpp</text>
</a>
</g>
</g>
<!-- Node5&#45;&gt;Node12 -->
<g id="edge12_Node000005_Node000012" class="edge">
<title>Node5&#45;&gt;Node12</title>
<g id="a_edge12_Node000005_Node000012"><a xlink:title=" ">
<path fill="none" stroke="#63b8ff" d="M294.47,-115.37C293.5,-107.25 292.01,-94.81 290.76,-84.39"/>
<polygon fill="#63b8ff" stroke="#63b8ff" points="294.2,-83.68 289.54,-74.17 287.25,-84.51 294.2,-83.68"/>
</a>
</g>
</g>
<!-- Node12&#45;&gt;Node6 -->
<g id="edge13_Node000012_Node000006" class="edge">
<title>Node12&#45;&gt;Node6</title>
<g id="a_edge13_Node000012_Node000006"><a xlink:title=" ">
<path fill="none" stroke="#63b8ff" d="M306.66,-54.98C324.75,-46.5 352.78,-33.35 373.69,-23.54"/>
<polygon fill="#63b8ff" stroke="#63b8ff" points="375.45,-26.59 383.01,-19.17 372.47,-20.25 375.45,-26.59"/>
</a>
</g>
</g>
<!-- Node12&#45;&gt;Node7 -->
<g id="edge14_Node000012_Node000007" class="edge">
<title>Node12&#45;&gt;Node7</title>
<g id="a_edge14_Node000012_Node000007"><a xlink:title=" ">
<path fill="none" stroke="#63b8ff" d="M256.05,-54.98C221.54,-45.93 166.84,-31.58 128.94,-21.64"/>
<polygon fill="#63b8ff" stroke="#63b8ff" points="129.77,-18.23 119.21,-19.08 127.99,-25.01 129.77,-18.23"/>
</a>
</g>
</g>
<!-- Node12&#45;&gt;Node8 -->
<g id="edge15_Node000012_Node000008" class="edge">
<title>Node12&#45;&gt;Node8</title>
<g id="a_edge15_Node000012_Node000008"><a xlink:title=" ">
<path fill="none" stroke="#63b8ff" d="M269.86,-54.98C251.2,-46.46 222.25,-33.23 200.76,-23.41"/>
<polygon fill="#63b8ff" stroke="#63b8ff" points="202.03,-20.14 191.48,-19.17 199.12,-26.51 202.03,-20.14"/>
</a>
</g>
</g>
<!-- Node12&#45;&gt;Node13 -->
<g id="edge16_Node000012_Node000013" class="edge">
<title>Node12&#45;&gt;Node13</title>
<g id="a_edge16_Node000012_Node000013"><a xlink:title=" ">
<path fill="none" stroke="#63b8ff" d="M322.62,-57.47C373.17,-48.54 468.62,-31.68 530.34,-20.77"/>
<polygon fill="#63b8ff" stroke="#63b8ff" points="531.09,-24.2 540.33,-19.01 529.87,-17.3 531.09,-24.2"/>
</a>
</g>
</g>
<!-- Node14 -->
<g id="Node000014" class="node">
<title>Node14</title>
<g id="a_Node000014"><a xlink:title=" ">
<polygon fill="#e0e0e0" stroke="#999999" points="361,-19 224,-19 224,0 361,0 361,-19"/>
<text text-anchor="middle" x="292.5" y="-7" font-family="Helvetica,sans-Serif" font-size="10.00">clang/AST/PrettyPrinter.h</text>
</a>
</g>
</g>
<!-- Node12&#45;&gt;Node14 -->
<g id="edge17_Node000012_Node000014" class="edge">
<title>Node12&#45;&gt;Node14</title>
<g id="a_edge17_Node000012_Node000014"><a xlink:title=" ">
<path fill="none" stroke="#63b8ff" d="M289.16,-54.75C289.68,-47.8 290.44,-37.85 291.09,-29.13"/>
<polygon fill="#63b8ff" stroke="#63b8ff" points="294.59,-29.32 291.85,-19.09 287.61,-28.8 294.59,-29.32"/>
</a>
</g>
</g>
<!-- Node24&#45;&gt;Node3 -->
<g id="edge32_Node000024_Node000003" class="edge">
<title>Node24&#45;&gt;Node3</title>
<g id="a_edge32_Node000024_Node000003"><a xlink:title=" ">
<path fill="none" stroke="#63b8ff" d="M386.73,-181.52C349.23,-173.2 293.07,-159.01 246.5,-140 221.08,-129.62 217.85,-120.54 192.5,-110 152.33,-93.29 103.79,-80.39 72.09,-72.89"/>
<polygon fill="#63b8ff" stroke="#63b8ff" points="72.55,-69.4 62.02,-70.55 70.97,-76.22 72.55,-69.4"/>
</a>
</g>
</g>
<!-- Node24&#45;&gt;Node5 -->
<g id="edge35_Node000024_Node000005" class="edge">
<title>Node24&#45;&gt;Node5</title>
<g id="a_edge35_Node000024_Node000005"><a xlink:title=" ">
<path fill="none" stroke="#63b8ff" d="M410.56,-181.37C387.96,-170.49 348.88,-151.69 322.62,-139.05"/>
<polygon fill="#63b8ff" stroke="#63b8ff" points="324.11,-135.88 313.58,-134.7 321.07,-142.19 324.11,-135.88"/>
</a>
</g>
</g>
<!-- Node24&#45;&gt;Node6 -->
<g id="edge31_Node000024_Node000006" class="edge">
<title>Node24&#45;&gt;Node6</title>
<g id="a_edge31_Node000024_Node000006"><a xlink:title=" ">
<path fill="none" stroke="#63b8ff" d="M437.71,-181.39C460.1,-159.39 513.58,-99.74 486.5,-55 475.02,-36.04 452.51,-24.76 433.53,-18.31"/>
<polygon fill="#63b8ff" stroke="#63b8ff" points="434.32,-14.89 423.73,-15.28 432.25,-21.58 434.32,-14.89"/>
</a>
</g>
</g>
<!-- Node24&#45;&gt;Node10 -->
<g id="edge33_Node000024_Node000010" class="edge">
<title>Node24&#45;&gt;Node10</title>
<g id="a_edge33_Node000024_Node000010"><a xlink:title=" ">
<path fill="none" stroke="#63b8ff" d="M448.15,-181.37C467.48,-172.43 497.37,-157.34 520.5,-140 543.64,-122.65 566.51,-98.2 580.57,-82.11"/>
<polygon fill="#63b8ff" stroke="#63b8ff" points="583.56,-83.99 587.41,-74.13 578.25,-79.44 583.56,-83.99"/>
</a>
</g>
</g>
<!-- Node24&#45;&gt;Node11 -->
<g id="edge34_Node000024_Node000011" class="edge">
<title>Node24&#45;&gt;Node11</title>
<g id="a_edge34_Node000024_Node000011"><a xlink:title=" ">
<path fill="none" stroke="#63b8ff" d="M428.5,-181.44C428.5,-161.54 428.5,-111.76 428.5,-84.35"/>
<polygon fill="#63b8ff" stroke="#63b8ff" points="432,-84.12 428.5,-74.12 425,-84.12 432,-84.12"/>
</a>
</g>
</g>
<!-- Node24&#45;&gt;Node12 -->
<g id="edge36_Node000024_Node000012" class="edge">
<title>Node24&#45;&gt;Node12</title>
<g id="a_edge36_Node000024_Node000012"><a xlink:title=" ">
<path fill="none" stroke="#63b8ff" d="M419.91,-181.33C404.97,-166.35 373.06,-134.86 344.5,-110 332.67,-99.71 318.89,-88.74 307.96,-80.27"/>
<polygon fill="#63b8ff" stroke="#63b8ff" points="309.96,-77.39 299.9,-74.08 305.69,-82.95 309.96,-77.39"/>
</a>
</g>
</g>
</g>
</svg>
