<?xml version="1.0" encoding="UTF-8" standalone="no"?>
<!DOCTYPE svg PUBLIC "-//W3C//DTD SVG 1.1//EN"
 "http://www.w3.org/Graphics/SVG/1.1/DTD/svg11.dtd">
<!-- Generated by graphviz version 2.43.0 (0)
 -->
<!-- Title: include/Callbacks/InjectInstantiation.hpp Pages: 1 -->
<svg width="823pt" height="214pt"
 viewBox="0.00 0.00 822.50 214.00" xmlns="http://www.w3.org/2000/svg" xmlns:xlink="http://www.w3.org/1999/xlink">
<g id="graph0" class="graph" transform="scale(1 1) rotate(0) translate(4 210)">
<title>include/Callbacks/InjectInstantiation.hpp</title>
<!-- Node1 -->
<g id="Node000001" class="node">
<title>Node1</title>
<g id="a_Node000001"><a xlink:title=" ">
<polygon fill="#999999" stroke="#666666" points="416.5,-206 284.5,-206 284.5,-176 416.5,-176 416.5,-206"/>
<text text-anchor="start" x="292.5" y="-194" font-family="Helvetica,sans-Serif" font-size="10.00">include/Callbacks/Inject</text>
<text text-anchor="middle" x="350.5" y="-183" font-family="Helvetica,sans-Serif" font-size="10.00">Instantiation.hpp</text>
</a>
</g>
</g>
<!-- Node2 -->
<g id="Node000002" class="node">
<title>Node2</title>
<g id="a_Node000002"><a xlink:title=" ">
<polygon fill="#e0e0e0" stroke="#999999" points="47,-74 0,-74 0,-55 47,-55 47,-74"/>
<text text-anchor="middle" x="23.5" y="-62" font-family="Helvetica,sans-Serif" font-size="10.00">vector</text>
</a>
</g>
</g>
<!-- Node1&#45;&gt;Node2 -->
<g id="edge1_Node000001_Node000002" class="edge">
<title>Node1&#45;&gt;Node2</title>
<g id="a_edge1_Node000001_Node000002"><a xlink:title=" ">
<path fill="none" stroke="#63b8ff" d="M313.62,-175.96C249.07,-151.38 116.66,-100.97 55.62,-77.73"/>
<polygon fill="#63b8ff" stroke="#63b8ff" points="56.7,-74.4 46.11,-74.11 54.21,-80.94 56.7,-74.4"/>
</a>
</g>
</g>
<!-- Node3 -->
<g id="Node000003" class="node">
<title>Node3</title>
<g id="a_Node000003"><a xlink:title=" ">
<polygon fill="#e0e0e0" stroke="#999999" points="570,-140 409,-140 409,-110 570,-110 570,-140"/>
<text text-anchor="start" x="417" y="-128" font-family="Helvetica,sans-Serif" font-size="10.00">clang/ASTMatchers/ASTMatch</text>
<text text-anchor="middle" x="489.5" y="-117" font-family="Helvetica,sans-Serif" font-size="10.00">Finder.h</text>
</a>
</g>
</g>
<!-- Node1&#45;&gt;Node3 -->
<g id="edge2_Node000001_Node000003" class="edge">
<title>Node1&#45;&gt;Node3</title>
<g id="a_edge2_Node000001_Node000003"><a xlink:title=" ">
<path fill="none" stroke="#63b8ff" d="M381,-175.95C401.19,-166.66 427.87,-154.38 449.72,-144.32"/>
<polygon fill="#63b8ff" stroke="#63b8ff" points="451.45,-147.37 459.07,-140.01 448.52,-141.02 451.45,-147.37"/>
</a>
</g>
</g>
<!-- Node4 -->
<g id="Node000004" class="node">
<title>Node4</title>
<g id="a_Node000004"><a xlink:href="Injection_8hpp.html" target="_top" xlink:title=" ">
<polygon fill="white" stroke="#666666" points="390.5,-134.5 310.5,-134.5 310.5,-115.5 390.5,-115.5 390.5,-134.5"/>
<text text-anchor="middle" x="350.5" y="-122.5" font-family="Helvetica,sans-Serif" font-size="10.00">Injection.hpp</text>
</a>
</g>
</g>
<!-- Node1&#45;&gt;Node4 -->
<g id="edge3_Node000001_Node000004" class="edge">
<title>Node1&#45;&gt;Node4</title>
<g id="a_edge3_Node000001_Node000004"><a xlink:title=" ">
<path fill="none" stroke="#63b8ff" d="M350.5,-175.8C350.5,-166.7 350.5,-154.79 350.5,-144.9"/>
<polygon fill="#63b8ff" stroke="#63b8ff" points="354,-144.84 350.5,-134.84 347,-144.84 354,-144.84"/>
</a>
</g>
</g>
<!-- Node4&#45;&gt;Node2 -->
<g id="edge5_Node000004_Node000002" class="edge">
<title>Node4&#45;&gt;Node2</title>
<g id="a_edge5_Node000004_Node000002"><a xlink:title=" ">
<path fill="none" stroke="#63b8ff" d="M310.18,-117.66C254.22,-108.72 149.91,-91.52 61.5,-74 60.05,-73.71 58.57,-73.41 57.08,-73.1"/>
<polygon fill="#63b8ff" stroke="#63b8ff" points="57.69,-69.66 47.18,-70.98 56.22,-76.5 57.69,-69.66"/>
</a>
</g>
</g>
<!-- Node5 -->
<g id="Node000005" class="node">
<title>Node5</title>
<g id="a_Node000005"><a xlink:title=" ">
<polygon fill="#e0e0e0" stroke="#999999" points="698.5,-19 654.5,-19 654.5,0 698.5,0 698.5,-19"/>
<text text-anchor="middle" x="676.5" y="-7" font-family="Helvetica,sans-Serif" font-size="10.00">string</text>
</a>
</g>
</g>
<!-- Node4&#45;&gt;Node5 -->
<g id="edge4_Node000004_Node000005" class="edge">
<title>Node4&#45;&gt;Node5</title>
<g id="a_edge4_Node000004_Node000005"><a xlink:title=" ">
<path fill="none" stroke="#63b8ff" d="M377.82,-115.5C385.13,-113.46 393.07,-111.45 400.5,-110 470.52,-96.34 671.97,-127.2 719.5,-74 733.17,-58.7 714.79,-38.8 698,-25.39"/>
<polygon fill="#63b8ff" stroke="#63b8ff" points="699.64,-22.24 689.54,-19.03 695.43,-27.84 699.64,-22.24"/>
</a>
</g>
</g>
<!-- Node6 -->
<g id="Node000006" class="node">
<title>Node6</title>
<g id="a_Node000006"><a xlink:title=" ">
<polygon fill="#e0e0e0" stroke="#999999" points="157,-19 88,-19 88,0 157,0 157,-19"/>
<text text-anchor="middle" x="122.5" y="-7" font-family="Helvetica,sans-Serif" font-size="10.00">fmt/color.h</text>
</a>
</g>
</g>
<!-- Node4&#45;&gt;Node6 -->
<g id="edge6_Node000004_Node000006" class="edge">
<title>Node4&#45;&gt;Node6</title>
<g id="a_edge6_Node000004_Node000006"><a xlink:title=" ">
<path fill="none" stroke="#63b8ff" d="M310.41,-118.98C241.86,-110 108.14,-90.56 94.5,-74 82.96,-59.98 94.71,-40.46 106.33,-26.77"/>
<polygon fill="#63b8ff" stroke="#63b8ff" points="109.18,-28.85 113.34,-19.11 104.01,-24.13 109.18,-28.85"/>
</a>
</g>
</g>
<!-- Node7 -->
<g id="Node000007" class="node">
<title>Node7</title>
<g id="a_Node000007"><a xlink:title=" ">
<polygon fill="#e0e0e0" stroke="#999999" points="481,-19 414,-19 414,0 481,0 481,-19"/>
<text text-anchor="middle" x="447.5" y="-7" font-family="Helvetica,sans-Serif" font-size="10.00">fmt/core.h</text>
</a>
</g>
</g>
<!-- Node4&#45;&gt;Node7 -->
<g id="edge7_Node000004_Node000007" class="edge">
<title>Node4&#45;&gt;Node7</title>
<g id="a_edge7_Node000004_Node000007"><a xlink:title=" ">
<path fill="none" stroke="#63b8ff" d="M379.21,-115.48C386.15,-113.56 393.56,-111.61 400.5,-110 443.43,-100.05 567.31,-107.87 595.5,-74 600.9,-67.51 600.54,-61.78 595.5,-55 589.07,-46.35 532.36,-31.02 491.05,-20.8"/>
<polygon fill="#63b8ff" stroke="#63b8ff" points="491.73,-17.37 481.18,-18.39 490.06,-24.17 491.73,-17.37"/>
</a>
</g>
</g>
<!-- Node8 -->
<g id="Node000008" class="node">
<title>Node8</title>
<g id="a_Node000008"><a xlink:title=" ">
<polygon fill="#e0e0e0" stroke="#999999" points="332,-74 253,-74 253,-55 332,-55 332,-74"/>
<text text-anchor="middle" x="292.5" y="-62" font-family="Helvetica,sans-Serif" font-size="10.00">fmt/ranges.h</text>
</a>
</g>
</g>
<!-- Node4&#45;&gt;Node8 -->
<g id="edge8_Node000004_Node000008" class="edge">
<title>Node4&#45;&gt;Node8</title>
<g id="a_edge8_Node000004_Node000008"><a xlink:title=" ">
<path fill="none" stroke="#63b8ff" d="M341.94,-115.37C333.12,-106.47 319.16,-92.39 308.32,-81.45"/>
<polygon fill="#63b8ff" stroke="#63b8ff" points="310.62,-78.8 301.09,-74.17 305.65,-83.73 310.62,-78.8"/>
</a>
</g>
</g>
<!-- Node9 -->
<g id="Node000009" class="node">
<title>Node9</title>
<g id="a_Node000009"><a xlink:title=" ">
<polygon fill="#e0e0e0" stroke="#999999" points="469,-74 350,-74 350,-55 469,-55 469,-74"/>
<text text-anchor="middle" x="409.5" y="-62" font-family="Helvetica,sans-Serif" font-size="10.00">clang/AST/DeclCXX.h</text>
</a>
</g>
</g>
<!-- Node4&#45;&gt;Node9 -->
<g id="edge9_Node000004_Node000009" class="edge">
<title>Node4&#45;&gt;Node9</title>
<g id="a_edge9_Node000004_Node000009"><a xlink:title=" ">
<path fill="none" stroke="#63b8ff" d="M359.21,-115.37C368.18,-106.47 382.38,-92.39 393.41,-81.45"/>
<polygon fill="#63b8ff" stroke="#63b8ff" points="396.12,-83.69 400.76,-74.17 391.19,-78.72 396.12,-83.69"/>
</a>
</g>
</g>
<!-- Node10 -->
<g id="Node000010" class="node">
<title>Node10</title>
<g id="a_Node000010"><a xlink:title=" ">
<polygon fill="#e0e0e0" stroke="#999999" points="586,-74 487,-74 487,-55 586,-55 586,-74"/>
<text text-anchor="middle" x="536.5" y="-62" font-family="Helvetica,sans-Serif" font-size="10.00">clang/AST/Type.h</text>
</a>
</g>
</g>
<!-- Node4&#45;&gt;Node10 -->
<g id="edge10_Node000004_Node000010" class="edge">
<title>Node4&#45;&gt;Node10</title>
<g id="a_edge10_Node000004_Node000010"><a xlink:title=" ">
<path fill="none" stroke="#63b8ff" d="M377.55,-115.49C409.78,-105.36 463.79,-88.37 499.78,-77.05"/>
<polygon fill="#63b8ff" stroke="#63b8ff" points="500.93,-80.36 509.42,-74.02 498.83,-73.68 500.93,-80.36"/>
</a>
</g>
</g>
<!-- Node11 -->
<g id="Node000011" class="node">
<title>Node11</title>
<g id="a_Node000011"><a xlink:href="Param_8hpp.html" target="_top" xlink:title=" ">
<polygon fill="white" stroke="#666666" points="710.5,-74 642.5,-74 642.5,-55 710.5,-55 710.5,-74"/>
<text text-anchor="middle" x="676.5" y="-62" font-family="Helvetica,sans-Serif" font-size="10.00">Param.hpp</text>
</a>
</g>
</g>
<!-- Node4&#45;&gt;Node11 -->
<g id="edge11_Node000004_Node000011" class="edge">
<title>Node4&#45;&gt;Node11</title>
<g id="a_edge11_Node000004_Node000011"><a xlink:title=" ">
<path fill="none" stroke="#63b8ff" d="M378.65,-115.5C385.74,-113.53 393.37,-111.56 400.5,-110 500.73,-88.13 527.32,-90.94 628.5,-74 629.77,-73.79 631.05,-73.57 632.35,-73.35"/>
<polygon fill="#63b8ff" stroke="#63b8ff" points="633.16,-76.76 642.43,-71.61 631.98,-69.86 633.16,-76.76"/>
</a>
</g>
</g>
<!-- Node14 -->
<g id="Node000014" class="node">
<title>Node14</title>
<g id="a_Node000014"><a xlink:href="TemplateArgument_8hpp.html" target="_top" xlink:title=" ">
<polygon fill="white" stroke="#666666" points="235,-74 104,-74 104,-55 235,-55 235,-74"/>
<text text-anchor="middle" x="169.5" y="-62" font-family="Helvetica,sans-Serif" font-size="10.00">TemplateArgument.hpp</text>
</a>
</g>
</g>
<!-- Node4&#45;&gt;Node14 -->
<g id="edge17_Node000004_Node000014" class="edge">
<title>Node4&#45;&gt;Node14</title>
<g id="a_edge17_Node000004_Node000014"><a xlink:title=" ">
<path fill="none" stroke="#63b8ff" d="M324.18,-115.49C292.95,-105.4 240.7,-88.51 205.68,-77.19"/>
<polygon fill="#63b8ff" stroke="#63b8ff" points="206.44,-73.76 195.85,-74.02 204.29,-80.42 206.44,-73.76"/>
</a>
</g>
</g>
<!-- Node11&#45;&gt;Node5 -->
<g id="edge12_Node000011_Node000005" class="edge">
<title>Node11&#45;&gt;Node5</title>
<g id="a_edge12_Node000011_Node000005"><a xlink:title=" ">
<path fill="none" stroke="#63b8ff" d="M676.5,-54.75C676.5,-47.8 676.5,-37.85 676.5,-29.13"/>
<polygon fill="#63b8ff" stroke="#63b8ff" points="680,-29.09 676.5,-19.09 673,-29.09 680,-29.09"/>
</a>
</g>
</g>
<!-- Node11&#45;&gt;Node6 -->
<g id="edge13_Node000011_Node000006" class="edge">
<title>Node11&#45;&gt;Node6</title>
<g id="a_edge13_Node000011_Node000006"><a xlink:title=" ">
<path fill="none" stroke="#63b8ff" d="M642.23,-59.74C627.81,-58.2 610.84,-56.45 595.5,-55 408.27,-37.32 357.75,-44.91 167.1,-18.92"/>
<polygon fill="#63b8ff" stroke="#63b8ff" points="167.41,-15.43 157.03,-17.53 166.46,-22.36 167.41,-15.43"/>
</a>
</g>
</g>
<!-- Node11&#45;&gt;Node7 -->
<g id="edge14_Node000011_Node000007" class="edge">
<title>Node11&#45;&gt;Node7</title>
<g id="a_edge14_Node000011_Node000007"><a xlink:title=" ">
<path fill="none" stroke="#63b8ff" d="M642.22,-55.57C601.93,-46.24 535.03,-30.76 491.1,-20.59"/>
<polygon fill="#63b8ff" stroke="#63b8ff" points="491.8,-17.16 481.27,-18.32 490.22,-23.98 491.8,-17.16"/>
</a>
</g>
</g>
<!-- Node12 -->
<g id="Node000012" class="node">
<title>Node12</title>
<g id="a_Node000012"><a xlink:title=" ">
<polygon fill="#e0e0e0" stroke="#999999" points="814.5,-19 716.5,-19 716.5,0 814.5,0 814.5,-19"/>
<text text-anchor="middle" x="765.5" y="-7" font-family="Helvetica,sans-Serif" font-size="10.00">clang/AST/Decl.h</text>
</a>
</g>
</g>
<!-- Node11&#45;&gt;Node12 -->
<g id="edge15_Node000011_Node000012" class="edge">
<title>Node11&#45;&gt;Node12</title>
<g id="a_edge15_Node000011_Node000012"><a xlink:title=" ">
<path fill="none" stroke="#63b8ff" d="M690.8,-54.98C704.6,-46.77 725.74,-34.18 742.01,-24.49"/>
<polygon fill="#63b8ff" stroke="#63b8ff" points="744.14,-27.29 750.94,-19.17 740.56,-21.28 744.14,-27.29"/>
</a>
</g>
</g>
<!-- Node13 -->
<g id="Node000013" class="node">
<title>Node13</title>
<g id="a_Node000013"><a xlink:title=" ">
<polygon fill="#e0e0e0" stroke="#999999" points="636,-19 499,-19 499,0 636,0 636,-19"/>
<text text-anchor="middle" x="567.5" y="-7" font-family="Helvetica,sans-Serif" font-size="10.00">clang/AST/PrettyPrinter.h</text>
</a>
</g>
</g>
<!-- Node11&#45;&gt;Node13 -->
<g id="edge16_Node000011_Node000013" class="edge">
<title>Node11&#45;&gt;Node13</title>
<g id="a_edge16_Node000011_Node000013"><a xlink:title=" ">
<path fill="none" stroke="#63b8ff" d="M658.99,-54.98C641.53,-46.5 614.49,-33.35 594.33,-23.54"/>
<polygon fill="#63b8ff" stroke="#63b8ff" points="595.86,-20.4 585.33,-19.17 592.79,-26.69 595.86,-20.4"/>
</a>
</g>
</g>
<!-- Node14&#45;&gt;Node5 -->
<g id="edge19_Node000014_Node000005" class="edge">
<title>Node14&#45;&gt;Node5</title>
<g id="a_edge19_Node000014_Node000005"><a xlink:title=" ">
<path fill="none" stroke="#63b8ff" d="M235.34,-55.95C238.44,-55.62 241.5,-55.3 244.5,-55 419.31,-37.25 467.67,-50.29 644.37,-18.89"/>
<polygon fill="#63b8ff" stroke="#63b8ff" points="645.04,-22.32 654.26,-17.11 643.8,-15.44 645.04,-22.32"/>
</a>
</g>
</g>
<!-- Node14&#45;&gt;Node6 -->
<g id="edge20_Node000014_Node000006" class="edge">
<title>Node14&#45;&gt;Node6</title>
<g id="a_edge20_Node000014_Node000006"><a xlink:title=" ">
<path fill="none" stroke="#63b8ff" d="M161.74,-54.75C155.03,-47.18 145.16,-36.05 136.99,-26.84"/>
<polygon fill="#63b8ff" stroke="#63b8ff" points="139.37,-24.25 130.12,-19.09 134.13,-28.89 139.37,-24.25"/>
</a>
</g>
</g>
<!-- Node14&#45;&gt;Node7 -->
<g id="edge21_Node000014_Node000007" class="edge">
<title>Node14&#45;&gt;Node7</title>
<g id="a_edge21_Node000014_Node000007"><a xlink:title=" ">
<path fill="none" stroke="#63b8ff" d="M214.17,-54.98C266.4,-45.03 352.28,-28.65 404,-18.79"/>
<polygon fill="#63b8ff" stroke="#63b8ff" points="404.71,-22.22 413.87,-16.91 403.4,-15.35 404.71,-22.22"/>
</a>
</g>
</g>
<!-- Node14&#45;&gt;Node13 -->
<g id="edge22_Node000014_Node000013" class="edge">
<title>Node14&#45;&gt;Node13</title>
<g id="a_edge22_Node000014_Node000013"><a xlink:title=" ">
<path fill="none" stroke="#63b8ff" d="M233.45,-54.98C304.28,-45.55 418.33,-30.36 493.1,-20.41"/>
<polygon fill="#63b8ff" stroke="#63b8ff" points="493.93,-23.83 503.38,-19.04 493.01,-16.89 493.93,-23.83"/>
</a>
</g>
</g>
<!-- Node15 -->
<g id="Node000015" class="node">
<title>Node15</title>
<g id="a_Node000015"><a xlink:title=" ">
<polygon fill="#e0e0e0" stroke="#999999" points="321.5,-19 175.5,-19 175.5,0 321.5,0 321.5,-19"/>
<text text-anchor="middle" x="248.5" y="-7" font-family="Helvetica,sans-Serif" font-size="10.00">clang/AST/TemplateBase.h</text>
</a>
</g>
</g>
<!-- Node14&#45;&gt;Node15 -->
<g id="edge18_Node000014_Node000015" class="edge">
<title>Node14&#45;&gt;Node15</title>
<g id="a_edge18_Node000014_Node000015"><a xlink:title=" ">
<path fill="none" stroke="#63b8ff" d="M182.19,-54.98C194.33,-46.84 212.86,-34.41 227.25,-24.76"/>
<polygon fill="#63b8ff" stroke="#63b8ff" points="229.22,-27.65 235.58,-19.17 225.32,-21.84 229.22,-27.65"/>
</a>
</g>
</g>
</g>
</svg>
