<?xml version="1.0" encoding="UTF-8" standalone="no"?>
<!DOCTYPE svg PUBLIC "-//W3C//DTD SVG 1.1//EN"
 "http://www.w3.org/Graphics/SVG/1.1/DTD/svg11.dtd">
<!-- Generated by graphviz version 2.43.0 (0)
 -->
<!-- Title: src/Callbacks/InjectInstantiation.cpp Pages: 1 -->
<svg width="1326pt" height="269pt"
 viewBox="0.00 0.00 1326.00 269.00" xmlns="http://www.w3.org/2000/svg" xmlns:xlink="http://www.w3.org/1999/xlink">
<g id="graph0" class="graph" transform="scale(1 1) rotate(0) translate(4 265)">
<title>src/Callbacks/InjectInstantiation.cpp</title>
<!-- Node1 -->
<g id="Node000001" class="node">
<title>Node1</title>
<g id="a_Node000001"><a xlink:title=" ">
<polygon fill="#999999" stroke="#666666" points="773,-261 580,-261 580,-242 773,-242 773,-261"/>
<text text-anchor="middle" x="676.5" y="-249" font-family="Helvetica,sans-Serif" font-size="10.00">src/Callbacks/InjectInstantiation.cpp</text>
</a>
</g>
</g>
<!-- Node2 -->
<g id="Node000002" class="node">
<title>Node2</title>
<g id="a_Node000002"><a xlink:title=" ">
<polygon fill="#e0e0e0" stroke="#999999" points="139.5,-200.5 79.5,-200.5 79.5,-181.5 139.5,-181.5 139.5,-200.5"/>
<text text-anchor="middle" x="109.5" y="-188.5" font-family="Helvetica,sans-Serif" font-size="10.00">iostream</text>
</a>
</g>
</g>
<!-- Node1&#45;&gt;Node2 -->
<g id="edge1_Node000001_Node000002" class="edge">
<title>Node1&#45;&gt;Node2</title>
<g id="a_edge1_Node000001_Node000002"><a xlink:title=" ">
<path fill="none" stroke="#63b8ff" d="M579.52,-249.86C472.75,-247.41 296.59,-238.24 148.5,-206 145.67,-205.38 142.76,-204.61 139.87,-203.75"/>
<polygon fill="#63b8ff" stroke="#63b8ff" points="140.85,-200.39 130.26,-200.58 138.65,-207.04 140.85,-200.39"/>
</a>
</g>
</g>
<!-- Node3 -->
<g id="Node000003" class="node">
<title>Node3</title>
<g id="a_Node000003"><a xlink:title=" ">
<polygon fill="#e0e0e0" stroke="#999999" points="291.5,-200.5 157.5,-200.5 157.5,-181.5 291.5,-181.5 291.5,-200.5"/>
<text text-anchor="middle" x="224.5" y="-188.5" font-family="Helvetica,sans-Serif" font-size="10.00">termcolor/termcolor.hpp</text>
</a>
</g>
</g>
<!-- Node1&#45;&gt;Node3 -->
<g id="edge2_Node000001_Node000003" class="edge">
<title>Node1&#45;&gt;Node3</title>
<g id="a_edge2_Node000001_Node000003"><a xlink:title=" ">
<path fill="none" stroke="#63b8ff" d="M591.17,-241.98C514.83,-233.99 399.94,-221.03 300.5,-206 293.3,-204.91 285.73,-203.65 278.27,-202.35"/>
<polygon fill="#63b8ff" stroke="#63b8ff" points="278.68,-198.87 268.22,-200.55 277.45,-205.76 278.68,-198.87"/>
</a>
</g>
</g>
<!-- Node4 -->
<g id="Node000004" class="node">
<title>Node4</title>
<g id="a_Node000004"><a xlink:href="InjectInstantiation_8hpp.html" target="_top" xlink:title=" ">
<polygon fill="white" stroke="#666666" points="485.5,-200.5 309.5,-200.5 309.5,-181.5 485.5,-181.5 485.5,-200.5"/>
<text text-anchor="middle" x="397.5" y="-188.5" font-family="Helvetica,sans-Serif" font-size="10.00">Callbacks/InjectInstantiation.hpp</text>
</a>
</g>
</g>
<!-- Node1&#45;&gt;Node4 -->
<g id="edge3_Node000001_Node000004" class="edge">
<title>Node1&#45;&gt;Node4</title>
<g id="a_edge3_Node000001_Node000004"><a xlink:title=" ">
<path fill="none" stroke="#63b8ff" d="M635.93,-241.99C586.24,-231.57 502.04,-213.92 448.14,-202.62"/>
<polygon fill="#63b8ff" stroke="#63b8ff" points="448.62,-199.14 438.12,-200.52 447.19,-205.99 448.62,-199.14"/>
</a>
</g>
</g>
<!-- Node7 -->
<g id="Node000007" class="node">
<title>Node7</title>
<g id="a_Node000007"><a xlink:href="Injection_8hpp.html" target="_top" xlink:title=" ">
<polygon fill="white" stroke="#666666" points="511.5,-134.5 431.5,-134.5 431.5,-115.5 511.5,-115.5 511.5,-134.5"/>
<text text-anchor="middle" x="471.5" y="-122.5" font-family="Helvetica,sans-Serif" font-size="10.00">Injection.hpp</text>
</a>
</g>
</g>
<!-- Node1&#45;&gt;Node7 -->
<g id="edge26_Node000001_Node000007" class="edge">
<title>Node1&#45;&gt;Node7</title>
<g id="a_edge26_Node000001_Node000007"><a xlink:title=" ">
<path fill="none" stroke="#63b8ff" d="M668.94,-241.57C655.65,-226.33 626.63,-195.11 596.5,-176 569.93,-159.15 536.73,-146.19 511.23,-137.7"/>
<polygon fill="#63b8ff" stroke="#63b8ff" points="512.11,-134.3 501.51,-134.55 509.95,-140.96 512.11,-134.3"/>
</a>
</g>
</g>
<!-- Node10 -->
<g id="Node000010" class="node">
<title>Node10</title>
<g id="a_Node000010"><a xlink:title=" ">
<polygon fill="#e0e0e0" stroke="#999999" points="853.5,-74 735.5,-74 735.5,-55 853.5,-55 853.5,-74"/>
<text text-anchor="middle" x="794.5" y="-62" font-family="Helvetica,sans-Serif" font-size="10.00">llvm/ADT/StringRef.h</text>
</a>
</g>
</g>
<!-- Node1&#45;&gt;Node10 -->
<g id="edge20_Node000001_Node000010" class="edge">
<title>Node1&#45;&gt;Node10</title>
<g id="a_edge20_Node000001_Node000010"><a xlink:title=" ">
<path fill="none" stroke="#63b8ff" d="M681.33,-241.66C689.08,-227.58 704.91,-199.28 719.5,-176 740.63,-142.29 767.13,-104.12 782.31,-82.62"/>
<polygon fill="#63b8ff" stroke="#63b8ff" points="785.32,-84.42 788.25,-74.24 779.61,-80.37 785.32,-84.42"/>
</a>
</g>
</g>
<!-- Node11 -->
<g id="Node000011" class="node">
<title>Node11</title>
<g id="a_Node000011"><a xlink:title=" ">
<polygon fill="#e0e0e0" stroke="#999999" points="717,-74 598,-74 598,-55 717,-55 717,-74"/>
<text text-anchor="middle" x="657.5" y="-62" font-family="Helvetica,sans-Serif" font-size="10.00">clang/AST/DeclCXX.h</text>
</a>
</g>
</g>
<!-- Node1&#45;&gt;Node11 -->
<g id="edge22_Node000001_Node000011" class="edge">
<title>Node1&#45;&gt;Node11</title>
<g id="a_edge22_Node000001_Node000011"><a xlink:title=" ">
<path fill="none" stroke="#63b8ff" d="M675.58,-241.58C672.66,-213.07 663.48,-123.74 659.44,-84.41"/>
<polygon fill="#63b8ff" stroke="#63b8ff" points="662.91,-83.92 658.41,-74.33 655.95,-84.64 662.91,-83.92"/>
</a>
</g>
</g>
<!-- Node15 -->
<g id="Node000015" class="node">
<title>Node15</title>
<g id="a_Node000015"><a xlink:title=" ">
<polygon fill="#e0e0e0" stroke="#999999" points="922.5,-19 824.5,-19 824.5,0 922.5,0 922.5,-19"/>
<text text-anchor="middle" x="873.5" y="-7" font-family="Helvetica,sans-Serif" font-size="10.00">clang/AST/Decl.h</text>
</a>
</g>
</g>
<!-- Node1&#45;&gt;Node15 -->
<g id="edge21_Node000001_Node000015" class="edge">
<title>Node1&#45;&gt;Node15</title>
<g id="a_edge21_Node000001_Node000015"><a xlink:title=" ">
<path fill="none" stroke="#63b8ff" d="M685.46,-241.73C699.77,-227.76 728.71,-199.59 753.5,-176 801.57,-130.26 830.98,-132.38 862.5,-74 869.9,-60.29 872.5,-42.72 873.34,-29.53"/>
<polygon fill="#63b8ff" stroke="#63b8ff" points="876.85,-29.4 873.7,-19.28 869.85,-29.15 876.85,-29.4"/>
</a>
</g>
</g>
<!-- Node18 -->
<g id="Node000018" class="node">
<title>Node18</title>
<g id="a_Node000018"><a xlink:title=" ">
<polygon fill="#e0e0e0" stroke="#999999" points="861,-200.5 762,-200.5 762,-181.5 861,-181.5 861,-200.5"/>
<text text-anchor="middle" x="811.5" y="-188.5" font-family="Helvetica,sans-Serif" font-size="10.00">llvm/ADT/APInt.h</text>
</a>
</g>
</g>
<!-- Node1&#45;&gt;Node18 -->
<g id="edge19_Node000001_Node000018" class="edge">
<title>Node1&#45;&gt;Node18</title>
<g id="a_edge19_Node000001_Node000018"><a xlink:title=" ">
<path fill="none" stroke="#63b8ff" d="M696.13,-241.99C718.83,-232.16 756.4,-215.88 782.47,-204.58"/>
<polygon fill="#63b8ff" stroke="#63b8ff" points="784.06,-207.7 791.85,-200.52 781.28,-201.28 784.06,-207.7"/>
</a>
</g>
</g>
<!-- Node19 -->
<g id="Node000019" class="node">
<title>Node19</title>
<g id="a_Node000019"><a xlink:title=" ">
<polygon fill="#e0e0e0" stroke="#999999" points="1022,-200.5 879,-200.5 879,-181.5 1022,-181.5 1022,-200.5"/>
<text text-anchor="middle" x="950.5" y="-188.5" font-family="Helvetica,sans-Serif" font-size="10.00">clang/AST/DeclTemplate.h</text>
</a>
</g>
</g>
<!-- Node1&#45;&gt;Node19 -->
<g id="edge23_Node000001_Node000019" class="edge">
<title>Node1&#45;&gt;Node19</title>
<g id="a_edge23_Node000001_Node000019"><a xlink:title=" ">
<path fill="none" stroke="#63b8ff" d="M716.34,-241.99C765.15,-231.57 847.84,-213.92 900.76,-202.62"/>
<polygon fill="#63b8ff" stroke="#63b8ff" points="901.56,-206.03 910.61,-200.52 900.1,-199.18 901.56,-206.03"/>
</a>
</g>
</g>
<!-- Node20 -->
<g id="Node000020" class="node">
<title>Node20</title>
<g id="a_Node000020"><a xlink:title=" ">
<polygon fill="#e0e0e0" stroke="#999999" points="1191,-200.5 1040,-200.5 1040,-181.5 1191,-181.5 1191,-200.5"/>
<text text-anchor="middle" x="1115.5" y="-188.5" font-family="Helvetica,sans-Serif" font-size="10.00">clang/AST/TemplateName.h</text>
</a>
</g>
</g>
<!-- Node1&#45;&gt;Node20 -->
<g id="edge24_Node000001_Node000020" class="edge">
<title>Node1&#45;&gt;Node20</title>
<g id="a_edge24_Node000001_Node000020"><a xlink:title=" ">
<path fill="none" stroke="#63b8ff" d="M751.76,-241.96C823.7,-233.59 935.16,-220.06 1031.5,-206 1039.51,-204.83 1047.93,-203.52 1056.23,-202.19"/>
<polygon fill="#63b8ff" stroke="#63b8ff" points="1056.94,-205.62 1066.25,-200.55 1055.82,-198.71 1056.94,-205.62"/>
</a>
</g>
</g>
<!-- Node21 -->
<g id="Node000021" class="node">
<title>Node21</title>
<g id="a_Node000021"><a xlink:title=" ">
<polygon fill="#e0e0e0" stroke="#999999" points="1318,-206 1209,-206 1209,-176 1318,-176 1318,-206"/>
<text text-anchor="start" x="1217" y="-194" font-family="Helvetica,sans-Serif" font-size="10.00">clang/Rewrite/Core</text>
<text text-anchor="middle" x="1263.5" y="-183" font-family="Helvetica,sans-Serif" font-size="10.00">/Rewriter.h</text>
</a>
</g>
</g>
<!-- Node1&#45;&gt;Node21 -->
<g id="edge25_Node000001_Node000021" class="edge">
<title>Node1&#45;&gt;Node21</title>
<g id="a_edge25_Node000001_Node000021"><a xlink:title=" ">
<path fill="none" stroke="#63b8ff" d="M773.05,-246.18C876.27,-240.68 1044.83,-229.17 1198.83,-206.13"/>
<polygon fill="#63b8ff" stroke="#63b8ff" points="1199.59,-209.55 1208.95,-204.59 1198.54,-202.63 1199.59,-209.55"/>
</a>
</g>
</g>
<!-- Node22 -->
<g id="Node000022" class="node">
<title>Node22</title>
<g id="a_Node000022"><a xlink:href="Template_8hpp.html" target="_top" xlink:title=" ">
<polygon fill="white" stroke="#666666" points="587,-200.5 504,-200.5 504,-181.5 587,-181.5 587,-200.5"/>
<text text-anchor="middle" x="545.5" y="-188.5" font-family="Helvetica,sans-Serif" font-size="10.00">Template.hpp</text>
</a>
</g>
</g>
<!-- Node1&#45;&gt;Node22 -->
<g id="edge27_Node000001_Node000022" class="edge">
<title>Node1&#45;&gt;Node22</title>
<g id="a_edge27_Node000001_Node000022"><a xlink:title=" ">
<path fill="none" stroke="#63b8ff" d="M657.45,-241.99C635.53,-232.2 599.29,-216.02 574,-204.73"/>
<polygon fill="#63b8ff" stroke="#63b8ff" points="575.13,-201.4 564.57,-200.52 572.28,-207.79 575.13,-201.4"/>
</a>
</g>
</g>
<!-- Node5 -->
<g id="Node000005" class="node">
<title>Node5</title>
<g id="a_Node000005"><a xlink:title=" ">
<polygon fill="#e0e0e0" stroke="#999999" points="225,-74 178,-74 178,-55 225,-55 225,-74"/>
<text text-anchor="middle" x="201.5" y="-62" font-family="Helvetica,sans-Serif" font-size="10.00">vector</text>
</a>
</g>
</g>
<!-- Node4&#45;&gt;Node5 -->
<g id="edge4_Node000004_Node000005" class="edge">
<title>Node4&#45;&gt;Node5</title>
<g id="a_edge4_Node000004_Node000005"><a xlink:title=" ">
<path fill="none" stroke="#63b8ff" d="M340.8,-181.46C293.26,-173.1 230.49,-158.89 213.5,-140 199.97,-124.96 198.4,-100.97 199.28,-84.29"/>
<polygon fill="#63b8ff" stroke="#63b8ff" points="202.78,-84.38 200.16,-74.11 195.81,-83.77 202.78,-84.38"/>
</a>
</g>
</g>
<!-- Node6 -->
<g id="Node000006" class="node">
<title>Node6</title>
<g id="a_Node000006"><a xlink:title=" ">
<polygon fill="#e0e0e0" stroke="#999999" points="161,-140 0,-140 0,-110 161,-110 161,-140"/>
<text text-anchor="start" x="8" y="-128" font-family="Helvetica,sans-Serif" font-size="10.00">clang/ASTMatchers/ASTMatch</text>
<text text-anchor="middle" x="80.5" y="-117" font-family="Helvetica,sans-Serif" font-size="10.00">Finder.h</text>
</a>
</g>
</g>
<!-- Node4&#45;&gt;Node6 -->
<g id="edge5_Node000004_Node000006" class="edge">
<title>Node4&#45;&gt;Node6</title>
<g id="a_edge5_Node000004_Node000006"><a xlink:title=" ">
<path fill="none" stroke="#63b8ff" d="M355.08,-181.44C305.37,-171.4 221.96,-154.56 160.09,-142.07"/>
<polygon fill="#63b8ff" stroke="#63b8ff" points="160.46,-138.57 149.97,-140.02 159.08,-145.43 160.46,-138.57"/>
</a>
</g>
</g>
<!-- Node4&#45;&gt;Node7 -->
<g id="edge6_Node000004_Node000007" class="edge">
<title>Node4&#45;&gt;Node7</title>
<g id="a_edge6_Node000004_Node000007"><a xlink:title=" ">
<path fill="none" stroke="#63b8ff" d="M407.48,-181.37C419.22,-171.21 438.94,-154.16 453.4,-141.65"/>
<polygon fill="#63b8ff" stroke="#63b8ff" points="455.93,-144.09 461.2,-134.91 451.35,-138.8 455.93,-144.09"/>
</a>
</g>
</g>
<!-- Node7&#45;&gt;Node5 -->
<g id="edge9_Node000007_Node000005" class="edge">
<title>Node7&#45;&gt;Node5</title>
<g id="a_edge9_Node000007_Node000005"><a xlink:title=" ">
<path fill="none" stroke="#63b8ff" d="M432.24,-115.49C379.12,-103.99 285.27,-83.65 235.19,-72.8"/>
<polygon fill="#63b8ff" stroke="#63b8ff" points="235.72,-69.33 225.2,-70.64 234.23,-76.17 235.72,-69.33"/>
</a>
</g>
</g>
<!-- Node8 -->
<g id="Node000008" class="node">
<title>Node8</title>
<g id="a_Node000008"><a xlink:title=" ">
<polygon fill="#e0e0e0" stroke="#999999" points="493.5,-74 437.5,-74 437.5,-55 493.5,-55 493.5,-74"/>
<text text-anchor="middle" x="465.5" y="-62" font-family="Helvetica,sans-Serif" font-size="10.00">optional</text>
</a>
</g>
</g>
<!-- Node7&#45;&gt;Node8 -->
<g id="edge7_Node000007_Node000008" class="edge">
<title>Node7&#45;&gt;Node8</title>
<g id="a_edge7_Node000007_Node000008"><a xlink:title=" ">
<path fill="none" stroke="#63b8ff" d="M470.61,-115.37C469.78,-107.25 468.51,-94.81 467.44,-84.39"/>
<polygon fill="#63b8ff" stroke="#63b8ff" points="470.89,-83.76 466.39,-74.17 463.93,-84.47 470.89,-83.76"/>
</a>
</g>
</g>
<!-- Node9 -->
<g id="Node000009" class="node">
<title>Node9</title>
<g id="a_Node000009"><a xlink:title=" ">
<polygon fill="#e0e0e0" stroke="#999999" points="377.5,-19 333.5,-19 333.5,0 377.5,0 377.5,-19"/>
<text text-anchor="middle" x="355.5" y="-7" font-family="Helvetica,sans-Serif" font-size="10.00">string</text>
</a>
</g>
</g>
<!-- Node7&#45;&gt;Node9 -->
<g id="edge8_Node000007_Node000009" class="edge">
<title>Node7&#45;&gt;Node9</title>
<g id="a_edge8_Node000007_Node000009"><a xlink:title=" ">
<path fill="none" stroke="#63b8ff" d="M462.78,-115.47C443.38,-96.49 396.41,-50.53 371.55,-26.21"/>
<polygon fill="#63b8ff" stroke="#63b8ff" points="373.92,-23.62 364.32,-19.13 369.02,-28.63 373.92,-23.62"/>
</a>
</g>
</g>
<!-- Node7&#45;&gt;Node10 -->
<g id="edge10_Node000007_Node000010" class="edge">
<title>Node7&#45;&gt;Node10</title>
<g id="a_edge10_Node000007_Node000010"><a xlink:title=" ">
<path fill="none" stroke="#63b8ff" d="M511.76,-116.71C568.58,-106.42 672.6,-87.58 737.4,-75.84"/>
<polygon fill="#63b8ff" stroke="#63b8ff" points="738.23,-79.25 747.44,-74.02 736.98,-72.36 738.23,-79.25"/>
</a>
</g>
</g>
<!-- Node7&#45;&gt;Node11 -->
<g id="edge11_Node000007_Node000011" class="edge">
<title>Node7&#45;&gt;Node11</title>
<g id="a_edge11_Node000007_Node000011"><a xlink:title=" ">
<path fill="none" stroke="#63b8ff" d="M498.55,-115.49C530.78,-105.36 584.79,-88.37 620.78,-77.05"/>
<polygon fill="#63b8ff" stroke="#63b8ff" points="621.93,-80.36 630.42,-74.02 619.83,-73.68 621.93,-80.36"/>
</a>
</g>
</g>
<!-- Node12 -->
<g id="Node000012" class="node">
<title>Node12</title>
<g id="a_Node000012"><a xlink:title=" ">
<polygon fill="#e0e0e0" stroke="#999999" points="381,-74 282,-74 282,-55 381,-55 381,-74"/>
<text text-anchor="middle" x="331.5" y="-62" font-family="Helvetica,sans-Serif" font-size="10.00">clang/AST/Type.h</text>
</a>
</g>
</g>
<!-- Node7&#45;&gt;Node12 -->
<g id="edge12_Node000007_Node000012" class="edge">
<title>Node7&#45;&gt;Node12</title>
<g id="a_edge12_Node000007_Node000012"><a xlink:title=" ">
<path fill="none" stroke="#63b8ff" d="M451.14,-115.49C427.5,-105.62 388.3,-89.23 361.25,-77.93"/>
<polygon fill="#63b8ff" stroke="#63b8ff" points="362.46,-74.64 351.88,-74.02 359.76,-81.1 362.46,-74.64"/>
</a>
</g>
</g>
<!-- Node13 -->
<g id="Node000013" class="node">
<title>Node13</title>
<g id="a_Node000013"><a xlink:href="Param_8hpp.html" target="_top" xlink:title=" ">
<polygon fill="white" stroke="#666666" points="579.5,-74 511.5,-74 511.5,-55 579.5,-55 579.5,-74"/>
<text text-anchor="middle" x="545.5" y="-62" font-family="Helvetica,sans-Serif" font-size="10.00">Param.hpp</text>
</a>
</g>
</g>
<!-- Node7&#45;&gt;Node13 -->
<g id="edge13_Node000007_Node000013" class="edge">
<title>Node7&#45;&gt;Node13</title>
<g id="a_edge13_Node000007_Node000013"><a xlink:title=" ">
<path fill="none" stroke="#63b8ff" d="M482.42,-115.37C494.01,-106.21 512.53,-91.56 526.52,-80.51"/>
<polygon fill="#63b8ff" stroke="#63b8ff" points="528.86,-83.11 534.54,-74.17 524.52,-77.62 528.86,-83.11"/>
</a>
</g>
</g>
<!-- Node13&#45;&gt;Node9 -->
<g id="edge15_Node000013_Node000009" class="edge">
<title>Node13&#45;&gt;Node9</title>
<g id="a_edge15_Node000013_Node000009"><a xlink:title=" ">
<path fill="none" stroke="#63b8ff" d="M514.97,-54.98C480.03,-45.24 423.05,-29.34 387.5,-19.43"/>
<polygon fill="#63b8ff" stroke="#63b8ff" points="388.21,-15.99 377.64,-16.68 386.33,-22.73 388.21,-15.99"/>
</a>
</g>
</g>
<!-- Node14 -->
<g id="Node000014" class="node">
<title>Node14</title>
<g id="a_Node000014"><a xlink:title=" ">
<polygon fill="#e0e0e0" stroke="#999999" points="453,-19 396,-19 396,0 453,0 453,-19"/>
<text text-anchor="middle" x="424.5" y="-7" font-family="Helvetica,sans-Serif" font-size="10.00">ostream</text>
</a>
</g>
</g>
<!-- Node13&#45;&gt;Node14 -->
<g id="edge14_Node000013_Node000014" class="edge">
<title>Node13&#45;&gt;Node14</title>
<g id="a_edge14_Node000013_Node000014"><a xlink:title=" ">
<path fill="none" stroke="#63b8ff" d="M526.06,-54.98C506.51,-46.42 476.12,-33.11 453.68,-23.28"/>
<polygon fill="#63b8ff" stroke="#63b8ff" points="454.86,-19.98 444.29,-19.17 452.05,-26.39 454.86,-19.98"/>
</a>
</g>
</g>
<!-- Node13&#45;&gt;Node15 -->
<g id="edge16_Node000013_Node000015" class="edge">
<title>Node13&#45;&gt;Node15</title>
<g id="a_edge16_Node000013_Node000015"><a xlink:title=" ">
<path fill="none" stroke="#63b8ff" d="M579.59,-56.79C582.93,-56.17 586.28,-55.56 589.5,-55 667.06,-41.44 756.9,-27.69 814.41,-19.14"/>
<polygon fill="#63b8ff" stroke="#63b8ff" points="815.03,-22.58 824.41,-17.65 814.01,-15.66 815.03,-22.58"/>
</a>
</g>
</g>
<!-- Node16 -->
<g id="Node000016" class="node">
<title>Node16</title>
<g id="a_Node000016"><a xlink:title=" ">
<polygon fill="#e0e0e0" stroke="#999999" points="635.5,-19 471.5,-19 471.5,0 635.5,0 635.5,-19"/>
<text text-anchor="middle" x="553.5" y="-7" font-family="Helvetica,sans-Serif" font-size="10.00">clang/AST/DependenceFlags.h</text>
</a>
</g>
</g>
<!-- Node13&#45;&gt;Node16 -->
<g id="edge17_Node000013_Node000016" class="edge">
<title>Node13&#45;&gt;Node16</title>
<g id="a_edge17_Node000013_Node000016"><a xlink:title=" ">
<path fill="none" stroke="#63b8ff" d="M546.82,-54.75C547.87,-47.8 549.37,-37.85 550.69,-29.13"/>
<polygon fill="#63b8ff" stroke="#63b8ff" points="554.17,-29.5 552.2,-19.09 547.25,-28.45 554.17,-29.5"/>
</a>
</g>
</g>
<!-- Node17 -->
<g id="Node000017" class="node">
<title>Node17</title>
<g id="a_Node000017"><a xlink:title=" ">
<polygon fill="#e0e0e0" stroke="#999999" points="791,-19 654,-19 654,0 791,0 791,-19"/>
<text text-anchor="middle" x="722.5" y="-7" font-family="Helvetica,sans-Serif" font-size="10.00">clang/AST/PrettyPrinter.h</text>
</a>
</g>
</g>
<!-- Node13&#45;&gt;Node17 -->
<g id="edge18_Node000013_Node000017" class="edge">
<title>Node13&#45;&gt;Node17</title>
<g id="a_edge18_Node000013_Node000017"><a xlink:title=" ">
<path fill="none" stroke="#63b8ff" d="M573.94,-54.98C603.78,-46.05 650.88,-31.94 684.03,-22.02"/>
<polygon fill="#63b8ff" stroke="#63b8ff" points="685.26,-25.3 693.84,-19.08 683.26,-18.6 685.26,-25.3"/>
</a>
</g>
</g>
<!-- Node22&#45;&gt;Node5 -->
<g id="edge29_Node000022_Node000005" class="edge">
<title>Node22&#45;&gt;Node5</title>
<g id="a_edge29_Node000022_Node000005"><a xlink:title=" ">
<path fill="none" stroke="#63b8ff" d="M516.79,-181.47C509.56,-179.5 501.78,-177.53 494.5,-176 387.66,-153.51 343.81,-198.31 251.5,-140 230.56,-126.77 216.34,-101.24 208.58,-83.79"/>
<polygon fill="#63b8ff" stroke="#63b8ff" points="211.64,-82.04 204.57,-74.15 205.18,-84.72 211.64,-82.04"/>
</a>
</g>
</g>
<!-- Node22&#45;&gt;Node7 -->
<g id="edge32_Node000022_Node000007" class="edge">
<title>Node22&#45;&gt;Node7</title>
<g id="a_edge32_Node000022_Node000007"><a xlink:title=" ">
<path fill="none" stroke="#63b8ff" d="M535.52,-181.37C523.78,-171.21 504.06,-154.16 489.6,-141.65"/>
<polygon fill="#63b8ff" stroke="#63b8ff" points="491.65,-138.8 481.8,-134.91 487.07,-144.09 491.65,-138.8"/>
</a>
</g>
</g>
<!-- Node22&#45;&gt;Node9 -->
<g id="edge28_Node000022_Node000009" class="edge">
<title>Node22&#45;&gt;Node9</title>
<g id="a_edge28_Node000022_Node000009"><a xlink:title=" ">
<path fill="none" stroke="#63b8ff" d="M515.03,-181.42C470.14,-168.7 390.15,-145.73 377.5,-140 327.29,-117.26 299.16,-122.24 272.5,-74 258.45,-48.57 294.45,-30.11 323.38,-19.85"/>
<polygon fill="#63b8ff" stroke="#63b8ff" points="324.85,-23.05 333.23,-16.56 322.63,-16.41 324.85,-23.05"/>
</a>
</g>
</g>
<!-- Node22&#45;&gt;Node11 -->
<g id="edge30_Node000022_Node000011" class="edge">
<title>Node22&#45;&gt;Node11</title>
<g id="a_edge30_Node000022_Node000011"><a xlink:title=" ">
<path fill="none" stroke="#63b8ff" d="M553.2,-181.44C571.66,-160.92 618.71,-108.62 642.8,-81.84"/>
<polygon fill="#63b8ff" stroke="#63b8ff" points="645.66,-83.89 649.75,-74.12 640.46,-79.21 645.66,-83.89"/>
</a>
</g>
</g>
<!-- Node22&#45;&gt;Node12 -->
<g id="edge31_Node000022_Node000012" class="edge">
<title>Node22&#45;&gt;Node12</title>
<g id="a_edge31_Node000022_Node000012"><a xlink:title=" ">
<path fill="none" stroke="#63b8ff" d="M518.01,-181.48C492.33,-172.92 453.42,-158.37 422.5,-140 394.14,-123.15 365.33,-97.9 347.94,-81.56"/>
<polygon fill="#63b8ff" stroke="#63b8ff" points="350.02,-78.7 340.37,-74.33 345.18,-83.76 350.02,-78.7"/>
</a>
</g>
</g>
<!-- Node22&#45;&gt;Node13 -->
<g id="edge33_Node000022_Node000013" class="edge">
<title>Node22&#45;&gt;Node13</title>
<g id="a_edge33_Node000022_Node000013"><a xlink:title=" ">
<path fill="none" stroke="#63b8ff" d="M545.5,-181.44C545.5,-161.54 545.5,-111.76 545.5,-84.35"/>
<polygon fill="#63b8ff" stroke="#63b8ff" points="549,-84.12 545.5,-74.12 542,-84.12 549,-84.12"/>
</a>
</g>
</g>
</g>
</svg>
