<?xml version="1.0" encoding="UTF-8" standalone="no"?>
<!DOCTYPE svg PUBLIC "-//W3C//DTD SVG 1.1//EN"
 "http://www.w3.org/Graphics/SVG/1.1/DTD/svg11.dtd">
<!-- Generated by graphviz version 2.43.0 (0)
 -->
<!-- Title: include/Injection.hpp Pages: 1 -->
<svg width="923pt" height="140pt"
 viewBox="0.00 0.00 922.50 140.00" xmlns="http://www.w3.org/2000/svg" xmlns:xlink="http://www.w3.org/1999/xlink">
<g id="graph0" class="graph" transform="scale(1 1) rotate(0) translate(4 136)">
<title>include/Injection.hpp</title>
<!-- Node1 -->
<g id="node1" class="node">
<title>Node1</title>
<g id="a_node1"><a xlink:title=" ">
<polygon fill="#bfbfbf" stroke="black" points="178,-112.5 178,-131.5 296,-131.5 296,-112.5 178,-112.5"/>
<text text-anchor="middle" x="237" y="-119.5" font-family="Helvetica,sans-Serif" font-size="10.00">include/Injection.hpp</text>
</a>
</g>
</g>
<!-- Node2 -->
<g id="node2" class="node">
<title>Node2</title>
<g id="a_node2"><a xlink:title=" ">
<polygon fill="none" stroke="#bfbfbf" points="0,-56.5 0,-75.5 56,-75.5 56,-56.5 0,-56.5"/>
<text text-anchor="middle" x="28" y="-63.5" font-family="Helvetica,sans-Serif" font-size="10.00">optional</text>
</a>
</g>
</g>
<!-- Node1&#45;&gt;Node2 -->
<g id="edge1" class="edge">
<title>Node1&#45;&gt;Node2</title>
<path fill="none" stroke="midnightblue" d="M203.88,-112.44C166.4,-102.76 105.45,-87.01 66.04,-76.83"/>
<polygon fill="midnightblue" stroke="midnightblue" points="66.83,-73.42 56.27,-74.3 65.08,-80.19 66.83,-73.42"/>
</g>
<!-- Node3 -->
<g id="node3" class="node">
<title>Node3</title>
<g id="a_node3"><a xlink:title=" ">
<polygon fill="none" stroke="#bfbfbf" points="239,-0.5 239,-19.5 283,-19.5 283,-0.5 239,-0.5"/>
<text text-anchor="middle" x="261" y="-7.5" font-family="Helvetica,sans-Serif" font-size="10.00">string</text>
</a>
</g>
</g>
<!-- Node1&#45;&gt;Node3 -->
<g id="edge2" class="edge">
<title>Node1&#45;&gt;Node3</title>
<path fill="none" stroke="midnightblue" d="M177.8,-113.23C131.68,-104.62 79.16,-87.57 103,-56 118.13,-35.96 187.19,-22.2 228.84,-15.56"/>
<polygon fill="midnightblue" stroke="midnightblue" points="229.44,-19.01 238.79,-14.03 228.37,-12.09 229.44,-19.01"/>
</g>
<!-- Node4 -->
<g id="node4" class="node">
<title>Node4</title>
<g id="a_node4"><a xlink:title=" ">
<polygon fill="none" stroke="#bfbfbf" points="112.5,-56.5 112.5,-75.5 159.5,-75.5 159.5,-56.5 112.5,-56.5"/>
<text text-anchor="middle" x="136" y="-63.5" font-family="Helvetica,sans-Serif" font-size="10.00">vector</text>
</a>
</g>
</g>
<!-- Node1&#45;&gt;Node4 -->
<g id="edge3" class="edge">
<title>Node1&#45;&gt;Node4</title>
<path fill="none" stroke="midnightblue" d="M220.77,-112.32C204.65,-103.7 179.7,-90.36 161.04,-80.39"/>
<polygon fill="midnightblue" stroke="midnightblue" points="162.66,-77.28 152.19,-75.65 159.36,-83.46 162.66,-77.28"/>
</g>
<!-- Node5 -->
<g id="node5" class="node">
<title>Node5</title>
<g id="a_node5"><a xlink:title=" ">
<polygon fill="none" stroke="#bfbfbf" points="178,-56.5 178,-75.5 296,-75.5 296,-56.5 178,-56.5"/>
<text text-anchor="middle" x="237" y="-63.5" font-family="Helvetica,sans-Serif" font-size="10.00">llvm/ADT/StringRef.h</text>
</a>
</g>
</g>
<!-- Node1&#45;&gt;Node5 -->
<g id="edge4" class="edge">
<title>Node1&#45;&gt;Node5</title>
<path fill="none" stroke="midnightblue" d="M237,-112.08C237,-105.01 237,-94.86 237,-85.99"/>
<polygon fill="midnightblue" stroke="midnightblue" points="240.5,-85.75 237,-75.75 233.5,-85.75 240.5,-85.75"/>
</g>
<!-- Node6 -->
<g id="node6" class="node">
<title>Node6</title>
<g id="a_node6"><a xlink:title=" ">
<polygon fill="none" stroke="#bfbfbf" points="314.5,-56.5 314.5,-75.5 433.5,-75.5 433.5,-56.5 314.5,-56.5"/>
<text text-anchor="middle" x="374" y="-63.5" font-family="Helvetica,sans-Serif" font-size="10.00">clang/AST/DeclCXX.h</text>
</a>
</g>
</g>
<!-- Node1&#45;&gt;Node6 -->
<g id="edge5" class="edge">
<title>Node1&#45;&gt;Node6</title>
<path fill="none" stroke="midnightblue" d="M258.71,-112.44C281.35,-103.52 317.07,-89.44 342.75,-79.32"/>
<polygon fill="midnightblue" stroke="midnightblue" points="344.37,-82.44 352.39,-75.52 341.81,-75.93 344.37,-82.44"/>
</g>
<!-- Node7 -->
<g id="node7" class="node">
<title>Node7</title>
<g id="a_node7"><a xlink:title=" ">
<polygon fill="none" stroke="#bfbfbf" points="451.5,-56.5 451.5,-75.5 550.5,-75.5 550.5,-56.5 451.5,-56.5"/>
<text text-anchor="middle" x="501" y="-63.5" font-family="Helvetica,sans-Serif" font-size="10.00">clang/AST/Type.h</text>
</a>
</g>
</g>
<!-- Node1&#45;&gt;Node7 -->
<g id="edge6" class="edge">
<title>Node1&#45;&gt;Node7</title>
<path fill="none" stroke="midnightblue" d="M278.83,-112.44C325.08,-102.98 399.61,-87.74 449.44,-77.55"/>
<polygon fill="midnightblue" stroke="midnightblue" points="450.27,-80.95 459.36,-75.52 448.87,-74.09 450.27,-80.95"/>
</g>
<!-- Node8 -->
<g id="node8" class="node">
<title>Node8</title>
<g id="a_node8"><a xlink:href="Param_8hpp.html" target="_top" xlink:title=" ">
<polygon fill="none" stroke="black" points="569,-56.5 569,-75.5 637,-75.5 637,-56.5 569,-56.5"/>
<text text-anchor="middle" x="603" y="-63.5" font-family="Helvetica,sans-Serif" font-size="10.00">Param.hpp</text>
</a>
</g>
</g>
<!-- Node1&#45;&gt;Node8 -->
<g id="edge7" class="edge">
<title>Node1&#45;&gt;Node8</title>
<path fill="none" stroke="midnightblue" d="M296.13,-113.99C358.88,-106.27 461.17,-92.9 558.74,-76.12"/>
<polygon fill="midnightblue" stroke="midnightblue" points="559.52,-79.54 568.77,-74.38 558.32,-72.64 559.52,-79.54"/>
</g>
<!-- Node8&#45;&gt;Node3 -->
<g id="edge9" class="edge">
<title>Node8&#45;&gt;Node3</title>
<path fill="none" stroke="midnightblue" d="M568.77,-57.65C565.81,-57.07 562.85,-56.51 560,-56 463.37,-38.63 348.34,-22.62 293.37,-15.26"/>
<polygon fill="midnightblue" stroke="midnightblue" points="293.58,-11.75 283.2,-13.9 292.65,-18.69 293.58,-11.75"/>
</g>
<!-- Node9 -->
<g id="node9" class="node">
<title>Node9</title>
<g id="a_node9"><a xlink:title=" ">
<polygon fill="none" stroke="#bfbfbf" points="403.5,-0.5 403.5,-19.5 460.5,-19.5 460.5,-0.5 403.5,-0.5"/>
<text text-anchor="middle" x="432" y="-7.5" font-family="Helvetica,sans-Serif" font-size="10.00">ostream</text>
</a>
</g>
</g>
<!-- Node8&#45;&gt;Node9 -->
<g id="edge8" class="edge">
<title>Node8&#45;&gt;Node9</title>
<path fill="none" stroke="midnightblue" d="M575.9,-56.44C547.01,-47.32 501.08,-32.81 468.89,-22.65"/>
<polygon fill="midnightblue" stroke="midnightblue" points="469.56,-19.19 458.97,-19.52 467.45,-25.87 469.56,-19.19"/>
</g>
<!-- Node10 -->
<g id="node10" class="node">
<title>Node10</title>
<g id="a_node10"><a xlink:title=" ">
<polygon fill="none" stroke="#bfbfbf" points="479,-0.5 479,-19.5 577,-19.5 577,-0.5 479,-0.5"/>
<text text-anchor="middle" x="528" y="-7.5" font-family="Helvetica,sans-Serif" font-size="10.00">clang/AST/Decl.h</text>
</a>
</g>
</g>
<!-- Node8&#45;&gt;Node10 -->
<g id="edge10" class="edge">
<title>Node8&#45;&gt;Node10</title>
<path fill="none" stroke="midnightblue" d="M590.95,-56.32C579.54,-48.11 562.17,-35.6 548.57,-25.81"/>
<polygon fill="midnightblue" stroke="midnightblue" points="550.43,-22.84 540.27,-19.83 546.34,-28.52 550.43,-22.84"/>
</g>
<!-- Node11 -->
<g id="node11" class="node">
<title>Node11</title>
<g id="a_node11"><a xlink:title=" ">
<polygon fill="none" stroke="#bfbfbf" points="595,-0.5 595,-19.5 759,-19.5 759,-0.5 595,-0.5"/>
<text text-anchor="middle" x="677" y="-7.5" font-family="Helvetica,sans-Serif" font-size="10.00">clang/AST/DependenceFlags.h</text>
</a>
</g>
</g>
<!-- Node8&#45;&gt;Node11 -->
<g id="edge11" class="edge">
<title>Node8&#45;&gt;Node11</title>
<path fill="none" stroke="midnightblue" d="M614.89,-56.32C626.15,-48.11 643.29,-35.6 656.71,-25.81"/>
<polygon fill="midnightblue" stroke="midnightblue" points="658.88,-28.56 664.89,-19.83 654.75,-22.9 658.88,-28.56"/>
</g>
<!-- Node12 -->
<g id="node12" class="node">
<title>Node12</title>
<g id="a_node12"><a xlink:title=" ">
<polygon fill="none" stroke="#bfbfbf" points="777.5,-0.5 777.5,-19.5 914.5,-19.5 914.5,-0.5 777.5,-0.5"/>
<text text-anchor="middle" x="846" y="-7.5" font-family="Helvetica,sans-Serif" font-size="10.00">clang/AST/PrettyPrinter.h</text>
</a>
</g>
</g>
<!-- Node8&#45;&gt;Node12 -->
<g id="edge12" class="edge">
<title>Node8&#45;&gt;Node12</title>
<path fill="none" stroke="midnightblue" d="M637.04,-57.43C678.78,-48.16 749.82,-32.37 797.32,-21.82"/>
<polygon fill="midnightblue" stroke="midnightblue" points="798.37,-25.17 807.37,-19.58 796.85,-18.34 798.37,-25.17"/>
</g>
</g>
</svg>
