<?xml version="1.0" encoding="UTF-8" standalone="no"?>
<!DOCTYPE svg PUBLIC "-//W3C//DTD SVG 1.1//EN"
 "http://www.w3.org/Graphics/SVG/1.1/DTD/svg11.dtd">
<!-- Generated by graphviz version 2.43.0 (0)
 -->
<!-- Title: src/Injection.cpp Pages: 1 -->
<svg width="1495pt" height="192pt"
 viewBox="0.00 0.00 1494.50 192.00" xmlns="http://www.w3.org/2000/svg" xmlns:xlink="http://www.w3.org/1999/xlink">
<g id="graph0" class="graph" transform="scale(1 1) rotate(0) translate(4 188)">
<title>src/Injection.cpp</title>
<!-- Node1 -->
<g id="Node000001" class="node">
<title>Node1</title>
<g id="a_Node000001"><a xlink:title=" ">
<polygon fill="#999999" stroke="#666666" points="990,-184 894,-184 894,-165 990,-165 990,-184"/>
<text text-anchor="middle" x="942" y="-172" font-family="Helvetica,sans-Serif" font-size="10.00">src/Injection.cpp</text>
</a>
</g>
</g>
<!-- Node2 -->
<g id="Node000002" class="node">
<title>Node2</title>
<g id="a_Node000002"><a xlink:href="Injection_8hpp.html" target="_top" xlink:title=" ">
<polygon fill="white" stroke="#666666" points="516,-129 436,-129 436,-110 516,-110 516,-129"/>
<text text-anchor="middle" x="476" y="-117" font-family="Helvetica,sans-Serif" font-size="10.00">Injection.hpp</text>
</a>
</g>
</g>
<!-- Node1&#45;&gt;Node2 -->
<g id="edge1_Node000001_Node000002" class="edge">
<title>Node1&#45;&gt;Node2</title>
<g id="a_edge1_Node000001_Node000002"><a xlink:title=" ">
<path fill="none" stroke="#63b8ff" d="M893.88,-168.03C805.1,-157.93 616.37,-136.46 526.11,-126.2"/>
<polygon fill="#63b8ff" stroke="#63b8ff" points="526.46,-122.72 516.13,-125.06 525.67,-129.67 526.46,-122.72"/>
</a>
</g>
</g>
<!-- Node8 -->
<g id="Node000008" class="node">
<title>Node8</title>
<g id="a_Node000008"><a xlink:title=" ">
<polygon fill="#e0e0e0" stroke="#999999" points="856.5,-74 737.5,-74 737.5,-55 856.5,-55 856.5,-74"/>
<text text-anchor="middle" x="797" y="-62" font-family="Helvetica,sans-Serif" font-size="10.00">clang/AST/DeclCXX.h</text>
</a>
</g>
</g>
<!-- Node1&#45;&gt;Node8 -->
<g id="edge25_Node000001_Node000008" class="edge">
<title>Node1&#45;&gt;Node8</title>
<g id="a_edge25_Node000001_Node000008"><a xlink:title=" ">
<path fill="none" stroke="#63b8ff" d="M926.89,-164.92C912.22,-156.38 889.51,-142.63 871,-129 850.49,-113.9 828.52,-94.61 813.9,-81.28"/>
<polygon fill="#63b8ff" stroke="#63b8ff" points="815.93,-78.39 806.2,-74.19 811.19,-83.54 815.93,-78.39"/>
</a>
</g>
</g>
<!-- Node11 -->
<g id="Node000011" class="node">
<title>Node11</title>
<g id="a_Node000011"><a xlink:title=" ">
<polygon fill="#e0e0e0" stroke="#999999" points="793,-19 695,-19 695,0 793,0 793,-19"/>
<text text-anchor="middle" x="744" y="-7" font-family="Helvetica,sans-Serif" font-size="10.00">clang/AST/Decl.h</text>
</a>
</g>
</g>
<!-- Node1&#45;&gt;Node11 -->
<g id="edge24_Node000001_Node000011" class="edge">
<title>Node1&#45;&gt;Node11</title>
<g id="a_edge24_Node000001_Node000011"><a xlink:title=" ">
<path fill="none" stroke="#63b8ff" d="M933.76,-164.73C925.85,-156.05 913.82,-142.2 905,-129 884.34,-98.09 894,-79.45 866,-55 847.58,-38.92 822.87,-28.48 800.51,-21.78"/>
<polygon fill="#63b8ff" stroke="#63b8ff" points="801.34,-18.38 790.76,-19.05 799.45,-25.12 801.34,-18.38"/>
</a>
</g>
</g>
<!-- Node15 -->
<g id="Node000015" class="node">
<title>Node15</title>
<g id="a_Node000015"><a xlink:title=" ">
<polygon fill="#e0e0e0" stroke="#999999" points="970.5,-129 913.5,-129 913.5,-110 970.5,-110 970.5,-129"/>
<text text-anchor="middle" x="942" y="-117" font-family="Helvetica,sans-Serif" font-size="10.00">ostream</text>
</a>
</g>
</g>
<!-- Node1&#45;&gt;Node15 -->
<g id="edge21_Node000001_Node000015" class="edge">
<title>Node1&#45;&gt;Node15</title>
<g id="a_edge21_Node000001_Node000015"><a xlink:title=" ">
<path fill="none" stroke="#63b8ff" d="M942,-164.75C942,-157.8 942,-147.85 942,-139.13"/>
<polygon fill="#63b8ff" stroke="#63b8ff" points="945.5,-139.09 942,-129.09 938.5,-139.09 945.5,-139.09"/>
</a>
</g>
</g>
<!-- Node16 -->
<g id="Node000016" class="node">
<title>Node16</title>
<g id="a_Node000016"><a xlink:title=" ">
<polygon fill="#e0e0e0" stroke="#999999" points="1045,-129 989,-129 989,-110 1045,-110 1045,-129"/>
<text text-anchor="middle" x="1017" y="-117" font-family="Helvetica,sans-Serif" font-size="10.00">sstream</text>
</a>
</g>
</g>
<!-- Node1&#45;&gt;Node16 -->
<g id="edge22_Node000001_Node000016" class="edge">
<title>Node1&#45;&gt;Node16</title>
<g id="a_edge22_Node000001_Node000016"><a xlink:title=" ">
<path fill="none" stroke="#63b8ff" d="M954.05,-164.98C965.46,-156.92 982.83,-144.65 996.43,-135.03"/>
<polygon fill="#63b8ff" stroke="#63b8ff" points="998.58,-137.8 1004.73,-129.17 994.54,-132.08 998.58,-137.8"/>
</a>
</g>
</g>
<!-- Node17 -->
<g id="Node000017" class="node">
<title>Node17</title>
<g id="a_Node000017"><a xlink:title=" ">
<polygon fill="#e0e0e0" stroke="#999999" points="1156.5,-129 1063.5,-129 1063.5,-110 1156.5,-110 1156.5,-129"/>
<text text-anchor="middle" x="1110" y="-117" font-family="Helvetica,sans-Serif" font-size="10.00">spdlog/spdlog.h</text>
</a>
</g>
</g>
<!-- Node1&#45;&gt;Node17 -->
<g id="edge23_Node000001_Node000017" class="edge">
<title>Node1&#45;&gt;Node17</title>
<g id="a_edge23_Node000001_Node000017"><a xlink:title=" ">
<path fill="none" stroke="#63b8ff" d="M968.99,-164.98C997.2,-156.09 1041.64,-142.07 1073.08,-132.15"/>
<polygon fill="#63b8ff" stroke="#63b8ff" points="1074.31,-135.43 1082.8,-129.08 1072.21,-128.75 1074.31,-135.43"/>
</a>
</g>
</g>
<!-- Node18 -->
<g id="Node000018" class="node">
<title>Node18</title>
<g id="a_Node000018"><a xlink:title=" ">
<polygon fill="#e0e0e0" stroke="#999999" points="1317.5,-129 1174.5,-129 1174.5,-110 1317.5,-110 1317.5,-129"/>
<text text-anchor="middle" x="1246" y="-117" font-family="Helvetica,sans-Serif" font-size="10.00">clang/AST/DeclTemplate.h</text>
</a>
</g>
</g>
<!-- Node1&#45;&gt;Node18 -->
<g id="edge26_Node000001_Node000018" class="edge">
<title>Node1&#45;&gt;Node18</title>
<g id="a_edge26_Node000001_Node000018"><a xlink:title=" ">
<path fill="none" stroke="#63b8ff" d="M990.17,-165.1C1043.55,-155.8 1129.67,-140.78 1187.04,-130.78"/>
<polygon fill="#63b8ff" stroke="#63b8ff" points="1187.8,-134.2 1197.05,-129.03 1186.6,-127.3 1187.8,-134.2"/>
</a>
</g>
</g>
<!-- Node19 -->
<g id="Node000019" class="node">
<title>Node19</title>
<g id="a_Node000019"><a xlink:title=" ">
<polygon fill="#e0e0e0" stroke="#999999" points="1486.5,-129 1335.5,-129 1335.5,-110 1486.5,-110 1486.5,-129"/>
<text text-anchor="middle" x="1411" y="-117" font-family="Helvetica,sans-Serif" font-size="10.00">clang/AST/TemplateName.h</text>
</a>
</g>
</g>
<!-- Node1&#45;&gt;Node19 -->
<g id="edge27_Node000001_Node000019" class="edge">
<title>Node1&#45;&gt;Node19</title>
<g id="a_edge27_Node000001_Node000019"><a xlink:title=" ">
<path fill="none" stroke="#63b8ff" d="M990.42,-168.03C1069.43,-159.1 1227.06,-141.29 1325.31,-130.18"/>
<polygon fill="#63b8ff" stroke="#63b8ff" points="1325.97,-133.63 1335.51,-129.03 1325.19,-126.68 1325.97,-133.63"/>
</a>
</g>
</g>
<!-- Node20 -->
<g id="Node000020" class="node">
<title>Node20</title>
<g id="a_Node000020"><a xlink:href="Parsing_8hpp.html" target="_top" xlink:title="Helper functions for parsing information from AST nodes.">
<polygon fill="white" stroke="#666666" points="167.5,-129 94.5,-129 94.5,-110 167.5,-110 167.5,-129"/>
<text text-anchor="middle" x="131" y="-117" font-family="Helvetica,sans-Serif" font-size="10.00">Parsing.hpp</text>
</a>
</g>
</g>
<!-- Node1&#45;&gt;Node20 -->
<g id="edge28_Node000001_Node000020" class="edge">
<title>Node1&#45;&gt;Node20</title>
<g id="a_edge28_Node000001_Node000020"><a xlink:title=" ">
<path fill="none" stroke="#63b8ff" d="M894,-170.36C749.59,-160.93 320.38,-132.88 177.7,-123.55"/>
<polygon fill="#63b8ff" stroke="#63b8ff" points="177.74,-120.05 167.54,-122.89 177.29,-127.03 177.74,-120.05"/>
</a>
</g>
</g>
<!-- Node3 -->
<g id="Node000003" class="node">
<title>Node3</title>
<g id="a_Node000003"><a xlink:title=" ">
<polygon fill="#e0e0e0" stroke="#999999" points="44,-19 0,-19 0,0 44,0 44,-19"/>
<text text-anchor="middle" x="22" y="-7" font-family="Helvetica,sans-Serif" font-size="10.00">string</text>
</a>
</g>
</g>
<!-- Node2&#45;&gt;Node3 -->
<g id="edge2_Node000002_Node000003" class="edge">
<title>Node2&#45;&gt;Node3</title>
<g id="a_edge2_Node000002_Node000003"><a xlink:title=" ">
<path fill="none" stroke="#63b8ff" d="M435.67,-115.65C381.48,-111 282.62,-99.57 202,-74 183.62,-68.17 180.91,-62.14 163,-55 143.09,-47.06 89.15,-30.54 54.05,-20.01"/>
<polygon fill="#63b8ff" stroke="#63b8ff" points="54.84,-16.6 44.26,-17.09 52.84,-23.3 54.84,-16.6"/>
</a>
</g>
</g>
<!-- Node4 -->
<g id="Node000004" class="node">
<title>Node4</title>
<g id="a_Node000004"><a xlink:title=" ">
<polygon fill="#e0e0e0" stroke="#999999" points="154.5,-74 107.5,-74 107.5,-55 154.5,-55 154.5,-74"/>
<text text-anchor="middle" x="131" y="-62" font-family="Helvetica,sans-Serif" font-size="10.00">vector</text>
</a>
</g>
</g>
<!-- Node2&#45;&gt;Node4 -->
<g id="edge3_Node000002_Node000004" class="edge">
<title>Node2&#45;&gt;Node4</title>
<g id="a_edge3_Node000002_Node000004"><a xlink:title=" ">
<path fill="none" stroke="#63b8ff" d="M435.61,-113.64C376.76,-106.34 264.07,-91.5 169,-74 167.55,-73.73 166.06,-73.45 164.57,-73.15"/>
<polygon fill="#63b8ff" stroke="#63b8ff" points="165.16,-69.7 154.66,-71.08 163.73,-76.55 165.16,-69.7"/>
</a>
</g>
</g>
<!-- Node5 -->
<g id="Node000005" class="node">
<title>Node5</title>
<g id="a_Node000005"><a xlink:title=" ">
<polygon fill="#e0e0e0" stroke="#999999" points="450.5,-19 381.5,-19 381.5,0 450.5,0 450.5,-19"/>
<text text-anchor="middle" x="416" y="-7" font-family="Helvetica,sans-Serif" font-size="10.00">fmt/color.h</text>
</a>
</g>
</g>
<!-- Node2&#45;&gt;Node5 -->
<g id="edge4_Node000002_Node000005" class="edge">
<title>Node2&#45;&gt;Node5</title>
<g id="a_edge4_Node000002_Node000005"><a xlink:title=" ">
<path fill="none" stroke="#63b8ff" d="M471.09,-109.66C461.2,-91.85 438.7,-51.37 425.73,-28.01"/>
<polygon fill="#63b8ff" stroke="#63b8ff" points="428.73,-26.2 420.81,-19.16 422.61,-29.6 428.73,-26.2"/>
</a>
</g>
</g>
<!-- Node6 -->
<g id="Node000006" class="node">
<title>Node6</title>
<g id="a_Node000006"><a xlink:title=" ">
<polygon fill="#e0e0e0" stroke="#999999" points="535.5,-19 468.5,-19 468.5,0 535.5,0 535.5,-19"/>
<text text-anchor="middle" x="502" y="-7" font-family="Helvetica,sans-Serif" font-size="10.00">fmt/core.h</text>
</a>
</g>
</g>
<!-- Node2&#45;&gt;Node6 -->
<g id="edge5_Node000002_Node000006" class="edge">
<title>Node2&#45;&gt;Node6</title>
<g id="a_edge5_Node000002_Node000006"><a xlink:title=" ">
<path fill="none" stroke="#63b8ff" d="M478.13,-109.66C482.36,-92.09 491.9,-52.45 497.56,-28.95"/>
<polygon fill="#63b8ff" stroke="#63b8ff" points="500.98,-29.7 499.92,-19.16 494.17,-28.06 500.98,-29.7"/>
</a>
</g>
</g>
<!-- Node7 -->
<g id="Node000007" class="node">
<title>Node7</title>
<g id="a_Node000007"><a xlink:title=" ">
<polygon fill="#e0e0e0" stroke="#999999" points="602.5,-74 523.5,-74 523.5,-55 602.5,-55 602.5,-74"/>
<text text-anchor="middle" x="563" y="-62" font-family="Helvetica,sans-Serif" font-size="10.00">fmt/ranges.h</text>
</a>
</g>
</g>
<!-- Node2&#45;&gt;Node7 -->
<g id="edge6_Node000002_Node000007" class="edge">
<title>Node2&#45;&gt;Node7</title>
<g id="a_edge6_Node000002_Node000007"><a xlink:title=" ">
<path fill="none" stroke="#63b8ff" d="M489.98,-109.98C503.47,-101.77 524.13,-89.18 540.04,-79.49"/>
<polygon fill="#63b8ff" stroke="#63b8ff" points="542.05,-82.36 548.77,-74.17 538.41,-76.38 542.05,-82.36"/>
</a>
</g>
</g>
<!-- Node2&#45;&gt;Node8 -->
<g id="edge7_Node000002_Node000008" class="edge">
<title>Node2&#45;&gt;Node8</title>
<g id="a_edge7_Node000002_Node000008"><a xlink:title=" ">
<path fill="none" stroke="#63b8ff" d="M516.01,-111.89C571.04,-102.81 670.63,-86.36 735.26,-75.69"/>
<polygon fill="#63b8ff" stroke="#63b8ff" points="736.03,-79.11 745.32,-74.03 734.89,-72.21 736.03,-79.11"/>
</a>
</g>
</g>
<!-- Node9 -->
<g id="Node000009" class="node">
<title>Node9</title>
<g id="a_Node000009"><a xlink:title=" ">
<polygon fill="#e0e0e0" stroke="#999999" points="719.5,-74 620.5,-74 620.5,-55 719.5,-55 719.5,-74"/>
<text text-anchor="middle" x="670" y="-62" font-family="Helvetica,sans-Serif" font-size="10.00">clang/AST/Type.h</text>
</a>
</g>
</g>
<!-- Node2&#45;&gt;Node9 -->
<g id="edge8_Node000002_Node000009" class="edge">
<title>Node2&#45;&gt;Node9</title>
<g id="a_edge8_Node000002_Node000009"><a xlink:title=" ">
<path fill="none" stroke="#63b8ff" d="M507.17,-109.98C540.16,-100.97 592.4,-86.7 628.77,-76.76"/>
<polygon fill="#63b8ff" stroke="#63b8ff" points="629.86,-80.09 638.59,-74.08 628.02,-73.34 629.86,-80.09"/>
</a>
</g>
</g>
<!-- Node10 -->
<g id="Node000010" class="node">
<title>Node10</title>
<g id="a_Node000010"><a xlink:href="Param_8hpp.html" target="_top" xlink:title=" ">
<polygon fill="white" stroke="#666666" points="429,-74 361,-74 361,-55 429,-55 429,-74"/>
<text text-anchor="middle" x="395" y="-62" font-family="Helvetica,sans-Serif" font-size="10.00">Param.hpp</text>
</a>
</g>
</g>
<!-- Node2&#45;&gt;Node10 -->
<g id="edge9_Node000002_Node000010" class="edge">
<title>Node2&#45;&gt;Node10</title>
<g id="a_edge9_Node000002_Node000010"><a xlink:title=" ">
<path fill="none" stroke="#63b8ff" d="M462.99,-109.98C450.54,-101.84 431.54,-89.41 416.79,-79.76"/>
<polygon fill="#63b8ff" stroke="#63b8ff" points="418.54,-76.72 408.25,-74.17 414.7,-82.57 418.54,-76.72"/>
</a>
</g>
</g>
<!-- Node13 -->
<g id="Node000013" class="node">
<title>Node13</title>
<g id="a_Node000013"><a xlink:href="TemplateArgument_8hpp.html" target="_top" xlink:title=" ">
<polygon fill="white" stroke="#666666" points="342.5,-74 211.5,-74 211.5,-55 342.5,-55 342.5,-74"/>
<text text-anchor="middle" x="277" y="-62" font-family="Helvetica,sans-Serif" font-size="10.00">TemplateArgument.hpp</text>
</a>
</g>
</g>
<!-- Node2&#45;&gt;Node13 -->
<g id="edge15_Node000002_Node000013" class="edge">
<title>Node2&#45;&gt;Node13</title>
<g id="a_edge15_Node000002_Node000013"><a xlink:title=" ">
<path fill="none" stroke="#63b8ff" d="M444.03,-109.98C410.18,-100.97 356.6,-86.7 319.29,-76.76"/>
<polygon fill="#63b8ff" stroke="#63b8ff" points="319.79,-73.27 309.22,-74.08 317.99,-80.04 319.79,-73.27"/>
</a>
</g>
</g>
<!-- Node10&#45;&gt;Node3 -->
<g id="edge10_Node000010_Node000003" class="edge">
<title>Node10&#45;&gt;Node3</title>
<g id="a_edge10_Node000010_Node000003"><a xlink:title=" ">
<path fill="none" stroke="#63b8ff" d="M360.93,-56.67C357.58,-56.08 354.23,-55.51 351,-55 222.42,-34.84 185.69,-44.22 54.3,-18.99"/>
<polygon fill="#63b8ff" stroke="#63b8ff" points="54.74,-15.51 44.26,-17.03 53.4,-22.38 54.74,-15.51"/>
</a>
</g>
</g>
<!-- Node10&#45;&gt;Node5 -->
<g id="edge11_Node000010_Node000005" class="edge">
<title>Node10&#45;&gt;Node5</title>
<g id="a_edge11_Node000010_Node000005"><a xlink:title=" ">
<path fill="none" stroke="#63b8ff" d="M398.47,-54.75C401.28,-47.65 405.34,-37.4 408.85,-28.56"/>
<polygon fill="#63b8ff" stroke="#63b8ff" points="412.17,-29.68 412.6,-19.09 405.66,-27.1 412.17,-29.68"/>
</a>
</g>
</g>
<!-- Node10&#45;&gt;Node6 -->
<g id="edge12_Node000010_Node000006" class="edge">
<title>Node10&#45;&gt;Node6</title>
<g id="a_edge12_Node000010_Node000006"><a xlink:title=" ">
<path fill="none" stroke="#63b8ff" d="M412.19,-54.98C429.25,-46.54 455.63,-33.47 475.4,-23.68"/>
<polygon fill="#63b8ff" stroke="#63b8ff" points="477.09,-26.75 484.5,-19.17 473.98,-20.47 477.09,-26.75"/>
</a>
</g>
</g>
<!-- Node10&#45;&gt;Node11 -->
<g id="edge13_Node000010_Node000011" class="edge">
<title>Node10&#45;&gt;Node11</title>
<g id="a_edge13_Node000010_Node000011"><a xlink:title=" ">
<path fill="none" stroke="#63b8ff" d="M429.1,-58.32C488.4,-49.32 611.2,-30.67 684.71,-19.5"/>
<polygon fill="#63b8ff" stroke="#63b8ff" points="685.38,-22.94 694.74,-17.98 684.33,-16.02 685.38,-22.94"/>
</a>
</g>
</g>
<!-- Node12 -->
<g id="Node000012" class="node">
<title>Node12</title>
<g id="a_Node000012"><a xlink:title=" ">
<polygon fill="#e0e0e0" stroke="#999999" points="363.5,-19 226.5,-19 226.5,0 363.5,0 363.5,-19"/>
<text text-anchor="middle" x="295" y="-7" font-family="Helvetica,sans-Serif" font-size="10.00">clang/AST/PrettyPrinter.h</text>
</a>
</g>
</g>
<!-- Node10&#45;&gt;Node12 -->
<g id="edge14_Node000010_Node000012" class="edge">
<title>Node10&#45;&gt;Node12</title>
<g id="a_edge14_Node000010_Node000012"><a xlink:title=" ">
<path fill="none" stroke="#63b8ff" d="M378.93,-54.98C363.14,-46.61 338.78,-33.7 320.37,-23.95"/>
<polygon fill="#63b8ff" stroke="#63b8ff" points="321.83,-20.76 311.36,-19.17 318.56,-26.95 321.83,-20.76"/>
</a>
</g>
</g>
<!-- Node13&#45;&gt;Node3 -->
<g id="edge17_Node000013_Node000003" class="edge">
<title>Node13&#45;&gt;Node3</title>
<g id="a_edge17_Node000013_Node000003"><a xlink:title=" ">
<path fill="none" stroke="#63b8ff" d="M228.72,-54.94C185.43,-47.03 119.98,-34.51 54.4,-19.2"/>
<polygon fill="#63b8ff" stroke="#63b8ff" points="54.84,-15.71 44.3,-16.82 53.23,-22.52 54.84,-15.71"/>
</a>
</g>
</g>
<!-- Node13&#45;&gt;Node5 -->
<g id="edge18_Node000013_Node000005" class="edge">
<title>Node13&#45;&gt;Node5</title>
<g id="a_edge18_Node000013_Node000005"><a xlink:title=" ">
<path fill="none" stroke="#63b8ff" d="M299.33,-54.98C322.2,-46.27 357.96,-32.63 383.86,-22.75"/>
<polygon fill="#63b8ff" stroke="#63b8ff" points="385.16,-26 393.26,-19.17 382.67,-19.46 385.16,-26"/>
</a>
</g>
</g>
<!-- Node13&#45;&gt;Node6 -->
<g id="edge19_Node000013_Node000006" class="edge">
<title>Node13&#45;&gt;Node6</title>
<g id="a_edge19_Node000013_Node000006"><a xlink:title=" ">
<path fill="none" stroke="#63b8ff" d="M313.15,-54.98C352.71,-45.67 416.12,-30.73 458.41,-20.77"/>
<polygon fill="#63b8ff" stroke="#63b8ff" points="459.22,-24.17 468.15,-18.47 457.61,-17.36 459.22,-24.17"/>
</a>
</g>
</g>
<!-- Node13&#45;&gt;Node12 -->
<g id="edge20_Node000013_Node000012" class="edge">
<title>Node13&#45;&gt;Node12</title>
<g id="a_edge20_Node000013_Node000012"><a xlink:title=" ">
<path fill="none" stroke="#63b8ff" d="M279.97,-54.75C282.36,-47.72 285.79,-37.62 288.77,-28.84"/>
<polygon fill="#63b8ff" stroke="#63b8ff" points="292.18,-29.68 292.08,-19.09 285.55,-27.43 292.18,-29.68"/>
</a>
</g>
</g>
<!-- Node14 -->
<g id="Node000014" class="node">
<title>Node14</title>
<g id="a_Node000014"><a xlink:title=" ">
<polygon fill="#e0e0e0" stroke="#999999" points="208,-19 62,-19 62,0 208,0 208,-19"/>
<text text-anchor="middle" x="135" y="-7" font-family="Helvetica,sans-Serif" font-size="10.00">clang/AST/TemplateBase.h</text>
</a>
</g>
</g>
<!-- Node13&#45;&gt;Node14 -->
<g id="edge16_Node000013_Node000014" class="edge">
<title>Node13&#45;&gt;Node14</title>
<g id="a_edge16_Node000013_Node000014"><a xlink:title=" ">
<path fill="none" stroke="#63b8ff" d="M254.19,-54.98C230.83,-46.27 194.3,-32.63 167.83,-22.75"/>
<polygon fill="#63b8ff" stroke="#63b8ff" points="168.82,-19.39 158.23,-19.17 166.37,-25.95 168.82,-19.39"/>
</a>
</g>
</g>
<!-- Node20&#45;&gt;Node3 -->
<g id="edge29_Node000020_Node000003" class="edge">
<title>Node20&#45;&gt;Node3</title>
<g id="a_edge29_Node000020_Node000003"><a xlink:title=" ">
<path fill="none" stroke="#63b8ff" d="M114.81,-109.94C100.62,-101.91 79.97,-88.94 65,-74 51.2,-60.23 39.12,-41.43 31.3,-27.87"/>
<polygon fill="#63b8ff" stroke="#63b8ff" points="34.32,-26.1 26.4,-19.06 28.21,-29.5 34.32,-26.1"/>
</a>
</g>
</g>
<!-- Node20&#45;&gt;Node4 -->
<g id="edge30_Node000020_Node000004" class="edge">
<title>Node20&#45;&gt;Node4</title>
<g id="a_edge30_Node000020_Node000004"><a xlink:title=" ">
<path fill="none" stroke="#63b8ff" d="M131,-109.75C131,-102.8 131,-92.85 131,-84.13"/>
<polygon fill="#63b8ff" stroke="#63b8ff" points="134.5,-84.09 131,-74.09 127.5,-84.09 134.5,-84.09"/>
</a>
</g>
</g>
<!-- Node20&#45;&gt;Node10 -->
<g id="edge32_Node000020_Node000010" class="edge">
<title>Node20&#45;&gt;Node10</title>
<g id="a_edge32_Node000020_Node000010"><a xlink:title=" ">
<path fill="none" stroke="#63b8ff" d="M167.71,-111.13C215.66,-101.5 299.53,-84.67 350.88,-74.36"/>
<polygon fill="#63b8ff" stroke="#63b8ff" points="351.58,-77.79 360.7,-72.39 350.2,-70.92 351.58,-77.79"/>
</a>
</g>
</g>
<!-- Node20&#45;&gt;Node12 -->
<g id="edge31_Node000020_Node000012" class="edge">
<title>Node20&#45;&gt;Node12</title>
<g id="a_edge31_Node000020_Node000012"><a xlink:title=" ">
<path fill="none" stroke="#63b8ff" d="M120.31,-109.65C106.02,-96.77 84.04,-72.47 98,-55 106.53,-44.33 177.64,-30.17 232.01,-20.71"/>
<polygon fill="#63b8ff" stroke="#63b8ff" points="232.68,-24.15 241.94,-19 231.5,-17.25 232.68,-24.15"/>
</a>
</g>
</g>
</g>
</svg>
