<?xml version="1.0" encoding="UTF-8" standalone="no"?>
<!DOCTYPE svg PUBLIC "-//W3C//DTD SVG 1.1//EN"
 "http://www.w3.org/Graphics/SVG/1.1/DTD/svg11.dtd">
<!-- Generated by graphviz version 2.43.0 (0)
 -->
<!-- Title: src/Callbacks/InjectInstantiation.cpp Pages: 1 -->
<svg width="1326pt" height="274pt"
 viewBox="0.00 0.00 1326.00 274.00" xmlns="http://www.w3.org/2000/svg" xmlns:xlink="http://www.w3.org/1999/xlink">
<g id="graph0" class="graph" transform="scale(1 1) rotate(0) translate(4 270)">
<title>src/Callbacks/InjectInstantiation.cpp</title>
<!-- Node1 -->
<g id="node1" class="node">
<title>Node1</title>
<g id="a_node1"><a xlink:title=" ">
<polygon fill="#bfbfbf" stroke="black" points="580,-246.5 580,-265.5 773,-265.5 773,-246.5 580,-246.5"/>
<text text-anchor="middle" x="676.5" y="-253.5" font-family="Helvetica,sans-Serif" font-size="10.00">src/Callbacks/InjectInstantiation.cpp</text>
</a>
</g>
</g>
<!-- Node2 -->
<g id="node2" class="node">
<title>Node2</title>
<g id="a_node2"><a xlink:title=" ">
<polygon fill="none" stroke="#bfbfbf" points="79.5,-185 79.5,-204 139.5,-204 139.5,-185 79.5,-185"/>
<text text-anchor="middle" x="109.5" y="-192" font-family="Helvetica,sans-Serif" font-size="10.00">iostream</text>
</a>
</g>
</g>
<!-- Node1&#45;&gt;Node2 -->
<g id="edge1" class="edge">
<title>Node1&#45;&gt;Node2</title>
<path fill="none" stroke="midnightblue" d="M579.93,-254.57C473.15,-252.3 296.62,-243.2 148.5,-210 145.43,-209.31 142.27,-208.44 139.15,-207.46"/>
<polygon fill="midnightblue" stroke="midnightblue" points="140.02,-204.06 129.43,-204.09 137.73,-210.67 140.02,-204.06"/>
</g>
<!-- Node3 -->
<g id="node3" class="node">
<title>Node3</title>
<g id="a_node3"><a xlink:title=" ">
<polygon fill="none" stroke="#bfbfbf" points="157.5,-185 157.5,-204 291.5,-204 291.5,-185 157.5,-185"/>
<text text-anchor="middle" x="224.5" y="-192" font-family="Helvetica,sans-Serif" font-size="10.00">termcolor/termcolor.hpp</text>
</a>
</g>
</g>
<!-- Node1&#45;&gt;Node3 -->
<g id="edge2" class="edge">
<title>Node1&#45;&gt;Node3</title>
<path fill="none" stroke="midnightblue" d="M591.15,-246.49C514.79,-238.48 399.9,-225.41 300.5,-210 292.75,-208.8 284.59,-207.39 276.6,-205.94"/>
<polygon fill="midnightblue" stroke="midnightblue" points="277.09,-202.47 266.62,-204.08 275.81,-209.35 277.09,-202.47"/>
</g>
<!-- Node4 -->
<g id="node4" class="node">
<title>Node4</title>
<g id="a_node4"><a xlink:href="InjectInstantiation_8hpp.html" target="_top" xlink:title=" ">
<polygon fill="none" stroke="black" points="309.5,-185 309.5,-204 485.5,-204 485.5,-185 309.5,-185"/>
<text text-anchor="middle" x="397.5" y="-192" font-family="Helvetica,sans-Serif" font-size="10.00">Callbacks/InjectInstantiation.hpp</text>
</a>
</g>
</g>
<!-- Node1&#45;&gt;Node4 -->
<g id="edge3" class="edge">
<title>Node1&#45;&gt;Node4</title>
<path fill="none" stroke="midnightblue" d="M636.53,-246.48C586.7,-235.85 501.53,-217.68 447.45,-206.15"/>
<polygon fill="midnightblue" stroke="midnightblue" points="447.91,-202.67 437.4,-204.01 446.45,-209.52 447.91,-202.67"/>
</g>
<!-- Node7 -->
<g id="node7" class="node">
<title>Node7</title>
<g id="a_node7"><a xlink:href="Injection_8hpp.html" target="_top" xlink:title=" ">
<polygon fill="none" stroke="black" points="431.5,-118 431.5,-137 511.5,-137 511.5,-118 431.5,-118"/>
<text text-anchor="middle" x="471.5" y="-125" font-family="Helvetica,sans-Serif" font-size="10.00">Injection.hpp</text>
</a>
</g>
</g>
<!-- Node1&#45;&gt;Node7 -->
<g id="edge26" class="edge">
<title>Node1&#45;&gt;Node7</title>
<path fill="none" stroke="midnightblue" d="M669.39,-246.38C656.35,-231.02 627.11,-198.7 596.5,-179 569.92,-161.89 536.59,-148.78 511.03,-140.21"/>
<polygon fill="midnightblue" stroke="midnightblue" points="511.89,-136.81 501.3,-137.03 509.72,-143.46 511.89,-136.81"/>
</g>
<!-- Node10 -->
<g id="node10" class="node">
<title>Node10</title>
<g id="a_node10"><a xlink:title=" ">
<polygon fill="none" stroke="#bfbfbf" points="735.5,-56.5 735.5,-75.5 853.5,-75.5 853.5,-56.5 735.5,-56.5"/>
<text text-anchor="middle" x="794.5" y="-63.5" font-family="Helvetica,sans-Serif" font-size="10.00">llvm/ADT/StringRef.h</text>
</a>
</g>
</g>
<!-- Node1&#45;&gt;Node10 -->
<g id="edge20" class="edge">
<title>Node1&#45;&gt;Node10</title>
<path fill="none" stroke="midnightblue" d="M681.07,-246.44C688.71,-232.25 704.7,-203 719.5,-179 740.68,-144.64 767.37,-105.74 782.52,-84.02"/>
<polygon fill="midnightblue" stroke="midnightblue" points="785.57,-85.77 788.44,-75.57 779.84,-81.75 785.57,-85.77"/>
</g>
<!-- Node11 -->
<g id="node11" class="node">
<title>Node11</title>
<g id="a_node11"><a xlink:title=" ">
<polygon fill="none" stroke="#bfbfbf" points="598,-56.5 598,-75.5 717,-75.5 717,-56.5 598,-56.5"/>
<text text-anchor="middle" x="657.5" y="-63.5" font-family="Helvetica,sans-Serif" font-size="10.00">clang/AST/DeclCXX.h</text>
</a>
</g>
</g>
<!-- Node1&#45;&gt;Node11 -->
<g id="edge22" class="edge">
<title>Node1&#45;&gt;Node11</title>
<path fill="none" stroke="midnightblue" d="M675.63,-246.43C672.75,-217.87 663.4,-125.43 659.38,-85.57"/>
<polygon fill="midnightblue" stroke="midnightblue" points="662.86,-85.21 658.37,-75.62 655.89,-85.92 662.86,-85.21"/>
</g>
<!-- Node15 -->
<g id="node15" class="node">
<title>Node15</title>
<g id="a_node15"><a xlink:title=" ">
<polygon fill="none" stroke="#bfbfbf" points="824.5,-0.5 824.5,-19.5 922.5,-19.5 922.5,-0.5 824.5,-0.5"/>
<text text-anchor="middle" x="873.5" y="-7.5" font-family="Helvetica,sans-Serif" font-size="10.00">clang/AST/Decl.h</text>
</a>
</g>
</g>
<!-- Node1&#45;&gt;Node15 -->
<g id="edge21" class="edge">
<title>Node1&#45;&gt;Node15</title>
<path fill="none" stroke="midnightblue" d="M685.45,-246.04C699.74,-231.77 728.64,-203.01 753.5,-179 801.44,-132.7 831.09,-134.79 862.5,-76 870.17,-61.65 872.71,-43.19 873.46,-29.61"/>
<polygon fill="midnightblue" stroke="midnightblue" points="876.96,-29.64 873.73,-19.55 869.96,-29.45 876.96,-29.64"/>
</g>
<!-- Node18 -->
<g id="node18" class="node">
<title>Node18</title>
<g id="a_node18"><a xlink:title=" ">
<polygon fill="none" stroke="#bfbfbf" points="762,-185 762,-204 861,-204 861,-185 762,-185"/>
<text text-anchor="middle" x="811.5" y="-192" font-family="Helvetica,sans-Serif" font-size="10.00">llvm/ADT/APInt.h</text>
</a>
</g>
</g>
<!-- Node1&#45;&gt;Node18 -->
<g id="edge19" class="edge">
<title>Node1&#45;&gt;Node18</title>
<path fill="none" stroke="midnightblue" d="M695.84,-246.48C718.6,-236.45 756.59,-219.7 782.79,-208.15"/>
<polygon fill="midnightblue" stroke="midnightblue" points="784.45,-211.24 792.19,-204.01 781.63,-204.84 784.45,-211.24"/>
</g>
<!-- Node19 -->
<g id="node19" class="node">
<title>Node19</title>
<g id="a_node19"><a xlink:title=" ">
<polygon fill="none" stroke="#bfbfbf" points="879,-185 879,-204 1022,-204 1022,-185 879,-185"/>
<text text-anchor="middle" x="950.5" y="-192" font-family="Helvetica,sans-Serif" font-size="10.00">clang/AST/DeclTemplate.h</text>
</a>
</g>
</g>
<!-- Node1&#45;&gt;Node19 -->
<g id="edge23" class="edge">
<title>Node1&#45;&gt;Node19</title>
<path fill="none" stroke="midnightblue" d="M715.76,-246.48C764.69,-235.85 848.34,-217.68 901.45,-206.15"/>
<polygon fill="midnightblue" stroke="midnightblue" points="902.29,-209.55 911.32,-204.01 900.8,-202.71 902.29,-209.55"/>
</g>
<!-- Node20 -->
<g id="node20" class="node">
<title>Node20</title>
<g id="a_node20"><a xlink:title=" ">
<polygon fill="none" stroke="#bfbfbf" points="1040,-185 1040,-204 1191,-204 1191,-185 1040,-185"/>
<text text-anchor="middle" x="1115.5" y="-192" font-family="Helvetica,sans-Serif" font-size="10.00">clang/AST/TemplateName.h</text>
</a>
</g>
</g>
<!-- Node1&#45;&gt;Node20 -->
<g id="edge24" class="edge">
<title>Node1&#45;&gt;Node20</title>
<path fill="none" stroke="midnightblue" d="M751.43,-246.49C823.37,-238.09 935.04,-224.43 1031.5,-210 1040.22,-208.7 1049.43,-207.21 1058.43,-205.71"/>
<polygon fill="midnightblue" stroke="midnightblue" points="1059.19,-209.13 1068.47,-204 1058.02,-202.22 1059.19,-209.13"/>
</g>
<!-- Node21 -->
<g id="node21" class="node">
<title>Node21</title>
<g id="a_node21"><a xlink:title=" ">
<polygon fill="none" stroke="#bfbfbf" points="1209,-179.5 1209,-209.5 1318,-209.5 1318,-179.5 1209,-179.5"/>
<text text-anchor="start" x="1217" y="-197.5" font-family="Helvetica,sans-Serif" font-size="10.00">clang/Rewrite/Core</text>
<text text-anchor="middle" x="1263.5" y="-186.5" font-family="Helvetica,sans-Serif" font-size="10.00">/Rewriter.h</text>
</a>
</g>
</g>
<!-- Node1&#45;&gt;Node21 -->
<g id="edge25" class="edge">
<title>Node1&#45;&gt;Node21</title>
<path fill="none" stroke="midnightblue" d="M773.09,-250.78C876.33,-245.34 1044.91,-233.8 1198.84,-210.12"/>
<polygon fill="midnightblue" stroke="midnightblue" points="1199.61,-213.55 1208.96,-208.55 1198.54,-206.63 1199.61,-213.55"/>
</g>
<!-- Node22 -->
<g id="node22" class="node">
<title>Node22</title>
<g id="a_node22"><a xlink:href="Template_8hpp.html" target="_top" xlink:title=" ">
<polygon fill="none" stroke="black" points="504,-185 504,-204 587,-204 587,-185 504,-185"/>
<text text-anchor="middle" x="545.5" y="-192" font-family="Helvetica,sans-Serif" font-size="10.00">Template.hpp</text>
</a>
</g>
</g>
<!-- Node1&#45;&gt;Node22 -->
<g id="edge27" class="edge">
<title>Node1&#45;&gt;Node22</title>
<path fill="none" stroke="midnightblue" d="M657.73,-246.48C635.65,-236.45 598.78,-219.7 573.36,-208.15"/>
<polygon fill="midnightblue" stroke="midnightblue" points="574.79,-204.96 564.23,-204.01 571.89,-211.33 574.79,-204.96"/>
</g>
<!-- Node5 -->
<g id="node5" class="node">
<title>Node5</title>
<g id="a_node5"><a xlink:title=" ">
<polygon fill="none" stroke="#bfbfbf" points="178,-56.5 178,-75.5 225,-75.5 225,-56.5 178,-56.5"/>
<text text-anchor="middle" x="201.5" y="-63.5" font-family="Helvetica,sans-Serif" font-size="10.00">vector</text>
</a>
</g>
</g>
<!-- Node4&#45;&gt;Node5 -->
<g id="edge4" class="edge">
<title>Node4&#45;&gt;Node5</title>
<path fill="none" stroke="midnightblue" d="M341.71,-184.97C294.05,-176.52 230.56,-162.07 213.5,-143 199.75,-127.63 198.22,-103.16 199.17,-86.15"/>
<polygon fill="midnightblue" stroke="midnightblue" points="202.7,-86.05 200.11,-75.78 195.72,-85.42 202.7,-86.05"/>
</g>
<!-- Node6 -->
<g id="node6" class="node">
<title>Node6</title>
<g id="a_node6"><a xlink:title=" ">
<polygon fill="none" stroke="#bfbfbf" points="0,-112.5 0,-142.5 161,-142.5 161,-112.5 0,-112.5"/>
<text text-anchor="start" x="8" y="-130.5" font-family="Helvetica,sans-Serif" font-size="10.00">clang/ASTMatchers/ASTMatch</text>
<text text-anchor="middle" x="80.5" y="-119.5" font-family="Helvetica,sans-Serif" font-size="10.00">Finder.h</text>
</a>
</g>
</g>
<!-- Node4&#45;&gt;Node6 -->
<g id="edge5" class="edge">
<title>Node4&#45;&gt;Node6</title>
<path fill="none" stroke="midnightblue" d="M355.73,-184.94C305.88,-174.71 221.47,-157.41 159.24,-144.65"/>
<polygon fill="midnightblue" stroke="midnightblue" points="159.56,-141.14 149.07,-142.56 158.16,-148 159.56,-141.14"/>
</g>
<!-- Node4&#45;&gt;Node7 -->
<g id="edge6" class="edge">
<title>Node4&#45;&gt;Node7</title>
<path fill="none" stroke="midnightblue" d="M407.48,-184.73C419.35,-174.31 439.39,-156.71 453.88,-143.97"/>
<polygon fill="midnightblue" stroke="midnightblue" points="456.47,-146.36 461.68,-137.13 451.86,-141.1 456.47,-146.36"/>
</g>
<!-- Node7&#45;&gt;Node5 -->
<g id="edge9" class="edge">
<title>Node7&#45;&gt;Node5</title>
<path fill="none" stroke="midnightblue" d="M432.82,-117.98C379.86,-106.31 285.65,-85.54 235.35,-74.46"/>
<polygon fill="midnightblue" stroke="midnightblue" points="235.83,-70.98 225.31,-72.25 234.33,-77.82 235.83,-70.98"/>
</g>
<!-- Node8 -->
<g id="node8" class="node">
<title>Node8</title>
<g id="a_node8"><a xlink:title=" ">
<polygon fill="none" stroke="#bfbfbf" points="437.5,-56.5 437.5,-75.5 493.5,-75.5 493.5,-56.5 437.5,-56.5"/>
<text text-anchor="middle" x="465.5" y="-63.5" font-family="Helvetica,sans-Serif" font-size="10.00">optional</text>
</a>
</g>
</g>
<!-- Node7&#45;&gt;Node8 -->
<g id="edge7" class="edge">
<title>Node7&#45;&gt;Node8</title>
<path fill="none" stroke="midnightblue" d="M470.64,-117.98C469.79,-109.58 468.47,-96.48 467.38,-85.66"/>
<polygon fill="midnightblue" stroke="midnightblue" points="470.84,-85.11 466.36,-75.51 463.88,-85.81 470.84,-85.11"/>
</g>
<!-- Node9 -->
<g id="node9" class="node">
<title>Node9</title>
<g id="a_node9"><a xlink:title=" ">
<polygon fill="none" stroke="#bfbfbf" points="333.5,-0.5 333.5,-19.5 377.5,-19.5 377.5,-0.5 333.5,-0.5"/>
<text text-anchor="middle" x="355.5" y="-7.5" font-family="Helvetica,sans-Serif" font-size="10.00">string</text>
</a>
</g>
</g>
<!-- Node7&#45;&gt;Node9 -->
<g id="edge8" class="edge">
<title>Node7&#45;&gt;Node9</title>
<path fill="none" stroke="midnightblue" d="M462.78,-117.82C443.38,-98.5 396.41,-51.74 371.55,-26.98"/>
<polygon fill="midnightblue" stroke="midnightblue" points="373.88,-24.36 364.32,-19.78 368.94,-29.32 373.88,-24.36"/>
</g>
<!-- Node7&#45;&gt;Node10 -->
<g id="edge10" class="edge">
<title>Node7&#45;&gt;Node10</title>
<path fill="none" stroke="midnightblue" d="M511.76,-119.08C568.82,-108.57 673.49,-89.29 738.22,-77.37"/>
<polygon fill="midnightblue" stroke="midnightblue" points="739.05,-80.77 748.25,-75.52 737.78,-73.89 739.05,-80.77"/>
</g>
<!-- Node7&#45;&gt;Node11 -->
<g id="edge11" class="edge">
<title>Node7&#45;&gt;Node11</title>
<path fill="none" stroke="midnightblue" d="M498.15,-117.98C530.47,-107.64 585.1,-90.16 621.23,-78.6"/>
<polygon fill="midnightblue" stroke="midnightblue" points="622.44,-81.89 630.9,-75.51 620.31,-75.22 622.44,-81.89"/>
</g>
<!-- Node12 -->
<g id="node12" class="node">
<title>Node12</title>
<g id="a_node12"><a xlink:title=" ">
<polygon fill="none" stroke="#bfbfbf" points="282,-56.5 282,-75.5 381,-75.5 381,-56.5 282,-56.5"/>
<text text-anchor="middle" x="331.5" y="-63.5" font-family="Helvetica,sans-Serif" font-size="10.00">clang/AST/Type.h</text>
</a>
</g>
</g>
<!-- Node7&#45;&gt;Node12 -->
<g id="edge12" class="edge">
<title>Node7&#45;&gt;Node12</title>
<path fill="none" stroke="midnightblue" d="M451.44,-117.98C427.74,-107.9 388.09,-91.05 360.92,-79.5"/>
<polygon fill="midnightblue" stroke="midnightblue" points="362.09,-76.2 351.52,-75.51 359.36,-82.64 362.09,-76.2"/>
</g>
<!-- Node13 -->
<g id="node13" class="node">
<title>Node13</title>
<g id="a_node13"><a xlink:href="Param_8hpp.html" target="_top" xlink:title=" ">
<polygon fill="none" stroke="black" points="511.5,-56.5 511.5,-75.5 579.5,-75.5 579.5,-56.5 511.5,-56.5"/>
<text text-anchor="middle" x="545.5" y="-63.5" font-family="Helvetica,sans-Serif" font-size="10.00">Param.hpp</text>
</a>
</g>
</g>
<!-- Node7&#45;&gt;Node13 -->
<g id="edge13" class="edge">
<title>Node7&#45;&gt;Node13</title>
<path fill="none" stroke="midnightblue" d="M482.1,-117.98C493.75,-108.61 512.69,-93.38 526.83,-82.01"/>
<polygon fill="midnightblue" stroke="midnightblue" points="529.32,-84.5 534.92,-75.51 524.93,-79.05 529.32,-84.5"/>
</g>
<!-- Node13&#45;&gt;Node9 -->
<g id="edge15" class="edge">
<title>Node13&#45;&gt;Node9</title>
<path fill="none" stroke="midnightblue" d="M515,-56.43C484.92,-47.97 437.38,-34.56 387.23,-20.2"/>
<polygon fill="midnightblue" stroke="midnightblue" points="388.09,-16.8 377.51,-17.41 386.16,-23.53 388.09,-16.8"/>
</g>
<!-- Node14 -->
<g id="node14" class="node">
<title>Node14</title>
<g id="a_node14"><a xlink:title=" ">
<polygon fill="none" stroke="#bfbfbf" points="396,-0.5 396,-19.5 453,-19.5 453,-0.5 396,-0.5"/>
<text text-anchor="middle" x="424.5" y="-7.5" font-family="Helvetica,sans-Serif" font-size="10.00">ostream</text>
</a>
</g>
</g>
<!-- Node13&#45;&gt;Node14 -->
<g id="edge14" class="edge">
<title>Node13&#45;&gt;Node14</title>
<path fill="none" stroke="midnightblue" d="M526.33,-56.44C506.59,-47.64 475.61,-33.81 453.01,-23.72"/>
<polygon fill="midnightblue" stroke="midnightblue" points="454.14,-20.4 443.58,-19.52 451.29,-26.79 454.14,-20.4"/>
</g>
<!-- Node13&#45;&gt;Node15 -->
<g id="edge16" class="edge">
<title>Node13&#45;&gt;Node15</title>
<path fill="none" stroke="midnightblue" d="M579.58,-57.87C582.93,-57.22 586.28,-56.58 589.5,-56 667,-41.94 756.85,-28.12 814.38,-19.58"/>
<polygon fill="midnightblue" stroke="midnightblue" points="815.01,-23.03 824.39,-18.1 813.98,-16.1 815.01,-23.03"/>
</g>
<!-- Node16 -->
<g id="node16" class="node">
<title>Node16</title>
<g id="a_node16"><a xlink:title=" ">
<polygon fill="none" stroke="#bfbfbf" points="471.5,-0.5 471.5,-19.5 635.5,-19.5 635.5,-0.5 471.5,-0.5"/>
<text text-anchor="middle" x="553.5" y="-7.5" font-family="Helvetica,sans-Serif" font-size="10.00">clang/AST/DependenceFlags.h</text>
</a>
</g>
</g>
<!-- Node13&#45;&gt;Node16 -->
<g id="edge17" class="edge">
<title>Node13&#45;&gt;Node16</title>
<path fill="none" stroke="midnightblue" d="M546.82,-56.08C547.88,-48.93 549.41,-38.64 550.73,-29.69"/>
<polygon fill="midnightblue" stroke="midnightblue" points="554.2,-30.16 552.2,-19.75 547.28,-29.13 554.2,-30.16"/>
</g>
<!-- Node17 -->
<g id="node17" class="node">
<title>Node17</title>
<g id="a_node17"><a xlink:title=" ">
<polygon fill="none" stroke="#bfbfbf" points="654,-0.5 654,-19.5 791,-19.5 791,-0.5 654,-0.5"/>
<text text-anchor="middle" x="722.5" y="-7.5" font-family="Helvetica,sans-Serif" font-size="10.00">clang/AST/PrettyPrinter.h</text>
</a>
</g>
</g>
<!-- Node13&#45;&gt;Node17 -->
<g id="edge18" class="edge">
<title>Node13&#45;&gt;Node17</title>
<path fill="none" stroke="midnightblue" d="M573.55,-56.44C603.58,-47.28 651.41,-32.69 684.74,-22.52"/>
<polygon fill="midnightblue" stroke="midnightblue" points="686.04,-25.78 694.59,-19.52 684,-19.09 686.04,-25.78"/>
</g>
<!-- Node22&#45;&gt;Node5 -->
<g id="edge29" class="edge">
<title>Node22&#45;&gt;Node5</title>
<path fill="none" stroke="midnightblue" d="M517.87,-184.94C510.34,-182.8 502.15,-180.65 494.5,-179 387.77,-156.02 343.54,-201.73 251.5,-143 230.13,-129.36 215.9,-102.95 208.26,-85.15"/>
<polygon fill="midnightblue" stroke="midnightblue" points="211.49,-83.79 204.52,-75.82 204.99,-86.4 211.49,-83.79"/>
</g>
<!-- Node22&#45;&gt;Node7 -->
<g id="edge32" class="edge">
<title>Node22&#45;&gt;Node7</title>
<path fill="none" stroke="midnightblue" d="M535.52,-184.73C523.65,-174.31 503.61,-156.71 489.12,-143.97"/>
<polygon fill="midnightblue" stroke="midnightblue" points="491.14,-141.1 481.32,-137.13 486.53,-146.36 491.14,-141.1"/>
</g>
<!-- Node22&#45;&gt;Node9 -->
<g id="edge28" class="edge">
<title>Node22&#45;&gt;Node9</title>
<path fill="none" stroke="midnightblue" d="M515.95,-184.91C469.25,-171.29 382.97,-145.98 376.5,-143 326.55,-120.01 298.82,-124.27 272.5,-76 258.41,-50.16 294.78,-31.13 323.77,-20.56"/>
<polygon fill="midnightblue" stroke="midnightblue" points="324.92,-23.86 333.23,-17.3 322.64,-17.24 324.92,-23.86"/>
</g>
<!-- Node22&#45;&gt;Node11 -->
<g id="edge30" class="edge">
<title>Node22&#45;&gt;Node11</title>
<path fill="none" stroke="midnightblue" d="M553.2,-184.81C571.74,-163.86 619.12,-110.35 643.11,-83.25"/>
<polygon fill="midnightblue" stroke="midnightblue" points="645.74,-85.56 649.75,-75.76 640.5,-80.92 645.74,-85.56"/>
</g>
<!-- Node22&#45;&gt;Node12 -->
<g id="edge31" class="edge">
<title>Node22&#45;&gt;Node12</title>
<path fill="none" stroke="midnightblue" d="M517.97,-184.92C492.27,-176.28 453.34,-161.6 422.5,-143 393.72,-125.64 364.63,-99.51 347.34,-82.86"/>
<polygon fill="midnightblue" stroke="midnightblue" points="349.44,-80.02 339.85,-75.52 344.55,-85.02 349.44,-80.02"/>
</g>
<!-- Node22&#45;&gt;Node13 -->
<g id="edge33" class="edge">
<title>Node22&#45;&gt;Node13</title>
<path fill="none" stroke="midnightblue" d="M545.5,-184.81C545.5,-164.49 545.5,-113.55 545.5,-85.78"/>
<polygon fill="midnightblue" stroke="midnightblue" points="549,-85.76 545.5,-75.76 542,-85.76 549,-85.76"/>
</g>
</g>
</svg>
