<?xml version="1.0" encoding="UTF-8" standalone="no"?>
<!DOCTYPE svg PUBLIC "-//W3C//DTD SVG 1.1//EN"
 "http://www.w3.org/Graphics/SVG/1.1/DTD/svg11.dtd">
<!-- Generated by graphviz version 2.43.0 (0)
 -->
<!-- Title: src/Injection.cpp Pages: 1 -->
<svg width="1356pt" height="192pt"
 viewBox="0.00 0.00 1356.00 192.00" xmlns="http://www.w3.org/2000/svg" xmlns:xlink="http://www.w3.org/1999/xlink">
<g id="graph0" class="graph" transform="scale(1 1) rotate(0) translate(4 188)">
<title>src/Injection.cpp</title>
<!-- Node1 -->
<g id="Node000001" class="node">
<title>Node1</title>
<g id="a_Node000001"><a xlink:title=" ">
<polygon fill="#999999" stroke="#666666" points="851.5,-184 755.5,-184 755.5,-165 851.5,-165 851.5,-184"/>
<text text-anchor="middle" x="803.5" y="-172" font-family="Helvetica,sans-Serif" font-size="10.00">src/Injection.cpp</text>
</a>
</g>
</g>
<!-- Node2 -->
<g id="Node000002" class="node">
<title>Node2</title>
<g id="a_Node000002"><a xlink:href="Injection_8hpp.html" target="_top" xlink:title=" ">
<polygon fill="white" stroke="#666666" points="425.5,-129 345.5,-129 345.5,-110 425.5,-110 425.5,-129"/>
<text text-anchor="middle" x="385.5" y="-117" font-family="Helvetica,sans-Serif" font-size="10.00">Injection.hpp</text>
</a>
</g>
</g>
<!-- Node1&#45;&gt;Node2 -->
<g id="edge1_Node000001_Node000002" class="edge">
<title>Node1&#45;&gt;Node2</title>
<g id="a_edge1_Node000001_Node000002"><a xlink:title=" ">
<path fill="none" stroke="#63b8ff" d="M755.14,-167.37C675.28,-157.24 516.63,-137.13 435.62,-126.86"/>
<polygon fill="#63b8ff" stroke="#63b8ff" points="436.03,-123.38 425.67,-125.59 435.15,-130.32 436.03,-123.38"/>
</a>
</g>
</g>
<!-- Node8 -->
<g id="Node000008" class="node">
<title>Node8</title>
<g id="a_Node000008"><a xlink:title=" ">
<polygon fill="#e0e0e0" stroke="#999999" points="718,-74 599,-74 599,-55 718,-55 718,-74"/>
<text text-anchor="middle" x="658.5" y="-62" font-family="Helvetica,sans-Serif" font-size="10.00">clang/AST/DeclCXX.h</text>
</a>
</g>
</g>
<!-- Node1&#45;&gt;Node8 -->
<g id="edge19_Node000001_Node000008" class="edge">
<title>Node1&#45;&gt;Node8</title>
<g id="a_edge19_Node000001_Node000008"><a xlink:title=" ">
<path fill="none" stroke="#63b8ff" d="M788.39,-164.92C773.72,-156.38 751.01,-142.63 732.5,-129 711.99,-113.9 690.02,-94.61 675.4,-81.28"/>
<polygon fill="#63b8ff" stroke="#63b8ff" points="677.43,-78.39 667.7,-74.19 672.69,-83.54 677.43,-78.39"/>
</a>
</g>
</g>
<!-- Node11 -->
<g id="Node000011" class="node">
<title>Node11</title>
<g id="a_Node000011"><a xlink:title=" ">
<polygon fill="#e0e0e0" stroke="#999999" points="709.5,-19 611.5,-19 611.5,0 709.5,0 709.5,-19"/>
<text text-anchor="middle" x="660.5" y="-7" font-family="Helvetica,sans-Serif" font-size="10.00">clang/AST/Decl.h</text>
</a>
</g>
</g>
<!-- Node1&#45;&gt;Node11 -->
<g id="edge18_Node000001_Node000011" class="edge">
<title>Node1&#45;&gt;Node11</title>
<g id="a_edge18_Node000001_Node000011"><a xlink:title=" ">
<path fill="none" stroke="#63b8ff" d="M795.26,-164.73C787.35,-156.05 775.32,-142.2 766.5,-129 745.84,-98.09 752.42,-82.58 727.5,-55 716.09,-42.37 700.36,-31.68 687.01,-23.95"/>
<polygon fill="#63b8ff" stroke="#63b8ff" points="688.67,-20.87 678.23,-19.08 685.27,-26.99 688.67,-20.87"/>
</a>
</g>
</g>
<!-- Node13 -->
<g id="Node000013" class="node">
<title>Node13</title>
<g id="a_Node000013"><a xlink:title=" ">
<polygon fill="#e0e0e0" stroke="#999999" points="832,-129 775,-129 775,-110 832,-110 832,-129"/>
<text text-anchor="middle" x="803.5" y="-117" font-family="Helvetica,sans-Serif" font-size="10.00">ostream</text>
</a>
</g>
</g>
<!-- Node1&#45;&gt;Node13 -->
<g id="edge15_Node000001_Node000013" class="edge">
<title>Node1&#45;&gt;Node13</title>
<g id="a_edge15_Node000001_Node000013"><a xlink:title=" ">
<path fill="none" stroke="#63b8ff" d="M803.5,-164.75C803.5,-157.8 803.5,-147.85 803.5,-139.13"/>
<polygon fill="#63b8ff" stroke="#63b8ff" points="807,-139.09 803.5,-129.09 800,-139.09 807,-139.09"/>
</a>
</g>
</g>
<!-- Node14 -->
<g id="Node000014" class="node">
<title>Node14</title>
<g id="a_Node000014"><a xlink:title=" ">
<polygon fill="#e0e0e0" stroke="#999999" points="906.5,-129 850.5,-129 850.5,-110 906.5,-110 906.5,-129"/>
<text text-anchor="middle" x="878.5" y="-117" font-family="Helvetica,sans-Serif" font-size="10.00">sstream</text>
</a>
</g>
</g>
<!-- Node1&#45;&gt;Node14 -->
<g id="edge16_Node000001_Node000014" class="edge">
<title>Node1&#45;&gt;Node14</title>
<g id="a_edge16_Node000001_Node000014"><a xlink:title=" ">
<path fill="none" stroke="#63b8ff" d="M815.55,-164.98C826.96,-156.92 844.33,-144.65 857.93,-135.03"/>
<polygon fill="#63b8ff" stroke="#63b8ff" points="860.08,-137.8 866.23,-129.17 856.04,-132.08 860.08,-137.8"/>
</a>
</g>
</g>
<!-- Node15 -->
<g id="Node000015" class="node">
<title>Node15</title>
<g id="a_Node000015"><a xlink:title=" ">
<polygon fill="#e0e0e0" stroke="#999999" points="1018,-129 925,-129 925,-110 1018,-110 1018,-129"/>
<text text-anchor="middle" x="971.5" y="-117" font-family="Helvetica,sans-Serif" font-size="10.00">spdlog/spdlog.h</text>
</a>
</g>
</g>
<!-- Node1&#45;&gt;Node15 -->
<g id="edge17_Node000001_Node000015" class="edge">
<title>Node1&#45;&gt;Node15</title>
<g id="a_edge17_Node000001_Node000015"><a xlink:title=" ">
<path fill="none" stroke="#63b8ff" d="M830.49,-164.98C858.7,-156.09 903.14,-142.07 934.58,-132.15"/>
<polygon fill="#63b8ff" stroke="#63b8ff" points="935.81,-135.43 944.3,-129.08 933.71,-128.75 935.81,-135.43"/>
</a>
</g>
</g>
<!-- Node16 -->
<g id="Node000016" class="node">
<title>Node16</title>
<g id="a_Node000016"><a xlink:title=" ">
<polygon fill="#e0e0e0" stroke="#999999" points="1179,-129 1036,-129 1036,-110 1179,-110 1179,-129"/>
<text text-anchor="middle" x="1107.5" y="-117" font-family="Helvetica,sans-Serif" font-size="10.00">clang/AST/DeclTemplate.h</text>
</a>
</g>
</g>
<!-- Node1&#45;&gt;Node16 -->
<g id="edge20_Node000001_Node000016" class="edge">
<title>Node1&#45;&gt;Node16</title>
<g id="a_edge20_Node000001_Node000016"><a xlink:title=" ">
<path fill="none" stroke="#63b8ff" d="M851.67,-165.1C905.05,-155.8 991.17,-140.78 1048.54,-130.78"/>
<polygon fill="#63b8ff" stroke="#63b8ff" points="1049.3,-134.2 1058.55,-129.03 1048.1,-127.3 1049.3,-134.2"/>
</a>
</g>
</g>
<!-- Node17 -->
<g id="Node000017" class="node">
<title>Node17</title>
<g id="a_Node000017"><a xlink:title=" ">
<polygon fill="#e0e0e0" stroke="#999999" points="1348,-129 1197,-129 1197,-110 1348,-110 1348,-129"/>
<text text-anchor="middle" x="1272.5" y="-117" font-family="Helvetica,sans-Serif" font-size="10.00">clang/AST/TemplateName.h</text>
</a>
</g>
</g>
<!-- Node1&#45;&gt;Node17 -->
<g id="edge21_Node000001_Node000017" class="edge">
<title>Node1&#45;&gt;Node17</title>
<g id="a_edge21_Node000001_Node000017"><a xlink:title=" ">
<path fill="none" stroke="#63b8ff" d="M851.92,-168.03C930.93,-159.1 1088.56,-141.29 1186.81,-130.18"/>
<polygon fill="#63b8ff" stroke="#63b8ff" points="1187.47,-133.63 1197.01,-129.03 1186.69,-126.68 1187.47,-133.63"/>
</a>
</g>
</g>
<!-- Node18 -->
<g id="Node000018" class="node">
<title>Node18</title>
<g id="a_Node000018"><a xlink:href="Parsing_8hpp.html" target="_top" xlink:title="Helper functions for parsing information from AST nodes.">
<polygon fill="white" stroke="#666666" points="178,-129 105,-129 105,-110 178,-110 178,-129"/>
<text text-anchor="middle" x="141.5" y="-117" font-family="Helvetica,sans-Serif" font-size="10.00">Parsing.hpp</text>
</a>
</g>
</g>
<!-- Node1&#45;&gt;Node18 -->
<g id="edge22_Node000001_Node000018" class="edge">
<title>Node1&#45;&gt;Node18</title>
<g id="a_edge22_Node000001_Node000018"><a xlink:title=" ">
<path fill="none" stroke="#63b8ff" d="M755.36,-169.65C632.63,-159.82 309.24,-133.93 188.15,-124.24"/>
<polygon fill="#63b8ff" stroke="#63b8ff" points="188.34,-120.74 178.09,-123.43 187.78,-127.72 188.34,-120.74"/>
</a>
</g>
</g>
<!-- Node3 -->
<g id="Node000003" class="node">
<title>Node3</title>
<g id="a_Node000003"><a xlink:title=" ">
<polygon fill="#e0e0e0" stroke="#999999" points="215.5,-19 171.5,-19 171.5,0 215.5,0 215.5,-19"/>
<text text-anchor="middle" x="193.5" y="-7" font-family="Helvetica,sans-Serif" font-size="10.00">string</text>
</a>
</g>
</g>
<!-- Node2&#45;&gt;Node3 -->
<g id="edge2_Node000002_Node000003" class="edge">
<title>Node2&#45;&gt;Node3</title>
<g id="a_edge2_Node000002_Node000003"><a xlink:title=" ">
<path fill="none" stroke="#63b8ff" d="M345.48,-118.91C306.53,-117.12 248.15,-108.29 212.5,-74 200.46,-62.42 195.96,-43.55 194.33,-29.38"/>
<polygon fill="#63b8ff" stroke="#63b8ff" points="197.81,-28.96 193.54,-19.26 190.83,-29.5 197.81,-28.96"/>
</a>
</g>
</g>
<!-- Node4 -->
<g id="Node000004" class="node">
<title>Node4</title>
<g id="a_Node000004"><a xlink:title=" ">
<polygon fill="#e0e0e0" stroke="#999999" points="165,-74 118,-74 118,-55 165,-55 165,-74"/>
<text text-anchor="middle" x="141.5" y="-62" font-family="Helvetica,sans-Serif" font-size="10.00">vector</text>
</a>
</g>
</g>
<!-- Node2&#45;&gt;Node4 -->
<g id="edge3_Node000002_Node000004" class="edge">
<title>Node2&#45;&gt;Node4</title>
<g id="a_edge3_Node000002_Node000004"><a xlink:title=" ">
<path fill="none" stroke="#63b8ff" d="M345.6,-109.97C304.09,-101.08 237.21,-86.69 179.5,-74 178.06,-73.68 176.58,-73.36 175.09,-73.03"/>
<polygon fill="#63b8ff" stroke="#63b8ff" points="175.73,-69.58 165.21,-70.83 174.21,-76.42 175.73,-69.58"/>
</a>
</g>
</g>
<!-- Node5 -->
<g id="Node000005" class="node">
<title>Node5</title>
<g id="a_Node000005"><a xlink:title=" ">
<polygon fill="#e0e0e0" stroke="#999999" points="327,-19 258,-19 258,0 327,0 327,-19"/>
<text text-anchor="middle" x="292.5" y="-7" font-family="Helvetica,sans-Serif" font-size="10.00">fmt/color.h</text>
</a>
</g>
</g>
<!-- Node2&#45;&gt;Node5 -->
<g id="edge4_Node000002_Node000005" class="edge">
<title>Node2&#45;&gt;Node5</title>
<g id="a_edge4_Node000002_Node000005"><a xlink:title=" ">
<path fill="none" stroke="#63b8ff" d="M374.72,-109.93C364.33,-101.4 348.47,-87.65 336.5,-74 323.69,-59.39 311.29,-40.99 302.94,-27.76"/>
<polygon fill="#63b8ff" stroke="#63b8ff" points="305.86,-25.83 297.62,-19.17 299.91,-29.51 305.86,-25.83"/>
</a>
</g>
</g>
<!-- Node6 -->
<g id="Node000006" class="node">
<title>Node6</title>
<g id="a_Node000006"><a xlink:title=" ">
<polygon fill="#e0e0e0" stroke="#999999" points="508,-19 441,-19 441,0 508,0 508,-19"/>
<text text-anchor="middle" x="474.5" y="-7" font-family="Helvetica,sans-Serif" font-size="10.00">fmt/core.h</text>
</a>
</g>
</g>
<!-- Node2&#45;&gt;Node6 -->
<g id="edge5_Node000002_Node000006" class="edge">
<title>Node2&#45;&gt;Node6</title>
<g id="a_edge5_Node000002_Node000006"><a xlink:title=" ">
<path fill="none" stroke="#63b8ff" d="M425.85,-113.33C469.92,-106.76 536.29,-93.83 551.5,-74 567.63,-52.97 537,-34.4 509.72,-22.86"/>
<polygon fill="#63b8ff" stroke="#63b8ff" points="510.88,-19.55 500.29,-19.08 508.27,-26.05 510.88,-19.55"/>
</a>
</g>
</g>
<!-- Node7 -->
<g id="Node000007" class="node">
<title>Node7</title>
<g id="a_Node000007"><a xlink:title=" ">
<polygon fill="#e0e0e0" stroke="#999999" points="425,-74 346,-74 346,-55 425,-55 425,-74"/>
<text text-anchor="middle" x="385.5" y="-62" font-family="Helvetica,sans-Serif" font-size="10.00">fmt/ranges.h</text>
</a>
</g>
</g>
<!-- Node2&#45;&gt;Node7 -->
<g id="edge6_Node000002_Node000007" class="edge">
<title>Node2&#45;&gt;Node7</title>
<g id="a_edge6_Node000002_Node000007"><a xlink:title=" ">
<path fill="none" stroke="#63b8ff" d="M385.5,-109.75C385.5,-102.8 385.5,-92.85 385.5,-84.13"/>
<polygon fill="#63b8ff" stroke="#63b8ff" points="389,-84.09 385.5,-74.09 382,-84.09 389,-84.09"/>
</a>
</g>
</g>
<!-- Node2&#45;&gt;Node8 -->
<g id="edge7_Node000002_Node000008" class="edge">
<title>Node2&#45;&gt;Node8</title>
<g id="a_edge7_Node000002_Node000008"><a xlink:title=" ">
<path fill="none" stroke="#63b8ff" d="M425.78,-110.68C473.16,-101.48 551.99,-86.18 604.6,-75.96"/>
<polygon fill="#63b8ff" stroke="#63b8ff" points="605.28,-79.4 614.43,-74.06 603.95,-72.53 605.28,-79.4"/>
</a>
</g>
</g>
<!-- Node9 -->
<g id="Node000009" class="node">
<title>Node9</title>
<g id="a_Node000009"><a xlink:title=" ">
<polygon fill="#e0e0e0" stroke="#999999" points="542,-74 443,-74 443,-55 542,-55 542,-74"/>
<text text-anchor="middle" x="492.5" y="-62" font-family="Helvetica,sans-Serif" font-size="10.00">clang/AST/Type.h</text>
</a>
</g>
</g>
<!-- Node2&#45;&gt;Node9 -->
<g id="edge8_Node000002_Node000009" class="edge">
<title>Node2&#45;&gt;Node9</title>
<g id="a_edge8_Node000002_Node000009"><a xlink:title=" ">
<path fill="none" stroke="#63b8ff" d="M402.69,-109.98C419.75,-101.54 446.13,-88.47 465.9,-78.68"/>
<polygon fill="#63b8ff" stroke="#63b8ff" points="467.59,-81.75 475,-74.17 464.48,-75.47 467.59,-81.75"/>
</a>
</g>
</g>
<!-- Node10 -->
<g id="Node000010" class="node">
<title>Node10</title>
<g id="a_Node000010"><a xlink:href="Param_8hpp.html" target="_top" xlink:title=" ">
<polygon fill="white" stroke="#666666" points="289.5,-74 221.5,-74 221.5,-55 289.5,-55 289.5,-74"/>
<text text-anchor="middle" x="255.5" y="-62" font-family="Helvetica,sans-Serif" font-size="10.00">Param.hpp</text>
</a>
</g>
</g>
<!-- Node2&#45;&gt;Node10 -->
<g id="edge9_Node000002_Node000010" class="edge">
<title>Node2&#45;&gt;Node10</title>
<g id="a_edge9_Node000002_Node000010"><a xlink:title=" ">
<path fill="none" stroke="#63b8ff" d="M364.61,-109.98C343.42,-101.34 310.37,-87.87 286.2,-78.02"/>
<polygon fill="#63b8ff" stroke="#63b8ff" points="287.35,-74.7 276.77,-74.17 284.71,-81.19 287.35,-74.7"/>
</a>
</g>
</g>
<!-- Node10&#45;&gt;Node3 -->
<g id="edge10_Node000010_Node000003" class="edge">
<title>Node10&#45;&gt;Node3</title>
<g id="a_edge10_Node000010_Node000003"><a xlink:title=" ">
<path fill="none" stroke="#63b8ff" d="M245.54,-54.98C236.37,-47.15 222.56,-35.34 211.47,-25.86"/>
<polygon fill="#63b8ff" stroke="#63b8ff" points="213.52,-23.01 203.64,-19.17 208.97,-28.33 213.52,-23.01"/>
</a>
</g>
</g>
<!-- Node10&#45;&gt;Node5 -->
<g id="edge11_Node000010_Node000005" class="edge">
<title>Node10&#45;&gt;Node5</title>
<g id="a_edge11_Node000010_Node000005"><a xlink:title=" ">
<path fill="none" stroke="#63b8ff" d="M261.61,-54.75C266.78,-47.34 274.35,-36.5 280.69,-27.41"/>
<polygon fill="#63b8ff" stroke="#63b8ff" points="283.65,-29.29 286.5,-19.09 277.91,-25.29 283.65,-29.29"/>
</a>
</g>
</g>
<!-- Node10&#45;&gt;Node6 -->
<g id="edge12_Node000010_Node000006" class="edge">
<title>Node10&#45;&gt;Node6</title>
<g id="a_edge12_Node000010_Node000006"><a xlink:title=" ">
<path fill="none" stroke="#63b8ff" d="M289.72,-55.22C327.84,-45.99 389.55,-31.06 431.05,-21.01"/>
<polygon fill="#63b8ff" stroke="#63b8ff" points="431.98,-24.39 440.88,-18.64 430.34,-17.59 431.98,-24.39"/>
</a>
</g>
</g>
<!-- Node10&#45;&gt;Node11 -->
<g id="edge13_Node000010_Node000011" class="edge">
<title>Node10&#45;&gt;Node11</title>
<g id="a_edge13_Node000010_Node000011"><a xlink:title=" ">
<path fill="none" stroke="#63b8ff" d="M289.68,-59.03C358.68,-50 515.32,-29.5 601.29,-18.25"/>
<polygon fill="#63b8ff" stroke="#63b8ff" points="601.96,-21.69 611.42,-16.92 601.05,-14.75 601.96,-21.69"/>
</a>
</g>
</g>
<!-- Node12 -->
<g id="Node000012" class="node">
<title>Node12</title>
<g id="a_Node000012"><a xlink:title=" ">
<polygon fill="#e0e0e0" stroke="#999999" points="137,-19 0,-19 0,0 137,0 137,-19"/>
<text text-anchor="middle" x="68.5" y="-7" font-family="Helvetica,sans-Serif" font-size="10.00">clang/AST/PrettyPrinter.h</text>
</a>
</g>
</g>
<!-- Node10&#45;&gt;Node12 -->
<g id="edge14_Node000010_Node000012" class="edge">
<title>Node10&#45;&gt;Node12</title>
<g id="a_edge14_Node000010_Node000012"><a xlink:title=" ">
<path fill="none" stroke="#63b8ff" d="M225.46,-54.98C193.79,-46.01 143.73,-31.82 108.69,-21.89"/>
<polygon fill="#63b8ff" stroke="#63b8ff" points="109.36,-18.44 98.78,-19.08 107.45,-25.18 109.36,-18.44"/>
</a>
</g>
</g>
<!-- Node18&#45;&gt;Node3 -->
<g id="edge23_Node000018_Node000003" class="edge">
<title>Node18&#45;&gt;Node3</title>
<g id="a_edge23_Node000018_Node000003"><a xlink:title=" ">
<path fill="none" stroke="#63b8ff" d="M130.99,-109.68C117.48,-97.23 97.05,-73.92 108.5,-55 119.98,-36.04 142.49,-24.76 161.47,-18.31"/>
<polygon fill="#63b8ff" stroke="#63b8ff" points="162.75,-21.58 171.27,-15.28 160.68,-14.89 162.75,-21.58"/>
</a>
</g>
</g>
<!-- Node18&#45;&gt;Node4 -->
<g id="edge24_Node000018_Node000004" class="edge">
<title>Node18&#45;&gt;Node4</title>
<g id="a_edge24_Node000018_Node000004"><a xlink:title=" ">
<path fill="none" stroke="#63b8ff" d="M141.5,-109.75C141.5,-102.8 141.5,-92.85 141.5,-84.13"/>
<polygon fill="#63b8ff" stroke="#63b8ff" points="145,-84.09 141.5,-74.09 138,-84.09 145,-84.09"/>
</a>
</g>
</g>
<!-- Node18&#45;&gt;Node10 -->
<g id="edge26_Node000018_Node000010" class="edge">
<title>Node18&#45;&gt;Node10</title>
<g id="a_edge26_Node000018_Node000010"><a xlink:title=" ">
<path fill="none" stroke="#63b8ff" d="M159.82,-109.98C178.16,-101.46 206.61,-88.23 227.73,-78.41"/>
<polygon fill="#63b8ff" stroke="#63b8ff" points="229.26,-81.56 236.85,-74.17 226.31,-75.21 229.26,-81.56"/>
</a>
</g>
</g>
<!-- Node18&#45;&gt;Node12 -->
<g id="edge25_Node000018_Node000012" class="edge">
<title>Node18&#45;&gt;Node12</title>
<g id="a_edge25_Node000018_Node000012"><a xlink:title=" ">
<path fill="none" stroke="#63b8ff" d="M132.51,-109.86C123.89,-101.28 110.85,-87.49 101.5,-74 91.45,-59.49 82.4,-41.54 76.32,-28.42"/>
<polygon fill="#63b8ff" stroke="#63b8ff" points="79.43,-26.79 72.13,-19.11 73.04,-29.66 79.43,-26.79"/>
</a>
</g>
</g>
</g>
</svg>
