<?xml version="1.0" encoding="UTF-8" standalone="no"?>
<!DOCTYPE svg PUBLIC "-//W3C//DTD SVG 1.1//EN"
 "http://www.w3.org/Graphics/SVG/1.1/DTD/svg11.dtd">
<!-- Generated by graphviz version 2.43.0 (0)
 -->
<!-- Title: src/Callbacks/InjectInstantiation.cpp Pages: 1 -->
<svg width="1065pt" height="274pt"
 viewBox="0.00 0.00 1065.00 274.00" xmlns="http://www.w3.org/2000/svg" xmlns:xlink="http://www.w3.org/1999/xlink">
<g id="graph0" class="graph" transform="scale(1 1) rotate(0) translate(4 270)">
<title>src/Callbacks/InjectInstantiation.cpp</title>
<!-- Node1 -->
<g id="node1" class="node">
<title>Node1</title>
<g id="a_node1"><a xlink:title=" ">
<polygon fill="#bfbfbf" stroke="black" points="441,-246.5 441,-265.5 634,-265.5 634,-246.5 441,-246.5"/>
<text text-anchor="middle" x="537.5" y="-253.5" font-family="Helvetica,sans-Serif" font-size="10.00">src/Callbacks/InjectInstantiation.cpp</text>
</a>
</g>
</g>
<!-- Node2 -->
<g id="node2" class="node">
<title>Node2</title>
<g id="a_node2"><a xlink:title=" ">
<polygon fill="none" stroke="#bfbfbf" points="1.5,-185 1.5,-204 61.5,-204 61.5,-185 1.5,-185"/>
<text text-anchor="middle" x="31.5" y="-192" font-family="Helvetica,sans-Serif" font-size="10.00">iostream</text>
</a>
</g>
</g>
<!-- Node1&#45;&gt;Node2 -->
<g id="edge1" class="edge">
<title>Node1&#45;&gt;Node2</title>
<path fill="none" stroke="midnightblue" d="M440.63,-252.98C345.36,-249.29 196.32,-238.93 70.5,-210 67.43,-209.29 64.28,-208.41 61.15,-207.42"/>
<polygon fill="midnightblue" stroke="midnightblue" points="62.03,-204.02 51.44,-204.05 59.73,-210.64 62.03,-204.02"/>
</g>
<!-- Node3 -->
<g id="node3" class="node">
<title>Node3</title>
<g id="a_node3"><a xlink:title=" ">
<polygon fill="none" stroke="#bfbfbf" points="79.5,-185 79.5,-204 213.5,-204 213.5,-185 79.5,-185"/>
<text text-anchor="middle" x="146.5" y="-192" font-family="Helvetica,sans-Serif" font-size="10.00">termcolor/termcolor.hpp</text>
</a>
</g>
</g>
<!-- Node1&#45;&gt;Node3 -->
<g id="edge2" class="edge">
<title>Node1&#45;&gt;Node3</title>
<path fill="none" stroke="midnightblue" d="M471.6,-246.5C407.77,-238.04 308.32,-224.31 222.5,-210 215.04,-208.76 207.18,-207.36 199.46,-205.93"/>
<polygon fill="midnightblue" stroke="midnightblue" points="199.92,-202.46 189.44,-204.06 198.63,-209.34 199.92,-202.46"/>
</g>
<!-- Node4 -->
<g id="node4" class="node">
<title>Node4</title>
<g id="a_node4"><a xlink:href="InjectInstantiation_8hpp.html" target="_top" xlink:title=" ">
<polygon fill="none" stroke="black" points="231.5,-185 231.5,-204 407.5,-204 407.5,-185 231.5,-185"/>
<text text-anchor="middle" x="319.5" y="-192" font-family="Helvetica,sans-Serif" font-size="10.00">Callbacks/InjectInstantiation.hpp</text>
</a>
</g>
</g>
<!-- Node1&#45;&gt;Node4 -->
<g id="edge3" class="edge">
<title>Node1&#45;&gt;Node4</title>
<path fill="none" stroke="midnightblue" d="M506.27,-246.48C467.9,-236 402.71,-218.21 360.39,-206.66"/>
<polygon fill="midnightblue" stroke="midnightblue" points="361.24,-203.27 350.68,-204.01 359.4,-210.02 361.24,-203.27"/>
</g>
<!-- Node7 -->
<g id="node7" class="node">
<title>Node7</title>
<g id="a_node7"><a xlink:href="Injection_8hpp.html" target="_top" xlink:title=" ">
<polygon fill="none" stroke="black" points="275.5,-118 275.5,-137 355.5,-137 355.5,-118 275.5,-118"/>
<text text-anchor="middle" x="315.5" y="-125" font-family="Helvetica,sans-Serif" font-size="10.00">Injection.hpp</text>
</a>
</g>
</g>
<!-- Node1&#45;&gt;Node7 -->
<g id="edge25" class="edge">
<title>Node1&#45;&gt;Node7</title>
<path fill="none" stroke="midnightblue" d="M524.68,-246.37C502.86,-231.81 456.94,-201.74 416.5,-179 392.16,-165.31 363.64,-151.22 343.12,-141.42"/>
<polygon fill="midnightblue" stroke="midnightblue" points="344.56,-138.22 334.03,-137.1 341.56,-144.55 344.56,-138.22"/>
</g>
<!-- Node10 -->
<g id="node10" class="node">
<title>Node10</title>
<g id="a_node10"><a xlink:title=" ">
<polygon fill="none" stroke="#bfbfbf" points="381.5,-56.5 381.5,-75.5 499.5,-75.5 499.5,-56.5 381.5,-56.5"/>
<text text-anchor="middle" x="440.5" y="-63.5" font-family="Helvetica,sans-Serif" font-size="10.00">llvm/ADT/StringRef.h</text>
</a>
</g>
</g>
<!-- Node1&#45;&gt;Node10 -->
<g id="edge20" class="edge">
<title>Node1&#45;&gt;Node10</title>
<path fill="none" stroke="midnightblue" d="M533.08,-246.43C518.21,-217.62 469.83,-123.84 449.56,-84.56"/>
<polygon fill="midnightblue" stroke="midnightblue" points="452.64,-82.9 444.95,-75.62 446.42,-86.11 452.64,-82.9"/>
</g>
<!-- Node11 -->
<g id="node11" class="node">
<title>Node11</title>
<g id="a_node11"><a xlink:title=" ">
<polygon fill="none" stroke="#bfbfbf" points="518,-56.5 518,-75.5 637,-75.5 637,-56.5 518,-56.5"/>
<text text-anchor="middle" x="577.5" y="-63.5" font-family="Helvetica,sans-Serif" font-size="10.00">clang/AST/DeclCXX.h</text>
</a>
</g>
</g>
<!-- Node1&#45;&gt;Node11 -->
<g id="edge22" class="edge">
<title>Node1&#45;&gt;Node11</title>
<path fill="none" stroke="midnightblue" d="M539.32,-246.43C545.4,-217.87 565.07,-125.43 573.55,-85.57"/>
<polygon fill="midnightblue" stroke="midnightblue" points="577.01,-86.13 575.67,-75.62 570.16,-84.67 577.01,-86.13"/>
</g>
<!-- Node15 -->
<g id="node15" class="node">
<title>Node15</title>
<g id="a_node15"><a xlink:title=" ">
<polygon fill="none" stroke="#bfbfbf" points="606.5,-0.5 606.5,-19.5 704.5,-19.5 704.5,-0.5 606.5,-0.5"/>
<text text-anchor="middle" x="655.5" y="-7.5" font-family="Helvetica,sans-Serif" font-size="10.00">clang/AST/Decl.h</text>
</a>
</g>
</g>
<!-- Node1&#45;&gt;Node15 -->
<g id="edge21" class="edge">
<title>Node1&#45;&gt;Node15</title>
<path fill="none" stroke="midnightblue" d="M544.59,-246.36C564.48,-221.61 620.98,-147.63 646.5,-76 651.82,-61.06 654.02,-43.15 654.91,-29.91"/>
<polygon fill="midnightblue" stroke="midnightblue" points="658.42,-29.84 655.41,-19.68 651.43,-29.5 658.42,-29.84"/>
</g>
<!-- Node18 -->
<g id="node18" class="node">
<title>Node18</title>
<g id="a_node18"><a xlink:title=" ">
<polygon fill="none" stroke="#bfbfbf" points="670,-185 670,-204 769,-204 769,-185 670,-185"/>
<text text-anchor="middle" x="719.5" y="-192" font-family="Helvetica,sans-Serif" font-size="10.00">llvm/ADT/APInt.h</text>
</a>
</g>
</g>
<!-- Node1&#45;&gt;Node18 -->
<g id="edge19" class="edge">
<title>Node1&#45;&gt;Node18</title>
<path fill="none" stroke="midnightblue" d="M563.58,-246.48C595.07,-236.18 648.2,-218.81 683.56,-207.25"/>
<polygon fill="midnightblue" stroke="midnightblue" points="685.05,-210.44 693.47,-204.01 682.88,-203.79 685.05,-210.44"/>
</g>
<!-- Node19 -->
<g id="node19" class="node">
<title>Node19</title>
<g id="a_node19"><a xlink:title=" ">
<polygon fill="none" stroke="#bfbfbf" points="787,-185 787,-204 930,-204 930,-185 787,-185"/>
<text text-anchor="middle" x="858.5" y="-192" font-family="Helvetica,sans-Serif" font-size="10.00">clang/AST/DeclTemplate.h</text>
</a>
</g>
</g>
<!-- Node1&#45;&gt;Node19 -->
<g id="edge23" class="edge">
<title>Node1&#45;&gt;Node19</title>
<path fill="none" stroke="midnightblue" d="M583.49,-246.48C641.3,-235.76 740.45,-217.38 802.58,-205.87"/>
<polygon fill="midnightblue" stroke="midnightblue" points="803.4,-209.27 812.59,-204.01 802.12,-202.39 803.4,-209.27"/>
</g>
<!-- Node20 -->
<g id="node20" class="node">
<title>Node20</title>
<g id="a_node20"><a xlink:title=" ">
<polygon fill="none" stroke="#bfbfbf" points="948,-179.5 948,-209.5 1057,-209.5 1057,-179.5 948,-179.5"/>
<text text-anchor="start" x="956" y="-197.5" font-family="Helvetica,sans-Serif" font-size="10.00">clang/Rewrite/Core</text>
<text text-anchor="middle" x="1002.5" y="-186.5" font-family="Helvetica,sans-Serif" font-size="10.00">/Rewriter.h</text>
</a>
</g>
</g>
<!-- Node1&#45;&gt;Node20 -->
<g id="edge24" class="edge">
<title>Node1&#45;&gt;Node20</title>
<path fill="none" stroke="midnightblue" d="M634.19,-247.31C713.5,-240.28 828.83,-228.39 938.07,-210.13"/>
<polygon fill="midnightblue" stroke="midnightblue" points="938.67,-213.58 947.94,-208.46 937.5,-206.68 938.67,-213.58"/>
</g>
<!-- Node5 -->
<g id="node5" class="node">
<title>Node5</title>
<g id="a_node5"><a xlink:title=" ">
<polygon fill="none" stroke="#bfbfbf" points="0,-56.5 0,-75.5 47,-75.5 47,-56.5 0,-56.5"/>
<text text-anchor="middle" x="23.5" y="-63.5" font-family="Helvetica,sans-Serif" font-size="10.00">vector</text>
</a>
</g>
</g>
<!-- Node4&#45;&gt;Node5 -->
<g id="edge4" class="edge">
<title>Node4&#45;&gt;Node5</title>
<path fill="none" stroke="midnightblue" d="M272.17,-184.96C208.74,-173.24 102.24,-152.57 86.5,-143 62.77,-128.58 43.85,-101.98 33.15,-84.38"/>
<polygon fill="midnightblue" stroke="midnightblue" points="36.13,-82.55 28.07,-75.67 30.08,-86.07 36.13,-82.55"/>
</g>
<!-- Node6 -->
<g id="node6" class="node">
<title>Node6</title>
<g id="a_node6"><a xlink:title=" ">
<polygon fill="none" stroke="#bfbfbf" points="96,-112.5 96,-142.5 257,-142.5 257,-112.5 96,-112.5"/>
<text text-anchor="start" x="104" y="-130.5" font-family="Helvetica,sans-Serif" font-size="10.00">clang/ASTMatchers/ASTMatch</text>
<text text-anchor="middle" x="176.5" y="-119.5" font-family="Helvetica,sans-Serif" font-size="10.00">Finder.h</text>
</a>
</g>
</g>
<!-- Node4&#45;&gt;Node6 -->
<g id="edge5" class="edge">
<title>Node4&#45;&gt;Node6</title>
<path fill="none" stroke="midnightblue" d="M300.51,-184.87C279.24,-175.2 244.15,-159.25 216.71,-146.78"/>
<polygon fill="midnightblue" stroke="midnightblue" points="217.91,-143.48 207.36,-142.53 215.02,-149.85 217.91,-143.48"/>
</g>
<!-- Node4&#45;&gt;Node7 -->
<g id="edge6" class="edge">
<title>Node4&#45;&gt;Node7</title>
<path fill="none" stroke="midnightblue" d="M318.96,-184.73C318.37,-175.18 317.41,-159.62 316.66,-147.28"/>
<polygon fill="midnightblue" stroke="midnightblue" points="320.14,-146.89 316.03,-137.13 313.15,-147.32 320.14,-146.89"/>
</g>
<!-- Node7&#45;&gt;Node5 -->
<g id="edge9" class="edge">
<title>Node7&#45;&gt;Node5</title>
<path fill="none" stroke="midnightblue" d="M288.14,-117.97C280.82,-115.85 272.9,-113.7 265.5,-112 176.7,-91.54 150.26,-96.08 57.07,-75.93"/>
<polygon fill="midnightblue" stroke="midnightblue" points="57.74,-72.49 47.23,-73.76 56.24,-79.33 57.74,-72.49"/>
</g>
<!-- Node8 -->
<g id="node8" class="node">
<title>Node8</title>
<g id="a_node8"><a xlink:title=" ">
<polygon fill="none" stroke="#bfbfbf" points="65.5,-56.5 65.5,-75.5 121.5,-75.5 121.5,-56.5 65.5,-56.5"/>
<text text-anchor="middle" x="93.5" y="-63.5" font-family="Helvetica,sans-Serif" font-size="10.00">optional</text>
</a>
</g>
</g>
<!-- Node7&#45;&gt;Node8 -->
<g id="edge7" class="edge">
<title>Node7&#45;&gt;Node8</title>
<path fill="none" stroke="midnightblue" d="M286.45,-117.94C279.59,-115.95 272.3,-113.87 265.5,-112 219.46,-99.3 166.24,-85.52 131.34,-76.59"/>
<polygon fill="midnightblue" stroke="midnightblue" points="132.12,-73.18 121.57,-74.1 130.39,-79.96 132.12,-73.18"/>
</g>
<!-- Node9 -->
<g id="node9" class="node">
<title>Node9</title>
<g id="a_node9"><a xlink:title=" ">
<polygon fill="none" stroke="#bfbfbf" points="120.5,-0.5 120.5,-19.5 164.5,-19.5 164.5,-0.5 120.5,-0.5"/>
<text text-anchor="middle" x="142.5" y="-7.5" font-family="Helvetica,sans-Serif" font-size="10.00">string</text>
</a>
</g>
</g>
<!-- Node7&#45;&gt;Node9 -->
<g id="edge8" class="edge">
<title>Node7&#45;&gt;Node9</title>
<path fill="none" stroke="midnightblue" d="M286.31,-117.9C246.01,-105.82 177.27,-84.35 168.5,-76 155.59,-63.72 148.94,-44.18 145.61,-29.73"/>
<polygon fill="midnightblue" stroke="midnightblue" points="149.04,-29.01 143.67,-19.87 142.17,-30.36 149.04,-29.01"/>
</g>
<!-- Node7&#45;&gt;Node10 -->
<g id="edge10" class="edge">
<title>Node7&#45;&gt;Node10</title>
<path fill="none" stroke="midnightblue" d="M333.41,-117.98C354.39,-107.99 389.35,-91.35 413.59,-79.81"/>
<polygon fill="midnightblue" stroke="midnightblue" points="415.1,-82.97 422.62,-75.51 412.09,-76.65 415.1,-82.97"/>
</g>
<!-- Node7&#45;&gt;Node11 -->
<g id="edge11" class="edge">
<title>Node7&#45;&gt;Node11</title>
<path fill="none" stroke="midnightblue" d="M353.04,-117.98C399.73,-107.37 479.48,-89.26 530.28,-77.72"/>
<polygon fill="midnightblue" stroke="midnightblue" points="531.05,-81.14 540.03,-75.51 529.5,-74.31 531.05,-81.14"/>
</g>
<!-- Node12 -->
<g id="node12" class="node">
<title>Node12</title>
<g id="a_node12"><a xlink:title=" ">
<polygon fill="none" stroke="#bfbfbf" points="264,-56.5 264,-75.5 363,-75.5 363,-56.5 264,-56.5"/>
<text text-anchor="middle" x="313.5" y="-63.5" font-family="Helvetica,sans-Serif" font-size="10.00">clang/AST/Type.h</text>
</a>
</g>
</g>
<!-- Node7&#45;&gt;Node12 -->
<g id="edge12" class="edge">
<title>Node7&#45;&gt;Node12</title>
<path fill="none" stroke="midnightblue" d="M315.21,-117.98C314.93,-109.58 314.49,-96.48 314.13,-85.66"/>
<polygon fill="midnightblue" stroke="midnightblue" points="317.62,-85.39 313.79,-75.51 310.62,-85.62 317.62,-85.39"/>
</g>
<!-- Node13 -->
<g id="node13" class="node">
<title>Node13</title>
<g id="a_node13"><a xlink:href="Param_8hpp.html" target="_top" xlink:title=" ">
<polygon fill="none" stroke="black" points="177.5,-56.5 177.5,-75.5 245.5,-75.5 245.5,-56.5 177.5,-56.5"/>
<text text-anchor="middle" x="211.5" y="-63.5" font-family="Helvetica,sans-Serif" font-size="10.00">Param.hpp</text>
</a>
</g>
</g>
<!-- Node7&#45;&gt;Node13 -->
<g id="edge13" class="edge">
<title>Node7&#45;&gt;Node13</title>
<path fill="none" stroke="midnightblue" d="M300.6,-117.98C283.53,-108.21 255.34,-92.08 235.24,-80.58"/>
<polygon fill="midnightblue" stroke="midnightblue" points="236.79,-77.44 226.37,-75.51 233.31,-83.51 236.79,-77.44"/>
</g>
<!-- Node13&#45;&gt;Node9 -->
<g id="edge15" class="edge">
<title>Node13&#45;&gt;Node9</title>
<path fill="none" stroke="midnightblue" d="M200.41,-56.32C190.01,-48.18 174.24,-35.84 161.78,-26.09"/>
<polygon fill="midnightblue" stroke="midnightblue" points="163.82,-23.24 153.79,-19.83 159.51,-28.75 163.82,-23.24"/>
</g>
<!-- Node14 -->
<g id="node14" class="node">
<title>Node14</title>
<g id="a_node14"><a xlink:title=" ">
<polygon fill="none" stroke="#bfbfbf" points="183,-0.5 183,-19.5 240,-19.5 240,-0.5 183,-0.5"/>
<text text-anchor="middle" x="211.5" y="-7.5" font-family="Helvetica,sans-Serif" font-size="10.00">ostream</text>
</a>
</g>
</g>
<!-- Node13&#45;&gt;Node14 -->
<g id="edge14" class="edge">
<title>Node13&#45;&gt;Node14</title>
<path fill="none" stroke="midnightblue" d="M211.5,-56.08C211.5,-49.01 211.5,-38.86 211.5,-29.99"/>
<polygon fill="midnightblue" stroke="midnightblue" points="215,-29.75 211.5,-19.75 208,-29.75 215,-29.75"/>
</g>
<!-- Node13&#45;&gt;Node15 -->
<g id="edge16" class="edge">
<title>Node13&#45;&gt;Node15</title>
<path fill="none" stroke="midnightblue" d="M245.71,-57.52C248.68,-56.97 251.64,-56.45 254.5,-56 401.53,-32.72 439.7,-37.77 587.5,-20 590.38,-19.65 593.33,-19.29 596.31,-18.92"/>
<polygon fill="midnightblue" stroke="midnightblue" points="597.01,-22.36 606.49,-17.63 596.13,-15.41 597.01,-22.36"/>
</g>
<!-- Node16 -->
<g id="node16" class="node">
<title>Node16</title>
<g id="a_node16"><a xlink:title=" ">
<polygon fill="none" stroke="#bfbfbf" points="258.5,-0.5 258.5,-19.5 422.5,-19.5 422.5,-0.5 258.5,-0.5"/>
<text text-anchor="middle" x="340.5" y="-7.5" font-family="Helvetica,sans-Serif" font-size="10.00">clang/AST/DependenceFlags.h</text>
</a>
</g>
</g>
<!-- Node13&#45;&gt;Node16 -->
<g id="edge17" class="edge">
<title>Node13&#45;&gt;Node16</title>
<path fill="none" stroke="midnightblue" d="M231.94,-56.44C253.17,-47.56 286.6,-33.56 310.75,-23.45"/>
<polygon fill="midnightblue" stroke="midnightblue" points="312.28,-26.61 320.16,-19.52 309.58,-20.15 312.28,-26.61"/>
</g>
<!-- Node17 -->
<g id="node17" class="node">
<title>Node17</title>
<g id="a_node17"><a xlink:title=" ">
<polygon fill="none" stroke="#bfbfbf" points="441,-0.5 441,-19.5 578,-19.5 578,-0.5 441,-0.5"/>
<text text-anchor="middle" x="509.5" y="-7.5" font-family="Helvetica,sans-Serif" font-size="10.00">clang/AST/PrettyPrinter.h</text>
</a>
</g>
</g>
<!-- Node13&#45;&gt;Node17 -->
<g id="edge18" class="edge">
<title>Node13&#45;&gt;Node17</title>
<path fill="none" stroke="midnightblue" d="M245.75,-57.73C248.71,-57.13 251.65,-56.55 254.5,-56 320.51,-43.27 396.4,-30.06 448.12,-21.27"/>
<polygon fill="midnightblue" stroke="midnightblue" points="448.85,-24.7 458.13,-19.57 447.68,-17.8 448.85,-24.7"/>
</g>
</g>
</svg>
