<?xml version="1.0" encoding="UTF-8" standalone="no"?>
<!DOCTYPE svg PUBLIC "-//W3C//DTD SVG 1.1//EN"
 "http://www.w3.org/Graphics/SVG/1.1/DTD/svg11.dtd">
<!-- Generated by graphviz version 2.43.0 (0)
 -->
<!-- Title: src/Injection.cpp Pages: 1 -->
<svg width="1158pt" height="192pt"
 viewBox="0.00 0.00 1158.00 192.00" xmlns="http://www.w3.org/2000/svg" xmlns:xlink="http://www.w3.org/1999/xlink">
<g id="graph0" class="graph" transform="scale(1 1) rotate(0) translate(4 188)">
<title>src/Injection.cpp</title>
<!-- Node1 -->
<g id="Node000001" class="node">
<title>Node1</title>
<g id="a_Node000001"><a xlink:title=" ">
<polygon fill="#999999" stroke="#666666" points="739,-184 643,-184 643,-165 739,-165 739,-184"/>
<text text-anchor="middle" x="691" y="-172" font-family="Helvetica,sans-Serif" font-size="10.00">src/Injection.cpp</text>
</a>
</g>
</g>
<!-- Node2 -->
<g id="Node000002" class="node">
<title>Node2</title>
<g id="a_Node000002"><a xlink:href="Injection_8hpp.html" target="_top" xlink:title=" ">
<polygon fill="white" stroke="#666666" points="476,-129 396,-129 396,-110 476,-110 476,-129"/>
<text text-anchor="middle" x="436" y="-117" font-family="Helvetica,sans-Serif" font-size="10.00">Injection.hpp</text>
</a>
</g>
</g>
<!-- Node1&#45;&gt;Node2 -->
<g id="edge1_Node000001_Node000002" class="edge">
<title>Node1&#45;&gt;Node2</title>
<g id="a_edge1_Node000001_Node000002"><a xlink:title=" ">
<path fill="none" stroke="#63b8ff" d="M650.03,-164.98C605.34,-155.7 533.8,-140.83 485.88,-130.87"/>
<polygon fill="#63b8ff" stroke="#63b8ff" points="486.53,-127.43 476.03,-128.82 485.11,-134.28 486.53,-127.43"/>
</a>
</g>
</g>
<!-- Node6 -->
<g id="Node000006" class="node">
<title>Node6</title>
<g id="a_Node000006"><a xlink:title=" ">
<polygon fill="#e0e0e0" stroke="#999999" points="98,-19 0,-19 0,0 98,0 98,-19"/>
<text text-anchor="middle" x="49" y="-7" font-family="Helvetica,sans-Serif" font-size="10.00">clang/AST/Decl.h</text>
</a>
</g>
</g>
<!-- Node1&#45;&gt;Node6 -->
<g id="edge20_Node000001_Node000006" class="edge">
<title>Node1&#45;&gt;Node6</title>
<g id="a_edge20_Node000001_Node000006"><a xlink:title=" ">
<path fill="none" stroke="#63b8ff" d="M642.74,-172.45C536.18,-169.58 283.98,-159.68 205,-129 145.53,-105.9 89.45,-53.02 63.72,-26.41"/>
<polygon fill="#63b8ff" stroke="#63b8ff" points="66.17,-23.9 56.74,-19.06 61.09,-28.72 66.17,-23.9"/>
</a>
</g>
</g>
<!-- Node8 -->
<g id="Node000008" class="node">
<title>Node8</title>
<g id="a_Node000008"><a xlink:title=" ">
<polygon fill="#e0e0e0" stroke="#999999" points="669.5,-19 612.5,-19 612.5,0 669.5,0 669.5,-19"/>
<text text-anchor="middle" x="641" y="-7" font-family="Helvetica,sans-Serif" font-size="10.00">ostream</text>
</a>
</g>
</g>
<!-- Node1&#45;&gt;Node8 -->
<g id="edge24_Node000001_Node000008" class="edge">
<title>Node1&#45;&gt;Node8</title>
<g id="a_edge24_Node000001_Node000008"><a xlink:title=" ">
<path fill="none" stroke="#63b8ff" d="M698.41,-164.87C714.98,-144.46 751.86,-92.18 729,-55 718.13,-37.32 697.82,-26.41 679.46,-19.82"/>
<polygon fill="#63b8ff" stroke="#63b8ff" points="680.4,-16.44 669.81,-16.67 678.23,-23.1 680.4,-16.44"/>
</a>
</g>
</g>
<!-- Node10 -->
<g id="Node000010" class="node">
<title>Node10</title>
<g id="a_Node000010"><a xlink:title=" ">
<polygon fill="#e0e0e0" stroke="#999999" points="719.5,-74 600.5,-74 600.5,-55 719.5,-55 719.5,-74"/>
<text text-anchor="middle" x="660" y="-62" font-family="Helvetica,sans-Serif" font-size="10.00">clang/AST/DeclCXX.h</text>
</a>
</g>
</g>
<!-- Node1&#45;&gt;Node10 -->
<g id="edge21_Node000001_Node000010" class="edge">
<title>Node1&#45;&gt;Node10</title>
<g id="a_edge21_Node000001_Node000010"><a xlink:title=" ">
<path fill="none" stroke="#63b8ff" d="M688.46,-164.66C683.42,-147.09 672.04,-107.45 665.3,-83.95"/>
<polygon fill="#63b8ff" stroke="#63b8ff" points="668.61,-82.8 662.49,-74.16 661.88,-84.74 668.61,-82.8"/>
</a>
</g>
</g>
<!-- Node13 -->
<g id="Node000013" class="node">
<title>Node13</title>
<g id="a_Node000013"><a xlink:href="Parsing_8hpp.html" target="_top" xlink:title="Helper functions for parsing information from AST nodes.">
<polygon fill="white" stroke="#666666" points="287.5,-129 214.5,-129 214.5,-110 287.5,-110 287.5,-129"/>
<text text-anchor="middle" x="251" y="-117" font-family="Helvetica,sans-Serif" font-size="10.00">Parsing.hpp</text>
</a>
</g>
</g>
<!-- Node1&#45;&gt;Node13 -->
<g id="edge15_Node000001_Node000013" class="edge">
<title>Node1&#45;&gt;Node13</title>
<g id="a_edge15_Node000001_Node000013"><a xlink:title=" ">
<path fill="none" stroke="#63b8ff" d="M642.65,-167.68C557.47,-157.42 381.71,-136.25 297.71,-126.13"/>
<polygon fill="#63b8ff" stroke="#63b8ff" points="298.03,-122.64 287.69,-124.92 297.2,-129.59 298.03,-122.64"/>
</a>
</g>
</g>
<!-- Node14 -->
<g id="Node000014" class="node">
<title>Node14</title>
<g id="a_Node000014"><a xlink:title=" ">
<polygon fill="#e0e0e0" stroke="#999999" points="906.5,-129 763.5,-129 763.5,-110 906.5,-110 906.5,-129"/>
<text text-anchor="middle" x="835" y="-117" font-family="Helvetica,sans-Serif" font-size="10.00">clang/AST/DeclTemplate.h</text>
</a>
</g>
</g>
<!-- Node1&#45;&gt;Node14 -->
<g id="edge22_Node000001_Node000014" class="edge">
<title>Node1&#45;&gt;Node14</title>
<g id="a_edge22_Node000001_Node000014"><a xlink:title=" ">
<path fill="none" stroke="#63b8ff" d="M714.14,-164.98C737.82,-156.27 774.87,-142.63 801.71,-132.75"/>
<polygon fill="#63b8ff" stroke="#63b8ff" points="803.27,-135.91 811.44,-129.17 800.85,-129.34 803.27,-135.91"/>
</a>
</g>
</g>
<!-- Node15 -->
<g id="Node000015" class="node">
<title>Node15</title>
<g id="a_Node000015"><a xlink:title=" ">
<polygon fill="#e0e0e0" stroke="#999999" points="1075.5,-129 924.5,-129 924.5,-110 1075.5,-110 1075.5,-129"/>
<text text-anchor="middle" x="1000" y="-117" font-family="Helvetica,sans-Serif" font-size="10.00">clang/AST/TemplateName.h</text>
</a>
</g>
</g>
<!-- Node1&#45;&gt;Node15 -->
<g id="edge23_Node000001_Node000015" class="edge">
<title>Node1&#45;&gt;Node15</title>
<g id="a_edge23_Node000001_Node000015"><a xlink:title=" ">
<path fill="none" stroke="#63b8ff" d="M739.28,-165.22C793.48,-155.92 881.49,-140.83 940.05,-130.78"/>
<polygon fill="#63b8ff" stroke="#63b8ff" points="941,-134.17 950.27,-129.03 939.82,-127.27 941,-134.17"/>
</a>
</g>
</g>
<!-- Node16 -->
<g id="Node000016" class="node">
<title>Node16</title>
<g id="a_Node000016"><a xlink:title=" ">
<polygon fill="#e0e0e0" stroke="#999999" points="1150,-129 1094,-129 1094,-110 1150,-110 1150,-129"/>
<text text-anchor="middle" x="1122" y="-117" font-family="Helvetica,sans-Serif" font-size="10.00">sstream</text>
</a>
</g>
</g>
<!-- Node1&#45;&gt;Node16 -->
<g id="edge25_Node000001_Node000016" class="edge">
<title>Node1&#45;&gt;Node16</title>
<g id="a_edge25_Node000001_Node000016"><a xlink:title=" ">
<path fill="none" stroke="#63b8ff" d="M739.16,-169.83C811.76,-163.91 953.72,-150.83 1083.66,-129.05"/>
<polygon fill="#63b8ff" stroke="#63b8ff" points="1084.51,-132.45 1093.78,-127.33 1083.34,-125.55 1084.51,-132.45"/>
</a>
</g>
</g>
<!-- Node3 -->
<g id="Node000003" class="node">
<title>Node3</title>
<g id="a_Node000003"><a xlink:href="Param_8hpp.html" target="_top" xlink:title=" ">
<polygon fill="white" stroke="#666666" points="285,-74 217,-74 217,-55 285,-55 285,-74"/>
<text text-anchor="middle" x="251" y="-62" font-family="Helvetica,sans-Serif" font-size="10.00">Param.hpp</text>
</a>
</g>
</g>
<!-- Node2&#45;&gt;Node3 -->
<g id="edge2_Node000002_Node000003" class="edge">
<title>Node2&#45;&gt;Node3</title>
<g id="a_edge2_Node000002_Node000003"><a xlink:title=" ">
<path fill="none" stroke="#63b8ff" d="M406.28,-109.98C374.95,-101.01 325.43,-86.82 290.76,-76.89"/>
<polygon fill="#63b8ff" stroke="#63b8ff" points="291.53,-73.47 280.96,-74.08 289.61,-80.2 291.53,-73.47"/>
</a>
</g>
</g>
<!-- Node4 -->
<g id="Node000004" class="node">
<title>Node4</title>
<g id="a_Node000004"><a xlink:title=" ">
<polygon fill="#e0e0e0" stroke="#999999" points="403.5,-19 334.5,-19 334.5,0 403.5,0 403.5,-19"/>
<text text-anchor="middle" x="369" y="-7" font-family="Helvetica,sans-Serif" font-size="10.00">fmt/color.h</text>
</a>
</g>
</g>
<!-- Node2&#45;&gt;Node4 -->
<g id="edge9_Node000002_Node000004" class="edge">
<title>Node2&#45;&gt;Node4</title>
<g id="a_edge9_Node000002_Node000004"><a xlink:title=" ">
<path fill="none" stroke="#63b8ff" d="M430.52,-109.66C419.42,-91.77 394.13,-51 379.67,-27.69"/>
<polygon fill="#63b8ff" stroke="#63b8ff" points="382.62,-25.81 374.37,-19.16 376.67,-29.5 382.62,-25.81"/>
</a>
</g>
</g>
<!-- Node5 -->
<g id="Node000005" class="node">
<title>Node5</title>
<g id="a_Node000005"><a xlink:title=" ">
<polygon fill="#e0e0e0" stroke="#999999" points="488.5,-19 421.5,-19 421.5,0 488.5,0 488.5,-19"/>
<text text-anchor="middle" x="455" y="-7" font-family="Helvetica,sans-Serif" font-size="10.00">fmt/core.h</text>
</a>
</g>
</g>
<!-- Node2&#45;&gt;Node5 -->
<g id="edge10_Node000002_Node000005" class="edge">
<title>Node2&#45;&gt;Node5</title>
<g id="a_edge10_Node000002_Node000005"><a xlink:title=" ">
<path fill="none" stroke="#63b8ff" d="M437.55,-109.66C440.63,-92.17 447.56,-52.8 451.7,-29.27"/>
<polygon fill="#63b8ff" stroke="#63b8ff" points="455.19,-29.61 453.48,-19.16 448.3,-28.4 455.19,-29.61"/>
</a>
</g>
</g>
<!-- Node9 -->
<g id="Node000009" class="node">
<title>Node9</title>
<g id="a_Node000009"><a xlink:title=" ">
<polygon fill="#e0e0e0" stroke="#999999" points="316,-19 272,-19 272,0 316,0 316,-19"/>
<text text-anchor="middle" x="294" y="-7" font-family="Helvetica,sans-Serif" font-size="10.00">string</text>
</a>
</g>
</g>
<!-- Node2&#45;&gt;Node9 -->
<g id="edge13_Node000002_Node000009" class="edge">
<title>Node2&#45;&gt;Node9</title>
<g id="a_edge13_Node000002_Node000009"><a xlink:title=" ">
<path fill="none" stroke="#63b8ff" d="M426.26,-109.99C411.87,-97.53 383.92,-73.75 359,-55 344.93,-44.41 328.57,-33.22 315.78,-24.71"/>
<polygon fill="#63b8ff" stroke="#63b8ff" points="317.46,-21.62 307.19,-19.03 313.6,-27.46 317.46,-21.62"/>
</a>
</g>
</g>
<!-- Node2&#45;&gt;Node10 -->
<g id="edge11_Node000002_Node000010" class="edge">
<title>Node2&#45;&gt;Node10</title>
<g id="a_edge11_Node000002_Node000010"><a xlink:title=" ">
<path fill="none" stroke="#63b8ff" d="M471.99,-109.98C510.49,-100.87 571.69,-86.4 613.74,-76.45"/>
<polygon fill="#63b8ff" stroke="#63b8ff" points="614.8,-79.79 623.73,-74.08 613.19,-72.98 614.8,-79.79"/>
</a>
</g>
</g>
<!-- Node11 -->
<g id="Node000011" class="node">
<title>Node11</title>
<g id="a_Node000011"><a xlink:title=" ">
<polygon fill="#e0e0e0" stroke="#999999" points="582.5,-74 483.5,-74 483.5,-55 582.5,-55 582.5,-74"/>
<text text-anchor="middle" x="533" y="-62" font-family="Helvetica,sans-Serif" font-size="10.00">clang/AST/Type.h</text>
</a>
</g>
</g>
<!-- Node2&#45;&gt;Node11 -->
<g id="edge12_Node000002_Node000011" class="edge">
<title>Node2&#45;&gt;Node11</title>
<g id="a_edge12_Node000002_Node000011"><a xlink:title=" ">
<path fill="none" stroke="#63b8ff" d="M451.58,-109.98C466.77,-101.69 490.1,-88.94 507.9,-79.22"/>
<polygon fill="#63b8ff" stroke="#63b8ff" points="510.03,-82.04 517.13,-74.17 506.68,-75.89 510.03,-82.04"/>
</a>
</g>
</g>
<!-- Node12 -->
<g id="Node000012" class="node">
<title>Node12</title>
<g id="a_Node000012"><a xlink:title=" ">
<polygon fill="#e0e0e0" stroke="#999999" points="350.5,-74 303.5,-74 303.5,-55 350.5,-55 350.5,-74"/>
<text text-anchor="middle" x="327" y="-62" font-family="Helvetica,sans-Serif" font-size="10.00">vector</text>
</a>
</g>
</g>
<!-- Node2&#45;&gt;Node12 -->
<g id="edge14_Node000002_Node000012" class="edge">
<title>Node2&#45;&gt;Node12</title>
<g id="a_edge14_Node000002_Node000012"><a xlink:title=" ">
<path fill="none" stroke="#63b8ff" d="M418.49,-109.98C401.03,-101.5 373.99,-88.35 353.83,-78.54"/>
<polygon fill="#63b8ff" stroke="#63b8ff" points="355.36,-75.4 344.83,-74.17 352.29,-81.69 355.36,-75.4"/>
</a>
</g>
</g>
<!-- Node3&#45;&gt;Node4 -->
<g id="edge3_Node000003_Node000004" class="edge">
<title>Node3&#45;&gt;Node4</title>
<g id="a_edge3_Node000003_Node000004"><a xlink:title=" ">
<path fill="none" stroke="#63b8ff" d="M269.96,-54.98C289.03,-46.42 318.66,-33.11 340.55,-23.28"/>
<polygon fill="#63b8ff" stroke="#63b8ff" points="342.01,-26.46 349.7,-19.17 339.14,-20.07 342.01,-26.46"/>
</a>
</g>
</g>
<!-- Node3&#45;&gt;Node5 -->
<g id="edge4_Node000003_Node000005" class="edge">
<title>Node3&#45;&gt;Node5</title>
<g id="a_edge4_Node000003_Node000005"><a xlink:title=" ">
<path fill="none" stroke="#63b8ff" d="M283.78,-54.98C318.62,-45.93 373.87,-31.58 412.14,-21.64"/>
<polygon fill="#63b8ff" stroke="#63b8ff" points="413.17,-24.98 421.97,-19.08 411.41,-18.21 413.17,-24.98"/>
</a>
</g>
</g>
<!-- Node3&#45;&gt;Node6 -->
<g id="edge5_Node000003_Node000006" class="edge">
<title>Node3&#45;&gt;Node6</title>
<g id="a_edge5_Node000003_Node000006"><a xlink:title=" ">
<path fill="none" stroke="#63b8ff" d="M218.55,-54.98C184.04,-45.93 129.34,-31.58 91.44,-21.64"/>
<polygon fill="#63b8ff" stroke="#63b8ff" points="92.27,-18.23 81.71,-19.08 90.49,-25.01 92.27,-18.23"/>
</a>
</g>
</g>
<!-- Node7 -->
<g id="Node000007" class="node">
<title>Node7</title>
<g id="a_Node000007"><a xlink:title=" ">
<polygon fill="#e0e0e0" stroke="#999999" points="253.5,-19 116.5,-19 116.5,0 253.5,0 253.5,-19"/>
<text text-anchor="middle" x="185" y="-7" font-family="Helvetica,sans-Serif" font-size="10.00">clang/AST/PrettyPrinter.h</text>
</a>
</g>
</g>
<!-- Node3&#45;&gt;Node7 -->
<g id="edge6_Node000003_Node000007" class="edge">
<title>Node3&#45;&gt;Node7</title>
<g id="a_edge6_Node000003_Node000007"><a xlink:title=" ">
<path fill="none" stroke="#63b8ff" d="M240.4,-54.98C230.54,-47.07 215.65,-35.11 203.78,-25.58"/>
<polygon fill="#63b8ff" stroke="#63b8ff" points="205.79,-22.7 195.8,-19.17 201.4,-28.16 205.79,-22.7"/>
</a>
</g>
</g>
<!-- Node3&#45;&gt;Node8 -->
<g id="edge7_Node000003_Node000008" class="edge">
<title>Node3&#45;&gt;Node8</title>
<g id="a_edge7_Node000003_Node000008"><a xlink:title=" ">
<path fill="none" stroke="#63b8ff" d="M285.23,-56.52C288.19,-55.98 291.15,-55.46 294,-55 405.3,-36.88 537.68,-21.64 602.02,-14.63"/>
<polygon fill="#63b8ff" stroke="#63b8ff" points="602.55,-18.09 612.11,-13.54 601.8,-11.13 602.55,-18.09"/>
</a>
</g>
</g>
<!-- Node3&#45;&gt;Node9 -->
<g id="edge8_Node000003_Node000009" class="edge">
<title>Node3&#45;&gt;Node9</title>
<g id="a_edge8_Node000003_Node000009"><a xlink:title=" ">
<path fill="none" stroke="#63b8ff" d="M258.1,-54.75C264.17,-47.26 273.09,-36.28 280.51,-27.13"/>
<polygon fill="#63b8ff" stroke="#63b8ff" points="283.45,-29.06 287.03,-19.09 278.01,-24.65 283.45,-29.06"/>
</a>
</g>
</g>
<!-- Node13&#45;&gt;Node3 -->
<g id="edge16_Node000013_Node000003" class="edge">
<title>Node13&#45;&gt;Node3</title>
<g id="a_edge16_Node000013_Node000003"><a xlink:title=" ">
<path fill="none" stroke="#63b8ff" d="M251,-109.75C251,-102.8 251,-92.85 251,-84.13"/>
<polygon fill="#63b8ff" stroke="#63b8ff" points="254.5,-84.09 251,-74.09 247.5,-84.09 254.5,-84.09"/>
</a>
</g>
</g>
<!-- Node13&#45;&gt;Node7 -->
<g id="edge17_Node000013_Node000007" class="edge">
<title>Node13&#45;&gt;Node7</title>
<g id="a_edge17_Node000013_Node000007"><a xlink:title=" ">
<path fill="none" stroke="#63b8ff" d="M237.48,-109.91C226.07,-101.96 210.16,-89.1 201,-74 192.79,-60.47 188.78,-42.87 186.83,-29.64"/>
<polygon fill="#63b8ff" stroke="#63b8ff" points="190.26,-28.85 185.59,-19.34 183.31,-29.69 190.26,-28.85"/>
</a>
</g>
</g>
<!-- Node13&#45;&gt;Node9 -->
<g id="edge18_Node000013_Node000009" class="edge">
<title>Node13&#45;&gt;Node9</title>
<g id="a_edge18_Node000013_Node000009"><a xlink:title=" ">
<path fill="none" stroke="#63b8ff" d="M237.74,-109.84C221,-97.78 195.75,-75.13 208,-55 214.28,-44.68 240.62,-31.92 262.51,-22.71"/>
<polygon fill="#63b8ff" stroke="#63b8ff" points="263.93,-25.91 271.86,-18.88 261.28,-19.44 263.93,-25.91"/>
</a>
</g>
</g>
<!-- Node13&#45;&gt;Node12 -->
<g id="edge19_Node000013_Node000012" class="edge">
<title>Node13&#45;&gt;Node12</title>
<g id="a_edge19_Node000013_Node000012"><a xlink:title=" ">
<path fill="none" stroke="#63b8ff" d="M263.21,-109.98C274.78,-101.92 292.38,-89.65 306.16,-80.03"/>
<polygon fill="#63b8ff" stroke="#63b8ff" points="308.37,-82.76 314.57,-74.17 304.36,-77.02 308.37,-82.76"/>
</a>
</g>
</g>
</g>
</svg>
