<?xml version="1.0" encoding="UTF-8" standalone="no"?>
<!DOCTYPE svg PUBLIC "-//W3C//DTD SVG 1.1//EN"
 "http://www.w3.org/Graphics/SVG/1.1/DTD/svg11.dtd">
<!-- Generated by graphviz version 2.43.0 (0)
 -->
<!-- Title: include/Callbacks/InjectInstantiation.hpp Pages: 1 -->
<svg width="931pt" height="214pt"
 viewBox="0.00 0.00 931.00 214.00" xmlns="http://www.w3.org/2000/svg" xmlns:xlink="http://www.w3.org/1999/xlink">
<g id="graph0" class="graph" transform="scale(1 1) rotate(0) translate(4 210)">
<title>include/Callbacks/InjectInstantiation.hpp</title>
<!-- Node1 -->
<g id="Node000001" class="node">
<title>Node1</title>
<g id="a_Node000001"><a xlink:title=" ">
<polygon fill="#999999" stroke="#666666" points="181.5,-206 49.5,-206 49.5,-176 181.5,-176 181.5,-206"/>
<text text-anchor="start" x="57.5" y="-194" font-family="Helvetica,sans-Serif" font-size="10.00">include/Callbacks/Inject</text>
<text text-anchor="middle" x="115.5" y="-183" font-family="Helvetica,sans-Serif" font-size="10.00">Instantiation.hpp</text>
</a>
</g>
</g>
<!-- Node2 -->
<g id="Node000002" class="node">
<title>Node2</title>
<g id="a_Node000002"><a xlink:title=" ">
<polygon fill="#e0e0e0" stroke="#999999" points="47,-74 0,-74 0,-55 47,-55 47,-74"/>
<text text-anchor="middle" x="23.5" y="-62" font-family="Helvetica,sans-Serif" font-size="10.00">vector</text>
</a>
</g>
</g>
<!-- Node1&#45;&gt;Node2 -->
<g id="edge1_Node000001_Node000002" class="edge">
<title>Node1&#45;&gt;Node2</title>
<g id="a_edge1_Node000001_Node000002"><a xlink:title=" ">
<path fill="none" stroke="#63b8ff" d="M70.55,-175.95C53.42,-168.19 35.6,-156.66 25.5,-140 15.35,-123.26 16.5,-100.29 19.13,-84.3"/>
<polygon fill="#63b8ff" stroke="#63b8ff" points="22.65,-84.57 21.18,-74.07 15.79,-83.19 22.65,-84.57"/>
</a>
</g>
</g>
<!-- Node3 -->
<g id="Node000003" class="node">
<title>Node3</title>
<g id="a_Node000003"><a xlink:title=" ">
<polygon fill="#e0e0e0" stroke="#999999" points="196,-140 35,-140 35,-110 196,-110 196,-140"/>
<text text-anchor="start" x="43" y="-128" font-family="Helvetica,sans-Serif" font-size="10.00">clang/ASTMatchers/ASTMatch</text>
<text text-anchor="middle" x="115.5" y="-117" font-family="Helvetica,sans-Serif" font-size="10.00">Finder.h</text>
</a>
</g>
</g>
<!-- Node1&#45;&gt;Node3 -->
<g id="edge2_Node000001_Node000003" class="edge">
<title>Node1&#45;&gt;Node3</title>
<g id="a_edge2_Node000001_Node000003"><a xlink:title=" ">
<path fill="none" stroke="#63b8ff" d="M115.5,-175.8C115.5,-168.34 115.5,-158.99 115.5,-150.41"/>
<polygon fill="#63b8ff" stroke="#63b8ff" points="119,-150.16 115.5,-140.16 112,-150.16 119,-150.16"/>
</a>
</g>
</g>
<!-- Node4 -->
<g id="Node000004" class="node">
<title>Node4</title>
<g id="a_Node000004"><a xlink:href="Injection_8hpp.html" target="_top" xlink:title=" ">
<polygon fill="white" stroke="#666666" points="294.5,-134.5 214.5,-134.5 214.5,-115.5 294.5,-115.5 294.5,-134.5"/>
<text text-anchor="middle" x="254.5" y="-122.5" font-family="Helvetica,sans-Serif" font-size="10.00">Injection.hpp</text>
</a>
</g>
</g>
<!-- Node1&#45;&gt;Node4 -->
<g id="edge3_Node000001_Node000004" class="edge">
<title>Node1&#45;&gt;Node4</title>
<g id="a_edge3_Node000001_Node000004"><a xlink:title=" ">
<path fill="none" stroke="#63b8ff" d="M146,-175.95C170.06,-164.88 203.33,-149.56 226.66,-138.82"/>
<polygon fill="#63b8ff" stroke="#63b8ff" points="228.38,-141.88 236,-134.52 225.45,-135.52 228.38,-141.88"/>
</a>
</g>
</g>
<!-- Node4&#45;&gt;Node2 -->
<g id="edge6_Node000004_Node000002" class="edge">
<title>Node4&#45;&gt;Node2</title>
<g id="a_edge6_Node000004_Node000002"><a xlink:title=" ">
<path fill="none" stroke="#63b8ff" d="M224.67,-115.48C218.04,-113.63 211.04,-111.72 204.5,-110 153.37,-96.56 93.78,-82.15 57.36,-73.48"/>
<polygon fill="#63b8ff" stroke="#63b8ff" points="57.82,-69.99 47.28,-71.09 56.2,-76.81 57.82,-69.99"/>
</a>
</g>
</g>
<!-- Node5 -->
<g id="Node000005" class="node">
<title>Node5</title>
<g id="a_Node000005"><a xlink:title=" ">
<polygon fill="#e0e0e0" stroke="#999999" points="130.5,-74 74.5,-74 74.5,-55 130.5,-55 130.5,-74"/>
<text text-anchor="middle" x="102.5" y="-62" font-family="Helvetica,sans-Serif" font-size="10.00">optional</text>
</a>
</g>
</g>
<!-- Node4&#45;&gt;Node5 -->
<g id="edge4_Node000004_Node000005" class="edge">
<title>Node4&#45;&gt;Node5</title>
<g id="a_edge4_Node000004_Node000005"><a xlink:title=" ">
<path fill="none" stroke="#63b8ff" d="M232.4,-115.49C206.51,-105.53 163.42,-88.95 134.03,-77.63"/>
<polygon fill="#63b8ff" stroke="#63b8ff" points="135.22,-74.34 124.63,-74.02 132.7,-80.88 135.22,-74.34"/>
</a>
</g>
</g>
<!-- Node6 -->
<g id="Node000006" class="node">
<title>Node6</title>
<g id="a_Node000006"><a xlink:title=" ">
<polygon fill="#e0e0e0" stroke="#999999" points="324.5,-19 280.5,-19 280.5,0 324.5,0 324.5,-19"/>
<text text-anchor="middle" x="302.5" y="-7" font-family="Helvetica,sans-Serif" font-size="10.00">string</text>
</a>
</g>
</g>
<!-- Node4&#45;&gt;Node6 -->
<g id="edge5_Node000004_Node000006" class="edge">
<title>Node4&#45;&gt;Node6</title>
<g id="a_edge5_Node000004_Node000006"><a xlink:title=" ">
<path fill="none" stroke="#63b8ff" d="M230.81,-115.36C202.02,-103.49 159.39,-80.67 177.5,-55 198.32,-25.5 240.5,-15.44 270.09,-12.08"/>
<polygon fill="#63b8ff" stroke="#63b8ff" points="270.72,-15.53 280.36,-11.12 270.07,-8.56 270.72,-15.53"/>
</a>
</g>
</g>
<!-- Node7 -->
<g id="Node000007" class="node">
<title>Node7</title>
<g id="a_Node000007"><a xlink:title=" ">
<polygon fill="#e0e0e0" stroke="#999999" points="304.5,-74 186.5,-74 186.5,-55 304.5,-55 304.5,-74"/>
<text text-anchor="middle" x="245.5" y="-62" font-family="Helvetica,sans-Serif" font-size="10.00">llvm/ADT/StringRef.h</text>
</a>
</g>
</g>
<!-- Node4&#45;&gt;Node7 -->
<g id="edge7_Node000004_Node000007" class="edge">
<title>Node4&#45;&gt;Node7</title>
<g id="a_edge7_Node000004_Node000007"><a xlink:title=" ">
<path fill="none" stroke="#63b8ff" d="M253.17,-115.37C251.91,-107.16 249.97,-94.54 248.35,-84.05"/>
<polygon fill="#63b8ff" stroke="#63b8ff" points="251.81,-83.52 246.83,-74.17 244.89,-84.58 251.81,-83.52"/>
</a>
</g>
</g>
<!-- Node8 -->
<g id="Node000008" class="node">
<title>Node8</title>
<g id="a_Node000008"><a xlink:title=" ">
<polygon fill="#e0e0e0" stroke="#999999" points="442,-74 323,-74 323,-55 442,-55 442,-74"/>
<text text-anchor="middle" x="382.5" y="-62" font-family="Helvetica,sans-Serif" font-size="10.00">clang/AST/DeclCXX.h</text>
</a>
</g>
</g>
<!-- Node4&#45;&gt;Node8 -->
<g id="edge8_Node000004_Node000008" class="edge">
<title>Node4&#45;&gt;Node8</title>
<g id="a_edge8_Node000004_Node000008"><a xlink:title=" ">
<path fill="none" stroke="#63b8ff" d="M273.11,-115.49C294.54,-105.7 329.94,-89.52 354.65,-78.23"/>
<polygon fill="#63b8ff" stroke="#63b8ff" points="356.22,-81.36 363.87,-74.02 353.32,-74.99 356.22,-81.36"/>
</a>
</g>
</g>
<!-- Node9 -->
<g id="Node000009" class="node">
<title>Node9</title>
<g id="a_Node000009"><a xlink:title=" ">
<polygon fill="#e0e0e0" stroke="#999999" points="559,-74 460,-74 460,-55 559,-55 559,-74"/>
<text text-anchor="middle" x="509.5" y="-62" font-family="Helvetica,sans-Serif" font-size="10.00">clang/AST/Type.h</text>
</a>
</g>
</g>
<!-- Node4&#45;&gt;Node9 -->
<g id="edge9_Node000004_Node000009" class="edge">
<title>Node4&#45;&gt;Node9</title>
<g id="a_edge9_Node000004_Node000009"><a xlink:title=" ">
<path fill="none" stroke="#63b8ff" d="M291.58,-115.49C336.81,-105.12 413.32,-87.57 462.6,-76.26"/>
<polygon fill="#63b8ff" stroke="#63b8ff" points="463.41,-79.66 472.38,-74.02 461.85,-72.84 463.41,-79.66"/>
</a>
</g>
</g>
<!-- Node10 -->
<g id="Node000010" class="node">
<title>Node10</title>
<g id="a_Node000010"><a xlink:href="Param_8hpp.html" target="_top" xlink:title=" ">
<polygon fill="white" stroke="#666666" points="645.5,-74 577.5,-74 577.5,-55 645.5,-55 645.5,-74"/>
<text text-anchor="middle" x="611.5" y="-62" font-family="Helvetica,sans-Serif" font-size="10.00">Param.hpp</text>
</a>
</g>
</g>
<!-- Node4&#45;&gt;Node10 -->
<g id="edge10_Node000004_Node000010" class="edge">
<title>Node4&#45;&gt;Node10</title>
<g id="a_edge10_Node000004_Node000010"><a xlink:title=" ">
<path fill="none" stroke="#63b8ff" d="M294.73,-118.08C352.67,-109.46 463.22,-92.59 567.21,-74.18"/>
<polygon fill="#63b8ff" stroke="#63b8ff" points="568.02,-77.59 577.25,-72.39 566.8,-70.7 568.02,-77.59"/>
</a>
</g>
</g>
<!-- Node10&#45;&gt;Node6 -->
<g id="edge12_Node000010_Node000006" class="edge">
<title>Node10&#45;&gt;Node6</title>
<g id="a_edge12_Node000010_Node000006"><a xlink:title=" ">
<path fill="none" stroke="#63b8ff" d="M577.25,-56.64C574.29,-56.07 571.34,-55.52 568.5,-55 484.21,-39.62 384.52,-23.49 334.5,-15.54"/>
<polygon fill="#63b8ff" stroke="#63b8ff" points="335.03,-12.08 324.61,-13.97 333.94,-19 335.03,-12.08"/>
</a>
</g>
</g>
<!-- Node11 -->
<g id="Node000011" class="node">
<title>Node11</title>
<g id="a_Node000011"><a xlink:title=" ">
<polygon fill="#e0e0e0" stroke="#999999" points="469,-19 412,-19 412,0 469,0 469,-19"/>
<text text-anchor="middle" x="440.5" y="-7" font-family="Helvetica,sans-Serif" font-size="10.00">ostream</text>
</a>
</g>
</g>
<!-- Node10&#45;&gt;Node11 -->
<g id="edge11_Node000010_Node000011" class="edge">
<title>Node10&#45;&gt;Node11</title>
<g id="a_edge11_Node000010_Node000011"><a xlink:title=" ">
<path fill="none" stroke="#63b8ff" d="M584.03,-54.98C555.32,-46.09 510.08,-32.07 478.08,-22.15"/>
<polygon fill="#63b8ff" stroke="#63b8ff" points="478.78,-18.7 468.19,-19.08 476.7,-25.39 478.78,-18.7"/>
</a>
</g>
</g>
<!-- Node12 -->
<g id="Node000012" class="node">
<title>Node12</title>
<g id="a_Node000012"><a xlink:title=" ">
<polygon fill="#e0e0e0" stroke="#999999" points="585.5,-19 487.5,-19 487.5,0 585.5,0 585.5,-19"/>
<text text-anchor="middle" x="536.5" y="-7" font-family="Helvetica,sans-Serif" font-size="10.00">clang/AST/Decl.h</text>
</a>
</g>
</g>
<!-- Node10&#45;&gt;Node12 -->
<g id="edge13_Node000010_Node000012" class="edge">
<title>Node10&#45;&gt;Node12</title>
<g id="a_edge13_Node000010_Node000012"><a xlink:title=" ">
<path fill="none" stroke="#63b8ff" d="M599.45,-54.98C588.04,-46.92 570.67,-34.65 557.07,-25.03"/>
<polygon fill="#63b8ff" stroke="#63b8ff" points="558.96,-22.08 548.77,-19.17 554.92,-27.8 558.96,-22.08"/>
</a>
</g>
</g>
<!-- Node13 -->
<g id="Node000013" class="node">
<title>Node13</title>
<g id="a_Node000013"><a xlink:title=" ">
<polygon fill="#e0e0e0" stroke="#999999" points="767.5,-19 603.5,-19 603.5,0 767.5,0 767.5,-19"/>
<text text-anchor="middle" x="685.5" y="-7" font-family="Helvetica,sans-Serif" font-size="10.00">clang/AST/DependenceFlags.h</text>
</a>
</g>
</g>
<!-- Node10&#45;&gt;Node13 -->
<g id="edge14_Node000010_Node000013" class="edge">
<title>Node10&#45;&gt;Node13</title>
<g id="a_edge14_Node000010_Node000013"><a xlink:title=" ">
<path fill="none" stroke="#63b8ff" d="M623.39,-54.98C634.65,-46.92 651.79,-34.65 665.21,-25.03"/>
<polygon fill="#63b8ff" stroke="#63b8ff" points="667.3,-27.84 673.39,-19.17 663.23,-22.15 667.3,-27.84"/>
</a>
</g>
</g>
<!-- Node14 -->
<g id="Node000014" class="node">
<title>Node14</title>
<g id="a_Node000014"><a xlink:title=" ">
<polygon fill="#e0e0e0" stroke="#999999" points="923,-19 786,-19 786,0 923,0 923,-19"/>
<text text-anchor="middle" x="854.5" y="-7" font-family="Helvetica,sans-Serif" font-size="10.00">clang/AST/PrettyPrinter.h</text>
</a>
</g>
</g>
<!-- Node10&#45;&gt;Node14 -->
<g id="edge15_Node000010_Node000014" class="edge">
<title>Node10&#45;&gt;Node14</title>
<g id="a_edge15_Node000010_Node000014"><a xlink:title=" ">
<path fill="none" stroke="#63b8ff" d="M645.54,-56.07C687.16,-47 757.9,-31.57 805.4,-21.21"/>
<polygon fill="#63b8ff" stroke="#63b8ff" points="806.44,-24.56 815.46,-19.01 804.95,-17.73 806.44,-24.56"/>
</a>
</g>
</g>
</g>
</svg>
