<?xml version="1.0" encoding="UTF-8" standalone="no"?>
<!DOCTYPE svg PUBLIC "-//W3C//DTD SVG 1.1//EN"
 "http://www.w3.org/Graphics/SVG/1.1/DTD/svg11.dtd">
<!-- Generated by graphviz version 2.43.0 (0)
 -->
<!-- Title: src/Injection.cpp Pages: 1 -->
<svg width="829pt" height="196pt"
 viewBox="0.00 0.00 829.00 196.00" xmlns="http://www.w3.org/2000/svg" xmlns:xlink="http://www.w3.org/1999/xlink">
<g id="graph0" class="graph" transform="scale(1 1) rotate(0) translate(4 192)">
<title>src/Injection.cpp</title>
<!-- Node1 -->
<g id="node1" class="node">
<title>Node1</title>
<g id="a_node1"><a xlink:title=" ">
<polygon fill="#bfbfbf" stroke="black" points="375.5,-168.5 375.5,-187.5 471.5,-187.5 471.5,-168.5 375.5,-168.5"/>
<text text-anchor="middle" x="423.5" y="-175.5" font-family="Helvetica,sans-Serif" font-size="10.00">src/Injection.cpp</text>
</a>
</g>
</g>
<!-- Node2 -->
<g id="node2" class="node">
<title>Node2</title>
<g id="a_node2"><a xlink:href="Injection_8hpp.html" target="_top" xlink:title=" ">
<polygon fill="none" stroke="black" points="315.5,-112.5 315.5,-131.5 395.5,-131.5 395.5,-112.5 315.5,-112.5"/>
<text text-anchor="middle" x="355.5" y="-119.5" font-family="Helvetica,sans-Serif" font-size="10.00">Injection.hpp</text>
</a>
</g>
</g>
<!-- Node1&#45;&gt;Node2 -->
<g id="edge1" class="edge">
<title>Node1&#45;&gt;Node2</title>
<path fill="none" stroke="midnightblue" d="M412.57,-168.32C402.33,-160.18 386.78,-147.84 374.5,-138.09"/>
<polygon fill="midnightblue" stroke="midnightblue" points="376.63,-135.31 366.62,-131.83 372.28,-140.79 376.63,-135.31"/>
</g>
<!-- Node7 -->
<g id="node7" class="node">
<title>Node7</title>
<g id="a_node7"><a xlink:title=" ">
<polygon fill="none" stroke="#bfbfbf" points="574,-56.5 574,-75.5 693,-75.5 693,-56.5 574,-56.5"/>
<text text-anchor="middle" x="633.5" y="-63.5" font-family="Helvetica,sans-Serif" font-size="10.00">clang/AST/DeclCXX.h</text>
</a>
</g>
</g>
<!-- Node1&#45;&gt;Node7 -->
<g id="edge18" class="edge">
<title>Node1&#45;&gt;Node7</title>
<path fill="none" stroke="midnightblue" d="M423.43,-168.45C423.79,-154.54 426.63,-127.05 442.5,-112 460.04,-95.37 516.82,-83.35 563.95,-75.94"/>
<polygon fill="midnightblue" stroke="midnightblue" points="564.49,-79.39 573.85,-74.42 563.43,-72.48 564.49,-79.39"/>
</g>
<!-- Node10 -->
<g id="node10" class="node">
<title>Node10</title>
<g id="a_node10"><a xlink:title=" ">
<polygon fill="none" stroke="#bfbfbf" points="0,-0.5 0,-19.5 57,-19.5 57,-0.5 0,-0.5"/>
<text text-anchor="middle" x="28.5" y="-7.5" font-family="Helvetica,sans-Serif" font-size="10.00">ostream</text>
</a>
</g>
</g>
<!-- Node1&#45;&gt;Node10 -->
<g id="edge14" class="edge">
<title>Node1&#45;&gt;Node10</title>
<path fill="none" stroke="midnightblue" d="M375.3,-173.63C297.98,-167.66 150.09,-153.77 102.5,-132 68.13,-116.28 56.7,-109.13 38.5,-76 30.68,-61.77 28.47,-43.3 28.04,-29.68"/>
<polygon fill="midnightblue" stroke="midnightblue" points="31.54,-29.58 28.02,-19.59 24.54,-29.6 31.54,-29.58"/>
</g>
<!-- Node11 -->
<g id="node11" class="node">
<title>Node11</title>
<g id="a_node11"><a xlink:title=" ">
<polygon fill="none" stroke="#bfbfbf" points="91.5,-0.5 91.5,-19.5 189.5,-19.5 189.5,-0.5 91.5,-0.5"/>
<text text-anchor="middle" x="140.5" y="-7.5" font-family="Helvetica,sans-Serif" font-size="10.00">clang/AST/Decl.h</text>
</a>
</g>
</g>
<!-- Node1&#45;&gt;Node11 -->
<g id="edge17" class="edge">
<title>Node1&#45;&gt;Node11</title>
<path fill="none" stroke="midnightblue" d="M375.27,-171.32C282.89,-159.34 86.56,-128.21 46.5,-76 28.14,-52.07 64.72,-33.65 97.47,-22.62"/>
<polygon fill="midnightblue" stroke="midnightblue" points="98.54,-25.95 107,-19.57 96.41,-19.29 98.54,-25.95"/>
</g>
<!-- Node14 -->
<g id="node14" class="node">
<title>Node14</title>
<g id="a_node14"><a xlink:title=" ">
<polygon fill="none" stroke="#bfbfbf" points="451.5,-112.5 451.5,-131.5 507.5,-131.5 507.5,-112.5 451.5,-112.5"/>
<text text-anchor="middle" x="479.5" y="-119.5" font-family="Helvetica,sans-Serif" font-size="10.00">sstream</text>
</a>
</g>
</g>
<!-- Node1&#45;&gt;Node14 -->
<g id="edge15" class="edge">
<title>Node1&#45;&gt;Node14</title>
<path fill="none" stroke="midnightblue" d="M432.5,-168.32C440.69,-160.42 453.01,-148.55 462.97,-138.94"/>
<polygon fill="midnightblue" stroke="midnightblue" points="465.57,-141.29 470.34,-131.83 460.71,-136.26 465.57,-141.29"/>
</g>
<!-- Node15 -->
<g id="node15" class="node">
<title>Node15</title>
<g id="a_node15"><a xlink:title=" ">
<polygon fill="none" stroke="#bfbfbf" points="525.5,-112.5 525.5,-131.5 659.5,-131.5 659.5,-112.5 525.5,-112.5"/>
<text text-anchor="middle" x="592.5" y="-119.5" font-family="Helvetica,sans-Serif" font-size="10.00">termcolor/termcolor.hpp</text>
</a>
</g>
</g>
<!-- Node1&#45;&gt;Node15 -->
<g id="edge16" class="edge">
<title>Node1&#45;&gt;Node15</title>
<path fill="none" stroke="midnightblue" d="M450.28,-168.44C478.83,-159.32 524.23,-144.81 556.04,-134.65"/>
<polygon fill="midnightblue" stroke="midnightblue" points="557.39,-137.89 565.85,-131.52 555.26,-131.23 557.39,-137.89"/>
</g>
<!-- Node16 -->
<g id="node16" class="node">
<title>Node16</title>
<g id="a_node16"><a xlink:title=" ">
<polygon fill="none" stroke="#bfbfbf" points="678,-112.5 678,-131.5 821,-131.5 821,-112.5 678,-112.5"/>
<text text-anchor="middle" x="749.5" y="-119.5" font-family="Helvetica,sans-Serif" font-size="10.00">clang/AST/DeclTemplate.h</text>
</a>
</g>
</g>
<!-- Node1&#45;&gt;Node16 -->
<g id="edge19" class="edge">
<title>Node1&#45;&gt;Node16</title>
<path fill="none" stroke="midnightblue" d="M471.6,-169.03C528.98,-159.53 625.01,-143.62 687.8,-133.22"/>
<polygon fill="midnightblue" stroke="midnightblue" points="688.67,-136.62 697.97,-131.54 687.53,-129.72 688.67,-136.62"/>
</g>
<!-- Node3 -->
<g id="node3" class="node">
<title>Node3</title>
<g id="a_node3"><a xlink:title=" ">
<polygon fill="none" stroke="#bfbfbf" points="375.5,-56.5 375.5,-75.5 431.5,-75.5 431.5,-56.5 375.5,-56.5"/>
<text text-anchor="middle" x="403.5" y="-63.5" font-family="Helvetica,sans-Serif" font-size="10.00">optional</text>
</a>
</g>
</g>
<!-- Node2&#45;&gt;Node3 -->
<g id="edge2" class="edge">
<title>Node2&#45;&gt;Node3</title>
<path fill="none" stroke="midnightblue" d="M363.43,-112.08C370.35,-104.3 380.57,-92.8 388.95,-83.37"/>
<polygon fill="midnightblue" stroke="midnightblue" points="391.69,-85.55 395.72,-75.75 386.46,-80.9 391.69,-85.55"/>
</g>
<!-- Node4 -->
<g id="node4" class="node">
<title>Node4</title>
<g id="a_node4"><a xlink:title=" ">
<polygon fill="none" stroke="#bfbfbf" points="553.5,-0.5 553.5,-19.5 597.5,-19.5 597.5,-0.5 553.5,-0.5"/>
<text text-anchor="middle" x="575.5" y="-7.5" font-family="Helvetica,sans-Serif" font-size="10.00">string</text>
</a>
</g>
</g>
<!-- Node2&#45;&gt;Node4 -->
<g id="edge3" class="edge">
<title>Node2&#45;&gt;Node4</title>
<path fill="none" stroke="midnightblue" d="M395.81,-113.57C439.33,-104.99 505.28,-90.24 526.5,-76 544.23,-64.1 558.11,-43.6 566.5,-28.8"/>
<polygon fill="midnightblue" stroke="midnightblue" points="569.77,-30.1 571.41,-19.64 563.6,-26.79 569.77,-30.1"/>
</g>
<!-- Node5 -->
<g id="node5" class="node">
<title>Node5</title>
<g id="a_node5"><a xlink:title=" ">
<polygon fill="none" stroke="#bfbfbf" points="56,-56.5 56,-75.5 103,-75.5 103,-56.5 56,-56.5"/>
<text text-anchor="middle" x="79.5" y="-63.5" font-family="Helvetica,sans-Serif" font-size="10.00">vector</text>
</a>
</g>
</g>
<!-- Node2&#45;&gt;Node5 -->
<g id="edge4" class="edge">
<title>Node2&#45;&gt;Node5</title>
<path fill="none" stroke="midnightblue" d="M315.3,-114.61C268.92,-107 190.19,-93.38 113.11,-75.98"/>
<polygon fill="midnightblue" stroke="midnightblue" points="113.76,-72.54 103.23,-73.73 112.2,-79.36 113.76,-72.54"/>
</g>
<!-- Node6 -->
<g id="node6" class="node">
<title>Node6</title>
<g id="a_node6"><a xlink:title=" ">
<polygon fill="none" stroke="#bfbfbf" points="121.5,-56.5 121.5,-75.5 239.5,-75.5 239.5,-56.5 121.5,-56.5"/>
<text text-anchor="middle" x="180.5" y="-63.5" font-family="Helvetica,sans-Serif" font-size="10.00">llvm/ADT/StringRef.h</text>
</a>
</g>
</g>
<!-- Node2&#45;&gt;Node6 -->
<g id="edge5" class="edge">
<title>Node2&#45;&gt;Node6</title>
<path fill="none" stroke="midnightblue" d="M327.77,-112.44C298.07,-103.28 250.78,-88.69 217.83,-78.52"/>
<polygon fill="midnightblue" stroke="midnightblue" points="218.69,-75.12 208.1,-75.52 216.62,-81.81 218.69,-75.12"/>
</g>
<!-- Node2&#45;&gt;Node7 -->
<g id="edge6" class="edge">
<title>Node2&#45;&gt;Node7</title>
<path fill="none" stroke="midnightblue" d="M395.63,-113.21C444.08,-103.79 525.76,-87.93 579.66,-77.46"/>
<polygon fill="midnightblue" stroke="midnightblue" points="580.57,-80.85 589.72,-75.5 579.23,-73.98 580.57,-80.85"/>
</g>
<!-- Node8 -->
<g id="node8" class="node">
<title>Node8</title>
<g id="a_node8"><a xlink:title=" ">
<polygon fill="none" stroke="#bfbfbf" points="258,-56.5 258,-75.5 357,-75.5 357,-56.5 258,-56.5"/>
<text text-anchor="middle" x="307.5" y="-63.5" font-family="Helvetica,sans-Serif" font-size="10.00">clang/AST/Type.h</text>
</a>
</g>
</g>
<!-- Node2&#45;&gt;Node8 -->
<g id="edge7" class="edge">
<title>Node2&#45;&gt;Node8</title>
<path fill="none" stroke="midnightblue" d="M347.57,-112.08C340.65,-104.3 330.43,-92.8 322.05,-83.37"/>
<polygon fill="midnightblue" stroke="midnightblue" points="324.54,-80.9 315.28,-75.75 319.31,-85.55 324.54,-80.9"/>
</g>
<!-- Node9 -->
<g id="node9" class="node">
<title>Node9</title>
<g id="a_node9"><a xlink:href="Param_8hpp.html" target="_top" xlink:title=" ">
<polygon fill="none" stroke="black" points="449.5,-56.5 449.5,-75.5 517.5,-75.5 517.5,-56.5 449.5,-56.5"/>
<text text-anchor="middle" x="483.5" y="-63.5" font-family="Helvetica,sans-Serif" font-size="10.00">Param.hpp</text>
</a>
</g>
</g>
<!-- Node2&#45;&gt;Node9 -->
<g id="edge8" class="edge">
<title>Node2&#45;&gt;Node9</title>
<path fill="none" stroke="midnightblue" d="M375.78,-112.44C396.85,-103.56 430.02,-89.56 453.99,-79.45"/>
<polygon fill="midnightblue" stroke="midnightblue" points="455.46,-82.63 463.31,-75.52 452.74,-76.18 455.46,-82.63"/>
</g>
<!-- Node9&#45;&gt;Node4 -->
<g id="edge10" class="edge">
<title>Node9&#45;&gt;Node4</title>
<path fill="none" stroke="midnightblue" d="M498.28,-56.32C512.77,-47.82 535.07,-34.73 551.99,-24.8"/>
<polygon fill="midnightblue" stroke="midnightblue" points="553.9,-27.74 560.76,-19.65 550.36,-21.7 553.9,-27.74"/>
</g>
<!-- Node9&#45;&gt;Node10 -->
<g id="edge9" class="edge">
<title>Node9&#45;&gt;Node10</title>
<path fill="none" stroke="midnightblue" d="M449.29,-57.5C446.33,-56.95 443.36,-56.44 440.5,-56 282.46,-31.59 241.01,-41.16 82.5,-20 77.45,-19.33 72.14,-18.54 66.91,-17.72"/>
<polygon fill="midnightblue" stroke="midnightblue" points="67.47,-14.26 57.03,-16.11 66.34,-21.17 67.47,-14.26"/>
</g>
<!-- Node9&#45;&gt;Node11 -->
<g id="edge11" class="edge">
<title>Node9&#45;&gt;Node11</title>
<path fill="none" stroke="midnightblue" d="M449.27,-57.65C446.31,-57.07 443.35,-56.51 440.5,-56 395.51,-47.92 273.6,-30.11 199.77,-19.48"/>
<polygon fill="midnightblue" stroke="midnightblue" points="200.08,-15.99 189.68,-18.03 199.08,-22.92 200.08,-15.99"/>
</g>
<!-- Node12 -->
<g id="node12" class="node">
<title>Node12</title>
<g id="a_node12"><a xlink:title=" ">
<polygon fill="none" stroke="#bfbfbf" points="371.5,-0.5 371.5,-19.5 535.5,-19.5 535.5,-0.5 371.5,-0.5"/>
<text text-anchor="middle" x="453.5" y="-7.5" font-family="Helvetica,sans-Serif" font-size="10.00">clang/AST/DependenceFlags.h</text>
</a>
</g>
</g>
<!-- Node9&#45;&gt;Node12 -->
<g id="edge12" class="edge">
<title>Node9&#45;&gt;Node12</title>
<path fill="none" stroke="midnightblue" d="M478.55,-56.08C474.4,-48.61 468.35,-37.72 463.23,-28.52"/>
<polygon fill="midnightblue" stroke="midnightblue" points="466.28,-26.79 458.36,-19.75 460.16,-30.19 466.28,-26.79"/>
</g>
<!-- Node13 -->
<g id="node13" class="node">
<title>Node13</title>
<g id="a_node13"><a xlink:title=" ">
<polygon fill="none" stroke="#bfbfbf" points="216,-0.5 216,-19.5 353,-19.5 353,-0.5 216,-0.5"/>
<text text-anchor="middle" x="284.5" y="-7.5" font-family="Helvetica,sans-Serif" font-size="10.00">clang/AST/PrettyPrinter.h</text>
</a>
</g>
</g>
<!-- Node9&#45;&gt;Node13 -->
<g id="edge13" class="edge">
<title>Node9&#45;&gt;Node13</title>
<path fill="none" stroke="midnightblue" d="M451.97,-56.44C417.91,-47.2 363.49,-32.44 325.98,-22.26"/>
<polygon fill="midnightblue" stroke="midnightblue" points="326.45,-18.76 315.88,-19.52 324.62,-25.51 326.45,-18.76"/>
</g>
</g>
</svg>
