<?xml version="1.0" encoding="UTF-8" standalone="no"?>
<!DOCTYPE svg PUBLIC "-//W3C//DTD SVG 1.1//EN"
 "http://www.w3.org/Graphics/SVG/1.1/DTD/svg11.dtd">
<!-- Generated by graphviz version 2.43.0 (0)
 -->
<!-- Title: include/Injection.hpp Pages: 1 -->
<svg width="879pt" height="137pt"
 viewBox="0.00 0.00 878.50 137.00" xmlns="http://www.w3.org/2000/svg" xmlns:xlink="http://www.w3.org/1999/xlink">
<g id="graph0" class="graph" transform="scale(1 1) rotate(0) translate(4 133)">
<title>include/Injection.hpp</title>
<!-- Node1 -->
<g id="Node000001" class="node">
<title>Node1</title>
<g id="a_Node000001"><a xlink:title=" ">
<polygon fill="#999999" stroke="#666666" points="503,-129 385,-129 385,-110 503,-110 503,-129"/>
<text text-anchor="middle" x="444" y="-117" font-family="Helvetica,sans-Serif" font-size="10.00">include/Injection.hpp</text>
</a>
</g>
</g>
<!-- Node2 -->
<g id="Node000002" class="node">
<title>Node2</title>
<g id="a_Node000002"><a xlink:title=" ">
<polygon fill="#e0e0e0" stroke="#999999" points="44,-19 0,-19 0,0 44,0 44,-19"/>
<text text-anchor="middle" x="22" y="-7" font-family="Helvetica,sans-Serif" font-size="10.00">string</text>
</a>
</g>
</g>
<!-- Node1&#45;&gt;Node2 -->
<g id="edge1_Node000001_Node000002" class="edge">
<title>Node1&#45;&gt;Node2</title>
<g id="a_edge1_Node000001_Node000002"><a xlink:title=" ">
<path fill="none" stroke="#63b8ff" d="M384.98,-112.15C331.15,-105.51 249.77,-93.31 181,-74 133.23,-60.58 80.15,-37.66 49,-23.34"/>
<polygon fill="#63b8ff" stroke="#63b8ff" points="50.23,-20.05 39.69,-19.01 47.28,-26.4 50.23,-20.05"/>
</a>
</g>
</g>
<!-- Node3 -->
<g id="Node000003" class="node">
<title>Node3</title>
<g id="a_Node000003"><a xlink:title=" ">
<polygon fill="#e0e0e0" stroke="#999999" points="519.5,-74 472.5,-74 472.5,-55 519.5,-55 519.5,-74"/>
<text text-anchor="middle" x="496" y="-62" font-family="Helvetica,sans-Serif" font-size="10.00">vector</text>
</a>
</g>
</g>
<!-- Node1&#45;&gt;Node3 -->
<g id="edge2_Node000001_Node000003" class="edge">
<title>Node1&#45;&gt;Node3</title>
<g id="a_edge2_Node000001_Node000003"><a xlink:title=" ">
<path fill="none" stroke="#63b8ff" d="M452.59,-109.75C460.16,-102.03 471.38,-90.6 480.51,-81.28"/>
<polygon fill="#63b8ff" stroke="#63b8ff" points="483.07,-83.68 487.57,-74.09 478.07,-78.78 483.07,-83.68"/>
</a>
</g>
</g>
<!-- Node4 -->
<g id="Node000004" class="node">
<title>Node4</title>
<g id="a_Node000004"><a xlink:title=" ">
<polygon fill="#e0e0e0" stroke="#999999" points="295.5,-19 226.5,-19 226.5,0 295.5,0 295.5,-19"/>
<text text-anchor="middle" x="261" y="-7" font-family="Helvetica,sans-Serif" font-size="10.00">fmt/color.h</text>
</a>
</g>
</g>
<!-- Node1&#45;&gt;Node4 -->
<g id="edge3_Node000001_Node000004" class="edge">
<title>Node1&#45;&gt;Node4</title>
<g id="a_edge3_Node000001_Node000004"><a xlink:title=" ">
<path fill="none" stroke="#63b8ff" d="M384.73,-116.68C317.35,-113.21 213.51,-103.15 189,-74 172.38,-54.23 202.27,-35.13 228.44,-23.13"/>
<polygon fill="#63b8ff" stroke="#63b8ff" points="230.06,-26.24 237.83,-19.04 227.26,-19.82 230.06,-26.24"/>
</a>
</g>
</g>
<!-- Node5 -->
<g id="Node000005" class="node">
<title>Node5</title>
<g id="a_Node000005"><a xlink:title=" ">
<polygon fill="#e0e0e0" stroke="#999999" points="535.5,-19 468.5,-19 468.5,0 535.5,0 535.5,-19"/>
<text text-anchor="middle" x="502" y="-7" font-family="Helvetica,sans-Serif" font-size="10.00">fmt/core.h</text>
</a>
</g>
</g>
<!-- Node1&#45;&gt;Node5 -->
<g id="edge4_Node000001_Node000005" class="edge">
<title>Node1&#45;&gt;Node5</title>
<g id="a_edge4_Node000001_Node000005"><a xlink:title=" ">
<path fill="none" stroke="#63b8ff" d="M445.58,-109.84C448.13,-97.2 453.92,-73.2 464,-55 469.76,-44.6 478.19,-34.41 485.65,-26.42"/>
<polygon fill="#63b8ff" stroke="#63b8ff" points="488.19,-28.83 492.65,-19.22 483.17,-23.95 488.19,-28.83"/>
</a>
</g>
</g>
<!-- Node6 -->
<g id="Node000006" class="node">
<title>Node6</title>
<g id="a_Node000006"><a xlink:title=" ">
<polygon fill="#e0e0e0" stroke="#999999" points="616.5,-74 537.5,-74 537.5,-55 616.5,-55 616.5,-74"/>
<text text-anchor="middle" x="577" y="-62" font-family="Helvetica,sans-Serif" font-size="10.00">fmt/ranges.h</text>
</a>
</g>
</g>
<!-- Node1&#45;&gt;Node6 -->
<g id="edge5_Node000001_Node000006" class="edge">
<title>Node1&#45;&gt;Node6</title>
<g id="a_edge5_Node000001_Node000006"><a xlink:title=" ">
<path fill="none" stroke="#63b8ff" d="M465.37,-109.98C487.15,-101.3 521.16,-87.75 545.92,-77.88"/>
<polygon fill="#63b8ff" stroke="#63b8ff" points="547.25,-81.12 555.24,-74.17 544.66,-74.62 547.25,-81.12"/>
</a>
</g>
</g>
<!-- Node7 -->
<g id="Node000007" class="node">
<title>Node7</title>
<g id="a_Node000007"><a xlink:title=" ">
<polygon fill="#e0e0e0" stroke="#999999" points="753.5,-74 634.5,-74 634.5,-55 753.5,-55 753.5,-74"/>
<text text-anchor="middle" x="694" y="-62" font-family="Helvetica,sans-Serif" font-size="10.00">clang/AST/DeclCXX.h</text>
</a>
</g>
</g>
<!-- Node1&#45;&gt;Node7 -->
<g id="edge6_Node000001_Node000007" class="edge">
<title>Node1&#45;&gt;Node7</title>
<g id="a_edge6_Node000001_Node000007"><a xlink:title=" ">
<path fill="none" stroke="#63b8ff" d="M484.17,-109.98C527.5,-100.8 596.59,-86.15 643.56,-76.19"/>
<polygon fill="#63b8ff" stroke="#63b8ff" points="644.46,-79.58 653.52,-74.08 643.01,-72.73 644.46,-79.58"/>
</a>
</g>
</g>
<!-- Node8 -->
<g id="Node000008" class="node">
<title>Node8</title>
<g id="a_Node000008"><a xlink:title=" ">
<polygon fill="#e0e0e0" stroke="#999999" points="870.5,-74 771.5,-74 771.5,-55 870.5,-55 870.5,-74"/>
<text text-anchor="middle" x="821" y="-62" font-family="Helvetica,sans-Serif" font-size="10.00">clang/AST/Type.h</text>
</a>
</g>
</g>
<!-- Node1&#45;&gt;Node8 -->
<g id="edge7_Node000001_Node000008" class="edge">
<title>Node1&#45;&gt;Node8</title>
<g id="a_edge7_Node000001_Node000008"><a xlink:title=" ">
<path fill="none" stroke="#63b8ff" d="M503.1,-110.38C564.96,-101.85 665.21,-87.95 761.16,-74.26"/>
<polygon fill="#63b8ff" stroke="#63b8ff" points="761.93,-77.68 771.33,-72.8 760.93,-70.75 761.93,-77.68"/>
</a>
</g>
</g>
<!-- Node9 -->
<g id="Node000009" class="node">
<title>Node9</title>
<g id="a_Node000009"><a xlink:href="Param_8hpp.html" target="_top" xlink:title=" ">
<polygon fill="white" stroke="#666666" points="416,-74 348,-74 348,-55 416,-55 416,-74"/>
<text text-anchor="middle" x="382" y="-62" font-family="Helvetica,sans-Serif" font-size="10.00">Param.hpp</text>
</a>
</g>
</g>
<!-- Node1&#45;&gt;Node9 -->
<g id="edge8_Node000001_Node000009" class="edge">
<title>Node1&#45;&gt;Node9</title>
<g id="a_edge8_Node000001_Node000009"><a xlink:title=" ">
<path fill="none" stroke="#63b8ff" d="M434.04,-109.98C424.87,-102.15 411.06,-90.34 399.97,-80.86"/>
<polygon fill="#63b8ff" stroke="#63b8ff" points="402.02,-78.01 392.14,-74.17 397.47,-83.33 402.02,-78.01"/>
</a>
</g>
</g>
<!-- Node12 -->
<g id="Node000012" class="node">
<title>Node12</title>
<g id="a_Node000012"><a xlink:href="TemplateArgument_8hpp.html" target="_top" xlink:title=" ">
<polygon fill="white" stroke="#666666" points="329.5,-74 198.5,-74 198.5,-55 329.5,-55 329.5,-74"/>
<text text-anchor="middle" x="264" y="-62" font-family="Helvetica,sans-Serif" font-size="10.00">TemplateArgument.hpp</text>
</a>
</g>
</g>
<!-- Node1&#45;&gt;Node12 -->
<g id="edge14_Node000001_Node000012" class="edge">
<title>Node1&#45;&gt;Node12</title>
<g id="a_edge14_Node000001_Node000012"><a xlink:title=" ">
<path fill="none" stroke="#63b8ff" d="M415.08,-109.98C384.73,-101.05 336.83,-86.94 303.12,-77.02"/>
<polygon fill="#63b8ff" stroke="#63b8ff" points="303.73,-73.55 293.15,-74.08 301.75,-80.26 303.73,-73.55"/>
</a>
</g>
</g>
<!-- Node9&#45;&gt;Node2 -->
<g id="edge9_Node000009_Node000002" class="edge">
<title>Node9&#45;&gt;Node2</title>
<g id="a_edge9_Node000009_Node000002"><a xlink:title=" ">
<path fill="none" stroke="#63b8ff" d="M347.77,-56.51C344.81,-55.97 341.85,-55.46 339,-55 215.74,-35.08 180.43,-43.54 54.31,-19"/>
<polygon fill="#63b8ff" stroke="#63b8ff" points="54.75,-15.52 44.26,-17.01 53.39,-22.39 54.75,-15.52"/>
</a>
</g>
</g>
<!-- Node9&#45;&gt;Node4 -->
<g id="edge10_Node000009_Node000004" class="edge">
<title>Node9&#45;&gt;Node4</title>
<g id="a_edge10_Node000009_Node000004"><a xlink:title=" ">
<path fill="none" stroke="#63b8ff" d="M362.56,-54.98C343.01,-46.42 312.62,-33.11 290.18,-23.28"/>
<polygon fill="#63b8ff" stroke="#63b8ff" points="291.36,-19.98 280.79,-19.17 288.55,-26.39 291.36,-19.98"/>
</a>
</g>
</g>
<!-- Node9&#45;&gt;Node5 -->
<g id="edge11_Node000009_Node000005" class="edge">
<title>Node9&#45;&gt;Node5</title>
<g id="a_edge11_Node000009_Node000005"><a xlink:title=" ">
<path fill="none" stroke="#63b8ff" d="M401.28,-54.98C420.67,-46.42 450.81,-33.11 473.07,-23.28"/>
<polygon fill="#63b8ff" stroke="#63b8ff" points="474.64,-26.41 482.37,-19.17 471.81,-20.01 474.64,-26.41"/>
</a>
</g>
</g>
<!-- Node10 -->
<g id="Node000010" class="node">
<title>Node10</title>
<g id="a_Node000010"><a xlink:title=" ">
<polygon fill="#e0e0e0" stroke="#999999" points="652,-19 554,-19 554,0 652,0 652,-19"/>
<text text-anchor="middle" x="603" y="-7" font-family="Helvetica,sans-Serif" font-size="10.00">clang/AST/Decl.h</text>
</a>
</g>
</g>
<!-- Node9&#45;&gt;Node10 -->
<g id="edge12_Node000009_Node000010" class="edge">
<title>Node9&#45;&gt;Node10</title>
<g id="a_edge12_Node000009_Node000010"><a xlink:title=" ">
<path fill="none" stroke="#63b8ff" d="M416.05,-55.33C453.97,-46.24 515.44,-31.5 557.47,-21.42"/>
<polygon fill="#63b8ff" stroke="#63b8ff" points="558.54,-24.76 567.45,-19.03 556.91,-17.95 558.54,-24.76"/>
</a>
</g>
</g>
<!-- Node11 -->
<g id="Node000011" class="node">
<title>Node11</title>
<g id="a_Node000011"><a xlink:title=" ">
<polygon fill="#e0e0e0" stroke="#999999" points="450.5,-19 313.5,-19 313.5,0 450.5,0 450.5,-19"/>
<text text-anchor="middle" x="382" y="-7" font-family="Helvetica,sans-Serif" font-size="10.00">clang/AST/PrettyPrinter.h</text>
</a>
</g>
</g>
<!-- Node9&#45;&gt;Node11 -->
<g id="edge13_Node000009_Node000011" class="edge">
<title>Node9&#45;&gt;Node11</title>
<g id="a_edge13_Node000009_Node000011"><a xlink:title=" ">
<path fill="none" stroke="#63b8ff" d="M382,-54.75C382,-47.8 382,-37.85 382,-29.13"/>
<polygon fill="#63b8ff" stroke="#63b8ff" points="385.5,-29.09 382,-19.09 378.5,-29.09 385.5,-29.09"/>
</a>
</g>
</g>
<!-- Node12&#45;&gt;Node2 -->
<g id="edge16_Node000012_Node000002" class="edge">
<title>Node12&#45;&gt;Node2</title>
<g id="a_edge16_Node000012_Node000002"><a xlink:title=" ">
<path fill="none" stroke="#63b8ff" d="M219.78,-54.97C179.14,-46.96 117.01,-34.26 54.37,-19.22"/>
<polygon fill="#63b8ff" stroke="#63b8ff" points="54.85,-15.74 44.31,-16.79 53.21,-22.54 54.85,-15.74"/>
</a>
</g>
</g>
<!-- Node12&#45;&gt;Node4 -->
<g id="edge17_Node000012_Node000004" class="edge">
<title>Node12&#45;&gt;Node4</title>
<g id="a_edge17_Node000012_Node000004"><a xlink:title=" ">
<path fill="none" stroke="#63b8ff" d="M263.5,-54.75C263.11,-47.8 262.55,-37.85 262.05,-29.13"/>
<polygon fill="#63b8ff" stroke="#63b8ff" points="265.55,-28.88 261.49,-19.09 258.56,-29.27 265.55,-28.88"/>
</a>
</g>
</g>
<!-- Node12&#45;&gt;Node5 -->
<g id="edge18_Node000012_Node000005" class="edge">
<title>Node12&#45;&gt;Node5</title>
<g id="a_edge18_Node000012_Node000005"><a xlink:title=" ">
<path fill="none" stroke="#63b8ff" d="M302.24,-54.98C344.91,-45.48 413.8,-30.14 458.49,-20.19"/>
<polygon fill="#63b8ff" stroke="#63b8ff" points="459.47,-23.56 468.47,-17.97 457.95,-16.72 459.47,-23.56"/>
</a>
</g>
</g>
<!-- Node12&#45;&gt;Node11 -->
<g id="edge19_Node000012_Node000011" class="edge">
<title>Node12&#45;&gt;Node11</title>
<g id="a_edge19_Node000012_Node000011"><a xlink:title=" ">
<path fill="none" stroke="#63b8ff" d="M282.96,-54.98C302.03,-46.42 331.66,-33.11 353.55,-23.28"/>
<polygon fill="#63b8ff" stroke="#63b8ff" points="355.01,-26.46 362.7,-19.17 352.14,-20.07 355.01,-26.46"/>
</a>
</g>
</g>
<!-- Node13 -->
<g id="Node000013" class="node">
<title>Node13</title>
<g id="a_Node000013"><a xlink:title=" ">
<polygon fill="#e0e0e0" stroke="#999999" points="208,-19 62,-19 62,0 208,0 208,-19"/>
<text text-anchor="middle" x="135" y="-7" font-family="Helvetica,sans-Serif" font-size="10.00">clang/AST/TemplateBase.h</text>
</a>
</g>
</g>
<!-- Node12&#45;&gt;Node13 -->
<g id="edge15_Node000012_Node000013" class="edge">
<title>Node12&#45;&gt;Node13</title>
<g id="a_edge15_Node000012_Node000013"><a xlink:title=" ">
<path fill="none" stroke="#63b8ff" d="M243.27,-54.98C222.24,-46.34 189.45,-32.87 165.46,-23.02"/>
<polygon fill="#63b8ff" stroke="#63b8ff" points="166.68,-19.73 156.1,-19.17 164.02,-26.21 166.68,-19.73"/>
</a>
</g>
</g>
</g>
</svg>
