<?xml version="1.0" encoding="UTF-8" standalone="no"?>
<!DOCTYPE svg PUBLIC "-//W3C//DTD SVG 1.1//EN"
 "http://www.w3.org/Graphics/SVG/1.1/DTD/svg11.dtd">
<!-- Generated by graphviz version 2.43.0 (0)
 -->
<!-- Title: include/Injection.hpp Pages: 1 -->
<svg width="582pt" height="151pt"
 viewBox="0.00 0.00 582.00 151.00" xmlns="http://www.w3.org/2000/svg" xmlns:xlink="http://www.w3.org/1999/xlink">
<g id="graph0" class="graph" transform="scale(1 1) rotate(0) translate(4 147)">
<title>include/Injection.hpp</title>
<!-- Node1 -->
<g id="node1" class="node">
<title>Node1</title>
<g id="a_node1"><a xlink:title=" ">
<polygon fill="#bfbfbf" stroke="black" points="306,-123.5 306,-142.5 424,-142.5 424,-123.5 306,-123.5"/>
<text text-anchor="middle" x="365" y="-130.5" font-family="Helvetica,sans-Serif" font-size="10.00">include/Injection.hpp</text>
</a>
</g>
</g>
<!-- Node2 -->
<g id="node2" class="node">
<title>Node2</title>
<g id="a_node2"><a xlink:href="Instantiator_8cpp.html" target="_top" xlink:title=" ">
<polygon fill="none" stroke="black" points="0,-0.5 0,-19.5 92,-19.5 92,-0.5 0,-0.5"/>
<text text-anchor="middle" x="46" y="-7.5" font-family="Helvetica,sans-Serif" font-size="10.00">Instantiator.cpp</text>
</a>
</g>
</g>
<!-- Node1&#45;&gt;Node2 -->
<g id="edge1" class="edge">
<title>Node1&#45;&gt;Node2</title>
<path fill="none" stroke="midnightblue" d="M295.57,-130.29C217.67,-126.91 97.88,-116.86 65,-87 45.67,-69.44 44.65,-35.47 45.34,-19.58"/>
<polygon fill="midnightblue" stroke="midnightblue" points="295.67,-133.8 305.8,-130.7 295.95,-126.8 295.67,-133.8"/>
</g>
<!-- Node3 -->
<g id="node3" class="node">
<title>Node3</title>
<g id="a_node3"><a xlink:href="GetNeededInstantiations_8hpp.html" target="_top" xlink:title=" ">
<polygon fill="none" stroke="black" points="74,-56.5 74,-86.5 234,-86.5 234,-56.5 74,-56.5"/>
<text text-anchor="start" x="82" y="-74.5" font-family="Helvetica,sans-Serif" font-size="10.00">include/Callbacks/GetNeeded</text>
<text text-anchor="middle" x="154" y="-63.5" font-family="Helvetica,sans-Serif" font-size="10.00">Instantiations.hpp</text>
</a>
</g>
</g>
<!-- Node1&#45;&gt;Node3 -->
<g id="edge2" class="edge">
<title>Node1&#45;&gt;Node3</title>
<path fill="none" stroke="midnightblue" d="M325.05,-120.73C290.61,-111.02 240.74,-96.96 203.73,-86.52"/>
<polygon fill="midnightblue" stroke="midnightblue" points="324.19,-124.13 334.77,-123.48 326.09,-117.39 324.19,-124.13"/>
</g>
<!-- Node4 -->
<g id="node4" class="node">
<title>Node4</title>
<g id="a_node4"><a xlink:href="GetNeededInstantiations_8cpp.html" target="_top" xlink:title=" ">
<polygon fill="none" stroke="black" points="110,-0.5 110,-19.5 336,-19.5 336,-0.5 110,-0.5"/>
<text text-anchor="middle" x="223" y="-7.5" font-family="Helvetica,sans-Serif" font-size="10.00">src/Callbacks/GetNeededInstantiations.cpp</text>
</a>
</g>
</g>
<!-- Node1&#45;&gt;Node4 -->
<g id="edge8" class="edge">
<title>Node1&#45;&gt;Node4</title>
<path fill="none" stroke="midnightblue" d="M379.98,-115.05C392.6,-98.63 406.61,-73.68 393,-56 379.73,-38.76 328.56,-26.77 285.79,-19.53"/>
<polygon fill="midnightblue" stroke="midnightblue" points="376.93,-113.25 373.29,-123.2 382.34,-117.69 376.93,-113.25"/>
</g>
<!-- Node5 -->
<g id="node5" class="node">
<title>Node5</title>
<g id="a_node5"><a xlink:href="InjectInstantiation_8hpp.html" target="_top" xlink:title=" ">
<polygon fill="none" stroke="black" points="252,-56.5 252,-86.5 384,-86.5 384,-56.5 252,-56.5"/>
<text text-anchor="start" x="260" y="-74.5" font-family="Helvetica,sans-Serif" font-size="10.00">include/Callbacks/Inject</text>
<text text-anchor="middle" x="318" y="-63.5" font-family="Helvetica,sans-Serif" font-size="10.00">Instantiation.hpp</text>
</a>
</g>
</g>
<!-- Node1&#45;&gt;Node5 -->
<g id="edge5" class="edge">
<title>Node1&#45;&gt;Node5</title>
<path fill="none" stroke="midnightblue" d="M351.99,-115.53C344.79,-106.42 335.94,-95.21 329.08,-86.52"/>
<polygon fill="midnightblue" stroke="midnightblue" points="349.32,-117.8 358.27,-123.48 354.81,-113.46 349.32,-117.8"/>
</g>
<!-- Node6 -->
<g id="node6" class="node">
<title>Node6</title>
<g id="a_node6"><a xlink:href="InjectInstantiation_8cpp.html" target="_top" xlink:title=" ">
<polygon fill="none" stroke="black" points="354.5,-0.5 354.5,-19.5 547.5,-19.5 547.5,-0.5 354.5,-0.5"/>
<text text-anchor="middle" x="451" y="-7.5" font-family="Helvetica,sans-Serif" font-size="10.00">src/Callbacks/InjectInstantiation.cpp</text>
</a>
</g>
</g>
<!-- Node1&#45;&gt;Node6 -->
<g id="edge9" class="edge">
<title>Node1&#45;&gt;Node6</title>
<path fill="none" stroke="midnightblue" d="M390.66,-118.13C402.87,-110.4 416.78,-99.74 426,-87 441.31,-65.85 447.62,-34.77 449.89,-19.76"/>
<polygon fill="midnightblue" stroke="midnightblue" points="388.54,-115.32 381.76,-123.47 392.14,-121.33 388.54,-115.32"/>
</g>
<!-- Node7 -->
<g id="node7" class="node">
<title>Node7</title>
<g id="a_node7"><a xlink:href="Injection_8cpp.html" target="_top" xlink:title=" ">
<polygon fill="none" stroke="black" points="478,-62 478,-81 574,-81 574,-62 478,-62"/>
<text text-anchor="middle" x="526" y="-69" font-family="Helvetica,sans-Serif" font-size="10.00">src/Injection.cpp</text>
</a>
</g>
</g>
<!-- Node1&#45;&gt;Node7 -->
<g id="edge10" class="edge">
<title>Node1&#45;&gt;Node7</title>
<path fill="none" stroke="midnightblue" d="M397.65,-119.93C428.94,-108.37 475.38,-91.21 502.98,-81.01"/>
<polygon fill="midnightblue" stroke="midnightblue" points="396.23,-116.73 388.07,-123.48 398.66,-123.29 396.23,-116.73"/>
</g>
<!-- Node3&#45;&gt;Node2 -->
<g id="edge3" class="edge">
<title>Node3&#45;&gt;Node2</title>
<path fill="none" stroke="midnightblue" d="M119.52,-51.51C100.11,-40.81 76.81,-27.97 61.71,-19.66"/>
<polygon fill="midnightblue" stroke="midnightblue" points="117.96,-54.64 128.41,-56.4 121.34,-48.51 117.96,-54.64"/>
</g>
<!-- Node3&#45;&gt;Node4 -->
<g id="edge4" class="edge">
<title>Node3&#45;&gt;Node4</title>
<path fill="none" stroke="midnightblue" d="M178.24,-49.6C190.16,-39.32 203.89,-27.48 212.96,-19.66"/>
<polygon fill="midnightblue" stroke="midnightblue" points="175.64,-47.22 170.35,-56.4 180.21,-52.52 175.64,-47.22"/>
</g>
<!-- Node5&#45;&gt;Node2 -->
<g id="edge6" class="edge">
<title>Node5&#45;&gt;Node2</title>
<path fill="none" stroke="midnightblue" d="M243.83,-54.27C192.48,-43.04 126.19,-28.54 84.89,-19.51"/>
<polygon fill="midnightblue" stroke="midnightblue" points="243.37,-57.76 253.88,-56.47 244.86,-50.92 243.37,-57.76"/>
</g>
<!-- Node5&#45;&gt;Node6 -->
<g id="edge7" class="edge">
<title>Node5&#45;&gt;Node6</title>
<path fill="none" stroke="midnightblue" d="M358.84,-52.23C383.06,-41.39 412.64,-28.16 431.65,-19.66"/>
<polygon fill="midnightblue" stroke="midnightblue" points="357.22,-49.12 349.52,-56.4 360.08,-55.51 357.22,-49.12"/>
</g>
</g>
</svg>
