<?xml version="1.0" encoding="UTF-8" standalone="no"?>
<!DOCTYPE svg PUBLIC "-//W3C//DTD SVG 1.1//EN"
 "http://www.w3.org/Graphics/SVG/1.1/DTD/svg11.dtd">
<!-- Generated by graphviz version 2.43.0 (0)
 -->
<!-- Title: src/Callbacks/InjectInstantiation.cpp Pages: 1 -->
<svg width="1470pt" height="269pt"
 viewBox="0.00 0.00 1470.00 269.00" xmlns="http://www.w3.org/2000/svg" xmlns:xlink="http://www.w3.org/1999/xlink">
<g id="graph0" class="graph" transform="scale(1 1) rotate(0) translate(4 265)">
<title>src/Callbacks/InjectInstantiation.cpp</title>
<!-- Node1 -->
<g id="Node000001" class="node">
<title>Node1</title>
<g id="a_Node000001"><a xlink:title=" ">
<polygon fill="#999999" stroke="#666666" points="855.5,-261 662.5,-261 662.5,-242 855.5,-242 855.5,-261"/>
<text text-anchor="middle" x="759" y="-249" font-family="Helvetica,sans-Serif" font-size="10.00">src/Callbacks/InjectInstantiation.cpp</text>
</a>
</g>
</g>
<!-- Node2 -->
<g id="Node000002" class="node">
<title>Node2</title>
<g id="a_Node000002"><a xlink:href="InjectInstantiation_8hpp.html" target="_top" xlink:title=" ">
<polygon fill="white" stroke="#666666" points="361,-200.5 185,-200.5 185,-181.5 361,-181.5 361,-200.5"/>
<text text-anchor="middle" x="273" y="-188.5" font-family="Helvetica,sans-Serif" font-size="10.00">Callbacks/InjectInstantiation.hpp</text>
</a>
</g>
</g>
<!-- Node1&#45;&gt;Node2 -->
<g id="edge1_Node000001_Node000002" class="edge">
<title>Node1&#45;&gt;Node2</title>
<g id="a_edge1_Node000001_Node000002"><a xlink:title=" ">
<path fill="none" stroke="#63b8ff" d="M684.93,-241.98C608.89,-233.19 487.15,-218.96 382,-206 371.2,-204.67 359.8,-203.24 348.61,-201.81"/>
<polygon fill="#63b8ff" stroke="#63b8ff" points="348.77,-198.31 338.41,-200.51 347.88,-205.25 348.77,-198.31"/>
</a>
</g>
</g>
<!-- Node3 -->
<g id="Node000003" class="node">
<title>Node3</title>
<g id="a_Node000003"><a xlink:href="Injection_8hpp.html" target="_top" xlink:title=" ">
<polygon fill="white" stroke="#666666" points="413,-134.5 333,-134.5 333,-115.5 413,-115.5 413,-134.5"/>
<text text-anchor="middle" x="373" y="-122.5" font-family="Helvetica,sans-Serif" font-size="10.00">Injection.hpp</text>
</a>
</g>
</g>
<!-- Node1&#45;&gt;Node3 -->
<g id="edge18_Node000001_Node000003" class="edge">
<title>Node1&#45;&gt;Node3</title>
<g id="a_edge18_Node000001_Node000003"><a xlink:title=" ">
<path fill="none" stroke="#63b8ff" d="M662.5,-246.02C579.44,-240.63 467.14,-229.23 429,-206 405.18,-191.49 388.84,-162.59 380.21,-143.78"/>
<polygon fill="#63b8ff" stroke="#63b8ff" points="383.4,-142.32 376.21,-134.53 376.97,-145.1 383.4,-142.32"/>
</a>
</g>
</g>
<!-- Node7 -->
<g id="Node000007" class="node">
<title>Node7</title>
<g id="a_Node000007"><a xlink:title=" ">
<polygon fill="#e0e0e0" stroke="#999999" points="98,-19 0,-19 0,0 98,0 98,-19"/>
<text text-anchor="middle" x="49" y="-7" font-family="Helvetica,sans-Serif" font-size="10.00">clang/AST/Decl.h</text>
</a>
</g>
</g>
<!-- Node1&#45;&gt;Node7 -->
<g id="edge26_Node000001_Node000007" class="edge">
<title>Node1&#45;&gt;Node7</title>
<g id="a_edge26_Node000001_Node000007"><a xlink:title=" ">
<path fill="none" stroke="#63b8ff" d="M662.47,-248.6C520.78,-244.87 263.78,-234.35 176,-206 122.47,-188.71 99.01,-186.93 68,-140 45.53,-105.99 45.22,-56.06 47.05,-29.22"/>
<polygon fill="#63b8ff" stroke="#63b8ff" points="50.54,-29.51 47.9,-19.24 43.56,-28.91 50.54,-29.51"/>
</a>
</g>
</g>
<!-- Node11 -->
<g id="Node000011" class="node">
<title>Node11</title>
<g id="a_Node000011"><a xlink:title=" ">
<polygon fill="#e0e0e0" stroke="#999999" points="676.5,-74 557.5,-74 557.5,-55 676.5,-55 676.5,-74"/>
<text text-anchor="middle" x="617" y="-62" font-family="Helvetica,sans-Serif" font-size="10.00">clang/AST/DeclCXX.h</text>
</a>
</g>
</g>
<!-- Node1&#45;&gt;Node11 -->
<g id="edge27_Node000001_Node000011" class="edge">
<title>Node1&#45;&gt;Node11</title>
<g id="a_edge27_Node000001_Node000011"><a xlink:title=" ">
<path fill="none" stroke="#63b8ff" d="M700.42,-241.99C659.4,-234.69 609.73,-222.7 597,-206 569.21,-169.54 592.38,-111.86 607.11,-83.07"/>
<polygon fill="#63b8ff" stroke="#63b8ff" points="610.24,-84.64 611.88,-74.17 604.07,-81.33 610.24,-84.64"/>
</a>
</g>
</g>
<!-- Node15 -->
<g id="Node000015" class="node">
<title>Node15</title>
<g id="a_Node000015"><a xlink:href="Template_8hpp.html" target="_top" xlink:title=" ">
<polygon fill="white" stroke="#666666" points="520.5,-200.5 437.5,-200.5 437.5,-181.5 520.5,-181.5 520.5,-200.5"/>
<text text-anchor="middle" x="479" y="-188.5" font-family="Helvetica,sans-Serif" font-size="10.00">Template.hpp</text>
</a>
</g>
</g>
<!-- Node1&#45;&gt;Node15 -->
<g id="edge19_Node000001_Node000015" class="edge">
<title>Node1&#45;&gt;Node15</title>
<g id="a_edge19_Node000001_Node000015"><a xlink:title=" ">
<path fill="none" stroke="#63b8ff" d="M718.29,-241.99C668.41,-231.57 583.91,-213.92 529.82,-202.62"/>
<polygon fill="#63b8ff" stroke="#63b8ff" points="530.27,-199.14 519.76,-200.52 528.84,-205.99 530.27,-199.14"/>
</a>
</g>
</g>
<!-- Node16 -->
<g id="Node000016" class="node">
<title>Node16</title>
<g id="a_Node000016"><a xlink:title=" ">
<polygon fill="#e0e0e0" stroke="#999999" points="748.5,-200.5 605.5,-200.5 605.5,-181.5 748.5,-181.5 748.5,-200.5"/>
<text text-anchor="middle" x="677" y="-188.5" font-family="Helvetica,sans-Serif" font-size="10.00">clang/AST/DeclTemplate.h</text>
</a>
</g>
</g>
<!-- Node1&#45;&gt;Node16 -->
<g id="edge28_Node000001_Node000016" class="edge">
<title>Node1&#45;&gt;Node16</title>
<g id="a_edge28_Node000001_Node000016"><a xlink:title=" ">
<path fill="none" stroke="#63b8ff" d="M746.9,-241.87C733.94,-232.62 713.14,-217.78 697.6,-206.69"/>
<polygon fill="#63b8ff" stroke="#63b8ff" points="699.32,-203.63 689.15,-200.67 695.26,-209.32 699.32,-203.63"/>
</a>
</g>
</g>
<!-- Node17 -->
<g id="Node000017" class="node">
<title>Node17</title>
<g id="a_Node000017"><a xlink:title=" ">
<polygon fill="#e0e0e0" stroke="#999999" points="917.5,-200.5 766.5,-200.5 766.5,-181.5 917.5,-181.5 917.5,-200.5"/>
<text text-anchor="middle" x="842" y="-188.5" font-family="Helvetica,sans-Serif" font-size="10.00">clang/AST/TemplateName.h</text>
</a>
</g>
</g>
<!-- Node1&#45;&gt;Node17 -->
<g id="edge29_Node000001_Node000017" class="edge">
<title>Node1&#45;&gt;Node17</title>
<g id="a_edge29_Node000001_Node000017"><a xlink:title=" ">
<path fill="none" stroke="#63b8ff" d="M771.25,-241.87C784.36,-232.62 805.42,-217.78 821.15,-206.69"/>
<polygon fill="#63b8ff" stroke="#63b8ff" points="823.55,-209.29 829.7,-200.67 819.51,-203.57 823.55,-209.29"/>
</a>
</g>
</g>
<!-- Node18 -->
<g id="Node000018" class="node">
<title>Node18</title>
<g id="a_Node000018"><a xlink:title=" ">
<polygon fill="#e0e0e0" stroke="#999999" points="1044.5,-206 935.5,-206 935.5,-176 1044.5,-176 1044.5,-206"/>
<text text-anchor="start" x="943.5" y="-194" font-family="Helvetica,sans-Serif" font-size="10.00">clang/Rewrite/Core</text>
<text text-anchor="middle" x="990" y="-183" font-family="Helvetica,sans-Serif" font-size="10.00">/Rewriter.h</text>
</a>
</g>
</g>
<!-- Node1&#45;&gt;Node18 -->
<g id="edge30_Node000001_Node000018" class="edge">
<title>Node1&#45;&gt;Node18</title>
<g id="a_edge30_Node000001_Node000018"><a xlink:title=" ">
<path fill="none" stroke="#63b8ff" d="M792.59,-241.99C827.3,-233.2 882.34,-219.26 925.5,-208.33"/>
<polygon fill="#63b8ff" stroke="#63b8ff" points="926.52,-211.69 935.36,-205.84 924.8,-204.9 926.52,-211.69"/>
</a>
</g>
</g>
<!-- Node19 -->
<g id="Node000019" class="node">
<title>Node19</title>
<g id="a_Node000019"><a xlink:title=" ">
<polygon fill="#e0e0e0" stroke="#999999" points="1161.5,-200.5 1062.5,-200.5 1062.5,-181.5 1161.5,-181.5 1161.5,-200.5"/>
<text text-anchor="middle" x="1112" y="-188.5" font-family="Helvetica,sans-Serif" font-size="10.00">llvm/ADT/APInt.h</text>
</a>
</g>
</g>
<!-- Node1&#45;&gt;Node19 -->
<g id="edge31_Node000001_Node000019" class="edge">
<title>Node1&#45;&gt;Node19</title>
<g id="a_edge31_Node000001_Node000019"><a xlink:title=" ">
<path fill="none" stroke="#63b8ff" d="M826.95,-241.96C886.93,-234.02 976.61,-221.15 1054,-206 1058.77,-205.07 1063.74,-204.01 1068.67,-202.89"/>
<polygon fill="#63b8ff" stroke="#63b8ff" points="1069.73,-206.24 1078.68,-200.57 1068.15,-199.42 1069.73,-206.24"/>
</a>
</g>
</g>
<!-- Node20 -->
<g id="Node000020" class="node">
<title>Node20</title>
<g id="a_Node000020"><a xlink:title=" ">
<polygon fill="#e0e0e0" stroke="#999999" points="1298,-200.5 1180,-200.5 1180,-181.5 1298,-181.5 1298,-200.5"/>
<text text-anchor="middle" x="1239" y="-188.5" font-family="Helvetica,sans-Serif" font-size="10.00">llvm/ADT/StringRef.h</text>
</a>
</g>
</g>
<!-- Node1&#45;&gt;Node20 -->
<g id="edge32_Node000001_Node000020" class="edge">
<title>Node1&#45;&gt;Node20</title>
<g id="a_edge32_Node000001_Node000020"><a xlink:title=" ">
<path fill="none" stroke="#63b8ff" d="M855.91,-242.66C939.62,-235.27 1063.67,-222.81 1171,-206 1177.33,-205.01 1183.96,-203.83 1190.5,-202.57"/>
<polygon fill="#63b8ff" stroke="#63b8ff" points="1191.51,-205.94 1200.64,-200.56 1190.15,-199.07 1191.51,-205.94"/>
</a>
</g>
</g>
<!-- Node21 -->
<g id="Node000021" class="node">
<title>Node21</title>
<g id="a_Node000021"><a xlink:title=" ">
<polygon fill="#e0e0e0" stroke="#999999" points="1384,-200.5 1316,-200.5 1316,-181.5 1384,-181.5 1384,-200.5"/>
<text text-anchor="middle" x="1350" y="-188.5" font-family="Helvetica,sans-Serif" font-size="10.00">filesystem</text>
</a>
</g>
</g>
<!-- Node1&#45;&gt;Node21 -->
<g id="edge33_Node000001_Node000021" class="edge">
<title>Node1&#45;&gt;Node21</title>
<g id="a_edge33_Node000001_Node000021"><a xlink:title=" ">
<path fill="none" stroke="#63b8ff" d="M855.97,-249.44C966.24,-246.67 1151.17,-237.25 1307,-206 1310.41,-205.32 1313.93,-204.45 1317.42,-203.48"/>
<polygon fill="#63b8ff" stroke="#63b8ff" points="1318.5,-206.81 1327.06,-200.57 1316.47,-200.11 1318.5,-206.81"/>
</a>
</g>
</g>
<!-- Node22 -->
<g id="Node000022" class="node">
<title>Node22</title>
<g id="a_Node000022"><a xlink:title=" ">
<polygon fill="#e0e0e0" stroke="#999999" points="1462,-200.5 1402,-200.5 1402,-181.5 1462,-181.5 1462,-200.5"/>
<text text-anchor="middle" x="1432" y="-188.5" font-family="Helvetica,sans-Serif" font-size="10.00">iostream</text>
</a>
</g>
</g>
<!-- Node1&#45;&gt;Node22 -->
<g id="edge34_Node000001_Node000022" class="edge">
<title>Node1&#45;&gt;Node22</title>
<g id="a_edge34_Node000001_Node000022"><a xlink:title=" ">
<path fill="none" stroke="#63b8ff" d="M855.51,-246.97C1006.89,-240.88 1293.19,-227 1393,-206 1395.84,-205.4 1398.75,-204.65 1401.64,-203.8"/>
<polygon fill="#63b8ff" stroke="#63b8ff" points="1402.85,-207.08 1411.26,-200.64 1400.66,-200.43 1402.85,-207.08"/>
</a>
</g>
</g>
<!-- Node2&#45;&gt;Node3 -->
<g id="edge2_Node000002_Node000003" class="edge">
<title>Node2&#45;&gt;Node3</title>
<g id="a_edge2_Node000002_Node000003"><a xlink:title=" ">
<path fill="none" stroke="#63b8ff" d="M286.49,-181.37C302.96,-170.82 331.07,-152.84 350.76,-140.23"/>
<polygon fill="#63b8ff" stroke="#63b8ff" points="352.87,-143.04 359.41,-134.7 349.1,-137.14 352.87,-143.04"/>
</a>
</g>
</g>
<!-- Node13 -->
<g id="Node000013" class="node">
<title>Node13</title>
<g id="a_Node000013"><a xlink:title=" ">
<polygon fill="#e0e0e0" stroke="#999999" points="182.5,-74 135.5,-74 135.5,-55 182.5,-55 182.5,-74"/>
<text text-anchor="middle" x="159" y="-62" font-family="Helvetica,sans-Serif" font-size="10.00">vector</text>
</a>
</g>
</g>
<!-- Node2&#45;&gt;Node13 -->
<g id="edge17_Node000002_Node000013" class="edge">
<title>Node2&#45;&gt;Node13</title>
<g id="a_edge17_Node000002_Node000013"><a xlink:title=" ">
<path fill="none" stroke="#63b8ff" d="M272.49,-181.49C271.12,-165.64 266.11,-131.28 248,-110 233.58,-93.05 211.13,-81.89 192.38,-74.98"/>
<polygon fill="#63b8ff" stroke="#63b8ff" points="193.3,-71.6 182.71,-71.66 191.03,-78.22 193.3,-71.6"/>
</a>
</g>
</g>
<!-- Node14 -->
<g id="Node000014" class="node">
<title>Node14</title>
<g id="a_Node000014"><a xlink:title=" ">
<polygon fill="#e0e0e0" stroke="#999999" points="238.5,-140 77.5,-140 77.5,-110 238.5,-110 238.5,-140"/>
<text text-anchor="start" x="85.5" y="-128" font-family="Helvetica,sans-Serif" font-size="10.00">clang/ASTMatchers/ASTMatch</text>
<text text-anchor="middle" x="158" y="-117" font-family="Helvetica,sans-Serif" font-size="10.00">Finder.h</text>
</a>
</g>
</g>
<!-- Node2&#45;&gt;Node14 -->
<g id="edge16_Node000002_Node000014" class="edge">
<title>Node2&#45;&gt;Node14</title>
<g id="a_edge16_Node000002_Node000014"><a xlink:title=" ">
<path fill="none" stroke="#63b8ff" d="M257.49,-181.37C240.86,-172.11 213.93,-157.12 192.27,-145.07"/>
<polygon fill="#63b8ff" stroke="#63b8ff" points="193.8,-141.92 183.36,-140.12 190.4,-148.04 193.8,-141.92"/>
</a>
</g>
</g>
<!-- Node4 -->
<g id="Node000004" class="node">
<title>Node4</title>
<g id="a_Node000004"><a xlink:href="Param_8hpp.html" target="_top" xlink:title=" ">
<polygon fill="white" stroke="#666666" points="345,-74 277,-74 277,-55 345,-55 345,-74"/>
<text text-anchor="middle" x="311" y="-62" font-family="Helvetica,sans-Serif" font-size="10.00">Param.hpp</text>
</a>
</g>
</g>
<!-- Node3&#45;&gt;Node4 -->
<g id="edge3_Node000003_Node000004" class="edge">
<title>Node3&#45;&gt;Node4</title>
<g id="a_edge3_Node000003_Node000004"><a xlink:title=" ">
<path fill="none" stroke="#63b8ff" d="M363.85,-115.37C354.33,-106.38 339.2,-92.11 327.57,-81.14"/>
<polygon fill="#63b8ff" stroke="#63b8ff" points="329.86,-78.48 320.19,-74.17 325.06,-83.58 329.86,-78.48"/>
</a>
</g>
</g>
<!-- Node5 -->
<g id="Node000005" class="node">
<title>Node5</title>
<g id="a_Node000005"><a xlink:title=" ">
<polygon fill="#e0e0e0" stroke="#999999" points="185.5,-19 116.5,-19 116.5,0 185.5,0 185.5,-19"/>
<text text-anchor="middle" x="151" y="-7" font-family="Helvetica,sans-Serif" font-size="10.00">fmt/color.h</text>
</a>
</g>
</g>
<!-- Node3&#45;&gt;Node5 -->
<g id="edge10_Node000003_Node000005" class="edge">
<title>Node3&#45;&gt;Node5</title>
<g id="a_edge10_Node000003_Node000005"><a xlink:title=" ">
<path fill="none" stroke="#63b8ff" d="M347.9,-115.34C322.61,-106.26 282.74,-90.97 250,-74 221.52,-59.24 190.71,-38.68 171.15,-25"/>
<polygon fill="#63b8ff" stroke="#63b8ff" points="172.95,-21.98 162.76,-19.06 168.91,-27.69 172.95,-21.98"/>
</a>
</g>
</g>
<!-- Node6 -->
<g id="Node000006" class="node">
<title>Node6</title>
<g id="a_Node000006"><a xlink:title=" ">
<polygon fill="#e0e0e0" stroke="#999999" points="270.5,-19 203.5,-19 203.5,0 270.5,0 270.5,-19"/>
<text text-anchor="middle" x="237" y="-7" font-family="Helvetica,sans-Serif" font-size="10.00">fmt/core.h</text>
</a>
</g>
</g>
<!-- Node3&#45;&gt;Node6 -->
<g id="edge11_Node000003_Node000006" class="edge">
<title>Node3&#45;&gt;Node6</title>
<g id="a_edge11_Node000003_Node000006"><a xlink:title=" ">
<path fill="none" stroke="#63b8ff" d="M342.15,-115.41C319.3,-107.72 288.66,-94.46 268,-74 255.48,-61.6 247.25,-43.13 242.44,-29.3"/>
<polygon fill="#63b8ff" stroke="#63b8ff" points="245.66,-27.88 239.3,-19.41 238.99,-30 245.66,-27.88"/>
</a>
</g>
</g>
<!-- Node10 -->
<g id="Node000010" class="node">
<title>Node10</title>
<g id="a_Node000010"><a xlink:title=" ">
<polygon fill="#e0e0e0" stroke="#999999" points="563,-19 519,-19 519,0 563,0 563,-19"/>
<text text-anchor="middle" x="541" y="-7" font-family="Helvetica,sans-Serif" font-size="10.00">string</text>
</a>
</g>
</g>
<!-- Node3&#45;&gt;Node10 -->
<g id="edge14_Node000003_Node000010" class="edge">
<title>Node3&#45;&gt;Node10</title>
<g id="a_edge14_Node000003_Node000010"><a xlink:title=" ">
<path fill="none" stroke="#63b8ff" d="M373.01,-115.04C373.52,-100.44 376.68,-71.49 393,-55 397.19,-50.77 466.62,-31.04 508.88,-19.32"/>
<polygon fill="#63b8ff" stroke="#63b8ff" points="510.02,-22.63 518.72,-16.6 508.15,-15.89 510.02,-22.63"/>
</a>
</g>
</g>
<!-- Node3&#45;&gt;Node11 -->
<g id="edge12_Node000003_Node000011" class="edge">
<title>Node3&#45;&gt;Node11</title>
<g id="a_edge12_Node000003_Node000011"><a xlink:title=" ">
<path fill="none" stroke="#63b8ff" d="M408.48,-115.49C451.58,-105.16 524.36,-87.71 571.53,-76.4"/>
<polygon fill="#63b8ff" stroke="#63b8ff" points="572.57,-79.75 581.48,-74.02 570.94,-72.94 572.57,-79.75"/>
</a>
</g>
</g>
<!-- Node12 -->
<g id="Node000012" class="node">
<title>Node12</title>
<g id="a_Node000012"><a xlink:title=" ">
<polygon fill="#e0e0e0" stroke="#999999" points="500.5,-74 401.5,-74 401.5,-55 500.5,-55 500.5,-74"/>
<text text-anchor="middle" x="451" y="-62" font-family="Helvetica,sans-Serif" font-size="10.00">clang/AST/Type.h</text>
</a>
</g>
</g>
<!-- Node3&#45;&gt;Node12 -->
<g id="edge13_Node000003_Node000012" class="edge">
<title>Node3&#45;&gt;Node12</title>
<g id="a_edge13_Node000003_Node000012"><a xlink:title=" ">
<path fill="none" stroke="#63b8ff" d="M384.51,-115.37C396.84,-106.12 416.62,-91.28 431.41,-80.19"/>
<polygon fill="#63b8ff" stroke="#63b8ff" points="433.54,-82.97 439.44,-74.17 429.34,-77.37 433.54,-82.97"/>
</a>
</g>
</g>
<!-- Node3&#45;&gt;Node13 -->
<g id="edge15_Node000003_Node000013" class="edge">
<title>Node3&#45;&gt;Node13</title>
<g id="a_edge15_Node000003_Node000013"><a xlink:title=" ">
<path fill="none" stroke="#63b8ff" d="M341.88,-115.49C302.02,-104.6 233.21,-85.79 192.32,-74.61"/>
<polygon fill="#63b8ff" stroke="#63b8ff" points="193.13,-71.2 182.56,-71.94 191.28,-77.95 193.13,-71.2"/>
</a>
</g>
</g>
<!-- Node4&#45;&gt;Node5 -->
<g id="edge4_Node000004_Node000005" class="edge">
<title>Node4&#45;&gt;Node5</title>
<g id="a_edge4_Node000004_Node000005"><a xlink:title=" ">
<path fill="none" stroke="#63b8ff" d="M285.29,-54.98C258.55,-46.13 216.47,-32.19 186.55,-22.28"/>
<polygon fill="#63b8ff" stroke="#63b8ff" points="187.5,-18.9 176.91,-19.08 185.3,-25.55 187.5,-18.9"/>
</a>
</g>
</g>
<!-- Node4&#45;&gt;Node6 -->
<g id="edge5_Node000004_Node000006" class="edge">
<title>Node4&#45;&gt;Node6</title>
<g id="a_edge5_Node000004_Node000006"><a xlink:title=" ">
<path fill="none" stroke="#63b8ff" d="M299.11,-54.98C287.85,-46.92 270.71,-34.65 257.29,-25.03"/>
<polygon fill="#63b8ff" stroke="#63b8ff" points="259.27,-22.15 249.11,-19.17 255.2,-27.84 259.27,-22.15"/>
</a>
</g>
</g>
<!-- Node4&#45;&gt;Node7 -->
<g id="edge6_Node000004_Node000007" class="edge">
<title>Node4&#45;&gt;Node7</title>
<g id="a_edge6_Node000004_Node000007"><a xlink:title=" ">
<path fill="none" stroke="#63b8ff" d="M276.75,-56.57C232.01,-47.52 153.28,-31.59 101.12,-21.04"/>
<polygon fill="#63b8ff" stroke="#63b8ff" points="101.55,-17.56 91.06,-19.01 100.17,-24.42 101.55,-17.56"/>
</a>
</g>
</g>
<!-- Node8 -->
<g id="Node000008" class="node">
<title>Node8</title>
<g id="a_Node000008"><a xlink:title=" ">
<polygon fill="#e0e0e0" stroke="#999999" points="425.5,-19 288.5,-19 288.5,0 425.5,0 425.5,-19"/>
<text text-anchor="middle" x="357" y="-7" font-family="Helvetica,sans-Serif" font-size="10.00">clang/AST/PrettyPrinter.h</text>
</a>
</g>
</g>
<!-- Node4&#45;&gt;Node8 -->
<g id="edge7_Node000004_Node000008" class="edge">
<title>Node4&#45;&gt;Node8</title>
<g id="a_edge7_Node000004_Node000008"><a xlink:title=" ">
<path fill="none" stroke="#63b8ff" d="M318.6,-54.75C325.16,-47.18 334.82,-36.05 342.81,-26.84"/>
<polygon fill="#63b8ff" stroke="#63b8ff" points="345.63,-28.94 349.55,-19.09 340.35,-24.35 345.63,-28.94"/>
</a>
</g>
</g>
<!-- Node9 -->
<g id="Node000009" class="node">
<title>Node9</title>
<g id="a_Node000009"><a xlink:title=" ">
<polygon fill="#e0e0e0" stroke="#999999" points="500.5,-19 443.5,-19 443.5,0 500.5,0 500.5,-19"/>
<text text-anchor="middle" x="472" y="-7" font-family="Helvetica,sans-Serif" font-size="10.00">ostream</text>
</a>
</g>
</g>
<!-- Node4&#45;&gt;Node9 -->
<g id="edge8_Node000004_Node000009" class="edge">
<title>Node4&#45;&gt;Node9</title>
<g id="a_edge8_Node000004_Node000009"><a xlink:title=" ">
<path fill="none" stroke="#63b8ff" d="M336.87,-54.98C363.78,-46.13 406.12,-32.19 436.23,-22.28"/>
<polygon fill="#63b8ff" stroke="#63b8ff" points="437.53,-25.53 445.93,-19.08 435.34,-18.88 437.53,-25.53"/>
</a>
</g>
</g>
<!-- Node4&#45;&gt;Node10 -->
<g id="edge9_Node000004_Node000010" class="edge">
<title>Node4&#45;&gt;Node10</title>
<g id="a_edge9_Node000004_Node000010"><a xlink:title=" ">
<path fill="none" stroke="#63b8ff" d="M345.27,-56.35C383.08,-48.36 445.94,-34.73 508.98,-19.17"/>
<polygon fill="#63b8ff" stroke="#63b8ff" points="509.82,-22.56 518.68,-16.76 508.13,-15.77 509.82,-22.56"/>
</a>
</g>
</g>
<!-- Node15&#45;&gt;Node3 -->
<g id="edge20_Node000015_Node000003" class="edge">
<title>Node15&#45;&gt;Node3</title>
<g id="a_edge20_Node000015_Node000003"><a xlink:title=" ">
<path fill="none" stroke="#63b8ff" d="M464.7,-181.37C447.08,-170.73 416.91,-152.51 396.01,-139.89"/>
<polygon fill="#63b8ff" stroke="#63b8ff" points="397.78,-136.87 387.41,-134.7 394.16,-142.86 397.78,-136.87"/>
</a>
</g>
</g>
<!-- Node15&#45;&gt;Node4 -->
<g id="edge21_Node000015_Node000004" class="edge">
<title>Node15&#45;&gt;Node4</title>
<g id="a_edge21_Node000015_Node000004"><a xlink:title=" ">
<path fill="none" stroke="#63b8ff" d="M474.92,-181.3C466.93,-165.12 447.74,-130.24 422,-110 402.33,-94.53 376.57,-83.76 354.82,-76.7"/>
<polygon fill="#63b8ff" stroke="#63b8ff" points="355.74,-73.32 345.15,-73.71 353.67,-80 355.74,-73.32"/>
</a>
</g>
</g>
<!-- Node15&#45;&gt;Node10 -->
<g id="edge24_Node000015_Node000010" class="edge">
<title>Node15&#45;&gt;Node10</title>
<g id="a_edge24_Node000015_Node000010"><a xlink:title=" ">
<path fill="none" stroke="#63b8ff" d="M481.99,-181.34C491.55,-153.68 521.48,-67.01 534.66,-28.85"/>
<polygon fill="#63b8ff" stroke="#63b8ff" points="538.08,-29.67 538.04,-19.07 531.47,-27.38 538.08,-29.67"/>
</a>
</g>
</g>
<!-- Node15&#45;&gt;Node11 -->
<g id="edge22_Node000015_Node000011" class="edge">
<title>Node15&#45;&gt;Node11</title>
<g id="a_edge22_Node000015_Node000011"><a xlink:title=" ">
<path fill="none" stroke="#63b8ff" d="M489.37,-181.27C501.06,-171.38 520.56,-154.73 537,-140 559.15,-120.16 584.15,-96.69 600.22,-81.48"/>
<polygon fill="#63b8ff" stroke="#63b8ff" points="602.9,-83.76 607.75,-74.33 598.08,-78.68 602.9,-83.76"/>
</a>
</g>
</g>
<!-- Node15&#45;&gt;Node12 -->
<g id="edge23_Node000015_Node000012" class="edge">
<title>Node15&#45;&gt;Node12</title>
<g id="a_edge23_Node000015_Node000012"><a xlink:title=" ">
<path fill="none" stroke="#63b8ff" d="M477.08,-181.44C472.58,-161.45 461.3,-111.32 455.16,-83.98"/>
<polygon fill="#63b8ff" stroke="#63b8ff" points="458.55,-83.11 452.94,-74.12 451.72,-84.64 458.55,-83.11"/>
</a>
</g>
</g>
<!-- Node15&#45;&gt;Node13 -->
<g id="edge25_Node000015_Node000013" class="edge">
<title>Node15&#45;&gt;Node13</title>
<g id="a_edge25_Node000015_Node000013"><a xlink:title=" ">
<path fill="none" stroke="#63b8ff" d="M446.26,-181.45C414.42,-172.67 364.98,-157.79 324,-140 298.82,-129.07 294.79,-121.8 270,-110 244.48,-97.85 214.71,-86.04 192.42,-77.64"/>
<polygon fill="#63b8ff" stroke="#63b8ff" points="193.35,-74.25 182.76,-74.03 190.9,-80.81 193.35,-74.25"/>
</a>
</g>
</g>
</g>
</svg>
