<?xml version="1.0" encoding="UTF-8" standalone="no"?>
<!DOCTYPE svg PUBLIC "-//W3C//DTD SVG 1.1//EN"
 "http://www.w3.org/Graphics/SVG/1.1/DTD/svg11.dtd">
<!-- Generated by graphviz version 2.43.0 (0)
 -->
<!-- Title: include/Injection.hpp Pages: 1 -->
<svg width="754pt" height="148pt"
 viewBox="0.00 0.00 754.00 148.00" xmlns="http://www.w3.org/2000/svg" xmlns:xlink="http://www.w3.org/1999/xlink">
<g id="graph0" class="graph" transform="scale(1 1) rotate(0) translate(4 144)">
<title>include/Injection.hpp</title>
<!-- Node1 -->
<g id="Node000001" class="node">
<title>Node1</title>
<g id="a_Node000001"><a xlink:title=" ">
<polygon fill="#999999" stroke="#666666" points="484,-140 366,-140 366,-121 484,-121 484,-140"/>
<text text-anchor="middle" x="425" y="-128" font-family="Helvetica,sans-Serif" font-size="10.00">include/Injection.hpp</text>
</a>
</g>
</g>
<!-- Node2 -->
<g id="Node000002" class="node">
<title>Node2</title>
<g id="a_Node000002"><a xlink:href="Instantiator_8cpp.html" target="_top" xlink:title=" ">
<polygon fill="white" stroke="#666666" points="92,-19 0,-19 0,0 92,0 92,-19"/>
<text text-anchor="middle" x="46" y="-7" font-family="Helvetica,sans-Serif" font-size="10.00">Instantiator.cpp</text>
</a>
</g>
</g>
<!-- Node1&#45;&gt;Node2 -->
<g id="edge1_Node000001_Node000002" class="edge">
<title>Node1&#45;&gt;Node2</title>
<g id="a_edge1_Node000001_Node000002"><a xlink:title=" ">
<path fill="none" stroke="#63b8ff" d="M355.83,-125.5C255.73,-119.05 80.09,-105.03 59,-85 40.81,-67.73 42.53,-34.76 44.57,-19.13"/>
<polygon fill="#63b8ff" stroke="#63b8ff" points="355.66,-128.99 365.87,-126.13 356.11,-122.01 355.66,-128.99"/>
</a>
</g>
</g>
<!-- Node3 -->
<g id="Node000003" class="node">
<title>Node3</title>
<g id="a_Node000003"><a xlink:href="GetNeededInstantiations_8hpp.html" target="_top" xlink:title=" ">
<polygon fill="white" stroke="#666666" points="228,-85 68,-85 68,-55 228,-55 228,-85"/>
<text text-anchor="start" x="76" y="-73" font-family="Helvetica,sans-Serif" font-size="10.00">include/Callbacks/GetNeeded</text>
<text text-anchor="middle" x="148" y="-62" font-family="Helvetica,sans-Serif" font-size="10.00">Instantiations.hpp</text>
</a>
</g>
</g>
<!-- Node1&#45;&gt;Node3 -->
<g id="edge2_Node000001_Node000003" class="edge">
<title>Node1&#45;&gt;Node3</title>
<g id="a_edge2_Node000001_Node000003"><a xlink:title=" ">
<path fill="none" stroke="#63b8ff" d="M374.91,-118.92C329.96,-109.43 263.66,-95.43 214.33,-85.01"/>
<polygon fill="#63b8ff" stroke="#63b8ff" points="374.21,-122.35 384.72,-120.99 375.66,-115.5 374.21,-122.35"/>
</a>
</g>
</g>
<!-- Node4 -->
<g id="Node000004" class="node">
<title>Node4</title>
<g id="a_Node000004"><a xlink:href="GetNeededInstantiations_8cpp.html" target="_top" xlink:title=" ">
<polygon fill="white" stroke="#666666" points="336,-19 110,-19 110,0 336,0 336,-19"/>
<text text-anchor="middle" x="223" y="-7" font-family="Helvetica,sans-Serif" font-size="10.00">src/Callbacks/GetNeededInstantiations.cpp</text>
</a>
</g>
</g>
<!-- Node1&#45;&gt;Node4 -->
<g id="edge11_Node000001_Node000004" class="edge">
<title>Node1&#45;&gt;Node4</title>
<g id="a_edge11_Node000001_Node000004"><a xlink:title=" ">
<path fill="none" stroke="#63b8ff" d="M420.25,-111.04C414.94,-94.03 404.66,-69.34 387,-55 363.87,-36.22 333.46,-25.33 305.12,-19.03"/>
<polygon fill="#63b8ff" stroke="#63b8ff" points="416.96,-112.25 423.06,-120.91 423.69,-110.34 416.96,-112.25"/>
</a>
</g>
</g>
<!-- Node5 -->
<g id="Node000005" class="node">
<title>Node5</title>
<g id="a_Node000005"><a xlink:href="InjectInstantiation_8hpp.html" target="_top" xlink:title=" ">
<polygon fill="white" stroke="#666666" points="378,-85 246,-85 246,-55 378,-55 378,-85"/>
<text text-anchor="start" x="254" y="-73" font-family="Helvetica,sans-Serif" font-size="10.00">include/Callbacks/Inject</text>
<text text-anchor="middle" x="312" y="-62" font-family="Helvetica,sans-Serif" font-size="10.00">Instantiation.hpp</text>
</a>
</g>
</g>
<!-- Node1&#45;&gt;Node5 -->
<g id="edge5_Node000001_Node000005" class="edge">
<title>Node1&#45;&gt;Node5</title>
<g id="a_edge5_Node000001_Node000005"><a xlink:title=" ">
<path fill="none" stroke="#63b8ff" d="M399.06,-116.07C381.17,-106.81 357.43,-94.52 339.26,-85.11"/>
<polygon fill="#63b8ff" stroke="#63b8ff" points="397.84,-119.38 408.33,-120.87 401.06,-113.16 397.84,-119.38"/>
</a>
</g>
</g>
<!-- Node6 -->
<g id="Node000006" class="node">
<title>Node6</title>
<g id="a_Node000006"><a xlink:href="InjectInstantiation_8cpp.html" target="_top" xlink:title=" ">
<polygon fill="white" stroke="#666666" points="547.5,-19 354.5,-19 354.5,0 547.5,0 547.5,-19"/>
<text text-anchor="middle" x="451" y="-7" font-family="Helvetica,sans-Serif" font-size="10.00">src/Callbacks/InjectInstantiation.cpp</text>
</a>
</g>
</g>
<!-- Node1&#45;&gt;Node6 -->
<g id="edge12_Node000001_Node000006" class="edge">
<title>Node1&#45;&gt;Node6</title>
<g id="a_edge12_Node000001_Node000006"><a xlink:title=" ">
<path fill="none" stroke="#63b8ff" d="M429.07,-110.86C434.76,-84.81 444.87,-38.56 449.08,-19.3"/>
<polygon fill="#63b8ff" stroke="#63b8ff" points="425.59,-110.43 426.87,-120.94 432.42,-111.92 425.59,-110.43"/>
</a>
</g>
</g>
<!-- Node7 -->
<g id="Node000007" class="node">
<title>Node7</title>
<g id="a_Node000007"><a xlink:href="Template_8hpp.html" target="_top" xlink:title=" ">
<polygon fill="white" stroke="#666666" points="593.5,-79.5 472.5,-79.5 472.5,-60.5 593.5,-60.5 593.5,-79.5"/>
<text text-anchor="middle" x="533" y="-67.5" font-family="Helvetica,sans-Serif" font-size="10.00">include/Template.hpp</text>
</a>
</g>
</g>
<!-- Node1&#45;&gt;Node7 -->
<g id="edge8_Node000001_Node000007" class="edge">
<title>Node1&#45;&gt;Node7</title>
<g id="a_edge8_Node000001_Node000007"><a xlink:title=" ">
<path fill="none" stroke="#63b8ff" d="M449.78,-116.08C470.44,-104.88 499.26,-89.27 517,-79.67"/>
<polygon fill="#63b8ff" stroke="#63b8ff" points="448.06,-113.03 440.94,-120.87 451.4,-119.18 448.06,-113.03"/>
</a>
</g>
</g>
<!-- Node8 -->
<g id="Node000008" class="node">
<title>Node8</title>
<g id="a_Node000008"><a xlink:href="Template_8cpp.html" target="_top" xlink:title=" ">
<polygon fill="white" stroke="#666666" points="667.5,-19 568.5,-19 568.5,0 667.5,0 667.5,-19"/>
<text text-anchor="middle" x="618" y="-7" font-family="Helvetica,sans-Serif" font-size="10.00">src/Template.cpp</text>
</a>
</g>
</g>
<!-- Node1&#45;&gt;Node8 -->
<g id="edge14_Node000001_Node000008" class="edge">
<title>Node1&#45;&gt;Node8</title>
<g id="a_edge14_Node000001_Node000008"><a xlink:title=" ">
<path fill="none" stroke="#63b8ff" d="M494.12,-119.76C537.07,-112.31 586.89,-100.65 602,-85 619.46,-66.92 619.82,-34.64 618.84,-19.2"/>
<polygon fill="#63b8ff" stroke="#63b8ff" points="493.51,-116.32 484.23,-121.43 494.67,-123.22 493.51,-116.32"/>
</a>
</g>
</g>
<!-- Node9 -->
<g id="Node000009" class="node">
<title>Node9</title>
<g id="a_Node000009"><a xlink:href="Injection_8cpp.html" target="_top" xlink:title=" ">
<polygon fill="white" stroke="#666666" points="746,-79.5 650,-79.5 650,-60.5 746,-60.5 746,-79.5"/>
<text text-anchor="middle" x="698" y="-67.5" font-family="Helvetica,sans-Serif" font-size="10.00">src/Injection.cpp</text>
</a>
</g>
</g>
<!-- Node1&#45;&gt;Node9 -->
<g id="edge13_Node000001_Node000009" class="edge">
<title>Node1&#45;&gt;Node9</title>
<g id="a_edge13_Node000001_Node000009"><a xlink:title=" ">
<path fill="none" stroke="#63b8ff" d="M476.16,-118.92C518.92,-110.03 581.48,-96.9 636,-85 643.98,-83.26 652.52,-81.35 660.64,-79.53"/>
<polygon fill="#63b8ff" stroke="#63b8ff" points="475.36,-115.51 466.28,-120.98 476.78,-122.37 475.36,-115.51"/>
</a>
</g>
</g>
<!-- Node3&#45;&gt;Node2 -->
<g id="edge3_Node000003_Node000002" class="edge">
<title>Node3&#45;&gt;Node2</title>
<g id="a_edge3_Node000003_Node000002"><a xlink:title=" ">
<path fill="none" stroke="#63b8ff" d="M114.49,-49.78C96.45,-39.43 75.08,-27.18 61.06,-19.14"/>
<polygon fill="#63b8ff" stroke="#63b8ff" points="113.15,-53.05 123.57,-54.99 116.64,-46.98 113.15,-53.05"/>
</a>
</g>
</g>
<!-- Node3&#45;&gt;Node4 -->
<g id="edge4_Node000003_Node000004" class="edge">
<title>Node3&#45;&gt;Node4</title>
<g id="a_edge4_Node000003_Node000004"><a xlink:title=" ">
<path fill="none" stroke="#63b8ff" d="M174.24,-48.53C187.09,-38.51 201.87,-26.98 211.76,-19.27"/>
<polygon fill="#63b8ff" stroke="#63b8ff" points="171.89,-45.93 166.16,-54.84 176.19,-51.45 171.89,-45.93"/>
</a>
</g>
</g>
<!-- Node5&#45;&gt;Node2 -->
<g id="edge6_Node000005_Node000002" class="edge">
<title>Node5&#45;&gt;Node2</title>
<g id="a_edge6_Node000005_Node000002"><a xlink:title=" ">
<path fill="none" stroke="#63b8ff" d="M238.23,-52.78C188.55,-41.85 125.01,-27.88 84.89,-19.05"/>
<polygon fill="#63b8ff" stroke="#63b8ff" points="237.77,-56.26 248.29,-54.99 239.27,-49.42 237.77,-56.26"/>
</a>
</g>
</g>
<!-- Node5&#45;&gt;Node6 -->
<g id="edge7_Node000005_Node000006" class="edge">
<title>Node5&#45;&gt;Node6</title>
<g id="a_edge7_Node000005_Node000006"><a xlink:title=" ">
<path fill="none" stroke="#63b8ff" d="M354.64,-51.05C379.83,-40.45 410.59,-27.51 430.47,-19.14"/>
<polygon fill="#63b8ff" stroke="#63b8ff" points="353.15,-47.88 345.29,-54.99 355.87,-54.33 353.15,-47.88"/>
</a>
</g>
</g>
<!-- Node7&#45;&gt;Node6 -->
<g id="edge9_Node000007_Node000006" class="edge">
<title>Node7&#45;&gt;Node6</title>
<g id="a_edge9_Node000007_Node000006"><a xlink:title=" ">
<path fill="none" stroke="#63b8ff" d="M512.46,-54.35C496.93,-43.27 476.13,-28.43 463.15,-19.17"/>
<polygon fill="#63b8ff" stroke="#63b8ff" points="510.73,-57.41 520.9,-60.37 514.79,-51.71 510.73,-57.41"/>
</a>
</g>
</g>
<!-- Node7&#45;&gt;Node8 -->
<g id="edge10_Node000007_Node000008" class="edge">
<title>Node7&#45;&gt;Node8</title>
<g id="a_edge10_Node000007_Node000008"><a xlink:title=" ">
<path fill="none" stroke="#63b8ff" d="M553.84,-54.66C569.99,-43.55 591.83,-28.51 605.41,-19.17"/>
<polygon fill="#63b8ff" stroke="#63b8ff" points="551.8,-51.82 545.54,-60.37 555.76,-57.58 551.8,-51.82"/>
</a>
</g>
</g>
</g>
</svg>
