<?xml version="1.0" encoding="UTF-8" standalone="no"?>
<!DOCTYPE svg PUBLIC "-//W3C//DTD SVG 1.1//EN"
 "http://www.w3.org/Graphics/SVG/1.1/DTD/svg11.dtd">
<!-- Generated by graphviz version 2.43.0 (0)
 -->
<!-- Title: src/Callbacks/InjectInstantiation.cpp Pages: 1 -->
<svg width="1992pt" height="269pt"
 viewBox="0.00 0.00 1991.50 269.00" xmlns="http://www.w3.org/2000/svg" xmlns:xlink="http://www.w3.org/1999/xlink">
<g id="graph0" class="graph" transform="scale(1 1) rotate(0) translate(4 265)">
<title>src/Callbacks/InjectInstantiation.cpp</title>
<!-- Node1 -->
<g id="Node000001" class="node">
<title>Node1</title>
<g id="a_Node000001"><a xlink:title=" ">
<polygon fill="#999999" stroke="#666666" points="1072,-261 879,-261 879,-242 1072,-242 1072,-261"/>
<text text-anchor="middle" x="975.5" y="-249" font-family="Helvetica,sans-Serif" font-size="10.00">src/Callbacks/InjectInstantiation.cpp</text>
</a>
</g>
</g>
<!-- Node2 -->
<g id="Node000002" class="node">
<title>Node2</title>
<g id="a_Node000002"><a xlink:href="InjectInstantiation_8hpp.html" target="_top" xlink:title=" ">
<polygon fill="white" stroke="#666666" points="378.5,-200.5 202.5,-200.5 202.5,-181.5 378.5,-181.5 378.5,-200.5"/>
<text text-anchor="middle" x="290.5" y="-188.5" font-family="Helvetica,sans-Serif" font-size="10.00">Callbacks/InjectInstantiation.hpp</text>
</a>
</g>
</g>
<!-- Node1&#45;&gt;Node2 -->
<g id="edge1_Node000001_Node000002" class="edge">
<title>Node1&#45;&gt;Node2</title>
<g id="a_edge1_Node000001_Node000002"><a xlink:title=" ">
<path fill="none" stroke="#63b8ff" d="M878.54,-243.45C768.07,-235.24 582.18,-220.89 422.5,-206 408.05,-204.65 392.72,-203.12 377.83,-201.58"/>
<polygon fill="#63b8ff" stroke="#63b8ff" points="377.9,-198.07 367.6,-200.51 377.18,-205.03 377.9,-198.07"/>
</a>
</g>
</g>
<!-- Node5 -->
<g id="Node000005" class="node">
<title>Node5</title>
<g id="a_Node000005"><a xlink:href="Injection_8hpp.html" target="_top" xlink:title=" ">
<polygon fill="white" stroke="#666666" points="458.5,-134.5 378.5,-134.5 378.5,-115.5 458.5,-115.5 458.5,-134.5"/>
<text text-anchor="middle" x="418.5" y="-122.5" font-family="Helvetica,sans-Serif" font-size="10.00">Injection.hpp</text>
</a>
</g>
</g>
<!-- Node1&#45;&gt;Node5 -->
<g id="edge35_Node000001_Node000005" class="edge">
<title>Node1&#45;&gt;Node5</title>
<g id="a_edge35_Node000001_Node000005"><a xlink:title=" ">
<path fill="none" stroke="#63b8ff" d="M878.8,-249.7C757.73,-247.31 558.21,-238.4 492.5,-206 464.19,-192.04 441.36,-162.31 428.88,-143.28"/>
<polygon fill="#63b8ff" stroke="#63b8ff" points="431.76,-141.28 423.47,-134.68 425.83,-145.01 431.76,-141.28"/>
</a>
</g>
</g>
<!-- Node10 -->
<g id="Node000010" class="node">
<title>Node10</title>
<g id="a_Node000010"><a xlink:title=" ">
<polygon fill="#e0e0e0" stroke="#999999" points="788,-74 669,-74 669,-55 788,-55 788,-74"/>
<text text-anchor="middle" x="728.5" y="-62" font-family="Helvetica,sans-Serif" font-size="10.00">clang/AST/DeclCXX.h</text>
</a>
</g>
</g>
<!-- Node1&#45;&gt;Node10 -->
<g id="edge28_Node000001_Node000010" class="edge">
<title>Node1&#45;&gt;Node10</title>
<g id="a_edge28_Node000001_Node000010"><a xlink:title=" ">
<path fill="none" stroke="#63b8ff" d="M898.36,-241.96C848.34,-234.92 789.14,-223.26 770.5,-206 735.88,-173.94 729.38,-114.67 728.42,-84.38"/>
<polygon fill="#63b8ff" stroke="#63b8ff" points="731.92,-84.26 728.28,-74.31 724.92,-84.36 731.92,-84.26"/>
</a>
</g>
</g>
<!-- Node13 -->
<g id="Node000013" class="node">
<title>Node13</title>
<g id="a_Node000013"><a xlink:title=" ">
<polygon fill="#e0e0e0" stroke="#999999" points="779.5,-19 681.5,-19 681.5,0 779.5,0 779.5,-19"/>
<text text-anchor="middle" x="730.5" y="-7" font-family="Helvetica,sans-Serif" font-size="10.00">clang/AST/Decl.h</text>
</a>
</g>
</g>
<!-- Node1&#45;&gt;Node13 -->
<g id="edge27_Node000001_Node000013" class="edge">
<title>Node1&#45;&gt;Node13</title>
<g id="a_edge27_Node000001_Node000013"><a xlink:title=" ">
<path fill="none" stroke="#63b8ff" d="M911.28,-241.95C868.3,-234.79 817.2,-222.99 803.5,-206 761.34,-153.72 830.41,-113.55 797.5,-55 789.72,-41.15 775.62,-30.83 762.36,-23.62"/>
<polygon fill="#63b8ff" stroke="#63b8ff" points="763.91,-20.49 753.4,-19.13 760.77,-26.74 763.91,-20.49"/>
</a>
</g>
</g>
<!-- Node17 -->
<g id="Node000017" class="node">
<title>Node17</title>
<g id="a_Node000017"><a xlink:title=" ">
<polygon fill="#e0e0e0" stroke="#999999" points="880.5,-200.5 812.5,-200.5 812.5,-181.5 880.5,-181.5 880.5,-200.5"/>
<text text-anchor="middle" x="846.5" y="-188.5" font-family="Helvetica,sans-Serif" font-size="10.00">filesystem</text>
</a>
</g>
</g>
<!-- Node1&#45;&gt;Node17 -->
<g id="edge24_Node000001_Node000017" class="edge">
<title>Node1&#45;&gt;Node17</title>
<g id="a_edge24_Node000001_Node000017"><a xlink:title=" ">
<path fill="none" stroke="#63b8ff" d="M956.74,-241.99C935.15,-232.2 899.47,-216.02 874.57,-204.73"/>
<polygon fill="#63b8ff" stroke="#63b8ff" points="875.83,-201.46 865.28,-200.52 872.94,-207.83 875.83,-201.46"/>
</a>
</g>
</g>
<!-- Node18 -->
<g id="Node000018" class="node">
<title>Node18</title>
<g id="a_Node000018"><a xlink:title=" ">
<polygon fill="#e0e0e0" stroke="#999999" points="958.5,-200.5 898.5,-200.5 898.5,-181.5 958.5,-181.5 958.5,-200.5"/>
<text text-anchor="middle" x="928.5" y="-188.5" font-family="Helvetica,sans-Serif" font-size="10.00">iostream</text>
</a>
</g>
</g>
<!-- Node1&#45;&gt;Node18 -->
<g id="edge25_Node000001_Node000018" class="edge">
<title>Node1&#45;&gt;Node18</title>
<g id="a_edge25_Node000001_Node000018"><a xlink:title=" ">
<path fill="none" stroke="#63b8ff" d="M968.56,-241.87C961.55,-233.14 950.54,-219.43 941.83,-208.59"/>
<polygon fill="#63b8ff" stroke="#63b8ff" points="944.46,-206.27 935.46,-200.67 939,-210.66 944.46,-206.27"/>
</a>
</g>
</g>
<!-- Node19 -->
<g id="Node000019" class="node">
<title>Node19</title>
<g id="a_Node000019"><a xlink:title=" ">
<polygon fill="#e0e0e0" stroke="#999999" points="1070,-200.5 977,-200.5 977,-181.5 1070,-181.5 1070,-200.5"/>
<text text-anchor="middle" x="1023.5" y="-188.5" font-family="Helvetica,sans-Serif" font-size="10.00">spdlog/spdlog.h</text>
</a>
</g>
</g>
<!-- Node1&#45;&gt;Node19 -->
<g id="edge26_Node000001_Node000019" class="edge">
<title>Node1&#45;&gt;Node19</title>
<g id="a_edge26_Node000001_Node000019"><a xlink:title=" ">
<path fill="none" stroke="#63b8ff" d="M982.58,-241.87C989.74,-233.14 1000.99,-219.43 1009.89,-208.59"/>
<polygon fill="#63b8ff" stroke="#63b8ff" points="1012.75,-210.62 1016.39,-200.67 1007.34,-206.18 1012.75,-210.62"/>
</a>
</g>
</g>
<!-- Node20 -->
<g id="Node000020" class="node">
<title>Node20</title>
<g id="a_Node000020"><a xlink:title=" ">
<polygon fill="#e0e0e0" stroke="#999999" points="1231,-200.5 1088,-200.5 1088,-181.5 1231,-181.5 1231,-200.5"/>
<text text-anchor="middle" x="1159.5" y="-188.5" font-family="Helvetica,sans-Serif" font-size="10.00">clang/AST/DeclTemplate.h</text>
</a>
</g>
</g>
<!-- Node1&#45;&gt;Node20 -->
<g id="edge29_Node000001_Node000020" class="edge">
<title>Node1&#45;&gt;Node20</title>
<g id="a_edge29_Node000001_Node000020"><a xlink:title=" ">
<path fill="none" stroke="#63b8ff" d="M1002.26,-241.99C1034.14,-231.86 1087.57,-214.87 1123.18,-203.55"/>
<polygon fill="#63b8ff" stroke="#63b8ff" points="1124.24,-206.88 1132.71,-200.52 1122.12,-200.21 1124.24,-206.88"/>
</a>
</g>
</g>
<!-- Node21 -->
<g id="Node000021" class="node">
<title>Node21</title>
<g id="a_Node000021"><a xlink:title=" ">
<polygon fill="#e0e0e0" stroke="#999999" points="1400,-200.5 1249,-200.5 1249,-181.5 1400,-181.5 1400,-200.5"/>
<text text-anchor="middle" x="1324.5" y="-188.5" font-family="Helvetica,sans-Serif" font-size="10.00">clang/AST/TemplateName.h</text>
</a>
</g>
</g>
<!-- Node1&#45;&gt;Node21 -->
<g id="edge30_Node000001_Node000021" class="edge">
<title>Node1&#45;&gt;Node21</title>
<g id="a_edge30_Node000001_Node000021"><a xlink:title=" ">
<path fill="none" stroke="#63b8ff" d="M1026.25,-241.99C1089.18,-231.44 1196.37,-213.48 1263.66,-202.2"/>
<polygon fill="#63b8ff" stroke="#63b8ff" points="1264.41,-205.62 1273.69,-200.52 1263.25,-198.72 1264.41,-205.62"/>
</a>
</g>
</g>
<!-- Node22 -->
<g id="Node000022" class="node">
<title>Node22</title>
<g id="a_Node000022"><a xlink:title=" ">
<polygon fill="#e0e0e0" stroke="#999999" points="1603,-200.5 1418,-200.5 1418,-181.5 1603,-181.5 1603,-200.5"/>
<text text-anchor="middle" x="1510.5" y="-188.5" font-family="Helvetica,sans-Serif" font-size="10.00">clang/ASTMatchers/ASTMatchers.h</text>
</a>
</g>
</g>
<!-- Node1&#45;&gt;Node22 -->
<g id="edge31_Node000001_Node000022" class="edge">
<title>Node1&#45;&gt;Node22</title>
<g id="a_edge31_Node000001_Node000022"><a xlink:title=" ">
<path fill="none" stroke="#63b8ff" d="M1067.89,-241.99C1155.82,-233.66 1291.82,-220.19 1409.5,-206 1419.82,-204.76 1430.72,-203.35 1441.4,-201.91"/>
<polygon fill="#63b8ff" stroke="#63b8ff" points="1442.09,-205.35 1451.53,-200.53 1441.15,-198.41 1442.09,-205.35"/>
</a>
</g>
</g>
<!-- Node23 -->
<g id="Node000023" class="node">
<title>Node23</title>
<g id="a_Node000023"><a xlink:title=" ">
<polygon fill="#e0e0e0" stroke="#999999" points="1730,-206 1621,-206 1621,-176 1730,-176 1730,-206"/>
<text text-anchor="start" x="1629" y="-194" font-family="Helvetica,sans-Serif" font-size="10.00">clang/Rewrite/Core</text>
<text text-anchor="middle" x="1675.5" y="-183" font-family="Helvetica,sans-Serif" font-size="10.00">/Rewriter.h</text>
</a>
</g>
</g>
<!-- Node1&#45;&gt;Node23 -->
<g id="edge32_Node000001_Node000023" class="edge">
<title>Node1&#45;&gt;Node23</title>
<g id="a_edge32_Node000001_Node000023"><a xlink:title=" ">
<path fill="none" stroke="#63b8ff" d="M1072.02,-248.23C1195.15,-244.32 1414.71,-233.99 1611.03,-206.07"/>
<polygon fill="#63b8ff" stroke="#63b8ff" points="1611.56,-209.53 1620.96,-204.64 1610.56,-202.6 1611.56,-209.53"/>
</a>
</g>
</g>
<!-- Node24 -->
<g id="Node000024" class="node">
<title>Node24</title>
<g id="a_Node000024"><a xlink:title=" ">
<polygon fill="#e0e0e0" stroke="#999999" points="1847,-200.5 1748,-200.5 1748,-181.5 1847,-181.5 1847,-200.5"/>
<text text-anchor="middle" x="1797.5" y="-188.5" font-family="Helvetica,sans-Serif" font-size="10.00">llvm/ADT/APInt.h</text>
</a>
</g>
</g>
<!-- Node1&#45;&gt;Node24 -->
<g id="edge33_Node000001_Node000024" class="edge">
<title>Node1&#45;&gt;Node24</title>
<g id="a_edge33_Node000001_Node000024"><a xlink:title=" ">
<path fill="none" stroke="#63b8ff" d="M1072.25,-250.38C1217.81,-248.97 1501.46,-241.37 1739.5,-206 1745.07,-205.17 1750.89,-204.06 1756.61,-202.83"/>
<polygon fill="#63b8ff" stroke="#63b8ff" points="1757.73,-206.17 1766.7,-200.52 1756.17,-199.34 1757.73,-206.17"/>
</a>
</g>
</g>
<!-- Node25 -->
<g id="Node000025" class="node">
<title>Node25</title>
<g id="a_Node000025"><a xlink:title=" ">
<polygon fill="#e0e0e0" stroke="#999999" points="1983.5,-200.5 1865.5,-200.5 1865.5,-181.5 1983.5,-181.5 1983.5,-200.5"/>
<text text-anchor="middle" x="1924.5" y="-188.5" font-family="Helvetica,sans-Serif" font-size="10.00">llvm/ADT/StringRef.h</text>
</a>
</g>
</g>
<!-- Node1&#45;&gt;Node25 -->
<g id="edge34_Node000001_Node000025" class="edge">
<title>Node1&#45;&gt;Node25</title>
<g id="a_edge34_Node000001_Node000025"><a xlink:title=" ">
<path fill="none" stroke="#63b8ff" d="M1072.07,-250.43C1234.63,-249.23 1572.98,-242.13 1856.5,-206 1863.65,-205.09 1871.17,-203.84 1878.5,-202.46"/>
<polygon fill="#63b8ff" stroke="#63b8ff" points="1879.19,-205.89 1888.32,-200.52 1877.83,-199.02 1879.19,-205.89"/>
</a>
</g>
</g>
<!-- Node26 -->
<g id="Node000026" class="node">
<title>Node26</title>
<g id="a_Node000026"><a xlink:href="Template_8hpp.html" target="_top" xlink:title=" ">
<polygon fill="white" stroke="#666666" points="585,-200.5 502,-200.5 502,-181.5 585,-181.5 585,-200.5"/>
<text text-anchor="middle" x="543.5" y="-188.5" font-family="Helvetica,sans-Serif" font-size="10.00">Template.hpp</text>
</a>
</g>
</g>
<!-- Node1&#45;&gt;Node26 -->
<g id="edge36_Node000001_Node000026" class="edge">
<title>Node1&#45;&gt;Node26</title>
<g id="a_edge36_Node000001_Node000026"><a xlink:title=" ">
<path fill="none" stroke="#63b8ff" d="M912.68,-241.99C827.02,-230.39 675.13,-209.82 595.5,-199.04"/>
<polygon fill="#63b8ff" stroke="#63b8ff" points="595.61,-195.52 585.23,-197.65 594.67,-202.46 595.61,-195.52"/>
</a>
</g>
</g>
<!-- Node3 -->
<g id="Node000003" class="node">
<title>Node3</title>
<g id="a_Node000003"><a xlink:title=" ">
<polygon fill="#e0e0e0" stroke="#999999" points="47,-74 0,-74 0,-55 47,-55 47,-74"/>
<text text-anchor="middle" x="23.5" y="-62" font-family="Helvetica,sans-Serif" font-size="10.00">vector</text>
</a>
</g>
</g>
<!-- Node2&#45;&gt;Node3 -->
<g id="edge2_Node000002_Node000003" class="edge">
<title>Node2&#45;&gt;Node3</title>
<g id="a_edge2_Node000002_Node000003"><a xlink:title=" ">
<path fill="none" stroke="#63b8ff" d="M262.21,-181.49C233.69,-172.53 188.69,-157.34 151.5,-140 112.65,-121.89 70.12,-95.78 45.18,-79.76"/>
<polygon fill="#63b8ff" stroke="#63b8ff" points="46.82,-76.65 36.52,-74.15 43.01,-82.53 46.82,-76.65"/>
</a>
</g>
</g>
<!-- Node4 -->
<g id="Node000004" class="node">
<title>Node4</title>
<g id="a_Node000004"><a xlink:title=" ">
<polygon fill="#e0e0e0" stroke="#999999" points="322,-140 161,-140 161,-110 322,-110 322,-140"/>
<text text-anchor="start" x="169" y="-128" font-family="Helvetica,sans-Serif" font-size="10.00">clang/ASTMatchers/ASTMatch</text>
<text text-anchor="middle" x="241.5" y="-117" font-family="Helvetica,sans-Serif" font-size="10.00">Finder.h</text>
</a>
</g>
</g>
<!-- Node2&#45;&gt;Node4 -->
<g id="edge3_Node000002_Node000004" class="edge">
<title>Node2&#45;&gt;Node4</title>
<g id="a_edge3_Node000002_Node000004"><a xlink:title=" ">
<path fill="none" stroke="#63b8ff" d="M283.89,-181.37C277.48,-172.99 267.47,-159.93 258.79,-148.59"/>
<polygon fill="#63b8ff" stroke="#63b8ff" points="261.35,-146.17 252.49,-140.36 255.79,-150.43 261.35,-146.17"/>
</a>
</g>
</g>
<!-- Node2&#45;&gt;Node5 -->
<g id="edge4_Node000002_Node000005" class="edge">
<title>Node2&#45;&gt;Node5</title>
<g id="a_edge4_Node000002_Node000005"><a xlink:title=" ">
<path fill="none" stroke="#63b8ff" d="M307.76,-181.37C329.42,-170.54 366.79,-151.85 392.07,-139.22"/>
<polygon fill="#63b8ff" stroke="#63b8ff" points="393.72,-142.3 401.1,-134.7 390.59,-136.04 393.72,-142.3"/>
</a>
</g>
</g>
<!-- Node5&#45;&gt;Node3 -->
<g id="edge6_Node000005_Node000003" class="edge">
<title>Node5&#45;&gt;Node3</title>
<g id="a_edge6_Node000005_Node000003"><a xlink:title=" ">
<path fill="none" stroke="#63b8ff" d="M388.67,-115.5C380.85,-113.48 372.4,-111.49 364.5,-110 231.22,-84.93 195.18,-96.83 61.5,-74 60.04,-73.75 58.56,-73.48 57.06,-73.2"/>
<polygon fill="#63b8ff" stroke="#63b8ff" points="57.64,-69.75 47.14,-71.18 56.24,-76.61 57.64,-69.75"/>
</a>
</g>
</g>
<!-- Node6 -->
<g id="Node000006" class="node">
<title>Node6</title>
<g id="a_Node000006"><a xlink:title=" ">
<polygon fill="#e0e0e0" stroke="#999999" points="578.5,-19 534.5,-19 534.5,0 578.5,0 578.5,-19"/>
<text text-anchor="middle" x="556.5" y="-7" font-family="Helvetica,sans-Serif" font-size="10.00">string</text>
</a>
</g>
</g>
<!-- Node5&#45;&gt;Node6 -->
<g id="edge5_Node000005_Node000006" class="edge">
<title>Node5&#45;&gt;Node6</title>
<g id="a_edge5_Node000005_Node000006"><a xlink:title=" ">
<path fill="none" stroke="#63b8ff" d="M428.87,-115.47C452.15,-96.32 508.8,-49.73 538.17,-25.58"/>
<polygon fill="#63b8ff" stroke="#63b8ff" points="540.51,-28.19 546.01,-19.13 536.06,-22.78 540.51,-28.19"/>
</a>
</g>
</g>
<!-- Node7 -->
<g id="Node000007" class="node">
<title>Node7</title>
<g id="a_Node000007"><a xlink:title=" ">
<polygon fill="#e0e0e0" stroke="#999999" points="196,-19 127,-19 127,0 196,0 196,-19"/>
<text text-anchor="middle" x="161.5" y="-7" font-family="Helvetica,sans-Serif" font-size="10.00">fmt/color.h</text>
</a>
</g>
</g>
<!-- Node5&#45;&gt;Node7 -->
<g id="edge7_Node000005_Node000007" class="edge">
<title>Node5&#45;&gt;Node7</title>
<g id="a_edge7_Node000005_Node000007"><a xlink:title=" ">
<path fill="none" stroke="#63b8ff" d="M387.78,-115.47C380.21,-113.52 372.09,-111.57 364.5,-110 313.41,-99.44 166.45,-113.62 132.5,-74 120.5,-60 133.01,-40.21 145.13,-26.46"/>
<polygon fill="#63b8ff" stroke="#63b8ff" points="147.71,-28.82 152.03,-19.15 142.62,-24.02 147.71,-28.82"/>
</a>
</g>
</g>
<!-- Node8 -->
<g id="Node000008" class="node">
<title>Node8</title>
<g id="a_Node000008"><a xlink:title=" ">
<polygon fill="#e0e0e0" stroke="#999999" points="109,-19 42,-19 42,0 109,0 109,-19"/>
<text text-anchor="middle" x="75.5" y="-7" font-family="Helvetica,sans-Serif" font-size="10.00">fmt/core.h</text>
</a>
</g>
</g>
<!-- Node5&#45;&gt;Node8 -->
<g id="edge8_Node000005_Node000008" class="edge">
<title>Node5&#45;&gt;Node8</title>
<g id="a_edge8_Node000005_Node000008"><a xlink:title=" ">
<path fill="none" stroke="#63b8ff" d="M387.79,-115.44C380.21,-113.5 372.09,-111.55 364.5,-110 258.82,-88.44 217.49,-128.64 124.5,-74 106.36,-63.34 92.56,-43.14 84.3,-28.37"/>
<polygon fill="#63b8ff" stroke="#63b8ff" points="87.23,-26.43 79.48,-19.2 81.03,-29.68 87.23,-26.43"/>
</a>
</g>
</g>
<!-- Node9 -->
<g id="Node000009" class="node">
<title>Node9</title>
<g id="a_Node000009"><a xlink:title=" ">
<polygon fill="#e0e0e0" stroke="#999999" points="221,-74 142,-74 142,-55 221,-55 221,-74"/>
<text text-anchor="middle" x="181.5" y="-62" font-family="Helvetica,sans-Serif" font-size="10.00">fmt/ranges.h</text>
</a>
</g>
</g>
<!-- Node5&#45;&gt;Node9 -->
<g id="edge9_Node000005_Node000009" class="edge">
<title>Node5&#45;&gt;Node9</title>
<g id="a_edge9_Node000005_Node000009"><a xlink:title=" ">
<path fill="none" stroke="#63b8ff" d="M385.97,-115.48C378.9,-113.65 371.45,-111.75 364.5,-110 317.83,-98.28 264.34,-85.33 227.3,-76.43"/>
<polygon fill="#63b8ff" stroke="#63b8ff" points="227.85,-72.97 217.31,-74.04 226.21,-79.77 227.85,-72.97"/>
</a>
</g>
</g>
<!-- Node5&#45;&gt;Node10 -->
<g id="edge10_Node000005_Node000010" class="edge">
<title>Node5&#45;&gt;Node10</title>
<g id="a_edge10_Node000005_Node000010"><a xlink:title=" ">
<path fill="none" stroke="#63b8ff" d="M458.71,-116.41C513.49,-106.07 611.79,-87.52 673.4,-75.9"/>
<polygon fill="#63b8ff" stroke="#63b8ff" points="674.16,-79.32 683.34,-74.02 672.86,-72.44 674.16,-79.32"/>
</a>
</g>
</g>
<!-- Node11 -->
<g id="Node000011" class="node">
<title>Node11</title>
<g id="a_Node000011"><a xlink:title=" ">
<polygon fill="#e0e0e0" stroke="#999999" points="612,-74 513,-74 513,-55 612,-55 612,-74"/>
<text text-anchor="middle" x="562.5" y="-62" font-family="Helvetica,sans-Serif" font-size="10.00">clang/AST/Type.h</text>
</a>
</g>
</g>
<!-- Node5&#45;&gt;Node11 -->
<g id="edge11_Node000005_Node000011" class="edge">
<title>Node5&#45;&gt;Node11</title>
<g id="a_edge11_Node000005_Node000011"><a xlink:title=" ">
<path fill="none" stroke="#63b8ff" d="M439.44,-115.49C463.86,-105.57 504.43,-89.09 532.27,-77.78"/>
<polygon fill="#63b8ff" stroke="#63b8ff" points="533.59,-81.02 541.54,-74.02 530.95,-74.54 533.59,-81.02"/>
</a>
</g>
</g>
<!-- Node12 -->
<g id="Node000012" class="node">
<title>Node12</title>
<g id="a_Node000012"><a xlink:href="Param_8hpp.html" target="_top" xlink:title=" ">
<polygon fill="white" stroke="#666666" points="456.5,-74 388.5,-74 388.5,-55 456.5,-55 456.5,-74"/>
<text text-anchor="middle" x="422.5" y="-62" font-family="Helvetica,sans-Serif" font-size="10.00">Param.hpp</text>
</a>
</g>
</g>
<!-- Node5&#45;&gt;Node12 -->
<g id="edge12_Node000005_Node000012" class="edge">
<title>Node5&#45;&gt;Node12</title>
<g id="a_edge12_Node000005_Node000012"><a xlink:title=" ">
<path fill="none" stroke="#63b8ff" d="M419.09,-115.37C419.65,-107.25 420.5,-94.81 421.21,-84.39"/>
<polygon fill="#63b8ff" stroke="#63b8ff" points="424.72,-84.38 421.91,-74.17 417.73,-83.91 424.72,-84.38"/>
</a>
</g>
</g>
<!-- Node15 -->
<g id="Node000015" class="node">
<title>Node15</title>
<g id="a_Node000015"><a xlink:href="TemplateArgument_8hpp.html" target="_top" xlink:title=" ">
<polygon fill="white" stroke="#666666" points="370,-74 239,-74 239,-55 370,-55 370,-74"/>
<text text-anchor="middle" x="304.5" y="-62" font-family="Helvetica,sans-Serif" font-size="10.00">TemplateArgument.hpp</text>
</a>
</g>
</g>
<!-- Node5&#45;&gt;Node15 -->
<g id="edge18_Node000005_Node000015" class="edge">
<title>Node5&#45;&gt;Node15</title>
<g id="a_edge18_Node000005_Node000015"><a xlink:title=" ">
<path fill="none" stroke="#63b8ff" d="M401.68,-115.37C382.9,-105.73 352.3,-90.03 330.45,-78.81"/>
<polygon fill="#63b8ff" stroke="#63b8ff" points="331.89,-75.62 321.39,-74.17 328.69,-81.85 331.89,-75.62"/>
</a>
</g>
</g>
<!-- Node12&#45;&gt;Node6 -->
<g id="edge13_Node000012_Node000006" class="edge">
<title>Node12&#45;&gt;Node6</title>
<g id="a_edge13_Node000012_Node000006"><a xlink:title=" ">
<path fill="none" stroke="#63b8ff" d="M444.03,-54.98C465.97,-46.3 500.24,-32.75 525.19,-22.88"/>
<polygon fill="#63b8ff" stroke="#63b8ff" points="526.57,-26.1 534.58,-19.17 523.99,-19.59 526.57,-26.1"/>
</a>
</g>
</g>
<!-- Node12&#45;&gt;Node7 -->
<g id="edge14_Node000012_Node000007" class="edge">
<title>Node12&#45;&gt;Node7</title>
<g id="a_edge14_Node000012_Node000007"><a xlink:title=" ">
<path fill="none" stroke="#63b8ff" d="M388.38,-56.57C341.61,-47.07 257.54,-30 205.92,-19.52"/>
<polygon fill="#63b8ff" stroke="#63b8ff" points="206.54,-16.08 196.05,-17.51 205.15,-22.94 206.54,-16.08"/>
</a>
</g>
</g>
<!-- Node12&#45;&gt;Node8 -->
<g id="edge15_Node000012_Node000008" class="edge">
<title>Node12&#45;&gt;Node8</title>
<g id="a_edge15_Node000012_Node000008"><a xlink:title=" ">
<path fill="none" stroke="#63b8ff" d="M388.42,-56.73C385.07,-56.12 381.72,-55.53 378.5,-55 266.13,-36.41 234.65,-38.49 119.32,-19.22"/>
<polygon fill="#63b8ff" stroke="#63b8ff" points="119.84,-15.76 109.39,-17.55 118.67,-22.66 119.84,-15.76"/>
</a>
</g>
</g>
<!-- Node12&#45;&gt;Node13 -->
<g id="edge16_Node000012_Node000013" class="edge">
<title>Node12&#45;&gt;Node13</title>
<g id="a_edge16_Node000012_Node000013"><a xlink:title=" ">
<path fill="none" stroke="#63b8ff" d="M456.64,-57.63C508.45,-48.71 607.63,-31.64 671.35,-20.68"/>
<polygon fill="#63b8ff" stroke="#63b8ff" points="671.99,-24.12 681.25,-18.97 670.8,-17.22 671.99,-24.12"/>
</a>
</g>
</g>
<!-- Node14 -->
<g id="Node000014" class="node">
<title>Node14</title>
<g id="a_Node000014"><a xlink:title=" ">
<polygon fill="#e0e0e0" stroke="#999999" points="516,-19 379,-19 379,0 516,0 516,-19"/>
<text text-anchor="middle" x="447.5" y="-7" font-family="Helvetica,sans-Serif" font-size="10.00">clang/AST/PrettyPrinter.h</text>
</a>
</g>
</g>
<!-- Node12&#45;&gt;Node14 -->
<g id="edge17_Node000012_Node000014" class="edge">
<title>Node12&#45;&gt;Node14</title>
<g id="a_edge17_Node000012_Node000014"><a xlink:title=" ">
<path fill="none" stroke="#63b8ff" d="M426.63,-54.75C430.01,-47.57 434.92,-37.18 439.12,-28.27"/>
<polygon fill="#63b8ff" stroke="#63b8ff" points="442.35,-29.63 443.45,-19.09 436.02,-26.64 442.35,-29.63"/>
</a>
</g>
</g>
<!-- Node15&#45;&gt;Node6 -->
<g id="edge20_Node000015_Node000006" class="edge">
<title>Node15&#45;&gt;Node6</title>
<g id="a_edge20_Node000015_Node000006"><a xlink:title=" ">
<path fill="none" stroke="#63b8ff" d="M351.03,-54.93C393.5,-46.92 458.22,-34.24 524.02,-18.99"/>
<polygon fill="#63b8ff" stroke="#63b8ff" points="525.22,-22.3 534.16,-16.62 523.63,-15.48 525.22,-22.3"/>
</a>
</g>
</g>
<!-- Node15&#45;&gt;Node7 -->
<g id="edge21_Node000015_Node000007" class="edge">
<title>Node15&#45;&gt;Node7</title>
<g id="a_edge21_Node000015_Node000007"><a xlink:title=" ">
<path fill="none" stroke="#63b8ff" d="M281.52,-54.98C258,-46.27 221.21,-32.63 194.56,-22.75"/>
<polygon fill="#63b8ff" stroke="#63b8ff" points="195.49,-19.36 184.89,-19.17 193.05,-25.93 195.49,-19.36"/>
</a>
</g>
</g>
<!-- Node15&#45;&gt;Node8 -->
<g id="edge22_Node000015_Node000008" class="edge">
<title>Node15&#45;&gt;Node8</title>
<g id="a_edge22_Node000015_Node000008"><a xlink:title=" ">
<path fill="none" stroke="#63b8ff" d="M267.71,-54.98C227.21,-45.61 162.15,-30.55 119.12,-20.6"/>
<polygon fill="#63b8ff" stroke="#63b8ff" points="119.75,-17.15 109.22,-18.3 118.17,-23.97 119.75,-17.15"/>
</a>
</g>
</g>
<!-- Node15&#45;&gt;Node14 -->
<g id="edge23_Node000015_Node000014" class="edge">
<title>Node15&#45;&gt;Node14</title>
<g id="a_edge23_Node000015_Node000014"><a xlink:title=" ">
<path fill="none" stroke="#63b8ff" d="M327.48,-54.98C351,-46.27 387.79,-32.63 414.44,-22.75"/>
<polygon fill="#63b8ff" stroke="#63b8ff" points="415.95,-25.93 424.11,-19.17 413.51,-19.36 415.95,-25.93"/>
</a>
</g>
</g>
<!-- Node16 -->
<g id="Node000016" class="node">
<title>Node16</title>
<g id="a_Node000016"><a xlink:title=" ">
<polygon fill="#e0e0e0" stroke="#999999" points="360.5,-19 214.5,-19 214.5,0 360.5,0 360.5,-19"/>
<text text-anchor="middle" x="287.5" y="-7" font-family="Helvetica,sans-Serif" font-size="10.00">clang/AST/TemplateBase.h</text>
</a>
</g>
</g>
<!-- Node15&#45;&gt;Node16 -->
<g id="edge19_Node000015_Node000016" class="edge">
<title>Node15&#45;&gt;Node16</title>
<g id="a_edge19_Node000015_Node000016"><a xlink:title=" ">
<path fill="none" stroke="#63b8ff" d="M301.69,-54.75C299.44,-47.72 296.2,-37.62 293.38,-28.84"/>
<polygon fill="#63b8ff" stroke="#63b8ff" points="296.64,-27.54 290.25,-19.09 289.98,-29.68 296.64,-27.54"/>
</a>
</g>
</g>
<!-- Node26&#45;&gt;Node3 -->
<g id="edge38_Node000026_Node000003" class="edge">
<title>Node26&#45;&gt;Node3</title>
<g id="a_edge38_Node000026_Node000003"><a xlink:title=" ">
<path fill="none" stroke="#63b8ff" d="M501.8,-182.61C465.49,-175.13 412.14,-161.54 369.5,-140 349.98,-130.14 350.64,-118.51 330.5,-110 305.68,-99.51 132,-78.22 57.41,-69.43"/>
<polygon fill="#63b8ff" stroke="#63b8ff" points="57.49,-65.92 47.15,-68.23 56.68,-72.87 57.49,-65.92"/>
</a>
</g>
</g>
<!-- Node26&#45;&gt;Node5 -->
<g id="edge41_Node000026_Node000005" class="edge">
<title>Node26&#45;&gt;Node5</title>
<g id="a_edge41_Node000026_Node000005"><a xlink:title=" ">
<path fill="none" stroke="#63b8ff" d="M526.64,-181.37C505.58,-170.59 469.32,-152.02 444.64,-139.38"/>
<polygon fill="#63b8ff" stroke="#63b8ff" points="445.99,-136.14 435.49,-134.7 442.8,-142.37 445.99,-136.14"/>
</a>
</g>
</g>
<!-- Node26&#45;&gt;Node6 -->
<g id="edge37_Node000026_Node000006" class="edge">
<title>Node26&#45;&gt;Node6</title>
<g id="a_edge37_Node000026_Node000006"><a xlink:title=" ">
<path fill="none" stroke="#63b8ff" d="M552.06,-181.37C569.27,-163.32 607.63,-119.5 621.5,-74 623.96,-65.92 625.44,-62.47 621.5,-55 614.26,-41.27 600.67,-30.97 587.78,-23.76"/>
<polygon fill="#63b8ff" stroke="#63b8ff" points="589.11,-20.51 578.62,-19.05 585.91,-26.73 589.11,-20.51"/>
</a>
</g>
</g>
<!-- Node26&#45;&gt;Node10 -->
<g id="edge39_Node000026_Node000010" class="edge">
<title>Node26&#45;&gt;Node10</title>
<g id="a_edge39_Node000026_Node000010"><a xlink:title=" ">
<path fill="none" stroke="#63b8ff" d="M569.58,-181.34C593.01,-172.87 627.75,-158.54 654.5,-140 678.27,-123.53 700.99,-98.87 714.84,-82.49"/>
<polygon fill="#63b8ff" stroke="#63b8ff" points="717.9,-84.28 721.57,-74.34 712.5,-79.82 717.9,-84.28"/>
</a>
</g>
</g>
<!-- Node26&#45;&gt;Node11 -->
<g id="edge40_Node000026_Node000011" class="edge">
<title>Node26&#45;&gt;Node11</title>
<g id="a_edge40_Node000026_Node000011"><a xlink:title=" ">
<path fill="none" stroke="#63b8ff" d="M544.81,-181.44C547.84,-161.54 555.44,-111.76 559.62,-84.35"/>
<polygon fill="#63b8ff" stroke="#63b8ff" points="563.14,-84.53 561.18,-74.12 556.22,-83.47 563.14,-84.53"/>
</a>
</g>
</g>
<!-- Node26&#45;&gt;Node12 -->
<g id="edge42_Node000026_Node000012" class="edge">
<title>Node26&#45;&gt;Node12</title>
<g id="a_edge42_Node000026_Node000012"><a xlink:title=" ">
<path fill="none" stroke="#63b8ff" d="M540.66,-181.32C535.11,-165.48 521.53,-131.56 500.5,-110 487.34,-96.5 469.21,-85.83 453.74,-78.32"/>
<polygon fill="#63b8ff" stroke="#63b8ff" points="455.07,-75.08 444.53,-74.06 452.13,-81.43 455.07,-75.08"/>
</a>
</g>
</g>
<!-- Node26&#45;&gt;Node15 -->
<g id="edge43_Node000026_Node000015" class="edge">
<title>Node26&#45;&gt;Node15</title>
<g id="a_edge43_Node000026_Node000015"><a xlink:title=" ">
<path fill="none" stroke="#63b8ff" d="M536.31,-181.32C520.71,-162.7 483.86,-119.78 467.5,-110 439.68,-93.37 405.5,-82.8 375.64,-76.17"/>
<polygon fill="#63b8ff" stroke="#63b8ff" points="376.2,-72.71 365.7,-74.06 374.75,-79.56 376.2,-72.71"/>
</a>
</g>
</g>
</g>
</svg>
