<?xml version="1.0" encoding="UTF-8" standalone="no"?>
<!DOCTYPE svg PUBLIC "-//W3C//DTD SVG 1.1//EN"
 "http://www.w3.org/Graphics/SVG/1.1/DTD/svg11.dtd">
<!-- Generated by graphviz version 2.43.0 (0)
 -->
<!-- Title: src/Callbacks/InjectInstantiation.cpp Pages: 1 -->
<svg width="980pt" height="218pt"
 viewBox="0.00 0.00 979.51 218.00" xmlns="http://www.w3.org/2000/svg" xmlns:xlink="http://www.w3.org/1999/xlink">
<g id="graph0" class="graph" transform="scale(1 1) rotate(0) translate(4 214)">
<title>src/Callbacks/InjectInstantiation.cpp</title>
<!-- Node1 -->
<g id="node1" class="node">
<title>Node1</title>
<g id="a_node1"><a xlink:title=" ">
<polygon fill="#bfbfbf" stroke="black" points="341.51,-190.5 341.51,-209.5 534.51,-209.5 534.51,-190.5 341.51,-190.5"/>
<text text-anchor="middle" x="438.01" y="-197.5" font-family="Helvetica,sans-Serif" font-size="10.00">src/Callbacks/InjectInstantiation.cpp</text>
</a>
</g>
</g>
<!-- Node2 -->
<g id="node2" class="node">
<title>Node2</title>
<g id="a_node2"><a xlink:href="InjectInstantiation_8hpp.html" target="_top" xlink:title=" ">
<polygon fill="none" stroke="black" points="34.01,-129 34.01,-148 210.01,-148 210.01,-129 34.01,-129"/>
<text text-anchor="middle" x="122.01" y="-136" font-family="Helvetica,sans-Serif" font-size="10.00">Callbacks/InjectInstantiation.hpp</text>
</a>
</g>
</g>
<!-- Node1&#45;&gt;Node2 -->
<g id="edge1" class="edge">
<title>Node1&#45;&gt;Node2</title>
<path fill="none" stroke="midnightblue" d="M392.73,-190.48C335.83,-179.76 238.22,-161.38 177.06,-149.87"/>
<polygon fill="midnightblue" stroke="midnightblue" points="177.67,-146.42 167.2,-148.01 176.38,-153.3 177.67,-146.42"/>
</g>
<!-- Node5 -->
<g id="node5" class="node">
<title>Node5</title>
<g id="a_node5"><a xlink:href="Injection_8hpp.html" target="_top" xlink:title=" ">
<polygon fill="none" stroke="black" points="194.01,-62 194.01,-81 274.01,-81 274.01,-62 194.01,-62"/>
<text text-anchor="middle" x="234.01" y="-69" font-family="Helvetica,sans-Serif" font-size="10.00">Injection.hpp</text>
</a>
</g>
</g>
<!-- Node1&#45;&gt;Node5 -->
<g id="edge15" class="edge">
<title>Node1&#45;&gt;Node5</title>
<path fill="none" stroke="midnightblue" d="M376.32,-190.46C347.36,-184.08 313.66,-173.04 288.01,-154 265.8,-137.52 249.99,-109 241.42,-90.45"/>
<polygon fill="midnightblue" stroke="midnightblue" points="244.54,-88.83 237.32,-81.07 238.12,-91.64 244.54,-88.83"/>
</g>
<!-- Node7 -->
<g id="node7" class="node">
<title>Node7</title>
<g id="a_node7"><a xlink:title=" ">
<polygon fill="none" stroke="#bfbfbf" points="272.01,-0.5 272.01,-19.5 390.01,-19.5 390.01,-0.5 272.01,-0.5"/>
<text text-anchor="middle" x="331.01" y="-7.5" font-family="Helvetica,sans-Serif" font-size="10.00">llvm/ADT/StringRef.h</text>
</a>
</g>
</g>
<!-- Node1&#45;&gt;Node7 -->
<g id="edge10" class="edge">
<title>Node1&#45;&gt;Node7</title>
<path fill="none" stroke="midnightblue" d="M379.44,-190.48C357.68,-184.16 335.13,-173.16 322.01,-154 295.97,-115.98 312.33,-58.1 323.36,-29.02"/>
<polygon fill="midnightblue" stroke="midnightblue" points="326.62,-30.28 327.09,-19.69 320.13,-27.68 326.62,-30.28"/>
</g>
<!-- Node9 -->
<g id="node9" class="node">
<title>Node9</title>
<g id="a_node9"><a xlink:title=" ">
<polygon fill="none" stroke="#bfbfbf" points="330.51,-129 330.51,-148 429.51,-148 429.51,-129 330.51,-129"/>
<text text-anchor="middle" x="380.01" y="-136" font-family="Helvetica,sans-Serif" font-size="10.00">llvm/ADT/APInt.h</text>
</a>
</g>
</g>
<!-- Node1&#45;&gt;Node9 -->
<g id="edge9" class="edge">
<title>Node1&#45;&gt;Node9</title>
<path fill="none" stroke="midnightblue" d="M429.7,-190.48C420.82,-181.37 406.56,-166.74 395.59,-155.48"/>
<polygon fill="midnightblue" stroke="midnightblue" points="397.79,-152.73 388.3,-148.01 392.78,-157.61 397.79,-152.73"/>
</g>
<!-- Node10 -->
<g id="node10" class="node">
<title>Node10</title>
<g id="a_node10"><a xlink:title=" ">
<polygon fill="none" stroke="#bfbfbf" points="448.01,-129 448.01,-148 546.01,-148 546.01,-129 448.01,-129"/>
<text text-anchor="middle" x="497.01" y="-136" font-family="Helvetica,sans-Serif" font-size="10.00">clang/AST/Decl.h</text>
</a>
</g>
</g>
<!-- Node1&#45;&gt;Node10 -->
<g id="edge11" class="edge">
<title>Node1&#45;&gt;Node10</title>
<path fill="none" stroke="midnightblue" d="M446.46,-190.48C455.57,-181.28 470.28,-166.46 481.48,-155.16"/>
<polygon fill="midnightblue" stroke="midnightblue" points="484.01,-157.57 488.57,-148.01 479.04,-152.65 484.01,-157.57"/>
</g>
<!-- Node11 -->
<g id="node11" class="node">
<title>Node11</title>
<g id="a_node11"><a xlink:title=" ">
<polygon fill="none" stroke="#bfbfbf" points="564.51,-129 564.51,-148 683.51,-148 683.51,-129 564.51,-129"/>
<text text-anchor="middle" x="624.01" y="-136" font-family="Helvetica,sans-Serif" font-size="10.00">clang/AST/DeclCXX.h</text>
</a>
</g>
</g>
<!-- Node1&#45;&gt;Node11 -->
<g id="edge12" class="edge">
<title>Node1&#45;&gt;Node11</title>
<path fill="none" stroke="midnightblue" d="M464.66,-190.48C496.98,-180.14 551.6,-162.66 587.74,-151.1"/>
<polygon fill="midnightblue" stroke="midnightblue" points="588.95,-154.39 597.41,-148.01 586.82,-147.72 588.95,-154.39"/>
</g>
<!-- Node12 -->
<g id="node12" class="node">
<title>Node12</title>
<g id="a_node12"><a xlink:title=" ">
<polygon fill="none" stroke="#bfbfbf" points="701.51,-129 701.51,-148 844.51,-148 844.51,-129 701.51,-129"/>
<text text-anchor="middle" x="773.01" y="-136" font-family="Helvetica,sans-Serif" font-size="10.00">clang/AST/DeclTemplate.h</text>
</a>
</g>
</g>
<!-- Node1&#45;&gt;Node12 -->
<g id="edge13" class="edge">
<title>Node1&#45;&gt;Node12</title>
<path fill="none" stroke="midnightblue" d="M486.9,-190.44C538.24,-181.44 621.32,-166.82 693.01,-154 700.45,-152.67 708.27,-151.26 716,-149.87"/>
<polygon fill="midnightblue" stroke="midnightblue" points="716.84,-153.27 726.06,-148.05 715.59,-146.38 716.84,-153.27"/>
</g>
<!-- Node13 -->
<g id="node13" class="node">
<title>Node13</title>
<g id="a_node13"><a xlink:title=" ">
<polygon fill="none" stroke="#bfbfbf" points="862.51,-123.5 862.51,-153.5 971.51,-153.5 971.51,-123.5 862.51,-123.5"/>
<text text-anchor="start" x="870.51" y="-141.5" font-family="Helvetica,sans-Serif" font-size="10.00">clang/Rewrite/Core</text>
<text text-anchor="middle" x="917.01" y="-130.5" font-family="Helvetica,sans-Serif" font-size="10.00">/Rewriter.h</text>
</a>
</g>
</g>
<!-- Node1&#45;&gt;Node13 -->
<g id="edge14" class="edge">
<title>Node1&#45;&gt;Node13</title>
<path fill="none" stroke="midnightblue" d="M534.7,-191.81C616.9,-184.94 738.2,-173.02 852.48,-154.14"/>
<polygon fill="midnightblue" stroke="midnightblue" points="853.17,-157.58 862.45,-152.47 852.01,-150.67 853.17,-157.58"/>
</g>
<!-- Node3 -->
<g id="node3" class="node">
<title>Node3</title>
<g id="a_node3"><a xlink:title=" ">
<polygon fill="none" stroke="#bfbfbf" points="9.51,-0.5 9.51,-19.5 56.51,-19.5 56.51,-0.5 9.51,-0.5"/>
<text text-anchor="middle" x="33.01" y="-7.5" font-family="Helvetica,sans-Serif" font-size="10.00">vector</text>
</a>
</g>
</g>
<!-- Node2&#45;&gt;Node3 -->
<g id="edge2" class="edge">
<title>Node2&#45;&gt;Node3</title>
<path fill="none" stroke="midnightblue" d="M71.28,-128.93C46.88,-121.98 19.78,-109.46 5.01,-87 -7.25,-68.36 6.43,-43.64 18.62,-27.53"/>
<polygon fill="midnightblue" stroke="midnightblue" points="21.49,-29.54 25.06,-19.56 16.05,-25.14 21.49,-29.54"/>
</g>
<!-- Node4 -->
<g id="node4" class="node">
<title>Node4</title>
<g id="a_node4"><a xlink:title=" ">
<polygon fill="none" stroke="#bfbfbf" points="14.51,-56.5 14.51,-86.5 175.51,-86.5 175.51,-56.5 14.51,-56.5"/>
<text text-anchor="start" x="22.51" y="-74.5" font-family="Helvetica,sans-Serif" font-size="10.00">clang/ASTMatchers/ASTMatch</text>
<text text-anchor="middle" x="95.01" y="-63.5" font-family="Helvetica,sans-Serif" font-size="10.00">Finder.h</text>
</a>
</g>
</g>
<!-- Node2&#45;&gt;Node4 -->
<g id="edge3" class="edge">
<title>Node2&#45;&gt;Node4</title>
<path fill="none" stroke="midnightblue" d="M118.37,-128.73C114.89,-120.37 109.5,-107.4 104.78,-96.02"/>
<polygon fill="midnightblue" stroke="midnightblue" points="107.93,-94.48 100.86,-86.59 101.46,-97.17 107.93,-94.48"/>
</g>
<!-- Node2&#45;&gt;Node5 -->
<g id="edge4" class="edge">
<title>Node2&#45;&gt;Node5</title>
<path fill="none" stroke="midnightblue" d="M137.11,-128.73C155.92,-117.82 188.26,-99.05 210.36,-86.22"/>
<polygon fill="midnightblue" stroke="midnightblue" points="212.25,-89.17 219.14,-81.13 208.74,-83.12 212.25,-89.17"/>
</g>
<!-- Node5&#45;&gt;Node3 -->
<g id="edge6" class="edge">
<title>Node5&#45;&gt;Node3</title>
<path fill="none" stroke="midnightblue" d="M205.21,-61.98C168.54,-51.12 105.29,-32.4 66.51,-20.92"/>
<polygon fill="midnightblue" stroke="midnightblue" points="67.31,-17.5 56.73,-18.02 65.32,-24.22 67.31,-17.5"/>
</g>
<!-- Node6 -->
<g id="node6" class="node">
<title>Node6</title>
<g id="a_node6"><a xlink:title=" ">
<polygon fill="none" stroke="#bfbfbf" points="92.01,-0.5 92.01,-19.5 136.01,-19.5 136.01,-0.5 92.01,-0.5"/>
<text text-anchor="middle" x="114.01" y="-7.5" font-family="Helvetica,sans-Serif" font-size="10.00">string</text>
</a>
</g>
</g>
<!-- Node5&#45;&gt;Node6 -->
<g id="edge5" class="edge">
<title>Node5&#45;&gt;Node6</title>
<path fill="none" stroke="midnightblue" d="M216.81,-61.98C196.76,-52.03 163.41,-35.49 140.15,-23.96"/>
<polygon fill="midnightblue" stroke="midnightblue" points="141.68,-20.82 131.17,-19.51 138.57,-27.09 141.68,-20.82"/>
</g>
<!-- Node5&#45;&gt;Node7 -->
<g id="edge7" class="edge">
<title>Node5&#45;&gt;Node7</title>
<path fill="none" stroke="midnightblue" d="M247.9,-61.98C263.68,-52.3 289.64,-36.37 308.36,-24.89"/>
<polygon fill="midnightblue" stroke="midnightblue" points="310.44,-27.72 317.13,-19.51 306.78,-21.75 310.44,-27.72"/>
</g>
<!-- Node8 -->
<g id="node8" class="node">
<title>Node8</title>
<g id="a_node8"><a xlink:title=" ">
<polygon fill="none" stroke="#bfbfbf" points="154.51,-0.5 154.51,-19.5 253.51,-19.5 253.51,-0.5 154.51,-0.5"/>
<text text-anchor="middle" x="204.01" y="-7.5" font-family="Helvetica,sans-Serif" font-size="10.00">clang/AST/Type.h</text>
</a>
</g>
</g>
<!-- Node5&#45;&gt;Node8 -->
<g id="edge8" class="edge">
<title>Node5&#45;&gt;Node8</title>
<path fill="none" stroke="midnightblue" d="M229.71,-61.98C225.34,-53.32 218.45,-39.65 212.9,-28.65"/>
<polygon fill="midnightblue" stroke="midnightblue" points="215.92,-26.86 208.3,-19.51 209.67,-30.01 215.92,-26.86"/>
</g>
</g>
</svg>
