<?xml version="1.0" encoding="UTF-8" standalone="no"?>
<!DOCTYPE svg PUBLIC "-//W3C//DTD SVG 1.1//EN"
 "http://www.w3.org/Graphics/SVG/1.1/DTD/svg11.dtd">
<!-- Generated by graphviz version 2.43.0 (0)
 -->
<!-- Title: src/Injection.cpp Pages: 1 -->
<svg width="998pt" height="196pt"
 viewBox="0.00 0.00 998.00 196.00" xmlns="http://www.w3.org/2000/svg" xmlns:xlink="http://www.w3.org/1999/xlink">
<g id="graph0" class="graph" transform="scale(1 1) rotate(0) translate(4 192)">
<title>src/Injection.cpp</title>
<!-- Node1 -->
<g id="node1" class="node">
<title>Node1</title>
<g id="a_node1"><a xlink:title=" ">
<polygon fill="#bfbfbf" stroke="black" points="403.5,-168.5 403.5,-187.5 499.5,-187.5 499.5,-168.5 403.5,-168.5"/>
<text text-anchor="middle" x="451.5" y="-175.5" font-family="Helvetica,sans-Serif" font-size="10.00">src/Injection.cpp</text>
</a>
</g>
</g>
<!-- Node2 -->
<g id="node2" class="node">
<title>Node2</title>
<g id="a_node2"><a xlink:href="Injection_8hpp.html" target="_top" xlink:title=" ">
<polygon fill="none" stroke="black" points="315.5,-112.5 315.5,-131.5 395.5,-131.5 395.5,-112.5 315.5,-112.5"/>
<text text-anchor="middle" x="355.5" y="-119.5" font-family="Helvetica,sans-Serif" font-size="10.00">Injection.hpp</text>
</a>
</g>
</g>
<!-- Node1&#45;&gt;Node2 -->
<g id="edge1" class="edge">
<title>Node1&#45;&gt;Node2</title>
<path fill="none" stroke="midnightblue" d="M436.08,-168.32C420.96,-159.82 397.68,-146.73 380.03,-136.8"/>
<polygon fill="midnightblue" stroke="midnightblue" points="381.32,-133.51 370.89,-131.65 377.89,-139.61 381.32,-133.51"/>
</g>
<!-- Node7 -->
<g id="node7" class="node">
<title>Node7</title>
<g id="a_node7"><a xlink:title=" ">
<polygon fill="none" stroke="#bfbfbf" points="574,-56.5 574,-75.5 693,-75.5 693,-56.5 574,-56.5"/>
<text text-anchor="middle" x="633.5" y="-63.5" font-family="Helvetica,sans-Serif" font-size="10.00">clang/AST/DeclCXX.h</text>
</a>
</g>
</g>
<!-- Node1&#45;&gt;Node7 -->
<g id="edge18" class="edge">
<title>Node1&#45;&gt;Node7</title>
<path fill="none" stroke="midnightblue" d="M446.68,-168.37C439.83,-154.82 429.49,-128.43 442.5,-112 450.77,-101.56 520.24,-87.07 573.04,-77.39"/>
<polygon fill="midnightblue" stroke="midnightblue" points="573.8,-80.81 583.02,-75.58 572.55,-73.92 573.8,-80.81"/>
</g>
<!-- Node10 -->
<g id="node10" class="node">
<title>Node10</title>
<g id="a_node10"><a xlink:title=" ">
<polygon fill="none" stroke="#bfbfbf" points="0,-0.5 0,-19.5 57,-19.5 57,-0.5 0,-0.5"/>
<text text-anchor="middle" x="28.5" y="-7.5" font-family="Helvetica,sans-Serif" font-size="10.00">ostream</text>
</a>
</g>
</g>
<!-- Node1&#45;&gt;Node10 -->
<g id="edge14" class="edge">
<title>Node1&#45;&gt;Node10</title>
<path fill="none" stroke="midnightblue" d="M403.48,-174.35C320.36,-169.18 153.48,-156.11 100.5,-132 66.4,-116.48 55.16,-109.04 37.5,-76 29.86,-61.71 27.93,-43.25 27.73,-29.65"/>
<polygon fill="midnightblue" stroke="midnightblue" points="31.23,-29.62 27.87,-19.57 24.23,-29.52 31.23,-29.62"/>
</g>
<!-- Node11 -->
<g id="node11" class="node">
<title>Node11</title>
<g id="a_node11"><a xlink:title=" ">
<polygon fill="none" stroke="#bfbfbf" points="91.5,-0.5 91.5,-19.5 189.5,-19.5 189.5,-0.5 91.5,-0.5"/>
<text text-anchor="middle" x="140.5" y="-7.5" font-family="Helvetica,sans-Serif" font-size="10.00">clang/AST/Decl.h</text>
</a>
</g>
</g>
<!-- Node1&#45;&gt;Node11 -->
<g id="edge17" class="edge">
<title>Node1&#45;&gt;Node11</title>
<path fill="none" stroke="midnightblue" d="M403.14,-172.26C305.49,-161.59 90.33,-132.11 46.5,-76 27.88,-52.16 64.77,-33.67 97.66,-22.6"/>
<polygon fill="midnightblue" stroke="midnightblue" points="98.77,-25.92 107.23,-19.54 96.64,-19.25 98.77,-25.92"/>
</g>
<!-- Node14 -->
<g id="node14" class="node">
<title>Node14</title>
<g id="a_node14"><a xlink:title=" ">
<polygon fill="none" stroke="#bfbfbf" points="451.5,-112.5 451.5,-131.5 507.5,-131.5 507.5,-112.5 451.5,-112.5"/>
<text text-anchor="middle" x="479.5" y="-119.5" font-family="Helvetica,sans-Serif" font-size="10.00">sstream</text>
</a>
</g>
</g>
<!-- Node1&#45;&gt;Node14 -->
<g id="edge15" class="edge">
<title>Node1&#45;&gt;Node14</title>
<path fill="none" stroke="midnightblue" d="M456.12,-168.08C459.96,-160.69 465.52,-149.95 470.26,-140.81"/>
<polygon fill="midnightblue" stroke="midnightblue" points="473.47,-142.24 474.96,-131.75 467.25,-139.02 473.47,-142.24"/>
</g>
<!-- Node15 -->
<g id="node15" class="node">
<title>Node15</title>
<g id="a_node15"><a xlink:title=" ">
<polygon fill="none" stroke="#bfbfbf" points="525.5,-112.5 525.5,-131.5 659.5,-131.5 659.5,-112.5 525.5,-112.5"/>
<text text-anchor="middle" x="592.5" y="-119.5" font-family="Helvetica,sans-Serif" font-size="10.00">termcolor/termcolor.hpp</text>
</a>
</g>
</g>
<!-- Node1&#45;&gt;Node15 -->
<g id="edge16" class="edge">
<title>Node1&#45;&gt;Node15</title>
<path fill="none" stroke="midnightblue" d="M473.84,-168.44C497.25,-159.48 534.24,-145.31 560.69,-135.18"/>
<polygon fill="midnightblue" stroke="midnightblue" points="562.18,-138.36 570.26,-131.52 559.67,-131.82 562.18,-138.36"/>
</g>
<!-- Node16 -->
<g id="node16" class="node">
<title>Node16</title>
<g id="a_node16"><a xlink:title=" ">
<polygon fill="none" stroke="#bfbfbf" points="678,-112.5 678,-131.5 821,-131.5 821,-112.5 678,-112.5"/>
<text text-anchor="middle" x="749.5" y="-119.5" font-family="Helvetica,sans-Serif" font-size="10.00">clang/AST/DeclTemplate.h</text>
</a>
</g>
</g>
<!-- Node1&#45;&gt;Node16 -->
<g id="edge19" class="edge">
<title>Node1&#45;&gt;Node16</title>
<path fill="none" stroke="midnightblue" d="M498.72,-168.44C551.25,-158.92 636.11,-143.55 692.35,-133.36"/>
<polygon fill="midnightblue" stroke="midnightblue" points="693.29,-136.74 702.5,-131.52 692.04,-129.86 693.29,-136.74"/>
</g>
<!-- Node17 -->
<g id="node17" class="node">
<title>Node17</title>
<g id="a_node17"><a xlink:title=" ">
<polygon fill="none" stroke="#bfbfbf" points="839,-112.5 839,-131.5 990,-131.5 990,-112.5 839,-112.5"/>
<text text-anchor="middle" x="914.5" y="-119.5" font-family="Helvetica,sans-Serif" font-size="10.00">clang/AST/TemplateName.h</text>
</a>
</g>
</g>
<!-- Node1&#45;&gt;Node17 -->
<g id="edge20" class="edge">
<title>Node1&#45;&gt;Node17</title>
<path fill="none" stroke="midnightblue" d="M499.74,-171.37C578.26,-162.22 734.63,-143.98 831.34,-132.7"/>
<polygon fill="midnightblue" stroke="midnightblue" points="831.85,-136.16 841.37,-131.53 831.03,-129.21 831.85,-136.16"/>
</g>
<!-- Node3 -->
<g id="node3" class="node">
<title>Node3</title>
<g id="a_node3"><a xlink:title=" ">
<polygon fill="none" stroke="#bfbfbf" points="375.5,-56.5 375.5,-75.5 431.5,-75.5 431.5,-56.5 375.5,-56.5"/>
<text text-anchor="middle" x="403.5" y="-63.5" font-family="Helvetica,sans-Serif" font-size="10.00">optional</text>
</a>
</g>
</g>
<!-- Node2&#45;&gt;Node3 -->
<g id="edge2" class="edge">
<title>Node2&#45;&gt;Node3</title>
<path fill="none" stroke="midnightblue" d="M363.43,-112.08C370.35,-104.3 380.57,-92.8 388.95,-83.37"/>
<polygon fill="midnightblue" stroke="midnightblue" points="391.69,-85.55 395.72,-75.75 386.46,-80.9 391.69,-85.55"/>
</g>
<!-- Node4 -->
<g id="node4" class="node">
<title>Node4</title>
<g id="a_node4"><a xlink:title=" ">
<polygon fill="none" stroke="#bfbfbf" points="553.5,-0.5 553.5,-19.5 597.5,-19.5 597.5,-0.5 553.5,-0.5"/>
<text text-anchor="middle" x="575.5" y="-7.5" font-family="Helvetica,sans-Serif" font-size="10.00">string</text>
</a>
</g>
</g>
<!-- Node2&#45;&gt;Node4 -->
<g id="edge3" class="edge">
<title>Node2&#45;&gt;Node4</title>
<path fill="none" stroke="midnightblue" d="M395.81,-113.57C439.33,-104.99 505.28,-90.24 526.5,-76 544.23,-64.1 558.11,-43.6 566.5,-28.8"/>
<polygon fill="midnightblue" stroke="midnightblue" points="569.77,-30.1 571.41,-19.64 563.6,-26.79 569.77,-30.1"/>
</g>
<!-- Node5 -->
<g id="node5" class="node">
<title>Node5</title>
<g id="a_node5"><a xlink:title=" ">
<polygon fill="none" stroke="#bfbfbf" points="56,-56.5 56,-75.5 103,-75.5 103,-56.5 56,-56.5"/>
<text text-anchor="middle" x="79.5" y="-63.5" font-family="Helvetica,sans-Serif" font-size="10.00">vector</text>
</a>
</g>
</g>
<!-- Node2&#45;&gt;Node5 -->
<g id="edge4" class="edge">
<title>Node2&#45;&gt;Node5</title>
<path fill="none" stroke="midnightblue" d="M315.3,-114.61C268.92,-107 190.19,-93.38 113.11,-75.98"/>
<polygon fill="midnightblue" stroke="midnightblue" points="113.76,-72.54 103.23,-73.73 112.2,-79.36 113.76,-72.54"/>
</g>
<!-- Node6 -->
<g id="node6" class="node">
<title>Node6</title>
<g id="a_node6"><a xlink:title=" ">
<polygon fill="none" stroke="#bfbfbf" points="121.5,-56.5 121.5,-75.5 239.5,-75.5 239.5,-56.5 121.5,-56.5"/>
<text text-anchor="middle" x="180.5" y="-63.5" font-family="Helvetica,sans-Serif" font-size="10.00">llvm/ADT/StringRef.h</text>
</a>
</g>
</g>
<!-- Node2&#45;&gt;Node6 -->
<g id="edge5" class="edge">
<title>Node2&#45;&gt;Node6</title>
<path fill="none" stroke="midnightblue" d="M327.77,-112.44C298.07,-103.28 250.78,-88.69 217.83,-78.52"/>
<polygon fill="midnightblue" stroke="midnightblue" points="218.69,-75.12 208.1,-75.52 216.62,-81.81 218.69,-75.12"/>
</g>
<!-- Node2&#45;&gt;Node7 -->
<g id="edge6" class="edge">
<title>Node2&#45;&gt;Node7</title>
<path fill="none" stroke="midnightblue" d="M395.63,-113.21C444.08,-103.79 525.76,-87.93 579.66,-77.46"/>
<polygon fill="midnightblue" stroke="midnightblue" points="580.57,-80.85 589.72,-75.5 579.23,-73.98 580.57,-80.85"/>
</g>
<!-- Node8 -->
<g id="node8" class="node">
<title>Node8</title>
<g id="a_node8"><a xlink:title=" ">
<polygon fill="none" stroke="#bfbfbf" points="258,-56.5 258,-75.5 357,-75.5 357,-56.5 258,-56.5"/>
<text text-anchor="middle" x="307.5" y="-63.5" font-family="Helvetica,sans-Serif" font-size="10.00">clang/AST/Type.h</text>
</a>
</g>
</g>
<!-- Node2&#45;&gt;Node8 -->
<g id="edge7" class="edge">
<title>Node2&#45;&gt;Node8</title>
<path fill="none" stroke="midnightblue" d="M347.57,-112.08C340.65,-104.3 330.43,-92.8 322.05,-83.37"/>
<polygon fill="midnightblue" stroke="midnightblue" points="324.54,-80.9 315.28,-75.75 319.31,-85.55 324.54,-80.9"/>
</g>
<!-- Node9 -->
<g id="node9" class="node">
<title>Node9</title>
<g id="a_node9"><a xlink:href="Param_8hpp.html" target="_top" xlink:title=" ">
<polygon fill="none" stroke="black" points="449.5,-56.5 449.5,-75.5 517.5,-75.5 517.5,-56.5 449.5,-56.5"/>
<text text-anchor="middle" x="483.5" y="-63.5" font-family="Helvetica,sans-Serif" font-size="10.00">Param.hpp</text>
</a>
</g>
</g>
<!-- Node2&#45;&gt;Node9 -->
<g id="edge8" class="edge">
<title>Node2&#45;&gt;Node9</title>
<path fill="none" stroke="midnightblue" d="M375.78,-112.44C396.85,-103.56 430.02,-89.56 453.99,-79.45"/>
<polygon fill="midnightblue" stroke="midnightblue" points="455.46,-82.63 463.31,-75.52 452.74,-76.18 455.46,-82.63"/>
</g>
<!-- Node9&#45;&gt;Node4 -->
<g id="edge10" class="edge">
<title>Node9&#45;&gt;Node4</title>
<path fill="none" stroke="midnightblue" d="M498.28,-56.32C512.77,-47.82 535.07,-34.73 551.99,-24.8"/>
<polygon fill="midnightblue" stroke="midnightblue" points="553.9,-27.74 560.76,-19.65 550.36,-21.7 553.9,-27.74"/>
</g>
<!-- Node9&#45;&gt;Node10 -->
<g id="edge9" class="edge">
<title>Node9&#45;&gt;Node10</title>
<path fill="none" stroke="midnightblue" d="M449.29,-57.5C446.33,-56.95 443.36,-56.44 440.5,-56 282.46,-31.59 241.01,-41.16 82.5,-20 77.45,-19.33 72.14,-18.54 66.91,-17.72"/>
<polygon fill="midnightblue" stroke="midnightblue" points="67.47,-14.26 57.03,-16.11 66.34,-21.17 67.47,-14.26"/>
</g>
<!-- Node9&#45;&gt;Node11 -->
<g id="edge11" class="edge">
<title>Node9&#45;&gt;Node11</title>
<path fill="none" stroke="midnightblue" d="M449.27,-57.65C446.31,-57.07 443.35,-56.51 440.5,-56 395.51,-47.92 273.6,-30.11 199.77,-19.48"/>
<polygon fill="midnightblue" stroke="midnightblue" points="200.08,-15.99 189.68,-18.03 199.08,-22.92 200.08,-15.99"/>
</g>
<!-- Node12 -->
<g id="node12" class="node">
<title>Node12</title>
<g id="a_node12"><a xlink:title=" ">
<polygon fill="none" stroke="#bfbfbf" points="371.5,-0.5 371.5,-19.5 535.5,-19.5 535.5,-0.5 371.5,-0.5"/>
<text text-anchor="middle" x="453.5" y="-7.5" font-family="Helvetica,sans-Serif" font-size="10.00">clang/AST/DependenceFlags.h</text>
</a>
</g>
</g>
<!-- Node9&#45;&gt;Node12 -->
<g id="edge12" class="edge">
<title>Node9&#45;&gt;Node12</title>
<path fill="none" stroke="midnightblue" d="M478.55,-56.08C474.4,-48.61 468.35,-37.72 463.23,-28.52"/>
<polygon fill="midnightblue" stroke="midnightblue" points="466.28,-26.79 458.36,-19.75 460.16,-30.19 466.28,-26.79"/>
</g>
<!-- Node13 -->
<g id="node13" class="node">
<title>Node13</title>
<g id="a_node13"><a xlink:title=" ">
<polygon fill="none" stroke="#bfbfbf" points="216,-0.5 216,-19.5 353,-19.5 353,-0.5 216,-0.5"/>
<text text-anchor="middle" x="284.5" y="-7.5" font-family="Helvetica,sans-Serif" font-size="10.00">clang/AST/PrettyPrinter.h</text>
</a>
</g>
</g>
<!-- Node9&#45;&gt;Node13 -->
<g id="edge13" class="edge">
<title>Node9&#45;&gt;Node13</title>
<path fill="none" stroke="midnightblue" d="M451.97,-56.44C417.91,-47.2 363.49,-32.44 325.98,-22.26"/>
<polygon fill="midnightblue" stroke="midnightblue" points="326.45,-18.76 315.88,-19.52 324.62,-25.51 326.45,-18.76"/>
</g>
</g>
</svg>
