<?xml version="1.0" encoding="UTF-8" standalone="no"?>
<!DOCTYPE svg PUBLIC "-//W3C//DTD SVG 1.1//EN"
 "http://www.w3.org/Graphics/SVG/1.1/DTD/svg11.dtd">
<!-- Generated by graphviz version 2.43.0 (0)
 -->
<!-- Title: src/Callbacks/InjectInstantiation.cpp Pages: 1 -->
<svg width="1205pt" height="274pt"
 viewBox="0.00 0.00 1205.00 274.00" xmlns="http://www.w3.org/2000/svg" xmlns:xlink="http://www.w3.org/1999/xlink">
<g id="graph0" class="graph" transform="scale(1 1) rotate(0) translate(4 270)">
<title>src/Callbacks/InjectInstantiation.cpp</title>
<!-- Node1 -->
<g id="node1" class="node">
<title>Node1</title>
<g id="a_node1"><a xlink:title=" ">
<polygon fill="#bfbfbf" stroke="black" points="478,-246.5 478,-265.5 671,-265.5 671,-246.5 478,-246.5"/>
<text text-anchor="middle" x="574.5" y="-253.5" font-family="Helvetica,sans-Serif" font-size="10.00">src/Callbacks/InjectInstantiation.cpp</text>
</a>
</g>
</g>
<!-- Node2 -->
<g id="node2" class="node">
<title>Node2</title>
<g id="a_node2"><a xlink:title=" ">
<polygon fill="none" stroke="#bfbfbf" points="1.5,-185 1.5,-204 61.5,-204 61.5,-185 1.5,-185"/>
<text text-anchor="middle" x="31.5" y="-192" font-family="Helvetica,sans-Serif" font-size="10.00">iostream</text>
</a>
</g>
</g>
<!-- Node1&#45;&gt;Node2 -->
<g id="edge1" class="edge">
<title>Node1&#45;&gt;Node2</title>
<path fill="none" stroke="midnightblue" d="M477.64,-253.98C375.28,-251.14 209.73,-241.5 70.5,-210 67.43,-209.31 64.27,-208.43 61.15,-207.45"/>
<polygon fill="midnightblue" stroke="midnightblue" points="62.02,-204.05 51.43,-204.07 59.73,-210.66 62.02,-204.05"/>
</g>
<!-- Node3 -->
<g id="node3" class="node">
<title>Node3</title>
<g id="a_node3"><a xlink:title=" ">
<polygon fill="none" stroke="#bfbfbf" points="79.5,-185 79.5,-204 213.5,-204 213.5,-185 79.5,-185"/>
<text text-anchor="middle" x="146.5" y="-192" font-family="Helvetica,sans-Serif" font-size="10.00">termcolor/termcolor.hpp</text>
</a>
</g>
</g>
<!-- Node1&#45;&gt;Node3 -->
<g id="edge2" class="edge">
<title>Node1&#45;&gt;Node3</title>
<path fill="none" stroke="midnightblue" d="M497.05,-246.48C425.6,-238.3 316.65,-224.99 222.5,-210 214.76,-208.77 206.6,-207.34 198.61,-205.88"/>
<polygon fill="midnightblue" stroke="midnightblue" points="199.1,-202.41 188.63,-204.01 197.82,-209.29 199.1,-202.41"/>
</g>
<!-- Node4 -->
<g id="node4" class="node">
<title>Node4</title>
<g id="a_node4"><a xlink:href="InjectInstantiation_8hpp.html" target="_top" xlink:title=" ">
<polygon fill="none" stroke="black" points="231.5,-185 231.5,-204 407.5,-204 407.5,-185 231.5,-185"/>
<text text-anchor="middle" x="319.5" y="-192" font-family="Helvetica,sans-Serif" font-size="10.00">Callbacks/InjectInstantiation.hpp</text>
</a>
</g>
</g>
<!-- Node1&#45;&gt;Node4 -->
<g id="edge3" class="edge">
<title>Node1&#45;&gt;Node4</title>
<path fill="none" stroke="midnightblue" d="M537.96,-246.48C492.61,-235.89 415.22,-217.84 365.77,-206.3"/>
<polygon fill="midnightblue" stroke="midnightblue" points="366.5,-202.87 355.97,-204.01 364.91,-209.69 366.5,-202.87"/>
</g>
<!-- Node7 -->
<g id="node7" class="node">
<title>Node7</title>
<g id="a_node7"><a xlink:href="Injection_8hpp.html" target="_top" xlink:title=" ">
<polygon fill="none" stroke="black" points="275.5,-118 275.5,-137 355.5,-137 355.5,-118 275.5,-118"/>
<text text-anchor="middle" x="315.5" y="-125" font-family="Helvetica,sans-Serif" font-size="10.00">Injection.hpp</text>
</a>
</g>
</g>
<!-- Node1&#45;&gt;Node7 -->
<g id="edge26" class="edge">
<title>Node1&#45;&gt;Node7</title>
<path fill="none" stroke="midnightblue" d="M556.7,-246.31C512.05,-224.5 395.1,-167.38 342.19,-141.53"/>
<polygon fill="midnightblue" stroke="midnightblue" points="343.61,-138.33 333.08,-137.09 340.53,-144.62 343.61,-138.33"/>
</g>
<!-- Node10 -->
<g id="node10" class="node">
<title>Node10</title>
<g id="a_node10"><a xlink:title=" ">
<polygon fill="none" stroke="#bfbfbf" points="381.5,-56.5 381.5,-75.5 499.5,-75.5 499.5,-56.5 381.5,-56.5"/>
<text text-anchor="middle" x="440.5" y="-63.5" font-family="Helvetica,sans-Serif" font-size="10.00">llvm/ADT/StringRef.h</text>
</a>
</g>
</g>
<!-- Node1&#45;&gt;Node10 -->
<g id="edge20" class="edge">
<title>Node1&#45;&gt;Node10</title>
<path fill="none" stroke="midnightblue" d="M568.39,-246.43C547.73,-217.44 480.16,-122.64 452.48,-83.81"/>
<polygon fill="midnightblue" stroke="midnightblue" points="455.3,-81.73 446.64,-75.62 449.6,-85.79 455.3,-81.73"/>
</g>
<!-- Node11 -->
<g id="node11" class="node">
<title>Node11</title>
<g id="a_node11"><a xlink:title=" ">
<polygon fill="none" stroke="#bfbfbf" points="518,-56.5 518,-75.5 637,-75.5 637,-56.5 518,-56.5"/>
<text text-anchor="middle" x="577.5" y="-63.5" font-family="Helvetica,sans-Serif" font-size="10.00">clang/AST/DeclCXX.h</text>
</a>
</g>
</g>
<!-- Node1&#45;&gt;Node11 -->
<g id="edge22" class="edge">
<title>Node1&#45;&gt;Node11</title>
<path fill="none" stroke="midnightblue" d="M574.64,-246.43C575.09,-217.93 576.56,-125.82 577.2,-85.83"/>
<polygon fill="midnightblue" stroke="midnightblue" points="580.7,-85.67 577.36,-75.62 573.7,-85.56 580.7,-85.67"/>
</g>
<!-- Node15 -->
<g id="node15" class="node">
<title>Node15</title>
<g id="a_node15"><a xlink:title=" ">
<polygon fill="none" stroke="#bfbfbf" points="606.5,-0.5 606.5,-19.5 704.5,-19.5 704.5,-0.5 606.5,-0.5"/>
<text text-anchor="middle" x="655.5" y="-7.5" font-family="Helvetica,sans-Serif" font-size="10.00">clang/AST/Decl.h</text>
</a>
</g>
</g>
<!-- Node1&#45;&gt;Node15 -->
<g id="edge21" class="edge">
<title>Node1&#45;&gt;Node15</title>
<path fill="none" stroke="midnightblue" d="M578.89,-246.32C591.55,-220.88 628.42,-143.98 646.5,-76 650.58,-60.67 652.88,-42.79 654.14,-29.67"/>
<polygon fill="midnightblue" stroke="midnightblue" points="657.64,-29.8 654.99,-19.55 650.66,-29.22 657.64,-29.8"/>
</g>
<!-- Node18 -->
<g id="node18" class="node">
<title>Node18</title>
<g id="a_node18"><a xlink:title=" ">
<polygon fill="none" stroke="#bfbfbf" points="641,-185 641,-204 740,-204 740,-185 641,-185"/>
<text text-anchor="middle" x="690.5" y="-192" font-family="Helvetica,sans-Serif" font-size="10.00">llvm/ADT/APInt.h</text>
</a>
</g>
</g>
<!-- Node1&#45;&gt;Node18 -->
<g id="edge19" class="edge">
<title>Node1&#45;&gt;Node18</title>
<path fill="none" stroke="midnightblue" d="M591.12,-246.48C610.42,-236.58 642.46,-220.14 664.93,-208.62"/>
<polygon fill="midnightblue" stroke="midnightblue" points="666.61,-211.69 673.91,-204.01 663.42,-205.46 666.61,-211.69"/>
</g>
<!-- Node19 -->
<g id="node19" class="node">
<title>Node19</title>
<g id="a_node19"><a xlink:title=" ">
<polygon fill="none" stroke="#bfbfbf" points="758,-185 758,-204 901,-204 901,-185 758,-185"/>
<text text-anchor="middle" x="829.5" y="-192" font-family="Helvetica,sans-Serif" font-size="10.00">clang/AST/DeclTemplate.h</text>
</a>
</g>
</g>
<!-- Node1&#45;&gt;Node19 -->
<g id="edge23" class="edge">
<title>Node1&#45;&gt;Node19</title>
<path fill="none" stroke="midnightblue" d="M611.04,-246.48C656.39,-235.89 733.78,-217.84 783.23,-206.3"/>
<polygon fill="midnightblue" stroke="midnightblue" points="784.09,-209.69 793.03,-204.01 782.5,-202.87 784.09,-209.69"/>
</g>
<!-- Node20 -->
<g id="node20" class="node">
<title>Node20</title>
<g id="a_node20"><a xlink:title=" ">
<polygon fill="none" stroke="#bfbfbf" points="919,-185 919,-204 1070,-204 1070,-185 919,-185"/>
<text text-anchor="middle" x="994.5" y="-192" font-family="Helvetica,sans-Serif" font-size="10.00">clang/AST/TemplateName.h</text>
</a>
</g>
</g>
<!-- Node1&#45;&gt;Node20 -->
<g id="edge24" class="edge">
<title>Node1&#45;&gt;Node20</title>
<path fill="none" stroke="midnightblue" d="M643.79,-246.5C711.8,-237.97 818.44,-224.11 910.5,-210 919.11,-208.68 928.2,-207.2 937.09,-205.71"/>
<polygon fill="midnightblue" stroke="midnightblue" points="937.75,-209.15 947.02,-204.02 936.57,-202.25 937.75,-209.15"/>
</g>
<!-- Node21 -->
<g id="node21" class="node">
<title>Node21</title>
<g id="a_node21"><a xlink:title=" ">
<polygon fill="none" stroke="#bfbfbf" points="1088,-179.5 1088,-209.5 1197,-209.5 1197,-179.5 1088,-179.5"/>
<text text-anchor="start" x="1096" y="-197.5" font-family="Helvetica,sans-Serif" font-size="10.00">clang/Rewrite/Core</text>
<text text-anchor="middle" x="1142.5" y="-186.5" font-family="Helvetica,sans-Serif" font-size="10.00">/Rewriter.h</text>
</a>
</g>
</g>
<!-- Node1&#45;&gt;Node21 -->
<g id="edge25" class="edge">
<title>Node1&#45;&gt;Node21</title>
<path fill="none" stroke="midnightblue" d="M671.33,-250.33C771.05,-244.62 931.07,-232.95 1077.86,-210.13"/>
<polygon fill="midnightblue" stroke="midnightblue" points="1078.62,-213.55 1087.95,-208.54 1077.53,-206.64 1078.62,-213.55"/>
</g>
<!-- Node5 -->
<g id="node5" class="node">
<title>Node5</title>
<g id="a_node5"><a xlink:title=" ">
<polygon fill="none" stroke="#bfbfbf" points="0,-56.5 0,-75.5 47,-75.5 47,-56.5 0,-56.5"/>
<text text-anchor="middle" x="23.5" y="-63.5" font-family="Helvetica,sans-Serif" font-size="10.00">vector</text>
</a>
</g>
</g>
<!-- Node4&#45;&gt;Node5 -->
<g id="edge4" class="edge">
<title>Node4&#45;&gt;Node5</title>
<path fill="none" stroke="midnightblue" d="M272.17,-184.96C208.74,-173.24 102.24,-152.57 86.5,-143 62.77,-128.58 43.85,-101.98 33.15,-84.38"/>
<polygon fill="midnightblue" stroke="midnightblue" points="36.13,-82.55 28.07,-75.67 30.08,-86.07 36.13,-82.55"/>
</g>
<!-- Node6 -->
<g id="node6" class="node">
<title>Node6</title>
<g id="a_node6"><a xlink:title=" ">
<polygon fill="none" stroke="#bfbfbf" points="96,-112.5 96,-142.5 257,-142.5 257,-112.5 96,-112.5"/>
<text text-anchor="start" x="104" y="-130.5" font-family="Helvetica,sans-Serif" font-size="10.00">clang/ASTMatchers/ASTMatch</text>
<text text-anchor="middle" x="176.5" y="-119.5" font-family="Helvetica,sans-Serif" font-size="10.00">Finder.h</text>
</a>
</g>
</g>
<!-- Node4&#45;&gt;Node6 -->
<g id="edge5" class="edge">
<title>Node4&#45;&gt;Node6</title>
<path fill="none" stroke="midnightblue" d="M300.51,-184.87C279.24,-175.2 244.15,-159.25 216.71,-146.78"/>
<polygon fill="midnightblue" stroke="midnightblue" points="217.91,-143.48 207.36,-142.53 215.02,-149.85 217.91,-143.48"/>
</g>
<!-- Node4&#45;&gt;Node7 -->
<g id="edge6" class="edge">
<title>Node4&#45;&gt;Node7</title>
<path fill="none" stroke="midnightblue" d="M318.96,-184.73C318.37,-175.18 317.41,-159.62 316.66,-147.28"/>
<polygon fill="midnightblue" stroke="midnightblue" points="320.14,-146.89 316.03,-137.13 313.15,-147.32 320.14,-146.89"/>
</g>
<!-- Node7&#45;&gt;Node5 -->
<g id="edge9" class="edge">
<title>Node7&#45;&gt;Node5</title>
<path fill="none" stroke="midnightblue" d="M288.14,-117.97C280.82,-115.85 272.9,-113.7 265.5,-112 176.7,-91.54 150.26,-96.08 57.07,-75.93"/>
<polygon fill="midnightblue" stroke="midnightblue" points="57.74,-72.49 47.23,-73.76 56.24,-79.33 57.74,-72.49"/>
</g>
<!-- Node8 -->
<g id="node8" class="node">
<title>Node8</title>
<g id="a_node8"><a xlink:title=" ">
<polygon fill="none" stroke="#bfbfbf" points="65.5,-56.5 65.5,-75.5 121.5,-75.5 121.5,-56.5 65.5,-56.5"/>
<text text-anchor="middle" x="93.5" y="-63.5" font-family="Helvetica,sans-Serif" font-size="10.00">optional</text>
</a>
</g>
</g>
<!-- Node7&#45;&gt;Node8 -->
<g id="edge7" class="edge">
<title>Node7&#45;&gt;Node8</title>
<path fill="none" stroke="midnightblue" d="M286.45,-117.94C279.59,-115.95 272.3,-113.87 265.5,-112 219.46,-99.3 166.24,-85.52 131.34,-76.59"/>
<polygon fill="midnightblue" stroke="midnightblue" points="132.12,-73.18 121.57,-74.1 130.39,-79.96 132.12,-73.18"/>
</g>
<!-- Node9 -->
<g id="node9" class="node">
<title>Node9</title>
<g id="a_node9"><a xlink:title=" ">
<polygon fill="none" stroke="#bfbfbf" points="120.5,-0.5 120.5,-19.5 164.5,-19.5 164.5,-0.5 120.5,-0.5"/>
<text text-anchor="middle" x="142.5" y="-7.5" font-family="Helvetica,sans-Serif" font-size="10.00">string</text>
</a>
</g>
</g>
<!-- Node7&#45;&gt;Node9 -->
<g id="edge8" class="edge">
<title>Node7&#45;&gt;Node9</title>
<path fill="none" stroke="midnightblue" d="M286.31,-117.9C246.01,-105.82 177.27,-84.35 168.5,-76 155.59,-63.72 148.94,-44.18 145.61,-29.73"/>
<polygon fill="midnightblue" stroke="midnightblue" points="149.04,-29.01 143.67,-19.87 142.17,-30.36 149.04,-29.01"/>
</g>
<!-- Node7&#45;&gt;Node10 -->
<g id="edge10" class="edge">
<title>Node7&#45;&gt;Node10</title>
<path fill="none" stroke="midnightblue" d="M333.41,-117.98C354.39,-107.99 389.35,-91.35 413.59,-79.81"/>
<polygon fill="midnightblue" stroke="midnightblue" points="415.1,-82.97 422.62,-75.51 412.09,-76.65 415.1,-82.97"/>
</g>
<!-- Node7&#45;&gt;Node11 -->
<g id="edge11" class="edge">
<title>Node7&#45;&gt;Node11</title>
<path fill="none" stroke="midnightblue" d="M353.04,-117.98C399.73,-107.37 479.48,-89.26 530.28,-77.72"/>
<polygon fill="midnightblue" stroke="midnightblue" points="531.05,-81.14 540.03,-75.51 529.5,-74.31 531.05,-81.14"/>
</g>
<!-- Node12 -->
<g id="node12" class="node">
<title>Node12</title>
<g id="a_node12"><a xlink:title=" ">
<polygon fill="none" stroke="#bfbfbf" points="264,-56.5 264,-75.5 363,-75.5 363,-56.5 264,-56.5"/>
<text text-anchor="middle" x="313.5" y="-63.5" font-family="Helvetica,sans-Serif" font-size="10.00">clang/AST/Type.h</text>
</a>
</g>
</g>
<!-- Node7&#45;&gt;Node12 -->
<g id="edge12" class="edge">
<title>Node7&#45;&gt;Node12</title>
<path fill="none" stroke="midnightblue" d="M315.21,-117.98C314.93,-109.58 314.49,-96.48 314.13,-85.66"/>
<polygon fill="midnightblue" stroke="midnightblue" points="317.62,-85.39 313.79,-75.51 310.62,-85.62 317.62,-85.39"/>
</g>
<!-- Node13 -->
<g id="node13" class="node">
<title>Node13</title>
<g id="a_node13"><a xlink:href="Param_8hpp.html" target="_top" xlink:title=" ">
<polygon fill="none" stroke="black" points="177.5,-56.5 177.5,-75.5 245.5,-75.5 245.5,-56.5 177.5,-56.5"/>
<text text-anchor="middle" x="211.5" y="-63.5" font-family="Helvetica,sans-Serif" font-size="10.00">Param.hpp</text>
</a>
</g>
</g>
<!-- Node7&#45;&gt;Node13 -->
<g id="edge13" class="edge">
<title>Node7&#45;&gt;Node13</title>
<path fill="none" stroke="midnightblue" d="M300.6,-117.98C283.53,-108.21 255.34,-92.08 235.24,-80.58"/>
<polygon fill="midnightblue" stroke="midnightblue" points="236.79,-77.44 226.37,-75.51 233.31,-83.51 236.79,-77.44"/>
</g>
<!-- Node13&#45;&gt;Node9 -->
<g id="edge15" class="edge">
<title>Node13&#45;&gt;Node9</title>
<path fill="none" stroke="midnightblue" d="M200.41,-56.32C190.01,-48.18 174.24,-35.84 161.78,-26.09"/>
<polygon fill="midnightblue" stroke="midnightblue" points="163.82,-23.24 153.79,-19.83 159.51,-28.75 163.82,-23.24"/>
</g>
<!-- Node14 -->
<g id="node14" class="node">
<title>Node14</title>
<g id="a_node14"><a xlink:title=" ">
<polygon fill="none" stroke="#bfbfbf" points="183,-0.5 183,-19.5 240,-19.5 240,-0.5 183,-0.5"/>
<text text-anchor="middle" x="211.5" y="-7.5" font-family="Helvetica,sans-Serif" font-size="10.00">ostream</text>
</a>
</g>
</g>
<!-- Node13&#45;&gt;Node14 -->
<g id="edge14" class="edge">
<title>Node13&#45;&gt;Node14</title>
<path fill="none" stroke="midnightblue" d="M211.5,-56.08C211.5,-49.01 211.5,-38.86 211.5,-29.99"/>
<polygon fill="midnightblue" stroke="midnightblue" points="215,-29.75 211.5,-19.75 208,-29.75 215,-29.75"/>
</g>
<!-- Node13&#45;&gt;Node15 -->
<g id="edge16" class="edge">
<title>Node13&#45;&gt;Node15</title>
<path fill="none" stroke="midnightblue" d="M245.71,-57.52C248.68,-56.97 251.64,-56.45 254.5,-56 401.53,-32.72 439.7,-37.77 587.5,-20 590.38,-19.65 593.33,-19.29 596.31,-18.92"/>
<polygon fill="midnightblue" stroke="midnightblue" points="597.01,-22.36 606.49,-17.63 596.13,-15.41 597.01,-22.36"/>
</g>
<!-- Node16 -->
<g id="node16" class="node">
<title>Node16</title>
<g id="a_node16"><a xlink:title=" ">
<polygon fill="none" stroke="#bfbfbf" points="258.5,-0.5 258.5,-19.5 422.5,-19.5 422.5,-0.5 258.5,-0.5"/>
<text text-anchor="middle" x="340.5" y="-7.5" font-family="Helvetica,sans-Serif" font-size="10.00">clang/AST/DependenceFlags.h</text>
</a>
</g>
</g>
<!-- Node13&#45;&gt;Node16 -->
<g id="edge17" class="edge">
<title>Node13&#45;&gt;Node16</title>
<path fill="none" stroke="midnightblue" d="M231.94,-56.44C253.17,-47.56 286.6,-33.56 310.75,-23.45"/>
<polygon fill="midnightblue" stroke="midnightblue" points="312.28,-26.61 320.16,-19.52 309.58,-20.15 312.28,-26.61"/>
</g>
<!-- Node17 -->
<g id="node17" class="node">
<title>Node17</title>
<g id="a_node17"><a xlink:title=" ">
<polygon fill="none" stroke="#bfbfbf" points="441,-0.5 441,-19.5 578,-19.5 578,-0.5 441,-0.5"/>
<text text-anchor="middle" x="509.5" y="-7.5" font-family="Helvetica,sans-Serif" font-size="10.00">clang/AST/PrettyPrinter.h</text>
</a>
</g>
</g>
<!-- Node13&#45;&gt;Node17 -->
<g id="edge18" class="edge">
<title>Node13&#45;&gt;Node17</title>
<path fill="none" stroke="midnightblue" d="M245.75,-57.73C248.71,-57.13 251.65,-56.55 254.5,-56 320.51,-43.27 396.4,-30.06 448.12,-21.27"/>
<polygon fill="midnightblue" stroke="midnightblue" points="448.85,-24.7 458.13,-19.57 447.68,-17.8 448.85,-24.7"/>
</g>
</g>
</svg>
