<?xml version="1.0" encoding="UTF-8" standalone="no"?>
<!DOCTYPE svg PUBLIC "-//W3C//DTD SVG 1.1//EN"
 "http://www.w3.org/Graphics/SVG/1.1/DTD/svg11.dtd">
<!-- Generated by graphviz version 2.43.0 (0)
 -->
<!-- Title: include/Injection.hpp Pages: 1 -->
<svg width="700pt" height="137pt"
 viewBox="0.00 0.00 699.50 137.00" xmlns="http://www.w3.org/2000/svg" xmlns:xlink="http://www.w3.org/1999/xlink">
<g id="graph0" class="graph" transform="scale(1 1) rotate(0) translate(4 133)">
<title>include/Injection.hpp</title>
<!-- Node1 -->
<g id="Node000001" class="node">
<title>Node1</title>
<g id="a_Node000001"><a xlink:title=" ">
<polygon fill="#999999" stroke="#666666" points="350,-129 232,-129 232,-110 350,-110 350,-129"/>
<text text-anchor="middle" x="291" y="-117" font-family="Helvetica,sans-Serif" font-size="10.00">include/Injection.hpp</text>
</a>
</g>
</g>
<!-- Node2 -->
<g id="Node000002" class="node">
<title>Node2</title>
<g id="a_Node000002"><a xlink:title=" ">
<polygon fill="#e0e0e0" stroke="#999999" points="44,-19 0,-19 0,0 44,0 44,-19"/>
<text text-anchor="middle" x="22" y="-7" font-family="Helvetica,sans-Serif" font-size="10.00">string</text>
</a>
</g>
</g>
<!-- Node1&#45;&gt;Node2 -->
<g id="edge1_Node000001_Node000002" class="edge">
<title>Node1&#45;&gt;Node2</title>
<g id="a_edge1_Node000001_Node000002"><a xlink:title=" ">
<path fill="none" stroke="#63b8ff" d="M250.47,-109.98C217.99,-102.47 171.63,-90.2 133,-74 100.22,-60.25 65.02,-38.86 43.25,-24.76"/>
<polygon fill="#63b8ff" stroke="#63b8ff" points="45.07,-21.77 34.79,-19.21 41.23,-27.62 45.07,-21.77"/>
</a>
</g>
</g>
<!-- Node3 -->
<g id="Node000003" class="node">
<title>Node3</title>
<g id="a_Node000003"><a xlink:title=" ">
<polygon fill="#e0e0e0" stroke="#999999" points="340.5,-74 293.5,-74 293.5,-55 340.5,-55 340.5,-74"/>
<text text-anchor="middle" x="317" y="-62" font-family="Helvetica,sans-Serif" font-size="10.00">vector</text>
</a>
</g>
</g>
<!-- Node1&#45;&gt;Node3 -->
<g id="edge2_Node000001_Node000003" class="edge">
<title>Node1&#45;&gt;Node3</title>
<g id="a_edge2_Node000001_Node000003"><a xlink:title=" ">
<path fill="none" stroke="#63b8ff" d="M295.29,-109.75C298.81,-102.57 303.91,-92.18 308.28,-83.27"/>
<polygon fill="#63b8ff" stroke="#63b8ff" points="311.52,-84.61 312.79,-74.09 305.24,-81.53 311.52,-84.61"/>
</a>
</g>
</g>
<!-- Node4 -->
<g id="Node000004" class="node">
<title>Node4</title>
<g id="a_Node000004"><a xlink:title=" ">
<polygon fill="#e0e0e0" stroke="#999999" points="131.5,-19 62.5,-19 62.5,0 131.5,0 131.5,-19"/>
<text text-anchor="middle" x="97" y="-7" font-family="Helvetica,sans-Serif" font-size="10.00">fmt/color.h</text>
</a>
</g>
</g>
<!-- Node1&#45;&gt;Node4 -->
<g id="edge3_Node000001_Node000004" class="edge">
<title>Node1&#45;&gt;Node4</title>
<g id="a_edge3_Node000001_Node000004"><a xlink:title=" ">
<path fill="none" stroke="#63b8ff" d="M250.78,-109.97C223.72,-103.04 188.01,-91.5 160,-74 139.93,-61.46 121.43,-41.35 109.75,-27.13"/>
<polygon fill="#63b8ff" stroke="#63b8ff" points="112.36,-24.79 103.4,-19.15 106.89,-29.15 112.36,-24.79"/>
</a>
</g>
</g>
<!-- Node5 -->
<g id="Node000005" class="node">
<title>Node5</title>
<g id="a_Node000005"><a xlink:title=" ">
<polygon fill="#e0e0e0" stroke="#999999" points="488.5,-19 421.5,-19 421.5,0 488.5,0 488.5,-19"/>
<text text-anchor="middle" x="455" y="-7" font-family="Helvetica,sans-Serif" font-size="10.00">fmt/core.h</text>
</a>
</g>
</g>
<!-- Node1&#45;&gt;Node5 -->
<g id="edge4_Node000001_Node000005" class="edge">
<title>Node1&#45;&gt;Node5</title>
<g id="a_edge4_Node000001_Node000005"><a xlink:title=" ">
<path fill="none" stroke="#63b8ff" d="M286.7,-109.65C280.91,-96.32 272.69,-70.95 285,-55 288.96,-49.87 362.46,-31.97 411.5,-20.49"/>
<polygon fill="#63b8ff" stroke="#63b8ff" points="412.32,-23.9 421.26,-18.22 410.73,-17.08 412.32,-23.9"/>
</a>
</g>
</g>
<!-- Node6 -->
<g id="Node000006" class="node">
<title>Node6</title>
<g id="a_Node000006"><a xlink:title=" ">
<polygon fill="#e0e0e0" stroke="#999999" points="437.5,-74 358.5,-74 358.5,-55 437.5,-55 437.5,-74"/>
<text text-anchor="middle" x="398" y="-62" font-family="Helvetica,sans-Serif" font-size="10.00">fmt/ranges.h</text>
</a>
</g>
</g>
<!-- Node1&#45;&gt;Node6 -->
<g id="edge5_Node000001_Node000006" class="edge">
<title>Node1&#45;&gt;Node6</title>
<g id="a_edge5_Node000001_Node000006"><a xlink:title=" ">
<path fill="none" stroke="#63b8ff" d="M308.19,-109.98C325.25,-101.54 351.63,-88.47 371.4,-78.68"/>
<polygon fill="#63b8ff" stroke="#63b8ff" points="373.09,-81.75 380.5,-74.17 369.98,-75.47 373.09,-81.75"/>
</a>
</g>
</g>
<!-- Node7 -->
<g id="Node000007" class="node">
<title>Node7</title>
<g id="a_Node000007"><a xlink:title=" ">
<polygon fill="#e0e0e0" stroke="#999999" points="574.5,-74 455.5,-74 455.5,-55 574.5,-55 574.5,-74"/>
<text text-anchor="middle" x="515" y="-62" font-family="Helvetica,sans-Serif" font-size="10.00">clang/AST/DeclCXX.h</text>
</a>
</g>
</g>
<!-- Node1&#45;&gt;Node7 -->
<g id="edge6_Node000001_Node000007" class="edge">
<title>Node1&#45;&gt;Node7</title>
<g id="a_edge6_Node000001_Node000007"><a xlink:title=" ">
<path fill="none" stroke="#63b8ff" d="M326.99,-109.98C365.49,-100.87 426.69,-86.4 468.74,-76.45"/>
<polygon fill="#63b8ff" stroke="#63b8ff" points="469.8,-79.79 478.73,-74.08 468.19,-72.98 469.8,-79.79"/>
</a>
</g>
</g>
<!-- Node8 -->
<g id="Node000008" class="node">
<title>Node8</title>
<g id="a_Node000008"><a xlink:title=" ">
<polygon fill="#e0e0e0" stroke="#999999" points="691.5,-74 592.5,-74 592.5,-55 691.5,-55 691.5,-74"/>
<text text-anchor="middle" x="642" y="-62" font-family="Helvetica,sans-Serif" font-size="10.00">clang/AST/Type.h</text>
</a>
</g>
</g>
<!-- Node1&#45;&gt;Node8 -->
<g id="edge7_Node000001_Node000008" class="edge">
<title>Node1&#45;&gt;Node8</title>
<g id="a_edge7_Node000001_Node000008"><a xlink:title=" ">
<path fill="none" stroke="#63b8ff" d="M347.39,-109.98C411.68,-100.28 516.35,-84.47 582.07,-74.55"/>
<polygon fill="#63b8ff" stroke="#63b8ff" points="582.91,-77.96 592.28,-73.01 581.87,-71.04 582.91,-77.96"/>
</a>
</g>
</g>
<!-- Node9 -->
<g id="Node000009" class="node">
<title>Node9</title>
<g id="a_Node000009"><a xlink:href="Param_8hpp.html" target="_top" xlink:title=" ">
<polygon fill="white" stroke="#666666" points="237,-74 169,-74 169,-55 237,-55 237,-74"/>
<text text-anchor="middle" x="203" y="-62" font-family="Helvetica,sans-Serif" font-size="10.00">Param.hpp</text>
</a>
</g>
</g>
<!-- Node1&#45;&gt;Node9 -->
<g id="edge8_Node000001_Node000009" class="edge">
<title>Node1&#45;&gt;Node9</title>
<g id="a_edge8_Node000001_Node000009"><a xlink:title=" ">
<path fill="none" stroke="#63b8ff" d="M276.86,-109.98C263.21,-101.77 242.31,-89.18 226.22,-79.49"/>
<polygon fill="#63b8ff" stroke="#63b8ff" points="227.77,-76.33 217.4,-74.17 224.16,-82.33 227.77,-76.33"/>
</a>
</g>
</g>
<!-- Node9&#45;&gt;Node2 -->
<g id="edge9_Node000009_Node000002" class="edge">
<title>Node9&#45;&gt;Node2</title>
<g id="a_edge9_Node000009_Node000002"><a xlink:title=" ">
<path fill="none" stroke="#63b8ff" d="M173.92,-54.98C141.14,-45.39 87.99,-29.82 54.04,-19.88"/>
<polygon fill="#63b8ff" stroke="#63b8ff" points="54.74,-16.44 44.16,-16.99 52.78,-23.16 54.74,-16.44"/>
</a>
</g>
</g>
<!-- Node9&#45;&gt;Node4 -->
<g id="edge10_Node000009_Node000004" class="edge">
<title>Node9&#45;&gt;Node4</title>
<g id="a_edge10_Node000009_Node000004"><a xlink:title=" ">
<path fill="none" stroke="#63b8ff" d="M185.97,-54.98C169.07,-46.54 142.94,-33.47 123.36,-23.68"/>
<polygon fill="#63b8ff" stroke="#63b8ff" points="124.85,-20.51 114.34,-19.17 121.72,-26.77 124.85,-20.51"/>
</a>
</g>
</g>
<!-- Node9&#45;&gt;Node5 -->
<g id="edge11_Node000009_Node000005" class="edge">
<title>Node9&#45;&gt;Node5</title>
<g id="a_edge11_Node000009_Node000005"><a xlink:title=" ">
<path fill="none" stroke="#63b8ff" d="M237.25,-56.3C282.35,-46.81 361.71,-30.12 411.16,-19.72"/>
<polygon fill="#63b8ff" stroke="#63b8ff" points="412.16,-23.09 421.23,-17.6 410.72,-16.24 412.16,-23.09"/>
</a>
</g>
</g>
<!-- Node10 -->
<g id="Node000010" class="node">
<title>Node10</title>
<g id="a_Node000010"><a xlink:title=" ">
<polygon fill="#e0e0e0" stroke="#999999" points="403,-19 305,-19 305,0 403,0 403,-19"/>
<text text-anchor="middle" x="354" y="-7" font-family="Helvetica,sans-Serif" font-size="10.00">clang/AST/Decl.h</text>
</a>
</g>
</g>
<!-- Node9&#45;&gt;Node10 -->
<g id="edge12_Node000009_Node000010" class="edge">
<title>Node9&#45;&gt;Node10</title>
<g id="a_edge12_Node000009_Node000010"><a xlink:title=" ">
<path fill="none" stroke="#63b8ff" d="M227.26,-54.98C252.32,-46.19 291.63,-32.39 319.83,-22.49"/>
<polygon fill="#63b8ff" stroke="#63b8ff" points="321.02,-25.78 329.3,-19.17 318.7,-19.18 321.02,-25.78"/>
</a>
</g>
</g>
<!-- Node11 -->
<g id="Node000011" class="node">
<title>Node11</title>
<g id="a_Node000011"><a xlink:title=" ">
<polygon fill="#e0e0e0" stroke="#999999" points="286.5,-19 149.5,-19 149.5,0 286.5,0 286.5,-19"/>
<text text-anchor="middle" x="218" y="-7" font-family="Helvetica,sans-Serif" font-size="10.00">clang/AST/PrettyPrinter.h</text>
</a>
</g>
</g>
<!-- Node9&#45;&gt;Node11 -->
<g id="edge13_Node000009_Node000011" class="edge">
<title>Node9&#45;&gt;Node11</title>
<g id="a_edge13_Node000009_Node000011"><a xlink:title=" ">
<path fill="none" stroke="#63b8ff" d="M205.48,-54.75C207.46,-47.72 210.32,-37.62 212.81,-28.84"/>
<polygon fill="#63b8ff" stroke="#63b8ff" points="216.21,-29.66 215.57,-19.09 209.48,-27.76 216.21,-29.66"/>
</a>
</g>
</g>
</g>
</svg>
