<?xml version="1.0" encoding="UTF-8" standalone="no"?>
<!DOCTYPE svg PUBLIC "-//W3C//DTD SVG 1.1//EN"
 "http://www.w3.org/Graphics/SVG/1.1/DTD/svg11.dtd">
<!-- Generated by graphviz version 2.43.0 (0)
 -->
<!-- Title: include/Injection.hpp Pages: 1 -->
<svg width="754pt" height="151pt"
 viewBox="0.00 0.00 754.00 151.00" xmlns="http://www.w3.org/2000/svg" xmlns:xlink="http://www.w3.org/1999/xlink">
<g id="graph0" class="graph" transform="scale(1 1) rotate(0) translate(4 147)">
<title>include/Injection.hpp</title>
<!-- Node1 -->
<g id="node1" class="node">
<title>Node1</title>
<g id="a_node1"><a xlink:title=" ">
<polygon fill="#bfbfbf" stroke="black" points="366,-123.5 366,-142.5 484,-142.5 484,-123.5 366,-123.5"/>
<text text-anchor="middle" x="425" y="-130.5" font-family="Helvetica,sans-Serif" font-size="10.00">include/Injection.hpp</text>
</a>
</g>
</g>
<!-- Node2 -->
<g id="node2" class="node">
<title>Node2</title>
<g id="a_node2"><a xlink:href="Instantiator_8cpp.html" target="_top" xlink:title=" ">
<polygon fill="none" stroke="black" points="0,-0.5 0,-19.5 92,-19.5 92,-0.5 0,-0.5"/>
<text text-anchor="middle" x="46" y="-7.5" font-family="Helvetica,sans-Serif" font-size="10.00">Instantiator.cpp</text>
</a>
</g>
</g>
<!-- Node1&#45;&gt;Node2 -->
<g id="edge1" class="edge">
<title>Node1&#45;&gt;Node2</title>
<path fill="none" stroke="midnightblue" d="M355.66,-132.97C261.53,-132.74 100.29,-126.39 59,-87 40.4,-69.26 42.39,-35.38 44.54,-19.55"/>
<polygon fill="midnightblue" stroke="midnightblue" points="355.67,-136.47 365.67,-132.97 355.67,-129.47 355.67,-136.47"/>
</g>
<!-- Node3 -->
<g id="node3" class="node">
<title>Node3</title>
<g id="a_node3"><a xlink:href="GetNeededInstantiations_8hpp.html" target="_top" xlink:title=" ">
<polygon fill="none" stroke="black" points="68,-56.5 68,-86.5 228,-86.5 228,-56.5 68,-56.5"/>
<text text-anchor="start" x="76" y="-74.5" font-family="Helvetica,sans-Serif" font-size="10.00">include/Callbacks/GetNeeded</text>
<text text-anchor="middle" x="148" y="-63.5" font-family="Helvetica,sans-Serif" font-size="10.00">Instantiations.hpp</text>
</a>
</g>
</g>
<!-- Node1&#45;&gt;Node3 -->
<g id="edge2" class="edge">
<title>Node1&#45;&gt;Node3</title>
<path fill="none" stroke="midnightblue" d="M375.43,-121.35C330.16,-111.63 262.92,-97.18 213.28,-86.52"/>
<polygon fill="midnightblue" stroke="midnightblue" points="374.8,-124.8 385.31,-123.48 376.27,-117.95 374.8,-124.8"/>
</g>
<!-- Node4 -->
<g id="node4" class="node">
<title>Node4</title>
<g id="a_node4"><a xlink:href="GetNeededInstantiations_8cpp.html" target="_top" xlink:title=" ">
<polygon fill="none" stroke="black" points="110,-0.5 110,-19.5 336,-19.5 336,-0.5 110,-0.5"/>
<text text-anchor="middle" x="223" y="-7.5" font-family="Helvetica,sans-Serif" font-size="10.00">src/Callbacks/GetNeededInstantiations.cpp</text>
</a>
</g>
</g>
<!-- Node1&#45;&gt;Node4 -->
<g id="edge11" class="edge">
<title>Node1&#45;&gt;Node4</title>
<path fill="none" stroke="midnightblue" d="M420.43,-113.45C415.2,-96.11 404.96,-70.74 387,-56 363.73,-36.89 332.96,-25.86 304.37,-19.51"/>
<polygon fill="midnightblue" stroke="midnightblue" points="417.16,-114.77 423.17,-123.5 423.91,-112.93 417.16,-114.77"/>
</g>
<!-- Node5 -->
<g id="node5" class="node">
<title>Node5</title>
<g id="a_node5"><a xlink:href="InjectInstantiation_8hpp.html" target="_top" xlink:title=" ">
<polygon fill="none" stroke="black" points="246,-56.5 246,-86.5 378,-86.5 378,-56.5 246,-56.5"/>
<text text-anchor="start" x="254" y="-74.5" font-family="Helvetica,sans-Serif" font-size="10.00">include/Callbacks/Inject</text>
<text text-anchor="middle" x="312" y="-63.5" font-family="Helvetica,sans-Serif" font-size="10.00">Instantiation.hpp</text>
</a>
</g>
</g>
<!-- Node1&#45;&gt;Node5 -->
<g id="edge5" class="edge">
<title>Node1&#45;&gt;Node5</title>
<path fill="none" stroke="midnightblue" d="M399.94,-118.81C381.75,-109.23 357.18,-96.29 338.63,-86.52"/>
<polygon fill="midnightblue" stroke="midnightblue" points="398.33,-121.91 408.81,-123.48 401.59,-115.72 398.33,-121.91"/>
</g>
<!-- Node6 -->
<g id="node6" class="node">
<title>Node6</title>
<g id="a_node6"><a xlink:href="InjectInstantiation_8cpp.html" target="_top" xlink:title=" ">
<polygon fill="none" stroke="black" points="354.5,-0.5 354.5,-19.5 547.5,-19.5 547.5,-0.5 354.5,-0.5"/>
<text text-anchor="middle" x="451" y="-7.5" font-family="Helvetica,sans-Serif" font-size="10.00">src/Callbacks/InjectInstantiation.cpp</text>
</a>
</g>
</g>
<!-- Node1&#45;&gt;Node6 -->
<g id="edge12" class="edge">
<title>Node1&#45;&gt;Node6</title>
<path fill="none" stroke="midnightblue" d="M429.01,-113.35C434.72,-86.77 444.97,-39.08 449.15,-19.62"/>
<polygon fill="midnightblue" stroke="midnightblue" points="425.55,-112.79 426.87,-123.3 432.39,-114.26 425.55,-112.79"/>
</g>
<!-- Node7 -->
<g id="node7" class="node">
<title>Node7</title>
<g id="a_node7"><a xlink:href="Template_8hpp.html" target="_top" xlink:title=" ">
<polygon fill="none" stroke="black" points="472.5,-62 472.5,-81 593.5,-81 593.5,-62 472.5,-62"/>
<text text-anchor="middle" x="533" y="-69" font-family="Helvetica,sans-Serif" font-size="10.00">include/Template.hpp</text>
</a>
</g>
</g>
<!-- Node1&#45;&gt;Node7 -->
<g id="edge8" class="edge">
<title>Node1&#45;&gt;Node7</title>
<path fill="none" stroke="midnightblue" d="M449.4,-118.56C470.3,-107.04 499.76,-90.81 517.55,-81.01"/>
<polygon fill="midnightblue" stroke="midnightblue" points="447.54,-115.58 440.47,-123.48 450.92,-121.72 447.54,-115.58"/>
</g>
<!-- Node8 -->
<g id="node8" class="node">
<title>Node8</title>
<g id="a_node8"><a xlink:href="Template_8cpp.html" target="_top" xlink:title=" ">
<polygon fill="none" stroke="black" points="568.5,-0.5 568.5,-19.5 667.5,-19.5 667.5,-0.5 568.5,-0.5"/>
<text text-anchor="middle" x="618" y="-7.5" font-family="Helvetica,sans-Serif" font-size="10.00">src/Template.cpp</text>
</a>
</g>
</g>
<!-- Node1&#45;&gt;Node8 -->
<g id="edge14" class="edge">
<title>Node1&#45;&gt;Node8</title>
<path fill="none" stroke="midnightblue" d="M494.15,-122.08C537.11,-114.51 586.93,-102.71 602,-87 619.83,-68.42 619.96,-35.26 618.88,-19.62"/>
<polygon fill="midnightblue" stroke="midnightblue" points="493.52,-118.64 484.25,-123.77 494.7,-125.54 493.52,-118.64"/>
</g>
<!-- Node9 -->
<g id="node9" class="node">
<title>Node9</title>
<g id="a_node9"><a xlink:href="Injection_8cpp.html" target="_top" xlink:title=" ">
<polygon fill="none" stroke="black" points="650,-62 650,-81 746,-81 746,-62 650,-62"/>
<text text-anchor="middle" x="698" y="-69" font-family="Helvetica,sans-Serif" font-size="10.00">src/Injection.cpp</text>
</a>
</g>
</g>
<!-- Node1&#45;&gt;Node9 -->
<g id="edge13" class="edge">
<title>Node1&#45;&gt;Node9</title>
<path fill="none" stroke="midnightblue" d="M476.18,-121.38C518.95,-112.43 581.52,-99.18 636,-87 644.41,-85.12 653.46,-83.04 661.96,-81.05"/>
<polygon fill="midnightblue" stroke="midnightblue" points="475.36,-117.97 466.29,-123.44 476.8,-124.82 475.36,-117.97"/>
</g>
<!-- Node3&#45;&gt;Node2 -->
<g id="edge3" class="edge">
<title>Node3&#45;&gt;Node2</title>
<path fill="none" stroke="midnightblue" d="M115.19,-51.36C96.9,-40.69 75.03,-27.93 60.84,-19.66"/>
<polygon fill="midnightblue" stroke="midnightblue" points="113.43,-54.38 123.83,-56.4 116.95,-48.34 113.43,-54.38"/>
</g>
<!-- Node3&#45;&gt;Node4 -->
<g id="edge4" class="edge">
<title>Node3&#45;&gt;Node4</title>
<path fill="none" stroke="midnightblue" d="M173.97,-49.89C187.02,-39.54 202.13,-27.56 212.09,-19.66"/>
<polygon fill="midnightblue" stroke="midnightblue" points="171.43,-47.44 165.77,-56.4 175.78,-52.93 171.43,-47.44"/>
</g>
<!-- Node5&#45;&gt;Node2 -->
<g id="edge6" class="edge">
<title>Node5&#45;&gt;Node2</title>
<path fill="none" stroke="midnightblue" d="M239.46,-54.27C189.25,-43.04 124.42,-28.54 84.03,-19.51"/>
<polygon fill="midnightblue" stroke="midnightblue" points="238.78,-57.71 249.3,-56.47 240.3,-50.88 238.78,-57.71"/>
</g>
<!-- Node5&#45;&gt;Node6 -->
<g id="edge7" class="edge">
<title>Node5&#45;&gt;Node6</title>
<path fill="none" stroke="midnightblue" d="M354.35,-52.37C379.72,-41.51 410.83,-28.2 430.77,-19.66"/>
<polygon fill="midnightblue" stroke="midnightblue" points="352.76,-49.25 344.94,-56.4 355.51,-55.68 352.76,-49.25"/>
</g>
<!-- Node7&#45;&gt;Node6 -->
<g id="edge9" class="edge">
<title>Node7&#45;&gt;Node6</title>
<path fill="none" stroke="midnightblue" d="M512.73,-55.79C497,-44.38 475.75,-28.96 462.73,-19.51"/>
<polygon fill="midnightblue" stroke="midnightblue" points="511.1,-58.93 521.25,-61.98 515.21,-53.27 511.1,-58.93"/>
</g>
<!-- Node7&#45;&gt;Node8 -->
<g id="edge10" class="edge">
<title>Node7&#45;&gt;Node8</title>
<path fill="none" stroke="midnightblue" d="M553.55,-56.11C569.9,-44.67 592.22,-29.05 605.84,-19.51"/>
<polygon fill="midnightblue" stroke="midnightblue" points="551.36,-53.37 545.18,-61.98 555.38,-59.11 551.36,-53.37"/>
</g>
</g>
</svg>
