<?xml version="1.0" encoding="UTF-8" standalone="no"?>
<!DOCTYPE svg PUBLIC "-//W3C//DTD SVG 1.1//EN"
 "http://www.w3.org/Graphics/SVG/1.1/DTD/svg11.dtd">
<!-- Generated by graphviz version 2.43.0 (0)
 -->
<!-- Title: include/Callbacks/InjectInstantiation.hpp Pages: 1 -->
<svg width="312pt" height="95pt"
 viewBox="0.00 0.00 311.50 95.00" xmlns="http://www.w3.org/2000/svg" xmlns:xlink="http://www.w3.org/1999/xlink">
<g id="graph0" class="graph" transform="scale(1 1) rotate(0) translate(4 91)">
<title>include/Callbacks/InjectInstantiation.hpp</title>
<!-- Node1 -->
<g id="node1" class="node">
<title>Node1</title>
<g id="a_node1"><a xlink:title=" ">
<polygon fill="#bfbfbf" stroke="black" points="60,-56.5 60,-86.5 192,-86.5 192,-56.5 60,-56.5"/>
<text text-anchor="start" x="68" y="-74.5" font-family="Helvetica,sans-Serif" font-size="10.00">include/Callbacks/Inject</text>
<text text-anchor="middle" x="126" y="-63.5" font-family="Helvetica,sans-Serif" font-size="10.00">Instantiation.hpp</text>
</a>
</g>
</g>
<!-- Node2 -->
<g id="node2" class="node">
<title>Node2</title>
<g id="a_node2"><a xlink:href="Instantiator_8cpp.html" target="_top" xlink:title=" ">
<polygon fill="none" stroke="black" points="0,-0.5 0,-19.5 92,-19.5 92,-0.5 0,-0.5"/>
<text text-anchor="middle" x="46" y="-7.5" font-family="Helvetica,sans-Serif" font-size="10.00">Instantiator.cpp</text>
</a>
</g>
</g>
<!-- Node1&#45;&gt;Node2 -->
<g id="edge1" class="edge">
<title>Node1&#45;&gt;Node2</title>
<path fill="none" stroke="midnightblue" d="M98.69,-50.19C84.68,-39.77 68.36,-27.63 57.64,-19.66"/>
<polygon fill="midnightblue" stroke="midnightblue" points="96.93,-53.24 107.04,-56.4 101.11,-47.62 96.93,-53.24"/>
</g>
<!-- Node3 -->
<g id="node3" class="node">
<title>Node3</title>
<g id="a_node3"><a xlink:href="InjectInstantiation_8cpp.html" target="_top" xlink:title=" ">
<polygon fill="none" stroke="black" points="110.5,-0.5 110.5,-19.5 303.5,-19.5 303.5,-0.5 110.5,-0.5"/>
<text text-anchor="middle" x="207" y="-7.5" font-family="Helvetica,sans-Serif" font-size="10.00">src/Callbacks/InjectInstantiation.cpp</text>
</a>
</g>
</g>
<!-- Node1&#45;&gt;Node3 -->
<g id="edge2" class="edge">
<title>Node1&#45;&gt;Node3</title>
<path fill="none" stroke="midnightblue" d="M153.65,-50.19C167.83,-39.77 184.36,-27.63 195.21,-19.66"/>
<polygon fill="midnightblue" stroke="midnightblue" points="151.18,-47.66 145.2,-56.4 155.33,-53.3 151.18,-47.66"/>
</g>
</g>
</svg>
