<?xml version="1.0" encoding="UTF-8" standalone="no"?>
<!DOCTYPE svg PUBLIC "-//W3C//DTD SVG 1.1//EN"
 "http://www.w3.org/Graphics/SVG/1.1/DTD/svg11.dtd">
<!-- Generated by graphviz version 2.43.0 (0)
 -->
<!-- Title: Instantiator.cpp Pages: 1 -->
<svg width="2494pt" height="269pt"
 viewBox="0.00 0.00 2493.50 269.00" xmlns="http://www.w3.org/2000/svg" xmlns:xlink="http://www.w3.org/1999/xlink">
<g id="graph0" class="graph" transform="scale(1 1) rotate(0) translate(4 265)">
<title>Instantiator.cpp</title>
<!-- Node1 -->
<g id="Node000001" class="node">
<title>Node1</title>
<g id="a_Node000001"><a xlink:title=" ">
<polygon fill="#999999" stroke="#666666" points="970,-261 878,-261 878,-242 970,-242 970,-261"/>
<text text-anchor="middle" x="924" y="-249" font-family="Helvetica,sans-Serif" font-size="10.00">Instantiator.cpp</text>
</a>
</g>
</g>
<!-- Node2 -->
<g id="Node000002" class="node">
<title>Node2</title>
<g id="a_Node000002"><a xlink:title=" ">
<polygon fill="#e0e0e0" stroke="#999999" points="68,-134.5 0,-134.5 0,-115.5 68,-115.5 68,-134.5"/>
<text text-anchor="middle" x="34" y="-122.5" font-family="Helvetica,sans-Serif" font-size="10.00">filesystem</text>
</a>
</g>
</g>
<!-- Node1&#45;&gt;Node2 -->
<g id="edge1_Node000001_Node000002" class="edge">
<title>Node1&#45;&gt;Node2</title>
<g id="a_edge1_Node000001_Node000002"><a xlink:title=" ">
<path fill="none" stroke="#63b8ff" d="M877.85,-249.81C700.84,-246.95 73.65,-234.82 43,-206 26.64,-190.62 27.27,-163.04 30.01,-144.62"/>
<polygon fill="#63b8ff" stroke="#63b8ff" points="33.5,-145 31.85,-134.54 26.61,-143.74 33.5,-145"/>
</a>
</g>
</g>
<!-- Node3 -->
<g id="Node000003" class="node">
<title>Node3</title>
<g id="a_Node000003"><a xlink:title=" ">
<polygon fill="#e0e0e0" stroke="#999999" points="261.5,-200.5 206.5,-200.5 206.5,-181.5 261.5,-181.5 261.5,-200.5"/>
<text text-anchor="middle" x="234" y="-188.5" font-family="Helvetica,sans-Serif" font-size="10.00">fstream</text>
</a>
</g>
</g>
<!-- Node1&#45;&gt;Node3 -->
<g id="edge2_Node000001_Node000003" class="edge">
<title>Node1&#45;&gt;Node3</title>
<g id="a_edge2_Node000001_Node000003"><a xlink:title=" ">
<path fill="none" stroke="#63b8ff" d="M877.78,-249.11C748.84,-244.96 387.01,-231.32 271,-206 268.32,-205.42 265.58,-204.67 262.87,-203.84"/>
<polygon fill="#63b8ff" stroke="#63b8ff" points="263.86,-200.48 253.26,-200.51 261.56,-207.09 263.86,-200.48"/>
</a>
</g>
</g>
<!-- Node4 -->
<g id="Node000004" class="node">
<title>Node4</title>
<g id="a_Node000004"><a xlink:title=" ">
<polygon fill="#e0e0e0" stroke="#999999" points="340,-200.5 280,-200.5 280,-181.5 340,-181.5 340,-200.5"/>
<text text-anchor="middle" x="310" y="-188.5" font-family="Helvetica,sans-Serif" font-size="10.00">iostream</text>
</a>
</g>
</g>
<!-- Node1&#45;&gt;Node4 -->
<g id="edge3_Node000001_Node000004" class="edge">
<title>Node1&#45;&gt;Node4</title>
<g id="a_edge3_Node000001_Node000004"><a xlink:title=" ">
<path fill="none" stroke="#63b8ff" d="M877.94,-251.08C779.61,-251.41 542.36,-247.4 349,-206 346.16,-205.39 343.25,-204.63 340.36,-203.77"/>
<polygon fill="#63b8ff" stroke="#63b8ff" points="341.34,-200.41 330.75,-200.61 339.15,-207.06 341.34,-200.41"/>
</a>
</g>
</g>
<!-- Node5 -->
<g id="Node000005" class="node">
<title>Node5</title>
<g id="a_Node000005"><a xlink:title=" ">
<polygon fill="#e0e0e0" stroke="#999999" points="439.5,-200.5 358.5,-200.5 358.5,-181.5 439.5,-181.5 439.5,-200.5"/>
<text text-anchor="middle" x="399" y="-188.5" font-family="Helvetica,sans-Serif" font-size="10.00">system_error</text>
</a>
</g>
</g>
<!-- Node1&#45;&gt;Node5 -->
<g id="edge4_Node000001_Node000005" class="edge">
<title>Node1&#45;&gt;Node5</title>
<g id="a_edge4_Node000001_Node000005"><a xlink:title=" ">
<path fill="none" stroke="#63b8ff" d="M877.77,-248.92C792.4,-245.41 604.55,-234.82 449,-206 444.76,-205.21 440.36,-204.23 436.01,-203.16"/>
<polygon fill="#63b8ff" stroke="#63b8ff" points="436.6,-199.7 426.04,-200.53 434.81,-206.46 436.6,-199.7"/>
</a>
</g>
</g>
<!-- Node6 -->
<g id="Node000006" class="node">
<title>Node6</title>
<g id="a_Node000006"><a xlink:title=" ">
<polygon fill="#e0e0e0" stroke="#999999" points="544,-200.5 458,-200.5 458,-181.5 544,-181.5 544,-200.5"/>
<text text-anchor="middle" x="501" y="-188.5" font-family="Helvetica,sans-Serif" font-size="10.00">unordered_set</text>
</a>
</g>
</g>
<!-- Node1&#45;&gt;Node6 -->
<g id="edge5_Node000001_Node000006" class="edge">
<title>Node1&#45;&gt;Node6</title>
<g id="a_edge5_Node000001_Node000006"><a xlink:title=" ">
<path fill="none" stroke="#63b8ff" d="M877.8,-246.67C808.11,-240.5 672.12,-226.88 558,-206 552.99,-205.08 547.77,-203.99 542.6,-202.83"/>
<polygon fill="#63b8ff" stroke="#63b8ff" points="543.35,-199.41 532.81,-200.53 541.74,-206.22 543.35,-199.41"/>
</a>
</g>
</g>
<!-- Node7 -->
<g id="Node000007" class="node">
<title>Node7</title>
<g id="a_Node000007"><a xlink:title=" ">
<polygon fill="#e0e0e0" stroke="#999999" points="794.5,-19 725.5,-19 725.5,0 794.5,0 794.5,-19"/>
<text text-anchor="middle" x="760" y="-7" font-family="Helvetica,sans-Serif" font-size="10.00">fmt/color.h</text>
</a>
</g>
</g>
<!-- Node1&#45;&gt;Node7 -->
<g id="edge6_Node000001_Node000007" class="edge">
<title>Node1&#45;&gt;Node7</title>
<g id="a_edge6_Node000001_Node000007"><a xlink:title=" ">
<path fill="none" stroke="#63b8ff" d="M877.74,-247.5C809.32,-242.33 685.2,-229.92 648,-206 588.69,-167.87 580.43,-141.48 560,-74 557.55,-65.92 554.72,-61.59 560,-55 579.09,-31.2 662.42,-19.31 715.31,-14.06"/>
<polygon fill="#63b8ff" stroke="#63b8ff" points="715.83,-17.53 725.45,-13.1 715.17,-10.56 715.83,-17.53"/>
</a>
</g>
</g>
<!-- Node8 -->
<g id="Node000008" class="node">
<title>Node8</title>
<g id="a_Node000008"><a xlink:title=" ">
<polygon fill="#e0e0e0" stroke="#999999" points="648.5,-74 569.5,-74 569.5,-55 648.5,-55 648.5,-74"/>
<text text-anchor="middle" x="609" y="-62" font-family="Helvetica,sans-Serif" font-size="10.00">fmt/ranges.h</text>
</a>
</g>
</g>
<!-- Node1&#45;&gt;Node8 -->
<g id="edge7_Node000001_Node000008" class="edge">
<title>Node1&#45;&gt;Node8</title>
<g id="a_edge7_Node000001_Node000008"><a xlink:title=" ">
<path fill="none" stroke="#63b8ff" d="M877.99,-247.11C815.72,-241.7 708.83,-229.27 678,-206 637.61,-175.51 619.47,-115.04 612.58,-84.33"/>
<polygon fill="#63b8ff" stroke="#63b8ff" points="615.93,-83.23 610.47,-74.15 609.07,-84.65 615.93,-83.23"/>
</a>
</g>
</g>
<!-- Node9 -->
<g id="Node000009" class="node">
<title>Node9</title>
<g id="a_Node000009"><a xlink:title=" ">
<polygon fill="#e0e0e0" stroke="#999999" points="1439.5,-200.5 1378.5,-200.5 1378.5,-181.5 1439.5,-181.5 1439.5,-200.5"/>
<text text-anchor="middle" x="1409" y="-188.5" font-family="Helvetica,sans-Serif" font-size="10.00">fmt/std.h</text>
</a>
</g>
</g>
<!-- Node1&#45;&gt;Node9 -->
<g id="edge8_Node000001_Node000009" class="edge">
<title>Node1&#45;&gt;Node9</title>
<g id="a_edge8_Node000001_Node000009"><a xlink:title=" ">
<path fill="none" stroke="#63b8ff" d="M970.05,-249.48C1051.46,-246.88 1225.73,-237.76 1369,-206 1371.99,-205.34 1375.07,-204.52 1378.13,-203.61"/>
<polygon fill="#63b8ff" stroke="#63b8ff" points="1379.25,-206.93 1387.68,-200.51 1377.09,-200.27 1379.25,-206.93"/>
</a>
</g>
</g>
<!-- Node10 -->
<g id="Node000010" class="node">
<title>Node10</title>
<g id="a_Node000010"><a xlink:title=" ">
<polygon fill="#e0e0e0" stroke="#999999" points="1554,-200.5 1458,-200.5 1458,-181.5 1554,-181.5 1554,-200.5"/>
<text text-anchor="middle" x="1506" y="-188.5" font-family="Helvetica,sans-Serif" font-size="10.00">spdlog/cfg/env.h</text>
</a>
</g>
</g>
<!-- Node1&#45;&gt;Node10 -->
<g id="edge9_Node000001_Node000010" class="edge">
<title>Node1&#45;&gt;Node10</title>
<g id="a_edge9_Node000001_Node000010"><a xlink:title=" ">
<path fill="none" stroke="#63b8ff" d="M970.2,-248.94C1061.85,-245.32 1272.94,-234.39 1448,-206 1453.43,-205.12 1459.11,-204 1464.69,-202.78"/>
<polygon fill="#63b8ff" stroke="#63b8ff" points="1465.61,-206.16 1474.57,-200.51 1464.04,-199.34 1465.61,-206.16"/>
</a>
</g>
</g>
<!-- Node11 -->
<g id="Node000011" class="node">
<title>Node11</title>
<g id="a_Node000011"><a xlink:title=" ">
<polygon fill="#e0e0e0" stroke="#999999" points="1665.5,-200.5 1572.5,-200.5 1572.5,-181.5 1665.5,-181.5 1665.5,-200.5"/>
<text text-anchor="middle" x="1619" y="-188.5" font-family="Helvetica,sans-Serif" font-size="10.00">spdlog/spdlog.h</text>
</a>
</g>
</g>
<!-- Node1&#45;&gt;Node11 -->
<g id="edge10_Node000001_Node000011" class="edge">
<title>Node1&#45;&gt;Node11</title>
<g id="a_edge10_Node000001_Node000011"><a xlink:title=" ">
<path fill="none" stroke="#63b8ff" d="M970.03,-250.06C1075.55,-248.44 1342.78,-240.92 1563,-206 1568.19,-205.18 1573.6,-204.11 1578.92,-202.92"/>
<polygon fill="#63b8ff" stroke="#63b8ff" points="1580.05,-206.25 1588.97,-200.54 1578.44,-199.44 1580.05,-206.25"/>
</a>
</g>
</g>
<!-- Node12 -->
<g id="Node000012" class="node">
<title>Node12</title>
<g id="a_Node000012"><a xlink:title=" ">
<polygon fill="#e0e0e0" stroke="#999999" points="1820.5,-200.5 1683.5,-200.5 1683.5,-181.5 1820.5,-181.5 1820.5,-200.5"/>
<text text-anchor="middle" x="1752" y="-188.5" font-family="Helvetica,sans-Serif" font-size="10.00">clang/AST/ASTImporter.h</text>
</a>
</g>
</g>
<!-- Node1&#45;&gt;Node12 -->
<g id="edge11_Node000001_Node000012" class="edge">
<title>Node1&#45;&gt;Node12</title>
<g id="a_edge11_Node000001_Node000012"><a xlink:title=" ">
<path fill="none" stroke="#63b8ff" d="M970.25,-249.66C1088.05,-247.1 1408.8,-237.56 1674,-206 1682.35,-205.01 1691.15,-203.69 1699.72,-202.26"/>
<polygon fill="#63b8ff" stroke="#63b8ff" points="1700.37,-205.7 1709.63,-200.55 1699.18,-198.8 1700.37,-205.7"/>
</a>
</g>
</g>
<!-- Node13 -->
<g id="Node000013" class="node">
<title>Node13</title>
<g id="a_Node000013"><a xlink:title=" ">
<polygon fill="#e0e0e0" stroke="#999999" points="1226.5,-140 1065.5,-140 1065.5,-110 1226.5,-110 1226.5,-140"/>
<text text-anchor="start" x="1073.5" y="-128" font-family="Helvetica,sans-Serif" font-size="10.00">clang/ASTMatchers/ASTMatch</text>
<text text-anchor="middle" x="1146" y="-117" font-family="Helvetica,sans-Serif" font-size="10.00">Finder.h</text>
</a>
</g>
</g>
<!-- Node1&#45;&gt;Node13 -->
<g id="edge12_Node000001_Node000013" class="edge">
<title>Node1&#45;&gt;Node13</title>
<g id="a_edge12_Node000001_Node000013"><a xlink:title=" ">
<path fill="none" stroke="#63b8ff" d="M970.4,-246.03C1023.27,-239.99 1105.19,-227.43 1127,-206 1141.67,-191.58 1145.85,-168.05 1146.69,-150.23"/>
<polygon fill="#63b8ff" stroke="#63b8ff" points="1150.2,-150.06 1146.85,-140.01 1143.2,-149.95 1150.2,-150.06"/>
</a>
</g>
</g>
<!-- Node14 -->
<g id="Node000014" class="node">
<title>Node14</title>
<g id="a_Node000014"><a xlink:title=" ">
<polygon fill="#e0e0e0" stroke="#999999" points="1985.5,-134.5 1800.5,-134.5 1800.5,-115.5 1985.5,-115.5 1985.5,-134.5"/>
<text text-anchor="middle" x="1893" y="-122.5" font-family="Helvetica,sans-Serif" font-size="10.00">clang/ASTMatchers/ASTMatchers.h</text>
</a>
</g>
</g>
<!-- Node1&#45;&gt;Node14 -->
<g id="edge13_Node000001_Node000014" class="edge">
<title>Node1&#45;&gt;Node14</title>
<g id="a_edge13_Node000001_Node000014"><a xlink:title=" ">
<path fill="none" stroke="#63b8ff" d="M970.15,-250.44C1143.84,-249.9 1752.27,-245.23 1829,-206 1855.31,-192.55 1874.43,-162.86 1884.6,-143.68"/>
<polygon fill="#63b8ff" stroke="#63b8ff" points="1887.85,-145.01 1889.22,-134.51 1881.6,-141.87 1887.85,-145.01"/>
</a>
</g>
</g>
<!-- Node15 -->
<g id="Node000015" class="node">
<title>Node15</title>
<g id="a_Node000015"><a xlink:title=" ">
<polygon fill="#e0e0e0" stroke="#999999" points="2123.5,-206 2014.5,-206 2014.5,-176 2123.5,-176 2123.5,-206"/>
<text text-anchor="start" x="2022.5" y="-194" font-family="Helvetica,sans-Serif" font-size="10.00">clang/Rewrite/Core</text>
<text text-anchor="middle" x="2069" y="-183" font-family="Helvetica,sans-Serif" font-size="10.00">/Rewriter.h</text>
</a>
</g>
</g>
<!-- Node1&#45;&gt;Node15 -->
<g id="edge14_Node000001_Node000015" class="edge">
<title>Node1&#45;&gt;Node15</title>
<g id="a_edge14_Node000001_Node000015"><a xlink:title=" ">
<path fill="none" stroke="#63b8ff" d="M970.01,-249.7C1146.53,-246.45 1781.31,-233.2 2004.47,-206"/>
<polygon fill="#63b8ff" stroke="#63b8ff" points="2004.99,-209.47 2014.47,-204.74 2004.11,-202.52 2004.99,-209.47"/>
</a>
</g>
</g>
<!-- Node16 -->
<g id="Node000016" class="node">
<title>Node16</title>
<g id="a_Node000016"><a xlink:title=" ">
<polygon fill="#e0e0e0" stroke="#999999" points="2306.5,-206 2141.5,-206 2141.5,-176 2306.5,-176 2306.5,-206"/>
<text text-anchor="start" x="2149.5" y="-194" font-family="Helvetica,sans-Serif" font-size="10.00">clang/Tooling/CommonOptions</text>
<text text-anchor="middle" x="2224" y="-183" font-family="Helvetica,sans-Serif" font-size="10.00">Parser.h</text>
</a>
</g>
</g>
<!-- Node1&#45;&gt;Node16 -->
<g id="edge15_Node000001_Node000016" class="edge">
<title>Node1&#45;&gt;Node16</title>
<g id="a_edge15_Node000001_Node000016"><a xlink:title=" ">
<path fill="none" stroke="#63b8ff" d="M970.25,-250.72C1129.98,-251.09 1673.31,-248.94 2131.11,-206.11"/>
<polygon fill="#63b8ff" stroke="#63b8ff" points="2131.6,-209.57 2141.22,-205.15 2130.94,-202.61 2131.6,-209.57"/>
</a>
</g>
</g>
<!-- Node17 -->
<g id="Node000017" class="node">
<title>Node17</title>
<g id="a_Node000017"><a xlink:title=" ">
<polygon fill="#e0e0e0" stroke="#999999" points="222.5,-134.5 95.5,-134.5 95.5,-115.5 222.5,-115.5 222.5,-134.5"/>
<text text-anchor="middle" x="159" y="-122.5" font-family="Helvetica,sans-Serif" font-size="10.00">clang/Tooling/Tooling.h</text>
</a>
</g>
</g>
<!-- Node1&#45;&gt;Node17 -->
<g id="edge16_Node000001_Node000017" class="edge">
<title>Node1&#45;&gt;Node17</title>
<g id="a_edge16_Node000001_Node000017"><a xlink:title=" ">
<path fill="none" stroke="#63b8ff" d="M877.84,-250.37C726.72,-249.56 253.25,-244.01 197,-206 176.23,-191.97 166.51,-163.37 162.18,-144.44"/>
<polygon fill="#63b8ff" stroke="#63b8ff" points="165.6,-143.72 160.21,-134.6 158.74,-145.09 165.6,-143.72"/>
</a>
</g>
</g>
<!-- Node18 -->
<g id="Node000018" class="node">
<title>Node18</title>
<g id="a_Node000018"><a xlink:title=" ">
<polygon fill="#e0e0e0" stroke="#999999" points="2485.5,-200.5 2324.5,-200.5 2324.5,-181.5 2485.5,-181.5 2485.5,-200.5"/>
<text text-anchor="middle" x="2405" y="-188.5" font-family="Helvetica,sans-Serif" font-size="10.00">llvm/Support/CommandLine.h</text>
</a>
</g>
</g>
<!-- Node1&#45;&gt;Node18 -->
<g id="edge17_Node000001_Node000018" class="edge">
<title>Node1&#45;&gt;Node18</title>
<g id="a_edge17_Node000001_Node000018"><a xlink:title=" ">
<path fill="none" stroke="#63b8ff" d="M970.12,-249.8C1179.95,-246.47 2045.94,-231.46 2316,-206 2326.38,-205.02 2337.4,-203.6 2348.01,-202.04"/>
<polygon fill="#63b8ff" stroke="#63b8ff" points="2348.67,-205.48 2358.02,-200.51 2347.61,-198.56 2348.67,-205.48"/>
</a>
</g>
</g>
<!-- Node19 -->
<g id="Node000019" class="node">
<title>Node19</title>
<g id="a_Node000019"><a xlink:href="ASTCreation_8hpp.html" target="_top" xlink:title=" ">
<polygon fill="white" stroke="#666666" points="149.5,-200.5 52.5,-200.5 52.5,-181.5 149.5,-181.5 149.5,-200.5"/>
<text text-anchor="middle" x="101" y="-188.5" font-family="Helvetica,sans-Serif" font-size="10.00">ASTCreation.hpp</text>
</a>
</g>
</g>
<!-- Node1&#45;&gt;Node19 -->
<g id="edge18_Node000001_Node000019" class="edge">
<title>Node1&#45;&gt;Node19</title>
<g id="a_edge18_Node000001_Node000019"><a xlink:title=" ">
<path fill="none" stroke="#63b8ff" d="M877.92,-250.36C759.07,-249.46 432.68,-243.47 164,-206 157.74,-205.13 151.17,-203.96 144.75,-202.67"/>
<polygon fill="#63b8ff" stroke="#63b8ff" points="145.33,-199.21 134.82,-200.56 143.88,-206.06 145.33,-199.21"/>
</a>
</g>
</g>
<!-- Node20 -->
<g id="Node000020" class="node">
<title>Node20</title>
<g id="a_Node000020"><a xlink:href="DeleteInstantiations_8hpp.html" target="_top" xlink:title=" ">
<polygon fill="white" stroke="#666666" points="1360.5,-200.5 1173.5,-200.5 1173.5,-181.5 1360.5,-181.5 1360.5,-200.5"/>
<text text-anchor="middle" x="1267" y="-188.5" font-family="Helvetica,sans-Serif" font-size="10.00">Callbacks/DeleteInstantiations.hpp</text>
</a>
</g>
</g>
<!-- Node1&#45;&gt;Node20 -->
<g id="edge21_Node000001_Node000020" class="edge">
<title>Node1&#45;&gt;Node20</title>
<g id="a_edge21_Node000001_Node000020"><a xlink:title=" ">
<path fill="none" stroke="#63b8ff" d="M970.26,-242.61C1031.48,-232.17 1139.53,-213.74 1206.98,-202.24"/>
<polygon fill="#63b8ff" stroke="#63b8ff" points="1207.76,-205.65 1217.03,-200.52 1206.59,-198.75 1207.76,-205.65"/>
</a>
</g>
</g>
<!-- Node21 -->
<g id="Node000021" class="node">
<title>Node21</title>
<g id="a_Node000021"><a xlink:href="GetNeededInstantiations_8hpp.html" target="_top" xlink:title=" ">
<polygon fill="white" stroke="#666666" points="923.5,-200.5 714.5,-200.5 714.5,-181.5 923.5,-181.5 923.5,-200.5"/>
<text text-anchor="middle" x="819" y="-188.5" font-family="Helvetica,sans-Serif" font-size="10.00">Callbacks/GetNeededInstantiations.hpp</text>
</a>
</g>
</g>
<!-- Node1&#45;&gt;Node21 -->
<g id="edge23_Node000001_Node000021" class="edge">
<title>Node1&#45;&gt;Node21</title>
<g id="a_edge23_Node000001_Node000021"><a xlink:title=" ">
<path fill="none" stroke="#63b8ff" d="M908.51,-241.87C891.37,-232.32 863.53,-216.81 843.44,-205.62"/>
<polygon fill="#63b8ff" stroke="#63b8ff" points="845,-202.48 834.56,-200.67 841.59,-208.59 845,-202.48"/>
</a>
</g>
</g>
<!-- Node23 -->
<g id="Node000023" class="node">
<title>Node23</title>
<g id="a_Node000023"><a xlink:href="Injection_8hpp.html" target="_top" xlink:title=" ">
<polygon fill="white" stroke="#666666" points="971,-134.5 891,-134.5 891,-115.5 971,-115.5 971,-134.5"/>
<text text-anchor="middle" x="931" y="-122.5" font-family="Helvetica,sans-Serif" font-size="10.00">Injection.hpp</text>
</a>
</g>
</g>
<!-- Node1&#45;&gt;Node23 -->
<g id="edge54_Node000001_Node000023" class="edge">
<title>Node1&#45;&gt;Node23</title>
<g id="a_edge54_Node000001_Node000023"><a xlink:title=" ">
<path fill="none" stroke="#63b8ff" d="M877.7,-250.04C800.25,-247.65 657.35,-235.34 705,-176 726.58,-149.12 820.75,-135.81 880.52,-129.96"/>
<polygon fill="#63b8ff" stroke="#63b8ff" points="880.89,-133.44 890.52,-129.01 880.24,-126.47 880.89,-133.44"/>
</a>
</g>
</g>
<!-- Node33 -->
<g id="Node000033" class="node">
<title>Node33</title>
<g id="a_Node000033"><a xlink:href="InjectInstantiation_8hpp.html" target="_top" xlink:title=" ">
<polygon fill="white" stroke="#666666" points="1118,-200.5 942,-200.5 942,-181.5 1118,-181.5 1118,-200.5"/>
<text text-anchor="middle" x="1030" y="-188.5" font-family="Helvetica,sans-Serif" font-size="10.00">Callbacks/InjectInstantiation.hpp</text>
</a>
</g>
</g>
<!-- Node1&#45;&gt;Node33 -->
<g id="edge46_Node000001_Node000033" class="edge">
<title>Node1&#45;&gt;Node33</title>
<g id="a_edge46_Node000001_Node000033"><a xlink:title=" ">
<path fill="none" stroke="#63b8ff" d="M939.64,-241.87C956.94,-232.32 985.05,-216.81 1005.33,-205.62"/>
<polygon fill="#63b8ff" stroke="#63b8ff" points="1007.23,-208.56 1014.3,-200.67 1003.85,-202.43 1007.23,-208.56"/>
</a>
</g>
</g>
<!-- Node34 -->
<g id="Node000034" class="node">
<title>Node34</title>
<g id="a_Node000034"><a xlink:href="ProgressBar_8hpp.html" target="_top" xlink:title=" ">
<polygon fill="white" stroke="#666666" points="814.5,-74 705.5,-74 705.5,-55 814.5,-55 814.5,-74"/>
<text text-anchor="middle" x="760" y="-62" font-family="Helvetica,sans-Serif" font-size="10.00">IO/ProgressBar.hpp</text>
</a>
</g>
</g>
<!-- Node1&#45;&gt;Node34 -->
<g id="edge50_Node000001_Node000034" class="edge">
<title>Node1&#45;&gt;Node34</title>
<g id="a_edge50_Node000001_Node000034"><a xlink:title=" ">
<path fill="none" stroke="#63b8ff" d="M877.96,-248.4C817.18,-244.54 715.12,-233.98 692,-206 659.34,-166.48 712.1,-108.62 741.86,-81.13"/>
<polygon fill="#63b8ff" stroke="#63b8ff" points="744.45,-83.51 749.55,-74.22 739.77,-78.3 744.45,-83.51"/>
</a>
</g>
</g>
<!-- Node35 -->
<g id="Node000035" class="node">
<title>Node35</title>
<g id="a_Node000035"><a xlink:href="Matcher_8hpp.html" target="_top" xlink:title="AST matcher expressions to filter the relevant nodes for template instantiations.">
<polygon fill="white" stroke="#666666" points="1996.5,-200.5 1877.5,-200.5 1877.5,-181.5 1996.5,-181.5 1996.5,-200.5"/>
<text text-anchor="middle" x="1937" y="-188.5" font-family="Helvetica,sans-Serif" font-size="10.00">Matcher/Matcher.hpp</text>
</a>
</g>
</g>
<!-- Node1&#45;&gt;Node35 -->
<g id="edge55_Node000001_Node000035" class="edge">
<title>Node1&#45;&gt;Node35</title>
<g id="a_edge55_Node000001_Node000035"><a xlink:title=" ">
<path fill="none" stroke="#63b8ff" d="M970.11,-250.59C1106.84,-250.36 1521.81,-246.16 1863,-206 1871.03,-205.05 1879.5,-203.75 1887.73,-202.31"/>
<polygon fill="#63b8ff" stroke="#63b8ff" points="1888.39,-205.75 1897.6,-200.51 1887.13,-198.86 1888.39,-205.75"/>
</a>
</g>
</g>
<!-- Node19&#45;&gt;Node2 -->
<g id="edge19_Node000019_Node000002" class="edge">
<title>Node19&#45;&gt;Node2</title>
<g id="a_edge19_Node000019_Node000002"><a xlink:title=" ">
<path fill="none" stroke="#63b8ff" d="M91.96,-181.37C81.43,-171.31 63.81,-154.48 50.76,-142.01"/>
<polygon fill="#63b8ff" stroke="#63b8ff" points="52.97,-139.28 43.32,-134.91 48.14,-144.34 52.97,-139.28"/>
</a>
</g>
</g>
<!-- Node19&#45;&gt;Node17 -->
<g id="edge20_Node000019_Node000017" class="edge">
<title>Node19&#45;&gt;Node17</title>
<g id="a_edge20_Node000019_Node000017"><a xlink:title=" ">
<path fill="none" stroke="#63b8ff" d="M108.82,-181.37C117.85,-171.4 132.91,-154.79 144.17,-142.36"/>
<polygon fill="#63b8ff" stroke="#63b8ff" points="146.81,-144.67 150.93,-134.91 141.62,-139.96 146.81,-144.67"/>
</a>
</g>
</g>
<!-- Node20&#45;&gt;Node13 -->
<g id="edge22_Node000020_Node000013" class="edge">
<title>Node20&#45;&gt;Node13</title>
<g id="a_edge22_Node000020_Node000013"><a xlink:title=" ">
<path fill="none" stroke="#63b8ff" d="M1250.68,-181.37C1233.11,-172.07 1204.59,-156.99 1181.76,-144.91"/>
<polygon fill="#63b8ff" stroke="#63b8ff" points="1183.16,-141.7 1172.69,-140.12 1179.89,-147.89 1183.16,-141.7"/>
</a>
</g>
</g>
<!-- Node21&#45;&gt;Node13 -->
<g id="edge25_Node000021_Node000013" class="edge">
<title>Node21&#45;&gt;Node13</title>
<g id="a_edge25_Node000021_Node000013"><a xlink:title=" ">
<path fill="none" stroke="#63b8ff" d="M862.76,-181.44C914.14,-171.38 1000.43,-154.49 1064.29,-141.99"/>
<polygon fill="#63b8ff" stroke="#63b8ff" points="1065.2,-145.38 1074.34,-140.02 1063.86,-138.51 1065.2,-145.38"/>
</a>
</g>
</g>
<!-- Node22 -->
<g id="Node000022" class="node">
<title>Node22</title>
<g id="a_Node000022"><a xlink:title=" ">
<polygon fill="#e0e0e0" stroke="#999999" points="1446.5,-74 1399.5,-74 1399.5,-55 1446.5,-55 1446.5,-74"/>
<text text-anchor="middle" x="1423" y="-62" font-family="Helvetica,sans-Serif" font-size="10.00">vector</text>
</a>
</g>
</g>
<!-- Node21&#45;&gt;Node22 -->
<g id="edge24_Node000021_Node000022" class="edge">
<title>Node21&#45;&gt;Node22</title>
<g id="a_edge24_Node000021_Node000022"><a xlink:title=" ">
<path fill="none" stroke="#63b8ff" d="M854,-181.45C887.15,-172.82 937.96,-158.18 980,-140 1004.84,-129.26 1007.2,-118.2 1033,-110 1181.86,-62.68 1230.99,-100.35 1389.22,-73.82"/>
<polygon fill="#63b8ff" stroke="#63b8ff" points="1390.05,-77.22 1399.3,-72.06 1388.85,-70.33 1390.05,-77.22"/>
</a>
</g>
</g>
<!-- Node21&#45;&gt;Node23 -->
<g id="edge26_Node000021_Node000023" class="edge">
<title>Node21&#45;&gt;Node23</title>
<g id="a_edge26_Node000021_Node000023"><a xlink:title=" ">
<path fill="none" stroke="#63b8ff" d="M834.1,-181.37C852.81,-170.68 884.9,-152.35 906.99,-139.72"/>
<polygon fill="#63b8ff" stroke="#63b8ff" points="908.83,-142.7 915.78,-134.7 905.36,-136.62 908.83,-142.7"/>
</a>
</g>
</g>
<!-- Node23&#45;&gt;Node7 -->
<g id="edge29_Node000023_Node000007" class="edge">
<title>Node23&#45;&gt;Node7</title>
<g id="a_edge29_Node000023_Node000007"><a xlink:title=" ">
<path fill="none" stroke="#63b8ff" d="M890.93,-121.4C830.38,-116.54 720.08,-103.74 696,-74 680.78,-55.21 707.24,-35.97 730.62,-23.67"/>
<polygon fill="#63b8ff" stroke="#63b8ff" points="732.27,-26.75 739.66,-19.15 729.15,-20.49 732.27,-26.75"/>
</a>
</g>
</g>
<!-- Node23&#45;&gt;Node8 -->
<g id="edge31_Node000023_Node000008" class="edge">
<title>Node23&#45;&gt;Node8</title>
<g id="a_edge31_Node000023_Node000008"><a xlink:title=" ">
<path fill="none" stroke="#63b8ff" d="M890.87,-116.71C832.1,-106.03 722.7,-86.16 658.85,-74.56"/>
<polygon fill="#63b8ff" stroke="#63b8ff" points="659.09,-71.04 648.62,-72.7 657.84,-77.93 659.09,-71.04"/>
</a>
</g>
</g>
<!-- Node23&#45;&gt;Node22 -->
<g id="edge28_Node000023_Node000022" class="edge">
<title>Node23&#45;&gt;Node22</title>
<g id="a_edge28_Node000023_Node000022"><a xlink:title=" ">
<path fill="none" stroke="#63b8ff" d="M960.24,-115.48C968.21,-113.42 976.89,-111.4 985,-110 1159.85,-79.78 1210.1,-103.74 1389.28,-73.8"/>
<polygon fill="#63b8ff" stroke="#63b8ff" points="1390.04,-77.23 1399.31,-72.1 1388.86,-70.33 1390.04,-77.23"/>
</a>
</g>
</g>
<!-- Node24 -->
<g id="Node000024" class="node">
<title>Node24</title>
<g id="a_Node000024"><a xlink:title=" ">
<polygon fill="#e0e0e0" stroke="#999999" points="920,-19 876,-19 876,0 920,0 920,-19"/>
<text text-anchor="middle" x="898" y="-7" font-family="Helvetica,sans-Serif" font-size="10.00">string</text>
</a>
</g>
</g>
<!-- Node23&#45;&gt;Node24 -->
<g id="edge27_Node000023_Node000024" class="edge">
<title>Node23&#45;&gt;Node24</title>
<g id="a_edge27_Node000023_Node000024"><a xlink:title=" ">
<path fill="none" stroke="#63b8ff" d="M910.17,-115.39C893.75,-107.35 872.02,-93.63 862,-74 853.6,-57.55 866.44,-39.25 879.05,-26.53"/>
<polygon fill="#63b8ff" stroke="#63b8ff" points="881.76,-28.79 886.68,-19.41 876.98,-23.67 881.76,-28.79"/>
</a>
</g>
</g>
<!-- Node25 -->
<g id="Node000025" class="node">
<title>Node25</title>
<g id="a_Node000025"><a xlink:title=" ">
<polygon fill="#e0e0e0" stroke="#999999" points="1242.5,-19 1175.5,-19 1175.5,0 1242.5,0 1242.5,-19"/>
<text text-anchor="middle" x="1209" y="-7" font-family="Helvetica,sans-Serif" font-size="10.00">fmt/core.h</text>
</a>
</g>
</g>
<!-- Node23&#45;&gt;Node25 -->
<g id="edge30_Node000023_Node000025" class="edge">
<title>Node23&#45;&gt;Node25</title>
<g id="a_edge30_Node000023_Node000025"><a xlink:title=" ">
<path fill="none" stroke="#63b8ff" d="M961.12,-115.48C968.86,-113.48 977.2,-111.51 985,-110 1046.6,-98.1 1223.56,-121.1 1265,-74 1280.12,-56.81 1256.11,-37.03 1234.99,-24.18"/>
<polygon fill="#63b8ff" stroke="#63b8ff" points="1236.65,-21.09 1226.24,-19.12 1233.15,-27.15 1236.65,-21.09"/>
</a>
</g>
</g>
<!-- Node26 -->
<g id="Node000026" class="node">
<title>Node26</title>
<g id="a_Node000026"><a xlink:title=" ">
<polygon fill="#e0e0e0" stroke="#999999" points="990.5,-74 871.5,-74 871.5,-55 990.5,-55 990.5,-74"/>
<text text-anchor="middle" x="931" y="-62" font-family="Helvetica,sans-Serif" font-size="10.00">clang/AST/DeclCXX.h</text>
</a>
</g>
</g>
<!-- Node23&#45;&gt;Node26 -->
<g id="edge32_Node000023_Node000026" class="edge">
<title>Node23&#45;&gt;Node26</title>
<g id="a_edge32_Node000023_Node000026"><a xlink:title=" ">
<path fill="none" stroke="#63b8ff" d="M931,-115.37C931,-107.25 931,-94.81 931,-84.39"/>
<polygon fill="#63b8ff" stroke="#63b8ff" points="934.5,-84.17 931,-74.17 927.5,-84.17 934.5,-84.17"/>
</a>
</g>
</g>
<!-- Node27 -->
<g id="Node000027" class="node">
<title>Node27</title>
<g id="a_Node000027"><a xlink:title=" ">
<polygon fill="#e0e0e0" stroke="#999999" points="1107.5,-74 1008.5,-74 1008.5,-55 1107.5,-55 1107.5,-74"/>
<text text-anchor="middle" x="1058" y="-62" font-family="Helvetica,sans-Serif" font-size="10.00">clang/AST/Type.h</text>
</a>
</g>
</g>
<!-- Node23&#45;&gt;Node27 -->
<g id="edge33_Node000023_Node000027" class="edge">
<title>Node23&#45;&gt;Node27</title>
<g id="a_edge33_Node000023_Node000027"><a xlink:title=" ">
<path fill="none" stroke="#63b8ff" d="M949.47,-115.49C970.72,-105.7 1005.85,-89.52 1030.37,-78.23"/>
<polygon fill="#63b8ff" stroke="#63b8ff" points="1031.89,-81.38 1039.51,-74.02 1028.96,-75.02 1031.89,-81.38"/>
</a>
</g>
</g>
<!-- Node28 -->
<g id="Node000028" class="node">
<title>Node28</title>
<g id="a_Node000028"><a xlink:href="Param_8hpp.html" target="_top" xlink:title=" ">
<polygon fill="white" stroke="#666666" points="1381,-74 1313,-74 1313,-55 1381,-55 1381,-74"/>
<text text-anchor="middle" x="1347" y="-62" font-family="Helvetica,sans-Serif" font-size="10.00">Param.hpp</text>
</a>
</g>
</g>
<!-- Node23&#45;&gt;Node28 -->
<g id="edge34_Node000023_Node000028" class="edge">
<title>Node23&#45;&gt;Node28</title>
<g id="a_edge34_Node000023_Node000028"><a xlink:title=" ">
<path fill="none" stroke="#63b8ff" d="M960.82,-115.47C968.64,-113.46 977.1,-111.47 985,-110 1123.1,-84.31 1160,-94.26 1299,-74 1300.27,-73.81 1301.56,-73.62 1302.86,-73.42"/>
<polygon fill="#63b8ff" stroke="#63b8ff" points="1303.64,-76.84 1312.95,-71.79 1302.52,-69.93 1303.64,-76.84"/>
</a>
</g>
</g>
<!-- Node31 -->
<g id="Node000031" class="node">
<title>Node31</title>
<g id="a_Node000031"><a xlink:href="TemplateArgument_8hpp.html" target="_top" xlink:title=" ">
<polygon fill="white" stroke="#666666" points="1256.5,-74 1125.5,-74 1125.5,-55 1256.5,-55 1256.5,-74"/>
<text text-anchor="middle" x="1191" y="-62" font-family="Helvetica,sans-Serif" font-size="10.00">TemplateArgument.hpp</text>
</a>
</g>
</g>
<!-- Node23&#45;&gt;Node31 -->
<g id="edge40_Node000023_Node000031" class="edge">
<title>Node23&#45;&gt;Node31</title>
<g id="a_edge40_Node000023_Node000031"><a xlink:title=" ">
<path fill="none" stroke="#63b8ff" d="M962.93,-115.49C970.17,-113.63 977.84,-111.7 985,-110 1037.29,-97.58 1097.39,-84.76 1139.13,-76.09"/>
<polygon fill="#63b8ff" stroke="#63b8ff" points="1139.98,-79.49 1149.07,-74.03 1138.56,-72.64 1139.98,-79.49"/>
</a>
</g>
</g>
<!-- Node28&#45;&gt;Node7 -->
<g id="edge36_Node000028_Node000007" class="edge">
<title>Node28&#45;&gt;Node7</title>
<g id="a_edge36_Node000028_Node000007"><a xlink:title=" ">
<path fill="none" stroke="#63b8ff" d="M1312.7,-59.83C1298.02,-58.28 1280.67,-56.5 1265,-55 1095.15,-38.71 892.93,-21.57 804.78,-14.21"/>
<polygon fill="#63b8ff" stroke="#63b8ff" points="804.87,-10.71 794.61,-13.36 804.28,-17.68 804.87,-10.71"/>
</a>
</g>
</g>
<!-- Node28&#45;&gt;Node24 -->
<g id="edge35_Node000028_Node000024" class="edge">
<title>Node28&#45;&gt;Node24</title>
<g id="a_edge35_Node000028_Node000024"><a xlink:title=" ">
<path fill="none" stroke="#63b8ff" d="M1312.88,-59.47C1228.78,-49.54 1012.37,-24 930.25,-14.31"/>
<polygon fill="#63b8ff" stroke="#63b8ff" points="930.59,-10.82 920.25,-13.13 929.77,-17.77 930.59,-10.82"/>
</a>
</g>
</g>
<!-- Node28&#45;&gt;Node25 -->
<g id="edge37_Node000028_Node000025" class="edge">
<title>Node28&#45;&gt;Node25</title>
<g id="a_edge37_Node000028_Node000025"><a xlink:title=" ">
<path fill="none" stroke="#63b8ff" d="M1324.83,-54.98C1302.23,-46.3 1266.94,-32.75 1241.25,-22.88"/>
<polygon fill="#63b8ff" stroke="#63b8ff" points="1242.17,-19.49 1231.58,-19.17 1239.66,-26.02 1242.17,-19.49"/>
</a>
</g>
</g>
<!-- Node29 -->
<g id="Node000029" class="node">
<title>Node29</title>
<g id="a_Node000029"><a xlink:title=" ">
<polygon fill="#e0e0e0" stroke="#999999" points="1514,-19 1416,-19 1416,0 1514,0 1514,-19"/>
<text text-anchor="middle" x="1465" y="-7" font-family="Helvetica,sans-Serif" font-size="10.00">clang/AST/Decl.h</text>
</a>
</g>
</g>
<!-- Node28&#45;&gt;Node29 -->
<g id="edge38_Node000028_Node000029" class="edge">
<title>Node28&#45;&gt;Node29</title>
<g id="a_edge38_Node000028_Node000029"><a xlink:title=" ">
<path fill="none" stroke="#63b8ff" d="M1365.96,-54.98C1385.03,-46.42 1414.66,-33.11 1436.55,-23.28"/>
<polygon fill="#63b8ff" stroke="#63b8ff" points="1438.01,-26.46 1445.7,-19.17 1435.14,-20.07 1438.01,-26.46"/>
</a>
</g>
</g>
<!-- Node30 -->
<g id="Node000030" class="node">
<title>Node30</title>
<g id="a_Node000030"><a xlink:title=" ">
<polygon fill="#e0e0e0" stroke="#999999" points="1397.5,-19 1260.5,-19 1260.5,0 1397.5,0 1397.5,-19"/>
<text text-anchor="middle" x="1329" y="-7" font-family="Helvetica,sans-Serif" font-size="10.00">clang/AST/PrettyPrinter.h</text>
</a>
</g>
</g>
<!-- Node28&#45;&gt;Node30 -->
<g id="edge39_Node000028_Node000030" class="edge">
<title>Node28&#45;&gt;Node30</title>
<g id="a_edge39_Node000028_Node000030"><a xlink:title=" ">
<path fill="none" stroke="#63b8ff" d="M1344.03,-54.75C1341.64,-47.72 1338.21,-37.62 1335.23,-28.84"/>
<polygon fill="#63b8ff" stroke="#63b8ff" points="1338.45,-27.43 1331.92,-19.09 1331.82,-29.68 1338.45,-27.43"/>
</a>
</g>
</g>
<!-- Node31&#45;&gt;Node7 -->
<g id="edge43_Node000031_Node000007" class="edge">
<title>Node31&#45;&gt;Node7</title>
<g id="a_edge43_Node000031_Node000007"><a xlink:title=" ">
<path fill="none" stroke="#63b8ff" d="M1125.07,-55.39C1036.45,-44.49 881.23,-25.41 804.93,-16.03"/>
<polygon fill="#63b8ff" stroke="#63b8ff" points="805.06,-12.51 794.7,-14.77 804.2,-19.46 805.06,-12.51"/>
</a>
</g>
</g>
<!-- Node31&#45;&gt;Node24 -->
<g id="edge42_Node000031_Node000024" class="edge">
<title>Node31&#45;&gt;Node24</title>
<g id="a_edge42_Node000031_Node000024"><a xlink:title=" ">
<path fill="none" stroke="#63b8ff" d="M1143.92,-54.98C1083.99,-44.14 982.03,-25.7 930.24,-16.33"/>
<polygon fill="#63b8ff" stroke="#63b8ff" points="930.75,-12.87 920.29,-14.53 929.5,-19.76 930.75,-12.87"/>
</a>
</g>
</g>
<!-- Node31&#45;&gt;Node25 -->
<g id="edge44_Node000031_Node000025" class="edge">
<title>Node31&#45;&gt;Node25</title>
<g id="a_edge44_Node000031_Node000025"><a xlink:title=" ">
<path fill="none" stroke="#63b8ff" d="M1193.97,-54.75C1196.36,-47.72 1199.79,-37.62 1202.77,-28.84"/>
<polygon fill="#63b8ff" stroke="#63b8ff" points="1206.18,-29.68 1206.08,-19.09 1199.55,-27.43 1206.18,-29.68"/>
</a>
</g>
</g>
<!-- Node31&#45;&gt;Node30 -->
<g id="edge45_Node000031_Node000030" class="edge">
<title>Node31&#45;&gt;Node30</title>
<g id="a_edge45_Node000031_Node000030"><a xlink:title=" ">
<path fill="none" stroke="#63b8ff" d="M1213.17,-54.98C1235.77,-46.3 1271.06,-32.75 1296.75,-22.88"/>
<polygon fill="#63b8ff" stroke="#63b8ff" points="1298.34,-26.02 1306.42,-19.17 1295.83,-19.49 1298.34,-26.02"/>
</a>
</g>
</g>
<!-- Node32 -->
<g id="Node000032" class="node">
<title>Node32</title>
<g id="a_Node000032"><a xlink:title=" ">
<polygon fill="#e0e0e0" stroke="#999999" points="1157,-19 1011,-19 1011,0 1157,0 1157,-19"/>
<text text-anchor="middle" x="1084" y="-7" font-family="Helvetica,sans-Serif" font-size="10.00">clang/AST/TemplateBase.h</text>
</a>
</g>
</g>
<!-- Node31&#45;&gt;Node32 -->
<g id="edge41_Node000031_Node000032" class="edge">
<title>Node31&#45;&gt;Node32</title>
<g id="a_edge41_Node000031_Node000032"><a xlink:title=" ">
<path fill="none" stroke="#63b8ff" d="M1173.81,-54.98C1156.75,-46.54 1130.37,-33.47 1110.6,-23.68"/>
<polygon fill="#63b8ff" stroke="#63b8ff" points="1112.02,-20.47 1101.5,-19.17 1108.91,-26.75 1112.02,-20.47"/>
</a>
</g>
</g>
<!-- Node33&#45;&gt;Node13 -->
<g id="edge48_Node000033_Node000013" class="edge">
<title>Node33&#45;&gt;Node13</title>
<g id="a_edge48_Node000033_Node000013"><a xlink:title=" ">
<path fill="none" stroke="#63b8ff" d="M1045.64,-181.37C1062.42,-172.11 1089.59,-157.12 1111.43,-145.07"/>
<polygon fill="#63b8ff" stroke="#63b8ff" points="1113.35,-148.01 1120.42,-140.12 1109.97,-141.88 1113.35,-148.01"/>
</a>
</g>
</g>
<!-- Node33&#45;&gt;Node22 -->
<g id="edge47_Node000033_Node000022" class="edge">
<title>Node33&#45;&gt;Node22</title>
<g id="a_edge47_Node000033_Node000022"><a xlink:title=" ">
<path fill="none" stroke="#63b8ff" d="M1029.97,-181.34C1030.41,-164.59 1034.01,-127.86 1056,-110 1111.75,-64.74 1301.33,-85.59 1389.34,-73.62"/>
<polygon fill="#63b8ff" stroke="#63b8ff" points="1389.97,-77.07 1399.3,-72.04 1388.87,-70.15 1389.97,-77.07"/>
</a>
</g>
</g>
<!-- Node33&#45;&gt;Node23 -->
<g id="edge49_Node000033_Node000023" class="edge">
<title>Node33&#45;&gt;Node23</title>
<g id="a_edge49_Node000033_Node000023"><a xlink:title=" ">
<path fill="none" stroke="#63b8ff" d="M1016.65,-181.37C1000.34,-170.82 972.51,-152.84 953.01,-140.23"/>
<polygon fill="#63b8ff" stroke="#63b8ff" points="954.75,-137.19 944.46,-134.7 950.95,-143.07 954.75,-137.19"/>
</a>
</g>
</g>
<!-- Node34&#45;&gt;Node7 -->
<g id="edge52_Node000034_Node000007" class="edge">
<title>Node34&#45;&gt;Node7</title>
<g id="a_edge52_Node000034_Node000007"><a xlink:title=" ">
<path fill="none" stroke="#63b8ff" d="M760,-54.75C760,-47.8 760,-37.85 760,-29.13"/>
<polygon fill="#63b8ff" stroke="#63b8ff" points="763.5,-29.09 760,-19.09 756.5,-29.09 763.5,-29.09"/>
</a>
</g>
</g>
<!-- Node34&#45;&gt;Node24 -->
<g id="edge51_Node000034_Node000024" class="edge">
<title>Node34&#45;&gt;Node24</title>
<g id="a_edge51_Node000034_Node000024"><a xlink:title=" ">
<path fill="none" stroke="#63b8ff" d="M782.17,-54.98C804.91,-46.25 840.48,-32.59 866.21,-22.71"/>
<polygon fill="#63b8ff" stroke="#63b8ff" points="867.8,-25.85 875.88,-18.99 865.29,-19.31 867.8,-25.85"/>
</a>
</g>
</g>
<!-- Node34&#45;&gt;Node25 -->
<g id="edge53_Node000034_Node000025" class="edge">
<title>Node34&#45;&gt;Node25</title>
<g id="a_edge53_Node000034_Node000025"><a xlink:title=" ">
<path fill="none" stroke="#63b8ff" d="M814.7,-59.01C890.88,-52.42 1033.42,-38.89 1164.99,-19.02"/>
<polygon fill="#63b8ff" stroke="#63b8ff" points="1165.89,-22.43 1175.25,-17.46 1164.83,-15.51 1165.89,-22.43"/>
</a>
</g>
</g>
<!-- Node35&#45;&gt;Node14 -->
<g id="edge56_Node000035_Node000014" class="edge">
<title>Node35&#45;&gt;Node14</title>
<g id="a_edge56_Node000035_Node000014"><a xlink:title=" ">
<path fill="none" stroke="#63b8ff" d="M1931.07,-181.37C1924.41,-171.69 1913.44,-155.74 1904.99,-143.44"/>
<polygon fill="#63b8ff" stroke="#63b8ff" points="1907.67,-141.16 1899.12,-134.91 1901.9,-145.13 1907.67,-141.16"/>
</a>
</g>
</g>
</g>
</svg>
