<?xml version="1.0" encoding="UTF-8" standalone="no"?>
<!DOCTYPE svg PUBLIC "-//W3C//DTD SVG 1.1//EN"
 "http://www.w3.org/Graphics/SVG/1.1/DTD/svg11.dtd">
<!-- Generated by graphviz version 2.43.0 (0)
 -->
<!-- Title: Instantiator.cpp Pages: 1 -->
<svg width="2356pt" height="269pt"
 viewBox="0.00 0.00 2355.50 269.00" xmlns="http://www.w3.org/2000/svg" xmlns:xlink="http://www.w3.org/1999/xlink">
<g id="graph0" class="graph" transform="scale(1 1) rotate(0) translate(4 265)">
<title>Instantiator.cpp</title>
<!-- Node1 -->
<g id="Node000001" class="node">
<title>Node1</title>
<g id="a_Node000001"><a xlink:title=" ">
<polygon fill="#999999" stroke="#666666" points="1175.5,-261 1083.5,-261 1083.5,-242 1175.5,-242 1175.5,-261"/>
<text text-anchor="middle" x="1129.5" y="-249" font-family="Helvetica,sans-Serif" font-size="10.00">Instantiator.cpp</text>
</a>
</g>
</g>
<!-- Node2 -->
<g id="Node000002" class="node">
<title>Node2</title>
<g id="a_Node000002"><a xlink:href="ASTCreation_8hpp.html" target="_top" xlink:title=" ">
<polygon fill="white" stroke="#666666" points="185,-200.5 88,-200.5 88,-181.5 185,-181.5 185,-200.5"/>
<text text-anchor="middle" x="136.5" y="-188.5" font-family="Helvetica,sans-Serif" font-size="10.00">ASTCreation.hpp</text>
</a>
</g>
</g>
<!-- Node1&#45;&gt;Node2 -->
<g id="edge1_Node000001_Node000002" class="edge">
<title>Node1&#45;&gt;Node2</title>
<g id="a_edge1_Node000001_Node000002"><a xlink:title=" ">
<path fill="none" stroke="#63b8ff" d="M1083.28,-251.07C947.19,-252.15 536.34,-251.15 199.5,-206 193.16,-205.15 186.51,-203.98 180.01,-202.68"/>
<polygon fill="#63b8ff" stroke="#63b8ff" points="180.49,-199.21 169.99,-200.56 179.04,-206.05 180.49,-199.21"/>
</a>
</g>
</g>
<!-- Node3 -->
<g id="Node000003" class="node">
<title>Node3</title>
<g id="a_Node000003"><a xlink:title=" ">
<polygon fill="#e0e0e0" stroke="#999999" points="127,-134.5 0,-134.5 0,-115.5 127,-115.5 127,-134.5"/>
<text text-anchor="middle" x="63.5" y="-122.5" font-family="Helvetica,sans-Serif" font-size="10.00">clang/Tooling/Tooling.h</text>
</a>
</g>
</g>
<!-- Node1&#45;&gt;Node3 -->
<g id="edge41_Node000001_Node000003" class="edge">
<title>Node1&#45;&gt;Node3</title>
<g id="a_edge41_Node000001_Node000003"><a xlink:title=" ">
<path fill="none" stroke="#63b8ff" d="M1083.19,-250.13C885.06,-248.35 116.96,-239.31 78.5,-206 61.34,-191.14 59.81,-163.42 61.05,-144.84"/>
<polygon fill="#63b8ff" stroke="#63b8ff" points="64.56,-144.94 62.07,-134.65 57.59,-144.25 64.56,-144.94"/>
</a>
</g>
</g>
<!-- Node4 -->
<g id="Node000004" class="node">
<title>Node4</title>
<g id="a_Node000004"><a xlink:title=" ">
<polygon fill="#e0e0e0" stroke="#999999" points="220.5,-134.5 152.5,-134.5 152.5,-115.5 220.5,-115.5 220.5,-134.5"/>
<text text-anchor="middle" x="186.5" y="-122.5" font-family="Helvetica,sans-Serif" font-size="10.00">filesystem</text>
</a>
</g>
</g>
<!-- Node1&#45;&gt;Node4 -->
<g id="edge43_Node000001_Node000004" class="edge">
<title>Node1&#45;&gt;Node4</title>
<g id="a_edge43_Node000001_Node000004"><a xlink:title=" ">
<path fill="none" stroke="#63b8ff" d="M1083.29,-250.65C910.82,-250.9 310.85,-248.64 237.5,-206 214.18,-192.44 199.82,-163.49 192.51,-144.39"/>
<polygon fill="#63b8ff" stroke="#63b8ff" points="195.72,-142.97 189.08,-134.71 189.12,-145.31 195.72,-142.97"/>
</a>
</g>
</g>
<!-- Node5 -->
<g id="Node000005" class="node">
<title>Node5</title>
<g id="a_Node000005"><a xlink:href="DeleteInstantiations_8hpp.html" target="_top" xlink:title=" ">
<polygon fill="white" stroke="#666666" points="466,-200.5 279,-200.5 279,-181.5 466,-181.5 466,-200.5"/>
<text text-anchor="middle" x="372.5" y="-188.5" font-family="Helvetica,sans-Serif" font-size="10.00">Callbacks/DeleteInstantiations.hpp</text>
</a>
</g>
</g>
<!-- Node1&#45;&gt;Node5 -->
<g id="edge4_Node000001_Node000005" class="edge">
<title>Node1&#45;&gt;Node5</title>
<g id="a_edge4_Node000001_Node000005"><a xlink:title=" ">
<path fill="none" stroke="#63b8ff" d="M1083.31,-248.32C976.74,-243.07 705.45,-228.49 479.5,-206 467.56,-204.81 454.89,-203.34 442.61,-201.8"/>
<polygon fill="#63b8ff" stroke="#63b8ff" points="442.77,-198.3 432.41,-200.5 441.89,-205.24 442.77,-198.3"/>
</a>
</g>
</g>
<!-- Node6 -->
<g id="Node000006" class="node">
<title>Node6</title>
<g id="a_Node000006"><a xlink:title=" ">
<polygon fill="#e0e0e0" stroke="#999999" points="582,-140 421,-140 421,-110 582,-110 582,-140"/>
<text text-anchor="start" x="429" y="-128" font-family="Helvetica,sans-Serif" font-size="10.00">clang/ASTMatchers/ASTMatch</text>
<text text-anchor="middle" x="501.5" y="-117" font-family="Helvetica,sans-Serif" font-size="10.00">Finder.h</text>
</a>
</g>
</g>
<!-- Node1&#45;&gt;Node6 -->
<g id="edge37_Node000001_Node000006" class="edge">
<title>Node1&#45;&gt;Node6</title>
<g id="a_edge37_Node000001_Node000006"><a xlink:title=" ">
<path fill="none" stroke="#63b8ff" d="M1083.13,-249.62C951.98,-246.79 584.99,-236.2 540.5,-206 521.6,-193.17 511.53,-168.49 506.38,-149.91"/>
<polygon fill="#63b8ff" stroke="#63b8ff" points="509.75,-148.95 503.95,-140.08 502.95,-150.63 509.75,-148.95"/>
</a>
</g>
</g>
<!-- Node7 -->
<g id="Node000007" class="node">
<title>Node7</title>
<g id="a_Node000007"><a xlink:href="GetNeededInstantiations_8hpp.html" target="_top" xlink:title=" ">
<polygon fill="white" stroke="#666666" points="769,-200.5 560,-200.5 560,-181.5 769,-181.5 769,-200.5"/>
<text text-anchor="middle" x="664.5" y="-188.5" font-family="Helvetica,sans-Serif" font-size="10.00">Callbacks/GetNeededInstantiations.hpp</text>
</a>
</g>
</g>
<!-- Node1&#45;&gt;Node7 -->
<g id="edge6_Node000001_Node000007" class="edge">
<title>Node1&#45;&gt;Node7</title>
<g id="a_edge6_Node000001_Node000007"><a xlink:title=" ">
<path fill="none" stroke="#63b8ff" d="M1083.21,-244.68C1003.56,-234.66 839.77,-214.05 742.32,-201.79"/>
<polygon fill="#63b8ff" stroke="#63b8ff" points="742.59,-198.3 732.23,-200.52 741.72,-205.24 742.59,-198.3"/>
</a>
</g>
</g>
<!-- Node8 -->
<g id="Node000008" class="node">
<title>Node8</title>
<g id="a_Node000008"><a xlink:href="Injection_8hpp.html" target="_top" xlink:title=" ">
<polygon fill="white" stroke="#666666" points="696.5,-134.5 616.5,-134.5 616.5,-115.5 696.5,-115.5 696.5,-134.5"/>
<text text-anchor="middle" x="656.5" y="-122.5" font-family="Helvetica,sans-Serif" font-size="10.00">Injection.hpp</text>
</a>
</g>
</g>
<!-- Node1&#45;&gt;Node8 -->
<g id="edge31_Node000001_Node000008" class="edge">
<title>Node1&#45;&gt;Node8</title>
<g id="a_edge31_Node000001_Node000008"><a xlink:title=" ">
<path fill="none" stroke="#63b8ff" d="M1083.15,-250.47C952.17,-249.89 586.42,-244.79 550.5,-206 524.23,-177.64 577.85,-152.11 617.97,-137.87"/>
<polygon fill="#63b8ff" stroke="#63b8ff" points="619.24,-141.13 627.57,-134.58 616.97,-134.51 619.24,-141.13"/>
</a>
</g>
</g>
<!-- Node19 -->
<g id="Node000019" class="node">
<title>Node19</title>
<g id="a_Node000019"><a xlink:href="InjectInstantiation_8hpp.html" target="_top" xlink:title=" ">
<polygon fill="white" stroke="#666666" points="963.5,-200.5 787.5,-200.5 787.5,-181.5 963.5,-181.5 963.5,-200.5"/>
<text text-anchor="middle" x="875.5" y="-188.5" font-family="Helvetica,sans-Serif" font-size="10.00">Callbacks/InjectInstantiation.hpp</text>
</a>
</g>
</g>
<!-- Node1&#45;&gt;Node19 -->
<g id="edge23_Node000001_Node000019" class="edge">
<title>Node1&#45;&gt;Node19</title>
<g id="a_edge23_Node000001_Node000019"><a xlink:title=" ">
<path fill="none" stroke="#63b8ff" d="M1092.57,-241.99C1047.61,-231.64 971.62,-214.14 922.53,-202.83"/>
<polygon fill="#63b8ff" stroke="#63b8ff" points="923.01,-199.35 912.48,-200.52 921.44,-206.17 923.01,-199.35"/>
</a>
</g>
</g>
<!-- Node20 -->
<g id="Node000020" class="node">
<title>Node20</title>
<g id="a_Node000020"><a xlink:href="ProgressBar_8hpp.html" target="_top" xlink:title=" ">
<polygon fill="white" stroke="#666666" points="348,-74 239,-74 239,-55 348,-55 348,-74"/>
<text text-anchor="middle" x="293.5" y="-62" font-family="Helvetica,sans-Serif" font-size="10.00">IO/ProgressBar.hpp</text>
</a>
</g>
</g>
<!-- Node1&#45;&gt;Node20 -->
<g id="edge27_Node000001_Node000020" class="edge">
<title>Node1&#45;&gt;Node20</title>
<g id="a_edge27_Node000001_Node000020"><a xlink:title=" ">
<path fill="none" stroke="#63b8ff" d="M1083.46,-249.85C909.11,-247.18 297.73,-235.73 269.5,-206 237.5,-172.31 265.36,-112.45 282.48,-82.94"/>
<polygon fill="#63b8ff" stroke="#63b8ff" points="285.6,-84.55 287.77,-74.18 279.6,-80.93 285.6,-84.55"/>
</a>
</g>
</g>
<!-- Node21 -->
<g id="Node000021" class="node">
<title>Node21</title>
<g id="a_Node000021"><a xlink:href="Matcher_8hpp.html" target="_top" xlink:title="AST matcher expressions to filter the relevant nodes for template instantiations.">
<polygon fill="white" stroke="#666666" points="1101,-200.5 982,-200.5 982,-181.5 1101,-181.5 1101,-200.5"/>
<text text-anchor="middle" x="1041.5" y="-188.5" font-family="Helvetica,sans-Serif" font-size="10.00">Matcher/Matcher.hpp</text>
</a>
</g>
</g>
<!-- Node1&#45;&gt;Node21 -->
<g id="edge32_Node000001_Node000021" class="edge">
<title>Node1&#45;&gt;Node21</title>
<g id="a_edge32_Node000001_Node000021"><a xlink:title=" ">
<path fill="none" stroke="#63b8ff" d="M1116.52,-241.87C1102.48,-232.54 1079.87,-217.51 1063.14,-206.38"/>
<polygon fill="#63b8ff" stroke="#63b8ff" points="1064.8,-203.29 1054.54,-200.67 1060.93,-209.12 1064.8,-203.29"/>
</a>
</g>
</g>
<!-- Node22 -->
<g id="Node000022" class="node">
<title>Node22</title>
<g id="a_Node000022"><a xlink:title=" ">
<polygon fill="#e0e0e0" stroke="#999999" points="1178,-134.5 993,-134.5 993,-115.5 1178,-115.5 1178,-134.5"/>
<text text-anchor="middle" x="1085.5" y="-122.5" font-family="Helvetica,sans-Serif" font-size="10.00">clang/ASTMatchers/ASTMatchers.h</text>
</a>
</g>
</g>
<!-- Node1&#45;&gt;Node22 -->
<g id="edge38_Node000001_Node000022" class="edge">
<title>Node1&#45;&gt;Node22</title>
<g id="a_edge38_Node000001_Node000022"><a xlink:title=" ">
<path fill="none" stroke="#63b8ff" d="M1127.87,-241.6C1125.14,-227.43 1119.08,-199.01 1110.5,-176 1106.33,-164.8 1100.38,-152.79 1095.33,-143.36"/>
<polygon fill="#63b8ff" stroke="#63b8ff" points="1098.4,-141.67 1090.51,-134.6 1092.26,-145.05 1098.4,-141.67"/>
</a>
</g>
</g>
<!-- Node23 -->
<g id="Node000023" class="node">
<title>Node23</title>
<g id="a_Node000023"><a xlink:title=" ">
<polygon fill="#e0e0e0" stroke="#999999" points="1237,-200.5 1158,-200.5 1158,-181.5 1237,-181.5 1237,-200.5"/>
<text text-anchor="middle" x="1197.5" y="-188.5" font-family="Helvetica,sans-Serif" font-size="10.00">fmt/ranges.h</text>
</a>
</g>
</g>
<!-- Node1&#45;&gt;Node23 -->
<g id="edge34_Node000001_Node000023" class="edge">
<title>Node1&#45;&gt;Node23</title>
<g id="a_edge34_Node000001_Node000023"><a xlink:title=" ">
<path fill="none" stroke="#63b8ff" d="M1139.53,-241.87C1150.08,-232.8 1166.89,-218.34 1179.69,-207.32"/>
<polygon fill="#63b8ff" stroke="#63b8ff" points="1182.13,-209.84 1187.43,-200.67 1177.56,-204.54 1182.13,-209.84"/>
</a>
</g>
</g>
<!-- Node24 -->
<g id="Node000024" class="node">
<title>Node24</title>
<g id="a_Node000024"><a xlink:title=" ">
<polygon fill="#e0e0e0" stroke="#999999" points="1348,-200.5 1255,-200.5 1255,-181.5 1348,-181.5 1348,-200.5"/>
<text text-anchor="middle" x="1301.5" y="-188.5" font-family="Helvetica,sans-Serif" font-size="10.00">spdlog/spdlog.h</text>
</a>
</g>
</g>
<!-- Node1&#45;&gt;Node24 -->
<g id="edge35_Node000001_Node000024" class="edge">
<title>Node1&#45;&gt;Node24</title>
<g id="a_edge35_Node000001_Node000024"><a xlink:title=" ">
<path fill="none" stroke="#63b8ff" d="M1154.51,-241.99C1184.06,-231.94 1233.41,-215.16 1266.69,-203.84"/>
<polygon fill="#63b8ff" stroke="#63b8ff" points="1268.12,-207.05 1276.46,-200.52 1265.87,-200.42 1268.12,-207.05"/>
</a>
</g>
</g>
<!-- Node25 -->
<g id="Node000025" class="node">
<title>Node25</title>
<g id="a_Node000025"><a xlink:title=" ">
<polygon fill="#e0e0e0" stroke="#999999" points="1503,-200.5 1366,-200.5 1366,-181.5 1503,-181.5 1503,-200.5"/>
<text text-anchor="middle" x="1434.5" y="-188.5" font-family="Helvetica,sans-Serif" font-size="10.00">clang/AST/ASTImporter.h</text>
</a>
</g>
</g>
<!-- Node1&#45;&gt;Node25 -->
<g id="edge36_Node000001_Node000025" class="edge">
<title>Node1&#45;&gt;Node25</title>
<g id="a_edge36_Node000001_Node000025"><a xlink:title=" ">
<path fill="none" stroke="#63b8ff" d="M1173.85,-241.99C1228.51,-231.51 1321.37,-213.7 1380.24,-202.41"/>
<polygon fill="#63b8ff" stroke="#63b8ff" points="1380.94,-205.84 1390.1,-200.52 1379.62,-198.96 1380.94,-205.84"/>
</a>
</g>
</g>
<!-- Node26 -->
<g id="Node000026" class="node">
<title>Node26</title>
<g id="a_Node000026"><a xlink:title=" ">
<polygon fill="#e0e0e0" stroke="#999999" points="1630,-206 1521,-206 1521,-176 1630,-176 1630,-206"/>
<text text-anchor="start" x="1529" y="-194" font-family="Helvetica,sans-Serif" font-size="10.00">clang/Rewrite/Core</text>
<text text-anchor="middle" x="1575.5" y="-183" font-family="Helvetica,sans-Serif" font-size="10.00">/Rewriter.h</text>
</a>
</g>
</g>
<!-- Node1&#45;&gt;Node26 -->
<g id="edge39_Node000001_Node000026" class="edge">
<title>Node1&#45;&gt;Node26</title>
<g id="a_edge39_Node000001_Node000026"><a xlink:title=" ">
<path fill="none" stroke="#63b8ff" d="M1175.7,-246.68C1246.06,-240.52 1384.45,-227.09 1511.06,-206.14"/>
<polygon fill="#63b8ff" stroke="#63b8ff" points="1511.65,-209.59 1520.93,-204.49 1510.49,-202.69 1511.65,-209.59"/>
</a>
</g>
</g>
<!-- Node27 -->
<g id="Node000027" class="node">
<title>Node27</title>
<g id="a_Node000027"><a xlink:title=" ">
<polygon fill="#e0e0e0" stroke="#999999" points="1813,-206 1648,-206 1648,-176 1813,-176 1813,-206"/>
<text text-anchor="start" x="1656" y="-194" font-family="Helvetica,sans-Serif" font-size="10.00">clang/Tooling/CommonOptions</text>
<text text-anchor="middle" x="1730.5" y="-183" font-family="Helvetica,sans-Serif" font-size="10.00">Parser.h</text>
</a>
</g>
</g>
<!-- Node1&#45;&gt;Node27 -->
<g id="edge40_Node000001_Node000027" class="edge">
<title>Node1&#45;&gt;Node27</title>
<g id="a_edge40_Node000001_Node000027"><a xlink:title=" ">
<path fill="none" stroke="#63b8ff" d="M1175.67,-247.49C1263.62,-241.54 1461.46,-227.08 1637.73,-206.17"/>
<polygon fill="#63b8ff" stroke="#63b8ff" points="1638.19,-209.64 1647.7,-204.97 1637.36,-202.69 1638.19,-209.64"/>
</a>
</g>
</g>
<!-- Node28 -->
<g id="Node000028" class="node">
<title>Node28</title>
<g id="a_Node000028"><a xlink:title=" ">
<polygon fill="#e0e0e0" stroke="#999999" points="1992,-200.5 1831,-200.5 1831,-181.5 1992,-181.5 1992,-200.5"/>
<text text-anchor="middle" x="1911.5" y="-188.5" font-family="Helvetica,sans-Serif" font-size="10.00">llvm/Support/CommandLine.h</text>
</a>
</g>
</g>
<!-- Node1&#45;&gt;Node28 -->
<g id="edge42_Node000001_Node000028" class="edge">
<title>Node1&#45;&gt;Node28</title>
<g id="a_edge42_Node000001_Node000028"><a xlink:title=" ">
<path fill="none" stroke="#63b8ff" d="M1175.86,-249C1287.46,-245.05 1579.84,-232.82 1822.5,-206 1832.29,-204.92 1842.66,-203.52 1852.72,-202.03"/>
<polygon fill="#63b8ff" stroke="#63b8ff" points="1853.29,-205.48 1862.64,-200.51 1852.23,-198.56 1853.29,-205.48"/>
</a>
</g>
</g>
<!-- Node29 -->
<g id="Node000029" class="node">
<title>Node29</title>
<g id="a_Node000029"><a xlink:title=" ">
<polygon fill="#e0e0e0" stroke="#999999" points="2065,-200.5 2010,-200.5 2010,-181.5 2065,-181.5 2065,-200.5"/>
<text text-anchor="middle" x="2037.5" y="-188.5" font-family="Helvetica,sans-Serif" font-size="10.00">fstream</text>
</a>
</g>
</g>
<!-- Node1&#45;&gt;Node29 -->
<g id="edge44_Node000001_Node000029" class="edge">
<title>Node1&#45;&gt;Node29</title>
<g id="a_edge44_Node000001_Node000029"><a xlink:title=" ">
<path fill="none" stroke="#63b8ff" d="M1175.53,-250.08C1331.87,-248.37 1841.6,-240.24 2001.5,-206 2004.02,-205.46 2006.6,-204.76 2009.16,-203.97"/>
<polygon fill="#63b8ff" stroke="#63b8ff" points="2010.53,-207.21 2018.79,-200.58 2008.2,-200.6 2010.53,-207.21"/>
</a>
</g>
</g>
<!-- Node30 -->
<g id="Node000030" class="node">
<title>Node30</title>
<g id="a_Node000030"><a xlink:title=" ">
<polygon fill="#e0e0e0" stroke="#999999" points="2143.5,-200.5 2083.5,-200.5 2083.5,-181.5 2143.5,-181.5 2143.5,-200.5"/>
<text text-anchor="middle" x="2113.5" y="-188.5" font-family="Helvetica,sans-Serif" font-size="10.00">iostream</text>
</a>
</g>
</g>
<!-- Node1&#45;&gt;Node30 -->
<g id="edge45_Node000001_Node000030" class="edge">
<title>Node1&#45;&gt;Node30</title>
<g id="a_edge45_Node000001_Node000030"><a xlink:title=" ">
<path fill="none" stroke="#63b8ff" d="M1175.59,-250.14C1340.31,-248.57 1899.4,-240.74 2074.5,-206 2077.51,-205.4 2080.6,-204.62 2083.65,-203.72"/>
<polygon fill="#63b8ff" stroke="#63b8ff" points="2084.78,-207.04 2093.18,-200.58 2082.59,-200.39 2084.78,-207.04"/>
</a>
</g>
</g>
<!-- Node31 -->
<g id="Node000031" class="node">
<title>Node31</title>
<g id="a_Node000031"><a xlink:title=" ">
<polygon fill="#e0e0e0" stroke="#999999" points="2243,-200.5 2162,-200.5 2162,-181.5 2243,-181.5 2243,-200.5"/>
<text text-anchor="middle" x="2202.5" y="-188.5" font-family="Helvetica,sans-Serif" font-size="10.00">system_error</text>
</a>
</g>
</g>
<!-- Node1&#45;&gt;Node31 -->
<g id="edge46_Node000001_Node000031" class="edge">
<title>Node1&#45;&gt;Node31</title>
<g id="a_edge46_Node000001_Node000031"><a xlink:title=" ">
<path fill="none" stroke="#63b8ff" d="M1175.68,-249.9C1348.97,-247.42 1960.38,-236.66 2152.5,-206 2157.03,-205.28 2161.73,-204.29 2166.36,-203.17"/>
<polygon fill="#63b8ff" stroke="#63b8ff" points="2167.5,-206.49 2176.28,-200.56 2165.72,-199.72 2167.5,-206.49"/>
</a>
</g>
</g>
<!-- Node32 -->
<g id="Node000032" class="node">
<title>Node32</title>
<g id="a_Node000032"><a xlink:title=" ">
<polygon fill="#e0e0e0" stroke="#999999" points="2347.5,-200.5 2261.5,-200.5 2261.5,-181.5 2347.5,-181.5 2347.5,-200.5"/>
<text text-anchor="middle" x="2304.5" y="-188.5" font-family="Helvetica,sans-Serif" font-size="10.00">unordered_set</text>
</a>
</g>
</g>
<!-- Node1&#45;&gt;Node32 -->
<g id="edge47_Node000001_Node000032" class="edge">
<title>Node1&#45;&gt;Node32</title>
<g id="a_edge47_Node000001_Node000032"><a xlink:title=" ">
<path fill="none" stroke="#63b8ff" d="M1175.71,-250.04C1359.61,-248.02 2039.72,-238.44 2252.5,-206 2257.33,-205.26 2262.35,-204.24 2267.29,-203.09"/>
<polygon fill="#63b8ff" stroke="#63b8ff" points="2268.38,-206.42 2277.22,-200.57 2266.66,-199.64 2268.38,-206.42"/>
</a>
</g>
</g>
<!-- Node2&#45;&gt;Node3 -->
<g id="edge2_Node000002_Node000003" class="edge">
<title>Node2&#45;&gt;Node3</title>
<g id="a_edge2_Node000002_Node000003"><a xlink:title=" ">
<path fill="none" stroke="#63b8ff" d="M126.65,-181.37C115.07,-171.21 95.62,-154.16 81.36,-141.65"/>
<polygon fill="#63b8ff" stroke="#63b8ff" points="83.48,-138.87 73.66,-134.91 78.87,-144.13 83.48,-138.87"/>
</a>
</g>
</g>
<!-- Node2&#45;&gt;Node4 -->
<g id="edge3_Node000002_Node000004" class="edge">
<title>Node2&#45;&gt;Node4</title>
<g id="a_edge3_Node000002_Node000004"><a xlink:title=" ">
<path fill="none" stroke="#63b8ff" d="M143.24,-181.37C150.88,-171.59 163.51,-155.42 173.16,-143.08"/>
<polygon fill="#63b8ff" stroke="#63b8ff" points="176.14,-144.94 179.54,-134.91 170.63,-140.63 176.14,-144.94"/>
</a>
</g>
</g>
<!-- Node5&#45;&gt;Node6 -->
<g id="edge5_Node000005_Node000006" class="edge">
<title>Node5&#45;&gt;Node6</title>
<g id="a_edge5_Node000005_Node000006"><a xlink:title=" ">
<path fill="none" stroke="#63b8ff" d="M389.9,-181.37C408.8,-171.99 439.58,-156.72 464.03,-144.59"/>
<polygon fill="#63b8ff" stroke="#63b8ff" points="465.65,-147.7 473.05,-140.12 462.53,-141.42 465.65,-147.7"/>
</a>
</g>
</g>
<!-- Node7&#45;&gt;Node6 -->
<g id="edge21_Node000007_Node000006" class="edge">
<title>Node7&#45;&gt;Node6</title>
<g id="a_edge21_Node000007_Node000006"><a xlink:title=" ">
<path fill="none" stroke="#63b8ff" d="M642.52,-181.37C618.1,-171.78 578.02,-156.05 546.82,-143.8"/>
<polygon fill="#63b8ff" stroke="#63b8ff" points="548.04,-140.51 537.45,-140.12 545.48,-147.03 548.04,-140.51"/>
</a>
</g>
</g>
<!-- Node7&#45;&gt;Node8 -->
<g id="edge7_Node000007_Node000008" class="edge">
<title>Node7&#45;&gt;Node8</title>
<g id="a_edge7_Node000007_Node000008"><a xlink:title=" ">
<path fill="none" stroke="#63b8ff" d="M663.42,-181.37C662.26,-172.07 660.37,-156.98 658.86,-144.9"/>
<polygon fill="#63b8ff" stroke="#63b8ff" points="662.33,-144.39 657.61,-134.91 655.38,-145.26 662.33,-144.39"/>
</a>
</g>
</g>
<!-- Node18 -->
<g id="Node000018" class="node">
<title>Node18</title>
<g id="a_Node000018"><a xlink:title=" ">
<polygon fill="#e0e0e0" stroke="#999999" points="831,-74 784,-74 784,-55 831,-55 831,-74"/>
<text text-anchor="middle" x="807.5" y="-62" font-family="Helvetica,sans-Serif" font-size="10.00">vector</text>
</a>
</g>
</g>
<!-- Node7&#45;&gt;Node18 -->
<g id="edge22_Node000007_Node000018" class="edge">
<title>Node7&#45;&gt;Node18</title>
<g id="a_edge22_Node000007_Node000018"><a xlink:title=" ">
<path fill="none" stroke="#63b8ff" d="M674.33,-181.44C698.21,-160.65 759.54,-107.26 789.91,-80.81"/>
<polygon fill="#63b8ff" stroke="#63b8ff" points="792.36,-83.32 797.6,-74.12 787.76,-78.04 792.36,-83.32"/>
</a>
</g>
</g>
<!-- Node9 -->
<g id="Node000009" class="node">
<title>Node9</title>
<g id="a_Node000009"><a xlink:href="Param_8hpp.html" target="_top" xlink:title=" ">
<polygon fill="white" stroke="#666666" points="472.5,-74 404.5,-74 404.5,-55 472.5,-55 472.5,-74"/>
<text text-anchor="middle" x="438.5" y="-62" font-family="Helvetica,sans-Serif" font-size="10.00">Param.hpp</text>
</a>
</g>
</g>
<!-- Node8&#45;&gt;Node9 -->
<g id="edge8_Node000008_Node000009" class="edge">
<title>Node8&#45;&gt;Node9</title>
<g id="a_edge8_Node000008_Node000009"><a xlink:title=" ">
<path fill="none" stroke="#63b8ff" d="M624.8,-115.49C586.54,-105.23 522.09,-87.93 479.92,-76.62"/>
<polygon fill="#63b8ff" stroke="#63b8ff" points="480.8,-73.23 470.24,-74.02 478.99,-79.99 480.8,-73.23"/>
</a>
</g>
</g>
<!-- Node10 -->
<g id="Node000010" class="node">
<title>Node10</title>
<g id="a_Node000010"><a xlink:title=" ">
<polygon fill="#e0e0e0" stroke="#999999" points="576,-19 507,-19 507,0 576,0 576,-19"/>
<text text-anchor="middle" x="541.5" y="-7" font-family="Helvetica,sans-Serif" font-size="10.00">fmt/color.h</text>
</a>
</g>
</g>
<!-- Node8&#45;&gt;Node10 -->
<g id="edge15_Node000008_Node000010" class="edge">
<title>Node8&#45;&gt;Node10</title>
<g id="a_edge15_Node000008_Node000010"><a xlink:title=" ">
<path fill="none" stroke="#63b8ff" d="M680.42,-115.44C710.39,-103.41 755.53,-80.14 735.5,-55 733.13,-52.03 642.39,-32.12 585.86,-19.96"/>
<polygon fill="#63b8ff" stroke="#63b8ff" points="586.59,-16.54 576.08,-17.86 585.12,-23.38 586.59,-16.54"/>
</a>
</g>
</g>
<!-- Node11 -->
<g id="Node000011" class="node">
<title>Node11</title>
<g id="a_Node000011"><a xlink:title=" ">
<polygon fill="#e0e0e0" stroke="#999999" points="271,-19 204,-19 204,0 271,0 271,-19"/>
<text text-anchor="middle" x="237.5" y="-7" font-family="Helvetica,sans-Serif" font-size="10.00">fmt/core.h</text>
</a>
</g>
</g>
<!-- Node8&#45;&gt;Node11 -->
<g id="edge16_Node000008_Node000011" class="edge">
<title>Node8&#45;&gt;Node11</title>
<g id="a_edge16_Node000008_Node000011"><a xlink:title=" ">
<path fill="none" stroke="#63b8ff" d="M619.63,-115.43C610.17,-113.44 599.99,-111.48 590.5,-110 510.84,-97.62 283.6,-133.77 229.5,-74 218.46,-61.8 222.87,-42.47 228.54,-28.34"/>
<polygon fill="#63b8ff" stroke="#63b8ff" points="231.77,-29.7 232.7,-19.15 225.39,-26.82 231.77,-29.7"/>
</a>
</g>
</g>
<!-- Node15 -->
<g id="Node000015" class="node">
<title>Node15</title>
<g id="a_Node000015"><a xlink:title=" ">
<polygon fill="#e0e0e0" stroke="#999999" points="333.5,-19 289.5,-19 289.5,0 333.5,0 333.5,-19"/>
<text text-anchor="middle" x="311.5" y="-7" font-family="Helvetica,sans-Serif" font-size="10.00">string</text>
</a>
</g>
</g>
<!-- Node8&#45;&gt;Node15 -->
<g id="edge19_Node000008_Node000015" class="edge">
<title>Node8&#45;&gt;Node15</title>
<g id="a_edge19_Node000008_Node000015"><a xlink:title=" ">
<path fill="none" stroke="#63b8ff" d="M617.1,-115.46C608.35,-113.62 599.12,-111.71 590.5,-110 504.05,-92.85 476.15,-109.53 395.5,-74 369,-62.33 343.14,-40.79 327.27,-26.06"/>
<polygon fill="#63b8ff" stroke="#63b8ff" points="329.58,-23.44 319.93,-19.07 324.75,-28.5 329.58,-23.44"/>
</a>
</g>
</g>
<!-- Node16 -->
<g id="Node000016" class="node">
<title>Node16</title>
<g id="a_Node000016"><a xlink:title=" ">
<polygon fill="#e0e0e0" stroke="#999999" points="610,-74 491,-74 491,-55 610,-55 610,-74"/>
<text text-anchor="middle" x="550.5" y="-62" font-family="Helvetica,sans-Serif" font-size="10.00">clang/AST/DeclCXX.h</text>
</a>
</g>
</g>
<!-- Node8&#45;&gt;Node16 -->
<g id="edge17_Node000008_Node000016" class="edge">
<title>Node8&#45;&gt;Node16</title>
<g id="a_edge17_Node000008_Node000016"><a xlink:title=" ">
<path fill="none" stroke="#63b8ff" d="M640.86,-115.37C623.56,-105.82 595.45,-90.31 575.17,-79.12"/>
<polygon fill="#63b8ff" stroke="#63b8ff" points="576.65,-75.93 566.2,-74.17 573.27,-82.06 576.65,-75.93"/>
</a>
</g>
</g>
<!-- Node17 -->
<g id="Node000017" class="node">
<title>Node17</title>
<g id="a_Node000017"><a xlink:title=" ">
<polygon fill="#e0e0e0" stroke="#999999" points="727,-74 628,-74 628,-55 727,-55 727,-74"/>
<text text-anchor="middle" x="677.5" y="-62" font-family="Helvetica,sans-Serif" font-size="10.00">clang/AST/Type.h</text>
</a>
</g>
</g>
<!-- Node8&#45;&gt;Node17 -->
<g id="edge18_Node000008_Node000017" class="edge">
<title>Node8&#45;&gt;Node17</title>
<g id="a_edge18_Node000008_Node000017"><a xlink:title=" ">
<path fill="none" stroke="#63b8ff" d="M659.6,-115.37C662.58,-107.07 667.17,-94.28 670.96,-83.72"/>
<polygon fill="#63b8ff" stroke="#63b8ff" points="674.3,-84.76 674.39,-74.17 667.72,-82.4 674.3,-84.76"/>
</a>
</g>
</g>
<!-- Node8&#45;&gt;Node18 -->
<g id="edge20_Node000008_Node000018" class="edge">
<title>Node8&#45;&gt;Node18</title>
<g id="a_edge20_Node000008_Node000018"><a xlink:title=" ">
<path fill="none" stroke="#63b8ff" d="M678.46,-115.49C704.18,-105.53 746.98,-88.95 776.18,-77.63"/>
<polygon fill="#63b8ff" stroke="#63b8ff" points="777.46,-80.89 785.52,-74.02 774.93,-74.37 777.46,-80.89"/>
</a>
</g>
</g>
<!-- Node9&#45;&gt;Node10 -->
<g id="edge9_Node000009_Node000010" class="edge">
<title>Node9&#45;&gt;Node10</title>
<g id="a_edge9_Node000009_Node000010"><a xlink:title=" ">
<path fill="none" stroke="#63b8ff" d="M455.05,-54.98C471.39,-46.57 496.63,-33.59 515.63,-23.81"/>
<polygon fill="#63b8ff" stroke="#63b8ff" points="517.36,-26.86 524.65,-19.17 514.16,-20.63 517.36,-26.86"/>
</a>
</g>
</g>
<!-- Node9&#45;&gt;Node11 -->
<g id="edge10_Node000009_Node000011" class="edge">
<title>Node9&#45;&gt;Node11</title>
<g id="a_edge10_Node000009_Node000011"><a xlink:title=" ">
<path fill="none" stroke="#63b8ff" d="M406.21,-54.98C371.88,-45.93 317.44,-31.58 279.73,-21.64"/>
<polygon fill="#63b8ff" stroke="#63b8ff" points="280.61,-18.25 270.05,-19.08 278.82,-25.02 280.61,-18.25"/>
</a>
</g>
</g>
<!-- Node12 -->
<g id="Node000012" class="node">
<title>Node12</title>
<g id="a_Node000012"><a xlink:title=" ">
<polygon fill="#e0e0e0" stroke="#999999" points="767.5,-19 669.5,-19 669.5,0 767.5,0 767.5,-19"/>
<text text-anchor="middle" x="718.5" y="-7" font-family="Helvetica,sans-Serif" font-size="10.00">clang/AST/Decl.h</text>
</a>
</g>
</g>
<!-- Node9&#45;&gt;Node12 -->
<g id="edge11_Node000009_Node000012" class="edge">
<title>Node9&#45;&gt;Node12</title>
<g id="a_edge11_Node000009_Node000012"><a xlink:title=" ">
<path fill="none" stroke="#63b8ff" d="M472.76,-56.7C475.72,-56.12 478.66,-55.55 481.5,-55 543.29,-43.09 614.22,-29.83 662.26,-20.9"/>
<polygon fill="#63b8ff" stroke="#63b8ff" points="662.96,-24.33 672.15,-19.07 661.68,-17.45 662.96,-24.33"/>
</a>
</g>
</g>
<!-- Node13 -->
<g id="Node000013" class="node">
<title>Node13</title>
<g id="a_Node000013"><a xlink:title=" ">
<polygon fill="#e0e0e0" stroke="#999999" points="489,-19 352,-19 352,0 489,0 489,-19"/>
<text text-anchor="middle" x="420.5" y="-7" font-family="Helvetica,sans-Serif" font-size="10.00">clang/AST/PrettyPrinter.h</text>
</a>
</g>
</g>
<!-- Node9&#45;&gt;Node13 -->
<g id="edge12_Node000009_Node000013" class="edge">
<title>Node9&#45;&gt;Node13</title>
<g id="a_edge12_Node000009_Node000013"><a xlink:title=" ">
<path fill="none" stroke="#63b8ff" d="M435.53,-54.75C433.14,-47.72 429.71,-37.62 426.73,-28.84"/>
<polygon fill="#63b8ff" stroke="#63b8ff" points="429.95,-27.43 423.42,-19.09 423.32,-29.68 429.95,-27.43"/>
</a>
</g>
</g>
<!-- Node14 -->
<g id="Node000014" class="node">
<title>Node14</title>
<g id="a_Node000014"><a xlink:title=" ">
<polygon fill="#e0e0e0" stroke="#999999" points="651,-19 594,-19 594,0 651,0 651,-19"/>
<text text-anchor="middle" x="622.5" y="-7" font-family="Helvetica,sans-Serif" font-size="10.00">ostream</text>
</a>
</g>
</g>
<!-- Node9&#45;&gt;Node14 -->
<g id="edge13_Node000009_Node000014" class="edge">
<title>Node9&#45;&gt;Node14</title>
<g id="a_edge13_Node000009_Node000014"><a xlink:title=" ">
<path fill="none" stroke="#63b8ff" d="M468.06,-54.98C499.59,-45.9 549.64,-31.49 584.18,-21.54"/>
<polygon fill="#63b8ff" stroke="#63b8ff" points="585.28,-24.86 593.92,-18.73 583.34,-18.14 585.28,-24.86"/>
</a>
</g>
</g>
<!-- Node9&#45;&gt;Node15 -->
<g id="edge14_Node000009_Node000015" class="edge">
<title>Node9&#45;&gt;Node15</title>
<g id="a_edge14_Node000009_Node000015"><a xlink:title=" ">
<path fill="none" stroke="#63b8ff" d="M418.1,-54.98C397.48,-46.38 365.39,-32.99 341.81,-23.15"/>
<polygon fill="#63b8ff" stroke="#63b8ff" points="342.85,-19.79 332.28,-19.17 340.16,-26.25 342.85,-19.79"/>
</a>
</g>
</g>
<!-- Node19&#45;&gt;Node6 -->
<g id="edge25_Node000019_Node000006" class="edge">
<title>Node19&#45;&gt;Node6</title>
<g id="a_edge25_Node000019_Node000006"><a xlink:title=" ">
<path fill="none" stroke="#63b8ff" d="M825.45,-181.44C765.95,-171.25 665.49,-154.06 592.19,-141.52"/>
<polygon fill="#63b8ff" stroke="#63b8ff" points="592.48,-138.02 582.04,-139.78 591.3,-144.92 592.48,-138.02"/>
</a>
</g>
</g>
<!-- Node19&#45;&gt;Node8 -->
<g id="edge24_Node000019_Node000008" class="edge">
<title>Node19&#45;&gt;Node8</title>
<g id="a_edge24_Node000019_Node000008"><a xlink:title=" ">
<path fill="none" stroke="#63b8ff" d="M845.96,-181.37C807.16,-170.03 738.9,-150.08 695.78,-137.48"/>
<polygon fill="#63b8ff" stroke="#63b8ff" points="696.5,-134.04 685.92,-134.6 694.53,-140.76 696.5,-134.04"/>
</a>
</g>
</g>
<!-- Node19&#45;&gt;Node18 -->
<g id="edge26_Node000019_Node000018" class="edge">
<title>Node19&#45;&gt;Node18</title>
<g id="a_edge26_Node000019_Node000018"><a xlink:title=" ">
<path fill="none" stroke="#63b8ff" d="M870.83,-181.44C859.76,-161.19 831.79,-109.97 817,-82.9"/>
<polygon fill="#63b8ff" stroke="#63b8ff" points="820.07,-81.22 812.21,-74.12 813.93,-84.57 820.07,-81.22"/>
</a>
</g>
</g>
<!-- Node20&#45;&gt;Node10 -->
<g id="edge28_Node000020_Node000010" class="edge">
<title>Node20&#45;&gt;Node10</title>
<g id="a_edge28_Node000020_Node000010"><a xlink:title=" ">
<path fill="none" stroke="#63b8ff" d="M333.35,-54.98C378.12,-45.42 450.61,-29.92 497.15,-19.98"/>
<polygon fill="#63b8ff" stroke="#63b8ff" points="497.91,-23.4 506.95,-17.88 496.44,-16.55 497.91,-23.4"/>
</a>
</g>
</g>
<!-- Node20&#45;&gt;Node11 -->
<g id="edge29_Node000020_Node000011" class="edge">
<title>Node20&#45;&gt;Node11</title>
<g id="a_edge29_Node000020_Node000011"><a xlink:title=" ">
<path fill="none" stroke="#63b8ff" d="M284.5,-54.98C276.31,-47.23 263.99,-35.58 254.03,-26.14"/>
<polygon fill="#63b8ff" stroke="#63b8ff" points="256.33,-23.5 246.66,-19.17 251.52,-28.59 256.33,-23.5"/>
</a>
</g>
</g>
<!-- Node20&#45;&gt;Node15 -->
<g id="edge30_Node000020_Node000015" class="edge">
<title>Node20&#45;&gt;Node15</title>
<g id="a_edge30_Node000020_Node000015"><a xlink:title=" ">
<path fill="none" stroke="#63b8ff" d="M296.47,-54.75C298.86,-47.72 302.29,-37.62 305.27,-28.84"/>
<polygon fill="#63b8ff" stroke="#63b8ff" points="308.68,-29.68 308.58,-19.09 302.05,-27.43 308.68,-29.68"/>
</a>
</g>
</g>
<!-- Node21&#45;&gt;Node22 -->
<g id="edge33_Node000021_Node000022" class="edge">
<title>Node21&#45;&gt;Node22</title>
<g id="a_edge33_Node000021_Node000022"><a xlink:title=" ">
<path fill="none" stroke="#63b8ff" d="M1047.43,-181.37C1054.09,-171.69 1065.06,-155.74 1073.51,-143.44"/>
<polygon fill="#63b8ff" stroke="#63b8ff" points="1076.6,-145.13 1079.38,-134.91 1070.83,-141.16 1076.6,-145.13"/>
</a>
</g>
</g>
</g>
</svg>
