<?xml version="1.0" encoding="UTF-8" standalone="no"?>
<!DOCTYPE svg PUBLIC "-//W3C//DTD SVG 1.1//EN"
 "http://www.w3.org/Graphics/SVG/1.1/DTD/svg11.dtd">
<!-- Generated by graphviz version 2.43.0 (0)
 -->
<!-- Title: Instantiator.cpp Pages: 1 -->
<svg width="3667pt" height="274pt"
 viewBox="0.00 0.00 3666.50 274.00" xmlns="http://www.w3.org/2000/svg" xmlns:xlink="http://www.w3.org/1999/xlink">
<g id="graph0" class="graph" transform="scale(1 1) rotate(0) translate(4 270)">
<title>Instantiator.cpp</title>
<!-- Node1 -->
<g id="node1" class="node">
<title>Node1</title>
<g id="a_node1"><a xlink:title=" ">
<polygon fill="#bfbfbf" stroke="black" points="1922,-246.5 1922,-265.5 2014,-265.5 2014,-246.5 1922,-246.5"/>
<text text-anchor="middle" x="1968" y="-253.5" font-family="Helvetica,sans-Serif" font-size="10.00">Instantiator.cpp</text>
</a>
</g>
</g>
<!-- Node2 -->
<g id="node2" class="node">
<title>Node2</title>
<g id="a_node2"><a xlink:title=" ">
<polygon fill="none" stroke="#bfbfbf" points="0,-118 0,-137 60,-137 60,-118 0,-118"/>
<text text-anchor="middle" x="30" y="-125" font-family="Helvetica,sans-Serif" font-size="10.00">iostream</text>
</a>
</g>
</g>
<!-- Node1&#45;&gt;Node2 -->
<g id="edge1" class="edge">
<title>Node1&#45;&gt;Node2</title>
<path fill="none" stroke="midnightblue" d="M1921.68,-255.03C1690.69,-254.98 661.76,-252.36 345,-210 219.88,-193.27 189.7,-179.95 69,-143 66.43,-142.21 63.79,-141.35 61.15,-140.45"/>
<polygon fill="midnightblue" stroke="midnightblue" points="62.3,-137.15 51.71,-137.09 59.95,-143.74 62.3,-137.15"/>
</g>
<!-- Node3 -->
<g id="node3" class="node">
<title>Node3</title>
<g id="a_node3"><a xlink:title=" ">
<polygon fill="none" stroke="#bfbfbf" points="1783,-185 1783,-204 1833,-204 1833,-185 1783,-185"/>
<text text-anchor="middle" x="1808" y="-192" font-family="Helvetica,sans-Serif" font-size="10.00">ranges</text>
</a>
</g>
</g>
<!-- Node1&#45;&gt;Node3 -->
<g id="edge2" class="edge">
<title>Node1&#45;&gt;Node3</title>
<path fill="none" stroke="midnightblue" d="M1942.73,-246.48C1917.18,-237.74 1876.61,-223.55 1842,-210 1840.4,-209.37 1838.76,-208.72 1837.11,-208.05"/>
<polygon fill="midnightblue" stroke="midnightblue" points="1838.27,-204.74 1827.69,-204.14 1835.58,-211.21 1838.27,-204.74"/>
</g>
<!-- Node4 -->
<g id="node4" class="node">
<title>Node4</title>
<g id="a_node4"><a xlink:title=" ">
<polygon fill="none" stroke="#bfbfbf" points="1851,-185 1851,-204 1907,-204 1907,-185 1851,-185"/>
<text text-anchor="middle" x="1879" y="-192" font-family="Helvetica,sans-Serif" font-size="10.00">sstream</text>
</a>
</g>
</g>
<!-- Node1&#45;&gt;Node4 -->
<g id="edge3" class="edge">
<title>Node1&#45;&gt;Node4</title>
<path fill="none" stroke="midnightblue" d="M1955.25,-246.48C1940.97,-236.93 1917.6,-221.31 1900.49,-209.87"/>
<polygon fill="midnightblue" stroke="midnightblue" points="1901.99,-206.66 1891.73,-204.01 1898.1,-212.48 1901.99,-206.66"/>
</g>
<!-- Node5 -->
<g id="node5" class="node">
<title>Node5</title>
<g id="a_node5"><a xlink:title=" ">
<polygon fill="none" stroke="#bfbfbf" points="1925,-185 1925,-204 2011,-204 2011,-185 1925,-185"/>
<text text-anchor="middle" x="1968" y="-192" font-family="Helvetica,sans-Serif" font-size="10.00">unordered_set</text>
</a>
</g>
</g>
<!-- Node1&#45;&gt;Node5 -->
<g id="edge4" class="edge">
<title>Node1&#45;&gt;Node5</title>
<path fill="none" stroke="midnightblue" d="M1968,-246.48C1968,-238.08 1968,-224.98 1968,-214.16"/>
<polygon fill="midnightblue" stroke="midnightblue" points="1971.5,-214.01 1968,-204.01 1964.5,-214.01 1971.5,-214.01"/>
</g>
<!-- Node6 -->
<g id="node6" class="node">
<title>Node6</title>
<g id="a_node6"><a xlink:title=" ">
<polygon fill="none" stroke="#bfbfbf" points="2029,-185 2029,-204 2163,-204 2163,-185 2029,-185"/>
<text text-anchor="middle" x="2096" y="-192" font-family="Helvetica,sans-Serif" font-size="10.00">termcolor/termcolor.hpp</text>
</a>
</g>
</g>
<!-- Node1&#45;&gt;Node6 -->
<g id="edge5" class="edge">
<title>Node1&#45;&gt;Node6</title>
<path fill="none" stroke="midnightblue" d="M1986.34,-246.48C2007.82,-236.49 2043.62,-219.85 2068.45,-208.31"/>
<polygon fill="midnightblue" stroke="midnightblue" points="2070.1,-211.4 2077.69,-204.01 2067.15,-205.05 2070.1,-211.4"/>
</g>
<!-- Node7 -->
<g id="node7" class="node">
<title>Node7</title>
<g id="a_node7"><a xlink:title=" ">
<polygon fill="none" stroke="#bfbfbf" points="78,-112.5 78,-142.5 188,-142.5 188,-112.5 78,-112.5"/>
<text text-anchor="start" x="86" y="-130.5" font-family="Helvetica,sans-Serif" font-size="10.00">indicators/progress</text>
<text text-anchor="middle" x="133" y="-119.5" font-family="Helvetica,sans-Serif" font-size="10.00">_bar.hpp</text>
</a>
</g>
</g>
<!-- Node1&#45;&gt;Node7 -->
<g id="edge6" class="edge">
<title>Node1&#45;&gt;Node7</title>
<path fill="none" stroke="midnightblue" d="M1921.77,-254.65C1706.41,-252.84 800.17,-243.36 519,-210 402.97,-196.23 270.18,-164.62 194.48,-145.06"/>
<polygon fill="midnightblue" stroke="midnightblue" points="195.2,-141.63 184.64,-142.51 193.44,-148.41 195.2,-141.63"/>
</g>
<!-- Node8 -->
<g id="node8" class="node">
<title>Node8</title>
<g id="a_node8"><a xlink:title=" ">
<polygon fill="none" stroke="#bfbfbf" points="2181,-185 2181,-204 2339,-204 2339,-185 2181,-185"/>
<text text-anchor="middle" x="2260" y="-192" font-family="Helvetica,sans-Serif" font-size="10.00">indicators/cursor_control.hpp</text>
</a>
</g>
</g>
<!-- Node1&#45;&gt;Node8 -->
<g id="edge7" class="edge">
<title>Node1&#45;&gt;Node8</title>
<path fill="none" stroke="midnightblue" d="M2009.84,-246.48C2062.2,-235.8 2151.87,-217.53 2208.43,-206.01"/>
<polygon fill="midnightblue" stroke="midnightblue" points="2209.14,-209.44 2218.24,-204.01 2207.74,-202.58 2209.14,-209.44"/>
</g>
<!-- Node9 -->
<g id="node9" class="node">
<title>Node9</title>
<g id="a_node9"><a xlink:title=" ">
<polygon fill="none" stroke="#bfbfbf" points="2357.5,-179.5 2357.5,-209.5 2494.5,-209.5 2494.5,-179.5 2357.5,-179.5"/>
<text text-anchor="start" x="2365.5" y="-197.5" font-family="Helvetica,sans-Serif" font-size="10.00">indicators/indeterminate</text>
<text text-anchor="middle" x="2426" y="-186.5" font-family="Helvetica,sans-Serif" font-size="10.00">_progress_bar.hpp</text>
</a>
</g>
</g>
<!-- Node1&#45;&gt;Node9 -->
<g id="edge8" class="edge">
<title>Node1&#45;&gt;Node9</title>
<path fill="none" stroke="midnightblue" d="M2014.05,-250.54C2083.77,-243.56 2220.52,-229.04 2346.9,-210.1"/>
<polygon fill="midnightblue" stroke="midnightblue" points="2347.77,-213.51 2357.14,-208.56 2346.73,-206.59 2347.77,-213.51"/>
</g>
<!-- Node10 -->
<g id="node10" class="node">
<title>Node10</title>
<g id="a_node10"><a xlink:title=" ">
<polygon fill="none" stroke="#bfbfbf" points="2512.5,-185 2512.5,-204 2691.5,-204 2691.5,-185 2512.5,-185"/>
<text text-anchor="middle" x="2602" y="-192" font-family="Helvetica,sans-Serif" font-size="10.00">clang/Frontend/FrontendActions.h</text>
</a>
</g>
</g>
<!-- Node1&#45;&gt;Node10 -->
<g id="edge9" class="edge">
<title>Node1&#45;&gt;Node10</title>
<path fill="none" stroke="midnightblue" d="M2014.25,-252.07C2107.09,-245.98 2322.67,-230.77 2503,-210 2514.34,-208.69 2526.39,-207.1 2538.03,-205.46"/>
<polygon fill="midnightblue" stroke="midnightblue" points="2538.73,-208.89 2548.13,-204 2537.73,-201.96 2538.73,-208.89"/>
</g>
<!-- Node11 -->
<g id="node11" class="node">
<title>Node11</title>
<g id="a_node11"><a xlink:title=" ">
<polygon fill="none" stroke="#bfbfbf" points="2709.5,-179.5 2709.5,-209.5 2874.5,-209.5 2874.5,-179.5 2709.5,-179.5"/>
<text text-anchor="start" x="2717.5" y="-197.5" font-family="Helvetica,sans-Serif" font-size="10.00">clang/Tooling/CommonOptions</text>
<text text-anchor="middle" x="2792" y="-186.5" font-family="Helvetica,sans-Serif" font-size="10.00">Parser.h</text>
</a>
</g>
</g>
<!-- Node1&#45;&gt;Node11 -->
<g id="edge10" class="edge">
<title>Node1&#45;&gt;Node11</title>
<path fill="none" stroke="midnightblue" d="M2014.38,-253.68C2128.81,-250.09 2433.92,-238.52 2699.09,-210.02"/>
<polygon fill="midnightblue" stroke="midnightblue" points="2699.73,-213.47 2709.3,-208.91 2698.98,-206.51 2699.73,-213.47"/>
</g>
<!-- Node12 -->
<g id="node12" class="node">
<title>Node12</title>
<g id="a_node12"><a xlink:title=" ">
<polygon fill="none" stroke="#bfbfbf" points="206.5,-118 206.5,-137 333.5,-137 333.5,-118 206.5,-118"/>
<text text-anchor="middle" x="270" y="-125" font-family="Helvetica,sans-Serif" font-size="10.00">clang/Tooling/Tooling.h</text>
</a>
</g>
</g>
<!-- Node1&#45;&gt;Node12 -->
<g id="edge11" class="edge">
<title>Node1&#45;&gt;Node12</title>
<path fill="none" stroke="midnightblue" d="M1921.88,-254.19C1725.91,-250.63 961.47,-235.37 722,-210 572.77,-194.19 398.67,-157.58 316.92,-139.3"/>
<polygon fill="midnightblue" stroke="midnightblue" points="317.47,-135.83 306.94,-137.05 315.93,-142.66 317.47,-135.83"/>
</g>
<!-- Node13 -->
<g id="node13" class="node">
<title>Node13</title>
<g id="a_node13"><a xlink:title=" ">
<polygon fill="none" stroke="#bfbfbf" points="2892.5,-185 2892.5,-204 3053.5,-204 3053.5,-185 2892.5,-185"/>
<text text-anchor="middle" x="2973" y="-192" font-family="Helvetica,sans-Serif" font-size="10.00">llvm/Support/CommandLine.h</text>
</a>
</g>
</g>
<!-- Node1&#45;&gt;Node13 -->
<g id="edge12" class="edge">
<title>Node1&#45;&gt;Node13</title>
<path fill="none" stroke="midnightblue" d="M2014.32,-254.53C2148.87,-252.78 2551.22,-244.78 2883,-210 2893.85,-208.86 2905.37,-207.29 2916.43,-205.59"/>
<polygon fill="midnightblue" stroke="midnightblue" points="2917.09,-209.03 2926.42,-204.01 2915.99,-202.12 2917.09,-209.03"/>
</g>
<!-- Node14 -->
<g id="node14" class="node">
<title>Node14</title>
<g id="a_node14"><a xlink:title=" ">
<polygon fill="none" stroke="#bfbfbf" points="3071.5,-185 3071.5,-204 3208.5,-204 3208.5,-185 3071.5,-185"/>
<text text-anchor="middle" x="3140" y="-192" font-family="Helvetica,sans-Serif" font-size="10.00">clang/AST/ASTImporter.h</text>
</a>
</g>
</g>
<!-- Node1&#45;&gt;Node14 -->
<g id="edge13" class="edge">
<title>Node1&#45;&gt;Node14</title>
<path fill="none" stroke="midnightblue" d="M2014.04,-255.45C2164.89,-256.42 2657.77,-255.65 3062,-210 3071.15,-208.97 3080.83,-207.49 3090.15,-205.86"/>
<polygon fill="midnightblue" stroke="midnightblue" points="3090.87,-209.29 3100.08,-204.05 3089.62,-202.4 3090.87,-209.29"/>
</g>
<!-- Node15 -->
<g id="node15" class="node">
<title>Node15</title>
<g id="a_node15"><a xlink:title=" ">
<polygon fill="none" stroke="#bfbfbf" points="1549.5,-112.5 1549.5,-142.5 1710.5,-142.5 1710.5,-112.5 1549.5,-112.5"/>
<text text-anchor="start" x="1557.5" y="-130.5" font-family="Helvetica,sans-Serif" font-size="10.00">clang/ASTMatchers/ASTMatch</text>
<text text-anchor="middle" x="1630" y="-119.5" font-family="Helvetica,sans-Serif" font-size="10.00">Finder.h</text>
</a>
</g>
</g>
<!-- Node1&#45;&gt;Node15 -->
<g id="edge14" class="edge">
<title>Node1&#45;&gt;Node15</title>
<path fill="none" stroke="midnightblue" d="M1921.72,-250.27C1881.12,-244.75 1821.34,-233.22 1774,-210 1754.43,-200.4 1754.42,-190.66 1736,-179 1716.61,-166.72 1693.78,-155.48 1674.28,-146.73"/>
<polygon fill="midnightblue" stroke="midnightblue" points="1675.56,-143.47 1665,-142.64 1672.74,-149.88 1675.56,-143.47"/>
</g>
<!-- Node16 -->
<g id="node16" class="node">
<title>Node16</title>
<g id="a_node16"><a xlink:title=" ">
<polygon fill="none" stroke="#bfbfbf" points="3237.5,-118 3237.5,-137 3422.5,-137 3422.5,-118 3237.5,-118"/>
<text text-anchor="middle" x="3330" y="-125" font-family="Helvetica,sans-Serif" font-size="10.00">clang/ASTMatchers/ASTMatchers.h</text>
</a>
</g>
</g>
<!-- Node1&#45;&gt;Node16 -->
<g id="edge15" class="edge">
<title>Node1&#45;&gt;Node16</title>
<path fill="none" stroke="midnightblue" d="M2014.36,-255.28C2250.19,-256.5 3307.37,-259.2 3355,-210 3371.99,-192.45 3356.69,-163.67 3343.67,-145.42"/>
<polygon fill="midnightblue" stroke="midnightblue" points="3346.43,-143.27 3337.61,-137.41 3340.85,-147.49 3346.43,-143.27"/>
</g>
<!-- Node17 -->
<g id="node17" class="node">
<title>Node17</title>
<g id="a_node17"><a xlink:title=" ">
<polygon fill="none" stroke="#bfbfbf" points="3402.5,-179.5 3402.5,-209.5 3511.5,-209.5 3511.5,-179.5 3402.5,-179.5"/>
<text text-anchor="start" x="3410.5" y="-197.5" font-family="Helvetica,sans-Serif" font-size="10.00">clang/Rewrite/Core</text>
<text text-anchor="middle" x="3457" y="-186.5" font-family="Helvetica,sans-Serif" font-size="10.00">/Rewriter.h</text>
</a>
</g>
</g>
<!-- Node1&#45;&gt;Node17 -->
<g id="edge16" class="edge">
<title>Node1&#45;&gt;Node17</title>
<path fill="none" stroke="midnightblue" d="M2014.01,-254.63C2226.33,-252.75 3112.8,-243.02 3388,-210 3389.3,-209.84 3390.61,-209.68 3391.93,-209.5"/>
<polygon fill="midnightblue" stroke="midnightblue" points="3392.8,-212.9 3402.16,-207.93 3391.74,-205.98 3392.8,-212.9"/>
</g>
<!-- Node18 -->
<g id="node18" class="node">
<title>Node18</title>
<g id="a_node18"><a xlink:title=" ">
<polygon fill="none" stroke="#bfbfbf" points="3529.5,-179.5 3529.5,-209.5 3658.5,-209.5 3658.5,-179.5 3529.5,-179.5"/>
<text text-anchor="start" x="3537.5" y="-197.5" font-family="Helvetica,sans-Serif" font-size="10.00">clang/Rewrite/Frontend</text>
<text text-anchor="middle" x="3594" y="-186.5" font-family="Helvetica,sans-Serif" font-size="10.00">/Rewriters.h</text>
</a>
</g>
</g>
<!-- Node1&#45;&gt;Node18 -->
<g id="edge17" class="edge">
<title>Node1&#45;&gt;Node18</title>
<path fill="none" stroke="midnightblue" d="M2014.13,-254.7C2236.18,-253.12 3197.01,-244.43 3518.95,-210.08"/>
<polygon fill="midnightblue" stroke="midnightblue" points="3519.65,-213.53 3529.21,-208.95 3518.89,-206.57 3519.65,-213.53"/>
</g>
<!-- Node19 -->
<g id="node19" class="node">
<title>Node19</title>
<g id="a_node19"><a xlink:href="ASTBuilderAction_8hpp.html" target="_top" xlink:title=" ">
<polygon fill="none" stroke="black" points="731.5,-185 731.5,-204 892.5,-204 892.5,-185 731.5,-185"/>
<text text-anchor="middle" x="812" y="-192" font-family="Helvetica,sans-Serif" font-size="10.00">Actions/ASTBuilderAction.hpp</text>
</a>
</g>
</g>
<!-- Node1&#45;&gt;Node19 -->
<g id="edge18" class="edge">
<title>Node1&#45;&gt;Node19</title>
<path fill="none" stroke="midnightblue" d="M1921.62,-252.73C1789.57,-246.24 1400.26,-227.01 1077,-210 1018.98,-206.95 953.83,-203.38 902.64,-200.55"/>
<polygon fill="midnightblue" stroke="midnightblue" points="902.77,-197.06 892.6,-200 902.39,-204.05 902.77,-197.06"/>
</g>
<!-- Node27 -->
<g id="node27" class="node">
<title>Node27</title>
<g id="a_node27"><a xlink:href="DeleteInstantiations_8hpp.html" target="_top" xlink:title=" ">
<polygon fill="none" stroke="black" points="1540.5,-185 1540.5,-204 1727.5,-204 1727.5,-185 1540.5,-185"/>
<text text-anchor="middle" x="1634" y="-192" font-family="Helvetica,sans-Serif" font-size="10.00">Callbacks/DeleteInstantiations.hpp</text>
</a>
</g>
</g>
<!-- Node1&#45;&gt;Node27 -->
<g id="edge29" class="edge">
<title>Node1&#45;&gt;Node27</title>
<path fill="none" stroke="midnightblue" d="M1921.91,-246.79C1861.95,-236.11 1757.16,-217.44 1691.9,-205.81"/>
<polygon fill="midnightblue" stroke="midnightblue" points="1692.23,-202.32 1681.78,-204.01 1691.01,-209.21 1692.23,-202.32"/>
</g>
<!-- Node28 -->
<g id="node28" class="node">
<title>Node28</title>
<g id="a_node28"><a xlink:href="GetNeededInstantiations_8hpp.html" target="_top" xlink:title=" ">
<polygon fill="none" stroke="black" points="1313.5,-185 1313.5,-204 1522.5,-204 1522.5,-185 1313.5,-185"/>
<text text-anchor="middle" x="1418" y="-192" font-family="Helvetica,sans-Serif" font-size="10.00">Callbacks/GetNeededInstantiations.hpp</text>
</a>
</g>
</g>
<!-- Node1&#45;&gt;Node28 -->
<g id="edge31" class="edge">
<title>Node1&#45;&gt;Node28</title>
<path fill="none" stroke="midnightblue" d="M1921.71,-250.62C1841.9,-242.97 1673.25,-226.45 1531,-210 1518.52,-208.56 1505.28,-206.94 1492.42,-205.32"/>
<polygon fill="midnightblue" stroke="midnightblue" points="1492.57,-201.81 1482.21,-204.02 1491.69,-208.75 1492.57,-201.81"/>
</g>
<!-- Node29 -->
<g id="node29" class="node">
<title>Node29</title>
<g id="a_node29"><a xlink:href="Injection_8hpp.html" target="_top" xlink:title=" ">
<polygon fill="none" stroke="black" points="1446,-118 1446,-137 1526,-137 1526,-118 1446,-118"/>
<text text-anchor="middle" x="1486" y="-125" font-family="Helvetica,sans-Serif" font-size="10.00">Injection.hpp</text>
</a>
</g>
</g>
<!-- Node1&#45;&gt;Node29 -->
<g id="edge51" class="edge">
<title>Node1&#45;&gt;Node29</title>
<path fill="none" stroke="midnightblue" d="M1921.77,-254.32C1747.42,-251.52 1138.14,-239.65 1110,-210 1100.52,-200.01 1100.93,-189.37 1110,-179 1115.33,-172.9 1334.55,-146.35 1435.75,-134.38"/>
<polygon fill="midnightblue" stroke="midnightblue" points="1436.22,-137.85 1445.74,-133.2 1435.4,-130.9 1436.22,-137.85"/>
</g>
<!-- Node40 -->
<g id="node40" class="node">
<title>Node40</title>
<g id="a_node40"><a xlink:href="InjectInstantiation_8hpp.html" target="_top" xlink:title=" ">
<polygon fill="none" stroke="black" points="1119,-185 1119,-204 1295,-204 1295,-185 1119,-185"/>
<text text-anchor="middle" x="1207" y="-192" font-family="Helvetica,sans-Serif" font-size="10.00">Callbacks/InjectInstantiation.hpp</text>
</a>
</g>
</g>
<!-- Node1&#45;&gt;Node40 -->
<g id="edge47" class="edge">
<title>Node1&#45;&gt;Node40</title>
<path fill="none" stroke="midnightblue" d="M1921.6,-253.15C1813.24,-248.53 1535.17,-235.07 1304,-210 1292.61,-208.76 1280.5,-207.18 1268.85,-205.51"/>
<polygon fill="midnightblue" stroke="midnightblue" points="1269.15,-202.01 1258.75,-204.03 1268.14,-208.94 1269.15,-202.01"/>
</g>
<!-- Node41 -->
<g id="node41" class="node">
<title>Node41</title>
<g id="a_node41"><a xlink:href="Matcher_8hpp.html" target="_top" xlink:title="AST matcher expressions to filter the relevant nodes for template instantiations.">
<polygon fill="none" stroke="black" points="3226.5,-185 3226.5,-204 3345.5,-204 3345.5,-185 3226.5,-185"/>
<text text-anchor="middle" x="3286" y="-192" font-family="Helvetica,sans-Serif" font-size="10.00">Matcher/Matcher.hpp</text>
</a>
</g>
</g>
<!-- Node1&#45;&gt;Node41 -->
<g id="edge52" class="edge">
<title>Node1&#45;&gt;Node41</title>
<path fill="none" stroke="midnightblue" d="M2014.26,-254.39C2210.79,-251.65 2977.39,-239.27 3217,-210 3224.86,-209.04 3233.15,-207.64 3241.16,-206.08"/>
<polygon fill="midnightblue" stroke="midnightblue" points="3242,-209.48 3251.09,-204.05 3240.59,-202.62 3242,-209.48"/>
</g>
<!-- Node19&#45;&gt;Node2 -->
<g id="edge19" class="edge">
<title>Node19&#45;&gt;Node2</title>
<path fill="none" stroke="midnightblue" d="M731.32,-190.95C565.9,-185.23 193.42,-169.77 69,-143 65.75,-142.3 62.41,-141.39 59.12,-140.35"/>
<polygon fill="midnightblue" stroke="midnightblue" points="60.11,-136.99 49.51,-137.01 57.8,-143.6 60.11,-136.99"/>
</g>
<!-- Node19&#45;&gt;Node7 -->
<g id="edge22" class="edge">
<title>Node19&#45;&gt;Node7</title>
<path fill="none" stroke="midnightblue" d="M731.48,-190.51C615.54,-185.39 394.82,-172.66 198.01,-143.01"/>
<polygon fill="midnightblue" stroke="midnightblue" points="198.48,-139.54 188.06,-141.49 197.42,-146.46 198.48,-139.54"/>
</g>
<!-- Node19&#45;&gt;Node12 -->
<g id="edge28" class="edge">
<title>Node19&#45;&gt;Node12</title>
<path fill="none" stroke="midnightblue" d="M731.22,-187C637.53,-178.95 478.6,-163.73 343,-143 335.45,-141.85 327.5,-140.45 319.73,-138.99"/>
<polygon fill="midnightblue" stroke="midnightblue" points="320.15,-135.51 309.67,-137.04 318.82,-142.38 320.15,-135.51"/>
</g>
<!-- Node20 -->
<g id="node20" class="node">
<title>Node20</title>
<g id="a_node20"><a xlink:title=" ">
<polygon fill="none" stroke="#bfbfbf" points="1094,-118 1094,-137 1152,-137 1152,-118 1094,-118"/>
<text text-anchor="middle" x="1123" y="-125" font-family="Helvetica,sans-Serif" font-size="10.00">memory</text>
</a>
</g>
</g>
<!-- Node19&#45;&gt;Node20 -->
<g id="edge20" class="edge">
<title>Node19&#45;&gt;Node20</title>
<path fill="none" stroke="midnightblue" d="M876.19,-184.99C931.99,-176.8 1014.7,-162.74 1085,-143 1087.65,-142.26 1090.37,-141.4 1093.09,-140.49"/>
<polygon fill="midnightblue" stroke="midnightblue" points="1094.5,-143.7 1102.72,-137.02 1092.12,-137.12 1094.5,-143.7"/>
</g>
<!-- Node21 -->
<g id="node21" class="node">
<title>Node21</title>
<g id="a_node21"><a xlink:title=" ">
<polygon fill="none" stroke="#bfbfbf" points="1190.5,-56.5 1190.5,-75.5 1237.5,-75.5 1237.5,-56.5 1190.5,-56.5"/>
<text text-anchor="middle" x="1214" y="-63.5" font-family="Helvetica,sans-Serif" font-size="10.00">vector</text>
</a>
</g>
</g>
<!-- Node19&#45;&gt;Node21 -->
<g id="edge21" class="edge">
<title>Node19&#45;&gt;Node21</title>
<path fill="none" stroke="midnightblue" d="M892.64,-189.22C981.42,-183.23 1117.36,-169.92 1161,-143 1182.97,-129.44 1198.23,-103.01 1206.55,-85.18"/>
<polygon fill="midnightblue" stroke="midnightblue" points="1209.84,-86.4 1210.65,-75.83 1203.43,-83.59 1209.84,-86.4"/>
</g>
<!-- Node22 -->
<g id="node22" class="node">
<title>Node22</title>
<g id="a_node22"><a xlink:title=" ">
<polygon fill="none" stroke="#bfbfbf" points="1208.5,-118 1208.5,-137 1351.5,-137 1351.5,-118 1208.5,-118"/>
<text text-anchor="middle" x="1280" y="-125" font-family="Helvetica,sans-Serif" font-size="10.00">clang/Basic/FileManager.h</text>
</a>
</g>
</g>
<!-- Node19&#45;&gt;Node22 -->
<g id="edge23" class="edge">
<title>Node19&#45;&gt;Node22</title>
<path fill="none" stroke="midnightblue" d="M882.16,-184.98C958.86,-175.5 1085.34,-159.34 1194,-143 1202.91,-141.66 1212.32,-140.16 1221.52,-138.65"/>
<polygon fill="midnightblue" stroke="midnightblue" points="1222.09,-142.1 1231.38,-137.01 1220.94,-135.2 1222.09,-142.1"/>
</g>
<!-- Node23 -->
<g id="node23" class="node">
<title>Node23</title>
<g id="a_node23"><a xlink:title=" ">
<polygon fill="none" stroke="#bfbfbf" points="352,-118 352,-137 492,-137 492,-118 352,-118"/>
<text text-anchor="middle" x="422" y="-125" font-family="Helvetica,sans-Serif" font-size="10.00">clang/Frontend/ASTUnit.h</text>
</a>
</g>
</g>
<!-- Node19&#45;&gt;Node23 -->
<g id="edge24" class="edge">
<title>Node19&#45;&gt;Node23</title>
<path fill="none" stroke="midnightblue" d="M757.45,-184.99C695.31,-175.21 590.74,-158.52 501,-143 493.37,-141.68 485.33,-140.25 477.42,-138.82"/>
<polygon fill="midnightblue" stroke="midnightblue" points="477.97,-135.36 467.51,-137.02 476.72,-142.25 477.97,-135.36"/>
</g>
<!-- Node24 -->
<g id="node24" class="node">
<title>Node24</title>
<g id="a_node24"><a xlink:title=" ">
<polygon fill="none" stroke="#bfbfbf" points="510,-118 510,-137 696,-137 696,-118 510,-118"/>
<text text-anchor="middle" x="603" y="-125" font-family="Helvetica,sans-Serif" font-size="10.00">clang/Frontend/CompilerInstance.h</text>
</a>
</g>
</g>
<!-- Node19&#45;&gt;Node24 -->
<g id="edge25" class="edge">
<title>Node19&#45;&gt;Node24</title>
<path fill="none" stroke="midnightblue" d="M784.25,-184.87C747.21,-173.35 681.53,-152.92 640.22,-140.08"/>
<polygon fill="midnightblue" stroke="midnightblue" points="641.12,-136.69 630.54,-137.06 639.04,-143.38 641.12,-136.69"/>
</g>
<!-- Node25 -->
<g id="node25" class="node">
<title>Node25</title>
<g id="a_node25"><a xlink:title=" ">
<polygon fill="none" stroke="#bfbfbf" points="714,-118 714,-137 910,-137 910,-118 714,-118"/>
<text text-anchor="middle" x="812" y="-125" font-family="Helvetica,sans-Serif" font-size="10.00">clang/Frontend/CompilerInvocation.h</text>
</a>
</g>
</g>
<!-- Node19&#45;&gt;Node25 -->
<g id="edge26" class="edge">
<title>Node19&#45;&gt;Node25</title>
<path fill="none" stroke="midnightblue" d="M812,-184.73C812,-175.18 812,-159.62 812,-147.28"/>
<polygon fill="midnightblue" stroke="midnightblue" points="815.5,-147.13 812,-137.13 808.5,-147.13 815.5,-147.13"/>
</g>
<!-- Node26 -->
<g id="node26" class="node">
<title>Node26</title>
<g id="a_node26"><a xlink:title=" ">
<polygon fill="none" stroke="#bfbfbf" points="927.5,-112.5 927.5,-142.5 1076.5,-142.5 1076.5,-112.5 927.5,-112.5"/>
<text text-anchor="start" x="935.5" y="-130.5" font-family="Helvetica,sans-Serif" font-size="10.00">clang/Serialization</text>
<text text-anchor="middle" x="1002" y="-119.5" font-family="Helvetica,sans-Serif" font-size="10.00">/PCHContainerOperations.h</text>
</a>
</g>
</g>
<!-- Node19&#45;&gt;Node26 -->
<g id="edge27" class="edge">
<title>Node19&#45;&gt;Node26</title>
<path fill="none" stroke="midnightblue" d="M837.23,-184.87C866.23,-174.95 914.58,-158.41 951.42,-145.81"/>
<polygon fill="midnightblue" stroke="midnightblue" points="952.67,-149.08 960.99,-142.53 950.4,-142.45 952.67,-149.08"/>
</g>
<!-- Node27&#45;&gt;Node15 -->
<g id="edge30" class="edge">
<title>Node27&#45;&gt;Node15</title>
<path fill="none" stroke="midnightblue" d="M1633.46,-184.73C1632.96,-176.54 1632.18,-163.92 1631.49,-152.71"/>
<polygon fill="midnightblue" stroke="midnightblue" points="1634.97,-152.36 1630.87,-142.59 1627.99,-152.79 1634.97,-152.36"/>
</g>
<!-- Node28&#45;&gt;Node15 -->
<g id="edge33" class="edge">
<title>Node28&#45;&gt;Node15</title>
<path fill="none" stroke="midnightblue" d="M1446.15,-184.87C1478.79,-174.86 1533.37,-158.13 1574.61,-145.48"/>
<polygon fill="midnightblue" stroke="midnightblue" points="1575.71,-148.81 1584.25,-142.53 1573.66,-142.11 1575.71,-148.81"/>
</g>
<!-- Node28&#45;&gt;Node21 -->
<g id="edge32" class="edge">
<title>Node28&#45;&gt;Node21</title>
<path fill="none" stroke="midnightblue" d="M1416.24,-184.9C1412.38,-168.24 1401.56,-131.49 1378,-112 1377.68,-111.73 1295.3,-89.2 1247.44,-76.13"/>
<polygon fill="midnightblue" stroke="midnightblue" points="1248.36,-72.75 1237.79,-73.49 1246.51,-79.51 1248.36,-72.75"/>
</g>
<!-- Node28&#45;&gt;Node29 -->
<g id="edge34" class="edge">
<title>Node28&#45;&gt;Node29</title>
<path fill="none" stroke="midnightblue" d="M1427.17,-184.73C1437.98,-174.4 1456.15,-157.04 1469.44,-144.33"/>
<polygon fill="midnightblue" stroke="midnightblue" points="1472.16,-146.57 1476.97,-137.13 1467.33,-141.51 1472.16,-146.57"/>
</g>
<!-- Node29&#45;&gt;Node21 -->
<g id="edge37" class="edge">
<title>Node29&#45;&gt;Node21</title>
<path fill="none" stroke="midnightblue" d="M1455.82,-118C1448.08,-115.93 1439.76,-113.79 1432,-112 1353.42,-93.83 1330.28,-94.92 1247.57,-75.98"/>
<polygon fill="midnightblue" stroke="midnightblue" points="1248.27,-72.55 1237.74,-73.7 1246.69,-79.37 1248.27,-72.55"/>
</g>
<!-- Node30 -->
<g id="node30" class="node">
<title>Node30</title>
<g id="a_node30"><a xlink:title=" ">
<polygon fill="none" stroke="#bfbfbf" points="1647,-56.5 1647,-75.5 1703,-75.5 1703,-56.5 1647,-56.5"/>
<text text-anchor="middle" x="1675" y="-63.5" font-family="Helvetica,sans-Serif" font-size="10.00">optional</text>
</a>
</g>
</g>
<!-- Node29&#45;&gt;Node30 -->
<g id="edge35" class="edge">
<title>Node29&#45;&gt;Node30</title>
<path fill="none" stroke="midnightblue" d="M1513.08,-117.98C1545.92,-107.64 1601.43,-90.16 1638.15,-78.6"/>
<polygon fill="midnightblue" stroke="midnightblue" points="1639.48,-81.85 1647.97,-75.51 1637.38,-75.17 1639.48,-81.85"/>
</g>
<!-- Node31 -->
<g id="node31" class="node">
<title>Node31</title>
<g id="a_node31"><a xlink:title=" ">
<polygon fill="none" stroke="#bfbfbf" points="1679,-0.5 1679,-19.5 1723,-19.5 1723,-0.5 1679,-0.5"/>
<text text-anchor="middle" x="1701" y="-7.5" font-family="Helvetica,sans-Serif" font-size="10.00">string</text>
</a>
</g>
</g>
<!-- Node29&#45;&gt;Node31 -->
<g id="edge36" class="edge">
<title>Node29&#45;&gt;Node31</title>
<path fill="none" stroke="midnightblue" d="M1516.48,-118C1524.14,-115.95 1532.35,-113.83 1540,-112 1615.97,-93.87 1662.76,-136.62 1712,-76 1722.68,-62.85 1717.33,-43.17 1710.92,-28.91"/>
<polygon fill="midnightblue" stroke="midnightblue" points="1713.89,-27.02 1706.27,-19.65 1707.63,-30.16 1713.89,-27.02"/>
</g>
<!-- Node32 -->
<g id="node32" class="node">
<title>Node32</title>
<g id="a_node32"><a xlink:title=" ">
<polygon fill="none" stroke="#bfbfbf" points="1256,-56.5 1256,-75.5 1374,-75.5 1374,-56.5 1256,-56.5"/>
<text text-anchor="middle" x="1315" y="-63.5" font-family="Helvetica,sans-Serif" font-size="10.00">llvm/ADT/StringRef.h</text>
</a>
</g>
</g>
<!-- Node29&#45;&gt;Node32 -->
<g id="edge38" class="edge">
<title>Node29&#45;&gt;Node32</title>
<path fill="none" stroke="midnightblue" d="M1461.5,-117.98C1432.04,-107.72 1382.42,-90.46 1349.2,-78.9"/>
<polygon fill="midnightblue" stroke="midnightblue" points="1350.05,-75.49 1339.45,-75.51 1347.75,-82.1 1350.05,-75.49"/>
</g>
<!-- Node33 -->
<g id="node33" class="node">
<title>Node33</title>
<g id="a_node33"><a xlink:title=" ">
<polygon fill="none" stroke="#bfbfbf" points="1392.5,-56.5 1392.5,-75.5 1511.5,-75.5 1511.5,-56.5 1392.5,-56.5"/>
<text text-anchor="middle" x="1452" y="-63.5" font-family="Helvetica,sans-Serif" font-size="10.00">clang/AST/DeclCXX.h</text>
</a>
</g>
</g>
<!-- Node29&#45;&gt;Node33 -->
<g id="edge39" class="edge">
<title>Node29&#45;&gt;Node33</title>
<path fill="none" stroke="midnightblue" d="M1481.13,-117.98C1476.13,-109.23 1468.21,-95.37 1461.89,-84.31"/>
<polygon fill="midnightblue" stroke="midnightblue" points="1464.86,-82.46 1456.86,-75.51 1458.78,-85.93 1464.86,-82.46"/>
</g>
<!-- Node34 -->
<g id="node34" class="node">
<title>Node34</title>
<g id="a_node34"><a xlink:title=" ">
<polygon fill="none" stroke="#bfbfbf" points="1529.5,-56.5 1529.5,-75.5 1628.5,-75.5 1628.5,-56.5 1529.5,-56.5"/>
<text text-anchor="middle" x="1579" y="-63.5" font-family="Helvetica,sans-Serif" font-size="10.00">clang/AST/Type.h</text>
</a>
</g>
</g>
<!-- Node29&#45;&gt;Node34 -->
<g id="edge40" class="edge">
<title>Node29&#45;&gt;Node34</title>
<path fill="none" stroke="midnightblue" d="M1499.32,-117.98C1514.38,-108.34 1539.12,-92.52 1557.04,-81.05"/>
<polygon fill="midnightblue" stroke="midnightblue" points="1559.16,-83.85 1565.7,-75.51 1555.39,-77.95 1559.16,-83.85"/>
</g>
<!-- Node35 -->
<g id="node35" class="node">
<title>Node35</title>
<g id="a_node35"><a xlink:href="Param_8hpp.html" target="_top" xlink:title=" ">
<polygon fill="none" stroke="black" points="1873,-56.5 1873,-75.5 1941,-75.5 1941,-56.5 1873,-56.5"/>
<text text-anchor="middle" x="1907" y="-63.5" font-family="Helvetica,sans-Serif" font-size="10.00">Param.hpp</text>
</a>
</g>
</g>
<!-- Node29&#45;&gt;Node35 -->
<g id="edge41" class="edge">
<title>Node29&#45;&gt;Node35</title>
<path fill="none" stroke="midnightblue" d="M1514.69,-117.99C1522.82,-115.8 1531.71,-113.61 1540,-112 1655.37,-89.55 1793.45,-76.19 1862.74,-70.41"/>
<polygon fill="midnightblue" stroke="midnightblue" points="1863.17,-73.88 1872.85,-69.58 1862.6,-66.91 1863.17,-73.88"/>
</g>
<!-- Node35&#45;&gt;Node31 -->
<g id="edge43" class="edge">
<title>Node35&#45;&gt;Node31</title>
<path fill="none" stroke="midnightblue" d="M1872.71,-56.52C1839.37,-48.19 1787.06,-34.94 1733.07,-20.24"/>
<polygon fill="midnightblue" stroke="midnightblue" points="1733.9,-16.83 1723.33,-17.57 1732.05,-23.59 1733.9,-16.83"/>
</g>
<!-- Node36 -->
<g id="node36" class="node">
<title>Node36</title>
<g id="a_node36"><a xlink:title=" ">
<polygon fill="none" stroke="#bfbfbf" points="2078.5,-0.5 2078.5,-19.5 2135.5,-19.5 2135.5,-0.5 2078.5,-0.5"/>
<text text-anchor="middle" x="2107" y="-7.5" font-family="Helvetica,sans-Serif" font-size="10.00">ostream</text>
</a>
</g>
</g>
<!-- Node35&#45;&gt;Node36 -->
<g id="edge42" class="edge">
<title>Node35&#45;&gt;Node36</title>
<path fill="none" stroke="midnightblue" d="M1938.69,-56.44C1973.83,-46.96 2030.52,-31.65 2068.26,-21.46"/>
<polygon fill="midnightblue" stroke="midnightblue" points="2069.63,-24.71 2078.37,-18.73 2067.81,-17.96 2069.63,-24.71"/>
</g>
<!-- Node37 -->
<g id="node37" class="node">
<title>Node37</title>
<g id="a_node37"><a xlink:title=" ">
<polygon fill="none" stroke="#bfbfbf" points="2154,-0.5 2154,-19.5 2252,-19.5 2252,-0.5 2154,-0.5"/>
<text text-anchor="middle" x="2203" y="-7.5" font-family="Helvetica,sans-Serif" font-size="10.00">clang/AST/Decl.h</text>
</a>
</g>
</g>
<!-- Node35&#45;&gt;Node37 -->
<g id="edge44" class="edge">
<title>Node35&#45;&gt;Node37</title>
<path fill="none" stroke="midnightblue" d="M1941.24,-58.75C1991.38,-49.61 2085.37,-32.46 2146.02,-21.4"/>
<polygon fill="midnightblue" stroke="midnightblue" points="2146.99,-24.78 2156.19,-19.54 2145.73,-17.89 2146.99,-24.78"/>
</g>
<!-- Node38 -->
<g id="node38" class="node">
<title>Node38</title>
<g id="a_node38"><a xlink:title=" ">
<polygon fill="none" stroke="#bfbfbf" points="1741,-0.5 1741,-19.5 1905,-19.5 1905,-0.5 1741,-0.5"/>
<text text-anchor="middle" x="1823" y="-7.5" font-family="Helvetica,sans-Serif" font-size="10.00">clang/AST/DependenceFlags.h</text>
</a>
</g>
</g>
<!-- Node35&#45;&gt;Node38 -->
<g id="edge45" class="edge">
<title>Node35&#45;&gt;Node38</title>
<path fill="none" stroke="midnightblue" d="M1893.5,-56.32C1880.4,-47.9 1860.29,-34.97 1844.89,-25.07"/>
<polygon fill="midnightblue" stroke="midnightblue" points="1846.77,-22.12 1836.46,-19.65 1842.98,-28.01 1846.77,-22.12"/>
</g>
<!-- Node39 -->
<g id="node39" class="node">
<title>Node39</title>
<g id="a_node39"><a xlink:title=" ">
<polygon fill="none" stroke="#bfbfbf" points="1923.5,-0.5 1923.5,-19.5 2060.5,-19.5 2060.5,-0.5 1923.5,-0.5"/>
<text text-anchor="middle" x="1992" y="-7.5" font-family="Helvetica,sans-Serif" font-size="10.00">clang/AST/PrettyPrinter.h</text>
</a>
</g>
</g>
<!-- Node35&#45;&gt;Node39 -->
<g id="edge46" class="edge">
<title>Node35&#45;&gt;Node39</title>
<path fill="none" stroke="midnightblue" d="M1920.66,-56.32C1933.92,-47.9 1954.27,-34.97 1969.85,-25.07"/>
<polygon fill="midnightblue" stroke="midnightblue" points="1971.81,-27.97 1978.38,-19.65 1968.06,-22.06 1971.81,-27.97"/>
</g>
<!-- Node40&#45;&gt;Node15 -->
<g id="edge49" class="edge">
<title>Node40&#45;&gt;Node15</title>
<path fill="none" stroke="midnightblue" d="M1262.73,-184.94C1333.12,-174.12 1455.15,-155.37 1539.11,-142.47"/>
<polygon fill="midnightblue" stroke="midnightblue" points="1539.8,-145.9 1549.15,-140.92 1538.73,-138.98 1539.8,-145.9"/>
</g>
<!-- Node40&#45;&gt;Node21 -->
<g id="edge48" class="edge">
<title>Node40&#45;&gt;Node21</title>
<path fill="none" stroke="midnightblue" d="M1251.02,-184.92C1291.46,-176.04 1347.01,-160.96 1360,-143 1368.07,-131.83 1368.18,-123.08 1360,-112 1356.55,-107.33 1289.54,-88 1247.52,-76.25"/>
<polygon fill="midnightblue" stroke="midnightblue" points="1248.25,-72.82 1237.68,-73.51 1246.38,-79.56 1248.25,-72.82"/>
</g>
<!-- Node40&#45;&gt;Node29 -->
<g id="edge50" class="edge">
<title>Node40&#45;&gt;Node29</title>
<path fill="none" stroke="midnightblue" d="M1243.76,-184.94C1294.05,-173.22 1384.3,-152.19 1439.31,-139.38"/>
<polygon fill="midnightblue" stroke="midnightblue" points="1440.21,-142.76 1449.16,-137.08 1438.62,-135.94 1440.21,-142.76"/>
</g>
<!-- Node41&#45;&gt;Node16 -->
<g id="edge53" class="edge">
<title>Node41&#45;&gt;Node16</title>
<path fill="none" stroke="midnightblue" d="M3291.93,-184.73C3298.73,-174.7 3310.02,-158.01 3318.55,-145.42"/>
<polygon fill="midnightblue" stroke="midnightblue" points="3321.45,-147.37 3324.16,-137.13 3315.66,-143.45 3321.45,-147.37"/>
</g>
</g>
</svg>
