<?xml version="1.0" encoding="UTF-8" standalone="no"?>
<!DOCTYPE svg PUBLIC "-//W3C//DTD SVG 1.1//EN"
 "http://www.w3.org/Graphics/SVG/1.1/DTD/svg11.dtd">
<!-- Generated by graphviz version 2.43.0 (0)
 -->
<!-- Title: Instantiator.cpp Pages: 1 -->
<svg width="3372pt" height="269pt"
 viewBox="0.00 0.00 3372.00 269.00" xmlns="http://www.w3.org/2000/svg" xmlns:xlink="http://www.w3.org/1999/xlink">
<g id="graph0" class="graph" transform="scale(1 1) rotate(0) translate(4 265)">
<title>Instantiator.cpp</title>
<!-- Node1 -->
<g id="Node000001" class="node">
<title>Node1</title>
<g id="a_Node000001"><a xlink:title=" ">
<polygon fill="#999999" stroke="#666666" points="1538,-261 1446,-261 1446,-242 1538,-242 1538,-261"/>
<text text-anchor="middle" x="1492" y="-249" font-family="Helvetica,sans-Serif" font-size="10.00">Instantiator.cpp</text>
</a>
</g>
</g>
<!-- Node2 -->
<g id="Node000002" class="node">
<title>Node2</title>
<g id="a_Node000002"><a xlink:title=" ">
<polygon fill="#e0e0e0" stroke="#999999" points="68,-200.5 0,-200.5 0,-181.5 68,-181.5 68,-200.5"/>
<text text-anchor="middle" x="34" y="-188.5" font-family="Helvetica,sans-Serif" font-size="10.00">filesystem</text>
</a>
</g>
</g>
<!-- Node1&#45;&gt;Node2 -->
<g id="edge1_Node000001_Node000002" class="edge">
<title>Node1&#45;&gt;Node2</title>
<g id="a_edge1_Node000001_Node000002"><a xlink:title=" ">
<path fill="none" stroke="#63b8ff" d="M1445.7,-250.8C1233.07,-251.91 348.92,-253.54 77,-206 73.49,-205.39 69.87,-204.55 66.3,-203.59"/>
<polygon fill="#63b8ff" stroke="#63b8ff" points="67.04,-200.16 56.46,-200.64 65.03,-206.86 67.04,-200.16"/>
</a>
</g>
</g>
<!-- Node3 -->
<g id="Node000003" class="node">
<title>Node3</title>
<g id="a_Node000003"><a xlink:title=" ">
<polygon fill="#e0e0e0" stroke="#999999" points="1497,-134.5 1437,-134.5 1437,-115.5 1497,-115.5 1497,-134.5"/>
<text text-anchor="middle" x="1467" y="-122.5" font-family="Helvetica,sans-Serif" font-size="10.00">iostream</text>
</a>
</g>
</g>
<!-- Node1&#45;&gt;Node3 -->
<g id="edge2_Node000001_Node000003" class="edge">
<title>Node1&#45;&gt;Node3</title>
<g id="a_edge2_Node000001_Node000003"><a xlink:title=" ">
<path fill="none" stroke="#63b8ff" d="M1453.99,-241.85C1434.88,-235.37 1413.4,-224.36 1402,-206 1394.97,-194.67 1396.11,-187.96 1402,-176 1409.79,-160.18 1425.26,-147.96 1439.15,-139.57"/>
<polygon fill="#63b8ff" stroke="#63b8ff" points="1440.97,-142.56 1447.96,-134.6 1437.53,-136.46 1440.97,-142.56"/>
</a>
</g>
</g>
<!-- Node4 -->
<g id="Node000004" class="node">
<title>Node4</title>
<g id="a_Node000004"><a xlink:title=" ">
<polygon fill="#e0e0e0" stroke="#999999" points="274,-200.5 224,-200.5 224,-181.5 274,-181.5 274,-200.5"/>
<text text-anchor="middle" x="249" y="-188.5" font-family="Helvetica,sans-Serif" font-size="10.00">ranges</text>
</a>
</g>
</g>
<!-- Node1&#45;&gt;Node4 -->
<g id="edge3_Node000001_Node000004" class="edge">
<title>Node1&#45;&gt;Node4</title>
<g id="a_edge3_Node000001_Node000004"><a xlink:title=" ">
<path fill="none" stroke="#63b8ff" d="M1445.79,-249.76C1238.31,-246.32 398.01,-230.96 283,-206 280.77,-205.52 278.5,-204.89 276.24,-204.18"/>
<polygon fill="#63b8ff" stroke="#63b8ff" points="277.21,-200.81 266.62,-200.64 274.79,-207.38 277.21,-200.81"/>
</a>
</g>
</g>
<!-- Node5 -->
<g id="Node000005" class="node">
<title>Node5</title>
<g id="a_Node000005"><a xlink:title=" ">
<polygon fill="#e0e0e0" stroke="#999999" points="348,-200.5 292,-200.5 292,-181.5 348,-181.5 348,-200.5"/>
<text text-anchor="middle" x="320" y="-188.5" font-family="Helvetica,sans-Serif" font-size="10.00">sstream</text>
</a>
</g>
</g>
<!-- Node1&#45;&gt;Node5 -->
<g id="edge4_Node000001_Node000005" class="edge">
<title>Node1&#45;&gt;Node5</title>
<g id="a_edge4_Node000001_Node000005"><a xlink:title=" ">
<path fill="none" stroke="#63b8ff" d="M1445.82,-250.67C1260.47,-251.03 570.42,-249.36 357,-206 354.32,-205.45 351.57,-204.74 348.85,-203.92"/>
<polygon fill="#63b8ff" stroke="#63b8ff" points="349.83,-200.56 339.24,-200.62 347.56,-207.18 349.83,-200.56"/>
</a>
</g>
</g>
<!-- Node6 -->
<g id="Node000006" class="node">
<title>Node6</title>
<g id="a_Node000006"><a xlink:title=" ">
<polygon fill="#e0e0e0" stroke="#999999" points="452,-200.5 366,-200.5 366,-181.5 452,-181.5 452,-200.5"/>
<text text-anchor="middle" x="409" y="-188.5" font-family="Helvetica,sans-Serif" font-size="10.00">unordered_set</text>
</a>
</g>
</g>
<!-- Node1&#45;&gt;Node6 -->
<g id="edge5_Node000001_Node000006" class="edge">
<title>Node1&#45;&gt;Node6</title>
<g id="a_edge5_Node000001_Node000006"><a xlink:title=" ">
<path fill="none" stroke="#63b8ff" d="M1445.77,-249.85C1271.56,-247.21 654.89,-235.91 461,-206 456.17,-205.26 451.15,-204.23 446.21,-203.07"/>
<polygon fill="#63b8ff" stroke="#63b8ff" points="446.84,-199.62 436.29,-200.55 445.12,-206.41 446.84,-199.62"/>
</a>
</g>
</g>
<!-- Node7 -->
<g id="Node000007" class="node">
<title>Node7</title>
<g id="a_Node000007"><a xlink:title=" ">
<polygon fill="#e0e0e0" stroke="#999999" points="604,-200.5 470,-200.5 470,-181.5 604,-181.5 604,-200.5"/>
<text text-anchor="middle" x="537" y="-188.5" font-family="Helvetica,sans-Serif" font-size="10.00">termcolor/termcolor.hpp</text>
</a>
</g>
</g>
<!-- Node1&#45;&gt;Node7 -->
<g id="edge6_Node000001_Node000007" class="edge">
<title>Node1&#45;&gt;Node7</title>
<g id="a_edge6_Node000001_Node000007"><a xlink:title=" ">
<path fill="none" stroke="#63b8ff" d="M1445.6,-250.3C1314.42,-249.26 929.81,-243.04 613,-206 604.85,-205.05 596.26,-203.75 587.9,-202.33"/>
<polygon fill="#63b8ff" stroke="#63b8ff" points="588.33,-198.85 577.87,-200.55 587.11,-205.74 588.33,-198.85"/>
</a>
</g>
</g>
<!-- Node8 -->
<g id="Node000008" class="node">
<title>Node8</title>
<g id="a_Node000008"><a xlink:title=" ">
<polygon fill="#e0e0e0" stroke="#999999" points="780,-200.5 622,-200.5 622,-181.5 780,-181.5 780,-200.5"/>
<text text-anchor="middle" x="701" y="-188.5" font-family="Helvetica,sans-Serif" font-size="10.00">indicators/cursor_control.hpp</text>
</a>
</g>
</g>
<!-- Node1&#45;&gt;Node8 -->
<g id="edge7_Node000001_Node000008" class="edge">
<title>Node1&#45;&gt;Node8</title>
<g id="a_edge7_Node000001_Node000008"><a xlink:title=" ">
<path fill="none" stroke="#63b8ff" d="M1445.81,-249.09C1333.21,-245.32 1035.74,-233.37 789,-206 779.41,-204.94 769.28,-203.56 759.43,-202.09"/>
<polygon fill="#63b8ff" stroke="#63b8ff" points="759.72,-198.59 749.3,-200.53 758.65,-205.51 759.72,-198.59"/>
</a>
</g>
</g>
<!-- Node9 -->
<g id="Node000009" class="node">
<title>Node9</title>
<g id="a_Node000009"><a xlink:title=" ">
<polygon fill="#e0e0e0" stroke="#999999" points="935.5,-206 798.5,-206 798.5,-176 935.5,-176 935.5,-206"/>
<text text-anchor="start" x="806.5" y="-194" font-family="Helvetica,sans-Serif" font-size="10.00">indicators/indeterminate</text>
<text text-anchor="middle" x="867" y="-183" font-family="Helvetica,sans-Serif" font-size="10.00">_progress_bar.hpp</text>
</a>
</g>
</g>
<!-- Node1&#45;&gt;Node9 -->
<g id="edge8_Node000001_Node000009" class="edge">
<title>Node1&#45;&gt;Node9</title>
<g id="a_edge8_Node000001_Node000009"><a xlink:title=" ">
<path fill="none" stroke="#63b8ff" d="M1445.82,-248.04C1352.1,-242.75 1132.92,-228.89 950,-206 948.69,-205.84 947.38,-205.67 946.05,-205.49"/>
<polygon fill="#63b8ff" stroke="#63b8ff" points="946.16,-201.97 935.78,-204.06 945.2,-208.91 946.16,-201.97"/>
</a>
</g>
</g>
<!-- Node10 -->
<g id="Node000010" class="node">
<title>Node10</title>
<g id="a_Node000010"><a xlink:title=" ">
<polygon fill="#e0e0e0" stroke="#999999" points="1711,-140 1601,-140 1601,-110 1711,-110 1711,-140"/>
<text text-anchor="start" x="1609" y="-128" font-family="Helvetica,sans-Serif" font-size="10.00">indicators/progress</text>
<text text-anchor="middle" x="1656" y="-117" font-family="Helvetica,sans-Serif" font-size="10.00">_bar.hpp</text>
</a>
</g>
</g>
<!-- Node1&#45;&gt;Node10 -->
<g id="edge9_Node000001_Node000010" class="edge">
<title>Node1&#45;&gt;Node10</title>
<g id="a_edge9_Node000001_Node000010"><a xlink:title=" ">
<path fill="none" stroke="#63b8ff" d="M1538.24,-248.88C1601.86,-245.56 1711.31,-235.59 1736,-206 1754.56,-183.75 1725.16,-160.57 1696.91,-144.93"/>
<polygon fill="#63b8ff" stroke="#63b8ff" points="1698.32,-141.71 1687.84,-140.13 1695.04,-147.9 1698.32,-141.71"/>
</a>
</g>
</g>
<!-- Node11 -->
<g id="Node000011" class="node">
<title>Node11</title>
<g id="a_Node000011"><a xlink:title=" ">
<polygon fill="#e0e0e0" stroke="#999999" points="1171.5,-200.5 992.5,-200.5 992.5,-181.5 1171.5,-181.5 1171.5,-200.5"/>
<text text-anchor="middle" x="1082" y="-188.5" font-family="Helvetica,sans-Serif" font-size="10.00">clang/Frontend/FrontendActions.h</text>
</a>
</g>
</g>
<!-- Node1&#45;&gt;Node11 -->
<g id="edge10_Node000001_Node000011" class="edge">
<title>Node1&#45;&gt;Node11</title>
<g id="a_edge10_Node000001_Node000011"><a xlink:title=" ">
<path fill="none" stroke="#63b8ff" d="M1445.75,-243.91C1384.83,-235.22 1274.38,-219.47 1180,-206 1170.78,-204.68 1161.08,-203.3 1151.5,-201.93"/>
<polygon fill="#63b8ff" stroke="#63b8ff" points="1151.99,-198.47 1141.6,-200.52 1151,-205.4 1151.99,-198.47"/>
</a>
</g>
</g>
<!-- Node12 -->
<g id="Node000012" class="node">
<title>Node12</title>
<g id="a_Node000012"><a xlink:title=" ">
<polygon fill="#e0e0e0" stroke="#999999" points="1354.5,-206 1189.5,-206 1189.5,-176 1354.5,-176 1354.5,-206"/>
<text text-anchor="start" x="1197.5" y="-194" font-family="Helvetica,sans-Serif" font-size="10.00">clang/Tooling/CommonOptions</text>
<text text-anchor="middle" x="1272" y="-183" font-family="Helvetica,sans-Serif" font-size="10.00">Parser.h</text>
</a>
</g>
</g>
<!-- Node1&#45;&gt;Node12 -->
<g id="edge11_Node000001_Node000012" class="edge">
<title>Node1&#45;&gt;Node12</title>
<g id="a_edge11_Node000001_Node000012"><a xlink:title=" ">
<path fill="none" stroke="#63b8ff" d="M1460.01,-241.99C1427.31,-233.3 1375.67,-219.57 1334.77,-208.69"/>
<polygon fill="#63b8ff" stroke="#63b8ff" points="1335.45,-205.25 1324.89,-206.06 1333.66,-212.02 1335.45,-205.25"/>
</a>
</g>
</g>
<!-- Node13 -->
<g id="Node000013" class="node">
<title>Node13</title>
<g id="a_Node000013"><a xlink:title=" ">
<polygon fill="#e0e0e0" stroke="#999999" points="1856.5,-134.5 1729.5,-134.5 1729.5,-115.5 1856.5,-115.5 1856.5,-134.5"/>
<text text-anchor="middle" x="1793" y="-122.5" font-family="Helvetica,sans-Serif" font-size="10.00">clang/Tooling/Tooling.h</text>
</a>
</g>
</g>
<!-- Node1&#45;&gt;Node13 -->
<g id="edge12_Node000001_Node000013" class="edge">
<title>Node1&#45;&gt;Node13</title>
<g id="a_edge12_Node000001_Node000013"><a xlink:title=" ">
<path fill="none" stroke="#63b8ff" d="M1538.02,-247.62C1603.59,-242.7 1719.68,-230.71 1753,-206 1773.13,-191.07 1783.78,-163.16 1788.9,-144.58"/>
<polygon fill="#63b8ff" stroke="#63b8ff" points="1792.35,-145.19 1791.36,-134.65 1785.56,-143.51 1792.35,-145.19"/>
</a>
</g>
</g>
<!-- Node14 -->
<g id="Node000014" class="node">
<title>Node14</title>
<g id="a_Node000014"><a xlink:title=" ">
<polygon fill="#e0e0e0" stroke="#999999" points="1572.5,-200.5 1411.5,-200.5 1411.5,-181.5 1572.5,-181.5 1572.5,-200.5"/>
<text text-anchor="middle" x="1492" y="-188.5" font-family="Helvetica,sans-Serif" font-size="10.00">llvm/Support/CommandLine.h</text>
</a>
</g>
</g>
<!-- Node1&#45;&gt;Node14 -->
<g id="edge13_Node000001_Node000014" class="edge">
<title>Node1&#45;&gt;Node14</title>
<g id="a_edge13_Node000001_Node000014"><a xlink:title=" ">
<path fill="none" stroke="#63b8ff" d="M1492,-241.87C1492,-233.75 1492,-221.31 1492,-210.89"/>
<polygon fill="#63b8ff" stroke="#63b8ff" points="1495.5,-210.67 1492,-200.67 1488.5,-210.67 1495.5,-210.67"/>
</a>
</g>
</g>
<!-- Node15 -->
<g id="Node000015" class="node">
<title>Node15</title>
<g id="a_Node000015"><a xlink:title=" ">
<polygon fill="#e0e0e0" stroke="#999999" points="1727.5,-200.5 1590.5,-200.5 1590.5,-181.5 1727.5,-181.5 1727.5,-200.5"/>
<text text-anchor="middle" x="1659" y="-188.5" font-family="Helvetica,sans-Serif" font-size="10.00">clang/AST/ASTImporter.h</text>
</a>
</g>
</g>
<!-- Node1&#45;&gt;Node15 -->
<g id="edge14_Node000001_Node000015" class="edge">
<title>Node1&#45;&gt;Node15</title>
<g id="a_edge14_Node000001_Node000015"><a xlink:title=" ">
<path fill="none" stroke="#63b8ff" d="M1516.28,-241.99C1544.98,-231.94 1592.89,-215.16 1625.2,-203.84"/>
<polygon fill="#63b8ff" stroke="#63b8ff" points="1626.41,-207.13 1634.69,-200.52 1624.09,-200.52 1626.41,-207.13"/>
</a>
</g>
</g>
<!-- Node16 -->
<g id="Node000016" class="node">
<title>Node16</title>
<g id="a_Node000016"><a xlink:title=" ">
<polygon fill="#e0e0e0" stroke="#999999" points="2892.5,-140 2731.5,-140 2731.5,-110 2892.5,-110 2892.5,-140"/>
<text text-anchor="start" x="2739.5" y="-128" font-family="Helvetica,sans-Serif" font-size="10.00">clang/ASTMatchers/ASTMatch</text>
<text text-anchor="middle" x="2812" y="-117" font-family="Helvetica,sans-Serif" font-size="10.00">Finder.h</text>
</a>
</g>
</g>
<!-- Node1&#45;&gt;Node16 -->
<g id="edge15_Node000001_Node000016" class="edge">
<title>Node1&#45;&gt;Node16</title>
<g id="a_edge15_Node000001_Node000016"><a xlink:title=" ">
<path fill="none" stroke="#63b8ff" d="M1538.04,-250.19C1735.4,-248.64 2504.69,-240.42 2607,-206 2629.09,-198.57 2629.06,-186.23 2650,-176 2678.75,-161.96 2712.3,-150.83 2741.38,-142.66"/>
<polygon fill="#63b8ff" stroke="#63b8ff" points="2742.34,-146.03 2751.06,-140.01 2740.49,-139.28 2742.34,-146.03"/>
</a>
</g>
</g>
<!-- Node17 -->
<g id="Node000017" class="node">
<title>Node17</title>
<g id="a_Node000017"><a xlink:title=" ">
<polygon fill="#e0e0e0" stroke="#999999" points="647.5,-134.5 462.5,-134.5 462.5,-115.5 647.5,-115.5 647.5,-134.5"/>
<text text-anchor="middle" x="555" y="-122.5" font-family="Helvetica,sans-Serif" font-size="10.00">clang/ASTMatchers/ASTMatchers.h</text>
</a>
</g>
</g>
<!-- Node1&#45;&gt;Node17 -->
<g id="edge16_Node000001_Node000017" class="edge">
<title>Node1&#45;&gt;Node17</title>
<g id="a_edge16_Node000001_Node000017"><a xlink:title=" ">
<path fill="none" stroke="#63b8ff" d="M1445.97,-249.76C1337.13,-247.49 1066.79,-238.64 983,-206 962.62,-198.06 964.21,-184.35 944,-176 893.86,-155.28 755.4,-140.98 658.01,-133.14"/>
<polygon fill="#63b8ff" stroke="#63b8ff" points="658.08,-129.63 647.83,-132.33 657.53,-136.61 658.08,-129.63"/>
</a>
</g>
</g>
<!-- Node18 -->
<g id="Node000018" class="node">
<title>Node18</title>
<g id="a_Node000018"><a xlink:title=" ">
<polygon fill="#e0e0e0" stroke="#999999" points="1931.5,-206 1822.5,-206 1822.5,-176 1931.5,-176 1931.5,-206"/>
<text text-anchor="start" x="1830.5" y="-194" font-family="Helvetica,sans-Serif" font-size="10.00">clang/Rewrite/Core</text>
<text text-anchor="middle" x="1877" y="-183" font-family="Helvetica,sans-Serif" font-size="10.00">/Rewriter.h</text>
</a>
</g>
</g>
<!-- Node1&#45;&gt;Node18 -->
<g id="edge17_Node000001_Node000018" class="edge">
<title>Node1&#45;&gt;Node18</title>
<g id="a_edge17_Node000001_Node000018"><a xlink:title=" ">
<path fill="none" stroke="#63b8ff" d="M1538.19,-244.88C1599.86,-237.18 1712.44,-222.41 1808,-206 1809.47,-205.75 1810.95,-205.49 1812.45,-205.22"/>
<polygon fill="#63b8ff" stroke="#63b8ff" points="1813.24,-208.64 1822.44,-203.39 1811.98,-201.75 1813.24,-208.64"/>
</a>
</g>
</g>
<!-- Node19 -->
<g id="Node000019" class="node">
<title>Node19</title>
<g id="a_Node000019"><a xlink:title=" ">
<polygon fill="#e0e0e0" stroke="#999999" points="2078.5,-206 1949.5,-206 1949.5,-176 2078.5,-176 2078.5,-206"/>
<text text-anchor="start" x="1957.5" y="-194" font-family="Helvetica,sans-Serif" font-size="10.00">clang/Rewrite/Frontend</text>
<text text-anchor="middle" x="2014" y="-183" font-family="Helvetica,sans-Serif" font-size="10.00">/Rewriters.h</text>
</a>
</g>
</g>
<!-- Node1&#45;&gt;Node19 -->
<g id="edge18_Node000001_Node000019" class="edge">
<title>Node1&#45;&gt;Node19</title>
<g id="a_edge18_Node000001_Node000019"><a xlink:title=" ">
<path fill="none" stroke="#63b8ff" d="M1538.06,-247.32C1617.83,-241.51 1787.01,-227.87 1939.18,-206.19"/>
<polygon fill="#63b8ff" stroke="#63b8ff" points="1939.77,-209.64 1949.17,-204.75 1938.78,-202.71 1939.77,-209.64"/>
</a>
</g>
</g>
<!-- Node20 -->
<g id="Node000020" class="node">
<title>Node20</title>
<g id="a_Node000020"><a xlink:href="ASTCreation_8hpp.html" target="_top" xlink:title=" ">
<polygon fill="white" stroke="#666666" points="2193.5,-200.5 2096.5,-200.5 2096.5,-181.5 2193.5,-181.5 2193.5,-200.5"/>
<text text-anchor="middle" x="2145" y="-188.5" font-family="Helvetica,sans-Serif" font-size="10.00">ASTCreation.hpp</text>
</a>
</g>
</g>
<!-- Node1&#45;&gt;Node20 -->
<g id="edge19_Node000001_Node000020" class="edge">
<title>Node1&#45;&gt;Node20</title>
<g id="a_edge19_Node000001_Node000020"><a xlink:title=" ">
<path fill="none" stroke="#63b8ff" d="M1538.29,-249.66C1638.91,-247.26 1884.85,-238.3 2088,-206 2093.41,-205.14 2099.06,-204.02 2104.61,-202.8"/>
<polygon fill="#63b8ff" stroke="#63b8ff" points="2105.49,-206.19 2114.43,-200.5 2103.89,-199.37 2105.49,-206.19"/>
</a>
</g>
</g>
<!-- Node21 -->
<g id="Node000021" class="node">
<title>Node21</title>
<g id="a_Node000021"><a xlink:href="AllASTBuilderAction_8hpp.html" target="_top" xlink:title=" ">
<polygon fill="white" stroke="#666666" points="2384.5,-200.5 2211.5,-200.5 2211.5,-181.5 2384.5,-181.5 2384.5,-200.5"/>
<text text-anchor="middle" x="2298" y="-188.5" font-family="Helvetica,sans-Serif" font-size="10.00">Actions/AllASTBuilderAction.hpp</text>
</a>
</g>
</g>
<!-- Node1&#45;&gt;Node21 -->
<g id="edge21_Node000001_Node000021" class="edge">
<title>Node1&#45;&gt;Node21</title>
<g id="a_edge21_Node000001_Node000021"><a xlink:title=" ">
<path fill="none" stroke="#63b8ff" d="M1538.28,-248.95C1651.79,-244.85 1952.99,-232.2 2203,-206 2213.43,-204.91 2224.47,-203.51 2235.19,-202.01"/>
<polygon fill="#63b8ff" stroke="#63b8ff" points="2235.93,-205.44 2245.34,-200.56 2234.94,-198.51 2235.93,-205.44"/>
</a>
</g>
</g>
<!-- Node28 -->
<g id="Node000028" class="node">
<title>Node28</title>
<g id="a_Node000028"><a xlink:href="DeleteInstantiations_8hpp.html" target="_top" xlink:title=" ">
<polygon fill="white" stroke="#666666" points="2597.5,-200.5 2410.5,-200.5 2410.5,-181.5 2597.5,-181.5 2597.5,-200.5"/>
<text text-anchor="middle" x="2504" y="-188.5" font-family="Helvetica,sans-Serif" font-size="10.00">Callbacks/DeleteInstantiations.hpp</text>
</a>
</g>
</g>
<!-- Node1&#45;&gt;Node28 -->
<g id="edge31_Node000001_Node000028" class="edge">
<title>Node1&#45;&gt;Node28</title>
<g id="a_edge31_Node000001_Node000028"><a xlink:title=" ">
<path fill="none" stroke="#63b8ff" d="M1538.08,-249.48C1671.05,-246.28 2066.8,-234.85 2394,-206 2406.91,-204.86 2420.64,-203.35 2433.87,-201.75"/>
<polygon fill="#63b8ff" stroke="#63b8ff" points="2434.37,-205.21 2443.86,-200.51 2433.5,-198.27 2434.37,-205.21"/>
</a>
</g>
</g>
<!-- Node29 -->
<g id="Node000029" class="node">
<title>Node29</title>
<g id="a_Node000029"><a xlink:href="GetNeededInstantiations_8hpp.html" target="_top" xlink:title=" ">
<polygon fill="white" stroke="#666666" points="3062.5,-200.5 2853.5,-200.5 2853.5,-181.5 3062.5,-181.5 3062.5,-200.5"/>
<text text-anchor="middle" x="2958" y="-188.5" font-family="Helvetica,sans-Serif" font-size="10.00">Callbacks/GetNeededInstantiations.hpp</text>
</a>
</g>
</g>
<!-- Node1&#45;&gt;Node29 -->
<g id="edge33_Node000001_Node000029" class="edge">
<title>Node1&#45;&gt;Node29</title>
<g id="a_edge33_Node000001_Node000029"><a xlink:title=" ">
<path fill="none" stroke="#63b8ff" d="M1538.19,-250.47C1710.63,-250.05 2332.98,-245.71 2844,-206 2857.84,-204.92 2872.58,-203.4 2886.71,-201.75"/>
<polygon fill="#63b8ff" stroke="#63b8ff" points="2887.36,-205.2 2896.87,-200.53 2886.52,-198.25 2887.36,-205.2"/>
</a>
</g>
</g>
<!-- Node30 -->
<g id="Node000030" class="node">
<title>Node30</title>
<g id="a_Node000030"><a xlink:href="Injection_8hpp.html" target="_top" xlink:title=" ">
<polygon fill="white" stroke="#666666" points="3070,-134.5 2990,-134.5 2990,-115.5 3070,-115.5 3070,-134.5"/>
<text text-anchor="middle" x="3030" y="-122.5" font-family="Helvetica,sans-Serif" font-size="10.00">Injection.hpp</text>
</a>
</g>
</g>
<!-- Node1&#45;&gt;Node30 -->
<g id="edge53_Node000001_Node000030" class="edge">
<title>Node1&#45;&gt;Node30</title>
<g id="a_edge53_Node000001_Node000030"><a xlink:title=" ">
<path fill="none" stroke="#63b8ff" d="M1538.4,-250.08C1796.5,-247.61 3044.56,-234.22 3072,-206 3090.27,-187.2 3066.79,-158.85 3048.28,-141.43"/>
<polygon fill="#63b8ff" stroke="#63b8ff" points="3050.56,-138.78 3040.79,-134.7 3045.88,-143.99 3050.56,-138.78"/>
</a>
</g>
</g>
<!-- Node41 -->
<g id="Node000041" class="node">
<title>Node41</title>
<g id="a_Node000041"><a xlink:href="InjectInstantiation_8hpp.html" target="_top" xlink:title=" ">
<polygon fill="white" stroke="#666666" points="2835,-200.5 2659,-200.5 2659,-181.5 2835,-181.5 2835,-200.5"/>
<text text-anchor="middle" x="2747" y="-188.5" font-family="Helvetica,sans-Serif" font-size="10.00">Callbacks/InjectInstantiation.hpp</text>
</a>
</g>
</g>
<!-- Node1&#45;&gt;Node41 -->
<g id="edge49_Node000001_Node000041" class="edge">
<title>Node1&#45;&gt;Node41</title>
<g id="a_edge49_Node000001_Node000041"><a xlink:title=" ">
<path fill="none" stroke="#63b8ff" d="M1538.15,-250.29C1693.95,-249.25 2214.65,-243.03 2643,-206 2655.39,-204.93 2668.56,-203.43 2681.23,-201.82"/>
<polygon fill="#63b8ff" stroke="#63b8ff" points="2681.79,-205.27 2691.25,-200.5 2680.87,-198.33 2681.79,-205.27"/>
</a>
</g>
</g>
<!-- Node42 -->
<g id="Node000042" class="node">
<title>Node42</title>
<g id="a_Node000042"><a xlink:href="Matcher_8hpp.html" target="_top" xlink:title="AST matcher expressions to filter the relevant nodes for template instantiations.">
<polygon fill="white" stroke="#666666" points="205.5,-200.5 86.5,-200.5 86.5,-181.5 205.5,-181.5 205.5,-200.5"/>
<text text-anchor="middle" x="146" y="-188.5" font-family="Helvetica,sans-Serif" font-size="10.00">Matcher/Matcher.hpp</text>
</a>
</g>
</g>
<!-- Node1&#45;&gt;Node42 -->
<g id="edge54_Node000001_Node000042" class="edge">
<title>Node1&#45;&gt;Node42</title>
<g id="a_edge54_Node000001_Node000042"><a xlink:title=" ">
<path fill="none" stroke="#63b8ff" d="M1445.72,-249.91C1246.44,-247.23 460.5,-234.98 215,-206 207.66,-205.13 199.93,-203.89 192.41,-202.51"/>
<polygon fill="#63b8ff" stroke="#63b8ff" points="192.83,-199.02 182.34,-200.55 191.49,-205.89 192.83,-199.02"/>
</a>
</g>
</g>
<!-- Node20&#45;&gt;Node13 -->
<g id="edge20_Node000020_Node000013" class="edge">
<title>Node20&#45;&gt;Node13</title>
<g id="a_edge20_Node000020_Node000013"><a xlink:title=" ">
<path fill="none" stroke="#63b8ff" d="M2112.25,-181.48C2104.34,-179.55 2095.89,-177.61 2088,-176 1990.05,-156.06 1964.43,-157.42 1866,-140 1859.75,-138.89 1853.2,-137.69 1846.7,-136.48"/>
<polygon fill="#63b8ff" stroke="#63b8ff" points="1847.06,-132.99 1836.58,-134.57 1845.76,-139.86 1847.06,-132.99"/>
</a>
</g>
</g>
<!-- Node21&#45;&gt;Node3 -->
<g id="edge22_Node000021_Node000003" class="edge">
<title>Node21&#45;&gt;Node3</title>
<g id="a_edge22_Node000021_Node000003"><a xlink:title=" ">
<path fill="none" stroke="#63b8ff" d="M2245.84,-181.47C2231.95,-179.43 2216.93,-177.43 2203,-176 1932.4,-148.14 1863.04,-163.15 1592,-140 1563.54,-137.57 1531.52,-133.97 1507.02,-131.03"/>
<polygon fill="#63b8ff" stroke="#63b8ff" points="1507.36,-127.54 1497.01,-129.81 1506.52,-134.49 1507.36,-127.54"/>
</a>
</g>
</g>
<!-- Node21&#45;&gt;Node10 -->
<g id="edge25_Node000021_Node000010" class="edge">
<title>Node21&#45;&gt;Node10</title>
<g id="a_edge25_Node000021_Node000010"><a xlink:title=" ">
<path fill="none" stroke="#63b8ff" d="M2244.83,-181.48C2231.22,-179.48 2216.59,-177.51 2203,-176 1992.29,-152.65 1934.74,-170.52 1721.03,-140"/>
<polygon fill="#63b8ff" stroke="#63b8ff" points="1721.47,-136.53 1711.07,-138.56 1720.46,-143.46 1721.47,-136.53"/>
</a>
</g>
</g>
<!-- Node21&#45;&gt;Node13 -->
<g id="edge30_Node000021_Node000013" class="edge">
<title>Node21&#45;&gt;Node13</title>
<g id="a_edge30_Node000021_Node000013"><a xlink:title=" ">
<path fill="none" stroke="#63b8ff" d="M2242.79,-181.48C2229.76,-179.58 2215.9,-177.64 2203,-176 2053.57,-157.02 2014.98,-162.2 1866,-140 1858.89,-138.94 1851.42,-137.68 1844.08,-136.36"/>
<polygon fill="#63b8ff" stroke="#63b8ff" points="1844.68,-132.91 1834.21,-134.52 1843.4,-139.79 1844.68,-132.91"/>
</a>
</g>
</g>
<!-- Node22 -->
<g id="Node000022" class="node">
<title>Node22</title>
<g id="a_Node000022"><a xlink:title=" ">
<polygon fill="#e0e0e0" stroke="#999999" points="1933,-134.5 1875,-134.5 1875,-115.5 1933,-115.5 1933,-134.5"/>
<text text-anchor="middle" x="1904" y="-122.5" font-family="Helvetica,sans-Serif" font-size="10.00">memory</text>
</a>
</g>
</g>
<!-- Node21&#45;&gt;Node22 -->
<g id="edge23_Node000021_Node000022" class="edge">
<title>Node21&#45;&gt;Node22</title>
<g id="a_edge23_Node000021_Node000022"><a xlink:title=" ">
<path fill="none" stroke="#63b8ff" d="M2240.74,-181.47C2228.3,-179.65 2215.21,-177.74 2203,-176 2087.08,-159.46 2055.6,-168.41 1942,-140 1939.49,-139.37 1936.92,-138.64 1934.36,-137.84"/>
<polygon fill="#63b8ff" stroke="#63b8ff" points="1935.25,-134.44 1924.65,-134.53 1932.99,-141.07 1935.25,-134.44"/>
</a>
</g>
</g>
<!-- Node23 -->
<g id="Node000023" class="node">
<title>Node23</title>
<g id="a_Node000023"><a xlink:title=" ">
<polygon fill="#e0e0e0" stroke="#999999" points="2775.5,-74 2728.5,-74 2728.5,-55 2775.5,-55 2775.5,-74"/>
<text text-anchor="middle" x="2752" y="-62" font-family="Helvetica,sans-Serif" font-size="10.00">vector</text>
</a>
</g>
</g>
<!-- Node21&#45;&gt;Node23 -->
<g id="edge24_Node000021_Node000023" class="edge">
<title>Node21&#45;&gt;Node23</title>
<g id="a_edge24_Node000021_Node000023"><a xlink:title=" ">
<path fill="none" stroke="#63b8ff" d="M2360.68,-181.49C2374.3,-179.66 2388.63,-177.75 2402,-176 2527.72,-159.54 2572.68,-198.82 2685,-140 2709.96,-126.93 2730.16,-100.57 2741.63,-82.97"/>
<polygon fill="#63b8ff" stroke="#63b8ff" points="2744.76,-84.57 2747.08,-74.24 2738.82,-80.87 2744.76,-84.57"/>
</a>
</g>
</g>
<!-- Node24 -->
<g id="Node000024" class="node">
<title>Node24</title>
<g id="a_Node000024"><a xlink:title=" ">
<polygon fill="#e0e0e0" stroke="#999999" points="2091,-134.5 1951,-134.5 1951,-115.5 2091,-115.5 2091,-134.5"/>
<text text-anchor="middle" x="2021" y="-122.5" font-family="Helvetica,sans-Serif" font-size="10.00">clang/Frontend/ASTUnit.h</text>
</a>
</g>
</g>
<!-- Node21&#45;&gt;Node24 -->
<g id="edge26_Node000021_Node000024" class="edge">
<title>Node21&#45;&gt;Node24</title>
<g id="a_edge26_Node000021_Node000024"><a xlink:title=" ">
<path fill="none" stroke="#63b8ff" d="M2260.93,-181.44C2210.97,-169.89 2122.02,-149.34 2067.59,-136.77"/>
<polygon fill="#63b8ff" stroke="#63b8ff" points="2068.38,-133.36 2057.85,-134.51 2066.81,-140.18 2068.38,-133.36"/>
</a>
</g>
</g>
<!-- Node25 -->
<g id="Node000025" class="node">
<title>Node25</title>
<g id="a_Node000025"><a xlink:title=" ">
<polygon fill="#e0e0e0" stroke="#999999" points="2295,-134.5 2109,-134.5 2109,-115.5 2295,-115.5 2295,-134.5"/>
<text text-anchor="middle" x="2202" y="-122.5" font-family="Helvetica,sans-Serif" font-size="10.00">clang/Frontend/CompilerInstance.h</text>
</a>
</g>
</g>
<!-- Node21&#45;&gt;Node25 -->
<g id="edge27_Node000021_Node000025" class="edge">
<title>Node21&#45;&gt;Node25</title>
<g id="a_edge27_Node000021_Node000025"><a xlink:title=" ">
<path fill="none" stroke="#63b8ff" d="M2285.05,-181.37C2269.31,-170.87 2242.5,-153 2223.6,-140.4"/>
<polygon fill="#63b8ff" stroke="#63b8ff" points="2225.31,-137.33 2215.05,-134.7 2221.43,-143.16 2225.31,-137.33"/>
</a>
</g>
</g>
<!-- Node26 -->
<g id="Node000026" class="node">
<title>Node26</title>
<g id="a_Node000026"><a xlink:title=" ">
<polygon fill="#e0e0e0" stroke="#999999" points="2509,-134.5 2313,-134.5 2313,-115.5 2509,-115.5 2509,-134.5"/>
<text text-anchor="middle" x="2411" y="-122.5" font-family="Helvetica,sans-Serif" font-size="10.00">clang/Frontend/CompilerInvocation.h</text>
</a>
</g>
</g>
<!-- Node21&#45;&gt;Node26 -->
<g id="edge28_Node000021_Node000026" class="edge">
<title>Node21&#45;&gt;Node26</title>
<g id="a_edge28_Node000021_Node000026"><a xlink:title=" ">
<path fill="none" stroke="#63b8ff" d="M2313.24,-181.37C2332.11,-170.68 2364.48,-152.35 2386.77,-139.72"/>
<polygon fill="#63b8ff" stroke="#63b8ff" points="2388.66,-142.67 2395.64,-134.7 2385.21,-136.58 2388.66,-142.67"/>
</a>
</g>
</g>
<!-- Node27 -->
<g id="Node000027" class="node">
<title>Node27</title>
<g id="a_Node000027"><a xlink:title=" ">
<polygon fill="#e0e0e0" stroke="#999999" points="2675.5,-140 2526.5,-140 2526.5,-110 2675.5,-110 2675.5,-140"/>
<text text-anchor="start" x="2534.5" y="-128" font-family="Helvetica,sans-Serif" font-size="10.00">clang/Serialization</text>
<text text-anchor="middle" x="2601" y="-117" font-family="Helvetica,sans-Serif" font-size="10.00">/PCHContainerOperations.h</text>
</a>
</g>
</g>
<!-- Node21&#45;&gt;Node27 -->
<g id="edge29_Node000021_Node000027" class="edge">
<title>Node21&#45;&gt;Node27</title>
<g id="a_edge29_Node000021_Node000027"><a xlink:title=" ">
<path fill="none" stroke="#63b8ff" d="M2338.55,-181.44C2385.96,-171.42 2465.46,-154.63 2524.56,-142.15"/>
<polygon fill="#63b8ff" stroke="#63b8ff" points="2525.54,-145.52 2534.6,-140.02 2524.09,-138.67 2525.54,-145.52"/>
</a>
</g>
</g>
<!-- Node28&#45;&gt;Node16 -->
<g id="edge32_Node000028_Node000016" class="edge">
<title>Node28&#45;&gt;Node16</title>
<g id="a_edge32_Node000028_Node000016"><a xlink:title=" ">
<path fill="none" stroke="#63b8ff" d="M2545.22,-181.44C2593.51,-171.4 2674.55,-154.56 2734.67,-142.07"/>
<polygon fill="#63b8ff" stroke="#63b8ff" points="2735.43,-145.49 2744.51,-140.02 2734,-138.63 2735.43,-145.49"/>
</a>
</g>
</g>
<!-- Node29&#45;&gt;Node16 -->
<g id="edge35_Node000029_Node000016" class="edge">
<title>Node29&#45;&gt;Node16</title>
<g id="a_edge35_Node000029_Node000016"><a xlink:title=" ">
<path fill="none" stroke="#63b8ff" d="M2938.31,-181.37C2916.73,-171.91 2881.47,-156.45 2853.68,-144.27"/>
<polygon fill="#63b8ff" stroke="#63b8ff" points="2854.77,-140.92 2844.2,-140.12 2851.95,-147.34 2854.77,-140.92"/>
</a>
</g>
</g>
<!-- Node29&#45;&gt;Node23 -->
<g id="edge34_Node000029_Node000023" class="edge">
<title>Node29&#45;&gt;Node23</title>
<g id="a_edge34_Node000029_Node000023"><a xlink:title=" ">
<path fill="none" stroke="#63b8ff" d="M2956.14,-181.29C2952.16,-164.8 2941.22,-128.95 2918,-110 2916.68,-108.93 2833.29,-86.88 2785.22,-74.23"/>
<polygon fill="#63b8ff" stroke="#63b8ff" points="2786.11,-70.84 2775.54,-71.68 2784.32,-77.61 2786.11,-70.84"/>
</a>
</g>
</g>
<!-- Node29&#45;&gt;Node30 -->
<g id="edge36_Node000029_Node000030" class="edge">
<title>Node29&#45;&gt;Node30</title>
<g id="a_edge36_Node000029_Node000030"><a xlink:title=" ">
<path fill="none" stroke="#63b8ff" d="M2967.71,-181.37C2979.13,-171.21 2998.32,-154.16 3012.39,-141.65"/>
<polygon fill="#63b8ff" stroke="#63b8ff" points="3014.83,-144.16 3019.98,-134.91 3010.18,-138.93 3014.83,-144.16"/>
</a>
</g>
</g>
<!-- Node30&#45;&gt;Node23 -->
<g id="edge39_Node000030_Node000023" class="edge">
<title>Node30&#45;&gt;Node23</title>
<g id="a_edge39_Node000030_Node000023"><a xlink:title=" ">
<path fill="none" stroke="#63b8ff" d="M2996.61,-115.49C2988.88,-113.61 2980.67,-111.67 2973,-110 2892.97,-92.52 2869.72,-92.59 2785.74,-74.04"/>
<polygon fill="#63b8ff" stroke="#63b8ff" points="2786.27,-70.57 2775.75,-71.81 2784.75,-77.4 2786.27,-70.57"/>
</a>
</g>
</g>
<!-- Node31 -->
<g id="Node000031" class="node">
<title>Node31</title>
<g id="a_Node000031"><a xlink:title=" ">
<polygon fill="#e0e0e0" stroke="#999999" points="3190,-74 3134,-74 3134,-55 3190,-55 3190,-74"/>
<text text-anchor="middle" x="3162" y="-62" font-family="Helvetica,sans-Serif" font-size="10.00">optional</text>
</a>
</g>
</g>
<!-- Node30&#45;&gt;Node31 -->
<g id="edge37_Node000030_Node000031" class="edge">
<title>Node30&#45;&gt;Node31</title>
<g id="a_edge37_Node000030_Node000031"><a xlink:title=" ">
<path fill="none" stroke="#63b8ff" d="M3049.19,-115.49C3071.39,-105.66 3108.12,-89.38 3133.62,-78.08"/>
<polygon fill="#63b8ff" stroke="#63b8ff" points="3135.06,-81.27 3142.78,-74.02 3132.22,-74.87 3135.06,-81.27"/>
</a>
</g>
</g>
<!-- Node32 -->
<g id="Node000032" class="node">
<title>Node32</title>
<g id="a_Node000032"><a xlink:title=" ">
<polygon fill="#e0e0e0" stroke="#999999" points="3265,-19 3221,-19 3221,0 3265,0 3265,-19"/>
<text text-anchor="middle" x="3243" y="-7" font-family="Helvetica,sans-Serif" font-size="10.00">string</text>
</a>
</g>
</g>
<!-- Node30&#45;&gt;Node32 -->
<g id="edge38_Node000030_Node000032" class="edge">
<title>Node30&#45;&gt;Node32</title>
<g id="a_edge38_Node000030_Node000032"><a xlink:title=" ">
<path fill="none" stroke="#63b8ff" d="M3070.22,-119.77C3106.73,-114.26 3160.57,-101.8 3199,-74 3215.09,-62.36 3227.29,-42.94 3234.71,-28.64"/>
<polygon fill="#63b8ff" stroke="#63b8ff" points="3238.02,-29.83 3239.26,-19.31 3231.73,-26.76 3238.02,-29.83"/>
</a>
</g>
</g>
<!-- Node33 -->
<g id="Node000033" class="node">
<title>Node33</title>
<g id="a_Node000033"><a xlink:title=" ">
<polygon fill="#e0e0e0" stroke="#999999" points="3364,-74 3246,-74 3246,-55 3364,-55 3364,-74"/>
<text text-anchor="middle" x="3305" y="-62" font-family="Helvetica,sans-Serif" font-size="10.00">llvm/ADT/StringRef.h</text>
</a>
</g>
</g>
<!-- Node30&#45;&gt;Node33 -->
<g id="edge40_Node000030_Node000033" class="edge">
<title>Node30&#45;&gt;Node33</title>
<g id="a_edge40_Node000030_Node000033"><a xlink:title=" ">
<path fill="none" stroke="#63b8ff" d="M3069.99,-115.49C3118.97,-105.07 3201.96,-87.42 3255.08,-76.12"/>
<polygon fill="#63b8ff" stroke="#63b8ff" points="3255.91,-79.52 3264.96,-74.02 3254.45,-72.67 3255.91,-79.52"/>
</a>
</g>
</g>
<!-- Node34 -->
<g id="Node000034" class="node">
<title>Node34</title>
<g id="a_Node000034"><a xlink:title=" ">
<polygon fill="#e0e0e0" stroke="#999999" points="2912.5,-74 2793.5,-74 2793.5,-55 2912.5,-55 2912.5,-74"/>
<text text-anchor="middle" x="2853" y="-62" font-family="Helvetica,sans-Serif" font-size="10.00">clang/AST/DeclCXX.h</text>
</a>
</g>
</g>
<!-- Node30&#45;&gt;Node34 -->
<g id="edge41_Node000030_Node000034" class="edge">
<title>Node30&#45;&gt;Node34</title>
<g id="a_edge41_Node000030_Node000034"><a xlink:title=" ">
<path fill="none" stroke="#63b8ff" d="M3004.26,-115.49C2973.72,-105.4 2922.63,-88.51 2888.38,-77.19"/>
<polygon fill="#63b8ff" stroke="#63b8ff" points="2889.36,-73.83 2878.77,-74.02 2887.16,-80.48 2889.36,-73.83"/>
</a>
</g>
</g>
<!-- Node35 -->
<g id="Node000035" class="node">
<title>Node35</title>
<g id="a_Node000035"><a xlink:title=" ">
<polygon fill="#e0e0e0" stroke="#999999" points="3029.5,-74 2930.5,-74 2930.5,-55 3029.5,-55 3029.5,-74"/>
<text text-anchor="middle" x="2980" y="-62" font-family="Helvetica,sans-Serif" font-size="10.00">clang/AST/Type.h</text>
</a>
</g>
</g>
<!-- Node30&#45;&gt;Node35 -->
<g id="edge42_Node000030_Node000035" class="edge">
<title>Node30&#45;&gt;Node35</title>
<g id="a_edge42_Node000030_Node000035"><a xlink:title=" ">
<path fill="none" stroke="#63b8ff" d="M3022.62,-115.37C3015.09,-106.55 3003.21,-92.66 2993.91,-81.77"/>
<polygon fill="#63b8ff" stroke="#63b8ff" points="2996.57,-79.5 2987.41,-74.17 2991.24,-84.04 2996.57,-79.5"/>
</a>
</g>
</g>
<!-- Node36 -->
<g id="Node000036" class="node">
<title>Node36</title>
<g id="a_Node000036"><a xlink:href="Param_8hpp.html" target="_top" xlink:title=" ">
<polygon fill="white" stroke="#666666" points="3116,-74 3048,-74 3048,-55 3116,-55 3116,-74"/>
<text text-anchor="middle" x="3082" y="-62" font-family="Helvetica,sans-Serif" font-size="10.00">Param.hpp</text>
</a>
</g>
</g>
<!-- Node30&#45;&gt;Node36 -->
<g id="edge43_Node000030_Node000036" class="edge">
<title>Node30&#45;&gt;Node36</title>
<g id="a_edge43_Node000030_Node000036"><a xlink:title=" ">
<path fill="none" stroke="#63b8ff" d="M3037.67,-115.37C3045.51,-106.55 3057.86,-92.66 3067.54,-81.77"/>
<polygon fill="#63b8ff" stroke="#63b8ff" points="3070.27,-83.97 3074.3,-74.17 3065.04,-79.32 3070.27,-83.97"/>
</a>
</g>
</g>
<!-- Node36&#45;&gt;Node32 -->
<g id="edge45_Node000036_Node000032" class="edge">
<title>Node36&#45;&gt;Node32</title>
<g id="a_edge45_Node000036_Node000032"><a xlink:title=" ">
<path fill="none" stroke="#63b8ff" d="M3107.87,-54.98C3135.98,-45.73 3180.92,-30.94 3211.17,-20.98"/>
<polygon fill="#63b8ff" stroke="#63b8ff" points="3212.42,-24.25 3220.82,-17.8 3210.23,-17.6 3212.42,-24.25"/>
</a>
</g>
</g>
<!-- Node37 -->
<g id="Node000037" class="node">
<title>Node37</title>
<g id="a_Node000037"><a xlink:title=" ">
<polygon fill="#e0e0e0" stroke="#999999" points="3086.5,-19 3029.5,-19 3029.5,0 3086.5,0 3086.5,-19"/>
<text text-anchor="middle" x="3058" y="-7" font-family="Helvetica,sans-Serif" font-size="10.00">ostream</text>
</a>
</g>
</g>
<!-- Node36&#45;&gt;Node37 -->
<g id="edge44_Node000036_Node000037" class="edge">
<title>Node36&#45;&gt;Node37</title>
<g id="a_edge44_Node000036_Node000037"><a xlink:title=" ">
<path fill="none" stroke="#63b8ff" d="M3078.04,-54.75C3074.79,-47.57 3070.08,-37.18 3066.05,-28.27"/>
<polygon fill="#63b8ff" stroke="#63b8ff" points="3069.2,-26.75 3061.89,-19.09 3062.83,-29.64 3069.2,-26.75"/>
</a>
</g>
</g>
<!-- Node38 -->
<g id="Node000038" class="node">
<title>Node38</title>
<g id="a_Node000038"><a xlink:title=" ">
<polygon fill="#e0e0e0" stroke="#999999" points="3203,-19 3105,-19 3105,0 3203,0 3203,-19"/>
<text text-anchor="middle" x="3154" y="-7" font-family="Helvetica,sans-Serif" font-size="10.00">clang/AST/Decl.h</text>
</a>
</g>
</g>
<!-- Node36&#45;&gt;Node38 -->
<g id="edge46_Node000036_Node000038" class="edge">
<title>Node36&#45;&gt;Node38</title>
<g id="a_edge46_Node000036_Node000038"><a xlink:title=" ">
<path fill="none" stroke="#63b8ff" d="M3093.57,-54.98C3104.42,-47 3120.88,-34.88 3133.88,-25.31"/>
<polygon fill="#63b8ff" stroke="#63b8ff" points="3136.24,-27.92 3142.22,-19.17 3132.09,-22.28 3136.24,-27.92"/>
</a>
</g>
</g>
<!-- Node39 -->
<g id="Node000039" class="node">
<title>Node39</title>
<g id="a_Node000039"><a xlink:title=" ">
<polygon fill="#e0e0e0" stroke="#999999" points="2856,-19 2692,-19 2692,0 2856,0 2856,-19"/>
<text text-anchor="middle" x="2774" y="-7" font-family="Helvetica,sans-Serif" font-size="10.00">clang/AST/DependenceFlags.h</text>
</a>
</g>
</g>
<!-- Node36&#45;&gt;Node39 -->
<g id="edge47_Node000036_Node000039" class="edge">
<title>Node36&#45;&gt;Node39</title>
<g id="a_edge47_Node000036_Node000039"><a xlink:title=" ">
<path fill="none" stroke="#63b8ff" d="M3047.75,-56.64C3044.79,-56.07 3041.84,-55.52 3039,-55 2970.34,-42.45 2891.43,-29.37 2837.69,-20.67"/>
<polygon fill="#63b8ff" stroke="#63b8ff" points="2838.06,-17.18 2827.63,-19.04 2836.94,-24.09 2838.06,-17.18"/>
</a>
</g>
</g>
<!-- Node40 -->
<g id="Node000040" class="node">
<title>Node40</title>
<g id="a_Node000040"><a xlink:title=" ">
<polygon fill="#e0e0e0" stroke="#999999" points="3011.5,-19 2874.5,-19 2874.5,0 3011.5,0 3011.5,-19"/>
<text text-anchor="middle" x="2943" y="-7" font-family="Helvetica,sans-Serif" font-size="10.00">clang/AST/PrettyPrinter.h</text>
</a>
</g>
</g>
<!-- Node36&#45;&gt;Node40 -->
<g id="edge48_Node000036_Node000040" class="edge">
<title>Node36&#45;&gt;Node40</title>
<g id="a_edge48_Node000036_Node000040"><a xlink:title=" ">
<path fill="none" stroke="#63b8ff" d="M3059.67,-54.98C3036.8,-46.27 3001.04,-32.63 2975.14,-22.75"/>
<polygon fill="#63b8ff" stroke="#63b8ff" points="2976.33,-19.46 2965.74,-19.17 2973.84,-26 2976.33,-19.46"/>
</a>
</g>
</g>
<!-- Node41&#45;&gt;Node16 -->
<g id="edge51_Node000041_Node000016" class="edge">
<title>Node41&#45;&gt;Node16</title>
<g id="a_edge51_Node000041_Node000016"><a xlink:title=" ">
<path fill="none" stroke="#63b8ff" d="M2755.77,-181.37C2764.52,-172.75 2778.33,-159.15 2790.07,-147.59"/>
<polygon fill="#63b8ff" stroke="#63b8ff" points="2792.75,-149.87 2797.42,-140.36 2787.83,-144.88 2792.75,-149.87"/>
</a>
</g>
</g>
<!-- Node41&#45;&gt;Node23 -->
<g id="edge50_Node000041_Node000023" class="edge">
<title>Node41&#45;&gt;Node23</title>
<g id="a_edge50_Node000041_Node000023"><a xlink:title=" ">
<path fill="none" stroke="#63b8ff" d="M2792.36,-181.48C2833.24,-172.78 2888.89,-158 2902,-140 2909.85,-129.22 2909.98,-120.69 2902,-110 2898.42,-105.2 2828.58,-85.89 2785.48,-74.35"/>
<polygon fill="#63b8ff" stroke="#63b8ff" points="2786.24,-70.93 2775.67,-71.73 2784.43,-77.69 2786.24,-70.93"/>
</a>
</g>
</g>
<!-- Node41&#45;&gt;Node30 -->
<g id="edge52_Node000041_Node000030" class="edge">
<title>Node41&#45;&gt;Node30</title>
<g id="a_edge52_Node000041_Node000030"><a xlink:title=" ">
<path fill="none" stroke="#63b8ff" d="M2784.87,-181.44C2835.92,-169.89 2926.79,-149.34 2982.4,-136.77"/>
<polygon fill="#63b8ff" stroke="#63b8ff" points="2983.37,-140.13 2992.35,-134.51 2981.83,-133.31 2983.37,-140.13"/>
</a>
</g>
</g>
<!-- Node42&#45;&gt;Node17 -->
<g id="edge55_Node000042_Node000017" class="edge">
<title>Node42&#45;&gt;Node17</title>
<g id="a_edge55_Node000042_Node000017"><a xlink:title=" ">
<path fill="none" stroke="#63b8ff" d="M186.07,-181.49C195.53,-179.58 205.61,-177.64 215,-176 305.75,-160.13 410.71,-145.22 479.73,-135.88"/>
<polygon fill="#63b8ff" stroke="#63b8ff" points="480.21,-139.34 489.65,-134.54 479.27,-132.41 480.21,-139.34"/>
</a>
</g>
</g>
</g>
</svg>
