<?xml version="1.0" encoding="UTF-8" standalone="no"?>
<!DOCTYPE svg PUBLIC "-//W3C//DTD SVG 1.1//EN"
 "http://www.w3.org/Graphics/SVG/1.1/DTD/svg11.dtd">
<!-- Generated by graphviz version 2.43.0 (0)
 -->
<!-- Title: Instantiator.cpp Pages: 1 -->
<svg width="2456pt" height="269pt"
 viewBox="0.00 0.00 2455.50 269.00" xmlns="http://www.w3.org/2000/svg" xmlns:xlink="http://www.w3.org/1999/xlink">
<g id="graph0" class="graph" transform="scale(1 1) rotate(0) translate(4 265)">
<title>Instantiator.cpp</title>
<!-- Node1 -->
<g id="Node000001" class="node">
<title>Node1</title>
<g id="a_Node000001"><a xlink:title=" ">
<polygon fill="#999999" stroke="#666666" points="1038,-261 946,-261 946,-242 1038,-242 1038,-261"/>
<text text-anchor="middle" x="992" y="-249" font-family="Helvetica,sans-Serif" font-size="10.00">Instantiator.cpp</text>
</a>
</g>
</g>
<!-- Node2 -->
<g id="Node000002" class="node">
<title>Node2</title>
<g id="a_Node000002"><a xlink:title=" ">
<polygon fill="#e0e0e0" stroke="#999999" points="68,-134.5 0,-134.5 0,-115.5 68,-115.5 68,-134.5"/>
<text text-anchor="middle" x="34" y="-122.5" font-family="Helvetica,sans-Serif" font-size="10.00">filesystem</text>
</a>
</g>
</g>
<!-- Node1&#45;&gt;Node2 -->
<g id="edge1_Node000001_Node000002" class="edge">
<title>Node1&#45;&gt;Node2</title>
<g id="a_edge1_Node000001_Node000002"><a xlink:title=" ">
<path fill="none" stroke="#63b8ff" d="M945.81,-249.98C760.11,-247.69 76.27,-237.17 43,-206 26.61,-190.65 27.25,-163.06 30,-144.64"/>
<polygon fill="#63b8ff" stroke="#63b8ff" points="33.49,-145.01 31.85,-134.54 26.6,-143.75 33.49,-145.01"/>
</a>
</g>
</g>
<!-- Node3 -->
<g id="Node000003" class="node">
<title>Node3</title>
<g id="a_Node000003"><a xlink:title=" ">
<polygon fill="#e0e0e0" stroke="#999999" points="261.5,-200.5 206.5,-200.5 206.5,-181.5 261.5,-181.5 261.5,-200.5"/>
<text text-anchor="middle" x="234" y="-188.5" font-family="Helvetica,sans-Serif" font-size="10.00">fstream</text>
</a>
</g>
</g>
<!-- Node1&#45;&gt;Node3 -->
<g id="edge2_Node000001_Node000003" class="edge">
<title>Node1&#45;&gt;Node3</title>
<g id="a_edge2_Node000001_Node000003"><a xlink:title=" ">
<path fill="none" stroke="#63b8ff" d="M945.97,-249.46C808.2,-246.06 400.66,-233.87 271,-206 268.32,-205.42 265.58,-204.69 262.86,-203.86"/>
<polygon fill="#63b8ff" stroke="#63b8ff" points="263.85,-200.49 253.26,-200.53 261.56,-207.11 263.85,-200.49"/>
</a>
</g>
</g>
<!-- Node4 -->
<g id="Node000004" class="node">
<title>Node4</title>
<g id="a_Node000004"><a xlink:title=" ">
<polygon fill="#e0e0e0" stroke="#999999" points="340,-200.5 280,-200.5 280,-181.5 340,-181.5 340,-200.5"/>
<text text-anchor="middle" x="310" y="-188.5" font-family="Helvetica,sans-Serif" font-size="10.00">iostream</text>
</a>
</g>
</g>
<!-- Node1&#45;&gt;Node4 -->
<g id="edge3_Node000001_Node000004" class="edge">
<title>Node1&#45;&gt;Node4</title>
<g id="a_edge3_Node000001_Node000004"><a xlink:title=" ">
<path fill="none" stroke="#63b8ff" d="M945.6,-248.95C817.89,-244.41 463.17,-229.96 349,-206 346.16,-205.4 343.25,-204.65 340.36,-203.8"/>
<polygon fill="#63b8ff" stroke="#63b8ff" points="341.34,-200.44 330.74,-200.64 339.15,-207.09 341.34,-200.44"/>
</a>
</g>
</g>
<!-- Node5 -->
<g id="Node000005" class="node">
<title>Node5</title>
<g id="a_Node000005"><a xlink:title=" ">
<polygon fill="#e0e0e0" stroke="#999999" points="439.5,-200.5 358.5,-200.5 358.5,-181.5 439.5,-181.5 439.5,-200.5"/>
<text text-anchor="middle" x="399" y="-188.5" font-family="Helvetica,sans-Serif" font-size="10.00">system_error</text>
</a>
</g>
</g>
<!-- Node1&#45;&gt;Node5 -->
<g id="edge4_Node000001_Node000005" class="edge">
<title>Node1&#45;&gt;Node5</title>
<g id="a_edge4_Node000001_Node000005"><a xlink:title=" ">
<path fill="none" stroke="#63b8ff" d="M945.85,-249.69C851.71,-247.38 631.02,-238.63 449,-206 444.59,-205.21 440,-204.2 435.48,-203.08"/>
<polygon fill="#63b8ff" stroke="#63b8ff" points="436.33,-199.68 425.77,-200.51 434.54,-206.45 436.33,-199.68"/>
</a>
</g>
</g>
<!-- Node6 -->
<g id="Node000006" class="node">
<title>Node6</title>
<g id="a_Node000006"><a xlink:title=" ">
<polygon fill="#e0e0e0" stroke="#999999" points="544,-200.5 458,-200.5 458,-181.5 544,-181.5 544,-200.5"/>
<text text-anchor="middle" x="501" y="-188.5" font-family="Helvetica,sans-Serif" font-size="10.00">unordered_set</text>
</a>
</g>
</g>
<!-- Node1&#45;&gt;Node6 -->
<g id="edge5_Node000001_Node000006" class="edge">
<title>Node1&#45;&gt;Node6</title>
<g id="a_edge5_Node000001_Node000006"><a xlink:title=" ">
<path fill="none" stroke="#63b8ff" d="M945.78,-247.87C866.15,-242.88 698.12,-230.27 558,-206 552.92,-205.12 547.63,-204.04 542.39,-202.88"/>
<polygon fill="#63b8ff" stroke="#63b8ff" points="543.03,-199.43 532.49,-200.56 541.43,-206.25 543.03,-199.43"/>
</a>
</g>
</g>
<!-- Node7 -->
<g id="Node000007" class="node">
<title>Node7</title>
<g id="a_Node000007"><a xlink:title=" ">
<polygon fill="#e0e0e0" stroke="#999999" points="332.5,-74 253.5,-74 253.5,-55 332.5,-55 332.5,-74"/>
<text text-anchor="middle" x="293" y="-62" font-family="Helvetica,sans-Serif" font-size="10.00">fmt/ranges.h</text>
</a>
</g>
</g>
<!-- Node1&#45;&gt;Node7 -->
<g id="edge6_Node000001_Node000007" class="edge">
<title>Node1&#45;&gt;Node7</title>
<g id="a_edge6_Node000001_Node000007"><a xlink:title=" ">
<path fill="none" stroke="#63b8ff" d="M945.74,-249.02C875.37,-245.86 737.72,-236.05 625,-206 621.06,-204.95 403.15,-112.34 322.55,-78.07"/>
<polygon fill="#63b8ff" stroke="#63b8ff" points="323.56,-74.7 312.99,-74 320.82,-81.14 323.56,-74.7"/>
</a>
</g>
</g>
<!-- Node8 -->
<g id="Node000008" class="node">
<title>Node8</title>
<g id="a_Node000008"><a xlink:title=" ">
<polygon fill="#e0e0e0" stroke="#999999" points="1401.5,-200.5 1340.5,-200.5 1340.5,-181.5 1401.5,-181.5 1401.5,-200.5"/>
<text text-anchor="middle" x="1371" y="-188.5" font-family="Helvetica,sans-Serif" font-size="10.00">fmt/std.h</text>
</a>
</g>
</g>
<!-- Node1&#45;&gt;Node8 -->
<g id="edge7_Node000001_Node000008" class="edge">
<title>Node1&#45;&gt;Node8</title>
<g id="a_edge7_Node000001_Node000008"><a xlink:title=" ">
<path fill="none" stroke="#63b8ff" d="M1038.05,-247.48C1103.77,-242.49 1227.92,-230.53 1331,-206 1333.82,-205.33 1336.72,-204.53 1339.6,-203.67"/>
<polygon fill="#63b8ff" stroke="#63b8ff" points="1340.81,-206.95 1349.24,-200.53 1338.64,-200.3 1340.81,-206.95"/>
</a>
</g>
</g>
<!-- Node9 -->
<g id="Node000009" class="node">
<title>Node9</title>
<g id="a_Node000009"><a xlink:title=" ">
<polygon fill="#e0e0e0" stroke="#999999" points="1516,-200.5 1420,-200.5 1420,-181.5 1516,-181.5 1516,-200.5"/>
<text text-anchor="middle" x="1468" y="-188.5" font-family="Helvetica,sans-Serif" font-size="10.00">spdlog/cfg/env.h</text>
</a>
</g>
</g>
<!-- Node1&#45;&gt;Node9 -->
<g id="edge8_Node000001_Node000009" class="edge">
<title>Node1&#45;&gt;Node9</title>
<g id="a_edge8_Node000001_Node000009"><a xlink:title=" ">
<path fill="none" stroke="#63b8ff" d="M1038.04,-247.58C1115.33,-242.23 1275.89,-229.22 1410,-206 1415.16,-205.11 1420.55,-204.02 1425.87,-202.85"/>
<polygon fill="#63b8ff" stroke="#63b8ff" points="1426.98,-206.18 1435.94,-200.53 1425.41,-199.36 1426.98,-206.18"/>
</a>
</g>
</g>
<!-- Node10 -->
<g id="Node000010" class="node">
<title>Node10</title>
<g id="a_Node000010"><a xlink:title=" ">
<polygon fill="#e0e0e0" stroke="#999999" points="1627.5,-200.5 1534.5,-200.5 1534.5,-181.5 1627.5,-181.5 1627.5,-200.5"/>
<text text-anchor="middle" x="1581" y="-188.5" font-family="Helvetica,sans-Serif" font-size="10.00">spdlog/spdlog.h</text>
</a>
</g>
</g>
<!-- Node1&#45;&gt;Node10 -->
<g id="edge9_Node000001_Node000010" class="edge">
<title>Node1&#45;&gt;Node10</title>
<g id="a_edge9_Node000001_Node000010"><a xlink:title=" ">
<path fill="none" stroke="#63b8ff" d="M1038.3,-249.15C1131.17,-245.89 1346.59,-235.55 1525,-206 1530.12,-205.15 1535.46,-204.07 1540.73,-202.89"/>
<polygon fill="#63b8ff" stroke="#63b8ff" points="1541.75,-206.25 1550.67,-200.53 1540.13,-199.44 1541.75,-206.25"/>
</a>
</g>
</g>
<!-- Node11 -->
<g id="Node000011" class="node">
<title>Node11</title>
<g id="a_Node000011"><a xlink:title=" ">
<polygon fill="#e0e0e0" stroke="#999999" points="1782.5,-200.5 1645.5,-200.5 1645.5,-181.5 1782.5,-181.5 1782.5,-200.5"/>
<text text-anchor="middle" x="1714" y="-188.5" font-family="Helvetica,sans-Serif" font-size="10.00">clang/AST/ASTImporter.h</text>
</a>
</g>
</g>
<!-- Node1&#45;&gt;Node11 -->
<g id="edge10_Node000001_Node000011" class="edge">
<title>Node1&#45;&gt;Node11</title>
<g id="a_edge10_Node000001_Node000011"><a xlink:title=" ">
<path fill="none" stroke="#63b8ff" d="M1038.24,-249.03C1144.27,-245.28 1413,-233.63 1636,-206 1644.15,-204.99 1652.75,-203.69 1661.13,-202.29"/>
<polygon fill="#63b8ff" stroke="#63b8ff" points="1661.96,-205.7 1671.21,-200.54 1660.76,-198.8 1661.96,-205.7"/>
</a>
</g>
</g>
<!-- Node12 -->
<g id="Node000012" class="node">
<title>Node12</title>
<g id="a_Node000012"><a xlink:title=" ">
<polygon fill="#e0e0e0" stroke="#999999" points="1185.5,-140 1024.5,-140 1024.5,-110 1185.5,-110 1185.5,-140"/>
<text text-anchor="start" x="1032.5" y="-128" font-family="Helvetica,sans-Serif" font-size="10.00">clang/ASTMatchers/ASTMatch</text>
<text text-anchor="middle" x="1105" y="-117" font-family="Helvetica,sans-Serif" font-size="10.00">Finder.h</text>
</a>
</g>
</g>
<!-- Node1&#45;&gt;Node12 -->
<g id="edge11_Node000001_Node000012" class="edge">
<title>Node1&#45;&gt;Node12</title>
<g id="a_edge11_Node000001_Node000012"><a xlink:title=" ">
<path fill="none" stroke="#63b8ff" d="M1030.44,-241.9C1050.8,-235.38 1074.52,-224.31 1089,-206 1101.39,-190.32 1104.99,-167.63 1105.71,-150.41"/>
<polygon fill="#63b8ff" stroke="#63b8ff" points="1109.22,-150.06 1105.84,-140.01 1102.22,-149.97 1109.22,-150.06"/>
</a>
</g>
</g>
<!-- Node13 -->
<g id="Node000013" class="node">
<title>Node13</title>
<g id="a_Node000013"><a xlink:title=" ">
<polygon fill="#e0e0e0" stroke="#999999" points="1947.5,-134.5 1762.5,-134.5 1762.5,-115.5 1947.5,-115.5 1947.5,-134.5"/>
<text text-anchor="middle" x="1855" y="-122.5" font-family="Helvetica,sans-Serif" font-size="10.00">clang/ASTMatchers/ASTMatchers.h</text>
</a>
</g>
</g>
<!-- Node1&#45;&gt;Node13 -->
<g id="edge12_Node000001_Node000013" class="edge">
<title>Node1&#45;&gt;Node13</title>
<g id="a_edge12_Node000001_Node000013"><a xlink:title=" ">
<path fill="none" stroke="#63b8ff" d="M1038.14,-250.11C1198.31,-248.47 1724.12,-240.47 1791,-206 1817.13,-192.53 1836.2,-163.1 1846.43,-143.94"/>
<polygon fill="#63b8ff" stroke="#63b8ff" points="1849.69,-145.26 1851.08,-134.76 1843.44,-142.1 1849.69,-145.26"/>
</a>
</g>
</g>
<!-- Node14 -->
<g id="Node000014" class="node">
<title>Node14</title>
<g id="a_Node000014"><a xlink:title=" ">
<polygon fill="#e0e0e0" stroke="#999999" points="2085.5,-206 1976.5,-206 1976.5,-176 2085.5,-176 2085.5,-206"/>
<text text-anchor="start" x="1984.5" y="-194" font-family="Helvetica,sans-Serif" font-size="10.00">clang/Rewrite/Core</text>
<text text-anchor="middle" x="2031" y="-183" font-family="Helvetica,sans-Serif" font-size="10.00">/Rewriter.h</text>
</a>
</g>
</g>
<!-- Node1&#45;&gt;Node14 -->
<g id="edge13_Node000001_Node000014" class="edge">
<title>Node1&#45;&gt;Node14</title>
<g id="a_edge13_Node000001_Node000014"><a xlink:title=" ">
<path fill="none" stroke="#63b8ff" d="M1038.02,-249.46C1202.97,-245.57 1765.06,-230.87 1966.3,-206.03"/>
<polygon fill="#63b8ff" stroke="#63b8ff" points="1966.99,-209.47 1976.47,-204.72 1966.1,-202.53 1966.99,-209.47"/>
</a>
</g>
</g>
<!-- Node15 -->
<g id="Node000015" class="node">
<title>Node15</title>
<g id="a_Node000015"><a xlink:title=" ">
<polygon fill="#e0e0e0" stroke="#999999" points="2268.5,-206 2103.5,-206 2103.5,-176 2268.5,-176 2268.5,-206"/>
<text text-anchor="start" x="2111.5" y="-194" font-family="Helvetica,sans-Serif" font-size="10.00">clang/Tooling/CommonOptions</text>
<text text-anchor="middle" x="2186" y="-183" font-family="Helvetica,sans-Serif" font-size="10.00">Parser.h</text>
</a>
</g>
</g>
<!-- Node1&#45;&gt;Node15 -->
<g id="edge14_Node000001_Node000015" class="edge">
<title>Node1&#45;&gt;Node15</title>
<g id="a_edge14_Node000001_Node000015"><a xlink:title=" ">
<path fill="none" stroke="#63b8ff" d="M1038.1,-250.49C1188.48,-250.07 1678.56,-245.61 2093.14,-206.11"/>
<polygon fill="#63b8ff" stroke="#63b8ff" points="2093.6,-209.58 2103.22,-205.14 2092.93,-202.61 2093.6,-209.58"/>
</a>
</g>
</g>
<!-- Node16 -->
<g id="Node000016" class="node">
<title>Node16</title>
<g id="a_Node000016"><a xlink:title=" ">
<polygon fill="#e0e0e0" stroke="#999999" points="222.5,-134.5 95.5,-134.5 95.5,-115.5 222.5,-115.5 222.5,-134.5"/>
<text text-anchor="middle" x="159" y="-122.5" font-family="Helvetica,sans-Serif" font-size="10.00">clang/Tooling/Tooling.h</text>
</a>
</g>
</g>
<!-- Node1&#45;&gt;Node16 -->
<g id="edge15_Node000001_Node000016" class="edge">
<title>Node1&#45;&gt;Node16</title>
<g id="a_edge15_Node000001_Node000016"><a xlink:title=" ">
<path fill="none" stroke="#63b8ff" d="M945.77,-250.63C785.37,-250.71 259.14,-247.75 197,-206 176.2,-192.02 166.48,-163.41 162.16,-144.47"/>
<polygon fill="#63b8ff" stroke="#63b8ff" points="165.59,-143.74 160.21,-134.61 158.72,-145.1 165.59,-143.74"/>
</a>
</g>
</g>
<!-- Node17 -->
<g id="Node000017" class="node">
<title>Node17</title>
<g id="a_Node000017"><a xlink:title=" ">
<polygon fill="#e0e0e0" stroke="#999999" points="2447.5,-200.5 2286.5,-200.5 2286.5,-181.5 2447.5,-181.5 2447.5,-200.5"/>
<text text-anchor="middle" x="2367" y="-188.5" font-family="Helvetica,sans-Serif" font-size="10.00">llvm/Support/CommandLine.h</text>
</a>
</g>
</g>
<!-- Node1&#45;&gt;Node17 -->
<g id="edge16_Node000001_Node000017" class="edge">
<title>Node1&#45;&gt;Node17</title>
<g id="a_edge16_Node000001_Node000017"><a xlink:title=" ">
<path fill="none" stroke="#63b8ff" d="M1038.27,-250.92C1205.59,-252.03 1794.87,-252.19 2278,-206 2288.27,-205.02 2299.15,-203.61 2309.65,-202.07"/>
<polygon fill="#63b8ff" stroke="#63b8ff" points="2310.2,-205.52 2319.56,-200.56 2309.15,-198.61 2310.2,-205.52"/>
</a>
</g>
</g>
<!-- Node18 -->
<g id="Node000018" class="node">
<title>Node18</title>
<g id="a_Node000018"><a xlink:href="ASTCreation_8hpp.html" target="_top" xlink:title=" ">
<polygon fill="white" stroke="#666666" points="149.5,-200.5 52.5,-200.5 52.5,-181.5 149.5,-181.5 149.5,-200.5"/>
<text text-anchor="middle" x="101" y="-188.5" font-family="Helvetica,sans-Serif" font-size="10.00">ASTCreation.hpp</text>
</a>
</g>
</g>
<!-- Node1&#45;&gt;Node18 -->
<g id="edge17_Node000001_Node000018" class="edge">
<title>Node1&#45;&gt;Node18</title>
<g id="a_edge17_Node000001_Node000018"><a xlink:title=" ">
<path fill="none" stroke="#63b8ff" d="M945.97,-250.68C820.12,-250.6 459.95,-246.55 164,-206 157.66,-205.13 151.02,-203.95 144.52,-202.65"/>
<polygon fill="#63b8ff" stroke="#63b8ff" points="145,-199.17 134.49,-200.52 143.54,-206.02 145,-199.17"/>
</a>
</g>
</g>
<!-- Node19 -->
<g id="Node000019" class="node">
<title>Node19</title>
<g id="a_Node000019"><a xlink:href="DeleteInstantiations_8hpp.html" target="_top" xlink:title=" ">
<polygon fill="white" stroke="#666666" points="1322.5,-200.5 1135.5,-200.5 1135.5,-181.5 1322.5,-181.5 1322.5,-200.5"/>
<text text-anchor="middle" x="1229" y="-188.5" font-family="Helvetica,sans-Serif" font-size="10.00">Callbacks/DeleteInstantiations.hpp</text>
</a>
</g>
</g>
<!-- Node1&#45;&gt;Node19 -->
<g id="edge20_Node000001_Node000019" class="edge">
<title>Node1&#45;&gt;Node19</title>
<g id="a_edge20_Node000001_Node000019"><a xlink:title=" ">
<path fill="none" stroke="#63b8ff" d="M1026.46,-241.99C1068.24,-231.68 1138.72,-214.28 1184.54,-202.97"/>
<polygon fill="#63b8ff" stroke="#63b8ff" points="1185.63,-206.31 1194.5,-200.52 1183.95,-199.52 1185.63,-206.31"/>
</a>
</g>
</g>
<!-- Node20 -->
<g id="Node000020" class="node">
<title>Node20</title>
<g id="a_Node000020"><a xlink:href="GetNeededInstantiations_8hpp.html" target="_top" xlink:title=" ">
<polygon fill="white" stroke="#666666" points="885.5,-200.5 676.5,-200.5 676.5,-181.5 885.5,-181.5 885.5,-200.5"/>
<text text-anchor="middle" x="781" y="-188.5" font-family="Helvetica,sans-Serif" font-size="10.00">Callbacks/GetNeededInstantiations.hpp</text>
</a>
</g>
</g>
<!-- Node1&#45;&gt;Node20 -->
<g id="edge22_Node000001_Node000020" class="edge">
<title>Node1&#45;&gt;Node20</title>
<g id="a_edge22_Node000001_Node000020"><a xlink:title=" ">
<path fill="none" stroke="#63b8ff" d="M961.32,-241.99C924.44,-231.77 862.43,-214.58 821.61,-203.26"/>
<polygon fill="#63b8ff" stroke="#63b8ff" points="822.29,-199.82 811.72,-200.52 820.42,-206.56 822.29,-199.82"/>
</a>
</g>
</g>
<!-- Node22 -->
<g id="Node000022" class="node">
<title>Node22</title>
<g id="a_Node000022"><a xlink:href="Injection_8hpp.html" target="_top" xlink:title=" ">
<polygon fill="white" stroke="#666666" points="821,-134.5 741,-134.5 741,-115.5 821,-115.5 821,-134.5"/>
<text text-anchor="middle" x="781" y="-122.5" font-family="Helvetica,sans-Serif" font-size="10.00">Injection.hpp</text>
</a>
</g>
</g>
<!-- Node1&#45;&gt;Node22 -->
<g id="edge53_Node000001_Node000022" class="edge">
<title>Node1&#45;&gt;Node22</title>
<g id="a_edge53_Node000001_Node000022"><a xlink:title=" ">
<path fill="none" stroke="#63b8ff" d="M945.74,-251.28C864.79,-251.55 702.61,-246.82 667,-206 640.6,-175.74 696.42,-151.08 738.9,-137.48"/>
<polygon fill="#63b8ff" stroke="#63b8ff" points="740.02,-140.8 748.54,-134.51 737.95,-134.11 740.02,-140.8"/>
</a>
</g>
</g>
<!-- Node33 -->
<g id="Node000033" class="node">
<title>Node33</title>
<g id="a_Node000033"><a xlink:href="InjectInstantiation_8hpp.html" target="_top" xlink:title=" ">
<polygon fill="white" stroke="#666666" points="1080,-200.5 904,-200.5 904,-181.5 1080,-181.5 1080,-200.5"/>
<text text-anchor="middle" x="992" y="-188.5" font-family="Helvetica,sans-Serif" font-size="10.00">Callbacks/InjectInstantiation.hpp</text>
</a>
</g>
</g>
<!-- Node1&#45;&gt;Node33 -->
<g id="edge45_Node000001_Node000033" class="edge">
<title>Node1&#45;&gt;Node33</title>
<g id="a_edge45_Node000001_Node000033"><a xlink:title=" ">
<path fill="none" stroke="#63b8ff" d="M992,-241.87C992,-233.75 992,-221.31 992,-210.89"/>
<polygon fill="#63b8ff" stroke="#63b8ff" points="995.5,-210.67 992,-200.67 988.5,-210.67 995.5,-210.67"/>
</a>
</g>
</g>
<!-- Node34 -->
<g id="Node000034" class="node">
<title>Node34</title>
<g id="a_Node000034"><a xlink:href="ProgressBar_8hpp.html" target="_top" xlink:title=" ">
<polygon fill="white" stroke="#666666" points="498.5,-74 389.5,-74 389.5,-55 498.5,-55 498.5,-74"/>
<text text-anchor="middle" x="444" y="-62" font-family="Helvetica,sans-Serif" font-size="10.00">IO/ProgressBar.hpp</text>
</a>
</g>
</g>
<!-- Node1&#45;&gt;Node34 -->
<g id="edge49_Node000001_Node000034" class="edge">
<title>Node1&#45;&gt;Node34</title>
<g id="a_edge49_Node000001_Node000034"><a xlink:title=" ">
<path fill="none" stroke="#63b8ff" d="M945.94,-248.78C865.86,-245.09 704.94,-234.29 657,-206 611.29,-179.03 629.23,-140.78 586,-110 562.95,-93.59 533.64,-83.07 507.64,-76.42"/>
<polygon fill="#63b8ff" stroke="#63b8ff" points="508.4,-73 497.86,-74.05 506.75,-79.8 508.4,-73"/>
</a>
</g>
</g>
<!-- Node35 -->
<g id="Node000035" class="node">
<title>Node35</title>
<g id="a_Node000035"><a xlink:href="Matcher_8hpp.html" target="_top" xlink:title="AST matcher expressions to filter the relevant nodes for template instantiations.">
<polygon fill="white" stroke="#666666" points="1958.5,-200.5 1839.5,-200.5 1839.5,-181.5 1958.5,-181.5 1958.5,-200.5"/>
<text text-anchor="middle" x="1899" y="-188.5" font-family="Helvetica,sans-Serif" font-size="10.00">Matcher/Matcher.hpp</text>
</a>
</g>
</g>
<!-- Node1&#45;&gt;Node35 -->
<g id="edge54_Node000001_Node000035" class="edge">
<title>Node1&#45;&gt;Node35</title>
<g id="a_edge54_Node000001_Node000035"><a xlink:title=" ">
<path fill="none" stroke="#63b8ff" d="M1038.24,-250.19C1164.69,-248.89 1526.66,-242.03 1825,-206 1832.85,-205.05 1841.12,-203.77 1849.17,-202.37"/>
<polygon fill="#63b8ff" stroke="#63b8ff" points="1850,-205.77 1859.21,-200.54 1848.75,-198.89 1850,-205.77"/>
</a>
</g>
</g>
<!-- Node18&#45;&gt;Node2 -->
<g id="edge18_Node000018_Node000002" class="edge">
<title>Node18&#45;&gt;Node2</title>
<g id="a_edge18_Node000018_Node000002"><a xlink:title=" ">
<path fill="none" stroke="#63b8ff" d="M91.96,-181.37C81.43,-171.31 63.81,-154.48 50.76,-142.01"/>
<polygon fill="#63b8ff" stroke="#63b8ff" points="52.97,-139.28 43.32,-134.91 48.14,-144.34 52.97,-139.28"/>
</a>
</g>
</g>
<!-- Node18&#45;&gt;Node16 -->
<g id="edge19_Node000018_Node000016" class="edge">
<title>Node18&#45;&gt;Node16</title>
<g id="a_edge19_Node000018_Node000016"><a xlink:title=" ">
<path fill="none" stroke="#63b8ff" d="M108.82,-181.37C117.85,-171.4 132.91,-154.79 144.17,-142.36"/>
<polygon fill="#63b8ff" stroke="#63b8ff" points="146.81,-144.67 150.93,-134.91 141.62,-139.96 146.81,-144.67"/>
</a>
</g>
</g>
<!-- Node19&#45;&gt;Node12 -->
<g id="edge21_Node000019_Node000012" class="edge">
<title>Node19&#45;&gt;Node12</title>
<g id="a_edge21_Node000019_Node000012"><a xlink:title=" ">
<path fill="none" stroke="#63b8ff" d="M1212.28,-181.37C1194.19,-172.03 1164.78,-156.86 1141.33,-144.75"/>
<polygon fill="#63b8ff" stroke="#63b8ff" points="1142.84,-141.59 1132.35,-140.12 1139.63,-147.81 1142.84,-141.59"/>
</a>
</g>
</g>
<!-- Node20&#45;&gt;Node12 -->
<g id="edge24_Node000020_Node000012" class="edge">
<title>Node20&#45;&gt;Node12</title>
<g id="a_edge24_Node000020_Node000012"><a xlink:title=" ">
<path fill="none" stroke="#63b8ff" d="M824.36,-181.44C875.26,-171.38 960.76,-154.49 1024.04,-141.99"/>
<polygon fill="#63b8ff" stroke="#63b8ff" points="1024.87,-145.4 1034,-140.02 1023.51,-138.53 1024.87,-145.4"/>
</a>
</g>
</g>
<!-- Node21 -->
<g id="Node000021" class="node">
<title>Node21</title>
<g id="a_Node000021"><a xlink:title=" ">
<polygon fill="#e0e0e0" stroke="#999999" points="1130.5,-74 1083.5,-74 1083.5,-55 1130.5,-55 1130.5,-74"/>
<text text-anchor="middle" x="1107" y="-62" font-family="Helvetica,sans-Serif" font-size="10.00">vector</text>
</a>
</g>
</g>
<!-- Node20&#45;&gt;Node21 -->
<g id="edge23_Node000020_Node000021" class="edge">
<title>Node20&#45;&gt;Node21</title>
<g id="a_edge23_Node000020_Node000021"><a xlink:title=" ">
<path fill="none" stroke="#63b8ff" d="M803.41,-181.44C860.05,-159.81 1009.15,-102.87 1074.98,-77.73"/>
<polygon fill="#63b8ff" stroke="#63b8ff" points="1076.34,-80.95 1084.44,-74.12 1073.85,-74.42 1076.34,-80.95"/>
</a>
</g>
</g>
<!-- Node20&#45;&gt;Node22 -->
<g id="edge25_Node000020_Node000022" class="edge">
<title>Node20&#45;&gt;Node22</title>
<g id="a_edge25_Node000020_Node000022"><a xlink:title=" ">
<path fill="none" stroke="#63b8ff" d="M781,-181.37C781,-172.16 781,-157.29 781,-145.27"/>
<polygon fill="#63b8ff" stroke="#63b8ff" points="784.5,-144.91 781,-134.91 777.5,-144.91 784.5,-144.91"/>
</a>
</g>
</g>
<!-- Node22&#45;&gt;Node7 -->
<g id="edge30_Node000022_Node000007" class="edge">
<title>Node22&#45;&gt;Node7</title>
<g id="a_edge30_Node000022_Node000007"><a xlink:title=" ">
<path fill="none" stroke="#63b8ff" d="M740.84,-119.94C664.17,-112.05 491.67,-93.71 347,-74 345.7,-73.82 344.39,-73.64 343.07,-73.45"/>
<polygon fill="#63b8ff" stroke="#63b8ff" points="343.19,-69.93 332.78,-71.95 342.17,-76.86 343.19,-69.93"/>
</a>
</g>
</g>
<!-- Node22&#45;&gt;Node21 -->
<g id="edge27_Node000022_Node000021" class="edge">
<title>Node22&#45;&gt;Node21</title>
<g id="a_edge27_Node000022_Node000021"><a xlink:title=" ">
<path fill="none" stroke="#63b8ff" d="M821.18,-117.65C876.95,-108.7 980.9,-91.49 1069,-74 1070.45,-73.71 1071.93,-73.41 1073.42,-73.1"/>
<polygon fill="#63b8ff" stroke="#63b8ff" points="1074.28,-76.5 1083.32,-70.98 1072.81,-69.65 1074.28,-76.5"/>
</a>
</g>
</g>
<!-- Node23 -->
<g id="Node000023" class="node">
<title>Node23</title>
<g id="a_Node000023"><a xlink:title=" ">
<polygon fill="#e0e0e0" stroke="#999999" points="958,-19 914,-19 914,0 958,0 958,-19"/>
<text text-anchor="middle" x="936" y="-7" font-family="Helvetica,sans-Serif" font-size="10.00">string</text>
</a>
</g>
</g>
<!-- Node22&#45;&gt;Node23 -->
<g id="edge26_Node000022_Node000023" class="edge">
<title>Node22&#45;&gt;Node23</title>
<g id="a_edge26_Node000022_Node000023"><a xlink:title=" ">
<path fill="none" stroke="#63b8ff" d="M821.2,-118.94C889.57,-109.92 1022.44,-90.48 1036,-74 1041.37,-67.48 1040.6,-62.08 1036,-55 1028.11,-42.85 994.12,-29.38 967.94,-20.48"/>
<polygon fill="#63b8ff" stroke="#63b8ff" points="968.95,-17.13 958.36,-17.3 966.75,-23.77 968.95,-17.13"/>
</a>
</g>
</g>
<!-- Node24 -->
<g id="Node000024" class="node">
<title>Node24</title>
<g id="a_Node000024"><a xlink:title=" ">
<polygon fill="#e0e0e0" stroke="#999999" points="731.5,-19 662.5,-19 662.5,0 731.5,0 731.5,-19"/>
<text text-anchor="middle" x="697" y="-7" font-family="Helvetica,sans-Serif" font-size="10.00">fmt/color.h</text>
</a>
</g>
</g>
<!-- Node22&#45;&gt;Node24 -->
<g id="edge28_Node000022_Node000024" class="edge">
<title>Node22&#45;&gt;Node24</title>
<g id="a_edge28_Node000022_Node000024"><a xlink:title=" ">
<path fill="none" stroke="#63b8ff" d="M780.32,-115.12C778.86,-101.13 774.38,-73.64 761,-55 751.66,-42 737.29,-31.51 724.53,-23.99"/>
<polygon fill="#63b8ff" stroke="#63b8ff" points="726.06,-20.83 715.62,-19.04 722.66,-26.96 726.06,-20.83"/>
</a>
</g>
</g>
<!-- Node25 -->
<g id="Node000025" class="node">
<title>Node25</title>
<g id="a_Node000025"><a xlink:title=" ">
<polygon fill="#e0e0e0" stroke="#999999" points="587.5,-19 520.5,-19 520.5,0 587.5,0 587.5,-19"/>
<text text-anchor="middle" x="554" y="-7" font-family="Helvetica,sans-Serif" font-size="10.00">fmt/core.h</text>
</a>
</g>
</g>
<!-- Node22&#45;&gt;Node25 -->
<g id="edge29_Node000022_Node000025" class="edge">
<title>Node22&#45;&gt;Node25</title>
<g id="a_edge29_Node000022_Node000025"><a xlink:title=" ">
<path fill="none" stroke="#63b8ff" d="M740.65,-120.41C641.27,-111.37 391.89,-87.46 380,-74 341.09,-29.93 446.49,-16.42 509.94,-12.3"/>
<polygon fill="#63b8ff" stroke="#63b8ff" points="510.33,-15.78 520.11,-11.69 509.92,-8.79 510.33,-15.78"/>
</a>
</g>
</g>
<!-- Node26 -->
<g id="Node000026" class="node">
<title>Node26</title>
<g id="a_Node000026"><a xlink:title=" ">
<polygon fill="#e0e0e0" stroke="#999999" points="635.5,-74 516.5,-74 516.5,-55 635.5,-55 635.5,-74"/>
<text text-anchor="middle" x="576" y="-62" font-family="Helvetica,sans-Serif" font-size="10.00">clang/AST/DeclCXX.h</text>
</a>
</g>
</g>
<!-- Node22&#45;&gt;Node26 -->
<g id="edge31_Node000022_Node000026" class="edge">
<title>Node22&#45;&gt;Node26</title>
<g id="a_edge31_Node000022_Node000026"><a xlink:title=" ">
<path fill="none" stroke="#63b8ff" d="M751.19,-115.49C715.44,-105.29 655.37,-88.15 615.71,-76.83"/>
<polygon fill="#63b8ff" stroke="#63b8ff" points="616.42,-73.4 605.84,-74.02 614.5,-80.13 616.42,-73.4"/>
</a>
</g>
</g>
<!-- Node27 -->
<g id="Node000027" class="node">
<title>Node27</title>
<g id="a_Node000027"><a xlink:title=" ">
<polygon fill="#e0e0e0" stroke="#999999" points="752.5,-74 653.5,-74 653.5,-55 752.5,-55 752.5,-74"/>
<text text-anchor="middle" x="703" y="-62" font-family="Helvetica,sans-Serif" font-size="10.00">clang/AST/Type.h</text>
</a>
</g>
</g>
<!-- Node22&#45;&gt;Node27 -->
<g id="edge32_Node000022_Node000027" class="edge">
<title>Node22&#45;&gt;Node27</title>
<g id="a_edge32_Node000022_Node000027"><a xlink:title=" ">
<path fill="none" stroke="#63b8ff" d="M769.49,-115.37C757.16,-106.12 737.38,-91.28 722.59,-80.19"/>
<polygon fill="#63b8ff" stroke="#63b8ff" points="724.66,-77.37 714.56,-74.17 720.46,-82.97 724.66,-77.37"/>
</a>
</g>
</g>
<!-- Node28 -->
<g id="Node000028" class="node">
<title>Node28</title>
<g id="a_Node000028"><a xlink:href="Param_8hpp.html" target="_top" xlink:title=" ">
<polygon fill="white" stroke="#666666" points="1027,-74 959,-74 959,-55 1027,-55 1027,-74"/>
<text text-anchor="middle" x="993" y="-62" font-family="Helvetica,sans-Serif" font-size="10.00">Param.hpp</text>
</a>
</g>
</g>
<!-- Node22&#45;&gt;Node28 -->
<g id="edge33_Node000022_Node000028" class="edge">
<title>Node22&#45;&gt;Node28</title>
<g id="a_edge33_Node000022_Node000028"><a xlink:title=" ">
<path fill="none" stroke="#63b8ff" d="M811.83,-115.49C848.96,-105.25 911.45,-88 952.46,-76.69"/>
<polygon fill="#63b8ff" stroke="#63b8ff" points="953.43,-80.05 962.14,-74.02 951.57,-73.3 953.43,-80.05"/>
</a>
</g>
</g>
<!-- Node31 -->
<g id="Node000031" class="node">
<title>Node31</title>
<g id="a_Node000031"><a xlink:href="TemplateArgument_8hpp.html" target="_top" xlink:title=" ">
<polygon fill="white" stroke="#666666" points="940.5,-74 809.5,-74 809.5,-55 940.5,-55 940.5,-74"/>
<text text-anchor="middle" x="875" y="-62" font-family="Helvetica,sans-Serif" font-size="10.00">TemplateArgument.hpp</text>
</a>
</g>
</g>
<!-- Node22&#45;&gt;Node31 -->
<g id="edge39_Node000022_Node000031" class="edge">
<title>Node22&#45;&gt;Node31</title>
<g id="a_edge39_Node000022_Node000031"><a xlink:title=" ">
<path fill="none" stroke="#63b8ff" d="M794.87,-115.37C810,-105.95 834.46,-90.73 852.38,-79.58"/>
<polygon fill="#63b8ff" stroke="#63b8ff" points="854.43,-82.42 861.07,-74.17 850.73,-76.48 854.43,-82.42"/>
</a>
</g>
</g>
<!-- Node28&#45;&gt;Node23 -->
<g id="edge34_Node000028_Node000023" class="edge">
<title>Node28&#45;&gt;Node23</title>
<g id="a_edge34_Node000028_Node000023"><a xlink:title=" ">
<path fill="none" stroke="#63b8ff" d="M983.84,-54.98C975.5,-47.23 962.97,-35.58 952.82,-26.14"/>
<polygon fill="#63b8ff" stroke="#63b8ff" points="955.03,-23.42 945.32,-19.17 950.26,-28.54 955.03,-23.42"/>
</a>
</g>
</g>
<!-- Node28&#45;&gt;Node24 -->
<g id="edge35_Node000028_Node000024" class="edge">
<title>Node28&#45;&gt;Node24</title>
<g id="a_edge35_Node000028_Node000024"><a xlink:title=" ">
<path fill="none" stroke="#63b8ff" d="M958.9,-56.85C955.56,-56.21 952.21,-55.59 949,-55 859.78,-38.66 834.92,-36.06 741.45,-19.05"/>
<polygon fill="#63b8ff" stroke="#63b8ff" points="742.04,-15.6 731.58,-17.25 740.78,-22.49 742.04,-15.6"/>
</a>
</g>
</g>
<!-- Node28&#45;&gt;Node25 -->
<g id="edge36_Node000028_Node000025" class="edge">
<title>Node28&#45;&gt;Node25</title>
<g id="a_edge36_Node000028_Node000025"><a xlink:title=" ">
<path fill="none" stroke="#63b8ff" d="M958.94,-56.65C955.58,-56.05 952.23,-55.49 949,-55 822.04,-35.62 670.93,-20.9 597.87,-14.31"/>
<polygon fill="#63b8ff" stroke="#63b8ff" points="597.94,-10.8 587.67,-13.39 597.32,-17.77 597.94,-10.8"/>
</a>
</g>
</g>
<!-- Node29 -->
<g id="Node000029" class="node">
<title>Node29</title>
<g id="a_Node000029"><a xlink:title=" ">
<polygon fill="#e0e0e0" stroke="#999999" points="1230,-19 1132,-19 1132,0 1230,0 1230,-19"/>
<text text-anchor="middle" x="1181" y="-7" font-family="Helvetica,sans-Serif" font-size="10.00">clang/AST/Decl.h</text>
</a>
</g>
</g>
<!-- Node28&#45;&gt;Node29 -->
<g id="edge37_Node000028_Node000029" class="edge">
<title>Node28&#45;&gt;Node29</title>
<g id="a_edge37_Node000028_Node000029"><a xlink:title=" ">
<path fill="none" stroke="#63b8ff" d="M1023.21,-54.98C1055.04,-46.01 1105.36,-31.82 1140.6,-21.89"/>
<polygon fill="#63b8ff" stroke="#63b8ff" points="1141.88,-25.16 1150.56,-19.08 1139.98,-18.43 1141.88,-25.16"/>
</a>
</g>
</g>
<!-- Node30 -->
<g id="Node000030" class="node">
<title>Node30</title>
<g id="a_Node000030"><a xlink:title=" ">
<polygon fill="#e0e0e0" stroke="#999999" points="1113.5,-19 976.5,-19 976.5,0 1113.5,0 1113.5,-19"/>
<text text-anchor="middle" x="1045" y="-7" font-family="Helvetica,sans-Serif" font-size="10.00">clang/AST/PrettyPrinter.h</text>
</a>
</g>
</g>
<!-- Node28&#45;&gt;Node30 -->
<g id="edge38_Node000028_Node000030" class="edge">
<title>Node28&#45;&gt;Node30</title>
<g id="a_edge38_Node000028_Node000030"><a xlink:title=" ">
<path fill="none" stroke="#63b8ff" d="M1001.59,-54.75C1009.16,-47.03 1020.38,-35.6 1029.51,-26.28"/>
<polygon fill="#63b8ff" stroke="#63b8ff" points="1032.07,-28.68 1036.57,-19.09 1027.07,-23.78 1032.07,-28.68"/>
</a>
</g>
</g>
<!-- Node31&#45;&gt;Node23 -->
<g id="edge41_Node000031_Node000023" class="edge">
<title>Node31&#45;&gt;Node23</title>
<g id="a_edge41_Node000031_Node000023"><a xlink:title=" ">
<path fill="none" stroke="#63b8ff" d="M884.8,-54.98C893.82,-47.15 907.41,-35.34 918.32,-25.86"/>
<polygon fill="#63b8ff" stroke="#63b8ff" points="920.77,-28.37 926.02,-19.17 916.18,-23.09 920.77,-28.37"/>
</a>
</g>
</g>
<!-- Node31&#45;&gt;Node24 -->
<g id="edge42_Node000031_Node000024" class="edge">
<title>Node31&#45;&gt;Node24</title>
<g id="a_edge42_Node000031_Node000024"><a xlink:title=" ">
<path fill="none" stroke="#63b8ff" d="M846.4,-54.98C816.39,-46.05 769.02,-31.94 735.68,-22.02"/>
<polygon fill="#63b8ff" stroke="#63b8ff" points="736.41,-18.58 725.82,-19.08 734.41,-25.29 736.41,-18.58"/>
</a>
</g>
</g>
<!-- Node31&#45;&gt;Node25 -->
<g id="edge43_Node000031_Node000025" class="edge">
<title>Node31&#45;&gt;Node25</title>
<g id="a_edge43_Node000031_Node000025"><a xlink:title=" ">
<path fill="none" stroke="#63b8ff" d="M823.43,-54.98C760.9,-44.66 656.61,-27.44 597.8,-17.73"/>
<polygon fill="#63b8ff" stroke="#63b8ff" points="598.16,-14.24 587.72,-16.07 597.02,-21.15 598.16,-14.24"/>
</a>
</g>
</g>
<!-- Node31&#45;&gt;Node30 -->
<g id="edge44_Node000031_Node000030" class="edge">
<title>Node31&#45;&gt;Node30</title>
<g id="a_edge44_Node000031_Node000030"><a xlink:title=" ">
<path fill="none" stroke="#63b8ff" d="M902.31,-54.98C930.85,-46.09 975.83,-32.07 1007.64,-22.15"/>
<polygon fill="#63b8ff" stroke="#63b8ff" points="1008.97,-25.4 1017.47,-19.08 1006.88,-18.72 1008.97,-25.4"/>
</a>
</g>
</g>
<!-- Node32 -->
<g id="Node000032" class="node">
<title>Node32</title>
<g id="a_Node000032"><a xlink:title=" ">
<polygon fill="#e0e0e0" stroke="#999999" points="896,-19 750,-19 750,0 896,0 896,-19"/>
<text text-anchor="middle" x="823" y="-7" font-family="Helvetica,sans-Serif" font-size="10.00">clang/AST/TemplateBase.h</text>
</a>
</g>
</g>
<!-- Node31&#45;&gt;Node32 -->
<g id="edge40_Node000031_Node000032" class="edge">
<title>Node31&#45;&gt;Node32</title>
<g id="a_edge40_Node000031_Node000032"><a xlink:title=" ">
<path fill="none" stroke="#63b8ff" d="M866.41,-54.75C858.84,-47.03 847.62,-35.6 838.49,-26.28"/>
<polygon fill="#63b8ff" stroke="#63b8ff" points="840.93,-23.78 831.43,-19.09 835.93,-28.68 840.93,-23.78"/>
</a>
</g>
</g>
<!-- Node33&#45;&gt;Node12 -->
<g id="edge47_Node000033_Node000012" class="edge">
<title>Node33&#45;&gt;Node12</title>
<g id="a_edge47_Node000033_Node000012"><a xlink:title=" ">
<path fill="none" stroke="#63b8ff" d="M1007.24,-181.37C1023.58,-172.11 1050.05,-157.12 1071.32,-145.07"/>
<polygon fill="#63b8ff" stroke="#63b8ff" points="1073.1,-148.09 1080.08,-140.12 1069.65,-142 1073.1,-148.09"/>
</a>
</g>
</g>
<!-- Node33&#45;&gt;Node21 -->
<g id="edge46_Node000033_Node000021" class="edge">
<title>Node33&#45;&gt;Node21</title>
<g id="a_edge46_Node000033_Node000021"><a xlink:title=" ">
<path fill="none" stroke="#63b8ff" d="M992.24,-181.48C993.12,-165.61 997.12,-131.22 1015,-110 1030.06,-92.12 1053.98,-80.86 1073.66,-74.14"/>
<polygon fill="#63b8ff" stroke="#63b8ff" points="1074.73,-77.47 1083.21,-71.11 1072.62,-70.8 1074.73,-77.47"/>
</a>
</g>
</g>
<!-- Node33&#45;&gt;Node22 -->
<g id="edge48_Node000033_Node000022" class="edge">
<title>Node33&#45;&gt;Node22</title>
<g id="a_edge48_Node000033_Node000022"><a xlink:title=" ">
<path fill="none" stroke="#63b8ff" d="M963.54,-181.37C926.24,-170.05 860.67,-150.16 819.1,-137.56"/>
<polygon fill="#63b8ff" stroke="#63b8ff" points="819.93,-134.15 809.34,-134.6 817.9,-140.85 819.93,-134.15"/>
</a>
</g>
</g>
<!-- Node34&#45;&gt;Node23 -->
<g id="edge50_Node000034_Node000023" class="edge">
<title>Node34&#45;&gt;Node23</title>
<g id="a_edge50_Node000034_Node000023"><a xlink:title=" ">
<path fill="none" stroke="#63b8ff" d="M498.62,-55.98C501.45,-55.64 504.26,-55.31 507,-55 680.22,-35.49 728.45,-50.04 903.68,-18.92"/>
<polygon fill="#63b8ff" stroke="#63b8ff" points="904.54,-22.32 913.76,-17.11 903.3,-15.43 904.54,-22.32"/>
</a>
</g>
</g>
<!-- Node34&#45;&gt;Node24 -->
<g id="edge51_Node000034_Node000024" class="edge">
<title>Node34&#45;&gt;Node24</title>
<g id="a_edge51_Node000034_Node000024"><a xlink:title=" ">
<path fill="none" stroke="#63b8ff" d="M484.65,-54.98C530.46,-45.39 604.7,-29.84 652.16,-19.89"/>
<polygon fill="#63b8ff" stroke="#63b8ff" points="653.08,-23.28 662.15,-17.8 651.65,-16.42 653.08,-23.28"/>
</a>
</g>
</g>
<!-- Node34&#45;&gt;Node25 -->
<g id="edge52_Node000034_Node000025" class="edge">
<title>Node34&#45;&gt;Node25</title>
<g id="a_edge52_Node000034_Node000025"><a xlink:title=" ">
<path fill="none" stroke="#63b8ff" d="M461.67,-54.98C479.29,-46.5 506.58,-33.35 526.93,-23.54"/>
<polygon fill="#63b8ff" stroke="#63b8ff" points="528.52,-26.66 536.01,-19.17 525.48,-20.36 528.52,-26.66"/>
</a>
</g>
</g>
<!-- Node35&#45;&gt;Node13 -->
<g id="edge55_Node000035_Node000013" class="edge">
<title>Node35&#45;&gt;Node13</title>
<g id="a_edge55_Node000035_Node000013"><a xlink:title=" ">
<path fill="none" stroke="#63b8ff" d="M1893.07,-181.37C1886.41,-171.69 1875.44,-155.74 1866.99,-143.44"/>
<polygon fill="#63b8ff" stroke="#63b8ff" points="1869.67,-141.16 1861.12,-134.91 1863.9,-145.13 1869.67,-141.16"/>
</a>
</g>
</g>
</g>
</svg>
