<?xml version="1.0" encoding="UTF-8" standalone="no"?>
<!DOCTYPE svg PUBLIC "-//W3C//DTD SVG 1.1//EN"
 "http://www.w3.org/Graphics/SVG/1.1/DTD/svg11.dtd">
<!-- Generated by graphviz version 2.43.0 (0)
 -->
<!-- Title: Instantiator.cpp Pages: 1 -->
<svg width="2479pt" height="274pt"
 viewBox="0.00 0.00 2478.50 274.00" xmlns="http://www.w3.org/2000/svg" xmlns:xlink="http://www.w3.org/1999/xlink">
<g id="graph0" class="graph" transform="scale(1 1) rotate(0) translate(4 270)">
<title>Instantiator.cpp</title>
<!-- Node1 -->
<g id="node1" class="node">
<title>Node1</title>
<g id="a_node1"><a xlink:title=" ">
<polygon fill="#bfbfbf" stroke="black" points="1203,-246.5 1203,-265.5 1295,-265.5 1295,-246.5 1203,-246.5"/>
<text text-anchor="middle" x="1249" y="-253.5" font-family="Helvetica,sans-Serif" font-size="10.00">Instantiator.cpp</text>
</a>
</g>
</g>
<!-- Node2 -->
<g id="node2" class="node">
<title>Node2</title>
<g id="a_node2"><a xlink:title=" ">
<polygon fill="none" stroke="#bfbfbf" points="0,-185 0,-204 60,-204 60,-185 0,-185"/>
<text text-anchor="middle" x="30" y="-192" font-family="Helvetica,sans-Serif" font-size="10.00">iostream</text>
</a>
</g>
</g>
<!-- Node1&#45;&gt;Node2 -->
<g id="edge1" class="edge">
<title>Node1&#45;&gt;Node2</title>
<path fill="none" stroke="midnightblue" d="M1202.94,-255.19C1013.21,-255.67 291.78,-254.47 69,-210 65.74,-209.35 62.39,-208.46 59.1,-207.45"/>
<polygon fill="midnightblue" stroke="midnightblue" points="60.08,-204.09 49.49,-204.13 57.79,-210.7 60.08,-204.09"/>
</g>
<!-- Node3 -->
<g id="node3" class="node">
<title>Node3</title>
<g id="a_node3"><a xlink:title=" ">
<polygon fill="none" stroke="#bfbfbf" points="78,-185 78,-204 128,-204 128,-185 78,-185"/>
<text text-anchor="middle" x="103" y="-192" font-family="Helvetica,sans-Serif" font-size="10.00">ranges</text>
</a>
</g>
</g>
<!-- Node1&#45;&gt;Node3 -->
<g id="edge2" class="edge">
<title>Node1&#45;&gt;Node3</title>
<path fill="none" stroke="midnightblue" d="M1202.77,-255.35C1019.61,-256.38 344.8,-256.86 137,-210 134.48,-209.43 131.91,-208.68 129.37,-207.83"/>
<polygon fill="midnightblue" stroke="midnightblue" points="130.48,-204.5 119.89,-204.13 127.94,-211.02 130.48,-204.5"/>
</g>
<!-- Node4 -->
<g id="node4" class="node">
<title>Node4</title>
<g id="a_node4"><a xlink:title=" ">
<polygon fill="none" stroke="#bfbfbf" points="146,-185 146,-204 202,-204 202,-185 146,-185"/>
<text text-anchor="middle" x="174" y="-192" font-family="Helvetica,sans-Serif" font-size="10.00">sstream</text>
</a>
</g>
</g>
<!-- Node1&#45;&gt;Node4 -->
<g id="edge3" class="edge">
<title>Node1&#45;&gt;Node4</title>
<path fill="none" stroke="midnightblue" d="M1202.93,-255.01C1027.92,-254.75 404.46,-250.91 211,-210 207.99,-209.36 204.91,-208.51 201.87,-207.53"/>
<polygon fill="midnightblue" stroke="midnightblue" points="203.05,-204.24 192.45,-204.11 200.66,-210.82 203.05,-204.24"/>
</g>
<!-- Node5 -->
<g id="node5" class="node">
<title>Node5</title>
<g id="a_node5"><a xlink:title=" ">
<polygon fill="none" stroke="#bfbfbf" points="220,-185 220,-204 306,-204 306,-185 220,-185"/>
<text text-anchor="middle" x="263" y="-192" font-family="Helvetica,sans-Serif" font-size="10.00">unordered_set</text>
</a>
</g>
</g>
<!-- Node1&#45;&gt;Node5 -->
<g id="edge4" class="edge">
<title>Node1&#45;&gt;Node5</title>
<path fill="none" stroke="midnightblue" d="M1202.96,-254.15C1039.71,-250.9 488.99,-238.09 315,-210 309.81,-209.16 304.4,-208 299.12,-206.69"/>
<polygon fill="midnightblue" stroke="midnightblue" points="299.76,-203.24 289.2,-204.04 297.96,-210 299.76,-203.24"/>
</g>
<!-- Node6 -->
<g id="node6" class="node">
<title>Node6</title>
<g id="a_node6"><a xlink:title=" ">
<polygon fill="none" stroke="#bfbfbf" points="324,-185 324,-204 458,-204 458,-185 324,-185"/>
<text text-anchor="middle" x="391" y="-192" font-family="Helvetica,sans-Serif" font-size="10.00">termcolor/termcolor.hpp</text>
</a>
</g>
</g>
<!-- Node1&#45;&gt;Node6 -->
<g id="edge5" class="edge">
<title>Node1&#45;&gt;Node6</title>
<path fill="none" stroke="midnightblue" d="M1202.98,-254.45C1081.96,-252.56 745.02,-244.37 467,-210 458.28,-208.92 449.06,-207.45 440.16,-205.85"/>
<polygon fill="midnightblue" stroke="midnightblue" points="440.76,-202.41 430.29,-204.01 439.48,-209.29 440.76,-202.41"/>
</g>
<!-- Node7 -->
<g id="node7" class="node">
<title>Node7</title>
<g id="a_node7"><a xlink:title=" ">
<polygon fill="none" stroke="#bfbfbf" points="476.5,-185 476.5,-204 655.5,-204 655.5,-185 476.5,-185"/>
<text text-anchor="middle" x="566" y="-192" font-family="Helvetica,sans-Serif" font-size="10.00">clang/Frontend/FrontendActions.h</text>
</a>
</g>
</g>
<!-- Node1&#45;&gt;Node7 -->
<g id="edge6" class="edge">
<title>Node1&#45;&gt;Node7</title>
<path fill="none" stroke="midnightblue" d="M1202.64,-252.54C1103.56,-247.04 863.92,-232.45 664,-210 652.63,-208.72 640.55,-207.13 628.9,-205.47"/>
<polygon fill="midnightblue" stroke="midnightblue" points="629.21,-201.98 618.81,-204.01 628.2,-208.91 629.21,-201.98"/>
</g>
<!-- Node8 -->
<g id="node8" class="node">
<title>Node8</title>
<g id="a_node8"><a xlink:title=" ">
<polygon fill="none" stroke="#bfbfbf" points="673.5,-179.5 673.5,-209.5 838.5,-209.5 838.5,-179.5 673.5,-179.5"/>
<text text-anchor="start" x="681.5" y="-197.5" font-family="Helvetica,sans-Serif" font-size="10.00">clang/Tooling/CommonOptions</text>
<text text-anchor="middle" x="756" y="-186.5" font-family="Helvetica,sans-Serif" font-size="10.00">Parser.h</text>
</a>
</g>
</g>
<!-- Node1&#45;&gt;Node8 -->
<g id="edge7" class="edge">
<title>Node1&#45;&gt;Node8</title>
<path fill="none" stroke="midnightblue" d="M1202.79,-250.53C1129.76,-243.32 982.96,-228.19 848.85,-210.22"/>
<polygon fill="midnightblue" stroke="midnightblue" points="849.18,-206.73 838.8,-208.86 848.24,-213.67 849.18,-206.73"/>
</g>
<!-- Node9 -->
<g id="node9" class="node">
<title>Node9</title>
<g id="a_node9"><a xlink:title=" ">
<polygon fill="none" stroke="#bfbfbf" points="856.5,-185 856.5,-204 983.5,-204 983.5,-185 856.5,-185"/>
<text text-anchor="middle" x="920" y="-192" font-family="Helvetica,sans-Serif" font-size="10.00">clang/Tooling/Tooling.h</text>
</a>
</g>
</g>
<!-- Node1&#45;&gt;Node9 -->
<g id="edge8" class="edge">
<title>Node1&#45;&gt;Node9</title>
<path fill="none" stroke="midnightblue" d="M1202.98,-247.3C1151.5,-238.61 1065.67,-223.87 992,-210 985.35,-208.75 978.36,-207.39 971.46,-206.03"/>
<polygon fill="midnightblue" stroke="midnightblue" points="971.96,-202.56 961.47,-204.04 970.59,-209.42 971.96,-202.56"/>
</g>
<!-- Node10 -->
<g id="node10" class="node">
<title>Node10</title>
<g id="a_node10"><a xlink:title=" ">
<polygon fill="none" stroke="#bfbfbf" points="1001.5,-185 1001.5,-204 1162.5,-204 1162.5,-185 1001.5,-185"/>
<text text-anchor="middle" x="1082" y="-192" font-family="Helvetica,sans-Serif" font-size="10.00">llvm/Support/CommandLine.h</text>
</a>
</g>
</g>
<!-- Node1&#45;&gt;Node10 -->
<g id="edge9" class="edge">
<title>Node1&#45;&gt;Node10</title>
<path fill="none" stroke="midnightblue" d="M1225.07,-246.48C1196.3,-236.22 1147.84,-218.96 1115.4,-207.4"/>
<polygon fill="midnightblue" stroke="midnightblue" points="1116.48,-204.07 1105.88,-204.01 1114.13,-210.66 1116.48,-204.07"/>
</g>
<!-- Node11 -->
<g id="node11" class="node">
<title>Node11</title>
<g id="a_node11"><a xlink:title=" ">
<polygon fill="none" stroke="#bfbfbf" points="1180.5,-185 1180.5,-204 1317.5,-204 1317.5,-185 1180.5,-185"/>
<text text-anchor="middle" x="1249" y="-192" font-family="Helvetica,sans-Serif" font-size="10.00">clang/AST/ASTImporter.h</text>
</a>
</g>
</g>
<!-- Node1&#45;&gt;Node11 -->
<g id="edge10" class="edge">
<title>Node1&#45;&gt;Node11</title>
<path fill="none" stroke="midnightblue" d="M1249,-246.48C1249,-238.08 1249,-224.98 1249,-214.16"/>
<polygon fill="midnightblue" stroke="midnightblue" points="1252.5,-214.01 1249,-204.01 1245.5,-214.01 1252.5,-214.01"/>
</g>
<!-- Node12 -->
<g id="node12" class="node">
<title>Node12</title>
<g id="a_node12"><a xlink:title=" ">
<polygon fill="none" stroke="#bfbfbf" points="1473.5,-112.5 1473.5,-142.5 1634.5,-142.5 1634.5,-112.5 1473.5,-112.5"/>
<text text-anchor="start" x="1481.5" y="-130.5" font-family="Helvetica,sans-Serif" font-size="10.00">clang/ASTMatchers/ASTMatch</text>
<text text-anchor="middle" x="1554" y="-119.5" font-family="Helvetica,sans-Serif" font-size="10.00">Finder.h</text>
</a>
</g>
</g>
<!-- Node1&#45;&gt;Node12 -->
<g id="edge11" class="edge">
<title>Node1&#45;&gt;Node12</title>
<path fill="none" stroke="midnightblue" d="M1295.29,-253.52C1366.15,-250.3 1496.92,-240.31 1531,-210 1547.07,-195.71 1552.28,-171.13 1553.8,-152.7"/>
<polygon fill="midnightblue" stroke="midnightblue" points="1557.3,-152.85 1554.32,-142.68 1550.31,-152.48 1557.3,-152.85"/>
</g>
<!-- Node13 -->
<g id="node13" class="node">
<title>Node13</title>
<g id="a_node13"><a xlink:title=" ">
<polygon fill="none" stroke="#bfbfbf" points="2049.5,-118 2049.5,-137 2234.5,-137 2234.5,-118 2049.5,-118"/>
<text text-anchor="middle" x="2142" y="-125" font-family="Helvetica,sans-Serif" font-size="10.00">clang/ASTMatchers/ASTMatchers.h</text>
</a>
</g>
</g>
<!-- Node1&#45;&gt;Node13 -->
<g id="edge12" class="edge">
<title>Node1&#45;&gt;Node13</title>
<path fill="none" stroke="midnightblue" d="M1295,-254.49C1476.79,-252.23 2136.65,-241.87 2167,-210 2183.84,-192.31 2168.59,-163.57 2155.61,-145.37"/>
<polygon fill="midnightblue" stroke="midnightblue" points="2158.4,-143.25 2149.58,-137.38 2152.81,-147.47 2158.4,-143.25"/>
</g>
<!-- Node14 -->
<g id="node14" class="node">
<title>Node14</title>
<g id="a_node14"><a xlink:title=" ">
<polygon fill="none" stroke="#bfbfbf" points="2214.5,-179.5 2214.5,-209.5 2323.5,-209.5 2323.5,-179.5 2214.5,-179.5"/>
<text text-anchor="start" x="2222.5" y="-197.5" font-family="Helvetica,sans-Serif" font-size="10.00">clang/Rewrite/Core</text>
<text text-anchor="middle" x="2269" y="-186.5" font-family="Helvetica,sans-Serif" font-size="10.00">/Rewriter.h</text>
</a>
</g>
</g>
<!-- Node1&#45;&gt;Node14 -->
<g id="edge13" class="edge">
<title>Node1&#45;&gt;Node14</title>
<path fill="none" stroke="midnightblue" d="M1295.25,-255.42C1433.33,-256.12 1854.47,-254.19 2200,-210 2201.3,-209.83 2202.61,-209.66 2203.93,-209.47"/>
<polygon fill="midnightblue" stroke="midnightblue" points="2204.82,-212.87 2214.15,-207.85 2203.72,-205.96 2204.82,-212.87"/>
</g>
<!-- Node15 -->
<g id="node15" class="node">
<title>Node15</title>
<g id="a_node15"><a xlink:title=" ">
<polygon fill="none" stroke="#bfbfbf" points="2341.5,-179.5 2341.5,-209.5 2470.5,-209.5 2470.5,-179.5 2341.5,-179.5"/>
<text text-anchor="start" x="2349.5" y="-197.5" font-family="Helvetica,sans-Serif" font-size="10.00">clang/Rewrite/Frontend</text>
<text text-anchor="middle" x="2406" y="-186.5" font-family="Helvetica,sans-Serif" font-size="10.00">/Rewriters.h</text>
</a>
</g>
</g>
<!-- Node1&#45;&gt;Node15 -->
<g id="edge14" class="edge">
<title>Node1&#45;&gt;Node15</title>
<path fill="none" stroke="midnightblue" d="M1295.08,-254.04C1471.86,-250.2 2107.62,-235.02 2331.19,-210.07"/>
<polygon fill="midnightblue" stroke="midnightblue" points="2331.67,-213.54 2341.2,-208.91 2330.87,-206.58 2331.67,-213.54"/>
</g>
<!-- Node16 -->
<g id="node16" class="node">
<title>Node16</title>
<g id="a_node16"><a xlink:href="Injection_8hpp.html" target="_top" xlink:title=" ">
<polygon fill="none" stroke="black" points="1844,-118 1844,-137 1924,-137 1924,-118 1844,-118"/>
<text text-anchor="middle" x="1884" y="-125" font-family="Helvetica,sans-Serif" font-size="10.00">Injection.hpp</text>
</a>
</g>
</g>
<!-- Node1&#45;&gt;Node16 -->
<g id="edge15" class="edge">
<title>Node1&#45;&gt;Node16</title>
<path fill="none" stroke="midnightblue" d="M1295.05,-253.92C1453.24,-250.01 1966.11,-235.38 1990,-210 2016.9,-181.42 1962.04,-155.05 1921.68,-140.43"/>
<polygon fill="midnightblue" stroke="midnightblue" points="1922.64,-137.05 1912.04,-137.06 1920.33,-143.66 1922.64,-137.05"/>
</g>
<!-- Node28 -->
<g id="node28" class="node">
<title>Node28</title>
<g id="a_node28"><a xlink:href="DeleteInstantiations_8hpp.html" target="_top" xlink:title=" ">
<polygon fill="none" stroke="black" points="1335.5,-185 1335.5,-204 1522.5,-204 1522.5,-185 1335.5,-185"/>
<text text-anchor="middle" x="1429" y="-192" font-family="Helvetica,sans-Serif" font-size="10.00">Callbacks/DeleteInstantiations.hpp</text>
</a>
</g>
</g>
<!-- Node1&#45;&gt;Node28 -->
<g id="edge28" class="edge">
<title>Node1&#45;&gt;Node28</title>
<path fill="none" stroke="midnightblue" d="M1274.79,-246.48C1305.93,-236.18 1358.48,-218.81 1393.45,-207.25"/>
<polygon fill="midnightblue" stroke="midnightblue" points="1394.86,-210.47 1403.26,-204.01 1392.66,-203.82 1394.86,-210.47"/>
</g>
<!-- Node29 -->
<g id="node29" class="node">
<title>Node29</title>
<g id="a_node29"><a xlink:href="GetNeededInstantiations_8hpp.html" target="_top" xlink:title=" ">
<polygon fill="none" stroke="black" points="1772.5,-185 1772.5,-204 1981.5,-204 1981.5,-185 1772.5,-185"/>
<text text-anchor="middle" x="1877" y="-192" font-family="Helvetica,sans-Serif" font-size="10.00">Callbacks/GetNeededInstantiations.hpp</text>
</a>
</g>
</g>
<!-- Node1&#45;&gt;Node29 -->
<g id="edge30" class="edge">
<title>Node1&#45;&gt;Node29</title>
<path fill="none" stroke="midnightblue" d="M1295.13,-251.57C1385.19,-244.74 1590.66,-228.5 1763,-210 1776.04,-208.6 1789.9,-206.96 1803.3,-205.3"/>
<polygon fill="midnightblue" stroke="midnightblue" points="1803.95,-208.75 1813.44,-204.03 1803.08,-201.8 1803.95,-208.75"/>
</g>
<!-- Node30 -->
<g id="node30" class="node">
<title>Node30</title>
<g id="a_node30"><a xlink:href="InjectInstantiation_8hpp.html" target="_top" xlink:title=" ">
<polygon fill="none" stroke="black" points="1578,-185 1578,-204 1754,-204 1754,-185 1578,-185"/>
<text text-anchor="middle" x="1666" y="-192" font-family="Helvetica,sans-Serif" font-size="10.00">Callbacks/InjectInstantiation.hpp</text>
</a>
</g>
</g>
<!-- Node1&#45;&gt;Node30 -->
<g id="edge34" class="edge">
<title>Node1&#45;&gt;Node30</title>
<path fill="none" stroke="midnightblue" d="M1295.22,-248.41C1368.17,-238 1510.48,-217.69 1596.01,-205.49"/>
<polygon fill="midnightblue" stroke="midnightblue" points="1596.74,-208.92 1606.15,-204.04 1595.76,-201.99 1596.74,-208.92"/>
</g>
<!-- Node31 -->
<g id="node31" class="node">
<title>Node31</title>
<g id="a_node31"><a xlink:href="Matcher_8hpp.html" target="_top" xlink:title="AST matcher expressions to filter the relevant nodes for template instantiations.">
<polygon fill="none" stroke="black" points="2038.5,-185 2038.5,-204 2157.5,-204 2157.5,-185 2038.5,-185"/>
<text text-anchor="middle" x="2098" y="-192" font-family="Helvetica,sans-Serif" font-size="10.00">Matcher/Matcher.hpp</text>
</a>
</g>
</g>
<!-- Node1&#45;&gt;Node31 -->
<g id="edge38" class="edge">
<title>Node1&#45;&gt;Node31</title>
<path fill="none" stroke="midnightblue" d="M1295.06,-254.5C1415.39,-252.72 1748.89,-244.78 2024,-210 2032.4,-208.94 2041.28,-207.49 2049.86,-205.91"/>
<polygon fill="midnightblue" stroke="midnightblue" points="2050.59,-209.34 2059.75,-204.02 2049.27,-202.46 2050.59,-209.34"/>
</g>
<!-- Node17 -->
<g id="node17" class="node">
<title>Node17</title>
<g id="a_node17"><a xlink:title=" ">
<polygon fill="none" stroke="#bfbfbf" points="2223,-56.5 2223,-75.5 2279,-75.5 2279,-56.5 2223,-56.5"/>
<text text-anchor="middle" x="2251" y="-63.5" font-family="Helvetica,sans-Serif" font-size="10.00">optional</text>
</a>
</g>
</g>
<!-- Node16&#45;&gt;Node17 -->
<g id="edge16" class="edge">
<title>Node16&#45;&gt;Node17</title>
<path fill="none" stroke="midnightblue" d="M1924.07,-121.51C1984.54,-113.73 2102.9,-97.53 2212.84,-76.09"/>
<polygon fill="midnightblue" stroke="midnightblue" points="2213.64,-79.5 2222.77,-74.13 2212.29,-72.63 2213.64,-79.5"/>
</g>
<!-- Node18 -->
<g id="node18" class="node">
<title>Node18</title>
<g id="a_node18"><a xlink:title=" ">
<polygon fill="none" stroke="#bfbfbf" points="1592,-0.5 1592,-19.5 1636,-19.5 1636,-0.5 1592,-0.5"/>
<text text-anchor="middle" x="1614" y="-7.5" font-family="Helvetica,sans-Serif" font-size="10.00">string</text>
</a>
</g>
</g>
<!-- Node16&#45;&gt;Node18 -->
<g id="edge17" class="edge">
<title>Node16&#45;&gt;Node18</title>
<path fill="none" stroke="midnightblue" d="M1854.77,-117.93C1824.73,-108.78 1776.87,-93.26 1737,-76 1727.17,-71.74 1671.85,-42.15 1638.84,-24.39"/>
<polygon fill="midnightblue" stroke="midnightblue" points="1640.25,-21.17 1629.78,-19.52 1636.93,-27.34 1640.25,-21.17"/>
</g>
<!-- Node19 -->
<g id="node19" class="node">
<title>Node19</title>
<g id="a_node19"><a xlink:title=" ">
<polygon fill="none" stroke="#bfbfbf" points="1642.5,-56.5 1642.5,-75.5 1689.5,-75.5 1689.5,-56.5 1642.5,-56.5"/>
<text text-anchor="middle" x="1666" y="-63.5" font-family="Helvetica,sans-Serif" font-size="10.00">vector</text>
</a>
</g>
</g>
<!-- Node16&#45;&gt;Node19 -->
<g id="edge18" class="edge">
<title>Node16&#45;&gt;Node19</title>
<path fill="none" stroke="midnightblue" d="M1852.77,-117.98C1812.09,-106.87 1741.26,-87.54 1699.5,-76.14"/>
<polygon fill="midnightblue" stroke="midnightblue" points="1700.36,-72.75 1689.79,-73.49 1698.52,-79.5 1700.36,-72.75"/>
</g>
<!-- Node20 -->
<g id="node20" class="node">
<title>Node20</title>
<g id="a_node20"><a xlink:title=" ">
<polygon fill="none" stroke="#bfbfbf" points="1832,-56.5 1832,-75.5 1950,-75.5 1950,-56.5 1832,-56.5"/>
<text text-anchor="middle" x="1891" y="-63.5" font-family="Helvetica,sans-Serif" font-size="10.00">llvm/ADT/StringRef.h</text>
</a>
</g>
</g>
<!-- Node16&#45;&gt;Node20 -->
<g id="edge19" class="edge">
<title>Node16&#45;&gt;Node20</title>
<path fill="none" stroke="midnightblue" d="M1885,-117.98C1885.99,-109.58 1887.53,-96.48 1888.8,-85.66"/>
<polygon fill="midnightblue" stroke="midnightblue" points="1892.31,-85.85 1890,-75.51 1885.35,-85.03 1892.31,-85.85"/>
</g>
<!-- Node21 -->
<g id="node21" class="node">
<title>Node21</title>
<g id="a_node21"><a xlink:title=" ">
<polygon fill="none" stroke="#bfbfbf" points="1968.5,-56.5 1968.5,-75.5 2087.5,-75.5 2087.5,-56.5 1968.5,-56.5"/>
<text text-anchor="middle" x="2028" y="-63.5" font-family="Helvetica,sans-Serif" font-size="10.00">clang/AST/DeclCXX.h</text>
</a>
</g>
</g>
<!-- Node16&#45;&gt;Node21 -->
<g id="edge20" class="edge">
<title>Node16&#45;&gt;Node21</title>
<path fill="none" stroke="midnightblue" d="M1904.63,-117.98C1929.12,-107.86 1970.15,-90.9 1998.11,-79.35"/>
<polygon fill="midnightblue" stroke="midnightblue" points="1999.5,-82.56 2007.41,-75.51 1996.83,-76.09 1999.5,-82.56"/>
</g>
<!-- Node22 -->
<g id="node22" class="node">
<title>Node22</title>
<g id="a_node22"><a xlink:title=" ">
<polygon fill="none" stroke="#bfbfbf" points="2105.5,-56.5 2105.5,-75.5 2204.5,-75.5 2204.5,-56.5 2105.5,-56.5"/>
<text text-anchor="middle" x="2155" y="-63.5" font-family="Helvetica,sans-Serif" font-size="10.00">clang/AST/Type.h</text>
</a>
</g>
</g>
<!-- Node16&#45;&gt;Node22 -->
<g id="edge21" class="edge">
<title>Node16&#45;&gt;Node22</title>
<path fill="none" stroke="midnightblue" d="M1922.83,-117.98C1971.12,-107.37 2053.61,-89.26 2106.15,-77.72"/>
<polygon fill="midnightblue" stroke="midnightblue" points="2107.23,-81.07 2116.24,-75.51 2105.73,-74.24 2107.23,-81.07"/>
</g>
<!-- Node23 -->
<g id="node23" class="node">
<title>Node23</title>
<g id="a_node23"><a xlink:href="Param_8hpp.html" target="_top" xlink:title=" ">
<polygon fill="none" stroke="black" points="1746,-56.5 1746,-75.5 1814,-75.5 1814,-56.5 1746,-56.5"/>
<text text-anchor="middle" x="1780" y="-63.5" font-family="Helvetica,sans-Serif" font-size="10.00">Param.hpp</text>
</a>
</g>
</g>
<!-- Node16&#45;&gt;Node23 -->
<g id="edge22" class="edge">
<title>Node16&#45;&gt;Node23</title>
<path fill="none" stroke="midnightblue" d="M1869.1,-117.98C1852.03,-108.21 1823.84,-92.08 1803.74,-80.58"/>
<polygon fill="midnightblue" stroke="midnightblue" points="1805.29,-77.44 1794.87,-75.51 1801.81,-83.51 1805.29,-77.44"/>
</g>
<!-- Node23&#45;&gt;Node18 -->
<g id="edge24" class="edge">
<title>Node23&#45;&gt;Node18</title>
<path fill="none" stroke="midnightblue" d="M1753.7,-56.44C1724.41,-46.92 1677.09,-31.52 1645.76,-21.33"/>
<polygon fill="midnightblue" stroke="midnightblue" points="1646.79,-17.99 1636.2,-18.22 1644.62,-24.64 1646.79,-17.99"/>
</g>
<!-- Node24 -->
<g id="node24" class="node">
<title>Node24</title>
<g id="a_node24"><a xlink:title=" ">
<polygon fill="none" stroke="#bfbfbf" points="1809.5,-0.5 1809.5,-19.5 1866.5,-19.5 1866.5,-0.5 1809.5,-0.5"/>
<text text-anchor="middle" x="1838" y="-7.5" font-family="Helvetica,sans-Serif" font-size="10.00">ostream</text>
</a>
</g>
</g>
<!-- Node23&#45;&gt;Node24 -->
<g id="edge23" class="edge">
<title>Node23&#45;&gt;Node24</title>
<path fill="none" stroke="midnightblue" d="M1789.32,-56.32C1797.89,-48.34 1810.81,-36.31 1821.19,-26.65"/>
<polygon fill="midnightblue" stroke="midnightblue" points="1823.58,-29.21 1828.51,-19.83 1818.81,-24.09 1823.58,-29.21"/>
</g>
<!-- Node25 -->
<g id="node25" class="node">
<title>Node25</title>
<g id="a_node25"><a xlink:title=" ">
<polygon fill="none" stroke="#bfbfbf" points="1885,-0.5 1885,-19.5 1983,-19.5 1983,-0.5 1885,-0.5"/>
<text text-anchor="middle" x="1934" y="-7.5" font-family="Helvetica,sans-Serif" font-size="10.00">clang/AST/Decl.h</text>
</a>
</g>
</g>
<!-- Node23&#45;&gt;Node25 -->
<g id="edge25" class="edge">
<title>Node23&#45;&gt;Node25</title>
<path fill="none" stroke="midnightblue" d="M1804.4,-56.44C1830.2,-47.4 1871.08,-33.06 1900.02,-22.92"/>
<polygon fill="midnightblue" stroke="midnightblue" points="1901.43,-26.13 1909.71,-19.52 1899.12,-19.52 1901.43,-26.13"/>
</g>
<!-- Node26 -->
<g id="node26" class="node">
<title>Node26</title>
<g id="a_node26"><a xlink:title=" ">
<polygon fill="none" stroke="#bfbfbf" points="2001,-0.5 2001,-19.5 2165,-19.5 2165,-0.5 2001,-0.5"/>
<text text-anchor="middle" x="2083" y="-7.5" font-family="Helvetica,sans-Serif" font-size="10.00">clang/AST/DependenceFlags.h</text>
</a>
</g>
</g>
<!-- Node23&#45;&gt;Node26 -->
<g id="edge26" class="edge">
<title>Node23&#45;&gt;Node26</title>
<path fill="none" stroke="midnightblue" d="M1814.25,-57.72C1817.2,-57.12 1820.15,-56.54 1823,-56 1890.42,-43.11 1967.99,-29.9 2020.73,-21.15"/>
<polygon fill="midnightblue" stroke="midnightblue" points="2021.32,-24.6 2030.61,-19.51 2020.18,-17.69 2021.32,-24.6"/>
</g>
<!-- Node27 -->
<g id="node27" class="node">
<title>Node27</title>
<g id="a_node27"><a xlink:title=" ">
<polygon fill="none" stroke="#bfbfbf" points="1654.5,-0.5 1654.5,-19.5 1791.5,-19.5 1791.5,-0.5 1654.5,-0.5"/>
<text text-anchor="middle" x="1723" y="-7.5" font-family="Helvetica,sans-Serif" font-size="10.00">clang/AST/PrettyPrinter.h</text>
</a>
</g>
</g>
<!-- Node23&#45;&gt;Node27 -->
<g id="edge27" class="edge">
<title>Node23&#45;&gt;Node27</title>
<path fill="none" stroke="midnightblue" d="M1770.84,-56.32C1762.5,-48.42 1749.97,-36.55 1739.82,-26.94"/>
<polygon fill="midnightblue" stroke="midnightblue" points="1741.99,-24.17 1732.32,-19.83 1737.18,-29.25 1741.99,-24.17"/>
</g>
<!-- Node28&#45;&gt;Node12 -->
<g id="edge29" class="edge">
<title>Node28&#45;&gt;Node12</title>
<path fill="none" stroke="midnightblue" d="M1445.6,-184.87C1463.89,-175.36 1493.87,-159.77 1517.68,-147.39"/>
<polygon fill="midnightblue" stroke="midnightblue" points="1519.53,-150.37 1526.79,-142.65 1516.3,-144.16 1519.53,-150.37"/>
</g>
<!-- Node29&#45;&gt;Node12 -->
<g id="edge32" class="edge">
<title>Node29&#45;&gt;Node12</title>
<path fill="none" stroke="midnightblue" d="M1834.44,-184.94C1783.55,-174.69 1697.28,-157.33 1633.84,-144.57"/>
<polygon fill="midnightblue" stroke="midnightblue" points="1634.36,-141.1 1623.86,-142.56 1632.98,-147.96 1634.36,-141.1"/>
</g>
<!-- Node29&#45;&gt;Node16 -->
<g id="edge33" class="edge">
<title>Node29&#45;&gt;Node16</title>
<path fill="none" stroke="midnightblue" d="M1877.94,-184.73C1878.97,-175.18 1880.65,-159.62 1881.98,-147.28"/>
<polygon fill="midnightblue" stroke="midnightblue" points="1885.48,-147.44 1883.07,-137.13 1878.52,-146.7 1885.48,-147.44"/>
</g>
<!-- Node29&#45;&gt;Node19 -->
<g id="edge31" class="edge">
<title>Node29&#45;&gt;Node19</title>
<path fill="none" stroke="midnightblue" d="M1862.5,-184.81C1826.5,-163.22 1732.82,-107.06 1689.1,-80.85"/>
<polygon fill="midnightblue" stroke="midnightblue" points="1690.7,-77.73 1680.33,-75.59 1687.1,-83.73 1690.7,-77.73"/>
</g>
<!-- Node30&#45;&gt;Node12 -->
<g id="edge36" class="edge">
<title>Node30&#45;&gt;Node12</title>
<path fill="none" stroke="midnightblue" d="M1650.9,-184.73C1634.59,-175.27 1608.13,-159.91 1586.97,-147.64"/>
<polygon fill="midnightblue" stroke="midnightblue" points="1588.68,-144.58 1578.28,-142.59 1585.17,-150.64 1588.68,-144.58"/>
</g>
<!-- Node30&#45;&gt;Node16 -->
<g id="edge37" class="edge">
<title>Node30&#45;&gt;Node16</title>
<path fill="none" stroke="midnightblue" d="M1694.95,-184.87C1733.66,-173.33 1802.38,-152.84 1845.45,-140"/>
<polygon fill="midnightblue" stroke="midnightblue" points="1846.7,-143.28 1855.28,-137.06 1844.7,-136.57 1846.7,-143.28"/>
</g>
<!-- Node30&#45;&gt;Node19 -->
<g id="edge35" class="edge">
<title>Node30&#45;&gt;Node19</title>
<path fill="none" stroke="midnightblue" d="M1666,-184.81C1666,-164.49 1666,-113.55 1666,-85.78"/>
<polygon fill="midnightblue" stroke="midnightblue" points="1669.5,-85.76 1666,-75.76 1662.5,-85.76 1669.5,-85.76"/>
</g>
<!-- Node31&#45;&gt;Node13 -->
<g id="edge39" class="edge">
<title>Node31&#45;&gt;Node13</title>
<path fill="none" stroke="midnightblue" d="M2103.93,-184.73C2110.73,-174.7 2122.02,-158.01 2130.55,-145.42"/>
<polygon fill="midnightblue" stroke="midnightblue" points="2133.45,-147.37 2136.16,-137.13 2127.66,-143.45 2133.45,-147.37"/>
</g>
</g>
</svg>
