<?xml version="1.0" encoding="UTF-8" standalone="no"?>
<!DOCTYPE svg PUBLIC "-//W3C//DTD SVG 1.1//EN"
 "http://www.w3.org/Graphics/SVG/1.1/DTD/svg11.dtd">
<!-- Generated by graphviz version 2.43.0 (0)
 -->
<!-- Title: Instantiator.cpp Pages: 1 -->
<svg width="2554pt" height="274pt"
 viewBox="0.00 0.00 2553.50 274.00" xmlns="http://www.w3.org/2000/svg" xmlns:xlink="http://www.w3.org/1999/xlink">
<g id="graph0" class="graph" transform="scale(1 1) rotate(0) translate(4 270)">
<title>Instantiator.cpp</title>
<!-- Node1 -->
<g id="node1" class="node">
<title>Node1</title>
<g id="a_node1"><a xlink:title=" ">
<polygon fill="#bfbfbf" stroke="black" points="1195,-246.5 1195,-265.5 1287,-265.5 1287,-246.5 1195,-246.5"/>
<text text-anchor="middle" x="1241" y="-253.5" font-family="Helvetica,sans-Serif" font-size="10.00">Instantiator.cpp</text>
</a>
</g>
</g>
<!-- Node2 -->
<g id="node2" class="node">
<title>Node2</title>
<g id="a_node2"><a xlink:title=" ">
<polygon fill="none" stroke="#bfbfbf" points="0,-185 0,-204 60,-204 60,-185 0,-185"/>
<text text-anchor="middle" x="30" y="-192" font-family="Helvetica,sans-Serif" font-size="10.00">iostream</text>
</a>
</g>
</g>
<!-- Node1&#45;&gt;Node2 -->
<g id="edge1" class="edge">
<title>Node1&#45;&gt;Node2</title>
<path fill="none" stroke="midnightblue" d="M1194.93,-255.18C1006,-255.6 290.14,-254.18 69,-210 65.74,-209.35 62.39,-208.46 59.1,-207.45"/>
<polygon fill="midnightblue" stroke="midnightblue" points="60.08,-204.09 49.49,-204.13 57.79,-210.7 60.08,-204.09"/>
</g>
<!-- Node3 -->
<g id="node3" class="node">
<title>Node3</title>
<g id="a_node3"><a xlink:title=" ">
<polygon fill="none" stroke="#bfbfbf" points="78,-185 78,-204 128,-204 128,-185 78,-185"/>
<text text-anchor="middle" x="103" y="-192" font-family="Helvetica,sans-Serif" font-size="10.00">ranges</text>
</a>
</g>
</g>
<!-- Node1&#45;&gt;Node3 -->
<g id="edge2" class="edge">
<title>Node1&#45;&gt;Node3</title>
<path fill="none" stroke="midnightblue" d="M1194.79,-255.33C1012.5,-256.3 343.18,-256.52 137,-210 134.48,-209.43 131.91,-208.68 129.37,-207.83"/>
<polygon fill="midnightblue" stroke="midnightblue" points="130.48,-204.5 119.89,-204.13 127.94,-211.02 130.48,-204.5"/>
</g>
<!-- Node4 -->
<g id="node4" class="node">
<title>Node4</title>
<g id="a_node4"><a xlink:title=" ">
<polygon fill="none" stroke="#bfbfbf" points="146,-185 146,-204 202,-204 202,-185 146,-185"/>
<text text-anchor="middle" x="174" y="-192" font-family="Helvetica,sans-Serif" font-size="10.00">sstream</text>
</a>
</g>
</g>
<!-- Node1&#45;&gt;Node4 -->
<g id="edge3" class="edge">
<title>Node1&#45;&gt;Node4</title>
<path fill="none" stroke="midnightblue" d="M1194.99,-255C1020.91,-254.67 402.86,-250.61 211,-210 207.99,-209.36 204.91,-208.51 201.87,-207.53"/>
<polygon fill="midnightblue" stroke="midnightblue" points="203.05,-204.24 192.45,-204.11 200.66,-210.81 203.05,-204.24"/>
</g>
<!-- Node5 -->
<g id="node5" class="node">
<title>Node5</title>
<g id="a_node5"><a xlink:title=" ">
<polygon fill="none" stroke="#bfbfbf" points="220.5,-185 220.5,-204 277.5,-204 277.5,-185 220.5,-185"/>
<text text-anchor="middle" x="249" y="-192" font-family="Helvetica,sans-Serif" font-size="10.00">typeinfo</text>
</a>
</g>
</g>
<!-- Node1&#45;&gt;Node5 -->
<g id="edge4" class="edge">
<title>Node1&#45;&gt;Node5</title>
<path fill="none" stroke="midnightblue" d="M1194.74,-254.75C1028.72,-253.57 463.51,-246.85 287,-210 283.92,-209.36 280.76,-208.5 277.64,-207.52"/>
<polygon fill="midnightblue" stroke="midnightblue" points="278.57,-204.13 267.97,-204.09 276.23,-210.73 278.57,-204.13"/>
</g>
<!-- Node6 -->
<g id="node6" class="node">
<title>Node6</title>
<g id="a_node6"><a xlink:title=" ">
<polygon fill="none" stroke="#bfbfbf" points="296,-185 296,-204 382,-204 382,-185 296,-185"/>
<text text-anchor="middle" x="339" y="-192" font-family="Helvetica,sans-Serif" font-size="10.00">unordered_set</text>
</a>
</g>
</g>
<!-- Node1&#45;&gt;Node6 -->
<g id="edge5" class="edge">
<title>Node1&#45;&gt;Node6</title>
<path fill="none" stroke="midnightblue" d="M1194.91,-253.89C1041.33,-249.98 547.86,-235.7 391,-210 385.81,-209.15 380.41,-207.98 375.12,-206.66"/>
<polygon fill="midnightblue" stroke="midnightblue" points="375.77,-203.21 365.2,-204.01 373.96,-209.98 375.77,-203.21"/>
</g>
<!-- Node7 -->
<g id="node7" class="node">
<title>Node7</title>
<g id="a_node7"><a xlink:title=" ">
<polygon fill="none" stroke="#bfbfbf" points="400,-185 400,-204 534,-204 534,-185 400,-185"/>
<text text-anchor="middle" x="467" y="-192" font-family="Helvetica,sans-Serif" font-size="10.00">termcolor/termcolor.hpp</text>
</a>
</g>
</g>
<!-- Node1&#45;&gt;Node7 -->
<g id="edge6" class="edge">
<title>Node1&#45;&gt;Node7</title>
<path fill="none" stroke="midnightblue" d="M1194.66,-254C1082.43,-251.14 787.24,-241.05 543,-210 534.48,-208.92 525.47,-207.47 516.75,-205.91"/>
<polygon fill="midnightblue" stroke="midnightblue" points="517.16,-202.42 506.69,-204.04 515.88,-209.31 517.16,-202.42"/>
</g>
<!-- Node8 -->
<g id="node8" class="node">
<title>Node8</title>
<g id="a_node8"><a xlink:title=" ">
<polygon fill="none" stroke="#bfbfbf" points="552.5,-185 552.5,-204 731.5,-204 731.5,-185 552.5,-185"/>
<text text-anchor="middle" x="642" y="-192" font-family="Helvetica,sans-Serif" font-size="10.00">clang/Frontend/FrontendActions.h</text>
</a>
</g>
</g>
<!-- Node1&#45;&gt;Node8 -->
<g id="edge7" class="edge">
<title>Node1&#45;&gt;Node8</title>
<path fill="none" stroke="midnightblue" d="M1194.97,-251.75C1106.62,-245.32 907.15,-229.86 740,-210 729.02,-208.7 717.37,-207.13 706.08,-205.52"/>
<polygon fill="midnightblue" stroke="midnightblue" points="706.24,-202.01 695.84,-204.03 705.23,-208.93 706.24,-202.01"/>
</g>
<!-- Node9 -->
<g id="node9" class="node">
<title>Node9</title>
<g id="a_node9"><a xlink:title=" ">
<polygon fill="none" stroke="#bfbfbf" points="749.5,-179.5 749.5,-209.5 914.5,-209.5 914.5,-179.5 749.5,-179.5"/>
<text text-anchor="start" x="757.5" y="-197.5" font-family="Helvetica,sans-Serif" font-size="10.00">clang/Tooling/CommonOptions</text>
<text text-anchor="middle" x="832" y="-186.5" font-family="Helvetica,sans-Serif" font-size="10.00">Parser.h</text>
</a>
</g>
</g>
<!-- Node1&#45;&gt;Node9 -->
<g id="edge8" class="edge">
<title>Node1&#45;&gt;Node9</title>
<path fill="none" stroke="midnightblue" d="M1194.88,-248.73C1134.98,-240.53 1026.88,-225.54 924.98,-210.28"/>
<polygon fill="midnightblue" stroke="midnightblue" points="925.23,-206.78 914.82,-208.76 924.19,-213.7 925.23,-206.78"/>
</g>
<!-- Node10 -->
<g id="node10" class="node">
<title>Node10</title>
<g id="a_node10"><a xlink:title=" ">
<polygon fill="none" stroke="#bfbfbf" points="932.5,-185 932.5,-204 1059.5,-204 1059.5,-185 932.5,-185"/>
<text text-anchor="middle" x="996" y="-192" font-family="Helvetica,sans-Serif" font-size="10.00">clang/Tooling/Tooling.h</text>
</a>
</g>
</g>
<!-- Node1&#45;&gt;Node10 -->
<g id="edge9" class="edge">
<title>Node1&#45;&gt;Node10</title>
<path fill="none" stroke="midnightblue" d="M1205.9,-246.48C1162.51,-235.94 1088.59,-217.99 1041.05,-206.44"/>
<polygon fill="midnightblue" stroke="midnightblue" points="1041.58,-202.97 1031.04,-204.01 1039.93,-209.77 1041.58,-202.97"/>
</g>
<!-- Node11 -->
<g id="node11" class="node">
<title>Node11</title>
<g id="a_node11"><a xlink:title=" ">
<polygon fill="none" stroke="#bfbfbf" points="1077.5,-185 1077.5,-204 1238.5,-204 1238.5,-185 1077.5,-185"/>
<text text-anchor="middle" x="1158" y="-192" font-family="Helvetica,sans-Serif" font-size="10.00">llvm/Support/CommandLine.h</text>
</a>
</g>
</g>
<!-- Node1&#45;&gt;Node11 -->
<g id="edge10" class="edge">
<title>Node1&#45;&gt;Node11</title>
<path fill="none" stroke="midnightblue" d="M1229.11,-246.48C1215.8,-236.93 1194,-221.31 1178.04,-209.87"/>
<polygon fill="midnightblue" stroke="midnightblue" points="1180.04,-206.99 1169.87,-204.01 1175.96,-212.68 1180.04,-206.99"/>
</g>
<!-- Node12 -->
<g id="node12" class="node">
<title>Node12</title>
<g id="a_node12"><a xlink:title=" ">
<polygon fill="none" stroke="#bfbfbf" points="1256.5,-185 1256.5,-204 1393.5,-204 1393.5,-185 1256.5,-185"/>
<text text-anchor="middle" x="1325" y="-192" font-family="Helvetica,sans-Serif" font-size="10.00">clang/AST/ASTImporter.h</text>
</a>
</g>
</g>
<!-- Node1&#45;&gt;Node12 -->
<g id="edge11" class="edge">
<title>Node1&#45;&gt;Node12</title>
<path fill="none" stroke="midnightblue" d="M1253.04,-246.48C1266.51,-236.93 1288.57,-221.31 1304.72,-209.87"/>
<polygon fill="midnightblue" stroke="midnightblue" points="1306.85,-212.65 1312.99,-204.01 1302.8,-206.93 1306.85,-212.65"/>
</g>
<!-- Node13 -->
<g id="node13" class="node">
<title>Node13</title>
<g id="a_node13"><a xlink:title=" ">
<polygon fill="none" stroke="#bfbfbf" points="1507.5,-112.5 1507.5,-142.5 1668.5,-142.5 1668.5,-112.5 1507.5,-112.5"/>
<text text-anchor="start" x="1515.5" y="-130.5" font-family="Helvetica,sans-Serif" font-size="10.00">clang/ASTMatchers/ASTMatch</text>
<text text-anchor="middle" x="1588" y="-119.5" font-family="Helvetica,sans-Serif" font-size="10.00">Finder.h</text>
</a>
</g>
</g>
<!-- Node1&#45;&gt;Node13 -->
<g id="edge12" class="edge">
<title>Node1&#45;&gt;Node13</title>
<path fill="none" stroke="midnightblue" d="M1287.29,-247.32C1320.52,-240.58 1365.67,-228.84 1402,-210 1421.35,-199.97 1420.94,-189.57 1440,-179 1465.47,-164.87 1495.59,-153.71 1521.98,-145.52"/>
<polygon fill="midnightblue" stroke="midnightblue" points="1523.34,-148.76 1531.9,-142.52 1521.32,-142.06 1523.34,-148.76"/>
</g>
<!-- Node14 -->
<g id="node14" class="node">
<title>Node14</title>
<g id="a_node14"><a xlink:title=" ">
<polygon fill="none" stroke="#bfbfbf" points="2075.5,-118 2075.5,-137 2260.5,-137 2260.5,-118 2075.5,-118"/>
<text text-anchor="middle" x="2168" y="-125" font-family="Helvetica,sans-Serif" font-size="10.00">clang/ASTMatchers/ASTMatchers.h</text>
</a>
</g>
</g>
<!-- Node1&#45;&gt;Node14 -->
<g id="edge13" class="edge">
<title>Node1&#45;&gt;Node14</title>
<path fill="none" stroke="midnightblue" d="M1287.22,-254.42C1452.88,-252.09 2010.93,-241.92 2084,-210 2115.51,-196.24 2142.06,-165.06 2156.44,-145.51"/>
<polygon fill="midnightblue" stroke="midnightblue" points="2159.4,-147.39 2162.33,-137.21 2153.69,-143.34 2159.4,-147.39"/>
</g>
<!-- Node15 -->
<g id="node15" class="node">
<title>Node15</title>
<g id="a_node15"><a xlink:title=" ">
<polygon fill="none" stroke="#bfbfbf" points="2289.5,-179.5 2289.5,-209.5 2398.5,-209.5 2398.5,-179.5 2289.5,-179.5"/>
<text text-anchor="start" x="2297.5" y="-197.5" font-family="Helvetica,sans-Serif" font-size="10.00">clang/Rewrite/Core</text>
<text text-anchor="middle" x="2344" y="-186.5" font-family="Helvetica,sans-Serif" font-size="10.00">/Rewriter.h</text>
</a>
</g>
</g>
<!-- Node1&#45;&gt;Node15 -->
<g id="edge14" class="edge">
<title>Node1&#45;&gt;Node15</title>
<path fill="none" stroke="midnightblue" d="M1287.01,-254.13C1458.98,-250.7 2064.72,-237.06 2279.25,-210.03"/>
<polygon fill="midnightblue" stroke="midnightblue" points="2280.02,-213.46 2289.48,-208.69 2279.11,-206.52 2280.02,-213.46"/>
</g>
<!-- Node16 -->
<g id="node16" class="node">
<title>Node16</title>
<g id="a_node16"><a xlink:title=" ">
<polygon fill="none" stroke="#bfbfbf" points="2416.5,-179.5 2416.5,-209.5 2545.5,-209.5 2545.5,-179.5 2416.5,-179.5"/>
<text text-anchor="start" x="2424.5" y="-197.5" font-family="Helvetica,sans-Serif" font-size="10.00">clang/Rewrite/Frontend</text>
<text text-anchor="middle" x="2481" y="-186.5" font-family="Helvetica,sans-Serif" font-size="10.00">/Rewriters.h</text>
</a>
</g>
</g>
<!-- Node1&#45;&gt;Node16 -->
<g id="edge15" class="edge">
<title>Node1&#45;&gt;Node16</title>
<path fill="none" stroke="midnightblue" d="M1287.04,-254.19C1472.38,-250.8 2165.11,-236.67 2406.1,-210.07"/>
<polygon fill="midnightblue" stroke="midnightblue" points="2406.67,-213.53 2416.21,-208.92 2405.87,-206.58 2406.67,-213.53"/>
</g>
<!-- Node17 -->
<g id="node17" class="node">
<title>Node17</title>
<g id="a_node17"><a xlink:href="Injection_8hpp.html" target="_top" xlink:title=" ">
<polygon fill="none" stroke="black" points="1920,-118 1920,-137 2000,-137 2000,-118 1920,-118"/>
<text text-anchor="middle" x="1960" y="-125" font-family="Helvetica,sans-Serif" font-size="10.00">Injection.hpp</text>
</a>
</g>
</g>
<!-- Node1&#45;&gt;Node17 -->
<g id="edge16" class="edge">
<title>Node1&#45;&gt;Node17</title>
<path fill="none" stroke="midnightblue" d="M1287.19,-254.22C1457.1,-251.12 2039.06,-238.45 2066,-210 2092.98,-181.5 2038.1,-155.1 1997.71,-140.45"/>
<polygon fill="midnightblue" stroke="midnightblue" points="1998.66,-137.08 1988.07,-137.08 1996.35,-143.69 1998.66,-137.08"/>
</g>
<!-- Node29 -->
<g id="node29" class="node">
<title>Node29</title>
<g id="a_node29"><a xlink:href="DeleteInstantiations_8hpp.html" target="_top" xlink:title=" ">
<polygon fill="none" stroke="black" points="1449.5,-185 1449.5,-204 1636.5,-204 1636.5,-185 1449.5,-185"/>
<text text-anchor="middle" x="1543" y="-192" font-family="Helvetica,sans-Serif" font-size="10.00">Callbacks/DeleteInstantiations.hpp</text>
</a>
</g>
</g>
<!-- Node1&#45;&gt;Node29 -->
<g id="edge29" class="edge">
<title>Node1&#45;&gt;Node29</title>
<path fill="none" stroke="midnightblue" d="M1284.27,-246.48C1338.43,-235.8 1431.17,-217.53 1489.66,-206.01"/>
<polygon fill="midnightblue" stroke="midnightblue" points="1490.68,-209.38 1499.81,-204.01 1489.32,-202.51 1490.68,-209.38"/>
</g>
<!-- Node30 -->
<g id="node30" class="node">
<title>Node30</title>
<g id="a_node30"><a xlink:href="GetNeededInstantiations_8hpp.html" target="_top" xlink:title=" ">
<polygon fill="none" stroke="black" points="1848.5,-185 1848.5,-204 2057.5,-204 2057.5,-185 1848.5,-185"/>
<text text-anchor="middle" x="1953" y="-192" font-family="Helvetica,sans-Serif" font-size="10.00">Callbacks/GetNeededInstantiations.hpp</text>
</a>
</g>
</g>
<!-- Node1&#45;&gt;Node30 -->
<g id="edge31" class="edge">
<title>Node1&#45;&gt;Node30</title>
<path fill="none" stroke="midnightblue" d="M1287.21,-252.33C1387.72,-246.36 1633.64,-230.77 1839,-210 1852.5,-208.63 1866.87,-206.97 1880.69,-205.27"/>
<polygon fill="midnightblue" stroke="midnightblue" points="1881.16,-208.73 1890.65,-204.02 1880.29,-201.79 1881.16,-208.73"/>
</g>
<!-- Node31 -->
<g id="node31" class="node">
<title>Node31</title>
<g id="a_node31"><a xlink:href="InjectInstantiation_8hpp.html" target="_top" xlink:title=" ">
<polygon fill="none" stroke="black" points="1654,-185 1654,-204 1830,-204 1830,-185 1654,-185"/>
<text text-anchor="middle" x="1742" y="-192" font-family="Helvetica,sans-Serif" font-size="10.00">Callbacks/InjectInstantiation.hpp</text>
</a>
</g>
</g>
<!-- Node1&#45;&gt;Node31 -->
<g id="edge35" class="edge">
<title>Node1&#45;&gt;Node31</title>
<path fill="none" stroke="midnightblue" d="M1287.11,-250.43C1362.21,-242.86 1515.54,-226.88 1645,-210 1655.43,-208.64 1666.47,-207.09 1677.22,-205.53"/>
<polygon fill="midnightblue" stroke="midnightblue" points="1678.03,-208.95 1687.42,-204.03 1677.01,-202.02 1678.03,-208.95"/>
</g>
<!-- Node32 -->
<g id="node32" class="node">
<title>Node32</title>
<g id="a_node32"><a xlink:href="Matcher_8hpp.html" target="_top" xlink:title=" ">
<polygon fill="none" stroke="black" points="2152.5,-185 2152.5,-204 2271.5,-204 2271.5,-185 2152.5,-185"/>
<text text-anchor="middle" x="2212" y="-192" font-family="Helvetica,sans-Serif" font-size="10.00">Matcher/Matcher.hpp</text>
</a>
</g>
</g>
<!-- Node1&#45;&gt;Node32 -->
<g id="edge39" class="edge">
<title>Node1&#45;&gt;Node32</title>
<path fill="none" stroke="midnightblue" d="M1287.42,-255.01C1420.42,-254.54 1814.14,-249.65 2138,-210 2146.5,-208.96 2155.49,-207.5 2164.16,-205.91"/>
<polygon fill="midnightblue" stroke="midnightblue" points="2164.98,-209.32 2174.14,-204 2163.66,-202.45 2164.98,-209.32"/>
</g>
<!-- Node18 -->
<g id="node18" class="node">
<title>Node18</title>
<g id="a_node18"><a xlink:title=" ">
<polygon fill="none" stroke="#bfbfbf" points="2299,-56.5 2299,-75.5 2355,-75.5 2355,-56.5 2299,-56.5"/>
<text text-anchor="middle" x="2327" y="-63.5" font-family="Helvetica,sans-Serif" font-size="10.00">optional</text>
</a>
</g>
</g>
<!-- Node17&#45;&gt;Node18 -->
<g id="edge17" class="edge">
<title>Node17&#45;&gt;Node18</title>
<path fill="none" stroke="midnightblue" d="M2000.15,-120.8C2071.76,-110.57 2219.74,-89.09 2288.79,-76.07"/>
<polygon fill="midnightblue" stroke="midnightblue" points="2289.62,-79.47 2298.77,-74.13 2288.29,-72.6 2289.62,-79.47"/>
</g>
<!-- Node19 -->
<g id="node19" class="node">
<title>Node19</title>
<g id="a_node19"><a xlink:title=" ">
<polygon fill="none" stroke="#bfbfbf" points="1668,-0.5 1668,-19.5 1712,-19.5 1712,-0.5 1668,-0.5"/>
<text text-anchor="middle" x="1690" y="-7.5" font-family="Helvetica,sans-Serif" font-size="10.00">string</text>
</a>
</g>
</g>
<!-- Node17&#45;&gt;Node19 -->
<g id="edge18" class="edge">
<title>Node17&#45;&gt;Node19</title>
<path fill="none" stroke="midnightblue" d="M1930.77,-117.93C1900.73,-108.78 1852.87,-93.26 1813,-76 1803.17,-71.74 1747.85,-42.15 1714.84,-24.39"/>
<polygon fill="midnightblue" stroke="midnightblue" points="1716.25,-21.17 1705.78,-19.52 1712.93,-27.34 1716.25,-21.17"/>
</g>
<!-- Node20 -->
<g id="node20" class="node">
<title>Node20</title>
<g id="a_node20"><a xlink:title=" ">
<polygon fill="none" stroke="#bfbfbf" points="1718.5,-56.5 1718.5,-75.5 1765.5,-75.5 1765.5,-56.5 1718.5,-56.5"/>
<text text-anchor="middle" x="1742" y="-63.5" font-family="Helvetica,sans-Serif" font-size="10.00">vector</text>
</a>
</g>
</g>
<!-- Node17&#45;&gt;Node20 -->
<g id="edge19" class="edge">
<title>Node17&#45;&gt;Node20</title>
<path fill="none" stroke="midnightblue" d="M1928.77,-117.98C1888.09,-106.87 1817.26,-87.54 1775.5,-76.14"/>
<polygon fill="midnightblue" stroke="midnightblue" points="1776.36,-72.75 1765.79,-73.49 1774.52,-79.5 1776.36,-72.75"/>
</g>
<!-- Node21 -->
<g id="node21" class="node">
<title>Node21</title>
<g id="a_node21"><a xlink:title=" ">
<polygon fill="none" stroke="#bfbfbf" points="1908,-56.5 1908,-75.5 2026,-75.5 2026,-56.5 1908,-56.5"/>
<text text-anchor="middle" x="1967" y="-63.5" font-family="Helvetica,sans-Serif" font-size="10.00">llvm/ADT/StringRef.h</text>
</a>
</g>
</g>
<!-- Node17&#45;&gt;Node21 -->
<g id="edge20" class="edge">
<title>Node17&#45;&gt;Node21</title>
<path fill="none" stroke="midnightblue" d="M1961,-117.98C1961.99,-109.58 1963.53,-96.48 1964.8,-85.66"/>
<polygon fill="midnightblue" stroke="midnightblue" points="1968.31,-85.85 1966,-75.51 1961.35,-85.03 1968.31,-85.85"/>
</g>
<!-- Node22 -->
<g id="node22" class="node">
<title>Node22</title>
<g id="a_node22"><a xlink:title=" ">
<polygon fill="none" stroke="#bfbfbf" points="2044.5,-56.5 2044.5,-75.5 2163.5,-75.5 2163.5,-56.5 2044.5,-56.5"/>
<text text-anchor="middle" x="2104" y="-63.5" font-family="Helvetica,sans-Serif" font-size="10.00">clang/AST/DeclCXX.h</text>
</a>
</g>
</g>
<!-- Node17&#45;&gt;Node22 -->
<g id="edge21" class="edge">
<title>Node17&#45;&gt;Node22</title>
<path fill="none" stroke="midnightblue" d="M1980.63,-117.98C2005.12,-107.86 2046.15,-90.9 2074.11,-79.35"/>
<polygon fill="midnightblue" stroke="midnightblue" points="2075.5,-82.56 2083.41,-75.51 2072.83,-76.09 2075.5,-82.56"/>
</g>
<!-- Node23 -->
<g id="node23" class="node">
<title>Node23</title>
<g id="a_node23"><a xlink:title=" ">
<polygon fill="none" stroke="#bfbfbf" points="2181.5,-56.5 2181.5,-75.5 2280.5,-75.5 2280.5,-56.5 2181.5,-56.5"/>
<text text-anchor="middle" x="2231" y="-63.5" font-family="Helvetica,sans-Serif" font-size="10.00">clang/AST/Type.h</text>
</a>
</g>
</g>
<!-- Node17&#45;&gt;Node23 -->
<g id="edge22" class="edge">
<title>Node17&#45;&gt;Node23</title>
<path fill="none" stroke="midnightblue" d="M1998.83,-117.98C2047.12,-107.37 2129.61,-89.26 2182.15,-77.72"/>
<polygon fill="midnightblue" stroke="midnightblue" points="2183.23,-81.07 2192.24,-75.51 2181.73,-74.24 2183.23,-81.07"/>
</g>
<!-- Node24 -->
<g id="node24" class="node">
<title>Node24</title>
<g id="a_node24"><a xlink:href="Param_8hpp.html" target="_top" xlink:title=" ">
<polygon fill="none" stroke="black" points="1822,-56.5 1822,-75.5 1890,-75.5 1890,-56.5 1822,-56.5"/>
<text text-anchor="middle" x="1856" y="-63.5" font-family="Helvetica,sans-Serif" font-size="10.00">Param.hpp</text>
</a>
</g>
</g>
<!-- Node17&#45;&gt;Node24 -->
<g id="edge23" class="edge">
<title>Node17&#45;&gt;Node24</title>
<path fill="none" stroke="midnightblue" d="M1945.1,-117.98C1928.03,-108.21 1899.84,-92.08 1879.74,-80.58"/>
<polygon fill="midnightblue" stroke="midnightblue" points="1881.29,-77.44 1870.87,-75.51 1877.81,-83.51 1881.29,-77.44"/>
</g>
<!-- Node24&#45;&gt;Node19 -->
<g id="edge25" class="edge">
<title>Node24&#45;&gt;Node19</title>
<path fill="none" stroke="midnightblue" d="M1829.7,-56.44C1800.41,-46.92 1753.09,-31.52 1721.76,-21.33"/>
<polygon fill="midnightblue" stroke="midnightblue" points="1722.79,-17.99 1712.2,-18.22 1720.62,-24.64 1722.79,-17.99"/>
</g>
<!-- Node25 -->
<g id="node25" class="node">
<title>Node25</title>
<g id="a_node25"><a xlink:title=" ">
<polygon fill="none" stroke="#bfbfbf" points="1885.5,-0.5 1885.5,-19.5 1942.5,-19.5 1942.5,-0.5 1885.5,-0.5"/>
<text text-anchor="middle" x="1914" y="-7.5" font-family="Helvetica,sans-Serif" font-size="10.00">ostream</text>
</a>
</g>
</g>
<!-- Node24&#45;&gt;Node25 -->
<g id="edge24" class="edge">
<title>Node24&#45;&gt;Node25</title>
<path fill="none" stroke="midnightblue" d="M1865.32,-56.32C1873.89,-48.34 1886.81,-36.31 1897.19,-26.65"/>
<polygon fill="midnightblue" stroke="midnightblue" points="1899.58,-29.21 1904.51,-19.83 1894.81,-24.09 1899.58,-29.21"/>
</g>
<!-- Node26 -->
<g id="node26" class="node">
<title>Node26</title>
<g id="a_node26"><a xlink:title=" ">
<polygon fill="none" stroke="#bfbfbf" points="1961,-0.5 1961,-19.5 2059,-19.5 2059,-0.5 1961,-0.5"/>
<text text-anchor="middle" x="2010" y="-7.5" font-family="Helvetica,sans-Serif" font-size="10.00">clang/AST/Decl.h</text>
</a>
</g>
</g>
<!-- Node24&#45;&gt;Node26 -->
<g id="edge26" class="edge">
<title>Node24&#45;&gt;Node26</title>
<path fill="none" stroke="midnightblue" d="M1880.4,-56.44C1906.2,-47.4 1947.08,-33.06 1976.02,-22.92"/>
<polygon fill="midnightblue" stroke="midnightblue" points="1977.43,-26.13 1985.71,-19.52 1975.12,-19.52 1977.43,-26.13"/>
</g>
<!-- Node27 -->
<g id="node27" class="node">
<title>Node27</title>
<g id="a_node27"><a xlink:title=" ">
<polygon fill="none" stroke="#bfbfbf" points="2077,-0.5 2077,-19.5 2241,-19.5 2241,-0.5 2077,-0.5"/>
<text text-anchor="middle" x="2159" y="-7.5" font-family="Helvetica,sans-Serif" font-size="10.00">clang/AST/DependenceFlags.h</text>
</a>
</g>
</g>
<!-- Node24&#45;&gt;Node27 -->
<g id="edge27" class="edge">
<title>Node24&#45;&gt;Node27</title>
<path fill="none" stroke="midnightblue" d="M1890.25,-57.72C1893.2,-57.12 1896.15,-56.54 1899,-56 1966.42,-43.11 2043.99,-29.9 2096.73,-21.15"/>
<polygon fill="midnightblue" stroke="midnightblue" points="2097.32,-24.6 2106.61,-19.51 2096.18,-17.69 2097.32,-24.6"/>
</g>
<!-- Node28 -->
<g id="node28" class="node">
<title>Node28</title>
<g id="a_node28"><a xlink:title=" ">
<polygon fill="none" stroke="#bfbfbf" points="1730.5,-0.5 1730.5,-19.5 1867.5,-19.5 1867.5,-0.5 1730.5,-0.5"/>
<text text-anchor="middle" x="1799" y="-7.5" font-family="Helvetica,sans-Serif" font-size="10.00">clang/AST/PrettyPrinter.h</text>
</a>
</g>
</g>
<!-- Node24&#45;&gt;Node28 -->
<g id="edge28" class="edge">
<title>Node24&#45;&gt;Node28</title>
<path fill="none" stroke="midnightblue" d="M1846.84,-56.32C1838.5,-48.42 1825.97,-36.55 1815.82,-26.94"/>
<polygon fill="midnightblue" stroke="midnightblue" points="1817.99,-24.17 1808.32,-19.83 1813.18,-29.25 1817.99,-24.17"/>
</g>
<!-- Node29&#45;&gt;Node13 -->
<g id="edge30" class="edge">
<title>Node29&#45;&gt;Node13</title>
<path fill="none" stroke="midnightblue" d="M1549.07,-184.73C1555.03,-176.12 1564.39,-162.61 1572.43,-150.99"/>
<polygon fill="midnightblue" stroke="midnightblue" points="1575.43,-152.8 1578.25,-142.59 1569.68,-148.82 1575.43,-152.8"/>
</g>
<!-- Node30&#45;&gt;Node13 -->
<g id="edge33" class="edge">
<title>Node30&#45;&gt;Node13</title>
<path fill="none" stroke="midnightblue" d="M1904.91,-184.94C1847.04,-174.63 1748.71,-157.12 1676.9,-144.33"/>
<polygon fill="midnightblue" stroke="midnightblue" points="1677.41,-140.87 1666.95,-142.56 1676.18,-147.76 1677.41,-140.87"/>
</g>
<!-- Node30&#45;&gt;Node17 -->
<g id="edge34" class="edge">
<title>Node30&#45;&gt;Node17</title>
<path fill="none" stroke="midnightblue" d="M1953.94,-184.73C1954.97,-175.18 1956.65,-159.62 1957.98,-147.28"/>
<polygon fill="midnightblue" stroke="midnightblue" points="1961.48,-147.44 1959.07,-137.13 1954.52,-146.7 1961.48,-147.44"/>
</g>
<!-- Node30&#45;&gt;Node20 -->
<g id="edge32" class="edge">
<title>Node30&#45;&gt;Node20</title>
<path fill="none" stroke="midnightblue" d="M1938.5,-184.81C1902.5,-163.22 1808.82,-107.06 1765.1,-80.85"/>
<polygon fill="midnightblue" stroke="midnightblue" points="1766.7,-77.73 1756.33,-75.59 1763.1,-83.73 1766.7,-77.73"/>
</g>
<!-- Node31&#45;&gt;Node13 -->
<g id="edge37" class="edge">
<title>Node31&#45;&gt;Node13</title>
<path fill="none" stroke="midnightblue" d="M1721.55,-184.87C1698.44,-175.12 1660.19,-158.97 1630.53,-146.45"/>
<polygon fill="midnightblue" stroke="midnightblue" points="1631.81,-143.19 1621.24,-142.53 1629.09,-149.64 1631.81,-143.19"/>
</g>
<!-- Node31&#45;&gt;Node17 -->
<g id="edge38" class="edge">
<title>Node31&#45;&gt;Node17</title>
<path fill="none" stroke="midnightblue" d="M1770.95,-184.87C1809.66,-173.33 1878.38,-152.84 1921.45,-140"/>
<polygon fill="midnightblue" stroke="midnightblue" points="1922.7,-143.28 1931.28,-137.06 1920.7,-136.57 1922.7,-143.28"/>
</g>
<!-- Node31&#45;&gt;Node20 -->
<g id="edge36" class="edge">
<title>Node31&#45;&gt;Node20</title>
<path fill="none" stroke="midnightblue" d="M1742,-184.81C1742,-164.49 1742,-113.55 1742,-85.78"/>
<polygon fill="midnightblue" stroke="midnightblue" points="1745.5,-85.76 1742,-75.76 1738.5,-85.76 1745.5,-85.76"/>
</g>
<!-- Node32&#45;&gt;Node14 -->
<g id="edge40" class="edge">
<title>Node32&#45;&gt;Node14</title>
<path fill="none" stroke="midnightblue" d="M2206.07,-184.73C2199.27,-174.7 2187.98,-158.01 2179.45,-145.42"/>
<polygon fill="midnightblue" stroke="midnightblue" points="2182.34,-143.45 2173.84,-137.13 2176.55,-147.37 2182.34,-143.45"/>
</g>
</g>
</svg>
