<?xml version="1.0" encoding="UTF-8" standalone="no"?>
<!DOCTYPE svg PUBLIC "-//W3C//DTD SVG 1.1//EN"
 "http://www.w3.org/Graphics/SVG/1.1/DTD/svg11.dtd">
<!-- Generated by graphviz version 2.43.0 (0)
 -->
<!-- Title: Instantiator.cpp Pages: 1 -->
<svg width="3634pt" height="274pt"
 viewBox="0.00 0.00 3633.50 274.00" xmlns="http://www.w3.org/2000/svg" xmlns:xlink="http://www.w3.org/1999/xlink">
<g id="graph0" class="graph" transform="scale(1 1) rotate(0) translate(4 270)">
<title>Instantiator.cpp</title>
<!-- Node1 -->
<g id="node1" class="node">
<title>Node1</title>
<g id="a_node1"><a xlink:title=" ">
<polygon fill="#bfbfbf" stroke="black" points="1774,-246.5 1774,-265.5 1866,-265.5 1866,-246.5 1774,-246.5"/>
<text text-anchor="middle" x="1820" y="-253.5" font-family="Helvetica,sans-Serif" font-size="10.00">Instantiator.cpp</text>
</a>
</g>
</g>
<!-- Node2 -->
<g id="node2" class="node">
<title>Node2</title>
<g id="a_node2"><a xlink:title=" ">
<polygon fill="none" stroke="#bfbfbf" points="392,-185 392,-204 460,-204 460,-185 392,-185"/>
<text text-anchor="middle" x="426" y="-192" font-family="Helvetica,sans-Serif" font-size="10.00">filesystem</text>
</a>
</g>
</g>
<!-- Node1&#45;&gt;Node2 -->
<g id="edge1" class="edge">
<title>Node1&#45;&gt;Node2</title>
<path fill="none" stroke="midnightblue" d="M1773.93,-255.06C1568.19,-255.1 732.24,-252.57 474,-210 469.43,-209.25 464.69,-208.18 460.04,-206.96"/>
<polygon fill="midnightblue" stroke="midnightblue" points="460.71,-203.51 450.13,-204.12 458.78,-210.24 460.71,-203.51"/>
</g>
<!-- Node3 -->
<g id="node3" class="node">
<title>Node3</title>
<g id="a_node3"><a xlink:title=" ">
<polygon fill="none" stroke="#bfbfbf" points="0,-118 0,-137 60,-137 60,-118 0,-118"/>
<text text-anchor="middle" x="30" y="-125" font-family="Helvetica,sans-Serif" font-size="10.00">iostream</text>
</a>
</g>
</g>
<!-- Node1&#45;&gt;Node3 -->
<g id="edge2" class="edge">
<title>Node1&#45;&gt;Node3</title>
<path fill="none" stroke="midnightblue" d="M1773.77,-255.34C1554.08,-256.72 621.24,-259.59 502,-210 483.42,-202.27 487.36,-187.24 469,-179 306.16,-105.9 243.08,-182.45 69,-143 65.93,-142.3 62.77,-141.42 59.65,-140.44"/>
<polygon fill="midnightblue" stroke="midnightblue" points="60.53,-137.04 49.93,-137.07 58.23,-143.66 60.53,-137.04"/>
</g>
<!-- Node4 -->
<g id="node4" class="node">
<title>Node4</title>
<g id="a_node4"><a xlink:title=" ">
<polygon fill="none" stroke="#bfbfbf" points="1635,-185 1635,-204 1685,-204 1685,-185 1635,-185"/>
<text text-anchor="middle" x="1660" y="-192" font-family="Helvetica,sans-Serif" font-size="10.00">ranges</text>
</a>
</g>
</g>
<!-- Node1&#45;&gt;Node4 -->
<g id="edge3" class="edge">
<title>Node1&#45;&gt;Node4</title>
<path fill="none" stroke="midnightblue" d="M1794.73,-246.48C1769.18,-237.74 1728.61,-223.55 1694,-210 1692.4,-209.37 1690.76,-208.72 1689.11,-208.05"/>
<polygon fill="midnightblue" stroke="midnightblue" points="1690.27,-204.74 1679.69,-204.14 1687.58,-211.21 1690.27,-204.74"/>
</g>
<!-- Node5 -->
<g id="node5" class="node">
<title>Node5</title>
<g id="a_node5"><a xlink:title=" ">
<polygon fill="none" stroke="#bfbfbf" points="1703,-185 1703,-204 1759,-204 1759,-185 1703,-185"/>
<text text-anchor="middle" x="1731" y="-192" font-family="Helvetica,sans-Serif" font-size="10.00">sstream</text>
</a>
</g>
</g>
<!-- Node1&#45;&gt;Node5 -->
<g id="edge4" class="edge">
<title>Node1&#45;&gt;Node5</title>
<path fill="none" stroke="midnightblue" d="M1807.25,-246.48C1792.97,-236.93 1769.6,-221.31 1752.49,-209.87"/>
<polygon fill="midnightblue" stroke="midnightblue" points="1753.99,-206.66 1743.73,-204.01 1750.1,-212.48 1753.99,-206.66"/>
</g>
<!-- Node6 -->
<g id="node6" class="node">
<title>Node6</title>
<g id="a_node6"><a xlink:title=" ">
<polygon fill="none" stroke="#bfbfbf" points="1777,-185 1777,-204 1863,-204 1863,-185 1777,-185"/>
<text text-anchor="middle" x="1820" y="-192" font-family="Helvetica,sans-Serif" font-size="10.00">unordered_set</text>
</a>
</g>
</g>
<!-- Node1&#45;&gt;Node6 -->
<g id="edge5" class="edge">
<title>Node1&#45;&gt;Node6</title>
<path fill="none" stroke="midnightblue" d="M1820,-246.48C1820,-238.08 1820,-224.98 1820,-214.16"/>
<polygon fill="midnightblue" stroke="midnightblue" points="1823.5,-214.01 1820,-204.01 1816.5,-214.01 1823.5,-214.01"/>
</g>
<!-- Node7 -->
<g id="node7" class="node">
<title>Node7</title>
<g id="a_node7"><a xlink:title=" ">
<polygon fill="none" stroke="#bfbfbf" points="1881,-185 1881,-204 2015,-204 2015,-185 1881,-185"/>
<text text-anchor="middle" x="1948" y="-192" font-family="Helvetica,sans-Serif" font-size="10.00">termcolor/termcolor.hpp</text>
</a>
</g>
</g>
<!-- Node1&#45;&gt;Node7 -->
<g id="edge6" class="edge">
<title>Node1&#45;&gt;Node7</title>
<path fill="none" stroke="midnightblue" d="M1838.34,-246.48C1859.82,-236.49 1895.62,-219.85 1920.45,-208.31"/>
<polygon fill="midnightblue" stroke="midnightblue" points="1922.1,-211.4 1929.69,-204.01 1919.15,-205.05 1922.1,-211.4"/>
</g>
<!-- Node8 -->
<g id="node8" class="node">
<title>Node8</title>
<g id="a_node8"><a xlink:title=" ">
<polygon fill="none" stroke="#bfbfbf" points="2033,-185 2033,-204 2191,-204 2191,-185 2033,-185"/>
<text text-anchor="middle" x="2112" y="-192" font-family="Helvetica,sans-Serif" font-size="10.00">indicators/cursor_control.hpp</text>
</a>
</g>
</g>
<!-- Node1&#45;&gt;Node8 -->
<g id="edge7" class="edge">
<title>Node1&#45;&gt;Node8</title>
<path fill="none" stroke="midnightblue" d="M1861.84,-246.48C1914.2,-235.8 2003.87,-217.53 2060.43,-206.01"/>
<polygon fill="midnightblue" stroke="midnightblue" points="2061.14,-209.44 2070.24,-204.01 2059.74,-202.58 2061.14,-209.44"/>
</g>
<!-- Node9 -->
<g id="node9" class="node">
<title>Node9</title>
<g id="a_node9"><a xlink:title=" ">
<polygon fill="none" stroke="#bfbfbf" points="2209.5,-179.5 2209.5,-209.5 2346.5,-209.5 2346.5,-179.5 2209.5,-179.5"/>
<text text-anchor="start" x="2217.5" y="-197.5" font-family="Helvetica,sans-Serif" font-size="10.00">indicators/indeterminate</text>
<text text-anchor="middle" x="2278" y="-186.5" font-family="Helvetica,sans-Serif" font-size="10.00">_progress_bar.hpp</text>
</a>
</g>
</g>
<!-- Node1&#45;&gt;Node9 -->
<g id="edge8" class="edge">
<title>Node1&#45;&gt;Node9</title>
<path fill="none" stroke="midnightblue" d="M1866.05,-250.54C1935.77,-243.56 2072.52,-229.04 2198.9,-210.1"/>
<polygon fill="midnightblue" stroke="midnightblue" points="2199.77,-213.51 2209.14,-208.56 2198.73,-206.59 2199.77,-213.51"/>
</g>
<!-- Node10 -->
<g id="node10" class="node">
<title>Node10</title>
<g id="a_node10"><a xlink:title=" ">
<polygon fill="none" stroke="#bfbfbf" points="78,-112.5 78,-142.5 188,-142.5 188,-112.5 78,-112.5"/>
<text text-anchor="start" x="86" y="-130.5" font-family="Helvetica,sans-Serif" font-size="10.00">indicators/progress</text>
<text text-anchor="middle" x="133" y="-119.5" font-family="Helvetica,sans-Serif" font-size="10.00">_bar.hpp</text>
</a>
</g>
</g>
<!-- Node1&#45;&gt;Node10 -->
<g id="edge9" class="edge">
<title>Node1&#45;&gt;Node10</title>
<path fill="none" stroke="midnightblue" d="M1773.75,-255.12C1558.12,-255.43 657.14,-254.05 540,-210 519.6,-202.33 522.07,-187.51 502,-179 379.27,-126.98 333.67,-164.27 198.01,-143"/>
<polygon fill="midnightblue" stroke="midnightblue" points="198.52,-139.54 188.08,-141.37 197.38,-146.45 198.52,-139.54"/>
</g>
<!-- Node11 -->
<g id="node11" class="node">
<title>Node11</title>
<g id="a_node11"><a xlink:title=" ">
<polygon fill="none" stroke="#bfbfbf" points="2364.5,-185 2364.5,-204 2543.5,-204 2543.5,-185 2364.5,-185"/>
<text text-anchor="middle" x="2454" y="-192" font-family="Helvetica,sans-Serif" font-size="10.00">clang/Frontend/FrontendActions.h</text>
</a>
</g>
</g>
<!-- Node1&#45;&gt;Node11 -->
<g id="edge10" class="edge">
<title>Node1&#45;&gt;Node11</title>
<path fill="none" stroke="midnightblue" d="M1866.25,-252.07C1959.09,-245.98 2174.67,-230.77 2355,-210 2366.34,-208.69 2378.39,-207.1 2390.03,-205.46"/>
<polygon fill="midnightblue" stroke="midnightblue" points="2390.73,-208.89 2400.13,-204 2389.73,-201.96 2390.73,-208.89"/>
</g>
<!-- Node12 -->
<g id="node12" class="node">
<title>Node12</title>
<g id="a_node12"><a xlink:title=" ">
<polygon fill="none" stroke="#bfbfbf" points="2561.5,-179.5 2561.5,-209.5 2726.5,-209.5 2726.5,-179.5 2561.5,-179.5"/>
<text text-anchor="start" x="2569.5" y="-197.5" font-family="Helvetica,sans-Serif" font-size="10.00">clang/Tooling/CommonOptions</text>
<text text-anchor="middle" x="2644" y="-186.5" font-family="Helvetica,sans-Serif" font-size="10.00">Parser.h</text>
</a>
</g>
</g>
<!-- Node1&#45;&gt;Node12 -->
<g id="edge11" class="edge">
<title>Node1&#45;&gt;Node12</title>
<path fill="none" stroke="midnightblue" d="M1866.38,-253.68C1980.81,-250.09 2285.92,-238.52 2551.09,-210.02"/>
<polygon fill="midnightblue" stroke="midnightblue" points="2551.73,-213.47 2561.3,-208.91 2550.98,-206.51 2551.73,-213.47"/>
</g>
<!-- Node13 -->
<g id="node13" class="node">
<title>Node13</title>
<g id="a_node13"><a xlink:title=" ">
<polygon fill="none" stroke="#bfbfbf" points="206.5,-118 206.5,-137 333.5,-137 333.5,-118 206.5,-118"/>
<text text-anchor="middle" x="270" y="-125" font-family="Helvetica,sans-Serif" font-size="10.00">clang/Tooling/Tooling.h</text>
</a>
</g>
</g>
<!-- Node1&#45;&gt;Node13 -->
<g id="edge12" class="edge">
<title>Node1&#45;&gt;Node13</title>
<path fill="none" stroke="midnightblue" d="M1773.96,-254.9C1563.35,-254.24 697.15,-249.16 583,-210 560.72,-202.35 561.68,-188.23 540,-179 458.11,-144.12 430.43,-159.67 343,-143 336.35,-141.73 329.36,-140.38 322.45,-139.02"/>
<polygon fill="midnightblue" stroke="midnightblue" points="322.93,-135.55 312.44,-137.04 321.57,-142.41 322.93,-135.55"/>
</g>
<!-- Node14 -->
<g id="node14" class="node">
<title>Node14</title>
<g id="a_node14"><a xlink:title=" ">
<polygon fill="none" stroke="#bfbfbf" points="2744.5,-185 2744.5,-204 2905.5,-204 2905.5,-185 2744.5,-185"/>
<text text-anchor="middle" x="2825" y="-192" font-family="Helvetica,sans-Serif" font-size="10.00">llvm/Support/CommandLine.h</text>
</a>
</g>
</g>
<!-- Node1&#45;&gt;Node14 -->
<g id="edge13" class="edge">
<title>Node1&#45;&gt;Node14</title>
<path fill="none" stroke="midnightblue" d="M1866.32,-254.53C2000.87,-252.78 2403.22,-244.78 2735,-210 2745.85,-208.86 2757.37,-207.29 2768.43,-205.59"/>
<polygon fill="midnightblue" stroke="midnightblue" points="2769.09,-209.03 2778.42,-204.01 2767.99,-202.12 2769.09,-209.03"/>
</g>
<!-- Node15 -->
<g id="node15" class="node">
<title>Node15</title>
<g id="a_node15"><a xlink:title=" ">
<polygon fill="none" stroke="#bfbfbf" points="2923.5,-185 2923.5,-204 3060.5,-204 3060.5,-185 2923.5,-185"/>
<text text-anchor="middle" x="2992" y="-192" font-family="Helvetica,sans-Serif" font-size="10.00">clang/AST/ASTImporter.h</text>
</a>
</g>
</g>
<!-- Node1&#45;&gt;Node15 -->
<g id="edge14" class="edge">
<title>Node1&#45;&gt;Node15</title>
<path fill="none" stroke="midnightblue" d="M1866.04,-255.45C2016.89,-256.42 2509.77,-255.65 2914,-210 2923.15,-208.97 2932.83,-207.49 2942.15,-205.86"/>
<polygon fill="midnightblue" stroke="midnightblue" points="2942.87,-209.29 2952.08,-204.05 2941.62,-202.4 2942.87,-209.29"/>
</g>
<!-- Node16 -->
<g id="node16" class="node">
<title>Node16</title>
<g id="a_node16"><a xlink:title=" ">
<polygon fill="none" stroke="#bfbfbf" points="1414.5,-112.5 1414.5,-142.5 1575.5,-142.5 1575.5,-112.5 1414.5,-112.5"/>
<text text-anchor="start" x="1422.5" y="-130.5" font-family="Helvetica,sans-Serif" font-size="10.00">clang/ASTMatchers/ASTMatch</text>
<text text-anchor="middle" x="1495" y="-119.5" font-family="Helvetica,sans-Serif" font-size="10.00">Finder.h</text>
</a>
</g>
</g>
<!-- Node1&#45;&gt;Node16 -->
<g id="edge15" class="edge">
<title>Node1&#45;&gt;Node16</title>
<path fill="none" stroke="midnightblue" d="M1773.72,-250.27C1733.12,-244.75 1673.34,-233.22 1626,-210 1606.43,-200.4 1606.1,-191.14 1588,-179 1570.75,-167.43 1550.6,-156.23 1533.47,-147.33"/>
<polygon fill="midnightblue" stroke="midnightblue" points="1534.8,-144.08 1524.3,-142.63 1531.61,-150.31 1534.8,-144.08"/>
</g>
<!-- Node17 -->
<g id="node17" class="node">
<title>Node17</title>
<g id="a_node17"><a xlink:title=" ">
<polygon fill="none" stroke="#bfbfbf" points="3089.5,-118 3089.5,-137 3274.5,-137 3274.5,-118 3089.5,-118"/>
<text text-anchor="middle" x="3182" y="-125" font-family="Helvetica,sans-Serif" font-size="10.00">clang/ASTMatchers/ASTMatchers.h</text>
</a>
</g>
</g>
<!-- Node1&#45;&gt;Node17 -->
<g id="edge16" class="edge">
<title>Node1&#45;&gt;Node17</title>
<path fill="none" stroke="midnightblue" d="M1866.36,-255.28C2102.19,-256.5 3159.37,-259.2 3207,-210 3223.99,-192.45 3208.69,-163.67 3195.67,-145.42"/>
<polygon fill="midnightblue" stroke="midnightblue" points="3198.43,-143.27 3189.61,-137.41 3192.85,-147.49 3198.43,-143.27"/>
</g>
<!-- Node18 -->
<g id="node18" class="node">
<title>Node18</title>
<g id="a_node18"><a xlink:title=" ">
<polygon fill="none" stroke="#bfbfbf" points="3254.5,-179.5 3254.5,-209.5 3363.5,-209.5 3363.5,-179.5 3254.5,-179.5"/>
<text text-anchor="start" x="3262.5" y="-197.5" font-family="Helvetica,sans-Serif" font-size="10.00">clang/Rewrite/Core</text>
<text text-anchor="middle" x="3309" y="-186.5" font-family="Helvetica,sans-Serif" font-size="10.00">/Rewriter.h</text>
</a>
</g>
</g>
<!-- Node1&#45;&gt;Node18 -->
<g id="edge17" class="edge">
<title>Node1&#45;&gt;Node18</title>
<path fill="none" stroke="midnightblue" d="M1866.01,-254.63C2078.33,-252.75 2964.8,-243.02 3240,-210 3241.3,-209.84 3242.61,-209.68 3243.93,-209.5"/>
<polygon fill="midnightblue" stroke="midnightblue" points="3244.8,-212.9 3254.16,-207.93 3243.74,-205.98 3244.8,-212.9"/>
</g>
<!-- Node19 -->
<g id="node19" class="node">
<title>Node19</title>
<g id="a_node19"><a xlink:title=" ">
<polygon fill="none" stroke="#bfbfbf" points="3381.5,-179.5 3381.5,-209.5 3510.5,-209.5 3510.5,-179.5 3381.5,-179.5"/>
<text text-anchor="start" x="3389.5" y="-197.5" font-family="Helvetica,sans-Serif" font-size="10.00">clang/Rewrite/Frontend</text>
<text text-anchor="middle" x="3446" y="-186.5" font-family="Helvetica,sans-Serif" font-size="10.00">/Rewriters.h</text>
</a>
</g>
</g>
<!-- Node1&#45;&gt;Node19 -->
<g id="edge18" class="edge">
<title>Node1&#45;&gt;Node19</title>
<path fill="none" stroke="midnightblue" d="M1866.13,-254.7C2088.18,-253.12 3049.01,-244.43 3370.95,-210.08"/>
<polygon fill="midnightblue" stroke="midnightblue" points="3371.65,-213.53 3381.21,-208.95 3370.89,-206.57 3371.65,-213.53"/>
</g>
<!-- Node20 -->
<g id="node20" class="node">
<title>Node20</title>
<g id="a_node20"><a xlink:href="ASTCreation_8hpp.html" target="_top" xlink:title=" ">
<polygon fill="none" stroke="black" points="3528.5,-185 3528.5,-204 3625.5,-204 3625.5,-185 3528.5,-185"/>
<text text-anchor="middle" x="3577" y="-192" font-family="Helvetica,sans-Serif" font-size="10.00">ASTCreation.hpp</text>
</a>
</g>
</g>
<!-- Node1&#45;&gt;Node20 -->
<g id="edge19" class="edge">
<title>Node1&#45;&gt;Node20</title>
<path fill="none" stroke="midnightblue" d="M1866.15,-255.17C2103.38,-255.81 3187.34,-256.13 3520,-210 3526.03,-209.16 3532.33,-207.93 3538.47,-206.53"/>
<polygon fill="midnightblue" stroke="midnightblue" points="3539.66,-209.84 3548.54,-204.06 3538,-203.05 3539.66,-209.84"/>
</g>
<!-- Node21 -->
<g id="node21" class="node">
<title>Node21</title>
<g id="a_node21"><a xlink:href="AllASTBuilderAction_8hpp.html" target="_top" xlink:title=" ">
<polygon fill="none" stroke="black" points="592.5,-185 592.5,-204 765.5,-204 765.5,-185 592.5,-185"/>
<text text-anchor="middle" x="679" y="-192" font-family="Helvetica,sans-Serif" font-size="10.00">Actions/AllASTBuilderAction.hpp</text>
</a>
</g>
</g>
<!-- Node1&#45;&gt;Node21 -->
<g id="edge20" class="edge">
<title>Node1&#45;&gt;Node21</title>
<path fill="none" stroke="midnightblue" d="M1773.83,-252.83C1641.49,-246.57 1249.42,-227.8 924,-210 875.15,-207.33 820.84,-204.14 775.79,-201.43"/>
<polygon fill="midnightblue" stroke="midnightblue" points="775.92,-197.93 765.73,-200.82 775.5,-204.92 775.92,-197.93"/>
</g>
<!-- Node28 -->
<g id="node28" class="node">
<title>Node28</title>
<g id="a_node28"><a xlink:href="DeleteInstantiations_8hpp.html" target="_top" xlink:title=" ">
<polygon fill="none" stroke="black" points="1392.5,-185 1392.5,-204 1579.5,-204 1579.5,-185 1392.5,-185"/>
<text text-anchor="middle" x="1486" y="-192" font-family="Helvetica,sans-Serif" font-size="10.00">Callbacks/DeleteInstantiations.hpp</text>
</a>
</g>
</g>
<!-- Node1&#45;&gt;Node28 -->
<g id="edge30" class="edge">
<title>Node1&#45;&gt;Node28</title>
<path fill="none" stroke="midnightblue" d="M1773.91,-246.79C1713.95,-236.11 1609.16,-217.44 1543.9,-205.81"/>
<polygon fill="midnightblue" stroke="midnightblue" points="1544.23,-202.32 1533.78,-204.01 1543.01,-209.21 1544.23,-202.32"/>
</g>
<!-- Node29 -->
<g id="node29" class="node">
<title>Node29</title>
<g id="a_node29"><a xlink:href="GetNeededInstantiations_8hpp.html" target="_top" xlink:title=" ">
<polygon fill="none" stroke="black" points="1127.5,-185 1127.5,-204 1336.5,-204 1336.5,-185 1127.5,-185"/>
<text text-anchor="middle" x="1232" y="-192" font-family="Helvetica,sans-Serif" font-size="10.00">Callbacks/GetNeededInstantiations.hpp</text>
</a>
</g>
</g>
<!-- Node1&#45;&gt;Node29 -->
<g id="edge32" class="edge">
<title>Node1&#45;&gt;Node29</title>
<path fill="none" stroke="midnightblue" d="M1773.69,-250.95C1689.49,-243.51 1505.71,-226.84 1351,-210 1337.51,-208.53 1323.18,-206.87 1309.31,-205.21"/>
<polygon fill="midnightblue" stroke="midnightblue" points="1309.65,-201.73 1299.3,-204.01 1308.81,-208.68 1309.65,-201.73"/>
</g>
<!-- Node30 -->
<g id="node30" class="node">
<title>Node30</title>
<g id="a_node30"><a xlink:href="Injection_8hpp.html" target="_top" xlink:title=" ">
<polygon fill="none" stroke="black" points="1316,-118 1316,-137 1396,-137 1396,-118 1316,-118"/>
<text text-anchor="middle" x="1356" y="-125" font-family="Helvetica,sans-Serif" font-size="10.00">Injection.hpp</text>
</a>
</g>
</g>
<!-- Node1&#45;&gt;Node30 -->
<g id="edge52" class="edge">
<title>Node1&#45;&gt;Node30</title>
<path fill="none" stroke="midnightblue" d="M1773.88,-253.06C1667.75,-248.19 1413.03,-234.12 1383,-210 1364.15,-194.85 1358.35,-166.17 1356.63,-147.19"/>
<polygon fill="midnightblue" stroke="midnightblue" points="1360.11,-146.84 1356.01,-137.08 1353.12,-147.27 1360.11,-146.84"/>
</g>
<!-- Node41 -->
<g id="node41" class="node">
<title>Node41</title>
<g id="a_node41"><a xlink:href="InjectInstantiation_8hpp.html" target="_top" xlink:title=" ">
<polygon fill="none" stroke="black" points="933,-185 933,-204 1109,-204 1109,-185 933,-185"/>
<text text-anchor="middle" x="1021" y="-192" font-family="Helvetica,sans-Serif" font-size="10.00">Callbacks/InjectInstantiation.hpp</text>
</a>
</g>
</g>
<!-- Node1&#45;&gt;Node41 -->
<g id="edge48" class="edge">
<title>Node1&#45;&gt;Node41</title>
<path fill="none" stroke="midnightblue" d="M1773.89,-253.39C1661.49,-249.18 1364.52,-236.28 1118,-210 1106.54,-208.78 1094.36,-207.19 1082.64,-205.51"/>
<polygon fill="midnightblue" stroke="midnightblue" points="1082.9,-202.01 1072.5,-204.02 1081.88,-208.94 1082.9,-202.01"/>
</g>
<!-- Node42 -->
<g id="node42" class="node">
<title>Node42</title>
<g id="a_node42"><a xlink:href="Matcher_8hpp.html" target="_top" xlink:title="AST matcher expressions to filter the relevant nodes for template instantiations.">
<polygon fill="none" stroke="black" points="3078.5,-185 3078.5,-204 3197.5,-204 3197.5,-185 3078.5,-185"/>
<text text-anchor="middle" x="3138" y="-192" font-family="Helvetica,sans-Serif" font-size="10.00">Matcher/Matcher.hpp</text>
</a>
</g>
</g>
<!-- Node1&#45;&gt;Node42 -->
<g id="edge53" class="edge">
<title>Node1&#45;&gt;Node42</title>
<path fill="none" stroke="midnightblue" d="M1866.26,-254.39C2062.79,-251.65 2829.39,-239.27 3069,-210 3076.86,-209.04 3085.15,-207.64 3093.16,-206.08"/>
<polygon fill="midnightblue" stroke="midnightblue" points="3094,-209.48 3103.09,-204.05 3092.59,-202.62 3094,-209.48"/>
</g>
<!-- Node21&#45;&gt;Node3 -->
<g id="edge21" class="edge">
<title>Node21&#45;&gt;Node3</title>
<path fill="none" stroke="midnightblue" d="M592.46,-186.41C424.89,-172.67 72.16,-143.7 69,-143 65.93,-142.31 62.77,-141.44 59.64,-140.47"/>
<polygon fill="midnightblue" stroke="midnightblue" points="60.52,-137.07 49.92,-137.1 58.23,-143.68 60.52,-137.07"/>
</g>
<!-- Node21&#45;&gt;Node10 -->
<g id="edge24" class="edge">
<title>Node21&#45;&gt;Node10</title>
<path fill="none" stroke="midnightblue" d="M597.47,-184.99C474.02,-172.1 249.28,-148.61 198.21,-142.69"/>
<polygon fill="midnightblue" stroke="midnightblue" points="198.43,-139.19 188.08,-141.41 197.56,-146.13 198.43,-139.19"/>
</g>
<!-- Node21&#45;&gt;Node13 -->
<g id="edge29" class="edge">
<title>Node21&#45;&gt;Node13</title>
<path fill="none" stroke="midnightblue" d="M619.87,-184.95C538.16,-173.09 394.94,-152.06 343,-143 335.91,-141.76 328.45,-140.38 321.12,-138.97"/>
<polygon fill="midnightblue" stroke="midnightblue" points="321.73,-135.52 311.25,-137.04 320.39,-142.39 321.73,-135.52"/>
</g>
<!-- Node22 -->
<g id="node22" class="node">
<title>Node22</title>
<g id="a_node22"><a xlink:title=" ">
<polygon fill="none" stroke="#bfbfbf" points="352,-118 352,-137 410,-137 410,-118 352,-118"/>
<text text-anchor="middle" x="381" y="-125" font-family="Helvetica,sans-Serif" font-size="10.00">memory</text>
</a>
</g>
</g>
<!-- Node21&#45;&gt;Node22 -->
<g id="edge22" class="edge">
<title>Node21&#45;&gt;Node22</title>
<path fill="none" stroke="midnightblue" d="M619.71,-184.98C566.57,-176.63 486.76,-162.35 419,-143 416.42,-142.26 413.76,-141.42 411.11,-140.53"/>
<polygon fill="midnightblue" stroke="midnightblue" points="412.28,-137.23 401.69,-137.14 409.91,-143.82 412.28,-137.23"/>
</g>
<!-- Node23 -->
<g id="node23" class="node">
<title>Node23</title>
<g id="a_node23"><a xlink:title=" ">
<polygon fill="none" stroke="#bfbfbf" points="1125.5,-56.5 1125.5,-75.5 1172.5,-75.5 1172.5,-56.5 1125.5,-56.5"/>
<text text-anchor="middle" x="1149" y="-63.5" font-family="Helvetica,sans-Serif" font-size="10.00">vector</text>
</a>
</g>
</g>
<!-- Node21&#45;&gt;Node23 -->
<g id="edge23" class="edge">
<title>Node21&#45;&gt;Node23</title>
<path fill="none" stroke="midnightblue" d="M765.56,-187.42C900.73,-177.5 1147.94,-157.5 1161,-143 1175.2,-127.24 1167.16,-101.78 1159.01,-84.72"/>
<polygon fill="midnightblue" stroke="midnightblue" points="1162.09,-83.05 1154.37,-75.79 1155.87,-86.28 1162.09,-83.05"/>
</g>
<!-- Node24 -->
<g id="node24" class="node">
<title>Node24</title>
<g id="a_node24"><a xlink:title=" ">
<polygon fill="none" stroke="#bfbfbf" points="428,-118 428,-137 568,-137 568,-118 428,-118"/>
<text text-anchor="middle" x="498" y="-125" font-family="Helvetica,sans-Serif" font-size="10.00">clang/Frontend/ASTUnit.h</text>
</a>
</g>
</g>
<!-- Node21&#45;&gt;Node24 -->
<g id="edge25" class="edge">
<title>Node21&#45;&gt;Node24</title>
<path fill="none" stroke="midnightblue" d="M654.96,-184.87C623.23,-173.47 567.21,-153.35 531.38,-140.49"/>
<polygon fill="midnightblue" stroke="midnightblue" points="532.44,-137.15 521.85,-137.06 530.08,-143.74 532.44,-137.15"/>
</g>
<!-- Node25 -->
<g id="node25" class="node">
<title>Node25</title>
<g id="a_node25"><a xlink:title=" ">
<polygon fill="none" stroke="#bfbfbf" points="586,-118 586,-137 772,-137 772,-118 586,-118"/>
<text text-anchor="middle" x="679" y="-125" font-family="Helvetica,sans-Serif" font-size="10.00">clang/Frontend/CompilerInstance.h</text>
</a>
</g>
</g>
<!-- Node21&#45;&gt;Node25 -->
<g id="edge26" class="edge">
<title>Node21&#45;&gt;Node25</title>
<path fill="none" stroke="midnightblue" d="M679,-184.73C679,-175.18 679,-159.62 679,-147.28"/>
<polygon fill="midnightblue" stroke="midnightblue" points="682.5,-147.13 679,-137.13 675.5,-147.13 682.5,-147.13"/>
</g>
<!-- Node26 -->
<g id="node26" class="node">
<title>Node26</title>
<g id="a_node26"><a xlink:title=" ">
<polygon fill="none" stroke="#bfbfbf" points="790,-118 790,-137 986,-137 986,-118 790,-118"/>
<text text-anchor="middle" x="888" y="-125" font-family="Helvetica,sans-Serif" font-size="10.00">clang/Frontend/CompilerInvocation.h</text>
</a>
</g>
</g>
<!-- Node21&#45;&gt;Node26 -->
<g id="edge27" class="edge">
<title>Node21&#45;&gt;Node26</title>
<path fill="none" stroke="midnightblue" d="M706.75,-184.87C743.79,-173.35 809.47,-152.92 850.78,-140.08"/>
<polygon fill="midnightblue" stroke="midnightblue" points="851.96,-143.38 860.46,-137.06 849.88,-136.69 851.96,-143.38"/>
</g>
<!-- Node27 -->
<g id="node27" class="node">
<title>Node27</title>
<g id="a_node27"><a xlink:title=" ">
<polygon fill="none" stroke="#bfbfbf" points="1003.5,-112.5 1003.5,-142.5 1152.5,-142.5 1152.5,-112.5 1003.5,-112.5"/>
<text text-anchor="start" x="1011.5" y="-130.5" font-family="Helvetica,sans-Serif" font-size="10.00">clang/Serialization</text>
<text text-anchor="middle" x="1078" y="-119.5" font-family="Helvetica,sans-Serif" font-size="10.00">/PCHContainerOperations.h</text>
</a>
</g>
</g>
<!-- Node21&#45;&gt;Node27 -->
<g id="edge28" class="edge">
<title>Node21&#45;&gt;Node27</title>
<path fill="none" stroke="midnightblue" d="M733.84,-184.98C794.8,-175.46 896.46,-159.41 993.38,-143.26"/>
<polygon fill="midnightblue" stroke="midnightblue" points="994.07,-146.69 1003.35,-141.59 992.91,-139.79 994.07,-146.69"/>
</g>
<!-- Node28&#45;&gt;Node16 -->
<g id="edge31" class="edge">
<title>Node28&#45;&gt;Node16</title>
<path fill="none" stroke="midnightblue" d="M1487.21,-184.73C1488.35,-176.54 1490.1,-163.92 1491.65,-152.71"/>
<polygon fill="midnightblue" stroke="midnightblue" points="1495.14,-152.97 1493.05,-142.59 1488.21,-152.01 1495.14,-152.97"/>
</g>
<!-- Node29&#45;&gt;Node16 -->
<g id="edge34" class="edge">
<title>Node29&#45;&gt;Node16</title>
<path fill="none" stroke="midnightblue" d="M1266.65,-184.94C1307.67,-174.8 1376.89,-157.69 1428.39,-144.96"/>
<polygon fill="midnightblue" stroke="midnightblue" points="1429.25,-148.36 1438.11,-142.56 1427.57,-141.56 1429.25,-148.36"/>
</g>
<!-- Node29&#45;&gt;Node23 -->
<g id="edge33" class="edge">
<title>Node29&#45;&gt;Node23</title>
<path fill="none" stroke="midnightblue" d="M1234.67,-184.9C1239.02,-169.16 1245.82,-135.22 1232,-112 1226,-101.92 1200.78,-89.05 1179.7,-79.66"/>
<polygon fill="midnightblue" stroke="midnightblue" points="1180.95,-76.39 1170.38,-75.61 1178.16,-82.81 1180.95,-76.39"/>
</g>
<!-- Node29&#45;&gt;Node30 -->
<g id="edge35" class="edge">
<title>Node29&#45;&gt;Node30</title>
<path fill="none" stroke="midnightblue" d="M1248.47,-184.87C1269.4,-173.89 1305.78,-154.82 1330.36,-141.94"/>
<polygon fill="midnightblue" stroke="midnightblue" points="1332.23,-144.91 1339.47,-137.17 1328.98,-138.71 1332.23,-144.91"/>
</g>
<!-- Node30&#45;&gt;Node23 -->
<g id="edge38" class="edge">
<title>Node30&#45;&gt;Node23</title>
<path fill="none" stroke="midnightblue" d="M1326.34,-117.98C1288.19,-107.01 1222.1,-88.01 1182.27,-76.56"/>
<polygon fill="midnightblue" stroke="midnightblue" points="1183.08,-73.15 1172.5,-73.76 1181.15,-79.88 1183.08,-73.15"/>
</g>
<!-- Node31 -->
<g id="node31" class="node">
<title>Node31</title>
<g id="a_node31"><a xlink:title=" ">
<polygon fill="none" stroke="#bfbfbf" points="1582,-56.5 1582,-75.5 1638,-75.5 1638,-56.5 1582,-56.5"/>
<text text-anchor="middle" x="1610" y="-63.5" font-family="Helvetica,sans-Serif" font-size="10.00">optional</text>
</a>
</g>
</g>
<!-- Node30&#45;&gt;Node31 -->
<g id="edge36" class="edge">
<title>Node30&#45;&gt;Node31</title>
<path fill="none" stroke="midnightblue" d="M1383.63,-117.93C1390.58,-115.88 1398.04,-113.78 1405,-112 1478.57,-93.21 1497.94,-92.75 1572,-76 1572.1,-75.98 1572.2,-75.96 1572.3,-75.93"/>
<polygon fill="midnightblue" stroke="midnightblue" points="1572.83,-79.4 1581.79,-73.75 1571.26,-72.58 1572.83,-79.4"/>
</g>
<!-- Node32 -->
<g id="node32" class="node">
<title>Node32</title>
<g id="a_node32"><a xlink:title=" ">
<polygon fill="none" stroke="#bfbfbf" points="1614,-0.5 1614,-19.5 1658,-19.5 1658,-0.5 1614,-0.5"/>
<text text-anchor="middle" x="1636" y="-7.5" font-family="Helvetica,sans-Serif" font-size="10.00">string</text>
</a>
</g>
</g>
<!-- Node30&#45;&gt;Node32 -->
<g id="edge37" class="edge">
<title>Node30&#45;&gt;Node32</title>
<path fill="none" stroke="midnightblue" d="M1382.27,-117.99C1389.58,-115.82 1397.55,-113.65 1405,-112 1458.09,-100.26 1611.5,-117.18 1647,-76 1658.17,-63.04 1652.55,-43.05 1645.93,-28.66"/>
<polygon fill="midnightblue" stroke="midnightblue" points="1649.04,-27.07 1641.38,-19.75 1642.81,-30.25 1649.04,-27.07"/>
</g>
<!-- Node33 -->
<g id="node33" class="node">
<title>Node33</title>
<g id="a_node33"><a xlink:title=" ">
<polygon fill="none" stroke="#bfbfbf" points="1191,-56.5 1191,-75.5 1309,-75.5 1309,-56.5 1191,-56.5"/>
<text text-anchor="middle" x="1250" y="-63.5" font-family="Helvetica,sans-Serif" font-size="10.00">llvm/ADT/StringRef.h</text>
</a>
</g>
</g>
<!-- Node30&#45;&gt;Node33 -->
<g id="edge39" class="edge">
<title>Node30&#45;&gt;Node33</title>
<path fill="none" stroke="midnightblue" d="M1340.81,-117.98C1323.34,-108.17 1294.42,-91.93 1273.92,-80.42"/>
<polygon fill="midnightblue" stroke="midnightblue" points="1275.59,-77.35 1265.16,-75.51 1272.17,-83.46 1275.59,-77.35"/>
</g>
<!-- Node34 -->
<g id="node34" class="node">
<title>Node34</title>
<g id="a_node34"><a xlink:title=" ">
<polygon fill="none" stroke="#bfbfbf" points="1327.5,-56.5 1327.5,-75.5 1446.5,-75.5 1446.5,-56.5 1327.5,-56.5"/>
<text text-anchor="middle" x="1387" y="-63.5" font-family="Helvetica,sans-Serif" font-size="10.00">clang/AST/DeclCXX.h</text>
</a>
</g>
</g>
<!-- Node30&#45;&gt;Node34 -->
<g id="edge40" class="edge">
<title>Node30&#45;&gt;Node34</title>
<path fill="none" stroke="midnightblue" d="M1360.44,-117.98C1364.95,-109.32 1372.07,-95.65 1377.81,-84.65"/>
<polygon fill="midnightblue" stroke="midnightblue" points="1381.05,-85.99 1382.57,-75.51 1374.84,-82.76 1381.05,-85.99"/>
</g>
<!-- Node35 -->
<g id="node35" class="node">
<title>Node35</title>
<g id="a_node35"><a xlink:title=" ">
<polygon fill="none" stroke="#bfbfbf" points="1464.5,-56.5 1464.5,-75.5 1563.5,-75.5 1563.5,-56.5 1464.5,-56.5"/>
<text text-anchor="middle" x="1514" y="-63.5" font-family="Helvetica,sans-Serif" font-size="10.00">clang/AST/Type.h</text>
</a>
</g>
</g>
<!-- Node30&#45;&gt;Node35 -->
<g id="edge41" class="edge">
<title>Node30&#45;&gt;Node35</title>
<path fill="none" stroke="midnightblue" d="M1378.64,-117.98C1405.74,-107.77 1451.31,-90.61 1482,-79.05"/>
<polygon fill="midnightblue" stroke="midnightblue" points="1483.28,-82.31 1491.4,-75.51 1480.81,-75.76 1483.28,-82.31"/>
</g>
<!-- Node36 -->
<g id="node36" class="node">
<title>Node36</title>
<g id="a_node36"><a xlink:href="Param_8hpp.html" target="_top" xlink:title=" ">
<polygon fill="none" stroke="black" points="1808,-56.5 1808,-75.5 1876,-75.5 1876,-56.5 1808,-56.5"/>
<text text-anchor="middle" x="1842" y="-63.5" font-family="Helvetica,sans-Serif" font-size="10.00">Param.hpp</text>
</a>
</g>
</g>
<!-- Node30&#45;&gt;Node36 -->
<g id="edge42" class="edge">
<title>Node30&#45;&gt;Node36</title>
<path fill="none" stroke="midnightblue" d="M1381.46,-117.99C1388.97,-115.75 1397.25,-113.53 1405,-112 1546.96,-83.94 1718.53,-72.75 1797.85,-68.84"/>
<polygon fill="midnightblue" stroke="midnightblue" points="1798.14,-72.33 1807.96,-68.36 1797.81,-65.34 1798.14,-72.33"/>
</g>
<!-- Node36&#45;&gt;Node32 -->
<g id="edge44" class="edge">
<title>Node36&#45;&gt;Node32</title>
<path fill="none" stroke="midnightblue" d="M1807.71,-56.52C1774.37,-48.19 1722.06,-34.94 1668.07,-20.24"/>
<polygon fill="midnightblue" stroke="midnightblue" points="1668.9,-16.83 1658.33,-17.57 1667.05,-23.59 1668.9,-16.83"/>
</g>
<!-- Node37 -->
<g id="node37" class="node">
<title>Node37</title>
<g id="a_node37"><a xlink:title=" ">
<polygon fill="none" stroke="#bfbfbf" points="2013.5,-0.5 2013.5,-19.5 2070.5,-19.5 2070.5,-0.5 2013.5,-0.5"/>
<text text-anchor="middle" x="2042" y="-7.5" font-family="Helvetica,sans-Serif" font-size="10.00">ostream</text>
</a>
</g>
</g>
<!-- Node36&#45;&gt;Node37 -->
<g id="edge43" class="edge">
<title>Node36&#45;&gt;Node37</title>
<path fill="none" stroke="midnightblue" d="M1873.69,-56.44C1908.83,-46.96 1965.52,-31.65 2003.26,-21.46"/>
<polygon fill="midnightblue" stroke="midnightblue" points="2004.63,-24.71 2013.37,-18.73 2002.81,-17.96 2004.63,-24.71"/>
</g>
<!-- Node38 -->
<g id="node38" class="node">
<title>Node38</title>
<g id="a_node38"><a xlink:title=" ">
<polygon fill="none" stroke="#bfbfbf" points="2089,-0.5 2089,-19.5 2187,-19.5 2187,-0.5 2089,-0.5"/>
<text text-anchor="middle" x="2138" y="-7.5" font-family="Helvetica,sans-Serif" font-size="10.00">clang/AST/Decl.h</text>
</a>
</g>
</g>
<!-- Node36&#45;&gt;Node38 -->
<g id="edge45" class="edge">
<title>Node36&#45;&gt;Node38</title>
<path fill="none" stroke="midnightblue" d="M1876.24,-58.75C1926.38,-49.61 2020.37,-32.46 2081.02,-21.4"/>
<polygon fill="midnightblue" stroke="midnightblue" points="2081.99,-24.78 2091.19,-19.54 2080.73,-17.89 2081.99,-24.78"/>
</g>
<!-- Node39 -->
<g id="node39" class="node">
<title>Node39</title>
<g id="a_node39"><a xlink:title=" ">
<polygon fill="none" stroke="#bfbfbf" points="1676,-0.5 1676,-19.5 1840,-19.5 1840,-0.5 1676,-0.5"/>
<text text-anchor="middle" x="1758" y="-7.5" font-family="Helvetica,sans-Serif" font-size="10.00">clang/AST/DependenceFlags.h</text>
</a>
</g>
</g>
<!-- Node36&#45;&gt;Node39 -->
<g id="edge46" class="edge">
<title>Node36&#45;&gt;Node39</title>
<path fill="none" stroke="midnightblue" d="M1828.5,-56.32C1815.4,-47.9 1795.29,-34.97 1779.89,-25.07"/>
<polygon fill="midnightblue" stroke="midnightblue" points="1781.77,-22.12 1771.46,-19.65 1777.98,-28.01 1781.77,-22.12"/>
</g>
<!-- Node40 -->
<g id="node40" class="node">
<title>Node40</title>
<g id="a_node40"><a xlink:title=" ">
<polygon fill="none" stroke="#bfbfbf" points="1858.5,-0.5 1858.5,-19.5 1995.5,-19.5 1995.5,-0.5 1858.5,-0.5"/>
<text text-anchor="middle" x="1927" y="-7.5" font-family="Helvetica,sans-Serif" font-size="10.00">clang/AST/PrettyPrinter.h</text>
</a>
</g>
</g>
<!-- Node36&#45;&gt;Node40 -->
<g id="edge47" class="edge">
<title>Node36&#45;&gt;Node40</title>
<path fill="none" stroke="midnightblue" d="M1855.66,-56.32C1868.92,-47.9 1889.27,-34.97 1904.85,-25.07"/>
<polygon fill="midnightblue" stroke="midnightblue" points="1906.81,-27.97 1913.38,-19.65 1903.06,-22.06 1906.81,-27.97"/>
</g>
<!-- Node41&#45;&gt;Node16 -->
<g id="edge50" class="edge">
<title>Node41&#45;&gt;Node16</title>
<path fill="none" stroke="midnightblue" d="M1076.37,-184.99C1089.97,-182.97 1104.5,-180.85 1118,-179 1242.12,-161.94 1276.04,-161.25 1403.88,-143.13"/>
<polygon fill="midnightblue" stroke="midnightblue" points="1404.66,-146.55 1414.07,-141.68 1403.67,-139.62 1404.66,-146.55"/>
</g>
<!-- Node41&#45;&gt;Node23 -->
<g id="edge49" class="edge">
<title>Node41&#45;&gt;Node23</title>
<path fill="none" stroke="midnightblue" d="M1075.06,-184.94C1120.26,-176.54 1179.59,-162.21 1194,-143 1208.92,-123.11 1186.88,-97.92 1168.72,-82.13"/>
<polygon fill="midnightblue" stroke="midnightblue" points="1170.73,-79.25 1160.79,-75.59 1166.28,-84.65 1170.73,-79.25"/>
</g>
<!-- Node41&#45;&gt;Node30 -->
<g id="edge51" class="edge">
<title>Node41&#45;&gt;Node30</title>
<path fill="none" stroke="midnightblue" d="M1065.14,-184.94C1127.37,-172.86 1240.58,-150.9 1305.89,-138.22"/>
<polygon fill="midnightblue" stroke="midnightblue" points="1306.8,-141.61 1315.95,-136.27 1305.47,-134.74 1306.8,-141.61"/>
</g>
<!-- Node42&#45;&gt;Node17 -->
<g id="edge54" class="edge">
<title>Node42&#45;&gt;Node17</title>
<path fill="none" stroke="midnightblue" d="M3143.93,-184.73C3150.73,-174.7 3162.02,-158.01 3170.55,-145.42"/>
<polygon fill="midnightblue" stroke="midnightblue" points="3173.45,-147.37 3176.16,-137.13 3167.66,-143.45 3173.45,-147.37"/>
</g>
</g>
</svg>
