<?xml version="1.0" encoding="UTF-8" standalone="no"?>
<!DOCTYPE svg PUBLIC "-//W3C//DTD SVG 1.1//EN"
 "http://www.w3.org/Graphics/SVG/1.1/DTD/svg11.dtd">
<!-- Generated by graphviz version 2.43.0 (0)
 -->
<!-- Title: Instantiator.cpp Pages: 1 -->
<svg width="2300pt" height="218pt"
 viewBox="0.00 0.00 2299.50 218.00" xmlns="http://www.w3.org/2000/svg" xmlns:xlink="http://www.w3.org/1999/xlink">
<g id="graph0" class="graph" transform="scale(1 1) rotate(0) translate(4 214)">
<title>Instantiator.cpp</title>
<!-- Node1 -->
<g id="node1" class="node">
<title>Node1</title>
<g id="a_node1"><a xlink:title=" ">
<polygon fill="#bfbfbf" stroke="black" points="1036,-190.5 1036,-209.5 1128,-209.5 1128,-190.5 1036,-190.5"/>
<text text-anchor="middle" x="1082" y="-197.5" font-family="Helvetica,sans-Serif" font-size="10.00">Instantiator.cpp</text>
</a>
</g>
</g>
<!-- Node2 -->
<g id="node2" class="node">
<title>Node2</title>
<g id="a_node2"><a xlink:title=" ">
<polygon fill="none" stroke="#bfbfbf" points="0,-129 0,-148 60,-148 60,-129 0,-129"/>
<text text-anchor="middle" x="30" y="-136" font-family="Helvetica,sans-Serif" font-size="10.00">iostream</text>
</a>
</g>
</g>
<!-- Node1&#45;&gt;Node2 -->
<g id="edge1" class="edge">
<title>Node1&#45;&gt;Node2</title>
<path fill="none" stroke="midnightblue" d="M1035.88,-198.85C863.56,-198 257.7,-192.29 69,-154 65.74,-153.34 62.4,-152.45 59.1,-151.43"/>
<polygon fill="midnightblue" stroke="midnightblue" points="60.09,-148.07 49.49,-148.1 57.79,-154.68 60.09,-148.07"/>
</g>
<!-- Node3 -->
<g id="node3" class="node">
<title>Node3</title>
<g id="a_node3"><a xlink:title=" ">
<polygon fill="none" stroke="#bfbfbf" points="78,-129 78,-148 128,-148 128,-129 78,-129"/>
<text text-anchor="middle" x="103" y="-136" font-family="Helvetica,sans-Serif" font-size="10.00">ranges</text>
</a>
</g>
</g>
<!-- Node1&#45;&gt;Node3 -->
<g id="edge2" class="edge">
<title>Node1&#45;&gt;Node3</title>
<path fill="none" stroke="midnightblue" d="M1035.84,-198.96C870.86,-198.48 311,-193.89 137,-154 134.48,-153.42 131.92,-152.67 129.38,-151.81"/>
<polygon fill="midnightblue" stroke="midnightblue" points="130.49,-148.48 119.9,-148.1 127.94,-155 130.49,-148.48"/>
</g>
<!-- Node4 -->
<g id="node4" class="node">
<title>Node4</title>
<g id="a_node4"><a xlink:title=" ">
<polygon fill="none" stroke="#bfbfbf" points="146,-129 146,-148 202,-148 202,-129 146,-129"/>
<text text-anchor="middle" x="174" y="-136" font-family="Helvetica,sans-Serif" font-size="10.00">sstream</text>
</a>
</g>
</g>
<!-- Node1&#45;&gt;Node4 -->
<g id="edge3" class="edge">
<title>Node1&#45;&gt;Node4</title>
<path fill="none" stroke="midnightblue" d="M1035.75,-198.56C879.26,-196.79 370.57,-188.44 211,-154 207.99,-153.35 204.91,-152.49 201.88,-151.51"/>
<polygon fill="midnightblue" stroke="midnightblue" points="203.05,-148.21 192.46,-148.08 200.66,-154.79 203.05,-148.21"/>
</g>
<!-- Node5 -->
<g id="node5" class="node">
<title>Node5</title>
<g id="a_node5"><a xlink:title=" ">
<polygon fill="none" stroke="#bfbfbf" points="220,-129 220,-148 306,-148 306,-129 220,-129"/>
<text text-anchor="middle" x="263" y="-136" font-family="Helvetica,sans-Serif" font-size="10.00">unordered_set</text>
</a>
</g>
</g>
<!-- Node1&#45;&gt;Node5 -->
<g id="edge4" class="edge">
<title>Node1&#45;&gt;Node5</title>
<path fill="none" stroke="midnightblue" d="M1035.8,-199.7C915.91,-200.79 585.38,-199.1 315,-154 309.87,-153.14 304.53,-151.98 299.3,-150.68"/>
<polygon fill="midnightblue" stroke="midnightblue" points="300.04,-147.25 289.48,-148.06 298.23,-154.02 300.04,-147.25"/>
</g>
<!-- Node6 -->
<g id="node6" class="node">
<title>Node6</title>
<g id="a_node6"><a xlink:title=" ">
<polygon fill="none" stroke="#bfbfbf" points="324,-129 324,-148 458,-148 458,-129 324,-129"/>
<text text-anchor="middle" x="391" y="-136" font-family="Helvetica,sans-Serif" font-size="10.00">termcolor/termcolor.hpp</text>
</a>
</g>
</g>
<!-- Node1&#45;&gt;Node6 -->
<g id="edge5" class="edge">
<title>Node1&#45;&gt;Node6</title>
<path fill="none" stroke="midnightblue" d="M1035.91,-197.45C933.32,-193.59 678.49,-181.82 467,-154 458.58,-152.89 449.68,-151.45 441.05,-149.9"/>
<polygon fill="midnightblue" stroke="midnightblue" points="441.56,-146.43 431.09,-148.05 440.28,-153.32 441.56,-146.43"/>
</g>
<!-- Node7 -->
<g id="node7" class="node">
<title>Node7</title>
<g id="a_node7"><a xlink:title=" ">
<polygon fill="none" stroke="#bfbfbf" points="476.5,-129 476.5,-148 655.5,-148 655.5,-129 476.5,-129"/>
<text text-anchor="middle" x="566" y="-136" font-family="Helvetica,sans-Serif" font-size="10.00">clang/Frontend/FrontendActions.h</text>
</a>
</g>
</g>
<!-- Node1&#45;&gt;Node7 -->
<g id="edge6" class="edge">
<title>Node1&#45;&gt;Node7</title>
<path fill="none" stroke="midnightblue" d="M1035.85,-194.64C958.73,-187.21 798.85,-171.23 664,-154 653.29,-152.63 641.94,-151.06 630.9,-149.47"/>
<polygon fill="midnightblue" stroke="midnightblue" points="631.29,-145.99 620.89,-148.01 630.28,-152.92 631.29,-145.99"/>
</g>
<!-- Node8 -->
<g id="node8" class="node">
<title>Node8</title>
<g id="a_node8"><a xlink:title=" ">
<polygon fill="none" stroke="#bfbfbf" points="673.5,-123.5 673.5,-153.5 838.5,-153.5 838.5,-123.5 673.5,-123.5"/>
<text text-anchor="start" x="681.5" y="-141.5" font-family="Helvetica,sans-Serif" font-size="10.00">clang/Tooling/CommonOptions</text>
<text text-anchor="middle" x="756" y="-130.5" font-family="Helvetica,sans-Serif" font-size="10.00">Parser.h</text>
</a>
</g>
</g>
<!-- Node1&#45;&gt;Node8 -->
<g id="edge7" class="edge">
<title>Node1&#45;&gt;Node8</title>
<path fill="none" stroke="midnightblue" d="M1035.98,-190.6C986.02,-181.48 905.07,-166.71 843.04,-155.39"/>
<polygon fill="midnightblue" stroke="midnightblue" points="843.32,-151.88 832.86,-153.53 842.07,-158.77 843.32,-151.88"/>
</g>
<!-- Node9 -->
<g id="node9" class="node">
<title>Node9</title>
<g id="a_node9"><a xlink:title=" ">
<polygon fill="none" stroke="#bfbfbf" points="856.5,-129 856.5,-148 983.5,-148 983.5,-129 856.5,-129"/>
<text text-anchor="middle" x="920" y="-136" font-family="Helvetica,sans-Serif" font-size="10.00">clang/Tooling/Tooling.h</text>
</a>
</g>
</g>
<!-- Node1&#45;&gt;Node9 -->
<g id="edge8" class="edge">
<title>Node1&#45;&gt;Node9</title>
<path fill="none" stroke="midnightblue" d="M1058.79,-190.48C1031,-180.27 984.28,-163.11 952.81,-151.55"/>
<polygon fill="midnightblue" stroke="midnightblue" points="953.76,-148.17 943.17,-148.01 951.35,-154.74 953.76,-148.17"/>
</g>
<!-- Node10 -->
<g id="node10" class="node">
<title>Node10</title>
<g id="a_node10"><a xlink:title=" ">
<polygon fill="none" stroke="#bfbfbf" points="1001.5,-129 1001.5,-148 1162.5,-148 1162.5,-129 1001.5,-129"/>
<text text-anchor="middle" x="1082" y="-136" font-family="Helvetica,sans-Serif" font-size="10.00">llvm/Support/CommandLine.h</text>
</a>
</g>
</g>
<!-- Node1&#45;&gt;Node10 -->
<g id="edge9" class="edge">
<title>Node1&#45;&gt;Node10</title>
<path fill="none" stroke="midnightblue" d="M1082,-190.48C1082,-182.08 1082,-168.98 1082,-158.16"/>
<polygon fill="midnightblue" stroke="midnightblue" points="1085.5,-158.01 1082,-148.01 1078.5,-158.01 1085.5,-158.01"/>
</g>
<!-- Node11 -->
<g id="node11" class="node">
<title>Node11</title>
<g id="a_node11"><a xlink:title=" ">
<polygon fill="none" stroke="#bfbfbf" points="1180.5,-129 1180.5,-148 1317.5,-148 1317.5,-129 1180.5,-129"/>
<text text-anchor="middle" x="1249" y="-136" font-family="Helvetica,sans-Serif" font-size="10.00">clang/AST/ASTImporter.h</text>
</a>
</g>
</g>
<!-- Node1&#45;&gt;Node11 -->
<g id="edge10" class="edge">
<title>Node1&#45;&gt;Node11</title>
<path fill="none" stroke="midnightblue" d="M1105.93,-190.48C1134.7,-180.22 1183.16,-162.96 1215.6,-151.4"/>
<polygon fill="midnightblue" stroke="midnightblue" points="1216.87,-154.66 1225.12,-148.01 1214.52,-148.07 1216.87,-154.66"/>
</g>
<!-- Node12 -->
<g id="node12" class="node">
<title>Node12</title>
<g id="a_node12"><a xlink:title=" ">
<polygon fill="none" stroke="#bfbfbf" points="1486.5,-56.5 1486.5,-86.5 1647.5,-86.5 1647.5,-56.5 1486.5,-56.5"/>
<text text-anchor="start" x="1494.5" y="-74.5" font-family="Helvetica,sans-Serif" font-size="10.00">clang/ASTMatchers/ASTMatch</text>
<text text-anchor="middle" x="1567" y="-63.5" font-family="Helvetica,sans-Serif" font-size="10.00">Finder.h</text>
</a>
</g>
</g>
<!-- Node1&#45;&gt;Node12 -->
<g id="edge11" class="edge">
<title>Node1&#45;&gt;Node12</title>
<path fill="none" stroke="midnightblue" d="M1128.19,-197.72C1240.75,-194.18 1522.25,-182.53 1553,-154 1568.4,-139.72 1570.77,-115.14 1569.97,-96.71"/>
<polygon fill="midnightblue" stroke="midnightblue" points="1573.46,-96.39 1569.21,-86.68 1566.48,-96.92 1573.46,-96.39"/>
</g>
<!-- Node13 -->
<g id="node13" class="node">
<title>Node13</title>
<g id="a_node13"><a xlink:title=" ">
<polygon fill="none" stroke="#bfbfbf" points="1832.5,-129 1832.5,-148 2017.5,-148 2017.5,-129 1832.5,-129"/>
<text text-anchor="middle" x="1925" y="-136" font-family="Helvetica,sans-Serif" font-size="10.00">clang/ASTMatchers/ASTMatchers.h</text>
</a>
</g>
</g>
<!-- Node1&#45;&gt;Node13 -->
<g id="edge12" class="edge">
<title>Node1&#45;&gt;Node13</title>
<path fill="none" stroke="midnightblue" d="M1128.23,-197.38C1244.51,-193.05 1558.44,-179.74 1819,-154 1831.69,-152.75 1845.2,-151.12 1858.17,-149.42"/>
<polygon fill="midnightblue" stroke="midnightblue" points="1858.99,-152.84 1868.43,-148.04 1858.05,-145.9 1858.99,-152.84"/>
</g>
<!-- Node14 -->
<g id="node14" class="node">
<title>Node14</title>
<g id="a_node14"><a xlink:title=" ">
<polygon fill="none" stroke="#bfbfbf" points="2035.5,-123.5 2035.5,-153.5 2144.5,-153.5 2144.5,-123.5 2035.5,-123.5"/>
<text text-anchor="start" x="2043.5" y="-141.5" font-family="Helvetica,sans-Serif" font-size="10.00">clang/Rewrite/Core</text>
<text text-anchor="middle" x="2090" y="-130.5" font-family="Helvetica,sans-Serif" font-size="10.00">/Rewriter.h</text>
</a>
</g>
</g>
<!-- Node1&#45;&gt;Node14 -->
<g id="edge13" class="edge">
<title>Node1&#45;&gt;Node14</title>
<path fill="none" stroke="midnightblue" d="M1128.25,-197.89C1290.03,-193.85 1830.78,-178.89 2025.37,-154.02"/>
<polygon fill="midnightblue" stroke="midnightblue" points="2026.02,-157.46 2035.47,-152.68 2025.1,-150.53 2026.02,-157.46"/>
</g>
<!-- Node15 -->
<g id="node15" class="node">
<title>Node15</title>
<g id="a_node15"><a xlink:title=" ">
<polygon fill="none" stroke="#bfbfbf" points="2162.5,-123.5 2162.5,-153.5 2291.5,-153.5 2291.5,-123.5 2162.5,-123.5"/>
<text text-anchor="start" x="2170.5" y="-141.5" font-family="Helvetica,sans-Serif" font-size="10.00">clang/Rewrite/Frontend</text>
<text text-anchor="middle" x="2227" y="-130.5" font-family="Helvetica,sans-Serif" font-size="10.00">/Rewriters.h</text>
</a>
</g>
</g>
<!-- Node1&#45;&gt;Node15 -->
<g id="edge14" class="edge">
<title>Node1&#45;&gt;Node15</title>
<path fill="none" stroke="midnightblue" d="M1128.18,-199.6C1276.04,-200.97 1751.14,-201.22 2152.15,-154.1"/>
<polygon fill="midnightblue" stroke="midnightblue" points="2152.69,-157.56 2162.2,-152.91 2151.86,-150.61 2152.69,-157.56"/>
</g>
<!-- Node16 -->
<g id="node16" class="node">
<title>Node16</title>
<g id="a_node16"><a xlink:href="Injection_8hpp.html" target="_top" xlink:title=" ">
<polygon fill="none" stroke="black" points="1704,-62 1704,-81 1784,-81 1784,-62 1704,-62"/>
<text text-anchor="middle" x="1744" y="-69" font-family="Helvetica,sans-Serif" font-size="10.00">Injection.hpp</text>
</a>
</g>
</g>
<!-- Node1&#45;&gt;Node16 -->
<g id="edge15" class="edge">
<title>Node1&#45;&gt;Node16</title>
<path fill="none" stroke="midnightblue" d="M1128.12,-197.77C1281.11,-193.47 1763.45,-178.03 1786,-154 1804.3,-134.5 1780.49,-105.49 1761.96,-87.86"/>
<polygon fill="midnightblue" stroke="midnightblue" points="1764.24,-85.19 1754.48,-81.06 1759.53,-90.37 1764.24,-85.19"/>
</g>
<!-- Node21 -->
<g id="node21" class="node">
<title>Node21</title>
<g id="a_node21"><a xlink:href="GetNeededInstantiations_8hpp.html" target="_top" xlink:title=" ">
<polygon fill="none" stroke="black" points="1335.5,-129 1335.5,-148 1544.5,-148 1544.5,-129 1335.5,-129"/>
<text text-anchor="middle" x="1440" y="-136" font-family="Helvetica,sans-Serif" font-size="10.00">Callbacks/GetNeededInstantiations.hpp</text>
</a>
</g>
</g>
<!-- Node1&#45;&gt;Node21 -->
<g id="edge20" class="edge">
<title>Node1&#45;&gt;Node21</title>
<path fill="none" stroke="midnightblue" d="M1128.07,-191.34C1191.88,-180.74 1307.32,-161.55 1378.45,-149.73"/>
<polygon fill="midnightblue" stroke="midnightblue" points="1379.32,-153.13 1388.61,-148.04 1378.17,-146.23 1379.32,-153.13"/>
</g>
<!-- Node22 -->
<g id="node22" class="node">
<title>Node22</title>
<g id="a_node22"><a xlink:href="InjectInstantiation_8hpp.html" target="_top" xlink:title=" ">
<polygon fill="none" stroke="black" points="1601,-129 1601,-148 1777,-148 1777,-129 1601,-129"/>
<text text-anchor="middle" x="1689" y="-136" font-family="Helvetica,sans-Serif" font-size="10.00">Callbacks/InjectInstantiation.hpp</text>
</a>
</g>
</g>
<!-- Node1&#45;&gt;Node22 -->
<g id="edge24" class="edge">
<title>Node1&#45;&gt;Node22</title>
<path fill="none" stroke="midnightblue" d="M1128.04,-195.71C1216.91,-189.17 1418.24,-173.5 1587,-154 1598.66,-152.65 1611.05,-151.04 1623.02,-149.39"/>
<polygon fill="midnightblue" stroke="midnightblue" points="1623.53,-152.86 1632.95,-148.01 1622.56,-145.92 1623.53,-152.86"/>
</g>
<!-- Node17 -->
<g id="node17" class="node">
<title>Node17</title>
<g id="a_node17"><a xlink:title=" ">
<polygon fill="none" stroke="#bfbfbf" points="1670,-0.5 1670,-19.5 1714,-19.5 1714,-0.5 1670,-0.5"/>
<text text-anchor="middle" x="1692" y="-7.5" font-family="Helvetica,sans-Serif" font-size="10.00">string</text>
</a>
</g>
</g>
<!-- Node16&#45;&gt;Node17 -->
<g id="edge16" class="edge">
<title>Node16&#45;&gt;Node17</title>
<path fill="none" stroke="midnightblue" d="M1736.55,-61.98C1728.67,-52.96 1716.06,-38.52 1706.26,-27.31"/>
<polygon fill="midnightblue" stroke="midnightblue" points="1708.65,-24.74 1699.44,-19.51 1703.38,-29.34 1708.65,-24.74"/>
</g>
<!-- Node18 -->
<g id="node18" class="node">
<title>Node18</title>
<g id="a_node18"><a xlink:title=" ">
<polygon fill="none" stroke="#bfbfbf" points="1604.5,-0.5 1604.5,-19.5 1651.5,-19.5 1651.5,-0.5 1604.5,-0.5"/>
<text text-anchor="middle" x="1628" y="-7.5" font-family="Helvetica,sans-Serif" font-size="10.00">vector</text>
</a>
</g>
</g>
<!-- Node16&#45;&gt;Node18 -->
<g id="edge17" class="edge">
<title>Node16&#45;&gt;Node18</title>
<path fill="none" stroke="midnightblue" d="M1727.38,-61.98C1708.08,-52.08 1676.04,-35.64 1653.57,-24.12"/>
<polygon fill="midnightblue" stroke="midnightblue" points="1655.08,-20.96 1644.59,-19.51 1651.89,-27.19 1655.08,-20.96"/>
</g>
<!-- Node19 -->
<g id="node19" class="node">
<title>Node19</title>
<g id="a_node19"><a xlink:title=" ">
<polygon fill="none" stroke="#bfbfbf" points="1732,-0.5 1732,-19.5 1850,-19.5 1850,-0.5 1732,-0.5"/>
<text text-anchor="middle" x="1791" y="-7.5" font-family="Helvetica,sans-Serif" font-size="10.00">llvm/ADT/StringRef.h</text>
</a>
</g>
</g>
<!-- Node16&#45;&gt;Node19 -->
<g id="edge18" class="edge">
<title>Node16&#45;&gt;Node19</title>
<path fill="none" stroke="midnightblue" d="M1750.73,-61.98C1757.78,-53.05 1769.03,-38.81 1777.85,-27.64"/>
<polygon fill="midnightblue" stroke="midnightblue" points="1780.83,-29.53 1784.28,-19.51 1775.33,-25.19 1780.83,-29.53"/>
</g>
<!-- Node20 -->
<g id="node20" class="node">
<title>Node20</title>
<g id="a_node20"><a xlink:title=" ">
<polygon fill="none" stroke="#bfbfbf" points="1868.5,-0.5 1868.5,-19.5 1967.5,-19.5 1967.5,-0.5 1868.5,-0.5"/>
<text text-anchor="middle" x="1918" y="-7.5" font-family="Helvetica,sans-Serif" font-size="10.00">clang/AST/Type.h</text>
</a>
</g>
</g>
<!-- Node16&#45;&gt;Node20 -->
<g id="edge19" class="edge">
<title>Node16&#45;&gt;Node20</title>
<path fill="none" stroke="midnightblue" d="M1768.93,-61.98C1799.04,-51.68 1849.83,-34.31 1883.64,-22.75"/>
<polygon fill="midnightblue" stroke="midnightblue" points="1884.79,-26.06 1893.12,-19.51 1882.52,-19.43 1884.79,-26.06"/>
</g>
<!-- Node21&#45;&gt;Node12 -->
<g id="edge22" class="edge">
<title>Node21&#45;&gt;Node12</title>
<path fill="none" stroke="midnightblue" d="M1456.86,-128.87C1475.53,-119.31 1506.18,-103.63 1530.41,-91.22"/>
<polygon fill="midnightblue" stroke="midnightblue" points="1532.04,-94.32 1539.35,-86.65 1528.85,-88.09 1532.04,-94.32"/>
</g>
<!-- Node21&#45;&gt;Node16 -->
<g id="edge23" class="edge">
<title>Node21&#45;&gt;Node16</title>
<path fill="none" stroke="midnightblue" d="M1480.06,-128.94C1535.08,-117.17 1634.01,-96.02 1693.87,-83.22"/>
<polygon fill="midnightblue" stroke="midnightblue" points="1694.81,-86.6 1703.86,-81.08 1693.35,-79.75 1694.81,-86.6"/>
</g>
<!-- Node21&#45;&gt;Node18 -->
<g id="edge21" class="edge">
<title>Node21&#45;&gt;Node18</title>
<path fill="none" stroke="midnightblue" d="M1441.46,-128.96C1444.75,-112.4 1454.28,-75.81 1477,-56 1510.02,-27.21 1560.83,-16.83 1594.24,-13.09"/>
<polygon fill="midnightblue" stroke="midnightblue" points="1594.82,-16.55 1604.44,-12.1 1594.14,-9.58 1594.82,-16.55"/>
</g>
<!-- Node22&#45;&gt;Node12 -->
<g id="edge26" class="edge">
<title>Node22&#45;&gt;Node12</title>
<path fill="none" stroke="midnightblue" d="M1672.8,-128.87C1654.95,-119.36 1625.68,-103.77 1602.45,-91.39"/>
<polygon fill="midnightblue" stroke="midnightblue" points="1604.03,-88.26 1593.56,-86.65 1600.74,-94.44 1604.03,-88.26"/>
</g>
<!-- Node22&#45;&gt;Node16 -->
<g id="edge27" class="edge">
<title>Node22&#45;&gt;Node16</title>
<path fill="none" stroke="midnightblue" d="M1696.42,-128.73C1704.99,-118.6 1719.3,-101.69 1729.99,-89.06"/>
<polygon fill="midnightblue" stroke="midnightblue" points="1732.91,-91.02 1736.7,-81.13 1727.57,-86.5 1732.91,-91.02"/>
</g>
<!-- Node22&#45;&gt;Node18 -->
<g id="edge25" class="edge">
<title>Node22&#45;&gt;Node18</title>
<path fill="none" stroke="midnightblue" d="M1686.01,-128.72C1680.71,-113.54 1669.01,-81.58 1656,-56 1651.15,-46.47 1644.93,-36.31 1639.59,-28.07"/>
<polygon fill="midnightblue" stroke="midnightblue" points="1642.48,-26.1 1634.04,-19.7 1636.65,-29.97 1642.48,-26.1"/>
</g>
</g>
</svg>
