<?xml version="1.0" encoding="UTF-8" standalone="no"?>
<!DOCTYPE svg PUBLIC "-//W3C//DTD SVG 1.1//EN"
 "http://www.w3.org/Graphics/SVG/1.1/DTD/svg11.dtd">
<!-- Generated by graphviz version 2.43.0 (0)
 -->
<!-- Title: Instantiator.cpp Pages: 1 -->
<svg width="3372pt" height="274pt"
 viewBox="0.00 0.00 3372.00 274.00" xmlns="http://www.w3.org/2000/svg" xmlns:xlink="http://www.w3.org/1999/xlink">
<g id="graph0" class="graph" transform="scale(1 1) rotate(0) translate(4 270)">
<title>Instantiator.cpp</title>
<!-- Node1 -->
<g id="node1" class="node">
<title>Node1</title>
<g id="a_node1"><a xlink:title=" ">
<polygon fill="#bfbfbf" stroke="black" points="1446,-246.5 1446,-265.5 1538,-265.5 1538,-246.5 1446,-246.5"/>
<text text-anchor="middle" x="1492" y="-253.5" font-family="Helvetica,sans-Serif" font-size="10.00">Instantiator.cpp</text>
</a>
</g>
</g>
<!-- Node2 -->
<g id="node2" class="node">
<title>Node2</title>
<g id="a_node2"><a xlink:title=" ">
<polygon fill="none" stroke="#bfbfbf" points="0,-185 0,-204 68,-204 68,-185 0,-185"/>
<text text-anchor="middle" x="34" y="-192" font-family="Helvetica,sans-Serif" font-size="10.00">filesystem</text>
</a>
</g>
</g>
<!-- Node1&#45;&gt;Node2 -->
<g id="edge1" class="edge">
<title>Node1&#45;&gt;Node2</title>
<path fill="none" stroke="midnightblue" d="M1445.69,-255.35C1233,-256.66 348.66,-259.02 77,-210 73.1,-209.3 69.07,-208.31 65.12,-207.18"/>
<polygon fill="midnightblue" stroke="midnightblue" points="66.14,-203.83 55.55,-204.14 64.02,-210.5 66.14,-203.83"/>
</g>
<!-- Node3 -->
<g id="node3" class="node">
<title>Node3</title>
<g id="a_node3"><a xlink:title=" ">
<polygon fill="none" stroke="#bfbfbf" points="1437,-118 1437,-137 1497,-137 1497,-118 1437,-118"/>
<text text-anchor="middle" x="1467" y="-125" font-family="Helvetica,sans-Serif" font-size="10.00">iostream</text>
</a>
</g>
</g>
<!-- Node1&#45;&gt;Node3 -->
<g id="edge2" class="edge">
<title>Node1&#45;&gt;Node3</title>
<path fill="none" stroke="midnightblue" d="M1454.9,-246.46C1435.56,-239.92 1413.57,-228.72 1402,-210 1394.76,-198.28 1395.94,-191.38 1402,-179 1409.83,-163 1425.46,-150.6 1439.42,-142.1"/>
<polygon fill="midnightblue" stroke="midnightblue" points="1441.3,-145.06 1448.26,-137.07 1437.84,-138.97 1441.3,-145.06"/>
</g>
<!-- Node4 -->
<g id="node4" class="node">
<title>Node4</title>
<g id="a_node4"><a xlink:title=" ">
<polygon fill="none" stroke="#bfbfbf" points="224,-185 224,-204 274,-204 274,-185 224,-185"/>
<text text-anchor="middle" x="249" y="-192" font-family="Helvetica,sans-Serif" font-size="10.00">ranges</text>
</a>
</g>
</g>
<!-- Node1&#45;&gt;Node4 -->
<g id="edge3" class="edge">
<title>Node1&#45;&gt;Node4</title>
<path fill="none" stroke="midnightblue" d="M1445.78,-254.28C1238.27,-250.89 397.85,-235.7 283,-210 280.48,-209.44 277.91,-208.69 275.37,-207.84"/>
<polygon fill="midnightblue" stroke="midnightblue" points="276.48,-204.51 265.89,-204.14 273.94,-211.03 276.48,-204.51"/>
</g>
<!-- Node5 -->
<g id="node5" class="node">
<title>Node5</title>
<g id="a_node5"><a xlink:title=" ">
<polygon fill="none" stroke="#bfbfbf" points="292,-185 292,-204 348,-204 348,-185 292,-185"/>
<text text-anchor="middle" x="320" y="-192" font-family="Helvetica,sans-Serif" font-size="10.00">sstream</text>
</a>
</g>
</g>
<!-- Node1&#45;&gt;Node5 -->
<g id="edge4" class="edge">
<title>Node1&#45;&gt;Node5</title>
<path fill="none" stroke="midnightblue" d="M1445.8,-255.21C1260.4,-255.76 570.16,-254.67 357,-210 353.99,-209.37 350.91,-208.52 347.87,-207.54"/>
<polygon fill="midnightblue" stroke="midnightblue" points="349.04,-204.25 338.45,-204.13 346.66,-210.83 349.04,-204.25"/>
</g>
<!-- Node6 -->
<g id="node6" class="node">
<title>Node6</title>
<g id="a_node6"><a xlink:title=" ">
<polygon fill="none" stroke="#bfbfbf" points="366,-185 366,-204 452,-204 452,-185 366,-185"/>
<text text-anchor="middle" x="409" y="-192" font-family="Helvetica,sans-Serif" font-size="10.00">unordered_set</text>
</a>
</g>
</g>
<!-- Node1&#45;&gt;Node6 -->
<g id="edge5" class="edge">
<title>Node1&#45;&gt;Node6</title>
<path fill="none" stroke="midnightblue" d="M1445.76,-254.38C1271.52,-251.84 654.75,-240.83 461,-210 455.81,-209.17 450.4,-208.02 445.12,-206.71"/>
<polygon fill="midnightblue" stroke="midnightblue" points="445.76,-203.26 435.2,-204.06 443.95,-210.02 445.76,-203.26"/>
</g>
<!-- Node7 -->
<g id="node7" class="node">
<title>Node7</title>
<g id="a_node7"><a xlink:title=" ">
<polygon fill="none" stroke="#bfbfbf" points="470,-185 470,-204 604,-204 604,-185 470,-185"/>
<text text-anchor="middle" x="537" y="-192" font-family="Helvetica,sans-Serif" font-size="10.00">termcolor/termcolor.hpp</text>
</a>
</g>
</g>
<!-- Node1&#45;&gt;Node7 -->
<g id="edge6" class="edge">
<title>Node1&#45;&gt;Node7</title>
<path fill="none" stroke="midnightblue" d="M1445.59,-254.86C1314.37,-254 929.69,-248.13 613,-210 604.28,-208.95 595.06,-207.49 586.15,-205.9"/>
<polygon fill="midnightblue" stroke="midnightblue" points="586.76,-202.45 576.28,-204.06 585.47,-209.33 586.76,-202.45"/>
</g>
<!-- Node8 -->
<g id="node8" class="node">
<title>Node8</title>
<g id="a_node8"><a xlink:title=" ">
<polygon fill="none" stroke="#bfbfbf" points="622,-185 622,-204 780,-204 780,-185 622,-185"/>
<text text-anchor="middle" x="701" y="-192" font-family="Helvetica,sans-Serif" font-size="10.00">indicators/cursor_control.hpp</text>
</a>
</g>
</g>
<!-- Node1&#45;&gt;Node8 -->
<g id="edge7" class="edge">
<title>Node1&#45;&gt;Node8</title>
<path fill="none" stroke="midnightblue" d="M1445.8,-253.63C1333.18,-249.95 1035.67,-238.15 789,-210 778.74,-208.83 767.86,-207.28 757.37,-205.64"/>
<polygon fill="midnightblue" stroke="midnightblue" points="757.89,-202.18 747.46,-204.04 756.78,-209.09 757.89,-202.18"/>
</g>
<!-- Node9 -->
<g id="node9" class="node">
<title>Node9</title>
<g id="a_node9"><a xlink:title=" ">
<polygon fill="none" stroke="#bfbfbf" points="798.5,-179.5 798.5,-209.5 935.5,-209.5 935.5,-179.5 798.5,-179.5"/>
<text text-anchor="start" x="806.5" y="-197.5" font-family="Helvetica,sans-Serif" font-size="10.00">indicators/indeterminate</text>
<text text-anchor="middle" x="867" y="-186.5" font-family="Helvetica,sans-Serif" font-size="10.00">_progress_bar.hpp</text>
</a>
</g>
</g>
<!-- Node1&#45;&gt;Node9 -->
<g id="edge8" class="edge">
<title>Node1&#45;&gt;Node9</title>
<path fill="none" stroke="midnightblue" d="M1445.81,-252.57C1352.07,-247.34 1132.85,-233.51 950,-210 948.69,-209.83 947.38,-209.66 946.05,-209.48"/>
<polygon fill="midnightblue" stroke="midnightblue" points="946.17,-205.96 935.77,-208.01 945.17,-212.89 946.17,-205.96"/>
</g>
<!-- Node10 -->
<g id="node10" class="node">
<title>Node10</title>
<g id="a_node10"><a xlink:title=" ">
<polygon fill="none" stroke="#bfbfbf" points="1601,-112.5 1601,-142.5 1711,-142.5 1711,-112.5 1601,-112.5"/>
<text text-anchor="start" x="1609" y="-130.5" font-family="Helvetica,sans-Serif" font-size="10.00">indicators/progress</text>
<text text-anchor="middle" x="1656" y="-119.5" font-family="Helvetica,sans-Serif" font-size="10.00">_bar.hpp</text>
</a>
</g>
</g>
<!-- Node1&#45;&gt;Node10 -->
<g id="edge9" class="edge">
<title>Node1&#45;&gt;Node10</title>
<path fill="none" stroke="midnightblue" d="M1538.25,-253.28C1601.87,-249.83 1711.33,-239.63 1736,-210 1754.89,-187.31 1724.74,-163.45 1696.22,-147.45"/>
<polygon fill="midnightblue" stroke="midnightblue" points="1697.54,-144.19 1687.07,-142.54 1694.23,-150.36 1697.54,-144.19"/>
</g>
<!-- Node11 -->
<g id="node11" class="node">
<title>Node11</title>
<g id="a_node11"><a xlink:title=" ">
<polygon fill="none" stroke="#bfbfbf" points="992.5,-185 992.5,-204 1171.5,-204 1171.5,-185 992.5,-185"/>
<text text-anchor="middle" x="1082" y="-192" font-family="Helvetica,sans-Serif" font-size="10.00">clang/Frontend/FrontendActions.h</text>
</a>
</g>
</g>
<!-- Node1&#45;&gt;Node11 -->
<g id="edge10" class="edge">
<title>Node1&#45;&gt;Node11</title>
<path fill="none" stroke="midnightblue" d="M1445.74,-248.38C1384.82,-239.65 1274.36,-223.79 1180,-210 1170.11,-208.55 1159.66,-207.02 1149.41,-205.51"/>
<polygon fill="midnightblue" stroke="midnightblue" points="1149.66,-202.01 1139.26,-204.01 1148.64,-208.93 1149.66,-202.01"/>
</g>
<!-- Node12 -->
<g id="node12" class="node">
<title>Node12</title>
<g id="a_node12"><a xlink:title=" ">
<polygon fill="none" stroke="#bfbfbf" points="1189.5,-179.5 1189.5,-209.5 1354.5,-209.5 1354.5,-179.5 1189.5,-179.5"/>
<text text-anchor="start" x="1197.5" y="-197.5" font-family="Helvetica,sans-Serif" font-size="10.00">clang/Tooling/CommonOptions</text>
<text text-anchor="middle" x="1272" y="-186.5" font-family="Helvetica,sans-Serif" font-size="10.00">Parser.h</text>
</a>
</g>
</g>
<!-- Node1&#45;&gt;Node12 -->
<g id="edge11" class="edge">
<title>Node1&#45;&gt;Node12</title>
<path fill="none" stroke="midnightblue" d="M1460.48,-246.48C1427.48,-237.55 1374.82,-223.31 1333.54,-212.14"/>
<polygon fill="midnightblue" stroke="midnightblue" points="1334.42,-208.76 1323.85,-209.52 1332.59,-215.51 1334.42,-208.76"/>
</g>
<!-- Node13 -->
<g id="node13" class="node">
<title>Node13</title>
<g id="a_node13"><a xlink:title=" ">
<polygon fill="none" stroke="#bfbfbf" points="1729.5,-118 1729.5,-137 1856.5,-137 1856.5,-118 1729.5,-118"/>
<text text-anchor="middle" x="1793" y="-125" font-family="Helvetica,sans-Serif" font-size="10.00">clang/Tooling/Tooling.h</text>
</a>
</g>
</g>
<!-- Node1&#45;&gt;Node13 -->
<g id="edge12" class="edge">
<title>Node1&#45;&gt;Node13</title>
<path fill="none" stroke="midnightblue" d="M1538.05,-252.06C1603.65,-247.04 1719.78,-234.87 1753,-210 1773.57,-194.6 1784.16,-165.77 1789.14,-146.85"/>
<polygon fill="midnightblue" stroke="midnightblue" points="1792.57,-147.58 1791.46,-137.04 1785.76,-145.97 1792.57,-147.58"/>
</g>
<!-- Node14 -->
<g id="node14" class="node">
<title>Node14</title>
<g id="a_node14"><a xlink:title=" ">
<polygon fill="none" stroke="#bfbfbf" points="1411.5,-185 1411.5,-204 1572.5,-204 1572.5,-185 1411.5,-185"/>
<text text-anchor="middle" x="1492" y="-192" font-family="Helvetica,sans-Serif" font-size="10.00">llvm/Support/CommandLine.h</text>
</a>
</g>
</g>
<!-- Node1&#45;&gt;Node14 -->
<g id="edge13" class="edge">
<title>Node1&#45;&gt;Node14</title>
<path fill="none" stroke="midnightblue" d="M1492,-246.48C1492,-238.08 1492,-224.98 1492,-214.16"/>
<polygon fill="midnightblue" stroke="midnightblue" points="1495.5,-214.01 1492,-204.01 1488.5,-214.01 1495.5,-214.01"/>
</g>
<!-- Node15 -->
<g id="node15" class="node">
<title>Node15</title>
<g id="a_node15"><a xlink:title=" ">
<polygon fill="none" stroke="#bfbfbf" points="1590.5,-185 1590.5,-204 1727.5,-204 1727.5,-185 1590.5,-185"/>
<text text-anchor="middle" x="1659" y="-192" font-family="Helvetica,sans-Serif" font-size="10.00">clang/AST/ASTImporter.h</text>
</a>
</g>
</g>
<!-- Node1&#45;&gt;Node15 -->
<g id="edge14" class="edge">
<title>Node1&#45;&gt;Node15</title>
<path fill="none" stroke="midnightblue" d="M1515.93,-246.48C1544.7,-236.22 1593.16,-218.96 1625.6,-207.4"/>
<polygon fill="midnightblue" stroke="midnightblue" points="1626.87,-210.66 1635.12,-204.01 1624.52,-204.07 1626.87,-210.66"/>
</g>
<!-- Node16 -->
<g id="node16" class="node">
<title>Node16</title>
<g id="a_node16"><a xlink:title=" ">
<polygon fill="none" stroke="#bfbfbf" points="2731.5,-112.5 2731.5,-142.5 2892.5,-142.5 2892.5,-112.5 2731.5,-112.5"/>
<text text-anchor="start" x="2739.5" y="-130.5" font-family="Helvetica,sans-Serif" font-size="10.00">clang/ASTMatchers/ASTMatch</text>
<text text-anchor="middle" x="2812" y="-119.5" font-family="Helvetica,sans-Serif" font-size="10.00">Finder.h</text>
</a>
</g>
</g>
<!-- Node1&#45;&gt;Node16 -->
<g id="edge15" class="edge">
<title>Node1&#45;&gt;Node16</title>
<path fill="none" stroke="midnightblue" d="M1538.05,-254.7C1735.48,-253.23 2504.97,-245.23 2607,-210 2629.27,-202.31 2628.93,-189.53 2650,-179 2678.65,-164.68 2712.18,-153.42 2741.28,-145.2"/>
<polygon fill="midnightblue" stroke="midnightblue" points="2742.26,-148.56 2750.96,-142.53 2740.39,-141.81 2742.26,-148.56"/>
</g>
<!-- Node17 -->
<g id="node17" class="node">
<title>Node17</title>
<g id="a_node17"><a xlink:title=" ">
<polygon fill="none" stroke="#bfbfbf" points="462.5,-118 462.5,-137 647.5,-137 647.5,-118 462.5,-118"/>
<text text-anchor="middle" x="555" y="-125" font-family="Helvetica,sans-Serif" font-size="10.00">clang/ASTMatchers/ASTMatchers.h</text>
</a>
</g>
</g>
<!-- Node1&#45;&gt;Node17 -->
<g id="edge16" class="edge">
<title>Node1&#45;&gt;Node17</title>
<path fill="none" stroke="midnightblue" d="M1445.93,-254.3C1337.02,-252.1 1066.52,-243.35 983,-210 962.44,-201.79 964.39,-187.63 944,-179 894.03,-157.85 755.53,-143.46 658.09,-135.61"/>
<polygon fill="midnightblue" stroke="midnightblue" points="658.15,-132.11 647.9,-134.81 657.59,-139.09 658.15,-132.11"/>
</g>
<!-- Node18 -->
<g id="node18" class="node">
<title>Node18</title>
<g id="a_node18"><a xlink:title=" ">
<polygon fill="none" stroke="#bfbfbf" points="1822.5,-179.5 1822.5,-209.5 1931.5,-209.5 1931.5,-179.5 1822.5,-179.5"/>
<text text-anchor="start" x="1830.5" y="-197.5" font-family="Helvetica,sans-Serif" font-size="10.00">clang/Rewrite/Core</text>
<text text-anchor="middle" x="1877" y="-186.5" font-family="Helvetica,sans-Serif" font-size="10.00">/Rewriter.h</text>
</a>
</g>
</g>
<!-- Node1&#45;&gt;Node18 -->
<g id="edge17" class="edge">
<title>Node1&#45;&gt;Node18</title>
<path fill="none" stroke="midnightblue" d="M1538.2,-249.39C1599.9,-241.67 1712.49,-226.82 1808,-210 1809.47,-209.74 1810.95,-209.47 1812.45,-209.2"/>
<polygon fill="midnightblue" stroke="midnightblue" points="1813.28,-212.61 1822.45,-207.31 1811.97,-205.73 1813.28,-212.61"/>
</g>
<!-- Node19 -->
<g id="node19" class="node">
<title>Node19</title>
<g id="a_node19"><a xlink:title=" ">
<polygon fill="none" stroke="#bfbfbf" points="1949.5,-179.5 1949.5,-209.5 2078.5,-209.5 2078.5,-179.5 1949.5,-179.5"/>
<text text-anchor="start" x="1957.5" y="-197.5" font-family="Helvetica,sans-Serif" font-size="10.00">clang/Rewrite/Frontend</text>
<text text-anchor="middle" x="2014" y="-186.5" font-family="Helvetica,sans-Serif" font-size="10.00">/Rewriters.h</text>
</a>
</g>
</g>
<!-- Node1&#45;&gt;Node19 -->
<g id="edge18" class="edge">
<title>Node1&#45;&gt;Node19</title>
<path fill="none" stroke="midnightblue" d="M1538.07,-251.85C1617.86,-246.08 1787.08,-232.43 1939.18,-210.19"/>
<polygon fill="midnightblue" stroke="midnightblue" points="1939.8,-213.64 1949.18,-208.71 1938.77,-206.71 1939.8,-213.64"/>
</g>
<!-- Node20 -->
<g id="node20" class="node">
<title>Node20</title>
<g id="a_node20"><a xlink:href="ASTCreation_8hpp.html" target="_top" xlink:title=" ">
<polygon fill="none" stroke="black" points="2096.5,-185 2096.5,-204 2193.5,-204 2193.5,-185 2096.5,-185"/>
<text text-anchor="middle" x="2145" y="-192" font-family="Helvetica,sans-Serif" font-size="10.00">ASTCreation.hpp</text>
</a>
</g>
</g>
<!-- Node1&#45;&gt;Node20 -->
<g id="edge19" class="edge">
<title>Node1&#45;&gt;Node20</title>
<path fill="none" stroke="midnightblue" d="M1538.31,-254.24C1638.97,-251.98 1884.98,-243.23 2088,-210 2093.81,-209.05 2099.89,-207.79 2105.83,-206.41"/>
<polygon fill="midnightblue" stroke="midnightblue" points="2106.74,-209.79 2115.62,-204.01 2105.08,-202.99 2106.74,-209.79"/>
</g>
<!-- Node21 -->
<g id="node21" class="node">
<title>Node21</title>
<g id="a_node21"><a xlink:href="AllASTBuilderAction_8hpp.html" target="_top" xlink:title=" ">
<polygon fill="none" stroke="black" points="2211.5,-185 2211.5,-204 2384.5,-204 2384.5,-185 2211.5,-185"/>
<text text-anchor="middle" x="2298" y="-192" font-family="Helvetica,sans-Serif" font-size="10.00">Actions/AllASTBuilderAction.hpp</text>
</a>
</g>
</g>
<!-- Node1&#45;&gt;Node21 -->
<g id="edge21" class="edge">
<title>Node1&#45;&gt;Node21</title>
<path fill="none" stroke="midnightblue" d="M1538.29,-253.49C1651.82,-249.46 1953.06,-236.93 2203,-210 2214.29,-208.78 2226.29,-207.19 2237.83,-205.5"/>
<polygon fill="midnightblue" stroke="midnightblue" points="2238.45,-208.95 2247.82,-204.01 2237.41,-202.03 2238.45,-208.95"/>
</g>
<!-- Node28 -->
<g id="node28" class="node">
<title>Node28</title>
<g id="a_node28"><a xlink:href="DeleteInstantiations_8hpp.html" target="_top" xlink:title=" ">
<polygon fill="none" stroke="black" points="2410.5,-185 2410.5,-204 2597.5,-204 2597.5,-185 2410.5,-185"/>
<text text-anchor="middle" x="2504" y="-192" font-family="Helvetica,sans-Serif" font-size="10.00">Callbacks/DeleteInstantiations.hpp</text>
</a>
</g>
</g>
<!-- Node1&#45;&gt;Node28 -->
<g id="edge31" class="edge">
<title>Node1&#45;&gt;Node28</title>
<path fill="none" stroke="midnightblue" d="M1538.09,-254.02C1671.08,-250.92 2066.86,-239.67 2394,-210 2407.66,-208.76 2422.23,-207.09 2436.16,-205.32"/>
<polygon fill="midnightblue" stroke="midnightblue" points="2436.69,-208.78 2446.15,-204.02 2435.79,-201.84 2436.69,-208.78"/>
</g>
<!-- Node29 -->
<g id="node29" class="node">
<title>Node29</title>
<g id="a_node29"><a xlink:href="GetNeededInstantiations_8hpp.html" target="_top" xlink:title=" ">
<polygon fill="none" stroke="black" points="2853.5,-185 2853.5,-204 3062.5,-204 3062.5,-185 2853.5,-185"/>
<text text-anchor="middle" x="2958" y="-192" font-family="Helvetica,sans-Serif" font-size="10.00">Callbacks/GetNeededInstantiations.hpp</text>
</a>
</g>
</g>
<!-- Node1&#45;&gt;Node29 -->
<g id="edge33" class="edge">
<title>Node1&#45;&gt;Node29</title>
<path fill="none" stroke="midnightblue" d="M1538.2,-255.02C1710.65,-254.77 2333.07,-250.91 2844,-210 2858.7,-208.82 2874.42,-207.12 2889.35,-205.28"/>
<polygon fill="midnightblue" stroke="midnightblue" points="2890.04,-208.72 2899.53,-204 2889.17,-201.78 2890.04,-208.72"/>
</g>
<!-- Node30 -->
<g id="node30" class="node">
<title>Node30</title>
<g id="a_node30"><a xlink:href="Injection_8hpp.html" target="_top" xlink:title=" ">
<polygon fill="none" stroke="black" points="2990,-118 2990,-137 3070,-137 3070,-118 2990,-118"/>
<text text-anchor="middle" x="3030" y="-125" font-family="Helvetica,sans-Serif" font-size="10.00">Injection.hpp</text>
</a>
</g>
</g>
<!-- Node1&#45;&gt;Node30 -->
<g id="edge53" class="edge">
<title>Node1&#45;&gt;Node30</title>
<path fill="none" stroke="midnightblue" d="M1538.4,-254.56C1796.5,-252.01 3044.57,-238.23 3072,-210 3090.64,-190.82 3066.73,-161.72 3048.08,-143.97"/>
<polygon fill="midnightblue" stroke="midnightblue" points="3050.31,-141.27 3040.56,-137.13 3045.6,-146.44 3050.31,-141.27"/>
</g>
<!-- Node41 -->
<g id="node41" class="node">
<title>Node41</title>
<g id="a_node41"><a xlink:href="InjectInstantiation_8hpp.html" target="_top" xlink:title=" ">
<polygon fill="none" stroke="black" points="2659,-185 2659,-204 2835,-204 2835,-185 2659,-185"/>
<text text-anchor="middle" x="2747" y="-192" font-family="Helvetica,sans-Serif" font-size="10.00">Callbacks/InjectInstantiation.hpp</text>
</a>
</g>
</g>
<!-- Node1&#45;&gt;Node41 -->
<g id="edge49" class="edge">
<title>Node1&#45;&gt;Node41</title>
<path fill="none" stroke="midnightblue" d="M1538.16,-254.84C1693.98,-253.95 2214.74,-248.13 2643,-210 2656.1,-208.83 2670.07,-207.17 2683.38,-205.39"/>
<polygon fill="midnightblue" stroke="midnightblue" points="2683.98,-208.84 2693.41,-204.01 2683.02,-201.91 2683.98,-208.84"/>
</g>
<!-- Node42 -->
<g id="node42" class="node">
<title>Node42</title>
<g id="a_node42"><a xlink:href="Matcher_8hpp.html" target="_top" xlink:title="AST matcher expressions to filter the relevant nodes for template instantiations.">
<polygon fill="none" stroke="black" points="86.5,-185 86.5,-204 205.5,-204 205.5,-185 86.5,-185"/>
<text text-anchor="middle" x="146" y="-192" font-family="Helvetica,sans-Serif" font-size="10.00">Matcher/Matcher.hpp</text>
</a>
</g>
</g>
<!-- Node1&#45;&gt;Node42 -->
<g id="edge54" class="edge">
<title>Node1&#45;&gt;Node42</title>
<path fill="none" stroke="midnightblue" d="M1445.72,-254.44C1246.41,-251.84 460.4,-239.88 215,-210 207.14,-209.04 198.85,-207.64 190.84,-206.09"/>
<polygon fill="midnightblue" stroke="midnightblue" points="191.41,-202.63 180.91,-204.05 190,-209.49 191.41,-202.63"/>
</g>
<!-- Node20&#45;&gt;Node13 -->
<g id="edge20" class="edge">
<title>Node20&#45;&gt;Node13</title>
<path fill="none" stroke="midnightblue" d="M2113.46,-184.95C2105.21,-182.86 2096.3,-180.72 2088,-179 1990.14,-158.66 1964.37,-160.74 1866,-143 1859.17,-141.77 1851.98,-140.41 1844.9,-139.04"/>
<polygon fill="midnightblue" stroke="midnightblue" points="1845.13,-135.52 1834.64,-137.04 1843.79,-142.39 1845.13,-135.52"/>
</g>
<!-- Node21&#45;&gt;Node3 -->
<g id="edge22" class="edge">
<title>Node21&#45;&gt;Node3</title>
<path fill="none" stroke="midnightblue" d="M2247.82,-184.95C2233.39,-182.74 2217.6,-180.54 2203,-179 1932.48,-150.45 1862.99,-166.68 1592,-143 1563.53,-140.51 1531.52,-136.78 1507.02,-133.73"/>
<polygon fill="midnightblue" stroke="midnightblue" points="1507.37,-130.24 1497.01,-132.46 1506.49,-137.19 1507.37,-130.24"/>
</g>
<!-- Node21&#45;&gt;Node10 -->
<g id="edge25" class="edge">
<title>Node21&#45;&gt;Node10</title>
<path fill="none" stroke="midnightblue" d="M2246.82,-184.95C2232.66,-182.78 2217.26,-180.62 2203,-179 1992.35,-155.11 1934.63,-174.27 1721.02,-143"/>
<polygon fill="midnightblue" stroke="midnightblue" points="1721.47,-139.53 1711.06,-141.52 1720.44,-146.45 1721.47,-139.53"/>
</g>
<!-- Node21&#45;&gt;Node13 -->
<g id="edge30" class="edge">
<title>Node21&#45;&gt;Node13</title>
<path fill="none" stroke="midnightblue" d="M2244.8,-184.95C2231.19,-182.88 2216.57,-180.76 2203,-179 2053.62,-159.63 2014.91,-165.7 1866,-143 1858.45,-141.85 1850.5,-140.46 1842.73,-139"/>
<polygon fill="midnightblue" stroke="midnightblue" points="1843.15,-135.51 1832.67,-137.05 1841.82,-142.39 1843.15,-135.51"/>
</g>
<!-- Node22 -->
<g id="node22" class="node">
<title>Node22</title>
<g id="a_node22"><a xlink:title=" ">
<polygon fill="none" stroke="#bfbfbf" points="1875,-118 1875,-137 1933,-137 1933,-118 1875,-118"/>
<text text-anchor="middle" x="1904" y="-125" font-family="Helvetica,sans-Serif" font-size="10.00">memory</text>
</a>
</g>
</g>
<!-- Node21&#45;&gt;Node22 -->
<g id="edge23" class="edge">
<title>Node21&#45;&gt;Node22</title>
<path fill="none" stroke="midnightblue" d="M2243.01,-184.97C2229.91,-182.97 2215.96,-180.88 2203,-179 2087.12,-162.17 2055.43,-172.06 1942,-143 1939.18,-142.28 1936.28,-141.41 1933.4,-140.47"/>
<polygon fill="midnightblue" stroke="midnightblue" points="1934.43,-137.12 1923.84,-137.05 1932.08,-143.71 1934.43,-137.12"/>
</g>
<!-- Node23 -->
<g id="node23" class="node">
<title>Node23</title>
<g id="a_node23"><a xlink:title=" ">
<polygon fill="none" stroke="#bfbfbf" points="2728.5,-56.5 2728.5,-75.5 2775.5,-75.5 2775.5,-56.5 2728.5,-56.5"/>
<text text-anchor="middle" x="2752" y="-63.5" font-family="Helvetica,sans-Serif" font-size="10.00">vector</text>
</a>
</g>
</g>
<!-- Node21&#45;&gt;Node23 -->
<g id="edge24" class="edge">
<title>Node21&#45;&gt;Node23</title>
<path fill="none" stroke="midnightblue" d="M2358.2,-184.98C2372.55,-182.99 2387.81,-180.89 2402,-179 2527.68,-162.25 2572.97,-202.38 2685,-143 2710.18,-129.66 2730.32,-102.77 2741.72,-84.82"/>
<polygon fill="midnightblue" stroke="midnightblue" points="2744.93,-86.27 2747.13,-75.91 2738.94,-82.64 2744.93,-86.27"/>
</g>
<!-- Node24 -->
<g id="node24" class="node">
<title>Node24</title>
<g id="a_node24"><a xlink:title=" ">
<polygon fill="none" stroke="#bfbfbf" points="1951,-118 1951,-137 2091,-137 2091,-118 1951,-118"/>
<text text-anchor="middle" x="2021" y="-125" font-family="Helvetica,sans-Serif" font-size="10.00">clang/Frontend/ASTUnit.h</text>
</a>
</g>
</g>
<!-- Node21&#45;&gt;Node24 -->
<g id="edge26" class="edge">
<title>Node21&#45;&gt;Node24</title>
<path fill="none" stroke="midnightblue" d="M2261.5,-184.94C2211.58,-173.22 2121.97,-152.19 2067.35,-139.38"/>
<polygon fill="midnightblue" stroke="midnightblue" points="2068.11,-135.96 2057.58,-137.08 2066.51,-142.78 2068.11,-135.96"/>
</g>
<!-- Node25 -->
<g id="node25" class="node">
<title>Node25</title>
<g id="a_node25"><a xlink:title=" ">
<polygon fill="none" stroke="#bfbfbf" points="2109,-118 2109,-137 2295,-137 2295,-118 2109,-118"/>
<text text-anchor="middle" x="2202" y="-125" font-family="Helvetica,sans-Serif" font-size="10.00">clang/Frontend/CompilerInstance.h</text>
</a>
</g>
</g>
<!-- Node21&#45;&gt;Node25 -->
<g id="edge27" class="edge">
<title>Node21&#45;&gt;Node25</title>
<path fill="none" stroke="midnightblue" d="M2285.05,-184.73C2269.15,-173.96 2241.95,-155.55 2223.03,-142.74"/>
<polygon fill="midnightblue" stroke="midnightblue" points="2224.98,-139.84 2214.74,-137.13 2221.06,-145.63 2224.98,-139.84"/>
</g>
<!-- Node26 -->
<g id="node26" class="node">
<title>Node26</title>
<g id="a_node26"><a xlink:title=" ">
<polygon fill="none" stroke="#bfbfbf" points="2313,-118 2313,-137 2509,-137 2509,-118 2313,-118"/>
<text text-anchor="middle" x="2411" y="-125" font-family="Helvetica,sans-Serif" font-size="10.00">clang/Frontend/CompilerInvocation.h</text>
</a>
</g>
</g>
<!-- Node21&#45;&gt;Node26 -->
<g id="edge28" class="edge">
<title>Node21&#45;&gt;Node26</title>
<path fill="none" stroke="midnightblue" d="M2313.24,-184.73C2332.22,-173.82 2364.85,-155.05 2387.15,-142.22"/>
<polygon fill="midnightblue" stroke="midnightblue" points="2389.08,-145.15 2396,-137.13 2385.59,-139.08 2389.08,-145.15"/>
</g>
<!-- Node27 -->
<g id="node27" class="node">
<title>Node27</title>
<g id="a_node27"><a xlink:title=" ">
<polygon fill="none" stroke="#bfbfbf" points="2526.5,-112.5 2526.5,-142.5 2675.5,-142.5 2675.5,-112.5 2526.5,-112.5"/>
<text text-anchor="start" x="2534.5" y="-130.5" font-family="Helvetica,sans-Serif" font-size="10.00">clang/Serialization</text>
<text text-anchor="middle" x="2601" y="-119.5" font-family="Helvetica,sans-Serif" font-size="10.00">/PCHContainerOperations.h</text>
</a>
</g>
</g>
<!-- Node21&#45;&gt;Node27 -->
<g id="edge29" class="edge">
<title>Node21&#45;&gt;Node27</title>
<path fill="none" stroke="midnightblue" d="M2337.92,-184.94C2385.47,-174.74 2465.92,-157.48 2525.37,-144.72"/>
<polygon fill="midnightblue" stroke="midnightblue" points="2526.42,-148.08 2535.46,-142.56 2524.95,-141.23 2526.42,-148.08"/>
</g>
<!-- Node28&#45;&gt;Node16 -->
<g id="edge32" class="edge">
<title>Node28&#45;&gt;Node16</title>
<path fill="none" stroke="midnightblue" d="M2544.58,-184.94C2593.01,-174.71 2675.03,-157.41 2735.49,-144.65"/>
<polygon fill="midnightblue" stroke="midnightblue" points="2736.32,-148.05 2745.38,-142.56 2734.87,-141.2 2736.32,-148.05"/>
</g>
<!-- Node29&#45;&gt;Node16 -->
<g id="edge35" class="edge">
<title>Node29&#45;&gt;Node16</title>
<path fill="none" stroke="midnightblue" d="M2938.61,-184.87C2916.8,-175.16 2880.75,-159.11 2852.69,-146.61"/>
<polygon fill="midnightblue" stroke="midnightblue" points="2854.07,-143.4 2843.51,-142.53 2851.22,-149.79 2854.07,-143.4"/>
</g>
<!-- Node29&#45;&gt;Node23 -->
<g id="edge34" class="edge">
<title>Node29&#45;&gt;Node23</title>
<path fill="none" stroke="midnightblue" d="M2956.36,-184.9C2952.73,-168.23 2942.4,-131.45 2919,-112 2873.89,-74.51 2847.22,-90.35 2785.57,-75.96"/>
<polygon fill="midnightblue" stroke="midnightblue" points="2786.34,-72.55 2775.79,-73.5 2784.63,-79.34 2786.34,-72.55"/>
</g>
<!-- Node29&#45;&gt;Node30 -->
<g id="edge36" class="edge">
<title>Node29&#45;&gt;Node30</title>
<path fill="none" stroke="midnightblue" d="M2967.71,-184.73C2979.26,-174.31 2998.75,-156.71 3012.86,-143.97"/>
<polygon fill="midnightblue" stroke="midnightblue" points="3015.37,-146.43 3020.44,-137.13 3010.68,-141.23 3015.37,-146.43"/>
</g>
<!-- Node30&#45;&gt;Node23 -->
<g id="edge39" class="edge">
<title>Node30&#45;&gt;Node23</title>
<path fill="none" stroke="midnightblue" d="M2997.83,-117.96C2989.74,-115.91 2981.07,-113.8 2973,-112 2893.04,-94.19 2869.6,-95.11 2785.71,-76.01"/>
<polygon fill="midnightblue" stroke="midnightblue" points="2786.27,-72.54 2775.74,-73.71 2784.7,-79.37 2786.27,-72.54"/>
</g>
<!-- Node31 -->
<g id="node31" class="node">
<title>Node31</title>
<g id="a_node31"><a xlink:title=" ">
<polygon fill="none" stroke="#bfbfbf" points="3134,-56.5 3134,-75.5 3190,-75.5 3190,-56.5 3134,-56.5"/>
<text text-anchor="middle" x="3162" y="-63.5" font-family="Helvetica,sans-Serif" font-size="10.00">optional</text>
</a>
</g>
</g>
<!-- Node30&#45;&gt;Node31 -->
<g id="edge37" class="edge">
<title>Node30&#45;&gt;Node31</title>
<path fill="none" stroke="midnightblue" d="M3048.91,-117.98C3071.16,-107.95 3108.31,-91.2 3133.93,-79.65"/>
<polygon fill="midnightblue" stroke="midnightblue" points="3135.44,-82.81 3143.12,-75.51 3132.57,-76.43 3135.44,-82.81"/>
</g>
<!-- Node32 -->
<g id="node32" class="node">
<title>Node32</title>
<g id="a_node32"><a xlink:title=" ">
<polygon fill="none" stroke="#bfbfbf" points="3221,-0.5 3221,-19.5 3265,-19.5 3265,-0.5 3221,-0.5"/>
<text text-anchor="middle" x="3243" y="-7.5" font-family="Helvetica,sans-Serif" font-size="10.00">string</text>
</a>
</g>
</g>
<!-- Node30&#45;&gt;Node32 -->
<g id="edge38" class="edge">
<title>Node30&#45;&gt;Node32</title>
<path fill="none" stroke="midnightblue" d="M3070.29,-122.23C3106.85,-116.67 3160.73,-104.08 3199,-76 3215.6,-63.82 3227.94,-43.37 3235.26,-28.65"/>
<polygon fill="midnightblue" stroke="midnightblue" points="3238.44,-30.1 3239.51,-19.56 3232.1,-27.13 3238.44,-30.1"/>
</g>
<!-- Node33 -->
<g id="node33" class="node">
<title>Node33</title>
<g id="a_node33"><a xlink:title=" ">
<polygon fill="none" stroke="#bfbfbf" points="3246,-56.5 3246,-75.5 3364,-75.5 3364,-56.5 3246,-56.5"/>
<text text-anchor="middle" x="3305" y="-63.5" font-family="Helvetica,sans-Serif" font-size="10.00">llvm/ADT/StringRef.h</text>
</a>
</g>
</g>
<!-- Node30&#45;&gt;Node33 -->
<g id="edge40" class="edge">
<title>Node30&#45;&gt;Node33</title>
<path fill="none" stroke="midnightblue" d="M3069.4,-117.98C3118.51,-107.35 3202.47,-89.18 3255.77,-77.65"/>
<polygon fill="midnightblue" stroke="midnightblue" points="3256.64,-81.04 3265.67,-75.51 3255.16,-74.2 3256.64,-81.04"/>
</g>
<!-- Node34 -->
<g id="node34" class="node">
<title>Node34</title>
<g id="a_node34"><a xlink:title=" ">
<polygon fill="none" stroke="#bfbfbf" points="2793.5,-56.5 2793.5,-75.5 2912.5,-75.5 2912.5,-56.5 2793.5,-56.5"/>
<text text-anchor="middle" x="2853" y="-63.5" font-family="Helvetica,sans-Serif" font-size="10.00">clang/AST/DeclCXX.h</text>
</a>
</g>
</g>
<!-- Node30&#45;&gt;Node34 -->
<g id="edge41" class="edge">
<title>Node30&#45;&gt;Node34</title>
<path fill="none" stroke="midnightblue" d="M3004.64,-117.98C2974.02,-107.68 2922.34,-90.31 2887.95,-78.75"/>
<polygon fill="midnightblue" stroke="midnightblue" points="2888.91,-75.38 2878.31,-75.51 2886.68,-82.01 2888.91,-75.38"/>
</g>
<!-- Node35 -->
<g id="node35" class="node">
<title>Node35</title>
<g id="a_node35"><a xlink:title=" ">
<polygon fill="none" stroke="#bfbfbf" points="2930.5,-56.5 2930.5,-75.5 3029.5,-75.5 3029.5,-56.5 2930.5,-56.5"/>
<text text-anchor="middle" x="2980" y="-63.5" font-family="Helvetica,sans-Serif" font-size="10.00">clang/AST/Type.h</text>
</a>
</g>
</g>
<!-- Node30&#45;&gt;Node35 -->
<g id="edge42" class="edge">
<title>Node30&#45;&gt;Node35</title>
<path fill="none" stroke="midnightblue" d="M3022.84,-117.98C3015.26,-108.96 3003.13,-94.52 2993.71,-83.31"/>
<polygon fill="midnightblue" stroke="midnightblue" points="2996.26,-80.91 2987.15,-75.51 2990.9,-85.42 2996.26,-80.91"/>
</g>
<!-- Node36 -->
<g id="node36" class="node">
<title>Node36</title>
<g id="a_node36"><a xlink:href="Param_8hpp.html" target="_top" xlink:title=" ">
<polygon fill="none" stroke="black" points="3048,-56.5 3048,-75.5 3116,-75.5 3116,-56.5 3048,-56.5"/>
<text text-anchor="middle" x="3082" y="-63.5" font-family="Helvetica,sans-Serif" font-size="10.00">Param.hpp</text>
</a>
</g>
</g>
<!-- Node30&#45;&gt;Node36 -->
<g id="edge43" class="edge">
<title>Node30&#45;&gt;Node36</title>
<path fill="none" stroke="midnightblue" d="M3037.45,-117.98C3045.33,-108.96 3057.94,-94.52 3067.74,-83.31"/>
<polygon fill="midnightblue" stroke="midnightblue" points="3070.62,-85.34 3074.56,-75.51 3065.35,-80.74 3070.62,-85.34"/>
</g>
<!-- Node36&#45;&gt;Node32 -->
<g id="edge45" class="edge">
<title>Node36&#45;&gt;Node32</title>
<path fill="none" stroke="midnightblue" d="M3107.51,-56.44C3135.55,-47.04 3180.64,-31.91 3211.03,-21.72"/>
<polygon fill="midnightblue" stroke="midnightblue" points="3212.35,-24.97 3220.72,-18.47 3210.13,-18.33 3212.35,-24.97"/>
</g>
<!-- Node37 -->
<g id="node37" class="node">
<title>Node37</title>
<g id="a_node37"><a xlink:title=" ">
<polygon fill="none" stroke="#bfbfbf" points="3029.5,-0.5 3029.5,-19.5 3086.5,-19.5 3086.5,-0.5 3029.5,-0.5"/>
<text text-anchor="middle" x="3058" y="-7.5" font-family="Helvetica,sans-Serif" font-size="10.00">ostream</text>
</a>
</g>
</g>
<!-- Node36&#45;&gt;Node37 -->
<g id="edge44" class="edge">
<title>Node36&#45;&gt;Node37</title>
<path fill="none" stroke="midnightblue" d="M3078.04,-56.08C3074.79,-48.77 3070.08,-38.18 3066.05,-29.1"/>
<polygon fill="midnightblue" stroke="midnightblue" points="3069.15,-27.47 3061.89,-19.75 3062.75,-30.31 3069.15,-27.47"/>
</g>
<!-- Node38 -->
<g id="node38" class="node">
<title>Node38</title>
<g id="a_node38"><a xlink:title=" ">
<polygon fill="none" stroke="#bfbfbf" points="3105,-0.5 3105,-19.5 3203,-19.5 3203,-0.5 3105,-0.5"/>
<text text-anchor="middle" x="3154" y="-7.5" font-family="Helvetica,sans-Serif" font-size="10.00">clang/AST/Decl.h</text>
</a>
</g>
</g>
<!-- Node36&#45;&gt;Node38 -->
<g id="edge46" class="edge">
<title>Node36&#45;&gt;Node38</title>
<path fill="none" stroke="midnightblue" d="M3093.57,-56.32C3104.42,-48.18 3120.88,-35.84 3133.88,-26.09"/>
<polygon fill="midnightblue" stroke="midnightblue" points="3136.32,-28.63 3142.22,-19.83 3132.12,-23.03 3136.32,-28.63"/>
</g>
<!-- Node39 -->
<g id="node39" class="node">
<title>Node39</title>
<g id="a_node39"><a xlink:title=" ">
<polygon fill="none" stroke="#bfbfbf" points="2692,-0.5 2692,-19.5 2856,-19.5 2856,-0.5 2692,-0.5"/>
<text text-anchor="middle" x="2774" y="-7.5" font-family="Helvetica,sans-Serif" font-size="10.00">clang/AST/DependenceFlags.h</text>
</a>
</g>
</g>
<!-- Node36&#45;&gt;Node39 -->
<g id="edge47" class="edge">
<title>Node36&#45;&gt;Node39</title>
<path fill="none" stroke="midnightblue" d="M3047.76,-57.71C3044.8,-57.12 3041.85,-56.54 3039,-56 2970.51,-43.02 2891.73,-29.87 2837.98,-21.16"/>
<polygon fill="midnightblue" stroke="midnightblue" points="2838.34,-17.68 2827.91,-19.54 2837.22,-24.59 2838.34,-17.68"/>
</g>
<!-- Node40 -->
<g id="node40" class="node">
<title>Node40</title>
<g id="a_node40"><a xlink:title=" ">
<polygon fill="none" stroke="#bfbfbf" points="2874.5,-0.5 2874.5,-19.5 3011.5,-19.5 3011.5,-0.5 2874.5,-0.5"/>
<text text-anchor="middle" x="2943" y="-7.5" font-family="Helvetica,sans-Serif" font-size="10.00">clang/AST/PrettyPrinter.h</text>
</a>
</g>
</g>
<!-- Node36&#45;&gt;Node40 -->
<g id="edge48" class="edge">
<title>Node36&#45;&gt;Node40</title>
<path fill="none" stroke="midnightblue" d="M3059.98,-56.44C3036.9,-47.48 3000.44,-33.31 2974.36,-23.18"/>
<polygon fill="midnightblue" stroke="midnightblue" points="2975.51,-19.88 2964.92,-19.52 2972.98,-26.4 2975.51,-19.88"/>
</g>
<!-- Node41&#45;&gt;Node16 -->
<g id="edge51" class="edge">
<title>Node41&#45;&gt;Node16</title>
<path fill="none" stroke="midnightblue" d="M2755.77,-184.73C2764.64,-175.86 2778.69,-161.81 2790.53,-149.97"/>
<polygon fill="midnightblue" stroke="midnightblue" points="2793.31,-152.13 2797.91,-142.59 2788.37,-147.19 2793.31,-152.13"/>
</g>
<!-- Node41&#45;&gt;Node23 -->
<g id="edge50" class="edge">
<title>Node41&#45;&gt;Node23</title>
<path fill="none" stroke="midnightblue" d="M2791.98,-184.92C2832.9,-176.09 2888.87,-161.09 2902,-143 2910.09,-131.85 2910.22,-123.05 2902,-112 2900.2,-109.58 2829.03,-88.95 2785.38,-76.48"/>
<polygon fill="midnightblue" stroke="midnightblue" points="2786.3,-73.1 2775.73,-73.73 2784.38,-79.84 2786.3,-73.1"/>
</g>
<!-- Node41&#45;&gt;Node30 -->
<g id="edge52" class="edge">
<title>Node41&#45;&gt;Node30</title>
<path fill="none" stroke="midnightblue" d="M2784.29,-184.94C2835.3,-173.22 2926.85,-152.19 2982.64,-139.38"/>
<polygon fill="midnightblue" stroke="midnightblue" points="2983.67,-142.73 2992.63,-137.08 2982.1,-135.91 2983.67,-142.73"/>
</g>
<!-- Node42&#45;&gt;Node17 -->
<g id="edge55" class="edge">
<title>Node42&#45;&gt;Node17</title>
<path fill="none" stroke="midnightblue" d="M184.6,-184.96C194.49,-182.89 205.12,-180.77 215,-179 305.7,-162.75 410.68,-147.73 479.71,-138.37"/>
<polygon fill="midnightblue" stroke="midnightblue" points="480.19,-141.84 489.63,-137.03 479.25,-134.9 480.19,-141.84"/>
</g>
</g>
</svg>
