<?xml version="1.0" encoding="UTF-8" standalone="no"?>
<!DOCTYPE svg PUBLIC "-//W3C//DTD SVG 1.1//EN"
 "http://www.w3.org/Graphics/SVG/1.1/DTD/svg11.dtd">
<!-- Generated by graphviz version 2.43.0 (0)
 -->
<!-- Title: Instantiator.cpp Pages: 1 -->
<svg width="2549pt" height="269pt"
 viewBox="0.00 0.00 2548.50 269.00" xmlns="http://www.w3.org/2000/svg" xmlns:xlink="http://www.w3.org/1999/xlink">
<g id="graph0" class="graph" transform="scale(1 1) rotate(0) translate(4 265)">
<title>Instantiator.cpp</title>
<!-- Node1 -->
<g id="Node000001" class="node">
<title>Node1</title>
<g id="a_Node000001"><a xlink:title=" ">
<polygon fill="#999999" stroke="#666666" points="1242.5,-261 1150.5,-261 1150.5,-242 1242.5,-242 1242.5,-261"/>
<text text-anchor="middle" x="1196.5" y="-249" font-family="Helvetica,sans-Serif" font-size="10.00">Instantiator.cpp</text>
</a>
</g>
</g>
<!-- Node2 -->
<g id="Node000002" class="node">
<title>Node2</title>
<g id="a_Node000002"><a xlink:href="ASTCreation_8hpp.html" target="_top" xlink:title=" ">
<polygon fill="white" stroke="#666666" points="185,-200.5 88,-200.5 88,-181.5 185,-181.5 185,-200.5"/>
<text text-anchor="middle" x="136.5" y="-188.5" font-family="Helvetica,sans-Serif" font-size="10.00">ASTCreation.hpp</text>
</a>
</g>
</g>
<!-- Node1&#45;&gt;Node2 -->
<g id="edge1_Node000001_Node000002" class="edge">
<title>Node1&#45;&gt;Node2</title>
<g id="a_edge1_Node000001_Node000002"><a xlink:title=" ">
<path fill="none" stroke="#63b8ff" d="M1150.38,-249.51C980.1,-245.68 387.04,-230.83 199.5,-206 193.09,-205.15 186.36,-203.97 179.79,-202.66"/>
<polygon fill="#63b8ff" stroke="#63b8ff" points="180.17,-199.16 169.66,-200.5 178.71,-206.01 180.17,-199.16"/>
</a>
</g>
</g>
<!-- Node3 -->
<g id="Node000003" class="node">
<title>Node3</title>
<g id="a_Node000003"><a xlink:title=" ">
<polygon fill="#e0e0e0" stroke="#999999" points="127,-134.5 0,-134.5 0,-115.5 127,-115.5 127,-134.5"/>
<text text-anchor="middle" x="63.5" y="-122.5" font-family="Helvetica,sans-Serif" font-size="10.00">clang/Tooling/Tooling.h</text>
</a>
</g>
</g>
<!-- Node1&#45;&gt;Node3 -->
<g id="edge43_Node000001_Node000003" class="edge">
<title>Node1&#45;&gt;Node3</title>
<g id="a_edge43_Node000001_Node000003"><a xlink:title=" ">
<path fill="none" stroke="#63b8ff" d="M1150.39,-250.25C944.76,-248.96 119.65,-241.56 78.5,-206 61.32,-191.16 59.8,-163.44 61.04,-144.85"/>
<polygon fill="#63b8ff" stroke="#63b8ff" points="64.55,-144.95 62.06,-134.65 57.59,-144.25 64.55,-144.95"/>
</a>
</g>
</g>
<!-- Node4 -->
<g id="Node000004" class="node">
<title>Node4</title>
<g id="a_Node000004"><a xlink:title=" ">
<polygon fill="#e0e0e0" stroke="#999999" points="220.5,-134.5 152.5,-134.5 152.5,-115.5 220.5,-115.5 220.5,-134.5"/>
<text text-anchor="middle" x="186.5" y="-122.5" font-family="Helvetica,sans-Serif" font-size="10.00">filesystem</text>
</a>
</g>
</g>
<!-- Node1&#45;&gt;Node4 -->
<g id="edge45_Node000001_Node000004" class="edge">
<title>Node1&#45;&gt;Node4</title>
<g id="a_edge45_Node000001_Node000004"><a xlink:title=" ">
<path fill="none" stroke="#63b8ff" d="M1150.26,-250.83C969.54,-251.78 316.92,-251.98 237.5,-206 214.16,-192.48 199.81,-163.52 192.5,-144.41"/>
<polygon fill="#63b8ff" stroke="#63b8ff" points="195.71,-142.98 189.07,-134.72 189.11,-145.32 195.71,-142.98"/>
</a>
</g>
</g>
<!-- Node5 -->
<g id="Node000005" class="node">
<title>Node5</title>
<g id="a_Node000005"><a xlink:href="DeleteInstantiations_8hpp.html" target="_top" xlink:title=" ">
<polygon fill="white" stroke="#666666" points="504,-200.5 317,-200.5 317,-181.5 504,-181.5 504,-200.5"/>
<text text-anchor="middle" x="410.5" y="-188.5" font-family="Helvetica,sans-Serif" font-size="10.00">Callbacks/DeleteInstantiations.hpp</text>
</a>
</g>
</g>
<!-- Node1&#45;&gt;Node5 -->
<g id="edge4_Node000001_Node000005" class="edge">
<title>Node1&#45;&gt;Node5</title>
<g id="a_edge4_Node000001_Node000005"><a xlink:title=" ">
<path fill="none" stroke="#63b8ff" d="M1150.31,-248.5C1040.45,-243.53 754.99,-229.29 517.5,-206 505.56,-204.83 492.89,-203.37 480.61,-201.83"/>
<polygon fill="#63b8ff" stroke="#63b8ff" points="480.77,-198.33 470.41,-200.53 479.89,-205.27 480.77,-198.33"/>
</a>
</g>
</g>
<!-- Node6 -->
<g id="Node000006" class="node">
<title>Node6</title>
<g id="a_Node000006"><a xlink:title=" ">
<polygon fill="#e0e0e0" stroke="#999999" points="498,-140 337,-140 337,-110 498,-110 498,-140"/>
<text text-anchor="start" x="345" y="-128" font-family="Helvetica,sans-Serif" font-size="10.00">clang/ASTMatchers/ASTMatch</text>
<text text-anchor="middle" x="417.5" y="-117" font-family="Helvetica,sans-Serif" font-size="10.00">Finder.h</text>
</a>
</g>
</g>
<!-- Node1&#45;&gt;Node6 -->
<g id="edge39_Node000001_Node000006" class="edge">
<title>Node1&#45;&gt;Node6</title>
<g id="a_edge39_Node000001_Node000006"><a xlink:title=" ">
<path fill="none" stroke="#63b8ff" d="M1150.44,-249.93C972.29,-247.52 336.79,-236.79 307.5,-206 283.64,-180.92 323.17,-158.33 361.32,-143.61"/>
<polygon fill="#63b8ff" stroke="#63b8ff" points="362.79,-146.79 370.94,-140.04 360.35,-140.23 362.79,-146.79"/>
</a>
</g>
</g>
<!-- Node7 -->
<g id="Node000007" class="node">
<title>Node7</title>
<g id="a_Node000007"><a xlink:href="GetNeededInstantiations_8hpp.html" target="_top" xlink:title=" ">
<polygon fill="white" stroke="#666666" points="963,-200.5 754,-200.5 754,-181.5 963,-181.5 963,-200.5"/>
<text text-anchor="middle" x="858.5" y="-188.5" font-family="Helvetica,sans-Serif" font-size="10.00">Callbacks/GetNeededInstantiations.hpp</text>
</a>
</g>
</g>
<!-- Node1&#45;&gt;Node7 -->
<g id="edge6_Node000001_Node000007" class="edge">
<title>Node1&#45;&gt;Node7</title>
<g id="a_edge6_Node000001_Node000007"><a xlink:title=" ">
<path fill="none" stroke="#63b8ff" d="M1150.21,-242.49C1089.76,-232.03 983.87,-213.7 917.66,-202.24"/>
<polygon fill="#63b8ff" stroke="#63b8ff" points="918.24,-198.79 907.79,-200.53 917.05,-205.69 918.24,-198.79"/>
</a>
</g>
</g>
<!-- Node8 -->
<g id="Node000008" class="node">
<title>Node8</title>
<g id="a_Node000008"><a xlink:href="Injection_8hpp.html" target="_top" xlink:title=" ">
<polygon fill="white" stroke="#666666" points="616.5,-134.5 536.5,-134.5 536.5,-115.5 616.5,-115.5 616.5,-134.5"/>
<text text-anchor="middle" x="576.5" y="-122.5" font-family="Helvetica,sans-Serif" font-size="10.00">Injection.hpp</text>
</a>
</g>
</g>
<!-- Node1&#45;&gt;Node8 -->
<g id="edge31_Node000001_Node000008" class="edge">
<title>Node1&#45;&gt;Node8</title>
<g id="a_edge31_Node000001_Node000008"><a xlink:title=" ">
<path fill="none" stroke="#63b8ff" d="M1150.41,-250.86C1009.46,-251.5 591.25,-249.66 550.5,-206 534.21,-188.55 549.33,-160.75 562.39,-142.95"/>
<polygon fill="#63b8ff" stroke="#63b8ff" points="565.46,-144.7 568.85,-134.66 559.94,-140.39 565.46,-144.7"/>
</a>
</g>
</g>
<!-- Node19 -->
<g id="Node000019" class="node">
<title>Node19</title>
<g id="a_Node000019"><a xlink:href="InjectInstantiation_8hpp.html" target="_top" xlink:title=" ">
<polygon fill="white" stroke="#666666" points="735.5,-200.5 559.5,-200.5 559.5,-181.5 735.5,-181.5 735.5,-200.5"/>
<text text-anchor="middle" x="647.5" y="-188.5" font-family="Helvetica,sans-Serif" font-size="10.00">Callbacks/InjectInstantiation.hpp</text>
</a>
</g>
</g>
<!-- Node1&#45;&gt;Node19 -->
<g id="edge23_Node000001_Node000019" class="edge">
<title>Node1&#45;&gt;Node19</title>
<g id="a_edge23_Node000001_Node000019"><a xlink:title=" ">
<path fill="none" stroke="#63b8ff" d="M1150.23,-246.64C1068.31,-239.65 892.44,-223.95 744.5,-206 734.39,-204.77 723.7,-203.35 713.26,-201.9"/>
<polygon fill="#63b8ff" stroke="#63b8ff" points="713.74,-198.43 703.35,-200.5 712.76,-205.37 713.74,-198.43"/>
</a>
</g>
</g>
<!-- Node20 -->
<g id="Node000020" class="node">
<title>Node20</title>
<g id="a_Node000020"><a xlink:href="ProgressBar_8hpp.html" target="_top" xlink:title=" ">
<polygon fill="white" stroke="#666666" points="362,-74 253,-74 253,-55 362,-55 362,-74"/>
<text text-anchor="middle" x="307.5" y="-62" font-family="Helvetica,sans-Serif" font-size="10.00">IO/ProgressBar.hpp</text>
</a>
</g>
</g>
<!-- Node1&#45;&gt;Node20 -->
<g id="edge27_Node000001_Node000020" class="edge">
<title>Node1&#45;&gt;Node20</title>
<g id="a_edge27_Node000001_Node000020"><a xlink:title=" ">
<path fill="none" stroke="#63b8ff" d="M1150.48,-249.96C970.98,-247.65 326.19,-237.2 296.5,-206 264.96,-172.87 285.36,-113.19 298.65,-83.42"/>
<polygon fill="#63b8ff" stroke="#63b8ff" points="301.88,-84.76 302.96,-74.22 295.55,-81.79 301.88,-84.76"/>
</a>
</g>
</g>
<!-- Node21 -->
<g id="Node000021" class="node">
<title>Node21</title>
<g id="a_Node000021"><a xlink:href="Matcher_8hpp.html" target="_top" xlink:title="AST matcher expressions to filter the relevant nodes for template instantiations.">
<polygon fill="white" stroke="#666666" points="1139,-200.5 1020,-200.5 1020,-181.5 1139,-181.5 1139,-200.5"/>
<text text-anchor="middle" x="1079.5" y="-188.5" font-family="Helvetica,sans-Serif" font-size="10.00">Matcher/Matcher.hpp</text>
</a>
</g>
</g>
<!-- Node1&#45;&gt;Node21 -->
<g id="edge32_Node000001_Node000021" class="edge">
<title>Node1&#45;&gt;Node21</title>
<g id="a_edge32_Node000001_Node000021"><a xlink:title=" ">
<path fill="none" stroke="#63b8ff" d="M1179.49,-241.99C1160.08,-232.29 1128.11,-216.31 1105.56,-205.03"/>
<polygon fill="#63b8ff" stroke="#63b8ff" points="1107.04,-201.86 1096.53,-200.52 1103.91,-208.12 1107.04,-201.86"/>
</a>
</g>
</g>
<!-- Node22 -->
<g id="Node000022" class="node">
<title>Node22</title>
<g id="a_Node000022"><a xlink:title=" ">
<polygon fill="#e0e0e0" stroke="#999999" points="1128,-134.5 943,-134.5 943,-115.5 1128,-115.5 1128,-134.5"/>
<text text-anchor="middle" x="1035.5" y="-122.5" font-family="Helvetica,sans-Serif" font-size="10.00">clang/ASTMatchers/ASTMatchers.h</text>
</a>
</g>
</g>
<!-- Node1&#45;&gt;Node22 -->
<g id="edge40_Node000001_Node000022" class="edge">
<title>Node1&#45;&gt;Node22</title>
<g id="a_edge40_Node000001_Node000022"><a xlink:title=" ">
<path fill="none" stroke="#63b8ff" d="M1150.27,-245.85C1101.22,-239.85 1028.47,-227.54 1011.5,-206 996.9,-187.48 1010.54,-160.2 1022.43,-142.77"/>
<polygon fill="#63b8ff" stroke="#63b8ff" points="1025.28,-144.79 1028.33,-134.65 1019.62,-140.68 1025.28,-144.79"/>
</a>
</g>
</g>
<!-- Node23 -->
<g id="Node000023" class="node">
<title>Node23</title>
<g id="a_Node000023"><a xlink:title=" ">
<polygon fill="#e0e0e0" stroke="#999999" points="1236,-200.5 1157,-200.5 1157,-181.5 1236,-181.5 1236,-200.5"/>
<text text-anchor="middle" x="1196.5" y="-188.5" font-family="Helvetica,sans-Serif" font-size="10.00">fmt/ranges.h</text>
</a>
</g>
</g>
<!-- Node1&#45;&gt;Node23 -->
<g id="edge34_Node000001_Node000023" class="edge">
<title>Node1&#45;&gt;Node23</title>
<g id="a_edge34_Node000001_Node000023"><a xlink:title=" ">
<path fill="none" stroke="#63b8ff" d="M1196.5,-241.87C1196.5,-233.75 1196.5,-221.31 1196.5,-210.89"/>
<polygon fill="#63b8ff" stroke="#63b8ff" points="1200,-210.67 1196.5,-200.67 1193,-210.67 1200,-210.67"/>
</a>
</g>
</g>
<!-- Node24 -->
<g id="Node000024" class="node">
<title>Node24</title>
<g id="a_Node000024"><a xlink:title=" ">
<polygon fill="#e0e0e0" stroke="#999999" points="1315,-200.5 1254,-200.5 1254,-181.5 1315,-181.5 1315,-200.5"/>
<text text-anchor="middle" x="1284.5" y="-188.5" font-family="Helvetica,sans-Serif" font-size="10.00">fmt/std.h</text>
</a>
</g>
</g>
<!-- Node1&#45;&gt;Node24 -->
<g id="edge35_Node000001_Node000024" class="edge">
<title>Node1&#45;&gt;Node24</title>
<g id="a_edge35_Node000001_Node000024"><a xlink:title=" ">
<path fill="none" stroke="#63b8ff" d="M1209.48,-241.87C1223.52,-232.54 1246.13,-217.51 1262.86,-206.38"/>
<polygon fill="#63b8ff" stroke="#63b8ff" points="1265.07,-209.12 1271.46,-200.67 1261.2,-203.29 1265.07,-209.12"/>
</a>
</g>
</g>
<!-- Node25 -->
<g id="Node000025" class="node">
<title>Node25</title>
<g id="a_Node000025"><a xlink:title=" ">
<polygon fill="#e0e0e0" stroke="#999999" points="1429.5,-200.5 1333.5,-200.5 1333.5,-181.5 1429.5,-181.5 1429.5,-200.5"/>
<text text-anchor="middle" x="1381.5" y="-188.5" font-family="Helvetica,sans-Serif" font-size="10.00">spdlog/cfg/env.h</text>
</a>
</g>
</g>
<!-- Node1&#45;&gt;Node25 -->
<g id="edge36_Node000001_Node000025" class="edge">
<title>Node1&#45;&gt;Node25</title>
<g id="a_edge36_Node000001_Node000025"><a xlink:title=" ">
<path fill="none" stroke="#63b8ff" d="M1223.4,-241.99C1255.46,-231.86 1309.18,-214.87 1344.98,-203.55"/>
<polygon fill="#63b8ff" stroke="#63b8ff" points="1346.09,-206.87 1354.57,-200.52 1343.98,-200.19 1346.09,-206.87"/>
</a>
</g>
</g>
<!-- Node26 -->
<g id="Node000026" class="node">
<title>Node26</title>
<g id="a_Node000026"><a xlink:title=" ">
<polygon fill="#e0e0e0" stroke="#999999" points="1541,-200.5 1448,-200.5 1448,-181.5 1541,-181.5 1541,-200.5"/>
<text text-anchor="middle" x="1494.5" y="-188.5" font-family="Helvetica,sans-Serif" font-size="10.00">spdlog/spdlog.h</text>
</a>
</g>
</g>
<!-- Node1&#45;&gt;Node26 -->
<g id="edge37_Node000001_Node000026" class="edge">
<title>Node1&#45;&gt;Node26</title>
<g id="a_edge37_Node000001_Node000026"><a xlink:title=" ">
<path fill="none" stroke="#63b8ff" d="M1242.61,-242.91C1291.43,-234.67 1370.66,-220.7 1438.5,-206 1442.86,-205.06 1447.4,-204.02 1451.92,-202.94"/>
<polygon fill="#63b8ff" stroke="#63b8ff" points="1452.82,-206.33 1461.71,-200.57 1451.17,-199.52 1452.82,-206.33"/>
</a>
</g>
</g>
<!-- Node27 -->
<g id="Node000027" class="node">
<title>Node27</title>
<g id="a_Node000027"><a xlink:title=" ">
<polygon fill="#e0e0e0" stroke="#999999" points="1696,-200.5 1559,-200.5 1559,-181.5 1696,-181.5 1696,-200.5"/>
<text text-anchor="middle" x="1627.5" y="-188.5" font-family="Helvetica,sans-Serif" font-size="10.00">clang/AST/ASTImporter.h</text>
</a>
</g>
</g>
<!-- Node1&#45;&gt;Node27 -->
<g id="edge38_Node000001_Node000027" class="edge">
<title>Node1&#45;&gt;Node27</title>
<g id="a_edge38_Node000001_Node000027"><a xlink:title=" ">
<path fill="none" stroke="#63b8ff" d="M1242.72,-245.51C1310.42,-238.01 1440.45,-222.91 1550.5,-206 1557.7,-204.89 1565.26,-203.64 1572.72,-202.34"/>
<polygon fill="#63b8ff" stroke="#63b8ff" points="1573.55,-205.75 1582.78,-200.56 1572.32,-198.86 1573.55,-205.75"/>
</a>
</g>
</g>
<!-- Node28 -->
<g id="Node000028" class="node">
<title>Node28</title>
<g id="a_Node000028"><a xlink:title=" ">
<polygon fill="#e0e0e0" stroke="#999999" points="1823,-206 1714,-206 1714,-176 1823,-176 1823,-206"/>
<text text-anchor="start" x="1722" y="-194" font-family="Helvetica,sans-Serif" font-size="10.00">clang/Rewrite/Core</text>
<text text-anchor="middle" x="1768.5" y="-183" font-family="Helvetica,sans-Serif" font-size="10.00">/Rewriter.h</text>
</a>
</g>
</g>
<!-- Node1&#45;&gt;Node28 -->
<g id="edge41_Node000001_Node000028" class="edge">
<title>Node1&#45;&gt;Node28</title>
<g id="a_edge41_Node000001_Node000028"><a xlink:title=" ">
<path fill="none" stroke="#63b8ff" d="M1242.72,-248.5C1330.73,-244.24 1528.56,-232.56 1704.02,-206.1"/>
<polygon fill="#63b8ff" stroke="#63b8ff" points="1704.59,-209.55 1713.95,-204.58 1703.53,-202.63 1704.59,-209.55"/>
</a>
</g>
</g>
<!-- Node29 -->
<g id="Node000029" class="node">
<title>Node29</title>
<g id="a_Node000029"><a xlink:title=" ">
<polygon fill="#e0e0e0" stroke="#999999" points="2006,-206 1841,-206 1841,-176 2006,-176 2006,-206"/>
<text text-anchor="start" x="1849" y="-194" font-family="Helvetica,sans-Serif" font-size="10.00">clang/Tooling/CommonOptions</text>
<text text-anchor="middle" x="1923.5" y="-183" font-family="Helvetica,sans-Serif" font-size="10.00">Parser.h</text>
</a>
</g>
</g>
<!-- Node1&#45;&gt;Node29 -->
<g id="edge42_Node000001_Node000029" class="edge">
<title>Node1&#45;&gt;Node29</title>
<g id="a_edge42_Node000001_Node000029"><a xlink:title=" ">
<path fill="none" stroke="#63b8ff" d="M1242.51,-248.59C1345.87,-244.01 1604.5,-231 1830.65,-206.15"/>
<polygon fill="#63b8ff" stroke="#63b8ff" points="1831.16,-209.62 1840.71,-205.03 1830.39,-202.66 1831.16,-209.62"/>
</a>
</g>
</g>
<!-- Node30 -->
<g id="Node000030" class="node">
<title>Node30</title>
<g id="a_Node000030"><a xlink:title=" ">
<polygon fill="#e0e0e0" stroke="#999999" points="2185,-200.5 2024,-200.5 2024,-181.5 2185,-181.5 2185,-200.5"/>
<text text-anchor="middle" x="2104.5" y="-188.5" font-family="Helvetica,sans-Serif" font-size="10.00">llvm/Support/CommandLine.h</text>
</a>
</g>
</g>
<!-- Node1&#45;&gt;Node30 -->
<g id="edge44_Node000001_Node000030" class="edge">
<title>Node1&#45;&gt;Node30</title>
<g id="a_edge44_Node000001_Node000030"><a xlink:title=" ">
<path fill="none" stroke="#63b8ff" d="M1242.81,-249.63C1367.8,-246.94 1722.37,-236.94 2015.5,-206 2025.42,-204.95 2035.91,-203.56 2046.09,-202.06"/>
<polygon fill="#63b8ff" stroke="#63b8ff" points="2046.76,-205.49 2056.12,-200.53 2045.7,-198.57 2046.76,-205.49"/>
</a>
</g>
</g>
<!-- Node31 -->
<g id="Node000031" class="node">
<title>Node31</title>
<g id="a_Node000031"><a xlink:title=" ">
<polygon fill="#e0e0e0" stroke="#999999" points="2258,-200.5 2203,-200.5 2203,-181.5 2258,-181.5 2258,-200.5"/>
<text text-anchor="middle" x="2230.5" y="-188.5" font-family="Helvetica,sans-Serif" font-size="10.00">fstream</text>
</a>
</g>
</g>
<!-- Node1&#45;&gt;Node31 -->
<g id="edge46_Node000001_Node000031" class="edge">
<title>Node1&#45;&gt;Node31</title>
<g id="a_edge46_Node000001_Node000031"><a xlink:title=" ">
<path fill="none" stroke="#63b8ff" d="M1242.54,-250.43C1413.15,-249.87 2009.09,-245.08 2194.5,-206 2197.03,-205.47 2199.61,-204.78 2202.17,-203.99"/>
<polygon fill="#63b8ff" stroke="#63b8ff" points="2203.53,-207.22 2211.8,-200.6 2201.2,-200.62 2203.53,-207.22"/>
</a>
</g>
</g>
<!-- Node32 -->
<g id="Node000032" class="node">
<title>Node32</title>
<g id="a_Node000032"><a xlink:title=" ">
<polygon fill="#e0e0e0" stroke="#999999" points="2336.5,-200.5 2276.5,-200.5 2276.5,-181.5 2336.5,-181.5 2336.5,-200.5"/>
<text text-anchor="middle" x="2306.5" y="-188.5" font-family="Helvetica,sans-Serif" font-size="10.00">iostream</text>
</a>
</g>
</g>
<!-- Node1&#45;&gt;Node32 -->
<g id="edge47_Node000001_Node000032" class="edge">
<title>Node1&#45;&gt;Node32</title>
<g id="a_edge47_Node000001_Node000032"><a xlink:title=" ">
<path fill="none" stroke="#63b8ff" d="M1242.77,-250.44C1421.5,-249.9 2066.82,-245.24 2267.5,-206 2270.51,-205.41 2273.6,-204.63 2276.66,-203.74"/>
<polygon fill="#63b8ff" stroke="#63b8ff" points="2277.78,-207.05 2286.18,-200.6 2275.59,-200.4 2277.78,-207.05"/>
</a>
</g>
</g>
<!-- Node33 -->
<g id="Node000033" class="node">
<title>Node33</title>
<g id="a_Node000033"><a xlink:title=" ">
<polygon fill="#e0e0e0" stroke="#999999" points="2436,-200.5 2355,-200.5 2355,-181.5 2436,-181.5 2436,-200.5"/>
<text text-anchor="middle" x="2395.5" y="-188.5" font-family="Helvetica,sans-Serif" font-size="10.00">system_error</text>
</a>
</g>
</g>
<!-- Node1&#45;&gt;Node33 -->
<g id="edge48_Node000001_Node000033" class="edge">
<title>Node1&#45;&gt;Node33</title>
<g id="a_edge48_Node000001_Node000033"><a xlink:title=" ">
<path fill="none" stroke="#63b8ff" d="M1242.52,-250.15C1428.83,-248.54 2127.46,-240.26 2345.5,-206 2350.08,-205.28 2354.84,-204.28 2359.52,-203.15"/>
<polygon fill="#63b8ff" stroke="#63b8ff" points="2360.77,-206.44 2369.55,-200.51 2358.98,-199.67 2360.77,-206.44"/>
</a>
</g>
</g>
<!-- Node34 -->
<g id="Node000034" class="node">
<title>Node34</title>
<g id="a_Node000034"><a xlink:title=" ">
<polygon fill="#e0e0e0" stroke="#999999" points="2540.5,-200.5 2454.5,-200.5 2454.5,-181.5 2540.5,-181.5 2540.5,-200.5"/>
<text text-anchor="middle" x="2497.5" y="-188.5" font-family="Helvetica,sans-Serif" font-size="10.00">unordered_set</text>
</a>
</g>
</g>
<!-- Node1&#45;&gt;Node34 -->
<g id="edge49_Node000001_Node000034" class="edge">
<title>Node1&#45;&gt;Node34</title>
<g id="a_edge49_Node000001_Node000034"><a xlink:title=" ">
<path fill="none" stroke="#63b8ff" d="M1242.8,-250.26C1439.53,-249.01 2206.8,-241.91 2445.5,-206 2450.39,-205.27 2455.47,-204.24 2460.46,-203.07"/>
<polygon fill="#63b8ff" stroke="#63b8ff" points="2461.66,-206.38 2470.49,-200.52 2459.94,-199.59 2461.66,-206.38"/>
</a>
</g>
</g>
<!-- Node2&#45;&gt;Node3 -->
<g id="edge2_Node000002_Node000003" class="edge">
<title>Node2&#45;&gt;Node3</title>
<g id="a_edge2_Node000002_Node000003"><a xlink:title=" ">
<path fill="none" stroke="#63b8ff" d="M126.65,-181.37C115.07,-171.21 95.62,-154.16 81.36,-141.65"/>
<polygon fill="#63b8ff" stroke="#63b8ff" points="83.48,-138.87 73.66,-134.91 78.87,-144.13 83.48,-138.87"/>
</a>
</g>
</g>
<!-- Node2&#45;&gt;Node4 -->
<g id="edge3_Node000002_Node000004" class="edge">
<title>Node2&#45;&gt;Node4</title>
<g id="a_edge3_Node000002_Node000004"><a xlink:title=" ">
<path fill="none" stroke="#63b8ff" d="M143.24,-181.37C150.88,-171.59 163.51,-155.42 173.16,-143.08"/>
<polygon fill="#63b8ff" stroke="#63b8ff" points="176.14,-144.94 179.54,-134.91 170.63,-140.63 176.14,-144.94"/>
</a>
</g>
</g>
<!-- Node5&#45;&gt;Node6 -->
<g id="edge5_Node000005_Node000006" class="edge">
<title>Node5&#45;&gt;Node6</title>
<g id="a_edge5_Node000005_Node000006"><a xlink:title=" ">
<path fill="none" stroke="#63b8ff" d="M411.44,-181.37C412.31,-173.49 413.62,-161.45 414.81,-150.6"/>
<polygon fill="#63b8ff" stroke="#63b8ff" points="418.32,-150.68 415.93,-140.36 411.36,-149.92 418.32,-150.68"/>
</a>
</g>
</g>
<!-- Node7&#45;&gt;Node6 -->
<g id="edge21_Node000007_Node000006" class="edge">
<title>Node7&#45;&gt;Node6</title>
<g id="a_edge21_Node000007_Node000006"><a xlink:title=" ">
<path fill="none" stroke="#63b8ff" d="M799.48,-181.44C724.87,-170.61 595.64,-151.85 508.39,-139.19"/>
<polygon fill="#63b8ff" stroke="#63b8ff" points="508.63,-135.69 498.23,-137.72 507.62,-142.62 508.63,-135.69"/>
</a>
</g>
</g>
<!-- Node7&#45;&gt;Node8 -->
<g id="edge7_Node000007_Node000008" class="edge">
<title>Node7&#45;&gt;Node8</title>
<g id="a_edge7_Node000007_Node000008"><a xlink:title=" ">
<path fill="none" stroke="#63b8ff" d="M820.76,-181.44C769.9,-169.89 679.35,-149.34 623.94,-136.77"/>
<polygon fill="#63b8ff" stroke="#63b8ff" points="624.54,-133.31 614.02,-134.51 622.99,-140.14 624.54,-133.31"/>
</a>
</g>
</g>
<!-- Node18 -->
<g id="Node000018" class="node">
<title>Node18</title>
<g id="a_Node000018"><a xlink:title=" ">
<polygon fill="#e0e0e0" stroke="#999999" points="844,-74 797,-74 797,-55 844,-55 844,-74"/>
<text text-anchor="middle" x="820.5" y="-62" font-family="Helvetica,sans-Serif" font-size="10.00">vector</text>
</a>
</g>
</g>
<!-- Node7&#45;&gt;Node18 -->
<g id="edge22_Node000007_Node000018" class="edge">
<title>Node7&#45;&gt;Node18</title>
<g id="a_edge22_Node000007_Node000018"><a xlink:title=" ">
<path fill="none" stroke="#63b8ff" d="M855.89,-181.44C849.79,-161.45 834.48,-111.32 826.14,-83.98"/>
<polygon fill="#63b8ff" stroke="#63b8ff" points="829.4,-82.66 823.13,-74.12 822.7,-84.7 829.4,-82.66"/>
</a>
</g>
</g>
<!-- Node9 -->
<g id="Node000009" class="node">
<title>Node9</title>
<g id="a_Node000009"><a xlink:href="Param_8hpp.html" target="_top" xlink:title=" ">
<polygon fill="white" stroke="#666666" points="641.5,-74 573.5,-74 573.5,-55 641.5,-55 641.5,-74"/>
<text text-anchor="middle" x="607.5" y="-62" font-family="Helvetica,sans-Serif" font-size="10.00">Param.hpp</text>
</a>
</g>
</g>
<!-- Node8&#45;&gt;Node9 -->
<g id="edge8_Node000008_Node000009" class="edge">
<title>Node8&#45;&gt;Node9</title>
<g id="a_edge8_Node000008_Node000009"><a xlink:title=" ">
<path fill="none" stroke="#63b8ff" d="M581.07,-115.37C585.56,-106.9 592.53,-93.74 598.19,-83.07"/>
<polygon fill="#63b8ff" stroke="#63b8ff" points="601.32,-84.64 602.91,-74.17 595.13,-81.36 601.32,-84.64"/>
</a>
</g>
</g>
<!-- Node10 -->
<g id="Node000010" class="node">
<title>Node10</title>
<g id="a_Node000010"><a xlink:title=" ">
<polygon fill="#e0e0e0" stroke="#999999" points="342,-19 273,-19 273,0 342,0 342,-19"/>
<text text-anchor="middle" x="307.5" y="-7" font-family="Helvetica,sans-Serif" font-size="10.00">fmt/color.h</text>
</a>
</g>
</g>
<!-- Node8&#45;&gt;Node10 -->
<g id="edge15_Node000008_Node000010" class="edge">
<title>Node8&#45;&gt;Node10</title>
<g id="a_edge15_Node000008_Node000010"><a xlink:title=" ">
<path fill="none" stroke="#63b8ff" d="M536.23,-115.51C526.52,-113.58 516.16,-111.62 506.5,-110 448.33,-100.21 282.28,-118.45 243.5,-74 227.51,-55.67 254.51,-36.2 278.2,-23.73"/>
<polygon fill="#63b8ff" stroke="#63b8ff" points="279.97,-26.75 287.35,-19.15 276.84,-20.49 279.97,-26.75"/>
</a>
</g>
</g>
<!-- Node11 -->
<g id="Node000011" class="node">
<title>Node11</title>
<g id="a_Node000011"><a xlink:title=" ">
<polygon fill="#e0e0e0" stroke="#999999" points="498,-19 431,-19 431,0 498,0 498,-19"/>
<text text-anchor="middle" x="464.5" y="-7" font-family="Helvetica,sans-Serif" font-size="10.00">fmt/core.h</text>
</a>
</g>
</g>
<!-- Node8&#45;&gt;Node11 -->
<g id="edge16_Node000008_Node000011" class="edge">
<title>Node8&#45;&gt;Node11</title>
<g id="a_edge16_Node000008_Node000011"><a xlink:title=" ">
<path fill="none" stroke="#63b8ff" d="M568.08,-115.47C549.43,-96.57 504.39,-50.93 480.31,-26.52"/>
<polygon fill="#63b8ff" stroke="#63b8ff" points="482.53,-23.79 473.02,-19.13 477.55,-28.71 482.53,-23.79"/>
</a>
</g>
</g>
<!-- Node15 -->
<g id="Node000015" class="node">
<title>Node15</title>
<g id="a_Node000015"><a xlink:title=" ">
<polygon fill="#e0e0e0" stroke="#999999" points="560.5,-19 516.5,-19 516.5,0 560.5,0 560.5,-19"/>
<text text-anchor="middle" x="538.5" y="-7" font-family="Helvetica,sans-Serif" font-size="10.00">string</text>
</a>
</g>
</g>
<!-- Node8&#45;&gt;Node15 -->
<g id="edge19_Node000008_Node000015" class="edge">
<title>Node8&#45;&gt;Node15</title>
<g id="a_edge19_Node000008_Node000015"><a xlink:title=" ">
<path fill="none" stroke="#63b8ff" d="M573.64,-115.47C567.51,-97.15 552.96,-53.68 544.63,-28.81"/>
<polygon fill="#63b8ff" stroke="#63b8ff" points="547.88,-27.5 541.39,-19.13 541.25,-29.72 547.88,-27.5"/>
</a>
</g>
</g>
<!-- Node16 -->
<g id="Node000016" class="node">
<title>Node16</title>
<g id="a_Node000016"><a xlink:title=" ">
<polygon fill="#e0e0e0" stroke="#999999" points="779,-74 660,-74 660,-55 779,-55 779,-74"/>
<text text-anchor="middle" x="719.5" y="-62" font-family="Helvetica,sans-Serif" font-size="10.00">clang/AST/DeclCXX.h</text>
</a>
</g>
</g>
<!-- Node8&#45;&gt;Node16 -->
<g id="edge17_Node000008_Node000016" class="edge">
<title>Node8&#45;&gt;Node16</title>
<g id="a_edge17_Node000008_Node000016"><a xlink:title=" ">
<path fill="none" stroke="#63b8ff" d="M597.29,-115.49C621.44,-105.62 661.48,-89.23 689.12,-77.93"/>
<polygon fill="#63b8ff" stroke="#63b8ff" points="690.75,-81.04 698.68,-74.02 688.1,-74.56 690.75,-81.04"/>
</a>
</g>
</g>
<!-- Node17 -->
<g id="Node000017" class="node">
<title>Node17</title>
<g id="a_Node000017"><a xlink:title=" ">
<polygon fill="#e0e0e0" stroke="#999999" points="479,-74 380,-74 380,-55 479,-55 479,-74"/>
<text text-anchor="middle" x="429.5" y="-62" font-family="Helvetica,sans-Serif" font-size="10.00">clang/AST/Type.h</text>
</a>
</g>
</g>
<!-- Node8&#45;&gt;Node17 -->
<g id="edge18_Node000008_Node000017" class="edge">
<title>Node8&#45;&gt;Node17</title>
<g id="a_edge18_Node000008_Node000017"><a xlink:title=" ">
<path fill="none" stroke="#63b8ff" d="M555.12,-115.49C530.19,-105.57 488.78,-89.09 460.36,-77.78"/>
<polygon fill="#63b8ff" stroke="#63b8ff" points="461.49,-74.46 450.9,-74.02 458.9,-80.97 461.49,-74.46"/>
</a>
</g>
</g>
<!-- Node8&#45;&gt;Node18 -->
<g id="edge20_Node000008_Node000018" class="edge">
<title>Node8&#45;&gt;Node18</title>
<g id="a_edge20_Node000008_Node000018"><a xlink:title=" ">
<path fill="none" stroke="#63b8ff" d="M613.52,-115.46C653.72,-106.13 720.06,-90.59 786.86,-74.12"/>
<polygon fill="#63b8ff" stroke="#63b8ff" points="787.85,-77.48 796.72,-71.68 786.17,-70.69 787.85,-77.48"/>
</a>
</g>
</g>
<!-- Node9&#45;&gt;Node10 -->
<g id="edge9_Node000009_Node000010" class="edge">
<title>Node9&#45;&gt;Node10</title>
<g id="a_edge9_Node000009_Node000010"><a xlink:title=" ">
<path fill="none" stroke="#63b8ff" d="M573.38,-57.47C518.94,-47.85 412.43,-29.04 352.05,-18.37"/>
<polygon fill="#63b8ff" stroke="#63b8ff" points="352.51,-14.9 342.05,-16.6 351.29,-21.79 352.51,-14.9"/>
</a>
</g>
</g>
<!-- Node9&#45;&gt;Node11 -->
<g id="edge10_Node000009_Node000011" class="edge">
<title>Node9&#45;&gt;Node11</title>
<g id="a_edge10_Node000009_Node000011"><a xlink:title=" ">
<path fill="none" stroke="#63b8ff" d="M584.52,-54.98C561,-46.27 524.21,-32.63 497.56,-22.75"/>
<polygon fill="#63b8ff" stroke="#63b8ff" points="498.49,-19.36 487.89,-19.17 496.05,-25.93 498.49,-19.36"/>
</a>
</g>
</g>
<!-- Node12 -->
<g id="Node000012" class="node">
<title>Node12</title>
<g id="a_Node000012"><a xlink:title=" ">
<polygon fill="#e0e0e0" stroke="#999999" points="752.5,-19 654.5,-19 654.5,0 752.5,0 752.5,-19"/>
<text text-anchor="middle" x="703.5" y="-7" font-family="Helvetica,sans-Serif" font-size="10.00">clang/AST/Decl.h</text>
</a>
</g>
</g>
<!-- Node9&#45;&gt;Node12 -->
<g id="edge11_Node000009_Node000012" class="edge">
<title>Node9&#45;&gt;Node12</title>
<g id="a_edge11_Node000009_Node000012"><a xlink:title=" ">
<path fill="none" stroke="#63b8ff" d="M622.92,-54.98C637.95,-46.69 661.04,-33.94 678.66,-24.22"/>
<polygon fill="#63b8ff" stroke="#63b8ff" points="680.73,-27.07 687.8,-19.17 677.35,-20.94 680.73,-27.07"/>
</a>
</g>
</g>
<!-- Node13 -->
<g id="Node000013" class="node">
<title>Node13</title>
<g id="a_Node000013"><a xlink:title=" ">
<polygon fill="#e0e0e0" stroke="#999999" points="908,-19 771,-19 771,0 908,0 908,-19"/>
<text text-anchor="middle" x="839.5" y="-7" font-family="Helvetica,sans-Serif" font-size="10.00">clang/AST/PrettyPrinter.h</text>
</a>
</g>
</g>
<!-- Node9&#45;&gt;Node13 -->
<g id="edge12_Node000009_Node000013" class="edge">
<title>Node9&#45;&gt;Node13</title>
<g id="a_edge12_Node000009_Node000013"><a xlink:title=" ">
<path fill="none" stroke="#63b8ff" d="M641.73,-55.68C681.57,-46.58 747.6,-31.49 792.29,-21.28"/>
<polygon fill="#63b8ff" stroke="#63b8ff" points="793.08,-24.7 802.05,-19.06 791.52,-17.87 793.08,-24.7"/>
</a>
</g>
</g>
<!-- Node14 -->
<g id="Node000014" class="node">
<title>Node14</title>
<g id="a_Node000014"><a xlink:title=" ">
<polygon fill="#e0e0e0" stroke="#999999" points="636,-19 579,-19 579,0 636,0 636,-19"/>
<text text-anchor="middle" x="607.5" y="-7" font-family="Helvetica,sans-Serif" font-size="10.00">ostream</text>
</a>
</g>
</g>
<!-- Node9&#45;&gt;Node14 -->
<g id="edge13_Node000009_Node000014" class="edge">
<title>Node9&#45;&gt;Node14</title>
<g id="a_edge13_Node000009_Node000014"><a xlink:title=" ">
<path fill="none" stroke="#63b8ff" d="M607.5,-54.75C607.5,-47.8 607.5,-37.85 607.5,-29.13"/>
<polygon fill="#63b8ff" stroke="#63b8ff" points="611,-29.09 607.5,-19.09 604,-29.09 611,-29.09"/>
</a>
</g>
</g>
<!-- Node9&#45;&gt;Node15 -->
<g id="edge14_Node000009_Node000015" class="edge">
<title>Node9&#45;&gt;Node15</title>
<g id="a_edge14_Node000009_Node000015"><a xlink:title=" ">
<path fill="none" stroke="#63b8ff" d="M596.41,-54.98C586.01,-47 570.24,-34.88 557.78,-25.31"/>
<polygon fill="#63b8ff" stroke="#63b8ff" points="559.85,-22.49 549.79,-19.17 555.59,-28.04 559.85,-22.49"/>
</a>
</g>
</g>
<!-- Node19&#45;&gt;Node6 -->
<g id="edge25_Node000019_Node000006" class="edge">
<title>Node19&#45;&gt;Node6</title>
<g id="a_edge25_Node000019_Node000006"><a xlink:title=" ">
<path fill="none" stroke="#63b8ff" d="M616.48,-181.37C581.14,-171.54 522.54,-155.23 478.06,-142.85"/>
<polygon fill="#63b8ff" stroke="#63b8ff" points="478.8,-139.42 468.23,-140.12 476.92,-146.17 478.8,-139.42"/>
</a>
</g>
</g>
<!-- Node19&#45;&gt;Node8 -->
<g id="edge24_Node000019_Node000008" class="edge">
<title>Node19&#45;&gt;Node8</title>
<g id="a_edge24_Node000019_Node000008"><a xlink:title=" ">
<path fill="none" stroke="#63b8ff" d="M637.92,-181.37C626.66,-171.21 607.74,-154.16 593.87,-141.65"/>
<polygon fill="#63b8ff" stroke="#63b8ff" points="596.15,-139 586.38,-134.91 591.46,-144.2 596.15,-139"/>
</a>
</g>
</g>
<!-- Node19&#45;&gt;Node18 -->
<g id="edge26_Node000019_Node000018" class="edge">
<title>Node19&#45;&gt;Node18</title>
<g id="a_edge26_Node000019_Node000018"><a xlink:title=" ">
<path fill="none" stroke="#63b8ff" d="M659.39,-181.44C688.53,-160.48 763.75,-106.34 800.16,-80.14"/>
<polygon fill="#63b8ff" stroke="#63b8ff" points="802.45,-82.8 808.53,-74.12 798.36,-77.12 802.45,-82.8"/>
</a>
</g>
</g>
<!-- Node20&#45;&gt;Node10 -->
<g id="edge28_Node000020_Node000010" class="edge">
<title>Node20&#45;&gt;Node10</title>
<g id="a_edge28_Node000020_Node000010"><a xlink:title=" ">
<path fill="none" stroke="#63b8ff" d="M307.5,-54.75C307.5,-47.8 307.5,-37.85 307.5,-29.13"/>
<polygon fill="#63b8ff" stroke="#63b8ff" points="311,-29.09 307.5,-19.09 304,-29.09 311,-29.09"/>
</a>
</g>
</g>
<!-- Node20&#45;&gt;Node11 -->
<g id="edge29_Node000020_Node000011" class="edge">
<title>Node20&#45;&gt;Node11</title>
<g id="a_edge29_Node000020_Node000011"><a xlink:title=" ">
<path fill="none" stroke="#63b8ff" d="M332.72,-54.98C358.86,-46.16 399.9,-32.31 429.23,-22.41"/>
<polygon fill="#63b8ff" stroke="#63b8ff" points="430.72,-25.6 439.08,-19.08 428.48,-18.96 430.72,-25.6"/>
</a>
</g>
</g>
<!-- Node20&#45;&gt;Node15 -->
<g id="edge30_Node000020_Node000015" class="edge">
<title>Node20&#45;&gt;Node15</title>
<g id="a_edge30_Node000020_Node000015"><a xlink:title=" ">
<path fill="none" stroke="#63b8ff" d="M348.01,-54.93C388.3,-46.3 451.82,-32.37 506.5,-19 506.6,-18.98 506.7,-18.95 506.8,-18.93"/>
<polygon fill="#63b8ff" stroke="#63b8ff" points="507.66,-22.32 516.5,-16.47 505.94,-15.53 507.66,-22.32"/>
</a>
</g>
</g>
<!-- Node21&#45;&gt;Node22 -->
<g id="edge33_Node000021_Node000022" class="edge">
<title>Node21&#45;&gt;Node22</title>
<g id="a_edge33_Node000021_Node000022"><a xlink:title=" ">
<path fill="none" stroke="#63b8ff" d="M1073.57,-181.37C1066.91,-171.69 1055.94,-155.74 1047.49,-143.44"/>
<polygon fill="#63b8ff" stroke="#63b8ff" points="1050.17,-141.16 1041.62,-134.91 1044.4,-145.13 1050.17,-141.16"/>
</a>
</g>
</g>
</g>
</svg>
