<?xml version="1.0" encoding="UTF-8" standalone="no"?>
<!DOCTYPE svg PUBLIC "-//W3C//DTD SVG 1.1//EN"
 "http://www.w3.org/Graphics/SVG/1.1/DTD/svg11.dtd">
<!-- Generated by graphviz version 2.43.0 (0)
 -->
<!-- Title: Instantiator.cpp Pages: 1 -->
<svg width="2456pt" height="269pt"
 viewBox="0.00 0.00 2455.50 269.00" xmlns="http://www.w3.org/2000/svg" xmlns:xlink="http://www.w3.org/1999/xlink">
<g id="graph0" class="graph" transform="scale(1 1) rotate(0) translate(4 265)">
<title>Instantiator.cpp</title>
<!-- Node1 -->
<g id="Node000001" class="node">
<title>Node1</title>
<g id="a_Node000001"><a xlink:title=" ">
<polygon fill="#999999" stroke="#666666" points="1038,-261 946,-261 946,-242 1038,-242 1038,-261"/>
<text text-anchor="middle" x="992" y="-249" font-family="Helvetica,sans-Serif" font-size="10.00">Instantiator.cpp</text>
</a>
</g>
</g>
<!-- Node2 -->
<g id="Node000002" class="node">
<title>Node2</title>
<g id="a_Node000002"><a xlink:title=" ">
<polygon fill="#e0e0e0" stroke="#999999" points="68,-134.5 0,-134.5 0,-115.5 68,-115.5 68,-134.5"/>
<text text-anchor="middle" x="34" y="-122.5" font-family="Helvetica,sans-Serif" font-size="10.00">filesystem</text>
</a>
</g>
</g>
<!-- Node1&#45;&gt;Node2 -->
<g id="edge1_Node000001_Node000002" class="edge">
<title>Node1&#45;&gt;Node2</title>
<g id="a_edge1_Node000001_Node000002"><a xlink:title=" ">
<path fill="none" stroke="#63b8ff" d="M945.81,-249.98C760.11,-247.69 76.27,-237.17 43,-206 26.61,-190.65 27.25,-163.06 30,-144.64"/>
<polygon fill="#63b8ff" stroke="#63b8ff" points="33.49,-145.01 31.85,-134.54 26.6,-143.75 33.49,-145.01"/>
</a>
</g>
</g>
<!-- Node3 -->
<g id="Node000003" class="node">
<title>Node3</title>
<g id="a_Node000003"><a xlink:title=" ">
<polygon fill="#e0e0e0" stroke="#999999" points="261.5,-200.5 206.5,-200.5 206.5,-181.5 261.5,-181.5 261.5,-200.5"/>
<text text-anchor="middle" x="234" y="-188.5" font-family="Helvetica,sans-Serif" font-size="10.00">fstream</text>
</a>
</g>
</g>
<!-- Node1&#45;&gt;Node3 -->
<g id="edge2_Node000001_Node000003" class="edge">
<title>Node1&#45;&gt;Node3</title>
<g id="a_edge2_Node000001_Node000003"><a xlink:title=" ">
<path fill="none" stroke="#63b8ff" d="M945.97,-249.46C808.2,-246.06 400.66,-233.87 271,-206 268.32,-205.42 265.58,-204.69 262.86,-203.86"/>
<polygon fill="#63b8ff" stroke="#63b8ff" points="263.85,-200.49 253.26,-200.53 261.56,-207.11 263.85,-200.49"/>
</a>
</g>
</g>
<!-- Node4 -->
<g id="Node000004" class="node">
<title>Node4</title>
<g id="a_Node000004"><a xlink:title=" ">
<polygon fill="#e0e0e0" stroke="#999999" points="340,-200.5 280,-200.5 280,-181.5 340,-181.5 340,-200.5"/>
<text text-anchor="middle" x="310" y="-188.5" font-family="Helvetica,sans-Serif" font-size="10.00">iostream</text>
</a>
</g>
</g>
<!-- Node1&#45;&gt;Node4 -->
<g id="edge3_Node000001_Node000004" class="edge">
<title>Node1&#45;&gt;Node4</title>
<g id="a_edge3_Node000001_Node000004"><a xlink:title=" ">
<path fill="none" stroke="#63b8ff" d="M945.6,-248.95C817.89,-244.41 463.17,-229.96 349,-206 346.16,-205.4 343.25,-204.65 340.36,-203.8"/>
<polygon fill="#63b8ff" stroke="#63b8ff" points="341.34,-200.44 330.74,-200.64 339.15,-207.09 341.34,-200.44"/>
</a>
</g>
</g>
<!-- Node5 -->
<g id="Node000005" class="node">
<title>Node5</title>
<g id="a_Node000005"><a xlink:title=" ">
<polygon fill="#e0e0e0" stroke="#999999" points="439.5,-200.5 358.5,-200.5 358.5,-181.5 439.5,-181.5 439.5,-200.5"/>
<text text-anchor="middle" x="399" y="-188.5" font-family="Helvetica,sans-Serif" font-size="10.00">system_error</text>
</a>
</g>
</g>
<!-- Node1&#45;&gt;Node5 -->
<g id="edge4_Node000001_Node000005" class="edge">
<title>Node1&#45;&gt;Node5</title>
<g id="a_edge4_Node000001_Node000005"><a xlink:title=" ">
<path fill="none" stroke="#63b8ff" d="M945.85,-249.69C851.71,-247.38 631.02,-238.63 449,-206 444.59,-205.21 440,-204.2 435.48,-203.08"/>
<polygon fill="#63b8ff" stroke="#63b8ff" points="436.33,-199.68 425.77,-200.51 434.54,-206.45 436.33,-199.68"/>
</a>
</g>
</g>
<!-- Node6 -->
<g id="Node000006" class="node">
<title>Node6</title>
<g id="a_Node000006"><a xlink:title=" ">
<polygon fill="#e0e0e0" stroke="#999999" points="544,-200.5 458,-200.5 458,-181.5 544,-181.5 544,-200.5"/>
<text text-anchor="middle" x="501" y="-188.5" font-family="Helvetica,sans-Serif" font-size="10.00">unordered_set</text>
</a>
</g>
</g>
<!-- Node1&#45;&gt;Node6 -->
<g id="edge5_Node000001_Node000006" class="edge">
<title>Node1&#45;&gt;Node6</title>
<g id="a_edge5_Node000001_Node000006"><a xlink:title=" ">
<path fill="none" stroke="#63b8ff" d="M945.78,-247.87C866.15,-242.88 698.12,-230.27 558,-206 552.92,-205.12 547.63,-204.04 542.39,-202.88"/>
<polygon fill="#63b8ff" stroke="#63b8ff" points="543.03,-199.43 532.49,-200.56 541.43,-206.25 543.03,-199.43"/>
</a>
</g>
</g>
<!-- Node7 -->
<g id="Node000007" class="node">
<title>Node7</title>
<g id="a_Node000007"><a xlink:title=" ">
<polygon fill="#e0e0e0" stroke="#999999" points="389.5,-74 310.5,-74 310.5,-55 389.5,-55 389.5,-74"/>
<text text-anchor="middle" x="350" y="-62" font-family="Helvetica,sans-Serif" font-size="10.00">fmt/ranges.h</text>
</a>
</g>
</g>
<!-- Node1&#45;&gt;Node7 -->
<g id="edge6_Node000001_Node000007" class="edge">
<title>Node1&#45;&gt;Node7</title>
<g id="a_edge6_Node000001_Node000007"><a xlink:title=" ">
<path fill="none" stroke="#63b8ff" d="M945.9,-250.1C875.13,-248.34 736.15,-240.33 624,-206 572.18,-190.13 430.55,-111.26 373.89,-79.14"/>
<polygon fill="#63b8ff" stroke="#63b8ff" points="375.37,-75.95 364.94,-74.06 371.91,-82.04 375.37,-75.95"/>
</a>
</g>
</g>
<!-- Node8 -->
<g id="Node000008" class="node">
<title>Node8</title>
<g id="a_Node000008"><a xlink:title=" ">
<polygon fill="#e0e0e0" stroke="#999999" points="1401.5,-200.5 1340.5,-200.5 1340.5,-181.5 1401.5,-181.5 1401.5,-200.5"/>
<text text-anchor="middle" x="1371" y="-188.5" font-family="Helvetica,sans-Serif" font-size="10.00">fmt/std.h</text>
</a>
</g>
</g>
<!-- Node1&#45;&gt;Node8 -->
<g id="edge7_Node000001_Node000008" class="edge">
<title>Node1&#45;&gt;Node8</title>
<g id="a_edge7_Node000001_Node000008"><a xlink:title=" ">
<path fill="none" stroke="#63b8ff" d="M1038.05,-247.48C1103.77,-242.49 1227.92,-230.53 1331,-206 1333.82,-205.33 1336.72,-204.53 1339.6,-203.67"/>
<polygon fill="#63b8ff" stroke="#63b8ff" points="1340.81,-206.95 1349.24,-200.53 1338.64,-200.3 1340.81,-206.95"/>
</a>
</g>
</g>
<!-- Node9 -->
<g id="Node000009" class="node">
<title>Node9</title>
<g id="a_Node000009"><a xlink:title=" ">
<polygon fill="#e0e0e0" stroke="#999999" points="1516,-200.5 1420,-200.5 1420,-181.5 1516,-181.5 1516,-200.5"/>
<text text-anchor="middle" x="1468" y="-188.5" font-family="Helvetica,sans-Serif" font-size="10.00">spdlog/cfg/env.h</text>
</a>
</g>
</g>
<!-- Node1&#45;&gt;Node9 -->
<g id="edge8_Node000001_Node000009" class="edge">
<title>Node1&#45;&gt;Node9</title>
<g id="a_edge8_Node000001_Node000009"><a xlink:title=" ">
<path fill="none" stroke="#63b8ff" d="M1038.04,-247.58C1115.33,-242.23 1275.89,-229.22 1410,-206 1415.16,-205.11 1420.55,-204.02 1425.87,-202.85"/>
<polygon fill="#63b8ff" stroke="#63b8ff" points="1426.98,-206.18 1435.94,-200.53 1425.41,-199.36 1426.98,-206.18"/>
</a>
</g>
</g>
<!-- Node10 -->
<g id="Node000010" class="node">
<title>Node10</title>
<g id="a_Node000010"><a xlink:title=" ">
<polygon fill="#e0e0e0" stroke="#999999" points="1627.5,-200.5 1534.5,-200.5 1534.5,-181.5 1627.5,-181.5 1627.5,-200.5"/>
<text text-anchor="middle" x="1581" y="-188.5" font-family="Helvetica,sans-Serif" font-size="10.00">spdlog/spdlog.h</text>
</a>
</g>
</g>
<!-- Node1&#45;&gt;Node10 -->
<g id="edge9_Node000001_Node000010" class="edge">
<title>Node1&#45;&gt;Node10</title>
<g id="a_edge9_Node000001_Node000010"><a xlink:title=" ">
<path fill="none" stroke="#63b8ff" d="M1038.3,-249.15C1131.17,-245.89 1346.59,-235.55 1525,-206 1530.12,-205.15 1535.46,-204.07 1540.73,-202.89"/>
<polygon fill="#63b8ff" stroke="#63b8ff" points="1541.75,-206.25 1550.67,-200.53 1540.13,-199.44 1541.75,-206.25"/>
</a>
</g>
</g>
<!-- Node11 -->
<g id="Node000011" class="node">
<title>Node11</title>
<g id="a_Node000011"><a xlink:title=" ">
<polygon fill="#e0e0e0" stroke="#999999" points="1782.5,-200.5 1645.5,-200.5 1645.5,-181.5 1782.5,-181.5 1782.5,-200.5"/>
<text text-anchor="middle" x="1714" y="-188.5" font-family="Helvetica,sans-Serif" font-size="10.00">clang/AST/ASTImporter.h</text>
</a>
</g>
</g>
<!-- Node1&#45;&gt;Node11 -->
<g id="edge10_Node000001_Node000011" class="edge">
<title>Node1&#45;&gt;Node11</title>
<g id="a_edge10_Node000001_Node000011"><a xlink:title=" ">
<path fill="none" stroke="#63b8ff" d="M1038.24,-249.03C1144.27,-245.28 1413,-233.63 1636,-206 1644.15,-204.99 1652.75,-203.69 1661.13,-202.29"/>
<polygon fill="#63b8ff" stroke="#63b8ff" points="1661.96,-205.7 1671.21,-200.54 1660.76,-198.8 1661.96,-205.7"/>
</a>
</g>
</g>
<!-- Node12 -->
<g id="Node000012" class="node">
<title>Node12</title>
<g id="a_Node000012"><a xlink:title=" ">
<polygon fill="#e0e0e0" stroke="#999999" points="1185.5,-140 1024.5,-140 1024.5,-110 1185.5,-110 1185.5,-140"/>
<text text-anchor="start" x="1032.5" y="-128" font-family="Helvetica,sans-Serif" font-size="10.00">clang/ASTMatchers/ASTMatch</text>
<text text-anchor="middle" x="1105" y="-117" font-family="Helvetica,sans-Serif" font-size="10.00">Finder.h</text>
</a>
</g>
</g>
<!-- Node1&#45;&gt;Node12 -->
<g id="edge11_Node000001_Node000012" class="edge">
<title>Node1&#45;&gt;Node12</title>
<g id="a_edge11_Node000001_Node000012"><a xlink:title=" ">
<path fill="none" stroke="#63b8ff" d="M1030.44,-241.9C1050.8,-235.38 1074.52,-224.31 1089,-206 1101.39,-190.32 1104.99,-167.63 1105.71,-150.41"/>
<polygon fill="#63b8ff" stroke="#63b8ff" points="1109.22,-150.06 1105.84,-140.01 1102.22,-149.97 1109.22,-150.06"/>
</a>
</g>
</g>
<!-- Node13 -->
<g id="Node000013" class="node">
<title>Node13</title>
<g id="a_Node000013"><a xlink:title=" ">
<polygon fill="#e0e0e0" stroke="#999999" points="1947.5,-134.5 1762.5,-134.5 1762.5,-115.5 1947.5,-115.5 1947.5,-134.5"/>
<text text-anchor="middle" x="1855" y="-122.5" font-family="Helvetica,sans-Serif" font-size="10.00">clang/ASTMatchers/ASTMatchers.h</text>
</a>
</g>
</g>
<!-- Node1&#45;&gt;Node13 -->
<g id="edge12_Node000001_Node000013" class="edge">
<title>Node1&#45;&gt;Node13</title>
<g id="a_edge12_Node000001_Node000013"><a xlink:title=" ">
<path fill="none" stroke="#63b8ff" d="M1038.14,-250.11C1198.31,-248.47 1724.12,-240.47 1791,-206 1817.13,-192.53 1836.2,-163.1 1846.43,-143.94"/>
<polygon fill="#63b8ff" stroke="#63b8ff" points="1849.69,-145.26 1851.08,-134.76 1843.44,-142.1 1849.69,-145.26"/>
</a>
</g>
</g>
<!-- Node14 -->
<g id="Node000014" class="node">
<title>Node14</title>
<g id="a_Node000014"><a xlink:title=" ">
<polygon fill="#e0e0e0" stroke="#999999" points="2085.5,-206 1976.5,-206 1976.5,-176 2085.5,-176 2085.5,-206"/>
<text text-anchor="start" x="1984.5" y="-194" font-family="Helvetica,sans-Serif" font-size="10.00">clang/Rewrite/Core</text>
<text text-anchor="middle" x="2031" y="-183" font-family="Helvetica,sans-Serif" font-size="10.00">/Rewriter.h</text>
</a>
</g>
</g>
<!-- Node1&#45;&gt;Node14 -->
<g id="edge13_Node000001_Node000014" class="edge">
<title>Node1&#45;&gt;Node14</title>
<g id="a_edge13_Node000001_Node000014"><a xlink:title=" ">
<path fill="none" stroke="#63b8ff" d="M1038.02,-249.46C1202.97,-245.57 1765.06,-230.87 1966.3,-206.03"/>
<polygon fill="#63b8ff" stroke="#63b8ff" points="1966.99,-209.47 1976.47,-204.72 1966.1,-202.53 1966.99,-209.47"/>
</a>
</g>
</g>
<!-- Node15 -->
<g id="Node000015" class="node">
<title>Node15</title>
<g id="a_Node000015"><a xlink:title=" ">
<polygon fill="#e0e0e0" stroke="#999999" points="2268.5,-206 2103.5,-206 2103.5,-176 2268.5,-176 2268.5,-206"/>
<text text-anchor="start" x="2111.5" y="-194" font-family="Helvetica,sans-Serif" font-size="10.00">clang/Tooling/CommonOptions</text>
<text text-anchor="middle" x="2186" y="-183" font-family="Helvetica,sans-Serif" font-size="10.00">Parser.h</text>
</a>
</g>
</g>
<!-- Node1&#45;&gt;Node15 -->
<g id="edge14_Node000001_Node000015" class="edge">
<title>Node1&#45;&gt;Node15</title>
<g id="a_edge14_Node000001_Node000015"><a xlink:title=" ">
<path fill="none" stroke="#63b8ff" d="M1038.1,-250.49C1188.48,-250.07 1678.56,-245.61 2093.14,-206.11"/>
<polygon fill="#63b8ff" stroke="#63b8ff" points="2093.6,-209.58 2103.22,-205.14 2092.93,-202.61 2093.6,-209.58"/>
</a>
</g>
</g>
<!-- Node16 -->
<g id="Node000016" class="node">
<title>Node16</title>
<g id="a_Node000016"><a xlink:title=" ">
<polygon fill="#e0e0e0" stroke="#999999" points="222.5,-134.5 95.5,-134.5 95.5,-115.5 222.5,-115.5 222.5,-134.5"/>
<text text-anchor="middle" x="159" y="-122.5" font-family="Helvetica,sans-Serif" font-size="10.00">clang/Tooling/Tooling.h</text>
</a>
</g>
</g>
<!-- Node1&#45;&gt;Node16 -->
<g id="edge15_Node000001_Node000016" class="edge">
<title>Node1&#45;&gt;Node16</title>
<g id="a_edge15_Node000001_Node000016"><a xlink:title=" ">
<path fill="none" stroke="#63b8ff" d="M945.77,-250.63C785.37,-250.71 259.14,-247.75 197,-206 176.2,-192.02 166.48,-163.41 162.16,-144.47"/>
<polygon fill="#63b8ff" stroke="#63b8ff" points="165.59,-143.74 160.21,-134.61 158.72,-145.1 165.59,-143.74"/>
</a>
</g>
</g>
<!-- Node17 -->
<g id="Node000017" class="node">
<title>Node17</title>
<g id="a_Node000017"><a xlink:title=" ">
<polygon fill="#e0e0e0" stroke="#999999" points="2447.5,-200.5 2286.5,-200.5 2286.5,-181.5 2447.5,-181.5 2447.5,-200.5"/>
<text text-anchor="middle" x="2367" y="-188.5" font-family="Helvetica,sans-Serif" font-size="10.00">llvm/Support/CommandLine.h</text>
</a>
</g>
</g>
<!-- Node1&#45;&gt;Node17 -->
<g id="edge16_Node000001_Node000017" class="edge">
<title>Node1&#45;&gt;Node17</title>
<g id="a_edge16_Node000001_Node000017"><a xlink:title=" ">
<path fill="none" stroke="#63b8ff" d="M1038.27,-250.92C1205.59,-252.03 1794.87,-252.19 2278,-206 2288.27,-205.02 2299.15,-203.61 2309.65,-202.07"/>
<polygon fill="#63b8ff" stroke="#63b8ff" points="2310.2,-205.52 2319.56,-200.56 2309.15,-198.61 2310.2,-205.52"/>
</a>
</g>
</g>
<!-- Node18 -->
<g id="Node000018" class="node">
<title>Node18</title>
<g id="a_Node000018"><a xlink:href="ASTCreation_8hpp.html" target="_top" xlink:title=" ">
<polygon fill="white" stroke="#666666" points="149.5,-200.5 52.5,-200.5 52.5,-181.5 149.5,-181.5 149.5,-200.5"/>
<text text-anchor="middle" x="101" y="-188.5" font-family="Helvetica,sans-Serif" font-size="10.00">ASTCreation.hpp</text>
</a>
</g>
</g>
<!-- Node1&#45;&gt;Node18 -->
<g id="edge17_Node000001_Node000018" class="edge">
<title>Node1&#45;&gt;Node18</title>
<g id="a_edge17_Node000001_Node000018"><a xlink:title=" ">
<path fill="none" stroke="#63b8ff" d="M945.97,-250.68C820.12,-250.6 459.95,-246.55 164,-206 157.66,-205.13 151.02,-203.95 144.52,-202.65"/>
<polygon fill="#63b8ff" stroke="#63b8ff" points="145,-199.17 134.49,-200.52 143.54,-206.02 145,-199.17"/>
</a>
</g>
</g>
<!-- Node19 -->
<g id="Node000019" class="node">
<title>Node19</title>
<g id="a_Node000019"><a xlink:href="DeleteInstantiations_8hpp.html" target="_top" xlink:title=" ">
<polygon fill="white" stroke="#666666" points="1322.5,-200.5 1135.5,-200.5 1135.5,-181.5 1322.5,-181.5 1322.5,-200.5"/>
<text text-anchor="middle" x="1229" y="-188.5" font-family="Helvetica,sans-Serif" font-size="10.00">Callbacks/DeleteInstantiations.hpp</text>
</a>
</g>
</g>
<!-- Node1&#45;&gt;Node19 -->
<g id="edge20_Node000001_Node000019" class="edge">
<title>Node1&#45;&gt;Node19</title>
<g id="a_edge20_Node000001_Node000019"><a xlink:title=" ">
<path fill="none" stroke="#63b8ff" d="M1026.46,-241.99C1068.24,-231.68 1138.72,-214.28 1184.54,-202.97"/>
<polygon fill="#63b8ff" stroke="#63b8ff" points="1185.63,-206.31 1194.5,-200.52 1183.95,-199.52 1185.63,-206.31"/>
</a>
</g>
</g>
<!-- Node20 -->
<g id="Node000020" class="node">
<title>Node20</title>
<g id="a_Node000020"><a xlink:href="GetNeededInstantiations_8hpp.html" target="_top" xlink:title=" ">
<polygon fill="white" stroke="#666666" points="885.5,-200.5 676.5,-200.5 676.5,-181.5 885.5,-181.5 885.5,-200.5"/>
<text text-anchor="middle" x="781" y="-188.5" font-family="Helvetica,sans-Serif" font-size="10.00">Callbacks/GetNeededInstantiations.hpp</text>
</a>
</g>
</g>
<!-- Node1&#45;&gt;Node20 -->
<g id="edge22_Node000001_Node000020" class="edge">
<title>Node1&#45;&gt;Node20</title>
<g id="a_edge22_Node000001_Node000020"><a xlink:title=" ">
<path fill="none" stroke="#63b8ff" d="M961.32,-241.99C924.44,-231.77 862.43,-214.58 821.61,-203.26"/>
<polygon fill="#63b8ff" stroke="#63b8ff" points="822.29,-199.82 811.72,-200.52 820.42,-206.56 822.29,-199.82"/>
</a>
</g>
</g>
<!-- Node22 -->
<g id="Node000022" class="node">
<title>Node22</title>
<g id="a_Node000022"><a xlink:href="Injection_8hpp.html" target="_top" xlink:title=" ">
<polygon fill="white" stroke="#666666" points="821,-134.5 741,-134.5 741,-115.5 821,-115.5 821,-134.5"/>
<text text-anchor="middle" x="781" y="-122.5" font-family="Helvetica,sans-Serif" font-size="10.00">Injection.hpp</text>
</a>
</g>
</g>
<!-- Node1&#45;&gt;Node22 -->
<g id="edge47_Node000001_Node000022" class="edge">
<title>Node1&#45;&gt;Node22</title>
<g id="a_edge47_Node000001_Node000022"><a xlink:title=" ">
<path fill="none" stroke="#63b8ff" d="M945.74,-251.28C864.79,-251.55 702.61,-246.82 667,-206 640.6,-175.74 696.42,-151.08 738.9,-137.48"/>
<polygon fill="#63b8ff" stroke="#63b8ff" points="740.02,-140.8 748.54,-134.51 737.95,-134.11 740.02,-140.8"/>
</a>
</g>
</g>
<!-- Node31 -->
<g id="Node000031" class="node">
<title>Node31</title>
<g id="a_Node000031"><a xlink:href="InjectInstantiation_8hpp.html" target="_top" xlink:title=" ">
<polygon fill="white" stroke="#666666" points="1080,-200.5 904,-200.5 904,-181.5 1080,-181.5 1080,-200.5"/>
<text text-anchor="middle" x="992" y="-188.5" font-family="Helvetica,sans-Serif" font-size="10.00">Callbacks/InjectInstantiation.hpp</text>
</a>
</g>
</g>
<!-- Node1&#45;&gt;Node31 -->
<g id="edge39_Node000001_Node000031" class="edge">
<title>Node1&#45;&gt;Node31</title>
<g id="a_edge39_Node000001_Node000031"><a xlink:title=" ">
<path fill="none" stroke="#63b8ff" d="M992,-241.87C992,-233.75 992,-221.31 992,-210.89"/>
<polygon fill="#63b8ff" stroke="#63b8ff" points="995.5,-210.67 992,-200.67 988.5,-210.67 995.5,-210.67"/>
</a>
</g>
</g>
<!-- Node32 -->
<g id="Node000032" class="node">
<title>Node32</title>
<g id="a_Node000032"><a xlink:href="ProgressBar_8hpp.html" target="_top" xlink:title=" ">
<polygon fill="white" stroke="#666666" points="555.5,-74 446.5,-74 446.5,-55 555.5,-55 555.5,-74"/>
<text text-anchor="middle" x="501" y="-62" font-family="Helvetica,sans-Serif" font-size="10.00">IO/ProgressBar.hpp</text>
</a>
</g>
</g>
<!-- Node1&#45;&gt;Node32 -->
<g id="edge43_Node000001_Node000032" class="edge">
<title>Node1&#45;&gt;Node32</title>
<g id="a_edge43_Node000001_Node000032"><a xlink:title=" ">
<path fill="none" stroke="#63b8ff" d="M945.94,-248.78C865.86,-245.09 704.94,-234.29 657,-206 611.29,-179.03 626.31,-144.52 586,-110 570.35,-96.6 549.97,-85.75 533.09,-78.13"/>
<polygon fill="#63b8ff" stroke="#63b8ff" points="534.19,-74.79 523.62,-74.02 531.4,-81.21 534.19,-74.79"/>
</a>
</g>
</g>
<!-- Node33 -->
<g id="Node000033" class="node">
<title>Node33</title>
<g id="a_Node000033"><a xlink:href="Matcher_8hpp.html" target="_top" xlink:title="AST matcher expressions to filter the relevant nodes for template instantiations.">
<polygon fill="white" stroke="#666666" points="1958.5,-200.5 1839.5,-200.5 1839.5,-181.5 1958.5,-181.5 1958.5,-200.5"/>
<text text-anchor="middle" x="1899" y="-188.5" font-family="Helvetica,sans-Serif" font-size="10.00">Matcher/Matcher.hpp</text>
</a>
</g>
</g>
<!-- Node1&#45;&gt;Node33 -->
<g id="edge48_Node000001_Node000033" class="edge">
<title>Node1&#45;&gt;Node33</title>
<g id="a_edge48_Node000001_Node000033"><a xlink:title=" ">
<path fill="none" stroke="#63b8ff" d="M1038.24,-250.19C1164.69,-248.89 1526.66,-242.03 1825,-206 1832.85,-205.05 1841.12,-203.77 1849.17,-202.37"/>
<polygon fill="#63b8ff" stroke="#63b8ff" points="1850,-205.77 1859.21,-200.54 1848.75,-198.89 1850,-205.77"/>
</a>
</g>
</g>
<!-- Node18&#45;&gt;Node2 -->
<g id="edge18_Node000018_Node000002" class="edge">
<title>Node18&#45;&gt;Node2</title>
<g id="a_edge18_Node000018_Node000002"><a xlink:title=" ">
<path fill="none" stroke="#63b8ff" d="M91.96,-181.37C81.43,-171.31 63.81,-154.48 50.76,-142.01"/>
<polygon fill="#63b8ff" stroke="#63b8ff" points="52.97,-139.28 43.32,-134.91 48.14,-144.34 52.97,-139.28"/>
</a>
</g>
</g>
<!-- Node18&#45;&gt;Node16 -->
<g id="edge19_Node000018_Node000016" class="edge">
<title>Node18&#45;&gt;Node16</title>
<g id="a_edge19_Node000018_Node000016"><a xlink:title=" ">
<path fill="none" stroke="#63b8ff" d="M108.82,-181.37C117.85,-171.4 132.91,-154.79 144.17,-142.36"/>
<polygon fill="#63b8ff" stroke="#63b8ff" points="146.81,-144.67 150.93,-134.91 141.62,-139.96 146.81,-144.67"/>
</a>
</g>
</g>
<!-- Node19&#45;&gt;Node12 -->
<g id="edge21_Node000019_Node000012" class="edge">
<title>Node19&#45;&gt;Node12</title>
<g id="a_edge21_Node000019_Node000012"><a xlink:title=" ">
<path fill="none" stroke="#63b8ff" d="M1212.28,-181.37C1194.19,-172.03 1164.78,-156.86 1141.33,-144.75"/>
<polygon fill="#63b8ff" stroke="#63b8ff" points="1142.84,-141.59 1132.35,-140.12 1139.63,-147.81 1142.84,-141.59"/>
</a>
</g>
</g>
<!-- Node20&#45;&gt;Node12 -->
<g id="edge24_Node000020_Node000012" class="edge">
<title>Node20&#45;&gt;Node12</title>
<g id="a_edge24_Node000020_Node000012"><a xlink:title=" ">
<path fill="none" stroke="#63b8ff" d="M824.36,-181.44C875.26,-171.38 960.76,-154.49 1024.04,-141.99"/>
<polygon fill="#63b8ff" stroke="#63b8ff" points="1024.87,-145.4 1034,-140.02 1023.51,-138.53 1024.87,-145.4"/>
</a>
</g>
</g>
<!-- Node21 -->
<g id="Node000021" class="node">
<title>Node21</title>
<g id="a_Node000021"><a xlink:title=" ">
<polygon fill="#e0e0e0" stroke="#999999" points="1037.5,-74 990.5,-74 990.5,-55 1037.5,-55 1037.5,-74"/>
<text text-anchor="middle" x="1014" y="-62" font-family="Helvetica,sans-Serif" font-size="10.00">vector</text>
</a>
</g>
</g>
<!-- Node20&#45;&gt;Node21 -->
<g id="edge23_Node000020_Node000021" class="edge">
<title>Node20&#45;&gt;Node21</title>
<g id="a_edge23_Node000020_Node000021"><a xlink:title=" ">
<path fill="none" stroke="#63b8ff" d="M797.02,-181.44C836.92,-160.12 941.01,-104.5 989.05,-78.83"/>
<polygon fill="#63b8ff" stroke="#63b8ff" points="990.7,-81.92 997.87,-74.12 987.4,-75.74 990.7,-81.92"/>
</a>
</g>
</g>
<!-- Node20&#45;&gt;Node22 -->
<g id="edge25_Node000020_Node000022" class="edge">
<title>Node20&#45;&gt;Node22</title>
<g id="a_edge25_Node000020_Node000022"><a xlink:title=" ">
<path fill="none" stroke="#63b8ff" d="M781,-181.37C781,-172.16 781,-157.29 781,-145.27"/>
<polygon fill="#63b8ff" stroke="#63b8ff" points="784.5,-144.91 781,-134.91 777.5,-144.91 784.5,-144.91"/>
</a>
</g>
</g>
<!-- Node22&#45;&gt;Node7 -->
<g id="edge30_Node000022_Node000007" class="edge">
<title>Node22&#45;&gt;Node7</title>
<g id="a_edge30_Node000022_Node000007"><a xlink:title=" ">
<path fill="none" stroke="#63b8ff" d="M740.78,-118.99C671.8,-110.33 526.51,-91.76 404,-74 402.53,-73.79 401.04,-73.57 399.54,-73.35"/>
<polygon fill="#63b8ff" stroke="#63b8ff" points="399.91,-69.86 389.5,-71.83 398.87,-76.78 399.91,-69.86"/>
</a>
</g>
</g>
<!-- Node22&#45;&gt;Node21 -->
<g id="edge27_Node000022_Node000021" class="edge">
<title>Node22&#45;&gt;Node21</title>
<g id="a_edge27_Node000022_Node000021"><a xlink:title=" ">
<path fill="none" stroke="#63b8ff" d="M814.88,-115.49C859.17,-104.37 936.27,-85.02 980.41,-73.93"/>
<polygon fill="#63b8ff" stroke="#63b8ff" points="981.51,-77.27 990.36,-71.44 979.8,-70.48 981.51,-77.27"/>
</a>
</g>
</g>
<!-- Node23 -->
<g id="Node000023" class="node">
<title>Node23</title>
<g id="a_Node000023"><a xlink:title=" ">
<polygon fill="#e0e0e0" stroke="#999999" points="667,-19 623,-19 623,0 667,0 667,-19"/>
<text text-anchor="middle" x="645" y="-7" font-family="Helvetica,sans-Serif" font-size="10.00">string</text>
</a>
</g>
</g>
<!-- Node22&#45;&gt;Node23 -->
<g id="edge26_Node000022_Node000023" class="edge">
<title>Node22&#45;&gt;Node23</title>
<g id="a_edge26_Node000022_Node000023"><a xlink:title=" ">
<path fill="none" stroke="#63b8ff" d="M791.78,-115.38C807.53,-101.75 833.36,-74.74 818,-55 779.89,-6.02 742.62,-32.79 676.91,-18.94"/>
<polygon fill="#63b8ff" stroke="#63b8ff" points="677.54,-15.49 667,-16.59 675.92,-22.3 677.54,-15.49"/>
</a>
</g>
</g>
<!-- Node24 -->
<g id="Node000024" class="node">
<title>Node24</title>
<g id="a_Node000024"><a xlink:title=" ">
<polygon fill="#e0e0e0" stroke="#999999" points="1025.5,-19 956.5,-19 956.5,0 1025.5,0 1025.5,-19"/>
<text text-anchor="middle" x="991" y="-7" font-family="Helvetica,sans-Serif" font-size="10.00">fmt/color.h</text>
</a>
</g>
</g>
<!-- Node22&#45;&gt;Node24 -->
<g id="edge28_Node000022_Node000024" class="edge">
<title>Node22&#45;&gt;Node24</title>
<g id="a_edge28_Node000022_Node000024"><a xlink:title=" ">
<path fill="none" stroke="#63b8ff" d="M821,-118.73C855.79,-112.58 906.25,-99.77 943,-74 959.92,-62.14 973.45,-42.48 981.77,-28.17"/>
<polygon fill="#63b8ff" stroke="#63b8ff" points="984.91,-29.72 986.69,-19.28 978.79,-26.34 984.91,-29.72"/>
</a>
</g>
</g>
<!-- Node25 -->
<g id="Node000025" class="node">
<title>Node25</title>
<g id="a_Node000025"><a xlink:title=" ">
<polygon fill="#e0e0e0" stroke="#999999" points="534.5,-19 467.5,-19 467.5,0 534.5,0 534.5,-19"/>
<text text-anchor="middle" x="501" y="-7" font-family="Helvetica,sans-Serif" font-size="10.00">fmt/core.h</text>
</a>
</g>
</g>
<!-- Node22&#45;&gt;Node25 -->
<g id="edge29_Node000022_Node000025" class="edge">
<title>Node22&#45;&gt;Node25</title>
<g id="a_edge29_Node000022_Node000025"><a xlink:title=" ">
<path fill="none" stroke="#63b8ff" d="M740.68,-121.07C654.11,-114.37 456.67,-96.73 437,-74 421.09,-55.61 448.07,-36.15 471.73,-23.7"/>
<polygon fill="#63b8ff" stroke="#63b8ff" points="473.5,-26.73 480.88,-19.12 470.37,-20.47 473.5,-26.73"/>
</a>
</g>
</g>
<!-- Node26 -->
<g id="Node000026" class="node">
<title>Node26</title>
<g id="a_Node000026"><a xlink:title=" ">
<polygon fill="#e0e0e0" stroke="#999999" points="692.5,-74 573.5,-74 573.5,-55 692.5,-55 692.5,-74"/>
<text text-anchor="middle" x="633" y="-62" font-family="Helvetica,sans-Serif" font-size="10.00">clang/AST/DeclCXX.h</text>
</a>
</g>
</g>
<!-- Node22&#45;&gt;Node26 -->
<g id="edge31_Node000022_Node000026" class="edge">
<title>Node22&#45;&gt;Node26</title>
<g id="a_edge31_Node000022_Node000026"><a xlink:title=" ">
<path fill="none" stroke="#63b8ff" d="M759.48,-115.49C734.38,-105.57 692.68,-89.09 664.07,-77.78"/>
<polygon fill="#63b8ff" stroke="#63b8ff" points="665.13,-74.44 654.55,-74.02 662.56,-80.95 665.13,-74.44"/>
</a>
</g>
</g>
<!-- Node27 -->
<g id="Node000027" class="node">
<title>Node27</title>
<g id="a_Node000027"><a xlink:title=" ">
<polygon fill="#e0e0e0" stroke="#999999" points="809.5,-74 710.5,-74 710.5,-55 809.5,-55 809.5,-74"/>
<text text-anchor="middle" x="760" y="-62" font-family="Helvetica,sans-Serif" font-size="10.00">clang/AST/Type.h</text>
</a>
</g>
</g>
<!-- Node22&#45;&gt;Node27 -->
<g id="edge32_Node000022_Node000027" class="edge">
<title>Node22&#45;&gt;Node27</title>
<g id="a_edge32_Node000022_Node000027"><a xlink:title=" ">
<path fill="none" stroke="#63b8ff" d="M777.9,-115.37C774.92,-107.07 770.33,-94.28 766.54,-83.72"/>
<polygon fill="#63b8ff" stroke="#63b8ff" points="769.78,-82.4 763.11,-74.17 763.2,-84.76 769.78,-82.4"/>
</a>
</g>
</g>
<!-- Node28 -->
<g id="Node000028" class="node">
<title>Node28</title>
<g id="a_Node000028"><a xlink:href="Param_8hpp.html" target="_top" xlink:title=" ">
<polygon fill="white" stroke="#666666" points="934,-74 866,-74 866,-55 934,-55 934,-74"/>
<text text-anchor="middle" x="900" y="-62" font-family="Helvetica,sans-Serif" font-size="10.00">Param.hpp</text>
</a>
</g>
</g>
<!-- Node22&#45;&gt;Node28 -->
<g id="edge33_Node000022_Node000028" class="edge">
<title>Node22&#45;&gt;Node28</title>
<g id="a_edge33_Node000022_Node000028"><a xlink:title=" ">
<path fill="none" stroke="#63b8ff" d="M798.3,-115.49C818.05,-105.79 850.55,-89.81 873.49,-78.53"/>
<polygon fill="#63b8ff" stroke="#63b8ff" points="875.25,-81.57 882.68,-74.02 872.16,-75.29 875.25,-81.57"/>
</a>
</g>
</g>
<!-- Node28&#45;&gt;Node23 -->
<g id="edge34_Node000028_Node000023" class="edge">
<title>Node28&#45;&gt;Node23</title>
<g id="a_edge34_Node000028_Node000023"><a xlink:title=" ">
<path fill="none" stroke="#63b8ff" d="M865.68,-57.47C823.48,-49.88 749.47,-36.02 677.04,-19.12"/>
<polygon fill="#63b8ff" stroke="#63b8ff" points="677.84,-15.71 667.3,-16.82 676.23,-22.52 677.84,-15.71"/>
</a>
</g>
</g>
<!-- Node28&#45;&gt;Node24 -->
<g id="edge35_Node000028_Node000024" class="edge">
<title>Node28&#45;&gt;Node24</title>
<g id="a_edge35_Node000028_Node000024"><a xlink:title=" ">
<path fill="none" stroke="#63b8ff" d="M914.62,-54.98C928.86,-46.69 950.75,-33.94 967.45,-24.22"/>
<polygon fill="#63b8ff" stroke="#63b8ff" points="969.23,-27.23 976.11,-19.17 965.71,-21.18 969.23,-27.23"/>
</a>
</g>
</g>
<!-- Node28&#45;&gt;Node25 -->
<g id="edge36_Node000028_Node000025" class="edge">
<title>Node28&#45;&gt;Node25</title>
<g id="a_edge36_Node000028_Node000025"><a xlink:title=" ">
<path fill="none" stroke="#63b8ff" d="M865.98,-58.98C793.75,-49.39 625.12,-26.99 544.9,-16.33"/>
<polygon fill="#63b8ff" stroke="#63b8ff" points="545.02,-12.82 534.65,-14.97 544.1,-19.76 545.02,-12.82"/>
</a>
</g>
</g>
<!-- Node29 -->
<g id="Node000029" class="node">
<title>Node29</title>
<g id="a_Node000029"><a xlink:title=" ">
<polygon fill="#e0e0e0" stroke="#999999" points="783,-19 685,-19 685,0 783,0 783,-19"/>
<text text-anchor="middle" x="734" y="-7" font-family="Helvetica,sans-Serif" font-size="10.00">clang/AST/Decl.h</text>
</a>
</g>
</g>
<!-- Node28&#45;&gt;Node29 -->
<g id="edge37_Node000028_Node000029" class="edge">
<title>Node28&#45;&gt;Node29</title>
<g id="a_edge37_Node000028_Node000029"><a xlink:title=" ">
<path fill="none" stroke="#63b8ff" d="M873.33,-54.98C845.46,-46.09 801.55,-32.07 770.48,-22.15"/>
<polygon fill="#63b8ff" stroke="#63b8ff" points="771.47,-18.79 760.88,-19.08 769.34,-25.46 771.47,-18.79"/>
</a>
</g>
</g>
<!-- Node30 -->
<g id="Node000030" class="node">
<title>Node30</title>
<g id="a_Node000030"><a xlink:title=" ">
<polygon fill="#e0e0e0" stroke="#999999" points="938.5,-19 801.5,-19 801.5,0 938.5,0 938.5,-19"/>
<text text-anchor="middle" x="870" y="-7" font-family="Helvetica,sans-Serif" font-size="10.00">clang/AST/PrettyPrinter.h</text>
</a>
</g>
</g>
<!-- Node28&#45;&gt;Node30 -->
<g id="edge38_Node000028_Node000030" class="edge">
<title>Node28&#45;&gt;Node30</title>
<g id="a_edge38_Node000028_Node000030"><a xlink:title=" ">
<path fill="none" stroke="#63b8ff" d="M895.05,-54.75C890.94,-47.49 884.97,-36.95 879.9,-27.98"/>
<polygon fill="#63b8ff" stroke="#63b8ff" points="882.83,-26.07 874.86,-19.09 876.74,-29.52 882.83,-26.07"/>
</a>
</g>
</g>
<!-- Node31&#45;&gt;Node12 -->
<g id="edge41_Node000031_Node000012" class="edge">
<title>Node31&#45;&gt;Node12</title>
<g id="a_edge41_Node000031_Node000012"><a xlink:title=" ">
<path fill="none" stroke="#63b8ff" d="M1007.24,-181.37C1023.58,-172.11 1050.05,-157.12 1071.32,-145.07"/>
<polygon fill="#63b8ff" stroke="#63b8ff" points="1073.1,-148.09 1080.08,-140.12 1069.65,-142 1073.1,-148.09"/>
</a>
</g>
</g>
<!-- Node31&#45;&gt;Node21 -->
<g id="edge40_Node000031_Node000021" class="edge">
<title>Node31&#45;&gt;Node21</title>
<g id="a_edge40_Node000031_Node000021"><a xlink:title=" ">
<path fill="none" stroke="#63b8ff" d="M993.51,-181.44C997.04,-161.45 1005.9,-111.32 1010.73,-83.98"/>
<polygon fill="#63b8ff" stroke="#63b8ff" points="1014.18,-84.57 1012.48,-74.12 1007.29,-83.36 1014.18,-84.57"/>
</a>
</g>
</g>
<!-- Node31&#45;&gt;Node22 -->
<g id="edge42_Node000031_Node000022" class="edge">
<title>Node31&#45;&gt;Node22</title>
<g id="a_edge42_Node000031_Node000022"><a xlink:title=" ">
<path fill="none" stroke="#63b8ff" d="M963.54,-181.37C926.24,-170.05 860.67,-150.16 819.1,-137.56"/>
<polygon fill="#63b8ff" stroke="#63b8ff" points="819.93,-134.15 809.34,-134.6 817.9,-140.85 819.93,-134.15"/>
</a>
</g>
</g>
<!-- Node32&#45;&gt;Node23 -->
<g id="edge44_Node000032_Node000023" class="edge">
<title>Node32&#45;&gt;Node23</title>
<g id="a_edge44_Node000032_Node000023"><a xlink:title=" ">
<path fill="none" stroke="#63b8ff" d="M524.14,-54.98C548.25,-46.11 586.2,-32.14 613.13,-22.23"/>
<polygon fill="#63b8ff" stroke="#63b8ff" points="614.69,-25.38 622.87,-18.65 612.27,-18.82 614.69,-25.38"/>
</a>
</g>
</g>
<!-- Node32&#45;&gt;Node24 -->
<g id="edge45_Node000032_Node000024" class="edge">
<title>Node32&#45;&gt;Node24</title>
<g id="a_edge45_Node000032_Node000024"><a xlink:title=" ">
<path fill="none" stroke="#63b8ff" d="M555.62,-55.99C558.45,-55.65 561.26,-55.31 564,-55 730.63,-35.94 776.04,-42.96 946.4,-18.93"/>
<polygon fill="#63b8ff" stroke="#63b8ff" points="947.06,-22.38 956.47,-17.5 946.07,-15.45 947.06,-22.38"/>
</a>
</g>
</g>
<!-- Node32&#45;&gt;Node25 -->
<g id="edge46_Node000032_Node000025" class="edge">
<title>Node32&#45;&gt;Node25</title>
<g id="a_edge46_Node000032_Node000025"><a xlink:title=" ">
<path fill="none" stroke="#63b8ff" d="M501,-54.75C501,-47.8 501,-37.85 501,-29.13"/>
<polygon fill="#63b8ff" stroke="#63b8ff" points="504.5,-29.09 501,-19.09 497.5,-29.09 504.5,-29.09"/>
</a>
</g>
</g>
<!-- Node33&#45;&gt;Node13 -->
<g id="edge49_Node000033_Node000013" class="edge">
<title>Node33&#45;&gt;Node13</title>
<g id="a_edge49_Node000033_Node000013"><a xlink:title=" ">
<path fill="none" stroke="#63b8ff" d="M1893.07,-181.37C1886.41,-171.69 1875.44,-155.74 1866.99,-143.44"/>
<polygon fill="#63b8ff" stroke="#63b8ff" points="1869.67,-141.16 1861.12,-134.91 1863.9,-145.13 1869.67,-141.16"/>
</a>
</g>
</g>
</g>
</svg>
