<?xml version="1.0" encoding="UTF-8" standalone="no"?>
<!DOCTYPE svg PUBLIC "-//W3C//DTD SVG 1.1//EN"
 "http://www.w3.org/Graphics/SVG/1.1/DTD/svg11.dtd">
<!-- Generated by graphviz version 2.43.0 (0)
 -->
<!-- Title: Instantiator.cpp Pages: 1 -->
<svg width="2465pt" height="274pt"
 viewBox="0.00 0.00 2464.50 274.00" xmlns="http://www.w3.org/2000/svg" xmlns:xlink="http://www.w3.org/1999/xlink">
<g id="graph0" class="graph" transform="scale(1 1) rotate(0) translate(4 270)">
<title>Instantiator.cpp</title>
<!-- Node1 -->
<g id="node1" class="node">
<title>Node1</title>
<g id="a_node1"><a xlink:title=" ">
<polygon fill="#bfbfbf" stroke="black" points="1195,-246.5 1195,-265.5 1287,-265.5 1287,-246.5 1195,-246.5"/>
<text text-anchor="middle" x="1241" y="-253.5" font-family="Helvetica,sans-Serif" font-size="10.00">Instantiator.cpp</text>
</a>
</g>
</g>
<!-- Node2 -->
<g id="node2" class="node">
<title>Node2</title>
<g id="a_node2"><a xlink:title=" ">
<polygon fill="none" stroke="#bfbfbf" points="0,-185 0,-204 60,-204 60,-185 0,-185"/>
<text text-anchor="middle" x="30" y="-192" font-family="Helvetica,sans-Serif" font-size="10.00">iostream</text>
</a>
</g>
</g>
<!-- Node1&#45;&gt;Node2 -->
<g id="edge1" class="edge">
<title>Node1&#45;&gt;Node2</title>
<path fill="none" stroke="midnightblue" d="M1194.93,-255.18C1006,-255.6 290.14,-254.18 69,-210 65.74,-209.35 62.39,-208.46 59.1,-207.45"/>
<polygon fill="midnightblue" stroke="midnightblue" points="60.08,-204.09 49.49,-204.13 57.79,-210.7 60.08,-204.09"/>
</g>
<!-- Node3 -->
<g id="node3" class="node">
<title>Node3</title>
<g id="a_node3"><a xlink:title=" ">
<polygon fill="none" stroke="#bfbfbf" points="78,-185 78,-204 128,-204 128,-185 78,-185"/>
<text text-anchor="middle" x="103" y="-192" font-family="Helvetica,sans-Serif" font-size="10.00">ranges</text>
</a>
</g>
</g>
<!-- Node1&#45;&gt;Node3 -->
<g id="edge2" class="edge">
<title>Node1&#45;&gt;Node3</title>
<path fill="none" stroke="midnightblue" d="M1194.79,-255.33C1012.5,-256.3 343.18,-256.52 137,-210 134.48,-209.43 131.91,-208.68 129.37,-207.83"/>
<polygon fill="midnightblue" stroke="midnightblue" points="130.48,-204.5 119.89,-204.13 127.94,-211.02 130.48,-204.5"/>
</g>
<!-- Node4 -->
<g id="node4" class="node">
<title>Node4</title>
<g id="a_node4"><a xlink:title=" ">
<polygon fill="none" stroke="#bfbfbf" points="146,-185 146,-204 202,-204 202,-185 146,-185"/>
<text text-anchor="middle" x="174" y="-192" font-family="Helvetica,sans-Serif" font-size="10.00">sstream</text>
</a>
</g>
</g>
<!-- Node1&#45;&gt;Node4 -->
<g id="edge3" class="edge">
<title>Node1&#45;&gt;Node4</title>
<path fill="none" stroke="midnightblue" d="M1194.99,-255C1020.91,-254.67 402.86,-250.61 211,-210 207.99,-209.36 204.91,-208.51 201.87,-207.53"/>
<polygon fill="midnightblue" stroke="midnightblue" points="203.05,-204.24 192.45,-204.11 200.66,-210.81 203.05,-204.24"/>
</g>
<!-- Node5 -->
<g id="node5" class="node">
<title>Node5</title>
<g id="a_node5"><a xlink:title=" ">
<polygon fill="none" stroke="#bfbfbf" points="220.5,-185 220.5,-204 277.5,-204 277.5,-185 220.5,-185"/>
<text text-anchor="middle" x="249" y="-192" font-family="Helvetica,sans-Serif" font-size="10.00">typeinfo</text>
</a>
</g>
</g>
<!-- Node1&#45;&gt;Node5 -->
<g id="edge4" class="edge">
<title>Node1&#45;&gt;Node5</title>
<path fill="none" stroke="midnightblue" d="M1194.74,-254.75C1028.72,-253.57 463.51,-246.85 287,-210 283.92,-209.36 280.76,-208.5 277.64,-207.52"/>
<polygon fill="midnightblue" stroke="midnightblue" points="278.57,-204.13 267.97,-204.09 276.23,-210.73 278.57,-204.13"/>
</g>
<!-- Node6 -->
<g id="node6" class="node">
<title>Node6</title>
<g id="a_node6"><a xlink:title=" ">
<polygon fill="none" stroke="#bfbfbf" points="296,-185 296,-204 382,-204 382,-185 296,-185"/>
<text text-anchor="middle" x="339" y="-192" font-family="Helvetica,sans-Serif" font-size="10.00">unordered_set</text>
</a>
</g>
</g>
<!-- Node1&#45;&gt;Node6 -->
<g id="edge5" class="edge">
<title>Node1&#45;&gt;Node6</title>
<path fill="none" stroke="midnightblue" d="M1194.91,-253.89C1041.33,-249.98 547.86,-235.7 391,-210 385.81,-209.15 380.41,-207.98 375.12,-206.66"/>
<polygon fill="midnightblue" stroke="midnightblue" points="375.77,-203.21 365.2,-204.01 373.96,-209.98 375.77,-203.21"/>
</g>
<!-- Node7 -->
<g id="node7" class="node">
<title>Node7</title>
<g id="a_node7"><a xlink:title=" ">
<polygon fill="none" stroke="#bfbfbf" points="400,-185 400,-204 534,-204 534,-185 400,-185"/>
<text text-anchor="middle" x="467" y="-192" font-family="Helvetica,sans-Serif" font-size="10.00">termcolor/termcolor.hpp</text>
</a>
</g>
</g>
<!-- Node1&#45;&gt;Node7 -->
<g id="edge6" class="edge">
<title>Node1&#45;&gt;Node7</title>
<path fill="none" stroke="midnightblue" d="M1194.66,-254C1082.43,-251.14 787.24,-241.05 543,-210 534.48,-208.92 525.47,-207.47 516.75,-205.91"/>
<polygon fill="midnightblue" stroke="midnightblue" points="517.16,-202.42 506.69,-204.04 515.88,-209.31 517.16,-202.42"/>
</g>
<!-- Node8 -->
<g id="node8" class="node">
<title>Node8</title>
<g id="a_node8"><a xlink:title=" ">
<polygon fill="none" stroke="#bfbfbf" points="552.5,-185 552.5,-204 731.5,-204 731.5,-185 552.5,-185"/>
<text text-anchor="middle" x="642" y="-192" font-family="Helvetica,sans-Serif" font-size="10.00">clang/Frontend/FrontendActions.h</text>
</a>
</g>
</g>
<!-- Node1&#45;&gt;Node8 -->
<g id="edge7" class="edge">
<title>Node1&#45;&gt;Node8</title>
<path fill="none" stroke="midnightblue" d="M1194.97,-251.75C1106.62,-245.32 907.15,-229.86 740,-210 729.02,-208.7 717.37,-207.13 706.08,-205.52"/>
<polygon fill="midnightblue" stroke="midnightblue" points="706.24,-202.01 695.84,-204.03 705.23,-208.93 706.24,-202.01"/>
</g>
<!-- Node9 -->
<g id="node9" class="node">
<title>Node9</title>
<g id="a_node9"><a xlink:title=" ">
<polygon fill="none" stroke="#bfbfbf" points="749.5,-179.5 749.5,-209.5 914.5,-209.5 914.5,-179.5 749.5,-179.5"/>
<text text-anchor="start" x="757.5" y="-197.5" font-family="Helvetica,sans-Serif" font-size="10.00">clang/Tooling/CommonOptions</text>
<text text-anchor="middle" x="832" y="-186.5" font-family="Helvetica,sans-Serif" font-size="10.00">Parser.h</text>
</a>
</g>
</g>
<!-- Node1&#45;&gt;Node9 -->
<g id="edge8" class="edge">
<title>Node1&#45;&gt;Node9</title>
<path fill="none" stroke="midnightblue" d="M1194.88,-248.73C1134.98,-240.53 1026.88,-225.54 924.98,-210.28"/>
<polygon fill="midnightblue" stroke="midnightblue" points="925.23,-206.78 914.82,-208.76 924.19,-213.7 925.23,-206.78"/>
</g>
<!-- Node10 -->
<g id="node10" class="node">
<title>Node10</title>
<g id="a_node10"><a xlink:title=" ">
<polygon fill="none" stroke="#bfbfbf" points="932.5,-185 932.5,-204 1059.5,-204 1059.5,-185 932.5,-185"/>
<text text-anchor="middle" x="996" y="-192" font-family="Helvetica,sans-Serif" font-size="10.00">clang/Tooling/Tooling.h</text>
</a>
</g>
</g>
<!-- Node1&#45;&gt;Node10 -->
<g id="edge9" class="edge">
<title>Node1&#45;&gt;Node10</title>
<path fill="none" stroke="midnightblue" d="M1205.9,-246.48C1162.51,-235.94 1088.59,-217.99 1041.05,-206.44"/>
<polygon fill="midnightblue" stroke="midnightblue" points="1041.58,-202.97 1031.04,-204.01 1039.93,-209.77 1041.58,-202.97"/>
</g>
<!-- Node11 -->
<g id="node11" class="node">
<title>Node11</title>
<g id="a_node11"><a xlink:title=" ">
<polygon fill="none" stroke="#bfbfbf" points="1077.5,-185 1077.5,-204 1238.5,-204 1238.5,-185 1077.5,-185"/>
<text text-anchor="middle" x="1158" y="-192" font-family="Helvetica,sans-Serif" font-size="10.00">llvm/Support/CommandLine.h</text>
</a>
</g>
</g>
<!-- Node1&#45;&gt;Node11 -->
<g id="edge10" class="edge">
<title>Node1&#45;&gt;Node11</title>
<path fill="none" stroke="midnightblue" d="M1229.11,-246.48C1215.8,-236.93 1194,-221.31 1178.04,-209.87"/>
<polygon fill="midnightblue" stroke="midnightblue" points="1180.04,-206.99 1169.87,-204.01 1175.96,-212.68 1180.04,-206.99"/>
</g>
<!-- Node12 -->
<g id="node12" class="node">
<title>Node12</title>
<g id="a_node12"><a xlink:title=" ">
<polygon fill="none" stroke="#bfbfbf" points="1256.5,-185 1256.5,-204 1393.5,-204 1393.5,-185 1256.5,-185"/>
<text text-anchor="middle" x="1325" y="-192" font-family="Helvetica,sans-Serif" font-size="10.00">clang/AST/ASTImporter.h</text>
</a>
</g>
</g>
<!-- Node1&#45;&gt;Node12 -->
<g id="edge11" class="edge">
<title>Node1&#45;&gt;Node12</title>
<path fill="none" stroke="midnightblue" d="M1253.04,-246.48C1266.51,-236.93 1288.57,-221.31 1304.72,-209.87"/>
<polygon fill="midnightblue" stroke="midnightblue" points="1306.85,-212.65 1312.99,-204.01 1302.8,-206.93 1306.85,-212.65"/>
</g>
<!-- Node13 -->
<g id="node13" class="node">
<title>Node13</title>
<g id="a_node13"><a xlink:title=" ">
<polygon fill="none" stroke="#bfbfbf" points="1595.5,-112.5 1595.5,-142.5 1756.5,-142.5 1756.5,-112.5 1595.5,-112.5"/>
<text text-anchor="start" x="1603.5" y="-130.5" font-family="Helvetica,sans-Serif" font-size="10.00">clang/ASTMatchers/ASTMatch</text>
<text text-anchor="middle" x="1676" y="-119.5" font-family="Helvetica,sans-Serif" font-size="10.00">Finder.h</text>
</a>
</g>
</g>
<!-- Node1&#45;&gt;Node13 -->
<g id="edge12" class="edge">
<title>Node1&#45;&gt;Node13</title>
<path fill="none" stroke="midnightblue" d="M1287.09,-255.72C1380.96,-256.26 1590.12,-252.52 1645,-210 1662.69,-196.3 1670.29,-171.25 1673.55,-152.52"/>
<polygon fill="midnightblue" stroke="midnightblue" points="1677.01,-153.02 1674.98,-142.62 1670.08,-152.02 1677.01,-153.02"/>
</g>
<!-- Node14 -->
<g id="node14" class="node">
<title>Node14</title>
<g id="a_node14"><a xlink:title=" ">
<polygon fill="none" stroke="#bfbfbf" points="2113.5,-118 2113.5,-137 2298.5,-137 2298.5,-118 2113.5,-118"/>
<text text-anchor="middle" x="2206" y="-125" font-family="Helvetica,sans-Serif" font-size="10.00">clang/ASTMatchers/ASTMatchers.h</text>
</a>
</g>
</g>
<!-- Node1&#45;&gt;Node14 -->
<g id="edge13" class="edge">
<title>Node1&#45;&gt;Node14</title>
<path fill="none" stroke="midnightblue" d="M1287,-254.56C1457.33,-252.65 2046.27,-243.68 2123,-210 2154.29,-196.27 2180.48,-165.08 2194.64,-145.52"/>
<polygon fill="midnightblue" stroke="midnightblue" points="2197.58,-147.41 2200.43,-137.21 2191.84,-143.41 2197.58,-147.41"/>
</g>
<!-- Node15 -->
<g id="node15" class="node">
<title>Node15</title>
<g id="a_node15"><a xlink:title=" ">
<polygon fill="none" stroke="#bfbfbf" points="1424.5,-112.5 1424.5,-142.5 1533.5,-142.5 1533.5,-112.5 1424.5,-112.5"/>
<text text-anchor="start" x="1432.5" y="-130.5" font-family="Helvetica,sans-Serif" font-size="10.00">clang/Rewrite/Core</text>
<text text-anchor="middle" x="1479" y="-119.5" font-family="Helvetica,sans-Serif" font-size="10.00">/Rewriter.h</text>
</a>
</g>
</g>
<!-- Node1&#45;&gt;Node15 -->
<g id="edge14" class="edge">
<title>Node1&#45;&gt;Node15</title>
<path fill="none" stroke="midnightblue" d="M1287,-248.91C1320.72,-242.9 1366.59,-231.38 1402,-210 1427.18,-194.8 1449.45,-169.16 1463.49,-150.69"/>
<polygon fill="midnightblue" stroke="midnightblue" points="1466.39,-152.65 1469.51,-142.53 1460.76,-148.49 1466.39,-152.65"/>
</g>
<!-- Node16 -->
<g id="node16" class="node">
<title>Node16</title>
<g id="a_node16"><a xlink:title=" ">
<polygon fill="none" stroke="#bfbfbf" points="2327.5,-179.5 2327.5,-209.5 2456.5,-209.5 2456.5,-179.5 2327.5,-179.5"/>
<text text-anchor="start" x="2335.5" y="-197.5" font-family="Helvetica,sans-Serif" font-size="10.00">clang/Rewrite/Frontend</text>
<text text-anchor="middle" x="2392" y="-186.5" font-family="Helvetica,sans-Serif" font-size="10.00">/Rewriters.h</text>
</a>
</g>
</g>
<!-- Node1&#45;&gt;Node16 -->
<g id="edge15" class="edge">
<title>Node1&#45;&gt;Node16</title>
<path fill="none" stroke="midnightblue" d="M1287.12,-254.02C1463.36,-250.15 2095,-234.9 2317.25,-210.06"/>
<polygon fill="midnightblue" stroke="midnightblue" points="2317.67,-213.54 2327.2,-208.91 2316.87,-206.58 2317.67,-213.54"/>
</g>
<!-- Node17 -->
<g id="node17" class="node">
<title>Node17</title>
<g id="a_node17"><a xlink:href="Injection_8hpp.html" target="_top" xlink:title=" ">
<polygon fill="none" stroke="black" points="1969,-118 1969,-137 2049,-137 2049,-118 1969,-118"/>
<text text-anchor="middle" x="2009" y="-125" font-family="Helvetica,sans-Serif" font-size="10.00">Injection.hpp</text>
</a>
</g>
</g>
<!-- Node1&#45;&gt;Node17 -->
<g id="edge16" class="edge">
<title>Node1&#45;&gt;Node17</title>
<path fill="none" stroke="midnightblue" d="M1287.25,-254.33C1462.42,-251.59 2076.64,-239.87 2105,-210 2130.56,-183.07 2079.96,-156.01 2043,-140.83"/>
<polygon fill="midnightblue" stroke="midnightblue" points="2044.07,-137.49 2033.48,-137.06 2041.49,-144 2044.07,-137.49"/>
</g>
<!-- Node29 -->
<g id="node29" class="node">
<title>Node29</title>
<g id="a_node29"><a xlink:href="DeleteInstantiations_8hpp.html" target="_top" xlink:title=" ">
<polygon fill="none" stroke="black" points="1449.5,-185 1449.5,-204 1636.5,-204 1636.5,-185 1449.5,-185"/>
<text text-anchor="middle" x="1543" y="-192" font-family="Helvetica,sans-Serif" font-size="10.00">Callbacks/DeleteInstantiations.hpp</text>
</a>
</g>
</g>
<!-- Node1&#45;&gt;Node29 -->
<g id="edge29" class="edge">
<title>Node1&#45;&gt;Node29</title>
<path fill="none" stroke="midnightblue" d="M1284.27,-246.48C1338.43,-235.8 1431.17,-217.53 1489.66,-206.01"/>
<polygon fill="midnightblue" stroke="midnightblue" points="1490.68,-209.38 1499.81,-204.01 1489.32,-202.51 1490.68,-209.38"/>
</g>
<!-- Node30 -->
<g id="node30" class="node">
<title>Node30</title>
<g id="a_node30"><a xlink:href="GetNeededInstantiations_8hpp.html" target="_top" xlink:title=" ">
<polygon fill="none" stroke="black" points="1692.5,-185 1692.5,-204 1901.5,-204 1901.5,-185 1692.5,-185"/>
<text text-anchor="middle" x="1797" y="-192" font-family="Helvetica,sans-Serif" font-size="10.00">Callbacks/GetNeededInstantiations.hpp</text>
</a>
</g>
</g>
<!-- Node1&#45;&gt;Node30 -->
<g id="edge32" class="edge">
<title>Node1&#45;&gt;Node30</title>
<path fill="none" stroke="midnightblue" d="M1287.28,-250.52C1367.07,-242.73 1535.7,-225.99 1678,-210 1691.1,-208.53 1705.01,-206.9 1718.52,-205.27"/>
<polygon fill="midnightblue" stroke="midnightblue" points="1719.24,-208.71 1728.75,-204.04 1718.4,-201.76 1719.24,-208.71"/>
</g>
<!-- Node31 -->
<g id="node31" class="node">
<title>Node31</title>
<g id="a_node31"><a xlink:href="InjectInstantiation_8hpp.html" target="_top" xlink:title=" ">
<polygon fill="none" stroke="black" points="1920,-185 1920,-204 2096,-204 2096,-185 1920,-185"/>
<text text-anchor="middle" x="2008" y="-192" font-family="Helvetica,sans-Serif" font-size="10.00">Callbacks/InjectInstantiation.hpp</text>
</a>
</g>
</g>
<!-- Node1&#45;&gt;Node31 -->
<g id="edge36" class="edge">
<title>Node1&#45;&gt;Node31</title>
<path fill="none" stroke="midnightblue" d="M1287.34,-253.16C1396.23,-248.55 1676.78,-235.06 1910,-210 1921.51,-208.76 1933.74,-207.18 1945.51,-205.51"/>
<polygon fill="midnightblue" stroke="midnightblue" points="1946.32,-208.93 1955.71,-204.02 1945.31,-202 1946.32,-208.93"/>
</g>
<!-- Node32 -->
<g id="node32" class="node">
<title>Node32</title>
<g id="a_node32"><a xlink:href="Matcher_8hpp.html" target="_top" xlink:title=" ">
<polygon fill="none" stroke="black" points="2190.5,-185 2190.5,-204 2309.5,-204 2309.5,-185 2190.5,-185"/>
<text text-anchor="middle" x="2250" y="-192" font-family="Helvetica,sans-Serif" font-size="10.00">Matcher/Matcher.hpp</text>
</a>
</g>
</g>
<!-- Node1&#45;&gt;Node32 -->
<g id="edge40" class="edge">
<title>Node1&#45;&gt;Node32</title>
<path fill="none" stroke="midnightblue" d="M1287.41,-255.15C1424.09,-255.07 1836.8,-251.17 2176,-210 2184.5,-208.97 2193.49,-207.52 2202.16,-205.93"/>
<polygon fill="midnightblue" stroke="midnightblue" points="2202.98,-209.33 2212.14,-204.02 2201.66,-202.46 2202.98,-209.33"/>
</g>
<!-- Node18 -->
<g id="node18" class="node">
<title>Node18</title>
<g id="a_node18"><a xlink:title=" ">
<polygon fill="none" stroke="#bfbfbf" points="2316,-56.5 2316,-75.5 2372,-75.5 2372,-56.5 2316,-56.5"/>
<text text-anchor="middle" x="2344" y="-63.5" font-family="Helvetica,sans-Serif" font-size="10.00">optional</text>
</a>
</g>
</g>
<!-- Node17&#45;&gt;Node18 -->
<g id="edge17" class="edge">
<title>Node17&#45;&gt;Node18</title>
<path fill="none" stroke="midnightblue" d="M2049.17,-120.62C2104.67,-112.28 2208.1,-96.03 2305.73,-76.15"/>
<polygon fill="midnightblue" stroke="midnightblue" points="2306.67,-79.53 2315.76,-74.09 2305.26,-72.67 2306.67,-79.53"/>
</g>
<!-- Node19 -->
<g id="node19" class="node">
<title>Node19</title>
<g id="a_node19"><a xlink:title=" ">
<polygon fill="none" stroke="#bfbfbf" points="2207,-0.5 2207,-19.5 2251,-19.5 2251,-0.5 2207,-0.5"/>
<text text-anchor="middle" x="2229" y="-7.5" font-family="Helvetica,sans-Serif" font-size="10.00">string</text>
</a>
</g>
</g>
<!-- Node17&#45;&gt;Node19 -->
<g id="edge18" class="edge">
<title>Node17&#45;&gt;Node19</title>
<path fill="none" stroke="midnightblue" d="M2049.14,-120.25C2066.33,-117.62 2086.64,-114.58 2105,-112 2166.25,-103.38 2340.19,-122.48 2381,-76 2416.95,-35.06 2315.99,-19.09 2261.41,-13.58"/>
<polygon fill="midnightblue" stroke="midnightblue" points="2261.45,-10.06 2251.17,-12.61 2260.79,-17.03 2261.45,-10.06"/>
</g>
<!-- Node20 -->
<g id="node20" class="node">
<title>Node20</title>
<g id="a_node20"><a xlink:title=" ">
<polygon fill="none" stroke="#bfbfbf" points="1773.5,-56.5 1773.5,-75.5 1820.5,-75.5 1820.5,-56.5 1773.5,-56.5"/>
<text text-anchor="middle" x="1797" y="-63.5" font-family="Helvetica,sans-Serif" font-size="10.00">vector</text>
</a>
</g>
</g>
<!-- Node17&#45;&gt;Node20 -->
<g id="edge19" class="edge">
<title>Node17&#45;&gt;Node20</title>
<path fill="none" stroke="midnightblue" d="M1978.63,-117.98C1939.36,-106.96 1871.21,-87.83 1830.49,-76.4"/>
<polygon fill="midnightblue" stroke="midnightblue" points="1831.33,-73 1820.76,-73.67 1829.44,-79.74 1831.33,-73"/>
</g>
<!-- Node21 -->
<g id="node21" class="node">
<title>Node21</title>
<g id="a_node21"><a xlink:title=" ">
<polygon fill="none" stroke="#bfbfbf" points="1925,-56.5 1925,-75.5 2043,-75.5 2043,-56.5 1925,-56.5"/>
<text text-anchor="middle" x="1984" y="-63.5" font-family="Helvetica,sans-Serif" font-size="10.00">llvm/ADT/StringRef.h</text>
</a>
</g>
</g>
<!-- Node17&#45;&gt;Node21 -->
<g id="edge20" class="edge">
<title>Node17&#45;&gt;Node21</title>
<path fill="none" stroke="midnightblue" d="M2005.42,-117.98C2001.82,-109.4 1996.15,-95.93 1991.56,-84.98"/>
<polygon fill="midnightblue" stroke="midnightblue" points="1994.68,-83.37 1987.58,-75.51 1988.22,-86.08 1994.68,-83.37"/>
</g>
<!-- Node22 -->
<g id="node22" class="node">
<title>Node22</title>
<g id="a_node22"><a xlink:title=" ">
<polygon fill="none" stroke="#bfbfbf" points="2061.5,-56.5 2061.5,-75.5 2180.5,-75.5 2180.5,-56.5 2061.5,-56.5"/>
<text text-anchor="middle" x="2121" y="-63.5" font-family="Helvetica,sans-Serif" font-size="10.00">clang/AST/DeclCXX.h</text>
</a>
</g>
</g>
<!-- Node17&#45;&gt;Node22 -->
<g id="edge21" class="edge">
<title>Node17&#45;&gt;Node22</title>
<path fill="none" stroke="midnightblue" d="M2025.05,-117.98C2043.59,-108.12 2074.34,-91.79 2096.02,-80.27"/>
<polygon fill="midnightblue" stroke="midnightblue" points="2097.79,-83.29 2104.98,-75.51 2094.51,-77.11 2097.79,-83.29"/>
</g>
<!-- Node23 -->
<g id="node23" class="node">
<title>Node23</title>
<g id="a_node23"><a xlink:title=" ">
<polygon fill="none" stroke="#bfbfbf" points="2198.5,-56.5 2198.5,-75.5 2297.5,-75.5 2297.5,-56.5 2198.5,-56.5"/>
<text text-anchor="middle" x="2248" y="-63.5" font-family="Helvetica,sans-Serif" font-size="10.00">clang/AST/Type.h</text>
</a>
</g>
</g>
<!-- Node17&#45;&gt;Node23 -->
<g id="edge22" class="edge">
<title>Node17&#45;&gt;Node23</title>
<path fill="none" stroke="midnightblue" d="M2043.24,-117.98C2085.57,-107.44 2157.68,-89.49 2204.05,-77.94"/>
<polygon fill="midnightblue" stroke="midnightblue" points="2204.96,-81.32 2213.82,-75.51 2203.27,-74.53 2204.96,-81.32"/>
</g>
<!-- Node24 -->
<g id="node24" class="node">
<title>Node24</title>
<g id="a_node24"><a xlink:href="Param_8hpp.html" target="_top" xlink:title=" ">
<polygon fill="none" stroke="black" points="1839,-56.5 1839,-75.5 1907,-75.5 1907,-56.5 1839,-56.5"/>
<text text-anchor="middle" x="1873" y="-63.5" font-family="Helvetica,sans-Serif" font-size="10.00">Param.hpp</text>
</a>
</g>
</g>
<!-- Node17&#45;&gt;Node24 -->
<g id="edge23" class="edge">
<title>Node17&#45;&gt;Node24</title>
<path fill="none" stroke="midnightblue" d="M1989.51,-117.98C1966.59,-107.95 1928.31,-91.2 1901.92,-79.65"/>
<polygon fill="midnightblue" stroke="midnightblue" points="1903.01,-76.31 1892.45,-75.51 1900.21,-82.72 1903.01,-76.31"/>
</g>
<!-- Node24&#45;&gt;Node19 -->
<g id="edge25" class="edge">
<title>Node24&#45;&gt;Node19</title>
<path fill="none" stroke="midnightblue" d="M1907.23,-57.63C1910.19,-57.06 1913.15,-56.5 1916,-56 2018.09,-38 2139.87,-22.07 2196.75,-14.95"/>
<polygon fill="midnightblue" stroke="midnightblue" points="2197.42,-18.39 2206.91,-13.69 2196.56,-11.45 2197.42,-18.39"/>
</g>
<!-- Node25 -->
<g id="node25" class="node">
<title>Node25</title>
<g id="a_node25"><a xlink:title=" ">
<polygon fill="none" stroke="#bfbfbf" points="1902.5,-0.5 1902.5,-19.5 1959.5,-19.5 1959.5,-0.5 1902.5,-0.5"/>
<text text-anchor="middle" x="1931" y="-7.5" font-family="Helvetica,sans-Serif" font-size="10.00">ostream</text>
</a>
</g>
</g>
<!-- Node24&#45;&gt;Node25 -->
<g id="edge24" class="edge">
<title>Node24&#45;&gt;Node25</title>
<path fill="none" stroke="midnightblue" d="M1882.32,-56.32C1890.89,-48.34 1903.81,-36.31 1914.19,-26.65"/>
<polygon fill="midnightblue" stroke="midnightblue" points="1916.58,-29.21 1921.51,-19.83 1911.81,-24.09 1916.58,-29.21"/>
</g>
<!-- Node26 -->
<g id="node26" class="node">
<title>Node26</title>
<g id="a_node26"><a xlink:title=" ">
<polygon fill="none" stroke="#bfbfbf" points="1978,-0.5 1978,-19.5 2076,-19.5 2076,-0.5 1978,-0.5"/>
<text text-anchor="middle" x="2027" y="-7.5" font-family="Helvetica,sans-Serif" font-size="10.00">clang/AST/Decl.h</text>
</a>
</g>
</g>
<!-- Node24&#45;&gt;Node26 -->
<g id="edge26" class="edge">
<title>Node24&#45;&gt;Node26</title>
<path fill="none" stroke="midnightblue" d="M1897.4,-56.44C1923.2,-47.4 1964.08,-33.06 1993.02,-22.92"/>
<polygon fill="midnightblue" stroke="midnightblue" points="1994.43,-26.13 2002.71,-19.52 1992.12,-19.52 1994.43,-26.13"/>
</g>
<!-- Node27 -->
<g id="node27" class="node">
<title>Node27</title>
<g id="a_node27"><a xlink:title=" ">
<polygon fill="none" stroke="#bfbfbf" points="1565,-0.5 1565,-19.5 1729,-19.5 1729,-0.5 1565,-0.5"/>
<text text-anchor="middle" x="1647" y="-7.5" font-family="Helvetica,sans-Serif" font-size="10.00">clang/AST/DependenceFlags.h</text>
</a>
</g>
</g>
<!-- Node24&#45;&gt;Node27 -->
<g id="edge27" class="edge">
<title>Node24&#45;&gt;Node27</title>
<path fill="none" stroke="midnightblue" d="M1838.68,-56.8C1799.69,-47.48 1735.91,-32.24 1692.73,-21.93"/>
<polygon fill="midnightblue" stroke="midnightblue" points="1693.31,-18.47 1682.77,-19.55 1691.68,-25.27 1693.31,-18.47"/>
</g>
<!-- Node28 -->
<g id="node28" class="node">
<title>Node28</title>
<g id="a_node28"><a xlink:title=" ">
<polygon fill="none" stroke="#bfbfbf" points="1747.5,-0.5 1747.5,-19.5 1884.5,-19.5 1884.5,-0.5 1747.5,-0.5"/>
<text text-anchor="middle" x="1816" y="-7.5" font-family="Helvetica,sans-Serif" font-size="10.00">clang/AST/PrettyPrinter.h</text>
</a>
</g>
</g>
<!-- Node24&#45;&gt;Node28 -->
<g id="edge28" class="edge">
<title>Node24&#45;&gt;Node28</title>
<path fill="none" stroke="midnightblue" d="M1863.84,-56.32C1855.5,-48.42 1842.97,-36.55 1832.82,-26.94"/>
<polygon fill="midnightblue" stroke="midnightblue" points="1834.99,-24.17 1825.32,-19.83 1830.18,-29.25 1834.99,-24.17"/>
</g>
<!-- Node29&#45;&gt;Node13 -->
<g id="edge30" class="edge">
<title>Node29&#45;&gt;Node13</title>
<path fill="none" stroke="midnightblue" d="M1560.66,-184.87C1580.36,-175.24 1612.8,-159.39 1638.27,-146.94"/>
<polygon fill="midnightblue" stroke="midnightblue" points="1639.85,-150.06 1647.3,-142.53 1636.78,-143.77 1639.85,-150.06"/>
</g>
<!-- Node29&#45;&gt;Node15 -->
<g id="edge31" class="edge">
<title>Node29&#45;&gt;Node15</title>
<path fill="none" stroke="midnightblue" d="M1534.37,-184.73C1525.64,-175.86 1511.8,-161.81 1500.14,-149.97"/>
<polygon fill="midnightblue" stroke="midnightblue" points="1502.38,-147.26 1492.87,-142.59 1497.39,-152.17 1502.38,-147.26"/>
</g>
<!-- Node30&#45;&gt;Node13 -->
<g id="edge34" class="edge">
<title>Node30&#45;&gt;Node13</title>
<path fill="none" stroke="midnightblue" d="M1780.68,-184.73C1762.99,-175.23 1734.22,-159.78 1711.32,-147.47"/>
<polygon fill="midnightblue" stroke="midnightblue" points="1712.69,-144.24 1702.23,-142.59 1709.38,-150.4 1712.69,-144.24"/>
</g>
<!-- Node30&#45;&gt;Node17 -->
<g id="edge35" class="edge">
<title>Node30&#45;&gt;Node17</title>
<path fill="none" stroke="midnightblue" d="M1825.15,-184.87C1862.79,-173.33 1929.63,-152.84 1971.51,-140"/>
<polygon fill="midnightblue" stroke="midnightblue" points="1972.53,-143.34 1981.07,-137.06 1970.48,-136.65 1972.53,-143.34"/>
</g>
<!-- Node30&#45;&gt;Node20 -->
<g id="edge33" class="edge">
<title>Node30&#45;&gt;Node20</title>
<path fill="none" stroke="midnightblue" d="M1797,-184.81C1797,-164.49 1797,-113.55 1797,-85.78"/>
<polygon fill="midnightblue" stroke="midnightblue" points="1800.5,-85.76 1797,-75.76 1793.5,-85.76 1800.5,-85.76"/>
</g>
<!-- Node31&#45;&gt;Node13 -->
<g id="edge38" class="edge">
<title>Node31&#45;&gt;Node13</title>
<path fill="none" stroke="midnightblue" d="M1964.26,-184.94C1911.83,-174.67 1822.91,-157.26 1757.66,-144.49"/>
<polygon fill="midnightblue" stroke="midnightblue" points="1758.3,-141.05 1747.81,-142.56 1756.95,-147.92 1758.3,-141.05"/>
</g>
<!-- Node31&#45;&gt;Node17 -->
<g id="edge39" class="edge">
<title>Node31&#45;&gt;Node17</title>
<path fill="none" stroke="midnightblue" d="M2008.13,-184.73C2008.28,-175.18 2008.52,-159.62 2008.71,-147.28"/>
<polygon fill="midnightblue" stroke="midnightblue" points="2012.21,-147.18 2008.87,-137.13 2005.21,-147.07 2012.21,-147.18"/>
</g>
<!-- Node31&#45;&gt;Node20 -->
<g id="edge37" class="edge">
<title>Node31&#45;&gt;Node20</title>
<path fill="none" stroke="midnightblue" d="M1993.5,-184.81C1957.5,-163.22 1863.82,-107.06 1820.1,-80.85"/>
<polygon fill="midnightblue" stroke="midnightblue" points="1821.7,-77.73 1811.33,-75.59 1818.1,-83.73 1821.7,-77.73"/>
</g>
<!-- Node32&#45;&gt;Node14 -->
<g id="edge41" class="edge">
<title>Node32&#45;&gt;Node14</title>
<path fill="none" stroke="midnightblue" d="M2244.07,-184.73C2237.27,-174.7 2225.98,-158.01 2217.45,-145.42"/>
<polygon fill="midnightblue" stroke="midnightblue" points="2220.34,-143.45 2211.84,-137.13 2214.55,-147.37 2220.34,-143.45"/>
</g>
</g>
</svg>
