<?xml version="1.0" encoding="UTF-8" standalone="no"?>
<!DOCTYPE svg PUBLIC "-//W3C//DTD SVG 1.1//EN"
 "http://www.w3.org/Graphics/SVG/1.1/DTD/svg11.dtd">
<!-- Generated by graphviz version 2.43.0 (0)
 -->
<!-- Title: Instantiator.cpp Pages: 1 -->
<svg width="3692pt" height="269pt"
 viewBox="0.00 0.00 3691.50 269.00" xmlns="http://www.w3.org/2000/svg" xmlns:xlink="http://www.w3.org/1999/xlink">
<g id="graph0" class="graph" transform="scale(1 1) rotate(0) translate(4 265)">
<title>Instantiator.cpp</title>
<!-- Node1 -->
<g id="Node000001" class="node">
<title>Node1</title>
<g id="a_Node000001"><a xlink:title=" ">
<polygon fill="#999999" stroke="#666666" points="1893,-261 1801,-261 1801,-242 1893,-242 1893,-261"/>
<text text-anchor="middle" x="1847" y="-249" font-family="Helvetica,sans-Serif" font-size="10.00">Instantiator.cpp</text>
</a>
</g>
</g>
<!-- Node2 -->
<g id="Node000002" class="node">
<title>Node2</title>
<g id="a_Node000002"><a xlink:title=" ">
<polygon fill="#e0e0e0" stroke="#999999" points="68,-134.5 0,-134.5 0,-115.5 68,-115.5 68,-134.5"/>
<text text-anchor="middle" x="34" y="-122.5" font-family="Helvetica,sans-Serif" font-size="10.00">filesystem</text>
</a>
</g>
</g>
<!-- Node1&#45;&gt;Node2 -->
<g id="edge1_Node000001_Node000002" class="edge">
<title>Node1&#45;&gt;Node2</title>
<g id="a_edge1_Node000001_Node000002"><a xlink:title=" ">
<path fill="none" stroke="#63b8ff" d="M1800.98,-250.48C1531.74,-250.23 169.75,-246.92 92,-206 66.78,-192.73 49.86,-162.99 41.1,-143.74"/>
<polygon fill="#63b8ff" stroke="#63b8ff" points="44.31,-142.36 37.16,-134.54 37.88,-145.11 44.31,-142.36"/>
</a>
</g>
</g>
<!-- Node3 -->
<g id="Node000003" class="node">
<title>Node3</title>
<g id="a_Node000003"><a xlink:title=" ">
<polygon fill="#e0e0e0" stroke="#999999" points="292,-134.5 232,-134.5 232,-115.5 292,-115.5 292,-134.5"/>
<text text-anchor="middle" x="262" y="-122.5" font-family="Helvetica,sans-Serif" font-size="10.00">iostream</text>
</a>
</g>
</g>
<!-- Node1&#45;&gt;Node3 -->
<g id="edge2_Node000001_Node000003" class="edge">
<title>Node1&#45;&gt;Node3</title>
<g id="a_edge2_Node000001_Node000003"><a xlink:title=" ">
<path fill="none" stroke="#63b8ff" d="M1800.73,-250.22C1600.59,-248.79 808.42,-241.01 562,-206 502.77,-197.58 358.22,-157.46 301,-140 298.74,-139.31 296.41,-138.56 294.07,-137.79"/>
<polygon fill="#63b8ff" stroke="#63b8ff" points="295.16,-134.46 284.56,-134.52 292.88,-141.08 295.16,-134.46"/>
</a>
</g>
</g>
<!-- Node4 -->
<g id="Node000004" class="node">
<title>Node4</title>
<g id="a_Node000004"><a xlink:title=" ">
<polygon fill="#e0e0e0" stroke="#999999" points="1758,-200.5 1708,-200.5 1708,-181.5 1758,-181.5 1758,-200.5"/>
<text text-anchor="middle" x="1733" y="-188.5" font-family="Helvetica,sans-Serif" font-size="10.00">ranges</text>
</a>
</g>
</g>
<!-- Node1&#45;&gt;Node4 -->
<g id="edge3_Node000001_Node000004" class="edge">
<title>Node1&#45;&gt;Node4</title>
<g id="a_edge3_Node000001_Node000004"><a xlink:title=" ">
<path fill="none" stroke="#63b8ff" d="M1830.18,-241.87C1811.4,-232.23 1780.8,-216.53 1758.95,-205.31"/>
<polygon fill="#63b8ff" stroke="#63b8ff" points="1760.39,-202.12 1749.89,-200.67 1757.19,-208.35 1760.39,-202.12"/>
</a>
</g>
</g>
<!-- Node5 -->
<g id="Node000005" class="node">
<title>Node5</title>
<g id="a_Node000005"><a xlink:title=" ">
<polygon fill="#e0e0e0" stroke="#999999" points="1832,-200.5 1776,-200.5 1776,-181.5 1832,-181.5 1832,-200.5"/>
<text text-anchor="middle" x="1804" y="-188.5" font-family="Helvetica,sans-Serif" font-size="10.00">sstream</text>
</a>
</g>
</g>
<!-- Node1&#45;&gt;Node5 -->
<g id="edge4_Node000001_Node000005" class="edge">
<title>Node1&#45;&gt;Node5</title>
<g id="a_edge4_Node000001_Node000005"><a xlink:title=" ">
<path fill="none" stroke="#63b8ff" d="M1840.66,-241.87C1834.3,-233.23 1824.36,-219.7 1816.43,-208.92"/>
<polygon fill="#63b8ff" stroke="#63b8ff" points="1819.11,-206.65 1810.37,-200.67 1813.47,-210.8 1819.11,-206.65"/>
</a>
</g>
</g>
<!-- Node6 -->
<g id="Node000006" class="node">
<title>Node6</title>
<g id="a_Node000006"><a xlink:title=" ">
<polygon fill="#e0e0e0" stroke="#999999" points="1931.5,-200.5 1850.5,-200.5 1850.5,-181.5 1931.5,-181.5 1931.5,-200.5"/>
<text text-anchor="middle" x="1891" y="-188.5" font-family="Helvetica,sans-Serif" font-size="10.00">system_error</text>
</a>
</g>
</g>
<!-- Node1&#45;&gt;Node6 -->
<g id="edge5_Node000001_Node000006" class="edge">
<title>Node1&#45;&gt;Node6</title>
<g id="a_edge5_Node000001_Node000006"><a xlink:title=" ">
<path fill="none" stroke="#63b8ff" d="M1853.49,-241.87C1859.99,-233.23 1870.16,-219.7 1878.28,-208.92"/>
<polygon fill="#63b8ff" stroke="#63b8ff" points="1881.27,-210.76 1884.48,-200.67 1875.67,-206.56 1881.27,-210.76"/>
</a>
</g>
</g>
<!-- Node7 -->
<g id="Node000007" class="node">
<title>Node7</title>
<g id="a_Node000007"><a xlink:title=" ">
<polygon fill="#e0e0e0" stroke="#999999" points="2036,-200.5 1950,-200.5 1950,-181.5 2036,-181.5 2036,-200.5"/>
<text text-anchor="middle" x="1993" y="-188.5" font-family="Helvetica,sans-Serif" font-size="10.00">unordered_set</text>
</a>
</g>
</g>
<!-- Node1&#45;&gt;Node7 -->
<g id="edge6_Node000001_Node000007" class="edge">
<title>Node1&#45;&gt;Node7</title>
<g id="a_edge6_Node000001_Node000007"><a xlink:title=" ">
<path fill="none" stroke="#63b8ff" d="M1868.23,-241.99C1892.99,-232.07 1934.12,-215.59 1962.35,-204.28"/>
<polygon fill="#63b8ff" stroke="#63b8ff" points="1963.76,-207.49 1971.74,-200.52 1961.16,-200.99 1963.76,-207.49"/>
</a>
</g>
</g>
<!-- Node8 -->
<g id="Node000008" class="node">
<title>Node8</title>
<g id="a_Node000008"><a xlink:title=" ">
<polygon fill="#e0e0e0" stroke="#999999" points="2188,-200.5 2054,-200.5 2054,-181.5 2188,-181.5 2188,-200.5"/>
<text text-anchor="middle" x="2121" y="-188.5" font-family="Helvetica,sans-Serif" font-size="10.00">termcolor/termcolor.hpp</text>
</a>
</g>
</g>
<!-- Node1&#45;&gt;Node8 -->
<g id="edge7_Node000001_Node000008" class="edge">
<title>Node1&#45;&gt;Node8</title>
<g id="a_edge7_Node000001_Node000008"><a xlink:title=" ">
<path fill="none" stroke="#63b8ff" d="M1886.84,-241.99C1935.65,-231.57 2018.34,-213.92 2071.26,-202.62"/>
<polygon fill="#63b8ff" stroke="#63b8ff" points="2072.06,-206.03 2081.11,-200.52 2070.6,-199.18 2072.06,-206.03"/>
</a>
</g>
</g>
<!-- Node9 -->
<g id="Node000009" class="node">
<title>Node9</title>
<g id="a_Node000009"><a xlink:title=" ">
<polygon fill="#e0e0e0" stroke="#999999" points="2364,-200.5 2206,-200.5 2206,-181.5 2364,-181.5 2364,-200.5"/>
<text text-anchor="middle" x="2285" y="-188.5" font-family="Helvetica,sans-Serif" font-size="10.00">indicators/cursor_control.hpp</text>
</a>
</g>
</g>
<!-- Node1&#45;&gt;Node9 -->
<g id="edge8_Node000001_Node000009" class="edge">
<title>Node1&#45;&gt;Node9</title>
<g id="a_edge8_Node000001_Node000009"><a xlink:title=" ">
<path fill="none" stroke="#63b8ff" d="M1893.21,-245.09C1960.23,-237.14 2088.31,-221.55 2197,-206 2205.37,-204.8 2214.17,-203.48 2222.84,-202.14"/>
<polygon fill="#63b8ff" stroke="#63b8ff" points="2223.59,-205.56 2232.92,-200.56 2222.5,-198.65 2223.59,-205.56"/>
</a>
</g>
</g>
<!-- Node10 -->
<g id="Node000010" class="node">
<title>Node10</title>
<g id="a_Node000010"><a xlink:title=" ">
<polygon fill="#e0e0e0" stroke="#999999" points="2519.5,-206 2382.5,-206 2382.5,-176 2519.5,-176 2519.5,-206"/>
<text text-anchor="start" x="2390.5" y="-194" font-family="Helvetica,sans-Serif" font-size="10.00">indicators/indeterminate</text>
<text text-anchor="middle" x="2451" y="-183" font-family="Helvetica,sans-Serif" font-size="10.00">_progress_bar.hpp</text>
</a>
</g>
</g>
<!-- Node1&#45;&gt;Node10 -->
<g id="edge9_Node000001_Node000010" class="edge">
<title>Node1&#45;&gt;Node10</title>
<g id="a_edge9_Node000001_Node000010"><a xlink:title=" ">
<path fill="none" stroke="#63b8ff" d="M1893.24,-248.04C1983.35,-242.93 2188.9,-229.74 2372.06,-206.04"/>
<polygon fill="#63b8ff" stroke="#63b8ff" points="2372.69,-209.48 2382.15,-204.72 2371.78,-202.54 2372.69,-209.48"/>
</a>
</g>
</g>
<!-- Node11 -->
<g id="Node000011" class="node">
<title>Node11</title>
<g id="a_Node000011"><a xlink:title=" ">
<polygon fill="#e0e0e0" stroke="#999999" points="420,-140 310,-140 310,-110 420,-110 420,-140"/>
<text text-anchor="start" x="318" y="-128" font-family="Helvetica,sans-Serif" font-size="10.00">indicators/progress</text>
<text text-anchor="middle" x="365" y="-117" font-family="Helvetica,sans-Serif" font-size="10.00">_bar.hpp</text>
</a>
</g>
</g>
<!-- Node1&#45;&gt;Node11 -->
<g id="edge10_Node000001_Node000011" class="edge">
<title>Node1&#45;&gt;Node11</title>
<g id="a_edge10_Node000001_Node000011"><a xlink:title=" ">
<path fill="none" stroke="#63b8ff" d="M1800.82,-249.78C1617.07,-246.73 937.44,-233.78 724,-206 617.33,-192.12 495.58,-161.86 424.8,-142.79"/>
<polygon fill="#63b8ff" stroke="#63b8ff" points="425.3,-139.3 414.73,-140.07 423.47,-146.06 425.3,-139.3"/>
</a>
</g>
</g>
<!-- Node12 -->
<g id="Node000012" class="node">
<title>Node12</title>
<g id="a_Node000012"><a xlink:title=" ">
<polygon fill="#e0e0e0" stroke="#999999" points="2716.5,-200.5 2537.5,-200.5 2537.5,-181.5 2716.5,-181.5 2716.5,-200.5"/>
<text text-anchor="middle" x="2627" y="-188.5" font-family="Helvetica,sans-Serif" font-size="10.00">clang/Frontend/FrontendActions.h</text>
</a>
</g>
</g>
<!-- Node1&#45;&gt;Node12 -->
<g id="edge11_Node000001_Node000012" class="edge">
<title>Node1&#45;&gt;Node12</title>
<g id="a_edge11_Node000001_Node000012"><a xlink:title=" ">
<path fill="none" stroke="#63b8ff" d="M1893.34,-248.68C2003.56,-244.07 2289.93,-230.58 2528,-206 2538.97,-204.87 2550.6,-203.43 2561.88,-201.92"/>
<polygon fill="#63b8ff" stroke="#63b8ff" points="2562.68,-205.34 2572.11,-200.51 2561.72,-198.41 2562.68,-205.34"/>
</a>
</g>
</g>
<!-- Node13 -->
<g id="Node000013" class="node">
<title>Node13</title>
<g id="a_Node000013"><a xlink:title=" ">
<polygon fill="#e0e0e0" stroke="#999999" points="2899.5,-206 2734.5,-206 2734.5,-176 2899.5,-176 2899.5,-206"/>
<text text-anchor="start" x="2742.5" y="-194" font-family="Helvetica,sans-Serif" font-size="10.00">clang/Tooling/CommonOptions</text>
<text text-anchor="middle" x="2817" y="-183" font-family="Helvetica,sans-Serif" font-size="10.00">Parser.h</text>
</a>
</g>
</g>
<!-- Node1&#45;&gt;Node13 -->
<g id="edge12_Node000001_Node000013" class="edge">
<title>Node1&#45;&gt;Node13</title>
<g id="a_edge12_Node000001_Node000013"><a xlink:title=" ">
<path fill="none" stroke="#63b8ff" d="M1893.29,-249.79C2022.84,-247.45 2400.17,-238.26 2724.24,-206"/>
<polygon fill="#63b8ff" stroke="#63b8ff" points="2724.7,-209.47 2734.3,-204.99 2724,-202.5 2724.7,-209.47"/>
</a>
</g>
</g>
<!-- Node14 -->
<g id="Node000014" class="node">
<title>Node14</title>
<g id="a_Node000014"><a xlink:title=" ">
<polygon fill="#e0e0e0" stroke="#999999" points="213.5,-134.5 86.5,-134.5 86.5,-115.5 213.5,-115.5 213.5,-134.5"/>
<text text-anchor="middle" x="150" y="-122.5" font-family="Helvetica,sans-Serif" font-size="10.00">clang/Tooling/Tooling.h</text>
</a>
</g>
</g>
<!-- Node1&#45;&gt;Node14 -->
<g id="edge13_Node000001_Node000014" class="edge">
<title>Node1&#45;&gt;Node14</title>
<g id="a_edge13_Node000001_Node000014"><a xlink:title=" ">
<path fill="none" stroke="#63b8ff" d="M1800.93,-250.6C1588.32,-250.83 700.8,-249.13 427,-206 336.14,-191.69 233.01,-156.71 182.03,-138.1"/>
<polygon fill="#63b8ff" stroke="#63b8ff" points="183.14,-134.78 172.54,-134.61 180.72,-141.35 183.14,-134.78"/>
</a>
</g>
</g>
<!-- Node15 -->
<g id="Node000015" class="node">
<title>Node15</title>
<g id="a_Node000015"><a xlink:title=" ">
<polygon fill="#e0e0e0" stroke="#999999" points="3078.5,-200.5 2917.5,-200.5 2917.5,-181.5 3078.5,-181.5 3078.5,-200.5"/>
<text text-anchor="middle" x="2998" y="-188.5" font-family="Helvetica,sans-Serif" font-size="10.00">llvm/Support/CommandLine.h</text>
</a>
</g>
</g>
<!-- Node1&#45;&gt;Node15 -->
<g id="edge14_Node000001_Node000015" class="edge">
<title>Node1&#45;&gt;Node15</title>
<g id="a_edge14_Node000001_Node000015"><a xlink:title=" ">
<path fill="none" stroke="#63b8ff" d="M1893.15,-250.41C2041.09,-249.74 2516.74,-244.51 2908,-206 2918.26,-204.99 2929.12,-203.59 2939.63,-202.06"/>
<polygon fill="#63b8ff" stroke="#63b8ff" points="2940.18,-205.51 2949.55,-200.56 2939.14,-198.59 2940.18,-205.51"/>
</a>
</g>
</g>
<!-- Node16 -->
<g id="Node000016" class="node">
<title>Node16</title>
<g id="a_Node000016"><a xlink:title=" ">
<polygon fill="#e0e0e0" stroke="#999999" points="3233.5,-200.5 3096.5,-200.5 3096.5,-181.5 3233.5,-181.5 3233.5,-200.5"/>
<text text-anchor="middle" x="3165" y="-188.5" font-family="Helvetica,sans-Serif" font-size="10.00">clang/AST/ASTImporter.h</text>
</a>
</g>
</g>
<!-- Node1&#45;&gt;Node16 -->
<g id="edge15_Node000001_Node000016" class="edge">
<title>Node1&#45;&gt;Node16</title>
<g id="a_edge15_Node000001_Node000016"><a xlink:title=" ">
<path fill="none" stroke="#63b8ff" d="M1893.23,-249.72C2088.79,-246.28 2848.85,-231.52 3087,-206 3095.75,-205.06 3104.99,-203.72 3113.94,-202.23"/>
<polygon fill="#63b8ff" stroke="#63b8ff" points="3114.61,-205.67 3123.87,-200.51 3113.42,-198.77 3114.61,-205.67"/>
</a>
</g>
</g>
<!-- Node17 -->
<g id="Node000017" class="node">
<title>Node17</title>
<g id="a_Node000017"><a xlink:title=" ">
<polygon fill="#e0e0e0" stroke="#999999" points="1629.5,-140 1468.5,-140 1468.5,-110 1629.5,-110 1629.5,-140"/>
<text text-anchor="start" x="1476.5" y="-128" font-family="Helvetica,sans-Serif" font-size="10.00">clang/ASTMatchers/ASTMatch</text>
<text text-anchor="middle" x="1549" y="-117" font-family="Helvetica,sans-Serif" font-size="10.00">Finder.h</text>
</a>
</g>
</g>
<!-- Node1&#45;&gt;Node17 -->
<g id="edge16_Node000001_Node000017" class="edge">
<title>Node1&#45;&gt;Node17</title>
<g id="a_edge16_Node000001_Node000017"><a xlink:title=" ">
<path fill="none" stroke="#63b8ff" d="M1800.74,-248.04C1709.42,-242.72 1513.05,-228.73 1493,-206 1476.37,-187.14 1497.8,-163.29 1518.78,-146.55"/>
<polygon fill="#63b8ff" stroke="#63b8ff" points="1521.17,-149.13 1527.02,-140.29 1516.94,-143.55 1521.17,-149.13"/>
</a>
</g>
</g>
<!-- Node18 -->
<g id="Node000018" class="node">
<title>Node18</title>
<g id="a_Node000018"><a xlink:title=" ">
<polygon fill="#e0e0e0" stroke="#999999" points="3398.5,-134.5 3213.5,-134.5 3213.5,-115.5 3398.5,-115.5 3398.5,-134.5"/>
<text text-anchor="middle" x="3306" y="-122.5" font-family="Helvetica,sans-Serif" font-size="10.00">clang/ASTMatchers/ASTMatchers.h</text>
</a>
</g>
</g>
<!-- Node1&#45;&gt;Node18 -->
<g id="edge17_Node000001_Node000018" class="edge">
<title>Node1&#45;&gt;Node18</title>
<g id="a_edge17_Node000001_Node000018"><a xlink:title=" ">
<path fill="none" stroke="#63b8ff" d="M1893.11,-250.11C2127.75,-248 3180.41,-236.82 3242,-206 3268.43,-192.78 3287.51,-163.02 3297.65,-143.76"/>
<polygon fill="#63b8ff" stroke="#63b8ff" points="3300.91,-145.06 3302.24,-134.55 3294.64,-141.94 3300.91,-145.06"/>
</a>
</g>
</g>
<!-- Node19 -->
<g id="Node000019" class="node">
<title>Node19</title>
<g id="a_Node000019"><a xlink:title=" ">
<polygon fill="#e0e0e0" stroke="#999999" points="3536.5,-206 3427.5,-206 3427.5,-176 3536.5,-176 3536.5,-206"/>
<text text-anchor="start" x="3435.5" y="-194" font-family="Helvetica,sans-Serif" font-size="10.00">clang/Rewrite/Core</text>
<text text-anchor="middle" x="3482" y="-183" font-family="Helvetica,sans-Serif" font-size="10.00">/Rewriter.h</text>
</a>
</g>
</g>
<!-- Node1&#45;&gt;Node19 -->
<g id="edge18_Node000001_Node000019" class="edge">
<title>Node1&#45;&gt;Node19</title>
<g id="a_edge18_Node000001_Node000019"><a xlink:title=" ">
<path fill="none" stroke="#63b8ff" d="M1893.34,-250.38C2117.46,-249.61 3091.25,-244.16 3417.09,-206.04"/>
<polygon fill="#63b8ff" stroke="#63b8ff" points="3417.97,-209.46 3427.48,-204.78 3417.13,-202.51 3417.97,-209.46"/>
</a>
</g>
</g>
<!-- Node20 -->
<g id="Node000020" class="node">
<title>Node20</title>
<g id="a_Node000020"><a xlink:title=" ">
<polygon fill="#e0e0e0" stroke="#999999" points="3683.5,-206 3554.5,-206 3554.5,-176 3683.5,-176 3683.5,-206"/>
<text text-anchor="start" x="3562.5" y="-194" font-family="Helvetica,sans-Serif" font-size="10.00">clang/Rewrite/Frontend</text>
<text text-anchor="middle" x="3619" y="-183" font-family="Helvetica,sans-Serif" font-size="10.00">/Rewriters.h</text>
</a>
</g>
</g>
<!-- Node1&#45;&gt;Node20 -->
<g id="edge19_Node000001_Node000020" class="edge">
<title>Node1&#45;&gt;Node20</title>
<g id="a_edge19_Node000001_Node000020"><a xlink:title=" ">
<path fill="none" stroke="#63b8ff" d="M1893.08,-250.31C2127.68,-249.2 3191.78,-242.26 3544.24,-206.05"/>
<polygon fill="#63b8ff" stroke="#63b8ff" points="3544.63,-209.53 3554.2,-205 3543.89,-202.57 3544.63,-209.53"/>
</a>
</g>
</g>
<!-- Node21 -->
<g id="Node000021" class="node">
<title>Node21</title>
<g id="a_Node000021"><a xlink:href="ASTCreation_8hpp.html" target="_top" xlink:title=" ">
<polygon fill="white" stroke="#666666" points="198.5,-200.5 101.5,-200.5 101.5,-181.5 198.5,-181.5 198.5,-200.5"/>
<text text-anchor="middle" x="150" y="-188.5" font-family="Helvetica,sans-Serif" font-size="10.00">ASTCreation.hpp</text>
</a>
</g>
</g>
<!-- Node1&#45;&gt;Node21 -->
<g id="edge20_Node000001_Node000021" class="edge">
<title>Node1&#45;&gt;Node21</title>
<g id="a_edge20_Node000001_Node000021"><a xlink:title=" ">
<path fill="none" stroke="#63b8ff" d="M1800.72,-249.51C1620.8,-245.55 950.54,-229.98 399,-206 333.85,-203.17 259.16,-198.82 208.72,-195.72"/>
<polygon fill="#63b8ff" stroke="#63b8ff" points="208.85,-192.23 198.65,-195.1 208.41,-199.21 208.85,-192.23"/>
</a>
</g>
</g>
<!-- Node22 -->
<g id="Node000022" class="node">
<title>Node22</title>
<g id="a_Node000022"><a xlink:href="AllASTBuilderAction_8hpp.html" target="_top" xlink:title=" ">
<polygon fill="white" stroke="#666666" points="906.5,-200.5 733.5,-200.5 733.5,-181.5 906.5,-181.5 906.5,-200.5"/>
<text text-anchor="middle" x="820" y="-188.5" font-family="Helvetica,sans-Serif" font-size="10.00">Actions/AllASTBuilderAction.hpp</text>
</a>
</g>
</g>
<!-- Node1&#45;&gt;Node22 -->
<g id="edge23_Node000001_Node000022" class="edge">
<title>Node1&#45;&gt;Node22</title>
<g id="a_edge23_Node000001_Node000022"><a xlink:title=" ">
<path fill="none" stroke="#63b8ff" d="M1800.66,-248.46C1673.09,-242.77 1305.91,-225.81 1001,-206 973.67,-204.22 944.04,-202.04 916.82,-199.93"/>
<polygon fill="#63b8ff" stroke="#63b8ff" points="916.75,-196.42 906.51,-199.13 916.21,-203.39 916.75,-196.42"/>
</a>
</g>
</g>
<!-- Node29 -->
<g id="Node000029" class="node">
<title>Node29</title>
<g id="a_Node000029"><a xlink:href="DeleteInstantiations_8hpp.html" target="_top" xlink:title=" ">
<polygon fill="white" stroke="#666666" points="1689.5,-200.5 1502.5,-200.5 1502.5,-181.5 1689.5,-181.5 1689.5,-200.5"/>
<text text-anchor="middle" x="1596" y="-188.5" font-family="Helvetica,sans-Serif" font-size="10.00">Callbacks/DeleteInstantiations.hpp</text>
</a>
</g>
</g>
<!-- Node1&#45;&gt;Node29 -->
<g id="edge33_Node000001_Node000029" class="edge">
<title>Node1&#45;&gt;Node29</title>
<g id="a_edge33_Node000001_Node000029"><a xlink:title=" ">
<path fill="none" stroke="#63b8ff" d="M1810.5,-241.99C1766.07,-231.64 1690.99,-214.14 1642.47,-202.83"/>
<polygon fill="#63b8ff" stroke="#63b8ff" points="1643.08,-199.38 1632.54,-200.52 1641.49,-206.2 1643.08,-199.38"/>
</a>
</g>
</g>
<!-- Node30 -->
<g id="Node000030" class="node">
<title>Node30</title>
<g id="a_Node000030"><a xlink:href="GetNeededInstantiations_8hpp.html" target="_top" xlink:title=" ">
<polygon fill="white" stroke="#666666" points="1446.5,-200.5 1237.5,-200.5 1237.5,-181.5 1446.5,-181.5 1446.5,-200.5"/>
<text text-anchor="middle" x="1342" y="-188.5" font-family="Helvetica,sans-Serif" font-size="10.00">Callbacks/GetNeededInstantiations.hpp</text>
</a>
</g>
</g>
<!-- Node1&#45;&gt;Node30 -->
<g id="edge35_Node000001_Node000030" class="edge">
<title>Node1&#45;&gt;Node30</title>
<g id="a_edge35_Node000001_Node000030"><a xlink:title=" ">
<path fill="none" stroke="#63b8ff" d="M1800.95,-245.23C1728.57,-236.93 1583.79,-220.3 1461,-206 1449.14,-204.62 1436.61,-203.15 1424.31,-201.71"/>
<polygon fill="#63b8ff" stroke="#63b8ff" points="1424.39,-198.19 1414.05,-200.5 1423.57,-205.15 1424.39,-198.19"/>
</a>
</g>
</g>
<!-- Node31 -->
<g id="Node000031" class="node">
<title>Node31</title>
<g id="a_Node000031"><a xlink:href="Injection_8hpp.html" target="_top" xlink:title=" ">
<polygon fill="white" stroke="#666666" points="1450,-134.5 1370,-134.5 1370,-115.5 1450,-115.5 1450,-134.5"/>
<text text-anchor="middle" x="1410" y="-122.5" font-family="Helvetica,sans-Serif" font-size="10.00">Injection.hpp</text>
</a>
</g>
</g>
<!-- Node1&#45;&gt;Node31 -->
<g id="edge55_Node000001_Node000031" class="edge">
<title>Node1&#45;&gt;Node31</title>
<g id="a_edge55_Node000001_Node000031"><a xlink:title=" ">
<path fill="none" stroke="#63b8ff" d="M1800.91,-249.71C1632.73,-246.6 1060.51,-234 1034,-206 1024.83,-196.32 1025.22,-186.03 1034,-176 1039.34,-169.91 1258.55,-143.65 1359.75,-131.82"/>
<polygon fill="#63b8ff" stroke="#63b8ff" points="1360.22,-135.29 1369.74,-130.65 1359.4,-128.33 1360.22,-135.29"/>
</a>
</g>
</g>
<!-- Node42 -->
<g id="Node000042" class="node">
<title>Node42</title>
<g id="a_Node000042"><a xlink:href="InjectInstantiation_8hpp.html" target="_top" xlink:title=" ">
<polygon fill="white" stroke="#666666" points="1219,-200.5 1043,-200.5 1043,-181.5 1219,-181.5 1219,-200.5"/>
<text text-anchor="middle" x="1131" y="-188.5" font-family="Helvetica,sans-Serif" font-size="10.00">Callbacks/InjectInstantiation.hpp</text>
</a>
</g>
</g>
<!-- Node1&#45;&gt;Node42 -->
<g id="edge51_Node000001_Node000042" class="edge">
<title>Node1&#45;&gt;Node42</title>
<g id="a_edge51_Node000001_Node000042"><a xlink:title=" ">
<path fill="none" stroke="#63b8ff" d="M1800.7,-248.31C1697.61,-243.17 1441.44,-229.04 1228,-206 1217.38,-204.85 1206.13,-203.43 1195.21,-201.93"/>
<polygon fill="#63b8ff" stroke="#63b8ff" points="1195.68,-198.46 1185.29,-200.54 1194.71,-205.39 1195.68,-198.46"/>
</a>
</g>
</g>
<!-- Node43 -->
<g id="Node000043" class="node">
<title>Node43</title>
<g id="a_Node000043"><a xlink:href="Matcher_8hpp.html" target="_top" xlink:title="AST matcher expressions to filter the relevant nodes for template instantiations.">
<polygon fill="white" stroke="#666666" points="3409.5,-200.5 3290.5,-200.5 3290.5,-181.5 3409.5,-181.5 3409.5,-200.5"/>
<text text-anchor="middle" x="3350" y="-188.5" font-family="Helvetica,sans-Serif" font-size="10.00">Matcher/Matcher.hpp</text>
</a>
</g>
</g>
<!-- Node1&#45;&gt;Node43 -->
<g id="edge56_Node000001_Node000043" class="edge">
<title>Node1&#45;&gt;Node43</title>
<g id="a_edge56_Node000001_Node000043"><a xlink:title=" ">
<path fill="none" stroke="#63b8ff" d="M1893.29,-250.03C2106.89,-247.71 2998.73,-236.36 3276,-206 3284.13,-205.11 3292.71,-203.82 3301.03,-202.38"/>
<polygon fill="#63b8ff" stroke="#63b8ff" points="3301.79,-205.79 3311,-200.56 3300.53,-198.91 3301.79,-205.79"/>
</a>
</g>
</g>
<!-- Node21&#45;&gt;Node2 -->
<g id="edge22_Node000021_Node000002" class="edge">
<title>Node21&#45;&gt;Node2</title>
<g id="a_edge22_Node000021_Node000002"><a xlink:title=" ">
<path fill="none" stroke="#63b8ff" d="M134.36,-181.37C114.9,-170.63 81.45,-152.18 58.56,-139.55"/>
<polygon fill="#63b8ff" stroke="#63b8ff" points="60.21,-136.47 49.77,-134.7 56.83,-142.59 60.21,-136.47"/>
</a>
</g>
</g>
<!-- Node21&#45;&gt;Node14 -->
<g id="edge21_Node000021_Node000014" class="edge">
<title>Node21&#45;&gt;Node14</title>
<g id="a_edge21_Node000021_Node000014"><a xlink:title=" ">
<path fill="none" stroke="#63b8ff" d="M150,-181.37C150,-172.16 150,-157.29 150,-145.27"/>
<polygon fill="#63b8ff" stroke="#63b8ff" points="153.5,-144.91 150,-134.91 146.5,-144.91 153.5,-144.91"/>
</a>
</g>
</g>
<!-- Node22&#45;&gt;Node3 -->
<g id="edge24_Node000022_Node000003" class="edge">
<title>Node22&#45;&gt;Node3</title>
<g id="a_edge24_Node000022_Node000003"><a xlink:title=" ">
<path fill="none" stroke="#63b8ff" d="M733.1,-188.2C629.18,-184.55 450.5,-173.49 301,-140 298.17,-139.37 295.26,-138.58 292.38,-137.72"/>
<polygon fill="#63b8ff" stroke="#63b8ff" points="293.36,-134.36 282.77,-134.53 291.16,-141 293.36,-134.36"/>
</a>
</g>
</g>
<!-- Node22&#45;&gt;Node11 -->
<g id="edge27_Node000022_Node000011" class="edge">
<title>Node22&#45;&gt;Node11</title>
<g id="a_edge27_Node000022_Node000011"><a xlink:title=" ">
<path fill="none" stroke="#63b8ff" d="M736.54,-181.48C659.49,-173.13 541.68,-159.11 430.17,-140.11"/>
<polygon fill="#63b8ff" stroke="#63b8ff" points="430.55,-136.62 420.1,-138.38 429.36,-143.52 430.55,-136.62"/>
</a>
</g>
</g>
<!-- Node22&#45;&gt;Node14 -->
<g id="edge32_Node000022_Node000014" class="edge">
<title>Node22&#45;&gt;Node14</title>
<g id="a_edge32_Node000022_Node000014"><a xlink:title=" ">
<path fill="none" stroke="#63b8ff" d="M733.18,-185.62C616.7,-179.08 403.58,-164.81 223,-140 215.62,-138.99 207.86,-137.72 200.26,-136.36"/>
<polygon fill="#63b8ff" stroke="#63b8ff" points="200.89,-132.92 190.42,-134.54 199.61,-139.8 200.89,-132.92"/>
</a>
</g>
</g>
<!-- Node23 -->
<g id="Node000023" class="node">
<title>Node23</title>
<g id="a_Node000023"><a xlink:title=" ">
<polygon fill="#e0e0e0" stroke="#999999" points="1080,-134.5 1022,-134.5 1022,-115.5 1080,-115.5 1080,-134.5"/>
<text text-anchor="middle" x="1051" y="-122.5" font-family="Helvetica,sans-Serif" font-size="10.00">memory</text>
</a>
</g>
</g>
<!-- Node22&#45;&gt;Node23 -->
<g id="edge25_Node000022_Node000023" class="edge">
<title>Node22&#45;&gt;Node23</title>
<g id="a_edge25_Node000022_Node000023"><a xlink:title=" ">
<path fill="none" stroke="#63b8ff" d="M857.31,-181.5C896.41,-172.32 959.49,-156.74 1013,-140 1015.13,-139.33 1017.31,-138.62 1019.5,-137.88"/>
<polygon fill="#63b8ff" stroke="#63b8ff" points="1020.76,-141.14 1029.02,-134.52 1018.43,-134.54 1020.76,-141.14"/>
</a>
</g>
</g>
<!-- Node24 -->
<g id="Node000024" class="node">
<title>Node24</title>
<g id="a_Node000024"><a xlink:title=" ">
<polygon fill="#e0e0e0" stroke="#999999" points="1163.5,-74 1116.5,-74 1116.5,-55 1163.5,-55 1163.5,-74"/>
<text text-anchor="middle" x="1140" y="-62" font-family="Helvetica,sans-Serif" font-size="10.00">vector</text>
</a>
</g>
</g>
<!-- Node22&#45;&gt;Node24 -->
<g id="edge26_Node000022_Node000024" class="edge">
<title>Node22&#45;&gt;Node24</title>
<g id="a_edge26_Node000022_Node000024"><a xlink:title=" ">
<path fill="none" stroke="#63b8ff" d="M904.14,-181.46C971.34,-173.36 1059.04,-159.5 1089,-140 1109.89,-126.4 1124.5,-100.96 1132.58,-83.63"/>
<polygon fill="#63b8ff" stroke="#63b8ff" points="1135.96,-84.63 1136.76,-74.06 1129.55,-81.82 1135.96,-84.63"/>
</a>
</g>
</g>
<!-- Node25 -->
<g id="Node000025" class="node">
<title>Node25</title>
<g id="a_Node000025"><a xlink:title=" ">
<polygon fill="#e0e0e0" stroke="#999999" points="1276,-134.5 1136,-134.5 1136,-115.5 1276,-115.5 1276,-134.5"/>
<text text-anchor="middle" x="1206" y="-122.5" font-family="Helvetica,sans-Serif" font-size="10.00">clang/Frontend/ASTUnit.h</text>
</a>
</g>
</g>
<!-- Node22&#45;&gt;Node25 -->
<g id="edge28_Node000022_Node000025" class="edge">
<title>Node22&#45;&gt;Node25</title>
<g id="a_edge28_Node000022_Node000025"><a xlink:title=" ">
<path fill="none" stroke="#63b8ff" d="M871.57,-181.48C931.69,-171.54 1034.06,-154.61 1122,-140 1129.4,-138.77 1137.17,-137.48 1144.87,-136.2"/>
<polygon fill="#63b8ff" stroke="#63b8ff" points="1145.63,-139.62 1154.92,-134.52 1144.48,-132.71 1145.63,-139.62"/>
</a>
</g>
</g>
<!-- Node26 -->
<g id="Node000026" class="node">
<title>Node26</title>
<g id="a_Node000026"><a xlink:title=" ">
<polygon fill="#e0e0e0" stroke="#999999" points="624,-134.5 438,-134.5 438,-115.5 624,-115.5 624,-134.5"/>
<text text-anchor="middle" x="531" y="-122.5" font-family="Helvetica,sans-Serif" font-size="10.00">clang/Frontend/CompilerInstance.h</text>
</a>
</g>
</g>
<!-- Node22&#45;&gt;Node26 -->
<g id="edge29_Node000022_Node000026" class="edge">
<title>Node22&#45;&gt;Node26</title>
<g id="a_edge29_Node000022_Node000026"><a xlink:title=" ">
<path fill="none" stroke="#63b8ff" d="M781.32,-181.44C729.09,-169.87 636.01,-149.26 579.26,-136.69"/>
<polygon fill="#63b8ff" stroke="#63b8ff" points="579.97,-133.26 569.45,-134.51 578.45,-140.09 579.97,-133.26"/>
</a>
</g>
</g>
<!-- Node27 -->
<g id="Node000027" class="node">
<title>Node27</title>
<g id="a_Node000027"><a xlink:title=" ">
<polygon fill="#e0e0e0" stroke="#999999" points="838,-134.5 642,-134.5 642,-115.5 838,-115.5 838,-134.5"/>
<text text-anchor="middle" x="740" y="-122.5" font-family="Helvetica,sans-Serif" font-size="10.00">clang/Frontend/CompilerInvocation.h</text>
</a>
</g>
</g>
<!-- Node22&#45;&gt;Node27 -->
<g id="edge30_Node000022_Node000027" class="edge">
<title>Node22&#45;&gt;Node27</title>
<g id="a_edge30_Node000022_Node000027"><a xlink:title=" ">
<path fill="none" stroke="#63b8ff" d="M809.21,-181.37C796.33,-171.06 774.56,-153.65 758.87,-141.09"/>
<polygon fill="#63b8ff" stroke="#63b8ff" points="760.87,-138.21 750.87,-134.7 756.5,-143.68 760.87,-138.21"/>
</a>
</g>
</g>
<!-- Node28 -->
<g id="Node000028" class="node">
<title>Node28</title>
<g id="a_Node000028"><a xlink:title=" ">
<polygon fill="#e0e0e0" stroke="#999999" points="1004.5,-140 855.5,-140 855.5,-110 1004.5,-110 1004.5,-140"/>
<text text-anchor="start" x="863.5" y="-128" font-family="Helvetica,sans-Serif" font-size="10.00">clang/Serialization</text>
<text text-anchor="middle" x="930" y="-117" font-family="Helvetica,sans-Serif" font-size="10.00">/PCHContainerOperations.h</text>
</a>
</g>
</g>
<!-- Node22&#45;&gt;Node28 -->
<g id="edge31_Node000022_Node000028" class="edge">
<title>Node22&#45;&gt;Node28</title>
<g id="a_edge31_Node000022_Node000028"><a xlink:title=" ">
<path fill="none" stroke="#63b8ff" d="M834.84,-181.37C850.67,-172.16 876.27,-157.26 896.94,-145.24"/>
<polygon fill="#63b8ff" stroke="#63b8ff" points="898.86,-148.17 905.74,-140.12 895.34,-142.12 898.86,-148.17"/>
</a>
</g>
</g>
<!-- Node29&#45;&gt;Node17 -->
<g id="edge34_Node000029_Node000017" class="edge">
<title>Node29&#45;&gt;Node17</title>
<g id="a_edge34_Node000029_Node000017"><a xlink:title=" ">
<path fill="none" stroke="#63b8ff" d="M1589.66,-181.37C1583.51,-172.99 1573.91,-159.93 1565.59,-148.59"/>
<polygon fill="#63b8ff" stroke="#63b8ff" points="1568.29,-146.35 1559.55,-140.36 1562.64,-150.49 1568.29,-146.35"/>
</a>
</g>
</g>
<!-- Node30&#45;&gt;Node17 -->
<g id="edge37_Node000030_Node000017" class="edge">
<title>Node30&#45;&gt;Node17</title>
<g id="a_edge37_Node000030_Node000017"><a xlink:title=" ">
<path fill="none" stroke="#63b8ff" d="M1369.92,-181.37C1401.52,-171.6 1453.8,-155.43 1493.74,-143.09"/>
<polygon fill="#63b8ff" stroke="#63b8ff" points="1494.82,-146.41 1503.34,-140.12 1492.76,-139.73 1494.82,-146.41"/>
</a>
</g>
</g>
<!-- Node30&#45;&gt;Node24 -->
<g id="edge36_Node000030_Node000024" class="edge">
<title>Node30&#45;&gt;Node24</title>
<g id="a_edge36_Node000030_Node000024"><a xlink:title=" ">
<path fill="none" stroke="#63b8ff" d="M1340.07,-181.05C1336.02,-164.46 1325.04,-128.92 1302,-110 1299.46,-107.91 1220.16,-86.7 1173.47,-74.33"/>
<polygon fill="#63b8ff" stroke="#63b8ff" points="1174.33,-70.94 1163.77,-71.76 1172.54,-77.7 1174.33,-70.94"/>
</a>
</g>
</g>
<!-- Node30&#45;&gt;Node31 -->
<g id="edge38_Node000030_Node000031" class="edge">
<title>Node30&#45;&gt;Node31</title>
<g id="a_edge38_Node000030_Node000031"><a xlink:title=" ">
<path fill="none" stroke="#63b8ff" d="M1351.17,-181.37C1361.86,-171.31 1379.74,-154.48 1392.99,-142.01"/>
<polygon fill="#63b8ff" stroke="#63b8ff" points="1395.65,-144.31 1400.54,-134.91 1390.86,-139.21 1395.65,-144.31"/>
</a>
</g>
</g>
<!-- Node31&#45;&gt;Node24 -->
<g id="edge41_Node000031_Node000024" class="edge">
<title>Node31&#45;&gt;Node24</title>
<g id="a_edge41_Node000031_Node000024"><a xlink:title=" ">
<path fill="none" stroke="#63b8ff" d="M1378.38,-115.47C1371.05,-113.58 1363.27,-111.66 1356,-110 1278.34,-92.31 1255.59,-92.32 1174,-74.11"/>
<polygon fill="#63b8ff" stroke="#63b8ff" points="1174.28,-70.58 1163.75,-71.79 1172.74,-77.41 1174.28,-70.58"/>
</a>
</g>
</g>
<!-- Node32 -->
<g id="Node000032" class="node">
<title>Node32</title>
<g id="a_Node000032"><a xlink:title=" ">
<polygon fill="#e0e0e0" stroke="#999999" points="1629,-74 1573,-74 1573,-55 1629,-55 1629,-74"/>
<text text-anchor="middle" x="1601" y="-62" font-family="Helvetica,sans-Serif" font-size="10.00">optional</text>
</a>
</g>
</g>
<!-- Node31&#45;&gt;Node32 -->
<g id="edge39_Node000031_Node000032" class="edge">
<title>Node31&#45;&gt;Node32</title>
<g id="a_edge39_Node000031_Node000032"><a xlink:title=" ">
<path fill="none" stroke="#63b8ff" d="M1437.77,-115.49C1470.87,-105.36 1526.34,-88.37 1563.29,-77.05"/>
<polygon fill="#63b8ff" stroke="#63b8ff" points="1564.66,-80.29 1573.19,-74.02 1562.61,-73.6 1564.66,-80.29"/>
</a>
</g>
</g>
<!-- Node33 -->
<g id="Node000033" class="node">
<title>Node33</title>
<g id="a_Node000033"><a xlink:title=" ">
<polygon fill="#e0e0e0" stroke="#999999" points="1649,-19 1605,-19 1605,0 1649,0 1649,-19"/>
<text text-anchor="middle" x="1627" y="-7" font-family="Helvetica,sans-Serif" font-size="10.00">string</text>
</a>
</g>
</g>
<!-- Node31&#45;&gt;Node33 -->
<g id="edge40_Node000031_Node000033" class="edge">
<title>Node31&#45;&gt;Node33</title>
<g id="a_edge40_Node000031_Node000033"><a xlink:title=" ">
<path fill="none" stroke="#63b8ff" d="M1438.4,-115.47C1445.13,-113.57 1452.29,-111.63 1459,-110 1537.85,-90.84 1586.59,-136.78 1638,-74 1648.38,-61.32 1643.28,-42.37 1637.02,-28.47"/>
<polygon fill="#63b8ff" stroke="#63b8ff" points="1640.08,-26.76 1632.46,-19.4 1633.83,-29.91 1640.08,-26.76"/>
</a>
</g>
</g>
<!-- Node34 -->
<g id="Node000034" class="node">
<title>Node34</title>
<g id="a_Node000034"><a xlink:title=" ">
<polygon fill="#e0e0e0" stroke="#999999" points="1300,-74 1182,-74 1182,-55 1300,-55 1300,-74"/>
<text text-anchor="middle" x="1241" y="-62" font-family="Helvetica,sans-Serif" font-size="10.00">llvm/ADT/StringRef.h</text>
</a>
</g>
</g>
<!-- Node31&#45;&gt;Node34 -->
<g id="edge42_Node000031_Node000034" class="edge">
<title>Node31&#45;&gt;Node34</title>
<g id="a_edge42_Node000031_Node000034"><a xlink:title=" ">
<path fill="none" stroke="#63b8ff" d="M1385.43,-115.49C1356.39,-105.44 1307.9,-88.66 1275.2,-77.34"/>
<polygon fill="#63b8ff" stroke="#63b8ff" points="1276.2,-73.98 1265.6,-74.02 1273.91,-80.6 1276.2,-73.98"/>
</a>
</g>
</g>
<!-- Node35 -->
<g id="Node000035" class="node">
<title>Node35</title>
<g id="a_Node000035"><a xlink:title=" ">
<polygon fill="#e0e0e0" stroke="#999999" points="1437.5,-74 1318.5,-74 1318.5,-55 1437.5,-55 1437.5,-74"/>
<text text-anchor="middle" x="1378" y="-62" font-family="Helvetica,sans-Serif" font-size="10.00">clang/AST/DeclCXX.h</text>
</a>
</g>
</g>
<!-- Node31&#45;&gt;Node35 -->
<g id="edge43_Node000031_Node000035" class="edge">
<title>Node31&#45;&gt;Node35</title>
<g id="a_edge43_Node000031_Node000035"><a xlink:title=" ">
<path fill="none" stroke="#63b8ff" d="M1405.28,-115.37C1400.65,-106.9 1393.45,-93.74 1387.61,-83.07"/>
<polygon fill="#63b8ff" stroke="#63b8ff" points="1390.61,-81.26 1382.74,-74.17 1384.47,-84.62 1390.61,-81.26"/>
</a>
</g>
</g>
<!-- Node36 -->
<g id="Node000036" class="node">
<title>Node36</title>
<g id="a_Node000036"><a xlink:title=" ">
<polygon fill="#e0e0e0" stroke="#999999" points="1554.5,-74 1455.5,-74 1455.5,-55 1554.5,-55 1554.5,-74"/>
<text text-anchor="middle" x="1505" y="-62" font-family="Helvetica,sans-Serif" font-size="10.00">clang/AST/Type.h</text>
</a>
</g>
</g>
<!-- Node31&#45;&gt;Node36 -->
<g id="edge44_Node000031_Node000036" class="edge">
<title>Node31&#45;&gt;Node36</title>
<g id="a_edge44_Node000031_Node000036"><a xlink:title=" ">
<path fill="none" stroke="#63b8ff" d="M1424.02,-115.37C1439.31,-105.95 1464.03,-90.73 1482.14,-79.58"/>
<polygon fill="#63b8ff" stroke="#63b8ff" points="1484.25,-82.39 1490.92,-74.17 1480.57,-76.43 1484.25,-82.39"/>
</a>
</g>
</g>
<!-- Node37 -->
<g id="Node000037" class="node">
<title>Node37</title>
<g id="a_Node000037"><a xlink:href="Param_8hpp.html" target="_top" xlink:title=" ">
<polygon fill="white" stroke="#666666" points="1867,-74 1799,-74 1799,-55 1867,-55 1867,-74"/>
<text text-anchor="middle" x="1833" y="-62" font-family="Helvetica,sans-Serif" font-size="10.00">Param.hpp</text>
</a>
</g>
</g>
<!-- Node31&#45;&gt;Node37 -->
<g id="edge45_Node000031_Node000037" class="edge">
<title>Node31&#45;&gt;Node37</title>
<g id="a_edge45_Node000031_Node000037"><a xlink:title=" ">
<path fill="none" stroke="#63b8ff" d="M1437.02,-115.44C1444.12,-113.43 1451.8,-111.45 1459,-110 1576.84,-86.31 1718.27,-73.7 1788.67,-68.47"/>
<polygon fill="#63b8ff" stroke="#63b8ff" points="1789.21,-71.94 1798.93,-67.72 1788.71,-64.96 1789.21,-71.94"/>
</a>
</g>
</g>
<!-- Node37&#45;&gt;Node33 -->
<g id="edge47_Node000037_Node000033" class="edge">
<title>Node37&#45;&gt;Node33</title>
<g id="a_edge47_Node000037_Node000033"><a xlink:title=" ">
<path fill="none" stroke="#63b8ff" d="M1798.75,-54.99C1765.43,-46.67 1713.14,-33.49 1658.81,-19.18"/>
<polygon fill="#63b8ff" stroke="#63b8ff" points="1659.56,-15.76 1649,-16.59 1657.78,-22.52 1659.56,-15.76"/>
</a>
</g>
</g>
<!-- Node38 -->
<g id="Node000038" class="node">
<title>Node38</title>
<g id="a_Node000038"><a xlink:title=" ">
<polygon fill="#e0e0e0" stroke="#999999" points="2061.5,-19 2004.5,-19 2004.5,0 2061.5,0 2061.5,-19"/>
<text text-anchor="middle" x="2033" y="-7" font-family="Helvetica,sans-Serif" font-size="10.00">ostream</text>
</a>
</g>
</g>
<!-- Node37&#45;&gt;Node38 -->
<g id="edge46_Node000037_Node000038" class="edge">
<title>Node37&#45;&gt;Node38</title>
<g id="a_edge46_Node000037_Node000038"><a xlink:title=" ">
<path fill="none" stroke="#63b8ff" d="M1865.13,-54.98C1900.26,-45.68 1956.53,-30.76 1994.12,-20.8"/>
<polygon fill="#63b8ff" stroke="#63b8ff" points="1995.42,-24.08 2004.19,-18.13 1993.63,-17.31 1995.42,-24.08"/>
</a>
</g>
</g>
<!-- Node39 -->
<g id="Node000039" class="node">
<title>Node39</title>
<g id="a_Node000039"><a xlink:title=" ">
<polygon fill="#e0e0e0" stroke="#999999" points="2178,-19 2080,-19 2080,0 2178,0 2178,-19"/>
<text text-anchor="middle" x="2129" y="-7" font-family="Helvetica,sans-Serif" font-size="10.00">clang/AST/Decl.h</text>
</a>
</g>
</g>
<!-- Node37&#45;&gt;Node39 -->
<g id="edge48_Node000037_Node000039" class="edge">
<title>Node37&#45;&gt;Node39</title>
<g id="a_edge48_Node000037_Node000039"><a xlink:title=" ">
<path fill="none" stroke="#63b8ff" d="M1867.24,-57.37C1917.16,-48.43 2010.56,-31.71 2071.23,-20.84"/>
<polygon fill="#63b8ff" stroke="#63b8ff" points="2072.19,-24.23 2081.42,-19.02 2070.96,-17.34 2072.19,-24.23"/>
</a>
</g>
</g>
<!-- Node40 -->
<g id="Node000040" class="node">
<title>Node40</title>
<g id="a_Node000040"><a xlink:title=" ">
<polygon fill="#e0e0e0" stroke="#999999" points="1831,-19 1667,-19 1667,0 1831,0 1831,-19"/>
<text text-anchor="middle" x="1749" y="-7" font-family="Helvetica,sans-Serif" font-size="10.00">clang/AST/DependenceFlags.h</text>
</a>
</g>
</g>
<!-- Node37&#45;&gt;Node40 -->
<g id="edge49_Node000037_Node000040" class="edge">
<title>Node37&#45;&gt;Node40</title>
<g id="a_edge49_Node000037_Node000040"><a xlink:title=" ">
<path fill="none" stroke="#63b8ff" d="M1819.5,-54.98C1806.6,-46.84 1786.9,-34.41 1771.6,-24.76"/>
<polygon fill="#63b8ff" stroke="#63b8ff" points="1773.07,-21.55 1762.74,-19.17 1769.33,-27.47 1773.07,-21.55"/>
</a>
</g>
</g>
<!-- Node41 -->
<g id="Node000041" class="node">
<title>Node41</title>
<g id="a_Node000041"><a xlink:title=" ">
<polygon fill="#e0e0e0" stroke="#999999" points="1986.5,-19 1849.5,-19 1849.5,0 1986.5,0 1986.5,-19"/>
<text text-anchor="middle" x="1918" y="-7" font-family="Helvetica,sans-Serif" font-size="10.00">clang/AST/PrettyPrinter.h</text>
</a>
</g>
</g>
<!-- Node37&#45;&gt;Node41 -->
<g id="edge50_Node000037_Node000041" class="edge">
<title>Node37&#45;&gt;Node41</title>
<g id="a_edge50_Node000037_Node000041"><a xlink:title=" ">
<path fill="none" stroke="#63b8ff" d="M1846.66,-54.98C1859.84,-46.77 1880.03,-34.18 1895.57,-24.49"/>
<polygon fill="#63b8ff" stroke="#63b8ff" points="1897.46,-27.43 1904.09,-19.17 1893.76,-21.49 1897.46,-27.43"/>
</a>
</g>
</g>
<!-- Node42&#45;&gt;Node17 -->
<g id="edge53_Node000042_Node000017" class="edge">
<title>Node42&#45;&gt;Node17</title>
<g id="a_edge53_Node000042_Node000017"><a xlink:title=" ">
<path fill="none" stroke="#63b8ff" d="M1187.31,-181.47C1250.54,-171.88 1356.53,-155.77 1457.94,-140.16"/>
<polygon fill="#63b8ff" stroke="#63b8ff" points="1458.7,-143.59 1468.05,-138.6 1457.63,-136.67 1458.7,-143.59"/>
</a>
</g>
</g>
<!-- Node42&#45;&gt;Node24 -->
<g id="edge52_Node000042_Node000024" class="edge">
<title>Node42&#45;&gt;Node24</title>
<g id="a_edge52_Node000042_Node000024"><a xlink:title=" ">
<path fill="none" stroke="#63b8ff" d="M1176.07,-181.44C1216.69,-172.71 1271.99,-157.91 1285,-140 1292.84,-129.21 1292.93,-120.72 1285,-110 1281.57,-105.37 1215.03,-86.26 1173.29,-74.64"/>
<polygon fill="#63b8ff" stroke="#63b8ff" points="1174.09,-71.23 1163.52,-71.93 1172.22,-77.98 1174.09,-71.23"/>
</a>
</g>
</g>
<!-- Node42&#45;&gt;Node31 -->
<g id="edge54_Node000042_Node000031" class="edge">
<title>Node42&#45;&gt;Node31</title>
<g id="a_edge54_Node000042_Node000031"><a xlink:title=" ">
<path fill="none" stroke="#63b8ff" d="M1168.34,-181.44C1218.66,-169.89 1308.25,-149.34 1363.07,-136.77"/>
<polygon fill="#63b8ff" stroke="#63b8ff" points="1363.92,-140.16 1372.88,-134.51 1362.35,-133.34 1363.92,-140.16"/>
</a>
</g>
</g>
<!-- Node43&#45;&gt;Node18 -->
<g id="edge57_Node000043_Node000018" class="edge">
<title>Node43&#45;&gt;Node18</title>
<g id="a_edge57_Node000043_Node000018"><a xlink:title=" ">
<path fill="none" stroke="#63b8ff" d="M3344.07,-181.37C3337.41,-171.69 3326.44,-155.74 3317.99,-143.44"/>
<polygon fill="#63b8ff" stroke="#63b8ff" points="3320.67,-141.16 3312.12,-134.91 3314.9,-145.13 3320.67,-141.16"/>
</a>
</g>
</g>
</g>
</svg>
