<?xml version="1.0" encoding="UTF-8" standalone="no"?>
<!DOCTYPE svg PUBLIC "-//W3C//DTD SVG 1.1//EN"
 "http://www.w3.org/Graphics/SVG/1.1/DTD/svg11.dtd">
<!-- Generated by graphviz version 2.43.0 (0)
 -->
<!-- Title: include/Matcher/Matcher.hpp Pages: 1 -->
<svg width="254pt" height="82pt"
 viewBox="0.00 0.00 254.00 82.00" xmlns="http://www.w3.org/2000/svg" xmlns:xlink="http://www.w3.org/1999/xlink">
<g id="graph0" class="graph" transform="scale(1 1) rotate(0) translate(4 78)">
<title>include/Matcher/Matcher.hpp</title>
<!-- Node1 -->
<g id="Node000001" class="node">
<title>Node1</title>
<g id="a_Node000001"><a xlink:title="AST matcher expressions to filter the relevant nodes for template instantiations.">
<polygon fill="#999999" stroke="#666666" points="191,-74 33,-74 33,-55 191,-55 191,-74"/>
<text text-anchor="middle" x="112" y="-62" font-family="Helvetica,sans-Serif" font-size="10.00">include/Matcher/Matcher.hpp</text>
</a>
</g>
</g>
<!-- Node2 -->
<g id="Node000002" class="node">
<title>Node2</title>
<g id="a_Node000002"><a xlink:href="Instantiator_8cpp.html" target="_top" xlink:title=" ">
<polygon fill="white" stroke="#666666" points="92,-19 0,-19 0,0 92,0 92,-19"/>
<text text-anchor="middle" x="46" y="-7" font-family="Helvetica,sans-Serif" font-size="10.00">Instantiator.cpp</text>
</a>
</g>
</g>
<!-- Node1&#45;&gt;Node2 -->
<g id="edge1_Node000001_Node000002" class="edge">
<title>Node1&#45;&gt;Node2</title>
<g id="a_edge1_Node000001_Node000002"><a xlink:title=" ">
<path fill="none" stroke="#63b8ff" d="M93.45,-48.6C81.62,-39.11 66.71,-27.13 56.8,-19.17"/>
<polygon fill="#63b8ff" stroke="#63b8ff" points="91.41,-51.45 101.4,-54.98 95.79,-45.99 91.41,-51.45"/>
</a>
</g>
</g>
<!-- Node3 -->
<g id="Node000003" class="node">
<title>Node3</title>
<g id="a_Node000003"><a xlink:href="Matcher_8cpp.html" target="_top" xlink:title=" ">
<polygon fill="white" stroke="#666666" points="246,-19 110,-19 110,0 246,0 246,-19"/>
<text text-anchor="middle" x="178" y="-7" font-family="Helvetica,sans-Serif" font-size="10.00">src/Matcher/Matcher.cpp</text>
</a>
</g>
</g>
<!-- Node1&#45;&gt;Node3 -->
<g id="edge2_Node000001_Node000003" class="edge">
<title>Node1&#45;&gt;Node3</title>
<g id="a_edge2_Node000001_Node000003"><a xlink:title=" ">
<path fill="none" stroke="#63b8ff" d="M130.55,-48.6C142.38,-39.11 157.29,-27.13 167.2,-19.17"/>
<polygon fill="#63b8ff" stroke="#63b8ff" points="128.21,-45.99 122.6,-54.98 132.59,-51.45 128.21,-45.99"/>
</a>
</g>
</g>
</g>
</svg>
