<?xml version="1.0" encoding="UTF-8" standalone="no"?>
<!DOCTYPE svg PUBLIC "-//W3C//DTD SVG 1.1//EN"
 "http://www.w3.org/Graphics/SVG/1.1/DTD/svg11.dtd">
<!-- Generated by graphviz version 2.43.0 (0)
 -->
<!-- Title: include/Param.hpp Pages: 1 -->
<svg width="906pt" height="203pt"
 viewBox="0.00 0.00 905.50 203.00" xmlns="http://www.w3.org/2000/svg" xmlns:xlink="http://www.w3.org/1999/xlink">
<g id="graph0" class="graph" transform="scale(1 1) rotate(0) translate(4 199)">
<title>include/Param.hpp</title>
<!-- Node1 -->
<g id="Node000001" class="node">
<title>Node1</title>
<g id="a_Node000001"><a xlink:title=" ">
<polygon fill="#999999" stroke="#666666" points="714.5,-195 607.5,-195 607.5,-176 714.5,-176 714.5,-195"/>
<text text-anchor="middle" x="661" y="-183" font-family="Helvetica,sans-Serif" font-size="10.00">include/Param.hpp</text>
</a>
</g>
</g>
<!-- Node2 -->
<g id="Node000002" class="node">
<title>Node2</title>
<g id="a_Node000002"><a xlink:href="Injection_8hpp.html" target="_top" xlink:title=" ">
<polygon fill="white" stroke="#666666" points="509,-140 391,-140 391,-121 509,-121 509,-140"/>
<text text-anchor="middle" x="450" y="-128" font-family="Helvetica,sans-Serif" font-size="10.00">include/Injection.hpp</text>
</a>
</g>
</g>
<!-- Node1&#45;&gt;Node2 -->
<g id="edge1_Node000001_Node000002" class="edge">
<title>Node1&#45;&gt;Node2</title>
<g id="a_edge1_Node000001_Node000002"><a xlink:title=" ">
<path fill="none" stroke="#63b8ff" d="M617.21,-173.5C577.7,-163.58 520.38,-149.18 484.17,-140.08"/>
<polygon fill="#63b8ff" stroke="#63b8ff" points="616.55,-176.94 627.1,-175.98 618.25,-170.15 616.55,-176.94"/>
</a>
</g>
</g>
<!-- Node8 -->
<g id="Node000008" class="node">
<title>Node8</title>
<g id="a_Node000008"><a xlink:href="Template_8hpp.html" target="_top" xlink:title=" ">
<polygon fill="white" stroke="#666666" points="637.5,-79.5 516.5,-79.5 516.5,-60.5 637.5,-60.5 637.5,-79.5"/>
<text text-anchor="middle" x="577" y="-67.5" font-family="Helvetica,sans-Serif" font-size="10.00">include/Template.hpp</text>
</a>
</g>
</g>
<!-- Node1&#45;&gt;Node8 -->
<g id="edge20_Node000001_Node000008" class="edge">
<title>Node1&#45;&gt;Node8</title>
<g id="a_edge20_Node000001_Node000008"><a xlink:title=" ">
<path fill="none" stroke="#63b8ff" d="M648.52,-167.64C630.35,-143.09 597.26,-98.37 583.39,-79.63"/>
<polygon fill="#63b8ff" stroke="#63b8ff" points="645.92,-170.01 654.69,-175.97 651.55,-165.85 645.92,-170.01"/>
</a>
</g>
</g>
<!-- Node11 -->
<g id="Node000011" class="node">
<title>Node11</title>
<g id="a_Node000011"><a xlink:href="Parsing_8hpp.html" target="_top" xlink:title="Helper functions for parsing information from AST nodes.">
<polygon fill="white" stroke="#666666" points="759.5,-140 648.5,-140 648.5,-121 759.5,-121 759.5,-140"/>
<text text-anchor="middle" x="704" y="-128" font-family="Helvetica,sans-Serif" font-size="10.00">include/Parsing.hpp</text>
</a>
</g>
</g>
<!-- Node1&#45;&gt;Node11 -->
<g id="edge16_Node000001_Node000011" class="edge">
<title>Node1&#45;&gt;Node11</title>
<g id="a_edge16_Node000001_Node000011"><a xlink:title=" ">
<path fill="none" stroke="#63b8ff" d="M674.42,-167.96C681.91,-158.72 690.94,-147.6 697.03,-140.09"/>
<polygon fill="#63b8ff" stroke="#63b8ff" points="671.68,-165.78 668.1,-175.75 677.12,-170.19 671.68,-165.78"/>
</a>
</g>
</g>
<!-- Node13 -->
<g id="Node000013" class="node">
<title>Node13</title>
<g id="a_Node000013"><a xlink:href="Param_8cpp.html" target="_top" xlink:title=" ">
<polygon fill="white" stroke="#666666" points="862.5,-140 777.5,-140 777.5,-121 862.5,-121 862.5,-140"/>
<text text-anchor="middle" x="820" y="-128" font-family="Helvetica,sans-Serif" font-size="10.00">src/Param.cpp</text>
</a>
</g>
</g>
<!-- Node1&#45;&gt;Node13 -->
<g id="edge21_Node000001_Node000013" class="edge">
<title>Node1&#45;&gt;Node13</title>
<g id="a_edge21_Node000001_Node000013"><a xlink:title=" ">
<path fill="none" stroke="#63b8ff" d="M696.1,-172.8C725.78,-162.91 767.6,-148.97 794.25,-140.08"/>
<polygon fill="#63b8ff" stroke="#63b8ff" points="694.93,-169.5 686.55,-175.98 697.14,-176.14 694.93,-169.5"/>
</a>
</g>
</g>
<!-- Node3 -->
<g id="Node000003" class="node">
<title>Node3</title>
<g id="a_Node000003"><a xlink:href="Instantiator_8cpp.html" target="_top" xlink:title=" ">
<polygon fill="white" stroke="#666666" points="92,-19 0,-19 0,0 92,0 92,-19"/>
<text text-anchor="middle" x="46" y="-7" font-family="Helvetica,sans-Serif" font-size="10.00">Instantiator.cpp</text>
</a>
</g>
</g>
<!-- Node2&#45;&gt;Node3 -->
<g id="edge2_Node000002_Node000003" class="edge">
<title>Node2&#45;&gt;Node3</title>
<g id="a_edge2_Node000002_Node000003"><a xlink:title=" ">
<path fill="none" stroke="#63b8ff" d="M380.68,-125.71C276.25,-119.39 88.26,-105.32 65,-85 45.8,-68.23 44.67,-35.01 45.34,-19.23"/>
<polygon fill="#63b8ff" stroke="#63b8ff" points="380.63,-129.22 390.82,-126.32 381.05,-122.23 380.63,-129.22"/>
</a>
</g>
</g>
<!-- Node4 -->
<g id="Node000004" class="node">
<title>Node4</title>
<g id="a_Node000004"><a xlink:href="GetNeededInstantiations_8hpp.html" target="_top" xlink:title=" ">
<polygon fill="white" stroke="#666666" points="234,-85 74,-85 74,-55 234,-55 234,-85"/>
<text text-anchor="start" x="82" y="-73" font-family="Helvetica,sans-Serif" font-size="10.00">include/Callbacks/GetNeeded</text>
<text text-anchor="middle" x="154" y="-62" font-family="Helvetica,sans-Serif" font-size="10.00">Instantiations.hpp</text>
</a>
</g>
</g>
<!-- Node2&#45;&gt;Node4 -->
<g id="edge3_Node000002_Node000004" class="edge">
<title>Node2&#45;&gt;Node4</title>
<g id="a_edge3_Node000002_Node000004"><a xlink:title=" ">
<path fill="none" stroke="#63b8ff" d="M397.07,-119.04C349.03,-109.55 277.82,-95.47 224.88,-85.01"/>
<polygon fill="#63b8ff" stroke="#63b8ff" points="396.47,-122.49 406.96,-120.99 397.83,-115.62 396.47,-122.49"/>
</a>
</g>
</g>
<!-- Node5 -->
<g id="Node000005" class="node">
<title>Node5</title>
<g id="a_Node000005"><a xlink:href="GetNeededInstantiations_8cpp.html" target="_top" xlink:title=" ">
<polygon fill="white" stroke="#666666" points="336,-19 110,-19 110,0 336,0 336,-19"/>
<text text-anchor="middle" x="223" y="-7" font-family="Helvetica,sans-Serif" font-size="10.00">src/Callbacks/GetNeededInstantiations.cpp</text>
</a>
</g>
</g>
<!-- Node2&#45;&gt;Node5 -->
<g id="edge12_Node000002_Node000005" class="edge">
<title>Node2&#45;&gt;Node5</title>
<g id="a_edge12_Node000002_Node000005"><a xlink:title=" ">
<path fill="none" stroke="#63b8ff" d="M441.06,-111.91C431.47,-94.82 414.65,-69.4 393,-55 364.67,-36.16 328.77,-25.29 297.27,-19.02"/>
<polygon fill="#63b8ff" stroke="#63b8ff" points="438.05,-113.7 445.85,-120.86 444.22,-110.39 438.05,-113.7"/>
</a>
</g>
</g>
<!-- Node6 -->
<g id="Node000006" class="node">
<title>Node6</title>
<g id="a_Node000006"><a xlink:href="InjectInstantiation_8hpp.html" target="_top" xlink:title=" ">
<polygon fill="white" stroke="#666666" points="384,-85 252,-85 252,-55 384,-55 384,-85"/>
<text text-anchor="start" x="260" y="-73" font-family="Helvetica,sans-Serif" font-size="10.00">include/Callbacks/Inject</text>
<text text-anchor="middle" x="318" y="-62" font-family="Helvetica,sans-Serif" font-size="10.00">Instantiation.hpp</text>
</a>
</g>
</g>
<!-- Node2&#45;&gt;Node6 -->
<g id="edge6_Node000002_Node000006" class="edge">
<title>Node2&#45;&gt;Node6</title>
<g id="a_edge6_Node000002_Node000006"><a xlink:title=" ">
<path fill="none" stroke="#63b8ff" d="M421.41,-116.83C400.29,-107.47 371.56,-94.74 349.73,-85.06"/>
<polygon fill="#63b8ff" stroke="#63b8ff" points="420.25,-120.14 430.81,-120.99 423.08,-113.74 420.25,-120.14"/>
</a>
</g>
</g>
<!-- Node7 -->
<g id="Node000007" class="node">
<title>Node7</title>
<g id="a_Node000007"><a xlink:href="InjectInstantiation_8cpp.html" target="_top" xlink:title=" ">
<polygon fill="white" stroke="#666666" points="547.5,-19 354.5,-19 354.5,0 547.5,0 547.5,-19"/>
<text text-anchor="middle" x="451" y="-7" font-family="Helvetica,sans-Serif" font-size="10.00">src/Callbacks/InjectInstantiation.cpp</text>
</a>
</g>
</g>
<!-- Node2&#45;&gt;Node7 -->
<g id="edge13_Node000002_Node000007" class="edge">
<title>Node2&#45;&gt;Node7</title>
<g id="a_edge13_Node000002_Node000007"><a xlink:title=" ">
<path fill="none" stroke="#63b8ff" d="M450.16,-110.86C450.38,-84.81 450.76,-38.56 450.93,-19.3"/>
<polygon fill="#63b8ff" stroke="#63b8ff" points="446.66,-110.91 450.07,-120.94 453.66,-110.97 446.66,-110.91"/>
</a>
</g>
</g>
<!-- Node2&#45;&gt;Node8 -->
<g id="edge9_Node000002_Node000008" class="edge">
<title>Node2&#45;&gt;Node8</title>
<g id="a_edge9_Node000002_Node000008"><a xlink:title=" ">
<path fill="none" stroke="#63b8ff" d="M477.61,-116.78C502.12,-105.49 537.24,-89.31 558.51,-79.52"/>
<polygon fill="#63b8ff" stroke="#63b8ff" points="476.09,-113.63 468.47,-120.99 479.01,-119.99 476.09,-113.63"/>
</a>
</g>
</g>
<!-- Node9 -->
<g id="Node000009" class="node">
<title>Node9</title>
<g id="a_Node000009"><a xlink:href="Template_8cpp.html" target="_top" xlink:title=" ">
<polygon fill="white" stroke="#666666" points="664.5,-19 565.5,-19 565.5,0 664.5,0 664.5,-19"/>
<text text-anchor="middle" x="615" y="-7" font-family="Helvetica,sans-Serif" font-size="10.00">src/Template.cpp</text>
</a>
</g>
</g>
<!-- Node2&#45;&gt;Node9 -->
<g id="edge15_Node000002_Node000009" class="edge">
<title>Node2&#45;&gt;Node9</title>
<g id="a_edge15_Node000002_Node000009"><a xlink:title=" ">
<path fill="none" stroke="#63b8ff" d="M459.53,-112.25C469.48,-95.63 486.48,-70.74 507,-55 529.37,-37.85 559.28,-26.2 581.96,-19.14"/>
<polygon fill="#63b8ff" stroke="#63b8ff" points="456.48,-110.54 454.52,-120.95 462.54,-114.04 456.48,-110.54"/>
</a>
</g>
</g>
<!-- Node10 -->
<g id="Node000010" class="node">
<title>Node10</title>
<g id="a_Node000010"><a xlink:href="Injection_8cpp.html" target="_top" xlink:title=" ">
<polygon fill="white" stroke="#666666" points="752,-79.5 656,-79.5 656,-60.5 752,-60.5 752,-79.5"/>
<text text-anchor="middle" x="704" y="-67.5" font-family="Helvetica,sans-Serif" font-size="10.00">src/Injection.cpp</text>
</a>
</g>
</g>
<!-- Node2&#45;&gt;Node10 -->
<g id="edge14_Node000002_Node000010" class="edge">
<title>Node2&#45;&gt;Node10</title>
<g id="a_edge14_Node000002_Node000010"><a xlink:title=" ">
<path fill="none" stroke="#63b8ff" d="M498.28,-118.73C537.98,-109.83 595.68,-96.78 646,-85 653.46,-83.25 661.46,-81.34 669.05,-79.52"/>
<polygon fill="#63b8ff" stroke="#63b8ff" points="497.34,-115.35 488.34,-120.96 498.87,-122.19 497.34,-115.35"/>
</a>
</g>
</g>
<!-- Node4&#45;&gt;Node3 -->
<g id="edge4_Node000004_Node000003" class="edge">
<title>Node4&#45;&gt;Node3</title>
<g id="a_edge4_Node000004_Node000003"><a xlink:title=" ">
<path fill="none" stroke="#63b8ff" d="M119.31,-50.21C100.04,-39.77 76.99,-27.29 61.95,-19.14"/>
<polygon fill="#63b8ff" stroke="#63b8ff" points="117.67,-53.3 128.13,-54.99 121.01,-47.15 117.67,-53.3"/>
</a>
</g>
</g>
<!-- Node4&#45;&gt;Node5 -->
<g id="edge5_Node000004_Node000005" class="edge">
<title>Node4&#45;&gt;Node5</title>
<g id="a_edge5_Node000004_Node000005"><a xlink:title=" ">
<path fill="none" stroke="#63b8ff" d="M178.48,-48.24C190.22,-38.29 203.65,-26.91 212.66,-19.27"/>
<polygon fill="#63b8ff" stroke="#63b8ff" points="176.07,-45.7 170.7,-54.84 180.59,-51.04 176.07,-45.7"/>
</a>
</g>
</g>
<!-- Node6&#45;&gt;Node3 -->
<g id="edge7_Node000006_Node000003" class="edge">
<title>Node6&#45;&gt;Node3</title>
<g id="a_edge7_Node000006_Node000003"><a xlink:title=" ">
<path fill="none" stroke="#63b8ff" d="M242.88,-52.84C192.03,-41.91 126.88,-27.89 85.77,-19.05"/>
<polygon fill="#63b8ff" stroke="#63b8ff" points="242.34,-56.31 252.85,-54.99 243.81,-49.46 242.34,-56.31"/>
</a>
</g>
</g>
<!-- Node6&#45;&gt;Node7 -->
<g id="edge8_Node000006_Node000007" class="edge">
<title>Node6&#45;&gt;Node7</title>
<g id="a_edge8_Node000006_Node000007"><a xlink:title=" ">
<path fill="none" stroke="#63b8ff" d="M359.12,-50.91C383.16,-40.34 412.42,-27.47 431.36,-19.14"/>
<polygon fill="#63b8ff" stroke="#63b8ff" points="357.6,-47.76 349.86,-54.99 360.42,-54.17 357.6,-47.76"/>
</a>
</g>
</g>
<!-- Node8&#45;&gt;Node7 -->
<g id="edge10_Node000008_Node000007" class="edge">
<title>Node8&#45;&gt;Node7</title>
<g id="a_edge10_Node000008_Node000007"><a xlink:title=" ">
<path fill="none" stroke="#63b8ff" d="M549.29,-56.13C524.99,-44.85 490.35,-28.77 469.34,-19.02"/>
<polygon fill="#63b8ff" stroke="#63b8ff" points="548.13,-59.46 558.68,-60.49 551.08,-53.11 548.13,-59.46"/>
</a>
</g>
</g>
<!-- Node8&#45;&gt;Node9 -->
<g id="edge11_Node000008_Node000009" class="edge">
<title>Node8&#45;&gt;Node9</title>
<g id="a_edge11_Node000008_Node000009"><a xlink:title=" ">
<path fill="none" stroke="#63b8ff" d="M588.17,-51.8C595.14,-41.08 603.8,-27.73 609.37,-19.17"/>
<polygon fill="#63b8ff" stroke="#63b8ff" points="585.12,-50.08 582.61,-60.37 590.99,-53.89 585.12,-50.08"/>
</a>
</g>
</g>
<!-- Node11&#45;&gt;Node9 -->
<g id="edge19_Node000011_Node000009" class="edge">
<title>Node11&#45;&gt;Node9</title>
<g id="a_edge19_Node000011_Node000009"><a xlink:title=" ">
<path fill="none" stroke="#63b8ff" d="M731.24,-115.57C742.65,-108.17 754.7,-97.91 761,-85 766.85,-73.02 768.94,-65.71 761,-55 739,-25.29 697.62,-14.75 664.52,-11.3"/>
<polygon fill="#63b8ff" stroke="#63b8ff" points="729.14,-112.75 722.35,-120.88 732.73,-118.75 729.14,-112.75"/>
</a>
</g>
</g>
<!-- Node11&#45;&gt;Node10 -->
<g id="edge17_Node000011_Node000010" class="edge">
<title>Node11&#45;&gt;Node10</title>
<g id="a_edge17_Node000011_Node000010"><a xlink:title=" ">
<path fill="none" stroke="#63b8ff" d="M704,-110.66C704,-100.24 704,-87.8 704,-79.67"/>
<polygon fill="#63b8ff" stroke="#63b8ff" points="700.5,-110.87 704,-120.87 707.5,-110.87 700.5,-110.87"/>
</a>
</g>
</g>
<!-- Node12 -->
<g id="Node000012" class="node">
<title>Node12</title>
<g id="a_Node000012"><a xlink:href="Parsing_8cpp.html" target="_top" xlink:title=" ">
<polygon fill="white" stroke="#666666" points="897.5,-79.5 808.5,-79.5 808.5,-60.5 897.5,-60.5 897.5,-79.5"/>
<text text-anchor="middle" x="853" y="-67.5" font-family="Helvetica,sans-Serif" font-size="10.00">src/Parsing.cpp</text>
</a>
</g>
</g>
<!-- Node11&#45;&gt;Node12 -->
<g id="edge18_Node000011_Node000012" class="edge">
<title>Node11&#45;&gt;Node12</title>
<g id="a_edge18_Node000011_Node000012"><a xlink:title=" ">
<path fill="none" stroke="#63b8ff" d="M735.25,-117.23C764.05,-105.92 806.03,-89.44 831.31,-79.52"/>
<polygon fill="#63b8ff" stroke="#63b8ff" points="733.7,-114.08 725.67,-120.99 736.25,-120.6 733.7,-114.08"/>
</a>
</g>
</g>
</g>
</svg>
