<?xml version="1.0" encoding="UTF-8" standalone="no"?>
<!DOCTYPE svg PUBLIC "-//W3C//DTD SVG 1.1//EN"
 "http://www.w3.org/Graphics/SVG/1.1/DTD/svg11.dtd">
<!-- Generated by graphviz version 2.43.0 (0)
 -->
<!-- Title: include/Param.hpp Pages: 1 -->
<svg width="906pt" height="207pt"
 viewBox="0.00 0.00 905.50 207.00" xmlns="http://www.w3.org/2000/svg" xmlns:xlink="http://www.w3.org/1999/xlink">
<g id="graph0" class="graph" transform="scale(1 1) rotate(0) translate(4 203)">
<title>include/Param.hpp</title>
<!-- Node1 -->
<g id="node1" class="node">
<title>Node1</title>
<g id="a_node1"><a xlink:title=" ">
<polygon fill="#bfbfbf" stroke="black" points="607.5,-179.5 607.5,-198.5 714.5,-198.5 714.5,-179.5 607.5,-179.5"/>
<text text-anchor="middle" x="661" y="-186.5" font-family="Helvetica,sans-Serif" font-size="10.00">include/Param.hpp</text>
</a>
</g>
</g>
<!-- Node2 -->
<g id="node2" class="node">
<title>Node2</title>
<g id="a_node2"><a xlink:href="Injection_8hpp.html" target="_top" xlink:title=" ">
<polygon fill="none" stroke="black" points="391,-123.5 391,-142.5 509,-142.5 509,-123.5 391,-123.5"/>
<text text-anchor="middle" x="450" y="-130.5" font-family="Helvetica,sans-Serif" font-size="10.00">include/Injection.hpp</text>
</a>
</g>
</g>
<!-- Node1&#45;&gt;Node2 -->
<g id="edge1" class="edge">
<title>Node1&#45;&gt;Node2</title>
<path fill="none" stroke="midnightblue" d="M617.86,-176.96C578.01,-166.76 519.64,-151.82 483.28,-142.52"/>
<polygon fill="midnightblue" stroke="midnightblue" points="617.01,-180.35 627.57,-179.44 618.75,-173.57 617.01,-180.35"/>
</g>
<!-- Node8 -->
<g id="node8" class="node">
<title>Node8</title>
<g id="a_node8"><a xlink:href="Template_8hpp.html" target="_top" xlink:title=" ">
<polygon fill="none" stroke="black" points="516.5,-62 516.5,-81 637.5,-81 637.5,-62 516.5,-62"/>
<text text-anchor="middle" x="577" y="-69" font-family="Helvetica,sans-Serif" font-size="10.00">include/Template.hpp</text>
</a>
</g>
</g>
<!-- Node1&#45;&gt;Node8 -->
<g id="edge20" class="edge">
<title>Node1&#45;&gt;Node8</title>
<path fill="none" stroke="midnightblue" d="M648.76,-171.17C630.64,-146.26 597.32,-100.44 583.39,-81.28"/>
<polygon fill="midnightblue" stroke="midnightblue" points="645.97,-173.29 654.69,-179.32 651.64,-169.17 645.97,-173.29"/>
</g>
<!-- Node11 -->
<g id="node11" class="node">
<title>Node11</title>
<g id="a_node11"><a xlink:href="Parsing_8hpp.html" target="_top" xlink:title="Helper functions for parsing information from AST nodes.">
<polygon fill="none" stroke="black" points="648.5,-123.5 648.5,-142.5 759.5,-142.5 759.5,-123.5 648.5,-123.5"/>
<text text-anchor="middle" x="704" y="-130.5" font-family="Helvetica,sans-Serif" font-size="10.00">include/Parsing.hpp</text>
</a>
</g>
</g>
<!-- Node1&#45;&gt;Node11 -->
<g id="edge16" class="edge">
<title>Node1&#45;&gt;Node11</title>
<path fill="none" stroke="midnightblue" d="M674.42,-171.14C681.91,-161.74 690.94,-150.4 697.03,-142.75"/>
<polygon fill="midnightblue" stroke="midnightblue" points="671.59,-169.08 668.1,-179.08 677.07,-173.44 671.59,-169.08"/>
</g>
<!-- Node13 -->
<g id="node13" class="node">
<title>Node13</title>
<g id="a_node13"><a xlink:href="Param_8cpp.html" target="_top" xlink:title=" ">
<polygon fill="none" stroke="black" points="777.5,-123.5 777.5,-142.5 862.5,-142.5 862.5,-123.5 777.5,-123.5"/>
<text text-anchor="middle" x="820" y="-130.5" font-family="Helvetica,sans-Serif" font-size="10.00">src/Param.cpp</text>
</a>
</g>
</g>
<!-- Node1&#45;&gt;Node13 -->
<g id="edge21" class="edge">
<title>Node1&#45;&gt;Node13</title>
<path fill="none" stroke="midnightblue" d="M695.83,-176.17C725.77,-166 768.22,-151.59 794.92,-142.52"/>
<polygon fill="midnightblue" stroke="midnightblue" points="694.54,-172.91 686.19,-179.44 696.79,-179.54 694.54,-172.91"/>
</g>
<!-- Node3 -->
<g id="node3" class="node">
<title>Node3</title>
<g id="a_node3"><a xlink:href="Instantiator_8cpp.html" target="_top" xlink:title=" ">
<polygon fill="none" stroke="black" points="0,-0.5 0,-19.5 92,-19.5 92,-0.5 0,-0.5"/>
<text text-anchor="middle" x="46" y="-7.5" font-family="Helvetica,sans-Serif" font-size="10.00">Instantiator.cpp</text>
</a>
</g>
</g>
<!-- Node2&#45;&gt;Node3 -->
<g id="edge2" class="edge">
<title>Node2&#45;&gt;Node3</title>
<path fill="none" stroke="midnightblue" d="M380.66,-128.14C276.22,-121.69 88.2,-107.4 65,-87 45.39,-69.76 44.51,-35.63 45.29,-19.64"/>
<polygon fill="midnightblue" stroke="midnightblue" points="380.62,-131.64 390.81,-128.75 381.04,-124.65 380.62,-131.64"/>
</g>
<!-- Node4 -->
<g id="node4" class="node">
<title>Node4</title>
<g id="a_node4"><a xlink:href="GetNeededInstantiations_8hpp.html" target="_top" xlink:title=" ">
<polygon fill="none" stroke="black" points="74,-56.5 74,-86.5 234,-86.5 234,-56.5 74,-56.5"/>
<text text-anchor="start" x="82" y="-74.5" font-family="Helvetica,sans-Serif" font-size="10.00">include/Callbacks/GetNeeded</text>
<text text-anchor="middle" x="154" y="-63.5" font-family="Helvetica,sans-Serif" font-size="10.00">Instantiations.hpp</text>
</a>
</g>
</g>
<!-- Node2&#45;&gt;Node4 -->
<g id="edge3" class="edge">
<title>Node2&#45;&gt;Node4</title>
<path fill="none" stroke="midnightblue" d="M397.64,-121.48C349.26,-111.75 277.02,-97.23 223.76,-86.52"/>
<polygon fill="midnightblue" stroke="midnightblue" points="397.1,-124.94 407.59,-123.48 398.48,-118.07 397.1,-124.94"/>
</g>
<!-- Node5 -->
<g id="node5" class="node">
<title>Node5</title>
<g id="a_node5"><a xlink:href="GetNeededInstantiations_8cpp.html" target="_top" xlink:title=" ">
<polygon fill="none" stroke="black" points="110,-0.5 110,-19.5 336,-19.5 336,-0.5 110,-0.5"/>
<text text-anchor="middle" x="223" y="-7.5" font-family="Helvetica,sans-Serif" font-size="10.00">src/Callbacks/GetNeededInstantiations.cpp</text>
</a>
</g>
</g>
<!-- Node2&#45;&gt;Node5 -->
<g id="edge12" class="edge">
<title>Node2&#45;&gt;Node5</title>
<path fill="none" stroke="midnightblue" d="M441.29,-114.34C431.78,-96.91 414.95,-70.79 393,-56 364.64,-36.89 328.56,-25.89 296.94,-19.56"/>
<polygon fill="midnightblue" stroke="midnightblue" points="438.3,-116.18 446.02,-123.44 444.51,-112.96 438.3,-116.18"/>
</g>
<!-- Node6 -->
<g id="node6" class="node">
<title>Node6</title>
<g id="a_node6"><a xlink:href="InjectInstantiation_8hpp.html" target="_top" xlink:title=" ">
<polygon fill="none" stroke="black" points="252,-56.5 252,-86.5 384,-86.5 384,-56.5 252,-56.5"/>
<text text-anchor="start" x="260" y="-74.5" font-family="Helvetica,sans-Serif" font-size="10.00">include/Callbacks/Inject</text>
<text text-anchor="middle" x="318" y="-63.5" font-family="Helvetica,sans-Serif" font-size="10.00">Instantiation.hpp</text>
</a>
</g>
</g>
<!-- Node2&#45;&gt;Node6 -->
<g id="edge6" class="edge">
<title>Node2&#45;&gt;Node6</title>
<path fill="none" stroke="midnightblue" d="M421.89,-119.33C400.54,-109.7 371.17,-96.47 349.11,-86.52"/>
<polygon fill="midnightblue" stroke="midnightblue" points="420.53,-122.56 431.09,-123.48 423.41,-116.17 420.53,-122.56"/>
</g>
<!-- Node7 -->
<g id="node7" class="node">
<title>Node7</title>
<g id="a_node7"><a xlink:href="InjectInstantiation_8cpp.html" target="_top" xlink:title=" ">
<polygon fill="none" stroke="black" points="354.5,-0.5 354.5,-19.5 547.5,-19.5 547.5,-0.5 354.5,-0.5"/>
<text text-anchor="middle" x="451" y="-7.5" font-family="Helvetica,sans-Serif" font-size="10.00">src/Callbacks/InjectInstantiation.cpp</text>
</a>
</g>
</g>
<!-- Node2&#45;&gt;Node7 -->
<g id="edge13" class="edge">
<title>Node2&#45;&gt;Node7</title>
<path fill="none" stroke="midnightblue" d="M450.16,-112.99C450.38,-86.35 450.77,-39 450.93,-19.62"/>
<polygon fill="midnightblue" stroke="midnightblue" points="446.65,-113.27 450.07,-123.3 453.65,-113.33 446.65,-113.27"/>
</g>
<!-- Node2&#45;&gt;Node8 -->
<g id="edge9" class="edge">
<title>Node2&#45;&gt;Node8</title>
<path fill="none" stroke="midnightblue" d="M477.38,-119.17C502.02,-107.63 537.54,-90.99 558.84,-81.01"/>
<polygon fill="midnightblue" stroke="midnightblue" points="475.77,-116.06 468.2,-123.48 478.74,-122.4 475.77,-116.06"/>
</g>
<!-- Node9 -->
<g id="node9" class="node">
<title>Node9</title>
<g id="a_node9"><a xlink:href="Template_8cpp.html" target="_top" xlink:title=" ">
<polygon fill="none" stroke="black" points="565.5,-0.5 565.5,-19.5 664.5,-19.5 664.5,-0.5 565.5,-0.5"/>
<text text-anchor="middle" x="615" y="-7.5" font-family="Helvetica,sans-Serif" font-size="10.00">src/Template.cpp</text>
</a>
</g>
</g>
<!-- Node2&#45;&gt;Node9 -->
<g id="edge15" class="edge">
<title>Node2&#45;&gt;Node9</title>
<path fill="none" stroke="midnightblue" d="M459.47,-114.41C469.36,-97.46 486.32,-72.08 507,-56 529.45,-38.54 559.64,-26.72 582.4,-19.59"/>
<polygon fill="midnightblue" stroke="midnightblue" points="456.33,-112.85 454.48,-123.29 462.43,-116.28 456.33,-112.85"/>
</g>
<!-- Node10 -->
<g id="node10" class="node">
<title>Node10</title>
<g id="a_node10"><a xlink:href="Injection_8cpp.html" target="_top" xlink:title=" ">
<polygon fill="none" stroke="black" points="656,-62 656,-81 752,-81 752,-62 656,-62"/>
<text text-anchor="middle" x="704" y="-69" font-family="Helvetica,sans-Serif" font-size="10.00">src/Injection.cpp</text>
</a>
</g>
</g>
<!-- Node2&#45;&gt;Node10 -->
<g id="edge14" class="edge">
<title>Node2&#45;&gt;Node10</title>
<path fill="none" stroke="midnightblue" d="M498.3,-121.18C538.01,-112.22 595.72,-99.06 646,-87 653.87,-85.11 662.33,-83.03 670.29,-81.04"/>
<polygon fill="midnightblue" stroke="midnightblue" points="497.35,-117.81 488.36,-123.42 498.88,-124.64 497.35,-117.81"/>
</g>
<!-- Node4&#45;&gt;Node3 -->
<g id="edge4" class="edge">
<title>Node4&#45;&gt;Node3</title>
<path fill="none" stroke="midnightblue" d="M119.52,-51.51C100.11,-40.81 76.81,-27.97 61.71,-19.66"/>
<polygon fill="midnightblue" stroke="midnightblue" points="117.96,-54.64 128.41,-56.4 121.34,-48.51 117.96,-54.64"/>
</g>
<!-- Node4&#45;&gt;Node5 -->
<g id="edge5" class="edge">
<title>Node4&#45;&gt;Node5</title>
<path fill="none" stroke="midnightblue" d="M178.24,-49.6C190.16,-39.32 203.89,-27.48 212.96,-19.66"/>
<polygon fill="midnightblue" stroke="midnightblue" points="175.64,-47.22 170.35,-56.4 180.21,-52.52 175.64,-47.22"/>
</g>
<!-- Node6&#45;&gt;Node3 -->
<g id="edge7" class="edge">
<title>Node6&#45;&gt;Node3</title>
<path fill="none" stroke="midnightblue" d="M243.83,-54.27C192.48,-43.04 126.19,-28.54 84.89,-19.51"/>
<polygon fill="midnightblue" stroke="midnightblue" points="243.37,-57.76 253.88,-56.47 244.86,-50.92 243.37,-57.76"/>
</g>
<!-- Node6&#45;&gt;Node7 -->
<g id="edge8" class="edge">
<title>Node6&#45;&gt;Node7</title>
<path fill="none" stroke="midnightblue" d="M358.84,-52.23C383.06,-41.39 412.64,-28.16 431.65,-19.66"/>
<polygon fill="midnightblue" stroke="midnightblue" points="357.22,-49.12 349.52,-56.4 360.08,-55.51 357.22,-49.12"/>
</g>
<!-- Node8&#45;&gt;Node7 -->
<g id="edge10" class="edge">
<title>Node8&#45;&gt;Node7</title>
<path fill="none" stroke="midnightblue" d="M549.84,-57.67C525.39,-46.13 490.15,-29.49 469.02,-19.51"/>
<polygon fill="midnightblue" stroke="midnightblue" points="548.41,-60.87 558.95,-61.98 551.4,-54.54 548.41,-60.87"/>
</g>
<!-- Node8&#45;&gt;Node9 -->
<g id="edge11" class="edge">
<title>Node8&#45;&gt;Node9</title>
<path fill="none" stroke="midnightblue" d="M587.85,-53.51C594.95,-42.39 603.93,-28.34 609.57,-19.51"/>
<polygon fill="midnightblue" stroke="midnightblue" points="584.88,-51.66 582.44,-61.98 590.78,-55.43 584.88,-51.66"/>
</g>
<!-- Node11&#45;&gt;Node9 -->
<g id="edge19" class="edge">
<title>Node11&#45;&gt;Node9</title>
<path fill="none" stroke="midnightblue" d="M730.67,-118.22C742.25,-110.7 754.6,-100.2 761,-87 767.01,-74.6 769.18,-67.08 761,-56 739.02,-26.23 697.65,-15.54 664.54,-11.98"/>
<polygon fill="midnightblue" stroke="midnightblue" points="728.84,-115.23 722.08,-123.39 732.45,-121.23 728.84,-115.23"/>
</g>
<!-- Node11&#45;&gt;Node10 -->
<g id="edge17" class="edge">
<title>Node11&#45;&gt;Node10</title>
<path fill="none" stroke="midnightblue" d="M704,-113.32C704,-102.5 704,-89.4 704,-81.01"/>
<polygon fill="midnightblue" stroke="midnightblue" points="700.5,-113.48 704,-123.48 707.5,-113.48 700.5,-113.48"/>
</g>
<!-- Node12 -->
<g id="node12" class="node">
<title>Node12</title>
<g id="a_node12"><a xlink:href="Parsing_8cpp.html" target="_top" xlink:title=" ">
<polygon fill="none" stroke="black" points="808.5,-62 808.5,-81 897.5,-81 897.5,-62 808.5,-62"/>
<text text-anchor="middle" x="853" y="-69" font-family="Helvetica,sans-Serif" font-size="10.00">src/Parsing.cpp</text>
</a>
</g>
</g>
<!-- Node11&#45;&gt;Node12 -->
<g id="edge18" class="edge">
<title>Node11&#45;&gt;Node12</title>
<path fill="none" stroke="midnightblue" d="M734.97,-119.63C763.92,-108.07 806.37,-91.12 831.69,-81.01"/>
<polygon fill="midnightblue" stroke="midnightblue" points="733.34,-116.52 725.35,-123.48 735.93,-123.02 733.34,-116.52"/>
</g>
</g>
</svg>
