<?xml version="1.0" encoding="UTF-8" standalone="no"?>
<!DOCTYPE svg PUBLIC "-//W3C//DTD SVG 1.1//EN"
 "http://www.w3.org/Graphics/SVG/1.1/DTD/svg11.dtd">
<!-- Generated by graphviz version 2.43.0 (0)
 -->
<!-- Title: include/Parsing.hpp Pages: 1 -->
<svg width="581pt" height="140pt"
 viewBox="0.00 0.00 581.00 140.00" xmlns="http://www.w3.org/2000/svg" xmlns:xlink="http://www.w3.org/1999/xlink">
<g id="graph0" class="graph" transform="scale(1 1) rotate(0) translate(4 136)">
<title>include/Parsing.hpp</title>
<!-- Node1 -->
<g id="node1" class="node">
<title>Node1</title>
<g id="a_node1"><a xlink:title="Helper functions for parsing information from AST nodes.">
<polygon fill="#bfbfbf" stroke="black" points="106.5,-112.5 106.5,-131.5 217.5,-131.5 217.5,-112.5 106.5,-112.5"/>
<text text-anchor="middle" x="162" y="-119.5" font-family="Helvetica,sans-Serif" font-size="10.00">include/Parsing.hpp</text>
</a>
</g>
</g>
<!-- Node2 -->
<g id="node2" class="node">
<title>Node2</title>
<g id="a_node2"><a xlink:title=" ">
<polygon fill="none" stroke="#bfbfbf" points="0,-0.5 0,-19.5 44,-19.5 44,-0.5 0,-0.5"/>
<text text-anchor="middle" x="22" y="-7.5" font-family="Helvetica,sans-Serif" font-size="10.00">string</text>
</a>
</g>
</g>
<!-- Node1&#45;&gt;Node2 -->
<g id="edge1" class="edge">
<title>Node1&#45;&gt;Node2</title>
<path fill="none" stroke="midnightblue" d="M151.01,-112.37C127.19,-93.65 70.56,-49.15 40.88,-25.83"/>
<polygon fill="midnightblue" stroke="midnightblue" points="42.96,-23.02 32.93,-19.59 38.64,-28.52 42.96,-23.02"/>
</g>
<!-- Node3 -->
<g id="node3" class="node">
<title>Node3</title>
<g id="a_node3"><a xlink:title=" ">
<polygon fill="none" stroke="#bfbfbf" points="245.5,-56.5 245.5,-75.5 292.5,-75.5 292.5,-56.5 245.5,-56.5"/>
<text text-anchor="middle" x="269" y="-63.5" font-family="Helvetica,sans-Serif" font-size="10.00">vector</text>
</a>
</g>
</g>
<!-- Node1&#45;&gt;Node3 -->
<g id="edge2" class="edge">
<title>Node1&#45;&gt;Node3</title>
<path fill="none" stroke="midnightblue" d="M179.19,-112.32C196.35,-103.66 222.95,-90.24 242.75,-80.25"/>
<polygon fill="midnightblue" stroke="midnightblue" points="244.5,-83.28 251.85,-75.65 241.35,-77.04 244.5,-83.28"/>
</g>
<!-- Node4 -->
<g id="node4" class="node">
<title>Node4</title>
<g id="a_node4"><a xlink:title=" ">
<polygon fill="none" stroke="#bfbfbf" points="62.5,-0.5 62.5,-19.5 199.5,-19.5 199.5,-0.5 62.5,-0.5"/>
<text text-anchor="middle" x="131" y="-7.5" font-family="Helvetica,sans-Serif" font-size="10.00">clang/AST/PrettyPrinter.h</text>
</a>
</g>
</g>
<!-- Node1&#45;&gt;Node4 -->
<g id="edge3" class="edge">
<title>Node1&#45;&gt;Node4</title>
<path fill="none" stroke="midnightblue" d="M159.57,-112.37C154.54,-94.54 142.92,-53.3 136.15,-29.27"/>
<polygon fill="midnightblue" stroke="midnightblue" points="139.5,-28.27 133.42,-19.59 132.77,-30.17 139.5,-28.27"/>
</g>
<!-- Node5 -->
<g id="node5" class="node">
<title>Node5</title>
<g id="a_node5"><a xlink:href="Param_8hpp.html" target="_top" xlink:title=" ">
<polygon fill="none" stroke="black" points="159,-56.5 159,-75.5 227,-75.5 227,-56.5 159,-56.5"/>
<text text-anchor="middle" x="193" y="-63.5" font-family="Helvetica,sans-Serif" font-size="10.00">Param.hpp</text>
</a>
</g>
</g>
<!-- Node1&#45;&gt;Node5 -->
<g id="edge4" class="edge">
<title>Node1&#45;&gt;Node5</title>
<path fill="none" stroke="midnightblue" d="M167.12,-112.08C171.41,-104.61 177.66,-93.72 182.94,-84.52"/>
<polygon fill="midnightblue" stroke="midnightblue" points="186.03,-86.17 187.98,-75.75 179.96,-82.68 186.03,-86.17"/>
</g>
<!-- Node5&#45;&gt;Node2 -->
<g id="edge6" class="edge">
<title>Node5&#45;&gt;Node2</title>
<path fill="none" stroke="midnightblue" d="M165.9,-56.44C135.48,-46.84 86.16,-31.26 53.9,-21.07"/>
<polygon fill="midnightblue" stroke="midnightblue" points="54.66,-17.64 44.07,-17.97 52.56,-24.32 54.66,-17.64"/>
</g>
<!-- Node5&#45;&gt;Node4 -->
<g id="edge9" class="edge">
<title>Node5&#45;&gt;Node4</title>
<path fill="none" stroke="midnightblue" d="M183.04,-56.32C173.87,-48.34 160.06,-36.31 148.97,-26.65"/>
<polygon fill="midnightblue" stroke="midnightblue" points="150.98,-23.76 141.14,-19.83 146.38,-29.04 150.98,-23.76"/>
</g>
<!-- Node6 -->
<g id="node6" class="node">
<title>Node6</title>
<g id="a_node6"><a xlink:title=" ">
<polygon fill="none" stroke="#bfbfbf" points="217.5,-0.5 217.5,-19.5 274.5,-19.5 274.5,-0.5 217.5,-0.5"/>
<text text-anchor="middle" x="246" y="-7.5" font-family="Helvetica,sans-Serif" font-size="10.00">ostream</text>
</a>
</g>
</g>
<!-- Node5&#45;&gt;Node6 -->
<g id="edge5" class="edge">
<title>Node5&#45;&gt;Node6</title>
<path fill="none" stroke="midnightblue" d="M201.75,-56.08C209.47,-48.22 220.9,-36.57 230.22,-27.08"/>
<polygon fill="midnightblue" stroke="midnightblue" points="232.9,-29.34 237.41,-19.75 227.91,-24.44 232.9,-29.34"/>
</g>
<!-- Node7 -->
<g id="node7" class="node">
<title>Node7</title>
<g id="a_node7"><a xlink:title=" ">
<polygon fill="none" stroke="#bfbfbf" points="293,-0.5 293,-19.5 391,-19.5 391,-0.5 293,-0.5"/>
<text text-anchor="middle" x="342" y="-7.5" font-family="Helvetica,sans-Serif" font-size="10.00">clang/AST/Decl.h</text>
</a>
</g>
</g>
<!-- Node5&#45;&gt;Node7 -->
<g id="edge7" class="edge">
<title>Node5&#45;&gt;Node7</title>
<path fill="none" stroke="midnightblue" d="M216.61,-56.44C241.46,-47.44 280.77,-33.19 308.75,-23.05"/>
<polygon fill="midnightblue" stroke="midnightblue" points="310.29,-26.21 318.5,-19.52 307.91,-19.63 310.29,-26.21"/>
</g>
<!-- Node8 -->
<g id="node8" class="node">
<title>Node8</title>
<g id="a_node8"><a xlink:title=" ">
<polygon fill="none" stroke="#bfbfbf" points="409,-0.5 409,-19.5 573,-19.5 573,-0.5 409,-0.5"/>
<text text-anchor="middle" x="491" y="-7.5" font-family="Helvetica,sans-Serif" font-size="10.00">clang/AST/DependenceFlags.h</text>
</a>
</g>
</g>
<!-- Node5&#45;&gt;Node8 -->
<g id="edge8" class="edge">
<title>Node5&#45;&gt;Node8</title>
<path fill="none" stroke="midnightblue" d="M227.09,-57.93C230.44,-57.27 233.78,-56.61 237,-56 302.99,-43.41 378.85,-30.12 430.36,-21.28"/>
<polygon fill="midnightblue" stroke="midnightblue" points="431.06,-24.71 440.33,-19.57 429.88,-17.81 431.06,-24.71"/>
</g>
</g>
</svg>
