<?xml version="1.0" encoding="UTF-8" standalone="no"?>
<!DOCTYPE svg PUBLIC "-//W3C//DTD SVG 1.1//EN"
 "http://www.w3.org/Graphics/SVG/1.1/DTD/svg11.dtd">
<!-- Generated by graphviz version 2.43.0 (0)
 -->
<!-- Title: src/IO/ProgressBar.cpp Pages: 1 -->
<svg width="241pt" height="137pt"
 viewBox="0.00 0.00 240.50 137.00" xmlns="http://www.w3.org/2000/svg" xmlns:xlink="http://www.w3.org/1999/xlink">
<g id="graph0" class="graph" transform="scale(1 1) rotate(0) translate(4 133)">
<title>src/IO/ProgressBar.cpp</title>
<!-- Node1 -->
<g id="Node000001" class="node">
<title>Node1</title>
<g id="a_Node000001"><a xlink:title=" ">
<polygon fill="#999999" stroke="#666666" points="199,-129 74,-129 74,-110 199,-110 199,-129"/>
<text text-anchor="middle" x="136.5" y="-117" font-family="Helvetica,sans-Serif" font-size="10.00">src/IO/ProgressBar.cpp</text>
</a>
</g>
</g>
<!-- Node2 -->
<g id="Node000002" class="node">
<title>Node2</title>
<g id="a_Node000002"><a xlink:href="ProgressBar_8hpp.html" target="_top" xlink:title=" ">
<polygon fill="white" stroke="#666666" points="150,-74 41,-74 41,-55 150,-55 150,-74"/>
<text text-anchor="middle" x="95.5" y="-62" font-family="Helvetica,sans-Serif" font-size="10.00">IO/ProgressBar.hpp</text>
</a>
</g>
</g>
<!-- Node1&#45;&gt;Node2 -->
<g id="edge1_Node000001_Node000002" class="edge">
<title>Node1&#45;&gt;Node2</title>
<g id="a_edge1_Node000001_Node000002"><a xlink:title=" ">
<path fill="none" stroke="#63b8ff" d="M129.73,-109.75C123.94,-102.26 115.44,-91.28 108.36,-82.13"/>
<polygon fill="#63b8ff" stroke="#63b8ff" points="111.03,-79.86 102.14,-74.09 105.49,-84.14 111.03,-79.86"/>
</a>
</g>
</g>
<!-- Node3 -->
<g id="Node000003" class="node">
<title>Node3</title>
<g id="a_Node000003"><a xlink:title=" ">
<polygon fill="#e0e0e0" stroke="#999999" points="69,-19 0,-19 0,0 69,0 69,-19"/>
<text text-anchor="middle" x="34.5" y="-7" font-family="Helvetica,sans-Serif" font-size="10.00">fmt/color.h</text>
</a>
</g>
</g>
<!-- Node1&#45;&gt;Node3 -->
<g id="edge5_Node000001_Node000003" class="edge">
<title>Node1&#45;&gt;Node3</title>
<g id="a_edge5_Node000001_Node000003"><a xlink:title=" ">
<path fill="none" stroke="#63b8ff" d="M86.92,-109.98C66.15,-103.7 43.96,-92.82 31.5,-74 22.75,-60.79 24.76,-42.41 28.21,-28.83"/>
<polygon fill="#63b8ff" stroke="#63b8ff" points="31.59,-29.74 31.11,-19.15 24.89,-27.73 31.59,-29.74"/>
</a>
</g>
</g>
<!-- Node4 -->
<g id="Node000004" class="node">
<title>Node4</title>
<g id="a_Node000004"><a xlink:title=" ">
<polygon fill="#e0e0e0" stroke="#999999" points="165,-19 98,-19 98,0 165,0 165,-19"/>
<text text-anchor="middle" x="131.5" y="-7" font-family="Helvetica,sans-Serif" font-size="10.00">fmt/core.h</text>
</a>
</g>
</g>
<!-- Node1&#45;&gt;Node4 -->
<g id="edge6_Node000001_Node000004" class="edge">
<title>Node1&#45;&gt;Node4</title>
<g id="a_edge6_Node000001_Node000004"><a xlink:title=" ">
<path fill="none" stroke="#63b8ff" d="M143.22,-109.99C151.91,-97.92 165.28,-75.05 159.5,-55 156.63,-45.06 150.82,-35.2 145.22,-27.29"/>
<polygon fill="#63b8ff" stroke="#63b8ff" points="148,-25.16 139.17,-19.3 142.42,-29.39 148,-25.16"/>
</a>
</g>
</g>
<!-- Node5 -->
<g id="Node000005" class="node">
<title>Node5</title>
<g id="a_Node000005"><a xlink:title=" ">
<polygon fill="#e0e0e0" stroke="#999999" points="232.5,-19 188.5,-19 188.5,0 232.5,0 232.5,-19"/>
<text text-anchor="middle" x="210.5" y="-7" font-family="Helvetica,sans-Serif" font-size="10.00">string</text>
</a>
</g>
</g>
<!-- Node1&#45;&gt;Node5 -->
<g id="edge7_Node000001_Node000005" class="edge">
<title>Node1&#45;&gt;Node5</title>
<g id="a_edge7_Node000001_Node000005"><a xlink:title=" ">
<path fill="none" stroke="#63b8ff" d="M144.32,-109.98C152.13,-101.26 164.28,-87.17 173.5,-74 183.88,-59.17 194.11,-41.28 201.18,-28.27"/>
<polygon fill="#63b8ff" stroke="#63b8ff" points="204.29,-29.88 205.92,-19.41 198.12,-26.58 204.29,-29.88"/>
</a>
</g>
</g>
<!-- Node2&#45;&gt;Node3 -->
<g id="edge2_Node000002_Node000003" class="edge">
<title>Node2&#45;&gt;Node3</title>
<g id="a_edge2_Node000002_Node000003"><a xlink:title=" ">
<path fill="none" stroke="#63b8ff" d="M85.7,-54.98C76.68,-47.15 63.09,-35.34 52.18,-25.86"/>
<polygon fill="#63b8ff" stroke="#63b8ff" points="54.32,-23.09 44.48,-19.17 49.73,-28.37 54.32,-23.09"/>
</a>
</g>
</g>
<!-- Node2&#45;&gt;Node4 -->
<g id="edge3_Node000002_Node000004" class="edge">
<title>Node2&#45;&gt;Node4</title>
<g id="a_edge3_Node000002_Node000004"><a xlink:title=" ">
<path fill="none" stroke="#63b8ff" d="M101.44,-54.75C106.48,-47.34 113.84,-36.5 120.01,-27.41"/>
<polygon fill="#63b8ff" stroke="#63b8ff" points="122.94,-29.33 125.67,-19.09 117.15,-25.39 122.94,-29.33"/>
</a>
</g>
</g>
<!-- Node2&#45;&gt;Node5 -->
<g id="edge4_Node000002_Node000005" class="edge">
<title>Node2&#45;&gt;Node5</title>
<g id="a_edge4_Node000002_Node000005"><a xlink:title=" ">
<path fill="none" stroke="#63b8ff" d="M113.98,-54.98C132.48,-46.46 161.18,-33.23 182.48,-23.41"/>
<polygon fill="#63b8ff" stroke="#63b8ff" points="184.07,-26.53 191.69,-19.17 181.14,-20.18 184.07,-26.53"/>
</a>
</g>
</g>
</g>
</svg>
