<?xml version="1.0" encoding="UTF-8" standalone="no"?>
<!DOCTYPE svg PUBLIC "-//W3C//DTD SVG 1.1//EN"
 "http://www.w3.org/Graphics/SVG/1.1/DTD/svg11.dtd">
<!-- Generated by graphviz version 2.43.0 (0)
 -->
<!-- Title: Template Pages: 1 -->
<svg width="331pt" height="402pt"
 viewBox="0.00 0.00 331.00 402.00" xmlns="http://www.w3.org/2000/svg" xmlns:xlink="http://www.w3.org/1999/xlink">
<g id="graph0" class="graph" transform="scale(1 1) rotate(0) translate(4 398)">
<title>Template</title>
<!-- Node1 -->
<g id="Node000001" class="node">
<title>Node1</title>
<g id="a_Node000001"><a xlink:title="Struct for the collection of all relevant data for a template function which can provide a definition...">
<polygon fill="#999999" stroke="#666666" points="142,-19 80,-19 80,0 142,0 142,-19"/>
<text text-anchor="middle" x="111" y="-7" font-family="Helvetica,sans-Serif" font-size="10.00">Template</text>
</a>
</g>
</g>
<!-- Node2 -->
<g id="Node000002" class="node">
<title>Node2</title>
<g id="a_Node000002"><a xlink:title=" ">
<polygon fill="white" stroke="#666666" points="155.5,-327 90.5,-327 90.5,-308 155.5,-308 155.5,-327"/>
<text text-anchor="middle" x="123" y="-315" font-family="Helvetica,sans-Serif" font-size="10.00">std::string</text>
</a>
</g>
</g>
<!-- Node2&#45;&gt;Node1 -->
<g id="edge1_Node000001_Node000002" class="edge">
<title>Node2&#45;&gt;Node1</title>
<g id="a_edge1_Node000001_Node000002"><a xlink:title=" ">
<path fill="none" stroke="#9a32cd" stroke-dasharray="5,2" d="M80.62,-308.78C45.05,-299.57 0,-280.25 0,-241.5 0,-241.5 0,-241.5 0,-80 0,-42.14 46.95,-24.13 79.78,-16.16"/>
<polygon fill="#9a32cd" stroke="#9a32cd" points="79.82,-312.19 90.36,-311.12 81.45,-305.38 79.82,-312.19"/>
</a>
</g>
<text text-anchor="middle" x="47.5" y="-176" font-family="Helvetica,sans-Serif" font-size="10.00" fill="grey"> class_name</text>
<text text-anchor="middle" x="47.5" y="-165" font-family="Helvetica,sans-Serif" font-size="10.00" fill="grey">func_name</text>
<text text-anchor="middle" x="47.5" y="-154" font-family="Helvetica,sans-Serif" font-size="10.00" fill="grey">nested_namespace</text>
</g>
<!-- Node5 -->
<g id="Node000005" class="node">
<title>Node5</title>
<g id="a_Node000005"><a xlink:href="structParam.html" target="_top" xlink:title="Struct for the collection of all relevant data for a function parameter.">
<polygon fill="white" stroke="#666666" points="146.5,-250 99.5,-250 99.5,-231 146.5,-231 146.5,-250"/>
<text text-anchor="middle" x="123" y="-238" font-family="Helvetica,sans-Serif" font-size="10.00">Param</text>
</a>
</g>
</g>
<!-- Node2&#45;&gt;Node5 -->
<g id="edge5_Node000005_Node000002" class="edge">
<title>Node2&#45;&gt;Node5</title>
<g id="a_edge5_Node000005_Node000002"><a xlink:title=" ">
<path fill="none" stroke="#9a32cd" stroke-dasharray="5,2" d="M123,-297.52C123,-282.24 123,-261.48 123,-250"/>
<polygon fill="#9a32cd" stroke="#9a32cd" points="119.5,-297.9 123,-307.9 126.5,-297.9 119.5,-297.9"/>
</a>
</g>
<text text-anchor="middle" x="162" y="-282" font-family="Helvetica,sans-Serif" font-size="10.00" fill="grey"> name</text>
<text text-anchor="middle" x="162" y="-271" font-family="Helvetica,sans-Serif" font-size="10.00" fill="grey">template_name</text>
</g>
<!-- Node8 -->
<g id="Node000008" class="node">
<title>Node8</title>
<g id="a_Node000008"><a xlink:title=" ">
<polygon fill="white" stroke="#666666" points="306,-250 166,-250 166,-231 306,-231 306,-250"/>
<text text-anchor="middle" x="236" y="-238" font-family="Helvetica,sans-Serif" font-size="10.00">std::vector&lt; std::string &gt;</text>
</a>
</g>
</g>
<!-- Node2&#45;&gt;Node8 -->
<g id="edge9_Node000008_Node000002" class="edge">
<title>Node2&#45;&gt;Node8</title>
<g id="a_edge9_Node000008_Node000002"><a xlink:title=" ">
<path fill="none" stroke="#9a32cd" stroke-dasharray="5,2" d="M165.49,-308.74C179.09,-304.77 193.56,-298.83 205,-290 218.61,-279.5 227.92,-261.21 232.57,-250.35"/>
<polygon fill="#9a32cd" stroke="#9a32cd" points="164.58,-305.36 155.81,-311.3 166.37,-312.13 164.58,-305.36"/>
</a>
</g>
<text text-anchor="middle" x="247.5" y="-276.5" font-family="Helvetica,sans-Serif" font-size="10.00" fill="grey"> elements</text>
</g>
<!-- Node3 -->
<g id="Node000003" class="node">
<title>Node3</title>
<g id="a_Node000003"><a xlink:title=" ">
<polygon fill="white" stroke="#666666" points="175,-394 71,-394 71,-364 175,-364 175,-394"/>
<text text-anchor="start" x="79" y="-382" font-family="Helvetica,sans-Serif" font-size="10.00">std::basic_string&lt;</text>
<text text-anchor="middle" x="123" y="-371" font-family="Helvetica,sans-Serif" font-size="10.00"> Char &gt;</text>
</a>
</g>
</g>
<!-- Node3&#45;&gt;Node2 -->
<g id="edge2_Node000002_Node000003" class="edge">
<title>Node3&#45;&gt;Node2</title>
<g id="a_edge2_Node000002_Node000003"><a xlink:title=" ">
<path fill="none" stroke="#63b8ff" d="M123,-353.79C123,-344.36 123,-334.15 123,-327.16"/>
<polygon fill="#63b8ff" stroke="#63b8ff" points="119.5,-353.9 123,-363.9 126.5,-353.9 119.5,-353.9"/>
</a>
</g>
</g>
<!-- Node4 -->
<g id="Node000004" class="node">
<title>Node4</title>
<g id="a_Node000004"><a xlink:title=" ">
<polygon fill="white" stroke="#666666" points="178,-133 56,-133 56,-114 178,-114 178,-133"/>
<text text-anchor="middle" x="117" y="-121" font-family="Helvetica,sans-Serif" font-size="10.00">std::vector&lt; Param &gt;</text>
</a>
</g>
</g>
<!-- Node4&#45;&gt;Node1 -->
<g id="edge3_Node000001_Node000004" class="edge">
<title>Node4&#45;&gt;Node1</title>
<g id="a_edge3_Node000001_Node000004"><a xlink:title=" ">
<path fill="none" stroke="#9a32cd" stroke-dasharray="5,2" d="M115.98,-103.51C114.67,-78.98 112.43,-37.29 111.47,-19.25"/>
<polygon fill="#9a32cd" stroke="#9a32cd" points="112.5,-103.91 116.53,-113.71 119.49,-103.54 112.5,-103.91"/>
</a>
</g>
<text text-anchor="middle" x="136" y="-78.5" font-family="Helvetica,sans-Serif" font-size="10.00" fill="grey"> params</text>
</g>
<!-- Node5&#45;&gt;Node4 -->
<g id="edge4_Node000004_Node000005" class="edge">
<title>Node5&#45;&gt;Node4</title>
<g id="a_edge4_Node000004_Node000005"><a xlink:title=" ">
<path fill="none" stroke="#9a32cd" stroke-dasharray="5,2" d="M122.02,-220.75C120.71,-195.56 118.43,-151.82 117.46,-133.24"/>
<polygon fill="#9a32cd" stroke="#9a32cd" points="118.53,-221.05 122.55,-230.86 125.52,-220.69 118.53,-221.05"/>
</a>
</g>
<text text-anchor="middle" x="146.5" y="-205" font-family="Helvetica,sans-Serif" font-size="10.00" fill="grey"> elements</text>
</g>
<!-- Node6 -->
<g id="Node000006" class="node">
<title>Node6</title>
<g id="a_Node000006"><a xlink:title=" ">
<polygon fill="white" stroke="#666666" points="305,-96 169,-96 169,-66 305,-66 305,-96"/>
<text text-anchor="start" x="177" y="-84" font-family="Helvetica,sans-Serif" font-size="10.00">std::vector&lt; Instantiator</text>
<text text-anchor="middle" x="237" y="-73" font-family="Helvetica,sans-Serif" font-size="10.00">::TemplateArgument &gt;</text>
</a>
</g>
</g>
<!-- Node6&#45;&gt;Node1 -->
<g id="edge6_Node000001_Node000006" class="edge">
<title>Node6&#45;&gt;Node1</title>
<g id="a_edge6_Node000001_Node000006"><a xlink:title=" ">
<path fill="none" stroke="#9a32cd" stroke-dasharray="5,2" d="M202.73,-61.1C177.87,-47.39 145.43,-29.49 126.53,-19.07"/>
<polygon fill="#9a32cd" stroke="#9a32cd" points="201.06,-64.17 211.5,-65.94 204.44,-58.04 201.06,-64.17"/>
</a>
</g>
<text text-anchor="middle" x="207.5" y="-40" font-family="Helvetica,sans-Serif" font-size="10.00" fill="grey"> class_Targs</text>
</g>
<!-- Node7 -->
<g id="Node000007" class="node">
<title>Node7</title>
<g id="a_Node000007"><a xlink:href="structInstantiator_1_1TemplateArgument.html" target="_top" xlink:title="Struct for the collection of all relevant data for a function parameter.">
<polygon fill="white" stroke="#666666" points="323,-177 151,-177 151,-158 323,-158 323,-177"/>
<text text-anchor="middle" x="237" y="-165" font-family="Helvetica,sans-Serif" font-size="10.00">Instantiator::TemplateArgument</text>
</a>
</g>
</g>
<!-- Node7&#45;&gt;Node6 -->
<g id="edge7_Node000006_Node000007" class="edge">
<title>Node7&#45;&gt;Node6</title>
<g id="a_edge7_Node000006_Node000007"><a xlink:title=" ">
<path fill="none" stroke="#9a32cd" stroke-dasharray="5,2" d="M237,-147.72C237,-132.13 237,-110.28 237,-96.13"/>
<polygon fill="#9a32cd" stroke="#9a32cd" points="233.5,-147.78 237,-157.78 240.5,-147.78 233.5,-147.78"/>
</a>
</g>
<text text-anchor="middle" x="261.5" y="-121" font-family="Helvetica,sans-Serif" font-size="10.00" fill="grey"> elements</text>
</g>
<!-- Node8&#45;&gt;Node7 -->
<g id="edge8_Node000007_Node000008" class="edge">
<title>Node8&#45;&gt;Node7</title>
<g id="a_edge8_Node000007_Node000008"><a xlink:title=" ">
<path fill="none" stroke="#9a32cd" stroke-dasharray="5,2" d="M236.26,-220.73C236.46,-206.66 236.72,-188.06 236.88,-177.28"/>
<polygon fill="#9a32cd" stroke="#9a32cd" points="232.76,-220.75 236.12,-230.79 239.76,-220.84 232.76,-220.75"/>
</a>
</g>
<text text-anchor="middle" x="254.5" y="-205" font-family="Helvetica,sans-Serif" font-size="10.00" fill="grey"> names</text>
</g>
</g>
</svg>
