<?xml version="1.0" encoding="UTF-8" standalone="no"?>
<!DOCTYPE svg PUBLIC "-//W3C//DTD SVG 1.1//EN"
 "http://www.w3.org/Graphics/SVG/1.1/DTD/svg11.dtd">
<!-- Generated by graphviz version 2.43.0 (0)
 -->
<!-- Title: Template Pages: 1 -->
<svg width="208pt" height="325pt"
 viewBox="0.00 0.00 208.00 325.00" xmlns="http://www.w3.org/2000/svg" xmlns:xlink="http://www.w3.org/1999/xlink">
<g id="graph0" class="graph" transform="scale(1 1) rotate(0) translate(4 321)">
<title>Template</title>
<!-- Node1 -->
<g id="Node000001" class="node">
<title>Node1</title>
<g id="a_Node000001"><a xlink:title="Struct for the collection of all relevant data for a template function which can provide a definition...">
<polygon fill="#999999" stroke="#666666" points="83,-19 21,-19 21,0 83,0 83,-19"/>
<text text-anchor="middle" x="52" y="-7" font-family="Helvetica,sans-Serif" font-size="10.00">Template</text>
</a>
</g>
</g>
<!-- Node2 -->
<g id="Node000002" class="node">
<title>Node2</title>
<g id="a_Node000002"><a xlink:title=" ">
<polygon fill="white" stroke="#666666" points="84.5,-250 19.5,-250 19.5,-231 84.5,-231 84.5,-250"/>
<text text-anchor="middle" x="52" y="-238" font-family="Helvetica,sans-Serif" font-size="10.00">std::string</text>
</a>
</g>
</g>
<!-- Node2&#45;&gt;Node1 -->
<g id="edge1_Node000001_Node000002" class="edge">
<title>Node2&#45;&gt;Node1</title>
<g id="a_edge1_Node000001_Node000002"><a xlink:title=" ">
<path fill="none" stroke="#9a32cd" stroke-dasharray="5,2" d="M46.64,-221.23C39.62,-195.09 28.68,-145.49 33,-103 36.18,-71.68 45.28,-35.31 49.63,-19.08"/>
<polygon fill="#9a32cd" stroke="#9a32cd" points="43.29,-222.22 49.36,-230.9 50.03,-220.33 43.29,-222.22"/>
</a>
</g>
<text text-anchor="middle" x="80.5" y="-128" font-family="Helvetica,sans-Serif" font-size="10.00" fill="grey"> class_name</text>
<text text-anchor="middle" x="80.5" y="-117" font-family="Helvetica,sans-Serif" font-size="10.00" fill="grey">func_name</text>
<text text-anchor="middle" x="80.5" y="-106" font-family="Helvetica,sans-Serif" font-size="10.00" fill="grey">nested_namespace</text>
</g>
<!-- Node5 -->
<g id="Node000005" class="node">
<title>Node5</title>
<g id="a_Node000005"><a xlink:href="structParam.html" target="_top" xlink:title="Struct for the collection of all relevant data for a function parameter.">
<polygon fill="white" stroke="#666666" points="144.5,-173 97.5,-173 97.5,-154 144.5,-154 144.5,-173"/>
<text text-anchor="middle" x="121" y="-161" font-family="Helvetica,sans-Serif" font-size="10.00">Param</text>
</a>
</g>
</g>
<!-- Node2&#45;&gt;Node5 -->
<g id="edge5_Node000005_Node000002" class="edge">
<title>Node2&#45;&gt;Node5</title>
<g id="a_edge5_Node000005_Node000002"><a xlink:title=" ">
<path fill="none" stroke="#9a32cd" stroke-dasharray="5,2" d="M67.03,-223.16C81.24,-207.72 102,-185.15 113.18,-173"/>
<polygon fill="#9a32cd" stroke="#9a32cd" points="64.11,-221.17 59.92,-230.9 69.26,-225.91 64.11,-221.17"/>
</a>
</g>
<text text-anchor="middle" x="133" y="-205" font-family="Helvetica,sans-Serif" font-size="10.00" fill="grey"> name</text>
<text text-anchor="middle" x="133" y="-194" font-family="Helvetica,sans-Serif" font-size="10.00" fill="grey">template_name</text>
</g>
<!-- Node3 -->
<g id="Node000003" class="node">
<title>Node3</title>
<g id="a_Node000003"><a xlink:title=" ">
<polygon fill="white" stroke="#666666" points="104,-317 0,-317 0,-287 104,-287 104,-317"/>
<text text-anchor="start" x="8" y="-305" font-family="Helvetica,sans-Serif" font-size="10.00">std::basic_string&lt;</text>
<text text-anchor="middle" x="52" y="-294" font-family="Helvetica,sans-Serif" font-size="10.00"> Char &gt;</text>
</a>
</g>
</g>
<!-- Node3&#45;&gt;Node2 -->
<g id="edge2_Node000002_Node000003" class="edge">
<title>Node3&#45;&gt;Node2</title>
<g id="a_edge2_Node000002_Node000003"><a xlink:title=" ">
<path fill="none" stroke="#63b8ff" d="M52,-276.79C52,-267.36 52,-257.15 52,-250.16"/>
<polygon fill="#63b8ff" stroke="#63b8ff" points="48.5,-276.9 52,-286.9 55.5,-276.9 48.5,-276.9"/>
</a>
</g>
</g>
<!-- Node4 -->
<g id="Node000004" class="node">
<title>Node4</title>
<g id="a_Node000004"><a xlink:title=" ">
<polygon fill="white" stroke="#666666" points="200,-85 78,-85 78,-66 200,-66 200,-85"/>
<text text-anchor="middle" x="139" y="-73" font-family="Helvetica,sans-Serif" font-size="10.00">std::vector&lt; Param &gt;</text>
</a>
</g>
</g>
<!-- Node4&#45;&gt;Node1 -->
<g id="edge3_Node000001_Node000004" class="edge">
<title>Node4&#45;&gt;Node1</title>
<g id="a_edge3_Node000001_Node000004"><a xlink:title=" ">
<path fill="none" stroke="#9a32cd" stroke-dasharray="5,2" d="M119.06,-59.83C102,-47.28 78.01,-29.63 63.83,-19.2"/>
<polygon fill="#9a32cd" stroke="#9a32cd" points="117.14,-62.76 127.27,-65.87 121.29,-57.12 117.14,-62.76"/>
</a>
</g>
<text text-anchor="middle" x="120" y="-40" font-family="Helvetica,sans-Serif" font-size="10.00" fill="grey"> params</text>
</g>
<!-- Node5&#45;&gt;Node4 -->
<g id="edge4_Node000004_Node000005" class="edge">
<title>Node5&#45;&gt;Node4</title>
<g id="a_edge4_Node000004_Node000005"><a xlink:title=" ">
<path fill="none" stroke="#9a32cd" stroke-dasharray="5,2" d="M129.25,-144.48C130.31,-141.68 131.27,-138.8 132,-136 136.62,-118.29 138.2,-96.81 138.73,-85.11"/>
<polygon fill="#9a32cd" stroke="#9a32cd" points="125.95,-143.3 125.29,-153.88 132.4,-146.02 125.95,-143.3"/>
</a>
</g>
<text text-anchor="middle" x="161.5" y="-117" font-family="Helvetica,sans-Serif" font-size="10.00" fill="grey"> elements</text>
</g>
</g>
</svg>
