<?xml version="1.0" encoding="UTF-8" standalone="no"?>
<!DOCTYPE svg PUBLIC "-//W3C//DTD SVG 1.1//EN"
 "http://www.w3.org/Graphics/SVG/1.1/DTD/svg11.dtd">
<!-- Generated by graphviz version 2.43.0 (0)
 -->
<!-- Title: Injection Pages: 1 -->
<svg width="346pt" height="372pt"
 viewBox="0.00 0.00 346.12 372.00" xmlns="http://www.w3.org/2000/svg" xmlns:xlink="http://www.w3.org/1999/xlink">
<g id="graph0" class="graph" transform="scale(1 1) rotate(0) translate(4 368)">
<title>Injection</title>
<!-- Node1 -->
<g id="Node000001" class="node">
<title>Node1</title>
<g id="a_Node000001"><a xlink:title="Struct for the collection of all relevant data for a template instantiation which needs to be inserte...">
<polygon fill="#999999" stroke="#666666" points="160.62,-19 101.62,-19 101.62,0 160.62,0 160.62,-19"/>
<text text-anchor="middle" x="131.12" y="-7" font-family="Helvetica,sans-Serif" font-size="10.00">Injection</text>
</a>
</g>
</g>
<!-- Node2 -->
<g id="Node000002" class="node">
<title>Node2</title>
<g id="a_Node000002"><a xlink:title=" ">
<polygon fill="white" stroke="#666666" points="216.62,-297 151.62,-297 151.62,-278 216.62,-278 216.62,-297"/>
<text text-anchor="middle" x="184.12" y="-285" font-family="Helvetica,sans-Serif" font-size="10.00">std::string</text>
</a>
</g>
</g>
<!-- Node2&#45;&gt;Node1 -->
<g id="edge1_Node000001_Node000002" class="edge">
<title>Node2&#45;&gt;Node1</title>
<g id="a_edge1_Node000001_Node000002"><a xlink:title=" ">
<path fill="none" stroke="#9a32cd" stroke-dasharray="5,2" d="M142,-274.79C100.12,-260.64 38.19,-232.36 10.12,-183 -4.38,-157.5 -1.96,-143.73 10.12,-117 31.67,-69.31 86.3,-34.47 114.19,-19.15"/>
<polygon fill="#9a32cd" stroke="#9a32cd" points="141.07,-278.16 151.66,-277.92 143.23,-271.5 141.07,-278.16"/>
</a>
</g>
<text text-anchor="middle" x="57.62" y="-175" font-family="Helvetica,sans-Serif" font-size="10.00" fill="grey"> class_name</text>
<text text-anchor="middle" x="57.62" y="-164" font-family="Helvetica,sans-Serif" font-size="10.00" fill="grey">func_name</text>
<text text-anchor="start" x="10.12" y="-153" font-family="Helvetica,sans-Serif" font-size="10.00" fill="grey">guess_injection</text>
<text text-anchor="middle" x="57.62" y="-142" font-family="Helvetica,sans-Serif" font-size="10.00" fill="grey">_place</text>
<text text-anchor="middle" x="57.62" y="-131" font-family="Helvetica,sans-Serif" font-size="10.00" fill="grey">nested_namespace</text>
<text text-anchor="middle" x="57.62" y="-120" font-family="Helvetica,sans-Serif" font-size="10.00" fill="grey">return_type</text>
</g>
<!-- Node4 -->
<g id="Node000004" class="node">
<title>Node4</title>
<g id="a_Node000004"><a xlink:title=" ">
<polygon fill="white" stroke="#666666" points="254.12,-159.5 114.12,-159.5 114.12,-140.5 254.12,-140.5 254.12,-159.5"/>
<text text-anchor="middle" x="184.12" y="-147.5" font-family="Helvetica,sans-Serif" font-size="10.00">std::vector&lt; std::string &gt;</text>
</a>
</g>
</g>
<!-- Node2&#45;&gt;Node4 -->
<g id="edge4_Node000004_Node000002" class="edge">
<title>Node2&#45;&gt;Node4</title>
<g id="a_edge4_Node000004_Node000002"><a xlink:title=" ">
<path fill="none" stroke="#9a32cd" stroke-dasharray="5,2" d="M184.12,-267.28C184.12,-237.48 184.12,-181.32 184.12,-159.75"/>
<polygon fill="#9a32cd" stroke="#9a32cd" points="180.62,-267.61 184.12,-277.61 187.62,-267.61 180.62,-267.61"/>
</a>
</g>
<text text-anchor="middle" x="208.62" y="-246.5" font-family="Helvetica,sans-Serif" font-size="10.00" fill="grey"> elements</text>
</g>
<!-- Node6 -->
<g id="Node000006" class="node">
<title>Node6</title>
<g id="a_Node000006"><a xlink:href="structParam.html" target="_top" xlink:title="Struct for the collection of all relevant data for a function parameter.">
<polygon fill="white" stroke="#666666" points="294.62,-220 247.62,-220 247.62,-201 294.62,-201 294.62,-220"/>
<text text-anchor="middle" x="271.12" y="-208" font-family="Helvetica,sans-Serif" font-size="10.00">Param</text>
</a>
</g>
</g>
<!-- Node2&#45;&gt;Node6 -->
<g id="edge7_Node000006_Node000002" class="edge">
<title>Node2&#45;&gt;Node6</title>
<g id="a_edge7_Node000006_Node000002"><a xlink:title=" ">
<path fill="none" stroke="#9a32cd" stroke-dasharray="5,2" d="M216.34,-273.59C223.61,-269.83 230.98,-265.29 237.12,-260 250.52,-248.45 261.26,-230.53 266.87,-220.01"/>
<polygon fill="#9a32cd" stroke="#9a32cd" points="214.79,-270.45 207.28,-277.92 217.81,-276.76 214.79,-270.45"/>
</a>
</g>
<text text-anchor="middle" x="294.12" y="-252" font-family="Helvetica,sans-Serif" font-size="10.00" fill="grey"> name</text>
<text text-anchor="middle" x="294.12" y="-241" font-family="Helvetica,sans-Serif" font-size="10.00" fill="grey">template_name</text>
</g>
<!-- Node3 -->
<g id="Node000003" class="node">
<title>Node3</title>
<g id="a_Node000003"><a xlink:title=" ">
<polygon fill="white" stroke="#666666" points="236.12,-364 132.12,-364 132.12,-334 236.12,-334 236.12,-364"/>
<text text-anchor="start" x="140.12" y="-352" font-family="Helvetica,sans-Serif" font-size="10.00">std::basic_string&lt;</text>
<text text-anchor="middle" x="184.12" y="-341" font-family="Helvetica,sans-Serif" font-size="10.00"> Char &gt;</text>
</a>
</g>
</g>
<!-- Node3&#45;&gt;Node2 -->
<g id="edge2_Node000002_Node000003" class="edge">
<title>Node3&#45;&gt;Node2</title>
<g id="a_edge2_Node000002_Node000003"><a xlink:title=" ">
<path fill="none" stroke="#63b8ff" d="M184.12,-323.79C184.12,-314.36 184.12,-304.15 184.12,-297.16"/>
<polygon fill="#63b8ff" stroke="#63b8ff" points="180.62,-323.9 184.12,-333.9 187.62,-323.9 180.62,-323.9"/>
</a>
</g>
</g>
<!-- Node4&#45;&gt;Node1 -->
<g id="edge3_Node000001_Node000004" class="edge">
<title>Node4&#45;&gt;Node1</title>
<g id="a_edge3_Node000001_Node000004"><a xlink:title=" ">
<path fill="none" stroke="#9a32cd" stroke-dasharray="5,2" d="M165.89,-133.53C156.53,-124.48 145.9,-112.25 140.12,-99 128.26,-71.82 129.13,-35.63 130.3,-19.23"/>
<polygon fill="#9a32cd" stroke="#9a32cd" points="163.58,-136.16 173.32,-140.33 168.31,-131 163.58,-136.16"/>
</a>
</g>
<text text-anchor="middle" x="173.62" y="-91" font-family="Helvetica,sans-Serif" font-size="10.00" fill="grey"> class_Ttypes</text>
<text text-anchor="middle" x="173.62" y="-80" font-family="Helvetica,sans-Serif" font-size="10.00" fill="grey">func_Ttypes</text>
</g>
<!-- Node5 -->
<g id="Node000005" class="node">
<title>Node5</title>
<g id="a_Node000005"><a xlink:title=" ">
<polygon fill="white" stroke="#666666" points="338.12,-97.5 216.12,-97.5 216.12,-78.5 338.12,-78.5 338.12,-97.5"/>
<text text-anchor="middle" x="277.12" y="-85.5" font-family="Helvetica,sans-Serif" font-size="10.00">std::vector&lt; Param &gt;</text>
</a>
</g>
</g>
<!-- Node5&#45;&gt;Node1 -->
<g id="edge5_Node000001_Node000005" class="edge">
<title>Node5&#45;&gt;Node1</title>
<g id="a_edge5_Node000001_Node000005"><a xlink:title=" ">
<path fill="none" stroke="#9a32cd" stroke-dasharray="5,2" d="M251.67,-73.67C221.81,-58.02 173.15,-32.52 147.75,-19.21"/>
<polygon fill="#9a32cd" stroke="#9a32cd" points="250.17,-76.83 260.66,-78.37 253.42,-70.63 250.17,-76.83"/>
</a>
</g>
<text text-anchor="middle" x="275.12" y="-51" font-family="Helvetica,sans-Serif" font-size="10.00" fill="grey"> nonresolved_params</text>
<text text-anchor="middle" x="275.12" y="-40" font-family="Helvetica,sans-Serif" font-size="10.00" fill="grey">params</text>
</g>
<!-- Node6&#45;&gt;Node5 -->
<g id="edge6_Node000005_Node000006" class="edge">
<title>Node6&#45;&gt;Node5</title>
<g id="a_edge6_Node000005_Node000006"><a xlink:title=" ">
<path fill="none" stroke="#9a32cd" stroke-dasharray="5,2" d="M272.06,-190.57C273.38,-164.03 275.73,-116.88 276.69,-97.59"/>
<polygon fill="#9a32cd" stroke="#9a32cd" points="268.55,-190.67 271.55,-200.83 275.54,-191.02 268.55,-190.67"/>
</a>
</g>
<text text-anchor="middle" x="299.62" y="-147.5" font-family="Helvetica,sans-Serif" font-size="10.00" fill="grey"> elements</text>
</g>
</g>
</svg>
