<?xml version="1.0" encoding="UTF-8" standalone="no"?>
<!DOCTYPE svg PUBLIC "-//W3C//DTD SVG 1.1//EN"
 "http://www.w3.org/Graphics/SVG/1.1/DTD/svg11.dtd">
<!-- Generated by graphviz version 2.43.0 (0)
 -->
<!-- Title: Injection Pages: 1 -->
<svg width="155pt" height="218pt"
 viewBox="0.00 0.00 155.00 218.00" xmlns="http://www.w3.org/2000/svg" xmlns:xlink="http://www.w3.org/1999/xlink">
<g id="graph0" class="graph" transform="scale(1 1) rotate(0) translate(4 214)">
<title>Injection</title>
<!-- Node1 -->
<g id="node1" class="node">
<title>Node1</title>
<g id="a_node1"><a xlink:title=" ">
<polygon fill="#bfbfbf" stroke="black" points="22.5,-0.5 22.5,-19.5 81.5,-19.5 81.5,-0.5 22.5,-0.5"/>
<text text-anchor="middle" x="52" y="-7.5" font-family="Helvetica,sans-Serif" font-size="10.00">Injection</text>
</a>
</g>
</g>
<!-- Node2 -->
<g id="node2" class="node">
<title>Node2</title>
<g id="a_node2"><a xlink:title=" ">
<polygon fill="none" stroke="#bfbfbf" points="19.5,-122.5 19.5,-141.5 84.5,-141.5 84.5,-122.5 19.5,-122.5"/>
<text text-anchor="middle" x="52" y="-129.5" font-family="Helvetica,sans-Serif" font-size="10.00">std::string</text>
</a>
</g>
</g>
<!-- Node2&#45;&gt;Node1 -->
<g id="edge1" class="edge">
<title>Node2&#45;&gt;Node1</title>
<path fill="none" stroke="#9a32cd" stroke-dasharray="5,2" d="M52,-112.15C52,-85.72 52,-38.76 52,-19.55"/>
<polygon fill="#9a32cd" stroke="#9a32cd" points="48.5,-112.37 52,-122.37 55.5,-112.37 48.5,-112.37"/>
<text text-anchor="middle" x="99.5" y="-96" font-family="Helvetica,sans-Serif" font-size="10.00"> class_name</text>
<text text-anchor="middle" x="99.5" y="-85" font-family="Helvetica,sans-Serif" font-size="10.00">func_name</text>
<text text-anchor="start" x="52" y="-74" font-family="Helvetica,sans-Serif" font-size="10.00">guess_injection</text>
<text text-anchor="middle" x="99.5" y="-63" font-family="Helvetica,sans-Serif" font-size="10.00">_place</text>
<text text-anchor="middle" x="99.5" y="-52" font-family="Helvetica,sans-Serif" font-size="10.00">nested_namespace</text>
<text text-anchor="middle" x="99.5" y="-41" font-family="Helvetica,sans-Serif" font-size="10.00">return_type</text>
</g>
<!-- Node3 -->
<g id="node3" class="node">
<title>Node3</title>
<g id="a_node3"><a xlink:title=" ">
<polygon fill="none" stroke="#bfbfbf" points="0,-179.5 0,-209.5 104,-209.5 104,-179.5 0,-179.5"/>
<text text-anchor="start" x="8" y="-197.5" font-family="Helvetica,sans-Serif" font-size="10.00">std::basic_string&lt;</text>
<text text-anchor="middle" x="52" y="-186.5" font-family="Helvetica,sans-Serif" font-size="10.00"> Char &gt;</text>
</a>
</g>
</g>
<!-- Node3&#45;&gt;Node2 -->
<g id="edge2" class="edge">
<title>Node3&#45;&gt;Node2</title>
<path fill="none" stroke="midnightblue" d="M52,-169.35C52,-159.51 52,-148.78 52,-141.54"/>
<polygon fill="midnightblue" stroke="midnightblue" points="48.5,-169.47 52,-179.47 55.5,-169.47 48.5,-169.47"/>
</g>
</g>
</svg>
