<?xml version="1.0" encoding="UTF-8" standalone="no"?>
<!DOCTYPE svg PUBLIC "-//W3C//DTD SVG 1.1//EN"
 "http://www.w3.org/Graphics/SVG/1.1/DTD/svg11.dtd">
<!-- Generated by graphviz version 2.43.0 (0)
 -->
<!-- Title: src/Template.cpp Pages: 1 -->
<svg width="912pt" height="247pt"
 viewBox="0.00 0.00 912.22 247.00" xmlns="http://www.w3.org/2000/svg" xmlns:xlink="http://www.w3.org/1999/xlink">
<g id="graph0" class="graph" transform="scale(1 1) rotate(0) translate(4 243)">
<title>src/Template.cpp</title>
<!-- Node1 -->
<g id="Node000001" class="node">
<title>Node1</title>
<g id="a_Node000001"><a xlink:title=" ">
<polygon fill="#999999" stroke="#666666" points="449.22,-239 350.22,-239 350.22,-220 449.22,-220 449.22,-239"/>
<text text-anchor="middle" x="399.72" y="-227" font-family="Helvetica,sans-Serif" font-size="10.00">src/Template.cpp</text>
</a>
</g>
</g>
<!-- Node2 -->
<g id="Node000002" class="node">
<title>Node2</title>
<g id="a_Node000002"><a xlink:href="Template_8hpp.html" target="_top" xlink:title=" ">
<polygon fill="white" stroke="#666666" points="324.22,-184 241.22,-184 241.22,-165 324.22,-165 324.22,-184"/>
<text text-anchor="middle" x="282.72" y="-172" font-family="Helvetica,sans-Serif" font-size="10.00">Template.hpp</text>
</a>
</g>
</g>
<!-- Node1&#45;&gt;Node2 -->
<g id="edge1_Node000001_Node000002" class="edge">
<title>Node1&#45;&gt;Node2</title>
<g id="a_edge1_Node000001_Node000002"><a xlink:title=" ">
<path fill="none" stroke="#63b8ff" d="M380.92,-219.98C362.1,-211.46 332.9,-198.23 311.23,-188.41"/>
<polygon fill="#63b8ff" stroke="#63b8ff" points="312.42,-185.11 301.86,-184.17 309.53,-191.48 312.42,-185.11"/>
</a>
</g>
</g>
<!-- Node7 -->
<g id="Node000007" class="node">
<title>Node7</title>
<g id="a_Node000007"><a xlink:href="Injection_8hpp.html" target="_top" xlink:title=" ">
<polygon fill="white" stroke="#666666" points="392.72,-129 312.72,-129 312.72,-110 392.72,-110 392.72,-129"/>
<text text-anchor="middle" x="352.72" y="-117" font-family="Helvetica,sans-Serif" font-size="10.00">Injection.hpp</text>
</a>
</g>
</g>
<!-- Node1&#45;&gt;Node7 -->
<g id="edge21_Node000001_Node000007" class="edge">
<title>Node1&#45;&gt;Node7</title>
<g id="a_edge21_Node000001_Node000007"><a xlink:title=" ">
<path fill="none" stroke="#63b8ff" d="M393.18,-219.7C386.95,-211.01 377.68,-197.13 371.72,-184 365.17,-169.57 360.17,-152.3 356.95,-139.41"/>
<polygon fill="#63b8ff" stroke="#63b8ff" points="360.29,-138.32 354.58,-129.4 353.48,-139.94 360.29,-138.32"/>
</a>
</g>
</g>
<!-- Node15 -->
<g id="Node000015" class="node">
<title>Node15</title>
<g id="a_Node000015"><a xlink:title=" ">
<polygon fill="#e0e0e0" stroke="#999999" points="514.72,-184 380.72,-184 380.72,-165 514.72,-165 514.72,-184"/>
<text text-anchor="middle" x="447.72" y="-172" font-family="Helvetica,sans-Serif" font-size="10.00">termcolor/termcolor.hpp</text>
</a>
</g>
</g>
<!-- Node1&#45;&gt;Node15 -->
<g id="edge20_Node000001_Node000015" class="edge">
<title>Node1&#45;&gt;Node15</title>
<g id="a_edge20_Node000001_Node000015"><a xlink:title=" ">
<path fill="none" stroke="#63b8ff" d="M407.65,-219.75C414.57,-212.11 424.79,-200.82 433.17,-191.56"/>
<polygon fill="#63b8ff" stroke="#63b8ff" points="435.83,-193.85 439.94,-184.09 430.64,-189.15 435.83,-193.85"/>
</a>
</g>
</g>
<!-- Node16 -->
<g id="Node000016" class="node">
<title>Node16</title>
<g id="a_Node000016"><a xlink:href="Parsing_8hpp.html" target="_top" xlink:title="Helper functions for parsing information from AST nodes.">
<polygon fill="white" stroke="#666666" points="637.22,-129 564.22,-129 564.22,-110 637.22,-110 637.22,-129"/>
<text text-anchor="middle" x="600.72" y="-117" font-family="Helvetica,sans-Serif" font-size="10.00">Parsing.hpp</text>
</a>
</g>
</g>
<!-- Node1&#45;&gt;Node16 -->
<g id="edge22_Node000001_Node000016" class="edge">
<title>Node1&#45;&gt;Node16</title>
<g id="a_edge22_Node000001_Node000016"><a xlink:title=" ">
<path fill="none" stroke="#63b8ff" d="M432.92,-219.98C458.69,-212.58 494.79,-200.45 523.72,-184 547.11,-170.7 570.45,-150.18 585.2,-136.09"/>
<polygon fill="#63b8ff" stroke="#63b8ff" points="587.74,-138.49 592.45,-129 582.85,-133.48 587.74,-138.49"/>
</a>
</g>
</g>
<!-- Node3 -->
<g id="Node000003" class="node">
<title>Node3</title>
<g id="a_Node000003"><a xlink:title=" ">
<polygon fill="#e0e0e0" stroke="#999999" points="374.72,-19 330.72,-19 330.72,0 374.72,0 374.72,-19"/>
<text text-anchor="middle" x="352.72" y="-7" font-family="Helvetica,sans-Serif" font-size="10.00">string</text>
</a>
</g>
</g>
<!-- Node2&#45;&gt;Node3 -->
<g id="edge2_Node000002_Node000003" class="edge">
<title>Node2&#45;&gt;Node3</title>
<g id="a_edge2_Node000002_Node000003"><a xlink:title=" ">
<path fill="none" stroke="#63b8ff" d="M241.1,-170.08C149.98,-161.11 -53.84,-132.01 13.72,-55 33.81,-32.1 239.67,-17.31 320.44,-12.35"/>
<polygon fill="#63b8ff" stroke="#63b8ff" points="320.77,-15.84 330.54,-11.74 320.35,-8.85 320.77,-15.84"/>
</a>
</g>
</g>
<!-- Node4 -->
<g id="Node000004" class="node">
<title>Node4</title>
<g id="a_Node000004"><a xlink:title=" ">
<polygon fill="#e0e0e0" stroke="#999999" points="324.22,-74 277.22,-74 277.22,-55 324.22,-55 324.22,-74"/>
<text text-anchor="middle" x="300.72" y="-62" font-family="Helvetica,sans-Serif" font-size="10.00">vector</text>
</a>
</g>
</g>
<!-- Node2&#45;&gt;Node4 -->
<g id="edge3_Node000002_Node000004" class="edge">
<title>Node2&#45;&gt;Node4</title>
<g id="a_edge3_Node000002_Node000004"><a xlink:title=" ">
<path fill="none" stroke="#63b8ff" d="M284.2,-164.66C287.11,-147.17 293.67,-107.8 297.59,-84.27"/>
<polygon fill="#63b8ff" stroke="#63b8ff" points="301.09,-84.6 299.28,-74.16 294.18,-83.45 301.09,-84.6"/>
</a>
</g>
</g>
<!-- Node5 -->
<g id="Node000005" class="node">
<title>Node5</title>
<g id="a_Node000005"><a xlink:title=" ">
<polygon fill="#e0e0e0" stroke="#999999" points="142.22,-74 23.22,-74 23.22,-55 142.22,-55 142.22,-74"/>
<text text-anchor="middle" x="82.72" y="-62" font-family="Helvetica,sans-Serif" font-size="10.00">clang/AST/DeclCXX.h</text>
</a>
</g>
</g>
<!-- Node2&#45;&gt;Node5 -->
<g id="edge4_Node000002_Node000005" class="edge">
<title>Node2&#45;&gt;Node5</title>
<g id="a_edge4_Node000002_Node000005"><a xlink:title=" ">
<path fill="none" stroke="#63b8ff" d="M266.69,-164.84C231.87,-146.04 149.08,-101.33 107.48,-78.87"/>
<polygon fill="#63b8ff" stroke="#63b8ff" points="109.01,-75.72 98.55,-74.05 105.69,-81.88 109.01,-75.72"/>
</a>
</g>
</g>
<!-- Node6 -->
<g id="Node000006" class="node">
<title>Node6</title>
<g id="a_Node000006"><a xlink:title=" ">
<polygon fill="#e0e0e0" stroke="#999999" points="259.22,-74 160.22,-74 160.22,-55 259.22,-55 259.22,-74"/>
<text text-anchor="middle" x="209.72" y="-62" font-family="Helvetica,sans-Serif" font-size="10.00">clang/AST/Type.h</text>
</a>
</g>
</g>
<!-- Node2&#45;&gt;Node6 -->
<g id="edge5_Node000002_Node000006" class="edge">
<title>Node2&#45;&gt;Node6</title>
<g id="a_edge5_Node000002_Node000006"><a xlink:title=" ">
<path fill="none" stroke="#63b8ff" d="M276.75,-164.66C264.66,-146.77 237.1,-106 221.34,-82.69"/>
<polygon fill="#63b8ff" stroke="#63b8ff" points="224.07,-80.48 215.57,-74.16 218.28,-84.4 224.07,-80.48"/>
</a>
</g>
</g>
<!-- Node2&#45;&gt;Node7 -->
<g id="edge6_Node000002_Node000007" class="edge">
<title>Node2&#45;&gt;Node7</title>
<g id="a_edge6_Node000002_Node000007"><a xlink:title=" ">
<path fill="none" stroke="#63b8ff" d="M293.97,-164.98C304.52,-157 320.52,-144.88 333.16,-135.31"/>
<polygon fill="#63b8ff" stroke="#63b8ff" points="335.41,-138 341.27,-129.17 331.19,-132.42 335.41,-138"/>
</a>
</g>
</g>
<!-- Node10 -->
<g id="Node000010" class="node">
<title>Node10</title>
<g id="a_Node000010"><a xlink:href="Param_8hpp.html" target="_top" xlink:title=" ">
<polygon fill="white" stroke="#666666" points="696.72,-74 628.72,-74 628.72,-55 696.72,-55 696.72,-74"/>
<text text-anchor="middle" x="662.72" y="-62" font-family="Helvetica,sans-Serif" font-size="10.00">Param.hpp</text>
</a>
</g>
</g>
<!-- Node2&#45;&gt;Node10 -->
<g id="edge19_Node000002_Node000010" class="edge">
<title>Node2&#45;&gt;Node10</title>
<g id="a_edge19_Node000002_Node000010"><a xlink:title=" ">
<path fill="none" stroke="#63b8ff" d="M312.86,-164.94C380.9,-145.6 546.43,-98.55 622.85,-76.83"/>
<polygon fill="#63b8ff" stroke="#63b8ff" points="623.92,-80.17 632.58,-74.07 622.01,-73.43 623.92,-80.17"/>
</a>
</g>
</g>
<!-- Node7&#45;&gt;Node3 -->
<g id="edge8_Node000007_Node000003" class="edge">
<title>Node7&#45;&gt;Node3</title>
<g id="a_edge8_Node000007_Node000003"><a xlink:title=" ">
<path fill="none" stroke="#63b8ff" d="M352.72,-109.66C352.72,-92.17 352.72,-52.8 352.72,-29.27"/>
<polygon fill="#63b8ff" stroke="#63b8ff" points="356.22,-29.16 352.72,-19.16 349.22,-29.16 356.22,-29.16"/>
</a>
</g>
</g>
<!-- Node7&#45;&gt;Node4 -->
<g id="edge9_Node000007_Node000004" class="edge">
<title>Node7&#45;&gt;Node4</title>
<g id="a_edge9_Node000007_Node000004"><a xlink:title=" ">
<path fill="none" stroke="#63b8ff" d="M344.14,-109.75C336.56,-102.03 325.34,-90.6 316.21,-81.28"/>
<polygon fill="#63b8ff" stroke="#63b8ff" points="318.65,-78.78 309.15,-74.09 313.65,-83.68 318.65,-78.78"/>
</a>
</g>
</g>
<!-- Node7&#45;&gt;Node5 -->
<g id="edge11_Node000007_Node000005" class="edge">
<title>Node7&#45;&gt;Node5</title>
<g id="a_edge11_Node000007_Node000005"><a xlink:title=" ">
<path fill="none" stroke="#63b8ff" d="M312.59,-110.62C265.77,-101.43 188.15,-86.2 136.23,-76"/>
<polygon fill="#63b8ff" stroke="#63b8ff" points="136.69,-72.53 126.21,-74.04 135.35,-79.4 136.69,-72.53"/>
</a>
</g>
</g>
<!-- Node7&#45;&gt;Node6 -->
<g id="edge12_Node000007_Node000006" class="edge">
<title>Node7&#45;&gt;Node6</title>
<g id="a_edge12_Node000007_Node000006"><a xlink:title=" ">
<path fill="none" stroke="#63b8ff" d="M329.75,-109.98C306.22,-101.27 269.44,-87.63 242.78,-77.75"/>
<polygon fill="#63b8ff" stroke="#63b8ff" points="243.71,-74.36 233.12,-74.17 241.28,-80.93 243.71,-74.36"/>
</a>
</g>
</g>
<!-- Node8 -->
<g id="Node000008" class="node">
<title>Node8</title>
<g id="a_Node000008"><a xlink:title=" ">
<polygon fill="#e0e0e0" stroke="#999999" points="436.72,-74 380.72,-74 380.72,-55 436.72,-55 436.72,-74"/>
<text text-anchor="middle" x="408.72" y="-62" font-family="Helvetica,sans-Serif" font-size="10.00">optional</text>
</a>
</g>
</g>
<!-- Node7&#45;&gt;Node8 -->
<g id="edge7_Node000007_Node000008" class="edge">
<title>Node7&#45;&gt;Node8</title>
<g id="a_edge7_Node000007_Node000008"><a xlink:title=" ">
<path fill="none" stroke="#63b8ff" d="M361.72,-109.98C369.92,-102.23 382.23,-90.58 392.19,-81.14"/>
<polygon fill="#63b8ff" stroke="#63b8ff" points="394.7,-83.59 399.56,-74.17 389.89,-78.5 394.7,-83.59"/>
</a>
</g>
</g>
<!-- Node9 -->
<g id="Node000009" class="node">
<title>Node9</title>
<g id="a_Node000009"><a xlink:title=" ">
<polygon fill="#e0e0e0" stroke="#999999" points="572.72,-74 454.72,-74 454.72,-55 572.72,-55 572.72,-74"/>
<text text-anchor="middle" x="513.72" y="-62" font-family="Helvetica,sans-Serif" font-size="10.00">llvm/ADT/StringRef.h</text>
</a>
</g>
</g>
<!-- Node7&#45;&gt;Node9 -->
<g id="edge10_Node000007_Node000009" class="edge">
<title>Node7&#45;&gt;Node9</title>
<g id="a_edge10_Node000007_Node000009"><a xlink:title=" ">
<path fill="none" stroke="#63b8ff" d="M378.59,-109.98C405.5,-101.13 447.84,-87.19 477.95,-77.28"/>
<polygon fill="#63b8ff" stroke="#63b8ff" points="479.25,-80.53 487.65,-74.08 477.06,-73.88 479.25,-80.53"/>
</a>
</g>
</g>
<!-- Node7&#45;&gt;Node10 -->
<g id="edge13_Node000007_Node000010" class="edge">
<title>Node7&#45;&gt;Node10</title>
<g id="a_edge13_Node000007_Node000010"><a xlink:title=" ">
<path fill="none" stroke="#63b8ff" d="M392.93,-111.63C451.01,-101.7 557.99,-83.41 618.32,-73.09"/>
<polygon fill="#63b8ff" stroke="#63b8ff" points="619.04,-76.52 628.31,-71.38 617.86,-69.62 619.04,-76.52"/>
</a>
</g>
</g>
<!-- Node10&#45;&gt;Node3 -->
<g id="edge15_Node000010_Node000003" class="edge">
<title>Node10&#45;&gt;Node3</title>
<g id="a_edge15_Node000010_Node000003"><a xlink:title=" ">
<path fill="none" stroke="#63b8ff" d="M628.65,-57.38C623.97,-56.56 619.23,-55.75 614.72,-55 515.76,-38.49 487.66,-40.19 384.88,-18.81"/>
<polygon fill="#63b8ff" stroke="#63b8ff" points="385.54,-15.38 375.03,-16.74 384.1,-22.23 385.54,-15.38"/>
</a>
</g>
</g>
<!-- Node11 -->
<g id="Node000011" class="node">
<title>Node11</title>
<g id="a_Node000011"><a xlink:title=" ">
<polygon fill="#e0e0e0" stroke="#999999" points="450.22,-19 393.22,-19 393.22,0 450.22,0 450.22,-19"/>
<text text-anchor="middle" x="421.72" y="-7" font-family="Helvetica,sans-Serif" font-size="10.00">ostream</text>
</a>
</g>
</g>
<!-- Node10&#45;&gt;Node11 -->
<g id="edge14_Node000010_Node000011" class="edge">
<title>Node10&#45;&gt;Node11</title>
<g id="a_edge14_Node000010_Node000011"><a xlink:title=" ">
<path fill="none" stroke="#63b8ff" d="M628.59,-56.06C590.21,-47.69 525.76,-33.61 460.42,-19.15"/>
<polygon fill="#63b8ff" stroke="#63b8ff" points="460.87,-15.66 450.35,-16.92 459.36,-22.5 460.87,-15.66"/>
</a>
</g>
</g>
<!-- Node12 -->
<g id="Node000012" class="node">
<title>Node12</title>
<g id="a_Node000012"><a xlink:title=" ">
<polygon fill="#e0e0e0" stroke="#999999" points="566.72,-19 468.72,-19 468.72,0 566.72,0 566.72,-19"/>
<text text-anchor="middle" x="517.72" y="-7" font-family="Helvetica,sans-Serif" font-size="10.00">clang/AST/Decl.h</text>
</a>
</g>
</g>
<!-- Node10&#45;&gt;Node12 -->
<g id="edge16_Node000010_Node000012" class="edge">
<title>Node10&#45;&gt;Node12</title>
<g id="a_edge16_Node000010_Node000012"><a xlink:title=" ">
<path fill="none" stroke="#63b8ff" d="M639.43,-54.98C615.47,-46.23 577.94,-32.51 550.89,-22.62"/>
<polygon fill="#63b8ff" stroke="#63b8ff" points="552.04,-19.32 541.44,-19.17 549.63,-25.89 552.04,-19.32"/>
</a>
</g>
</g>
<!-- Node13 -->
<g id="Node000013" class="node">
<title>Node13</title>
<g id="a_Node000013"><a xlink:title=" ">
<polygon fill="#e0e0e0" stroke="#999999" points="748.72,-19 584.72,-19 584.72,0 748.72,0 748.72,-19"/>
<text text-anchor="middle" x="666.72" y="-7" font-family="Helvetica,sans-Serif" font-size="10.00">clang/AST/DependenceFlags.h</text>
</a>
</g>
</g>
<!-- Node10&#45;&gt;Node13 -->
<g id="edge17_Node000010_Node000013" class="edge">
<title>Node10&#45;&gt;Node13</title>
<g id="a_edge17_Node000010_Node000013"><a xlink:title=" ">
<path fill="none" stroke="#63b8ff" d="M663.38,-54.75C663.91,-47.8 664.66,-37.85 665.32,-29.13"/>
<polygon fill="#63b8ff" stroke="#63b8ff" points="668.81,-29.32 666.07,-19.09 661.83,-28.8 668.81,-29.32"/>
</a>
</g>
</g>
<!-- Node14 -->
<g id="Node000014" class="node">
<title>Node14</title>
<g id="a_Node000014"><a xlink:title=" ">
<polygon fill="#e0e0e0" stroke="#999999" points="904.22,-19 767.22,-19 767.22,0 904.22,0 904.22,-19"/>
<text text-anchor="middle" x="835.72" y="-7" font-family="Helvetica,sans-Serif" font-size="10.00">clang/AST/PrettyPrinter.h</text>
</a>
</g>
</g>
<!-- Node10&#45;&gt;Node14 -->
<g id="edge18_Node000010_Node000014" class="edge">
<title>Node10&#45;&gt;Node14</title>
<g id="a_edge18_Node000010_Node000014"><a xlink:title=" ">
<path fill="none" stroke="#63b8ff" d="M690.52,-54.98C719.69,-46.05 765.72,-31.94 798.13,-22.02"/>
<polygon fill="#63b8ff" stroke="#63b8ff" points="799.17,-25.36 807.71,-19.08 797.12,-18.66 799.17,-25.36"/>
</a>
</g>
</g>
<!-- Node16&#45;&gt;Node3 -->
<g id="edge23_Node000016_Node000003" class="edge">
<title>Node16&#45;&gt;Node3</title>
<g id="a_edge23_Node000016_Node000003"><a xlink:title=" ">
<path fill="none" stroke="#63b8ff" d="M600.8,-109.61C600.41,-95.75 597.49,-69.13 581.72,-55 517.75,2.29 474.69,-35.56 385.04,-18.73"/>
<polygon fill="#63b8ff" stroke="#63b8ff" points="385.55,-15.27 375.05,-16.67 384.13,-22.12 385.55,-15.27"/>
</a>
</g>
</g>
<!-- Node16&#45;&gt;Node4 -->
<g id="edge24_Node000016_Node000004" class="edge">
<title>Node16&#45;&gt;Node4</title>
<g id="a_edge24_Node000016_Node000004"><a xlink:title=" ">
<path fill="none" stroke="#63b8ff" d="M563.94,-112C505.17,-101.62 390.96,-81.44 334.29,-71.43"/>
<polygon fill="#63b8ff" stroke="#63b8ff" points="334.86,-67.98 324.4,-69.68 333.64,-74.87 334.86,-67.98"/>
</a>
</g>
</g>
<!-- Node16&#45;&gt;Node10 -->
<g id="edge26_Node000016_Node000010" class="edge">
<title>Node16&#45;&gt;Node10</title>
<g id="a_edge26_Node000016_Node000010"><a xlink:title=" ">
<path fill="none" stroke="#63b8ff" d="M610.68,-109.98C619.85,-102.15 633.66,-90.34 644.75,-80.86"/>
<polygon fill="#63b8ff" stroke="#63b8ff" points="647.25,-83.33 652.58,-74.17 642.7,-78.01 647.25,-83.33"/>
</a>
</g>
</g>
<!-- Node16&#45;&gt;Node14 -->
<g id="edge25_Node000016_Node000014" class="edge">
<title>Node16&#45;&gt;Node14</title>
<g id="a_edge25_Node000016_Node000014"><a xlink:title=" ">
<path fill="none" stroke="#63b8ff" d="M621.78,-109.96C643.09,-101.24 676.9,-87.14 705.72,-74 742.2,-57.37 783.73,-36.8 809.83,-23.66"/>
<polygon fill="#63b8ff" stroke="#63b8ff" points="811.68,-26.64 819.03,-19.01 808.53,-20.39 811.68,-26.64"/>
</a>
</g>
</g>
</g>
</svg>
