<?xml version="1.0" encoding="UTF-8" standalone="no"?>
<!DOCTYPE svg PUBLIC "-//W3C//DTD SVG 1.1//EN"
 "http://www.w3.org/Graphics/SVG/1.1/DTD/svg11.dtd">
<!-- Generated by graphviz version 2.43.0 (0)
 -->
<!-- Title: include/Template.hpp Pages: 1 -->
<svg width="839pt" height="192pt"
 viewBox="0.00 0.00 838.63 192.00" xmlns="http://www.w3.org/2000/svg" xmlns:xlink="http://www.w3.org/1999/xlink">
<g id="graph0" class="graph" transform="scale(1 1) rotate(0) translate(4 188)">
<title>include/Template.hpp</title>
<!-- Node1 -->
<g id="Node000001" class="node">
<title>Node1</title>
<g id="a_Node000001"><a xlink:title=" ">
<polygon fill="#999999" stroke="#666666" points="709,-184 588,-184 588,-165 709,-165 709,-184"/>
<text text-anchor="middle" x="648.5" y="-172" font-family="Helvetica,sans-Serif" font-size="10.00">include/Template.hpp</text>
</a>
</g>
</g>
<!-- Node2 -->
<g id="Node000002" class="node">
<title>Node2</title>
<g id="a_Node000002"><a xlink:href="Injection_8hpp.html" target="_top" xlink:title=" ">
<polygon fill="white" stroke="#666666" points="547.5,-129 467.5,-129 467.5,-110 547.5,-110 547.5,-129"/>
<text text-anchor="middle" x="507.5" y="-117" font-family="Helvetica,sans-Serif" font-size="10.00">Injection.hpp</text>
</a>
</g>
</g>
<!-- Node1&#45;&gt;Node2 -->
<g id="edge1_Node000001_Node000002" class="edge">
<title>Node1&#45;&gt;Node2</title>
<g id="a_edge1_Node000001_Node000002"><a xlink:title=" ">
<path fill="none" stroke="#63b8ff" d="M625.85,-164.98C602.65,-156.27 566.38,-142.63 540.1,-132.75"/>
<polygon fill="#63b8ff" stroke="#63b8ff" points="541.16,-129.41 530.57,-129.17 538.7,-135.97 541.16,-129.41"/>
</a>
</g>
</g>
<!-- Node3 -->
<g id="Node000003" class="node">
<title>Node3</title>
<g id="a_Node000003"><a xlink:href="Param_8hpp.html" target="_top" xlink:title=" ">
<polygon fill="white" stroke="#666666" points="377.5,-74 309.5,-74 309.5,-55 377.5,-55 377.5,-74"/>
<text text-anchor="middle" x="343.5" y="-62" font-family="Helvetica,sans-Serif" font-size="10.00">Param.hpp</text>
</a>
</g>
</g>
<!-- Node1&#45;&gt;Node3 -->
<g id="edge15_Node000001_Node000003" class="edge">
<title>Node1&#45;&gt;Node3</title>
<g id="a_edge15_Node000001_Node000003"><a xlink:title=" ">
<path fill="none" stroke="#63b8ff" d="M594.5,-164.94C555.82,-157.83 502.92,-146.09 458.5,-129 424.08,-115.76 387.25,-93.9 364.8,-79.61"/>
<polygon fill="#63b8ff" stroke="#63b8ff" points="366.68,-76.65 356.38,-74.17 362.88,-82.53 366.68,-76.65"/>
</a>
</g>
</g>
<!-- Node9 -->
<g id="Node000009" class="node">
<title>Node9</title>
<g id="a_Node000009"><a xlink:title=" ">
<polygon fill="#e0e0e0" stroke="#999999" points="563.5,-19 519.5,-19 519.5,0 563.5,0 563.5,-19"/>
<text text-anchor="middle" x="541.5" y="-7" font-family="Helvetica,sans-Serif" font-size="10.00">string</text>
</a>
</g>
</g>
<!-- Node1&#45;&gt;Node9 -->
<g id="edge18_Node000001_Node000009" class="edge">
<title>Node1&#45;&gt;Node9</title>
<g id="a_edge18_Node000001_Node000009"><a xlink:title=" ">
<path fill="none" stroke="#63b8ff" d="M683.85,-164.92C746.34,-148.14 865.69,-107.97 820.5,-55 789.14,-18.24 640.78,-11.7 574.1,-10.64"/>
<polygon fill="#63b8ff" stroke="#63b8ff" points="573.8,-7.14 563.76,-10.51 573.71,-14.14 573.8,-7.14"/>
</a>
</g>
</g>
<!-- Node10 -->
<g id="Node000010" class="node">
<title>Node10</title>
<g id="a_Node000010"><a xlink:title=" ">
<polygon fill="#e0e0e0" stroke="#999999" points="629,-74 510,-74 510,-55 629,-55 629,-74"/>
<text text-anchor="middle" x="569.5" y="-62" font-family="Helvetica,sans-Serif" font-size="10.00">clang/AST/DeclCXX.h</text>
</a>
</g>
</g>
<!-- Node1&#45;&gt;Node10 -->
<g id="edge16_Node000001_Node000010" class="edge">
<title>Node1&#45;&gt;Node10</title>
<g id="a_edge16_Node000001_Node000010"><a xlink:title=" ">
<path fill="none" stroke="#63b8ff" d="M642.04,-164.66C628.89,-146.69 598.86,-105.64 581.85,-82.38"/>
<polygon fill="#63b8ff" stroke="#63b8ff" points="584.56,-80.16 575.83,-74.16 578.91,-84.3 584.56,-80.16"/>
</a>
</g>
</g>
<!-- Node11 -->
<g id="Node000011" class="node">
<title>Node11</title>
<g id="a_Node000011"><a xlink:title=" ">
<polygon fill="#e0e0e0" stroke="#999999" points="746,-74 647,-74 647,-55 746,-55 746,-74"/>
<text text-anchor="middle" x="696.5" y="-62" font-family="Helvetica,sans-Serif" font-size="10.00">clang/AST/Type.h</text>
</a>
</g>
</g>
<!-- Node1&#45;&gt;Node11 -->
<g id="edge17_Node000001_Node000011" class="edge">
<title>Node1&#45;&gt;Node11</title>
<g id="a_edge17_Node000001_Node000011"><a xlink:title=" ">
<path fill="none" stroke="#63b8ff" d="M652.43,-164.66C660.31,-146.93 678.18,-106.73 688.58,-83.32"/>
<polygon fill="#63b8ff" stroke="#63b8ff" points="691.79,-84.72 692.65,-74.16 685.39,-81.87 691.79,-84.72"/>
</a>
</g>
</g>
<!-- Node12 -->
<g id="Node000012" class="node">
<title>Node12</title>
<g id="a_Node000012"><a xlink:title=" ">
<polygon fill="#e0e0e0" stroke="#999999" points="811,-74 764,-74 764,-55 811,-55 811,-74"/>
<text text-anchor="middle" x="787.5" y="-62" font-family="Helvetica,sans-Serif" font-size="10.00">vector</text>
</a>
</g>
</g>
<!-- Node1&#45;&gt;Node12 -->
<g id="edge19_Node000001_Node000012" class="edge">
<title>Node1&#45;&gt;Node12</title>
<g id="a_edge19_Node000001_Node000012"><a xlink:title=" ">
<path fill="none" stroke="#63b8ff" d="M659.87,-164.66C683.61,-146.22 738.66,-103.45 768.1,-80.57"/>
<polygon fill="#63b8ff" stroke="#63b8ff" points="770.61,-83.06 776.36,-74.16 766.31,-77.53 770.61,-83.06"/>
</a>
</g>
</g>
<!-- Node2&#45;&gt;Node3 -->
<g id="edge2_Node000002_Node000003" class="edge">
<title>Node2&#45;&gt;Node3</title>
<g id="a_edge2_Node000002_Node000003"><a xlink:title=" ">
<path fill="none" stroke="#63b8ff" d="M481.15,-109.98C453.74,-101.13 410.61,-87.19 379.94,-77.28"/>
<polygon fill="#63b8ff" stroke="#63b8ff" points="380.65,-73.83 370.06,-74.08 378.5,-80.49 380.65,-73.83"/>
</a>
</g>
</g>
<!-- Node4 -->
<g id="Node000004" class="node">
<title>Node4</title>
<g id="a_Node000004"><a xlink:title=" ">
<polygon fill="#e0e0e0" stroke="#999999" points="416,-19 347,-19 347,0 416,0 416,-19"/>
<text text-anchor="middle" x="381.5" y="-7" font-family="Helvetica,sans-Serif" font-size="10.00">fmt/color.h</text>
</a>
</g>
</g>
<!-- Node2&#45;&gt;Node4 -->
<g id="edge9_Node000002_Node000004" class="edge">
<title>Node2&#45;&gt;Node4</title>
<g id="a_edge9_Node000002_Node000004"><a xlink:title=" ">
<path fill="none" stroke="#63b8ff" d="M497.19,-109.66C475.76,-91.3 426.2,-48.81 399.43,-25.87"/>
<polygon fill="#63b8ff" stroke="#63b8ff" points="401.47,-23.01 391.6,-19.16 396.92,-28.32 401.47,-23.01"/>
</a>
</g>
</g>
<!-- Node5 -->
<g id="Node000005" class="node">
<title>Node5</title>
<g id="a_Node000005"><a xlink:title=" ">
<polygon fill="#e0e0e0" stroke="#999999" points="501,-19 434,-19 434,0 501,0 501,-19"/>
<text text-anchor="middle" x="467.5" y="-7" font-family="Helvetica,sans-Serif" font-size="10.00">fmt/core.h</text>
</a>
</g>
</g>
<!-- Node2&#45;&gt;Node5 -->
<g id="edge10_Node000002_Node000005" class="edge">
<title>Node2&#45;&gt;Node5</title>
<g id="a_edge10_Node000002_Node000005"><a xlink:title=" ">
<path fill="none" stroke="#63b8ff" d="M504.23,-109.66C497.69,-92.01 482.9,-52.09 474.22,-28.64"/>
<polygon fill="#63b8ff" stroke="#63b8ff" points="477.46,-27.32 470.71,-19.16 470.9,-29.75 477.46,-27.32"/>
</a>
</g>
</g>
<!-- Node2&#45;&gt;Node9 -->
<g id="edge13_Node000002_Node000009" class="edge">
<title>Node2&#45;&gt;Node9</title>
<g id="a_edge13_Node000002_Node000009"><a xlink:title=" ">
<path fill="none" stroke="#63b8ff" d="M504.1,-109.95C499.65,-97.44 493.24,-73.6 500.5,-55 504.9,-43.73 513.64,-33.59 521.93,-25.85"/>
<polygon fill="#63b8ff" stroke="#63b8ff" points="524.32,-28.4 529.57,-19.2 519.73,-23.12 524.32,-28.4"/>
</a>
</g>
</g>
<!-- Node2&#45;&gt;Node10 -->
<g id="edge11_Node000002_Node000010" class="edge">
<title>Node2&#45;&gt;Node10</title>
<g id="a_edge11_Node000002_Node000010"><a xlink:title=" ">
<path fill="none" stroke="#63b8ff" d="M517.46,-109.98C526.63,-102.15 540.44,-90.34 551.53,-80.86"/>
<polygon fill="#63b8ff" stroke="#63b8ff" points="554.03,-83.33 559.36,-74.17 549.48,-78.01 554.03,-83.33"/>
</a>
</g>
</g>
<!-- Node2&#45;&gt;Node11 -->
<g id="edge12_Node000002_Node000011" class="edge">
<title>Node2&#45;&gt;Node11</title>
<g id="a_edge12_Node000002_Node000011"><a xlink:title=" ">
<path fill="none" stroke="#63b8ff" d="M537.87,-109.98C569.87,-101.01 620.46,-86.82 655.88,-76.89"/>
<polygon fill="#63b8ff" stroke="#63b8ff" points="657.21,-80.15 665.9,-74.08 655.32,-73.41 657.21,-80.15"/>
</a>
</g>
</g>
<!-- Node2&#45;&gt;Node12 -->
<g id="edge14_Node000002_Node000012" class="edge">
<title>Node2&#45;&gt;Node12</title>
<g id="a_edge14_Node000002_Node000012"><a xlink:title=" ">
<path fill="none" stroke="#63b8ff" d="M547.65,-112.34C594.84,-104.86 675.71,-91.34 753.79,-74.24"/>
<polygon fill="#63b8ff" stroke="#63b8ff" points="754.78,-77.61 763.79,-72.03 753.27,-70.77 754.78,-77.61"/>
</a>
</g>
</g>
<!-- Node3&#45;&gt;Node4 -->
<g id="edge3_Node000003_Node000004" class="edge">
<title>Node3&#45;&gt;Node4</title>
<g id="a_edge3_Node000003_Node000004"><a xlink:title=" ">
<path fill="none" stroke="#63b8ff" d="M349.77,-54.75C355.09,-47.34 362.86,-36.5 369.38,-27.41"/>
<polygon fill="#63b8ff" stroke="#63b8ff" points="372.36,-29.26 375.34,-19.09 366.67,-25.18 372.36,-29.26"/>
</a>
</g>
</g>
<!-- Node3&#45;&gt;Node5 -->
<g id="edge4_Node000003_Node000005" class="edge">
<title>Node3&#45;&gt;Node5</title>
<g id="a_edge4_Node000003_Node000005"><a xlink:title=" ">
<path fill="none" stroke="#63b8ff" d="M363.42,-54.98C383.55,-46.38 414.88,-32.99 437.91,-23.15"/>
<polygon fill="#63b8ff" stroke="#63b8ff" points="439.4,-26.32 447.21,-19.17 436.64,-19.88 439.4,-26.32"/>
</a>
</g>
</g>
<!-- Node6 -->
<g id="Node000006" class="node">
<title>Node6</title>
<g id="a_Node000006"><a xlink:title=" ">
<polygon fill="#e0e0e0" stroke="#999999" points="328.5,-19 230.5,-19 230.5,0 328.5,0 328.5,-19"/>
<text text-anchor="middle" x="279.5" y="-7" font-family="Helvetica,sans-Serif" font-size="10.00">clang/AST/Decl.h</text>
</a>
</g>
</g>
<!-- Node3&#45;&gt;Node6 -->
<g id="edge5_Node000003_Node000006" class="edge">
<title>Node3&#45;&gt;Node6</title>
<g id="a_edge5_Node000003_Node000006"><a xlink:title=" ">
<path fill="none" stroke="#63b8ff" d="M333.22,-54.98C323.66,-47.07 309.22,-35.11 297.72,-25.58"/>
<polygon fill="#63b8ff" stroke="#63b8ff" points="299.9,-22.85 289.97,-19.17 295.44,-28.24 299.9,-22.85"/>
</a>
</g>
</g>
<!-- Node7 -->
<g id="Node000007" class="node">
<title>Node7</title>
<g id="a_Node000007"><a xlink:title=" ">
<polygon fill="#e0e0e0" stroke="#999999" points="137,-19 0,-19 0,0 137,0 137,-19"/>
<text text-anchor="middle" x="68.5" y="-7" font-family="Helvetica,sans-Serif" font-size="10.00">clang/AST/PrettyPrinter.h</text>
</a>
</g>
</g>
<!-- Node3&#45;&gt;Node7 -->
<g id="edge6_Node000003_Node000007" class="edge">
<title>Node3&#45;&gt;Node7</title>
<g id="a_edge6_Node000003_Node000007"><a xlink:title=" ">
<path fill="none" stroke="#63b8ff" d="M309.23,-56.89C262.46,-47.88 178.16,-31.63 122.76,-20.96"/>
<polygon fill="#63b8ff" stroke="#63b8ff" points="123.25,-17.49 112.77,-19.03 121.93,-24.36 123.25,-17.49"/>
</a>
</g>
</g>
<!-- Node8 -->
<g id="Node000008" class="node">
<title>Node8</title>
<g id="a_Node000008"><a xlink:title=" ">
<polygon fill="#e0e0e0" stroke="#999999" points="212,-19 155,-19 155,0 212,0 212,-19"/>
<text text-anchor="middle" x="183.5" y="-7" font-family="Helvetica,sans-Serif" font-size="10.00">ostream</text>
</a>
</g>
</g>
<!-- Node3&#45;&gt;Node8 -->
<g id="edge7_Node000003_Node000008" class="edge">
<title>Node3&#45;&gt;Node8</title>
<g id="a_edge7_Node000003_Node000008"><a xlink:title=" ">
<path fill="none" stroke="#63b8ff" d="M317.79,-54.98C291.05,-46.13 248.97,-32.19 219.05,-22.28"/>
<polygon fill="#63b8ff" stroke="#63b8ff" points="220,-18.9 209.41,-19.08 217.8,-25.55 220,-18.9"/>
</a>
</g>
</g>
<!-- Node3&#45;&gt;Node9 -->
<g id="edge8_Node000003_Node000009" class="edge">
<title>Node3&#45;&gt;Node9</title>
<g id="a_edge8_Node000003_Node000009"><a xlink:title=" ">
<path fill="none" stroke="#63b8ff" d="M375.31,-54.98C412.18,-45.12 472.6,-28.94 509.53,-19.06"/>
<polygon fill="#63b8ff" stroke="#63b8ff" points="510.54,-22.41 519.29,-16.45 508.73,-15.65 510.54,-22.41"/>
</a>
</g>
</g>
</g>
</svg>
