<?xml version="1.0" encoding="UTF-8" standalone="no"?>
<!DOCTYPE svg PUBLIC "-//W3C//DTD SVG 1.1//EN"
 "http://www.w3.org/Graphics/SVG/1.1/DTD/svg11.dtd">
<!-- Generated by graphviz version 2.43.0 (0)
 -->
<!-- Title: include/Template.hpp Pages: 1 -->
<svg width="737pt" height="192pt"
 viewBox="0.00 0.00 736.83 192.00" xmlns="http://www.w3.org/2000/svg" xmlns:xlink="http://www.w3.org/1999/xlink">
<g id="graph0" class="graph" transform="scale(1 1) rotate(0) translate(4 188)">
<title>include/Template.hpp</title>
<!-- Node1 -->
<g id="Node000001" class="node">
<title>Node1</title>
<g id="a_Node000001"><a xlink:title=" ">
<polygon fill="#999999" stroke="#666666" points="315.33,-184 194.33,-184 194.33,-165 315.33,-165 315.33,-184"/>
<text text-anchor="middle" x="254.83" y="-172" font-family="Helvetica,sans-Serif" font-size="10.00">include/Template.hpp</text>
</a>
</g>
</g>
<!-- Node2 -->
<g id="Node000002" class="node">
<title>Node2</title>
<g id="a_Node000002"><a xlink:title=" ">
<polygon fill="#e0e0e0" stroke="#999999" points="247.83,-19 203.83,-19 203.83,0 247.83,0 247.83,-19"/>
<text text-anchor="middle" x="225.83" y="-7" font-family="Helvetica,sans-Serif" font-size="10.00">string</text>
</a>
</g>
</g>
<!-- Node1&#45;&gt;Node2 -->
<g id="edge1_Node000001_Node000002" class="edge">
<title>Node1&#45;&gt;Node2</title>
<g id="a_edge1_Node000001_Node000002"><a xlink:title=" ">
<path fill="none" stroke="#63b8ff" d="M194.11,-168.71C133.99,-160.34 45.14,-137.3 3.83,-74 -0.78,-66.93 -1.52,-61.53 3.83,-55 27.47,-26.15 138.05,-15.62 193.69,-12.1"/>
<polygon fill="#63b8ff" stroke="#63b8ff" points="193.95,-15.59 203.72,-11.51 193.53,-8.6 193.95,-15.59"/>
</a>
</g>
</g>
<!-- Node3 -->
<g id="Node000003" class="node">
<title>Node3</title>
<g id="a_Node000003"><a xlink:title=" ">
<polygon fill="#e0e0e0" stroke="#999999" points="60.33,-74 13.33,-74 13.33,-55 60.33,-55 60.33,-74"/>
<text text-anchor="middle" x="36.83" y="-62" font-family="Helvetica,sans-Serif" font-size="10.00">vector</text>
</a>
</g>
</g>
<!-- Node1&#45;&gt;Node3 -->
<g id="edge2_Node000001_Node000003" class="edge">
<title>Node1&#45;&gt;Node3</title>
<g id="a_edge2_Node000001_Node000003"><a xlink:title=" ">
<path fill="none" stroke="#63b8ff" d="M237.36,-164.84C199.24,-145.96 108.4,-100.96 63.24,-78.59"/>
<polygon fill="#63b8ff" stroke="#63b8ff" points="64.6,-75.35 54.08,-74.05 61.49,-81.62 64.6,-75.35"/>
</a>
</g>
</g>
<!-- Node4 -->
<g id="Node000004" class="node">
<title>Node4</title>
<g id="a_Node000004"><a xlink:title=" ">
<polygon fill="#e0e0e0" stroke="#999999" points="197.33,-74 78.33,-74 78.33,-55 197.33,-55 197.33,-74"/>
<text text-anchor="middle" x="137.83" y="-62" font-family="Helvetica,sans-Serif" font-size="10.00">clang/AST/DeclCXX.h</text>
</a>
</g>
</g>
<!-- Node1&#45;&gt;Node4 -->
<g id="edge3_Node000001_Node000004" class="edge">
<title>Node1&#45;&gt;Node4</title>
<g id="a_edge3_Node000001_Node000004"><a xlink:title=" ">
<path fill="none" stroke="#63b8ff" d="M245.26,-164.66C225.45,-146.38 179.73,-104.18 154.8,-81.17"/>
<polygon fill="#63b8ff" stroke="#63b8ff" points="156.93,-78.37 147.21,-74.16 152.18,-83.51 156.93,-78.37"/>
</a>
</g>
</g>
<!-- Node5 -->
<g id="Node000005" class="node">
<title>Node5</title>
<g id="a_Node000005"><a xlink:title=" ">
<polygon fill="#e0e0e0" stroke="#999999" points="613.33,-74 514.33,-74 514.33,-55 613.33,-55 613.33,-74"/>
<text text-anchor="middle" x="563.83" y="-62" font-family="Helvetica,sans-Serif" font-size="10.00">clang/AST/Type.h</text>
</a>
</g>
</g>
<!-- Node1&#45;&gt;Node5 -->
<g id="edge4_Node000001_Node000005" class="edge">
<title>Node1&#45;&gt;Node5</title>
<g id="a_edge4_Node000001_Node000005"><a xlink:title=" ">
<path fill="none" stroke="#63b8ff" d="M279.33,-164.94C334.21,-145.76 467.07,-99.32 529.87,-77.37"/>
<polygon fill="#63b8ff" stroke="#63b8ff" points="531.04,-80.67 539.32,-74.07 528.73,-74.06 531.04,-80.67"/>
</a>
</g>
</g>
<!-- Node6 -->
<g id="Node000006" class="node">
<title>Node6</title>
<g id="a_Node000006"><a xlink:href="Injection_8hpp.html" target="_top" xlink:title=" ">
<polygon fill="white" stroke="#666666" points="333.83,-129 253.83,-129 253.83,-110 333.83,-110 333.83,-129"/>
<text text-anchor="middle" x="293.83" y="-117" font-family="Helvetica,sans-Serif" font-size="10.00">Injection.hpp</text>
</a>
</g>
</g>
<!-- Node1&#45;&gt;Node6 -->
<g id="edge5_Node000001_Node000006" class="edge">
<title>Node1&#45;&gt;Node6</title>
<g id="a_edge5_Node000001_Node000006"><a xlink:title=" ">
<path fill="none" stroke="#63b8ff" d="M261.27,-164.75C266.72,-157.34 274.69,-146.5 281.39,-137.41"/>
<polygon fill="#63b8ff" stroke="#63b8ff" points="284.4,-139.22 287.51,-129.09 278.76,-135.07 284.4,-139.22"/>
</a>
</g>
</g>
<!-- Node10 -->
<g id="Node000010" class="node">
<title>Node10</title>
<g id="a_Node000010"><a xlink:href="Param_8hpp.html" target="_top" xlink:title=" ">
<polygon fill="white" stroke="#666666" points="495.83,-74 427.83,-74 427.83,-55 495.83,-55 495.83,-74"/>
<text text-anchor="middle" x="461.83" y="-62" font-family="Helvetica,sans-Serif" font-size="10.00">Param.hpp</text>
</a>
</g>
</g>
<!-- Node1&#45;&gt;Node10 -->
<g id="edge19_Node000001_Node000010" class="edge">
<title>Node1&#45;&gt;Node10</title>
<g id="a_edge19_Node000001_Node000010"><a xlink:title=" ">
<path fill="none" stroke="#63b8ff" d="M272.09,-164.91C289.87,-156.03 318.37,-141.71 342.83,-129 375.52,-112.01 412.97,-91.92 436.99,-78.96"/>
<polygon fill="#63b8ff" stroke="#63b8ff" points="438.97,-81.87 446.1,-74.03 435.64,-75.71 438.97,-81.87"/>
</a>
</g>
</g>
<!-- Node6&#45;&gt;Node2 -->
<g id="edge6_Node000006_Node000002" class="edge">
<title>Node6&#45;&gt;Node2</title>
<g id="a_edge6_Node000006_Node000002"><a xlink:title=" ">
<path fill="none" stroke="#63b8ff" d="M280.75,-109.75C269.67,-101.7 254.14,-88.78 244.83,-74 236.21,-60.31 231.32,-42.5 228.67,-29.22"/>
<polygon fill="#63b8ff" stroke="#63b8ff" points="232.11,-28.58 226.94,-19.33 225.22,-29.79 232.11,-28.58"/>
</a>
</g>
</g>
<!-- Node6&#45;&gt;Node3 -->
<g id="edge7_Node000006_Node000003" class="edge">
<title>Node6&#45;&gt;Node3</title>
<g id="a_edge7_Node000006_Node000003"><a xlink:title=" ">
<path fill="none" stroke="#63b8ff" d="M253.42,-111.32C210.29,-103.47 139.73,-90.13 70.33,-74.24"/>
<polygon fill="#63b8ff" stroke="#63b8ff" points="71.08,-70.82 60.55,-71.98 69.51,-77.64 71.08,-70.82"/>
</a>
</g>
</g>
<!-- Node6&#45;&gt;Node4 -->
<g id="edge11_Node000006_Node000004" class="edge">
<title>Node6&#45;&gt;Node4</title>
<g id="a_edge11_Node000006_Node000004"><a xlink:title=" ">
<path fill="none" stroke="#63b8ff" d="M268.77,-109.98C242.8,-101.16 202.02,-87.31 172.87,-77.41"/>
<polygon fill="#63b8ff" stroke="#63b8ff" points="173.68,-73.99 163.09,-74.08 171.43,-80.61 173.68,-73.99"/>
</a>
</g>
</g>
<!-- Node6&#45;&gt;Node5 -->
<g id="edge12_Node000006_Node000005" class="edge">
<title>Node6&#45;&gt;Node5</title>
<g id="a_edge12_Node000006_Node000005"><a xlink:title=" ">
<path fill="none" stroke="#63b8ff" d="M333.96,-110.62C380.78,-101.43 458.4,-86.2 510.32,-76"/>
<polygon fill="#63b8ff" stroke="#63b8ff" points="511.21,-79.4 520.34,-74.04 509.86,-72.53 511.21,-79.4"/>
</a>
</g>
</g>
<!-- Node7 -->
<g id="Node000007" class="node">
<title>Node7</title>
<g id="a_Node000007"><a xlink:title=" ">
<polygon fill="#e0e0e0" stroke="#999999" points="372.33,-19 303.33,-19 303.33,0 372.33,0 372.33,-19"/>
<text text-anchor="middle" x="337.83" y="-7" font-family="Helvetica,sans-Serif" font-size="10.00">fmt/color.h</text>
</a>
</g>
</g>
<!-- Node6&#45;&gt;Node7 -->
<g id="edge8_Node000006_Node000007" class="edge">
<title>Node6&#45;&gt;Node7</title>
<g id="a_edge8_Node000006_Node000007"><a xlink:title=" ">
<path fill="none" stroke="#63b8ff" d="M308.2,-109.96C319.7,-102.21 335.01,-89.62 341.83,-74 348.04,-59.76 346.22,-42.01 343.32,-28.89"/>
<polygon fill="#63b8ff" stroke="#63b8ff" points="346.69,-27.94 340.78,-19.15 339.92,-29.71 346.69,-27.94"/>
</a>
</g>
</g>
<!-- Node8 -->
<g id="Node000008" class="node">
<title>Node8</title>
<g id="a_Node000008"><a xlink:title=" ">
<polygon fill="#e0e0e0" stroke="#999999" points="457.33,-19 390.33,-19 390.33,0 457.33,0 457.33,-19"/>
<text text-anchor="middle" x="423.83" y="-7" font-family="Helvetica,sans-Serif" font-size="10.00">fmt/core.h</text>
</a>
</g>
</g>
<!-- Node6&#45;&gt;Node8 -->
<g id="edge9_Node000006_Node000008" class="edge">
<title>Node6&#45;&gt;Node8</title>
<g id="a_edge9_Node000006_Node000008"><a xlink:title=" ">
<path fill="none" stroke="#63b8ff" d="M307.77,-109.95C321.28,-101.44 342.12,-87.7 358.83,-74 377.01,-59.09 396.06,-40.01 408.8,-26.68"/>
<polygon fill="#63b8ff" stroke="#63b8ff" points="411.53,-28.88 415.85,-19.2 406.44,-24.07 411.53,-28.88"/>
</a>
</g>
</g>
<!-- Node9 -->
<g id="Node000009" class="node">
<title>Node9</title>
<g id="a_Node000009"><a xlink:title=" ">
<polygon fill="#e0e0e0" stroke="#999999" points="333.33,-74 254.33,-74 254.33,-55 333.33,-55 333.33,-74"/>
<text text-anchor="middle" x="293.83" y="-62" font-family="Helvetica,sans-Serif" font-size="10.00">fmt/ranges.h</text>
</a>
</g>
</g>
<!-- Node6&#45;&gt;Node9 -->
<g id="edge10_Node000006_Node000009" class="edge">
<title>Node6&#45;&gt;Node9</title>
<g id="a_edge10_Node000006_Node000009"><a xlink:title=" ">
<path fill="none" stroke="#63b8ff" d="M293.83,-109.75C293.83,-102.8 293.83,-92.85 293.83,-84.13"/>
<polygon fill="#63b8ff" stroke="#63b8ff" points="297.33,-84.09 293.83,-74.09 290.33,-84.09 297.33,-84.09"/>
</a>
</g>
</g>
<!-- Node6&#45;&gt;Node10 -->
<g id="edge13_Node000006_Node000010" class="edge">
<title>Node6&#45;&gt;Node10</title>
<g id="a_edge13_Node000006_Node000010"><a xlink:title=" ">
<path fill="none" stroke="#63b8ff" d="M320.82,-109.98C349.03,-101.09 393.47,-87.07 424.91,-77.15"/>
<polygon fill="#63b8ff" stroke="#63b8ff" points="426.14,-80.43 434.63,-74.08 424.04,-73.75 426.14,-80.43"/>
</a>
</g>
</g>
<!-- Node10&#45;&gt;Node2 -->
<g id="edge14_Node000010_Node000002" class="edge">
<title>Node10&#45;&gt;Node2</title>
<g id="a_edge14_Node000010_Node000002"><a xlink:title=" ">
<path fill="none" stroke="#63b8ff" d="M427.77,-55.85C382.27,-45.63 302.26,-27.66 257.83,-17.69"/>
<polygon fill="#63b8ff" stroke="#63b8ff" points="258.39,-14.23 247.87,-15.45 256.86,-21.06 258.39,-14.23"/>
</a>
</g>
</g>
<!-- Node10&#45;&gt;Node7 -->
<g id="edge15_Node000010_Node000007" class="edge">
<title>Node10&#45;&gt;Node7</title>
<g id="a_edge15_Node000010_Node000007"><a xlink:title=" ">
<path fill="none" stroke="#63b8ff" d="M441.91,-54.98C421.78,-46.38 390.45,-32.99 367.42,-23.15"/>
<polygon fill="#63b8ff" stroke="#63b8ff" points="368.69,-19.88 358.12,-19.17 365.93,-26.32 368.69,-19.88"/>
</a>
</g>
</g>
<!-- Node10&#45;&gt;Node8 -->
<g id="edge16_Node000010_Node000008" class="edge">
<title>Node10&#45;&gt;Node8</title>
<g id="a_edge16_Node000010_Node000008"><a xlink:title=" ">
<path fill="none" stroke="#63b8ff" d="M455.55,-54.75C450.24,-47.34 442.47,-36.5 435.95,-27.41"/>
<polygon fill="#63b8ff" stroke="#63b8ff" points="438.66,-25.18 429.99,-19.09 432.97,-29.26 438.66,-25.18"/>
</a>
</g>
</g>
<!-- Node11 -->
<g id="Node000011" class="node">
<title>Node11</title>
<g id="a_Node000011"><a xlink:title=" ">
<polygon fill="#e0e0e0" stroke="#999999" points="728.83,-19 630.83,-19 630.83,0 728.83,0 728.83,-19"/>
<text text-anchor="middle" x="679.83" y="-7" font-family="Helvetica,sans-Serif" font-size="10.00">clang/AST/Decl.h</text>
</a>
</g>
</g>
<!-- Node10&#45;&gt;Node11 -->
<g id="edge17_Node000010_Node000011" class="edge">
<title>Node10&#45;&gt;Node11</title>
<g id="a_edge17_Node000010_Node000011"><a xlink:title=" ">
<path fill="none" stroke="#63b8ff" d="M495.89,-55.22C533.29,-46.13 593.48,-31.49 634.76,-21.46"/>
<polygon fill="#63b8ff" stroke="#63b8ff" points="635.67,-24.84 644.56,-19.07 634.02,-18.04 635.67,-24.84"/>
</a>
</g>
</g>
<!-- Node12 -->
<g id="Node000012" class="node">
<title>Node12</title>
<g id="a_Node000012"><a xlink:title=" ">
<polygon fill="#e0e0e0" stroke="#999999" points="612.33,-19 475.33,-19 475.33,0 612.33,0 612.33,-19"/>
<text text-anchor="middle" x="543.83" y="-7" font-family="Helvetica,sans-Serif" font-size="10.00">clang/AST/PrettyPrinter.h</text>
</a>
</g>
</g>
<!-- Node10&#45;&gt;Node12 -->
<g id="edge18_Node000010_Node000012" class="edge">
<title>Node10&#45;&gt;Node12</title>
<g id="a_edge18_Node000010_Node000012"><a xlink:title=" ">
<path fill="none" stroke="#63b8ff" d="M475,-54.98C487.6,-46.84 506.83,-34.41 521.77,-24.76"/>
<polygon fill="#63b8ff" stroke="#63b8ff" points="523.92,-27.54 530.42,-19.17 520.12,-21.66 523.92,-27.54"/>
</a>
</g>
</g>
</g>
</svg>
