<?xml version="1.0" encoding="UTF-8" standalone="no"?>
<!DOCTYPE svg PUBLIC "-//W3C//DTD SVG 1.1//EN"
 "http://www.w3.org/Graphics/SVG/1.1/DTD/svg11.dtd">
<!-- Generated by graphviz version 2.43.0 (0)
 -->
<!-- Title: include/Template.hpp Pages: 1 -->
<svg width="779pt" height="192pt"
 viewBox="0.00 0.00 778.50 192.00" xmlns="http://www.w3.org/2000/svg" xmlns:xlink="http://www.w3.org/1999/xlink">
<g id="graph0" class="graph" transform="scale(1 1) rotate(0) translate(4 188)">
<title>include/Template.hpp</title>
<!-- Node1 -->
<g id="Node000001" class="node">
<title>Node1</title>
<g id="a_Node000001"><a xlink:title=" ">
<polygon fill="#999999" stroke="#666666" points="337.5,-184 216.5,-184 216.5,-165 337.5,-165 337.5,-184"/>
<text text-anchor="middle" x="277" y="-172" font-family="Helvetica,sans-Serif" font-size="10.00">include/Template.hpp</text>
</a>
</g>
</g>
<!-- Node2 -->
<g id="Node000002" class="node">
<title>Node2</title>
<g id="a_Node000002"><a xlink:title=" ">
<polygon fill="#e0e0e0" stroke="#999999" points="44,-19 0,-19 0,0 44,0 44,-19"/>
<text text-anchor="middle" x="22" y="-7" font-family="Helvetica,sans-Serif" font-size="10.00">string</text>
</a>
</g>
</g>
<!-- Node1&#45;&gt;Node2 -->
<g id="edge1_Node000001_Node000002" class="edge">
<title>Node1&#45;&gt;Node2</title>
<g id="a_edge1_Node000001_Node000002"><a xlink:title=" ">
<path fill="none" stroke="#63b8ff" d="M216.25,-170.17C152.89,-163.03 56.71,-141.06 12,-74 3.02,-60.53 7.43,-41.94 12.93,-28.36"/>
<polygon fill="#63b8ff" stroke="#63b8ff" points="16.18,-29.66 17.15,-19.11 9.81,-26.76 16.18,-29.66"/>
</a>
</g>
</g>
<!-- Node3 -->
<g id="Node000003" class="node">
<title>Node3</title>
<g id="a_Node000003"><a xlink:title=" ">
<polygon fill="#e0e0e0" stroke="#999999" points="68.5,-74 21.5,-74 21.5,-55 68.5,-55 68.5,-74"/>
<text text-anchor="middle" x="45" y="-62" font-family="Helvetica,sans-Serif" font-size="10.00">vector</text>
</a>
</g>
</g>
<!-- Node1&#45;&gt;Node3 -->
<g id="edge2_Node000001_Node000003" class="edge">
<title>Node1&#45;&gt;Node3</title>
<g id="a_edge2_Node000001_Node000003"><a xlink:title=" ">
<path fill="none" stroke="#63b8ff" d="M258.41,-164.84C217.67,-145.88 120.35,-100.58 72.51,-78.31"/>
<polygon fill="#63b8ff" stroke="#63b8ff" points="73.9,-75.09 63.36,-74.05 70.95,-81.44 73.9,-75.09"/>
</a>
</g>
</g>
<!-- Node4 -->
<g id="Node000004" class="node">
<title>Node4</title>
<g id="a_Node000004"><a xlink:title=" ">
<polygon fill="#e0e0e0" stroke="#999999" points="653.5,-74 534.5,-74 534.5,-55 653.5,-55 653.5,-74"/>
<text text-anchor="middle" x="594" y="-62" font-family="Helvetica,sans-Serif" font-size="10.00">clang/AST/DeclCXX.h</text>
</a>
</g>
</g>
<!-- Node1&#45;&gt;Node4 -->
<g id="edge3_Node000001_Node000004" class="edge">
<title>Node1&#45;&gt;Node4</title>
<g id="a_edge3_Node000001_Node000004"><a xlink:title=" ">
<path fill="none" stroke="#63b8ff" d="M306.1,-164.99C335.29,-156.34 381.46,-142.36 421,-129 470.66,-112.23 527.61,-90.92 562.18,-77.74"/>
<polygon fill="#63b8ff" stroke="#63b8ff" points="563.64,-80.93 571.74,-74.09 561.15,-74.39 563.64,-80.93"/>
</a>
</g>
</g>
<!-- Node5 -->
<g id="Node000005" class="node">
<title>Node5</title>
<g id="a_Node000005"><a xlink:title=" ">
<polygon fill="#e0e0e0" stroke="#999999" points="770.5,-74 671.5,-74 671.5,-55 770.5,-55 770.5,-74"/>
<text text-anchor="middle" x="721" y="-62" font-family="Helvetica,sans-Serif" font-size="10.00">clang/AST/Type.h</text>
</a>
</g>
</g>
<!-- Node1&#45;&gt;Node5 -->
<g id="edge4_Node000001_Node000005" class="edge">
<title>Node1&#45;&gt;Node5</title>
<g id="a_edge4_Node000001_Node000005"><a xlink:title=" ">
<path fill="none" stroke="#63b8ff" d="M312.28,-164.99C349.32,-156.05 409.26,-141.57 461,-129 536.56,-110.64 624.43,-89.15 676.24,-76.47"/>
<polygon fill="#63b8ff" stroke="#63b8ff" points="677.22,-79.83 686.1,-74.05 675.56,-73.03 677.22,-79.83"/>
</a>
</g>
</g>
<!-- Node6 -->
<g id="Node000006" class="node">
<title>Node6</title>
<g id="a_Node000006"><a xlink:href="Injection_8hpp.html" target="_top" xlink:title=" ">
<polygon fill="white" stroke="#666666" points="412,-129 332,-129 332,-110 412,-110 412,-129"/>
<text text-anchor="middle" x="372" y="-117" font-family="Helvetica,sans-Serif" font-size="10.00">Injection.hpp</text>
</a>
</g>
</g>
<!-- Node1&#45;&gt;Node6 -->
<g id="edge5_Node000001_Node000006" class="edge">
<title>Node1&#45;&gt;Node6</title>
<g id="a_edge5_Node000001_Node000006"><a xlink:title=" ">
<path fill="none" stroke="#63b8ff" d="M292.26,-164.98C307.13,-156.69 329.98,-143.94 347.42,-134.22"/>
<polygon fill="#63b8ff" stroke="#63b8ff" points="349.43,-137.1 356.46,-129.17 346.02,-130.99 349.43,-137.1"/>
</a>
</g>
</g>
<!-- Node10 -->
<g id="Node000010" class="node">
<title>Node10</title>
<g id="a_Node000010"><a xlink:href="Param_8hpp.html" target="_top" xlink:title=" ">
<polygon fill="white" stroke="#666666" points="193,-74 125,-74 125,-55 193,-55 193,-74"/>
<text text-anchor="middle" x="159" y="-62" font-family="Helvetica,sans-Serif" font-size="10.00">Param.hpp</text>
</a>
</g>
</g>
<!-- Node1&#45;&gt;Node10 -->
<g id="edge25_Node000001_Node000010" class="edge">
<title>Node1&#45;&gt;Node10</title>
<g id="a_edge25_Node000001_Node000010"><a xlink:title=" ">
<path fill="none" stroke="#63b8ff" d="M267.34,-164.66C247.36,-146.38 201.26,-104.18 176.12,-81.17"/>
<polygon fill="#63b8ff" stroke="#63b8ff" points="178.2,-78.33 168.46,-74.16 173.47,-83.49 178.2,-78.33"/>
</a>
</g>
</g>
<!-- Node13 -->
<g id="Node000013" class="node">
<title>Node13</title>
<g id="a_Node000013"><a xlink:href="TemplateArgument_8hpp.html" target="_top" xlink:title=" ">
<polygon fill="white" stroke="#666666" points="342.5,-74 211.5,-74 211.5,-55 342.5,-55 342.5,-74"/>
<text text-anchor="middle" x="277" y="-62" font-family="Helvetica,sans-Serif" font-size="10.00">TemplateArgument.hpp</text>
</a>
</g>
</g>
<!-- Node1&#45;&gt;Node13 -->
<g id="edge26_Node000001_Node000013" class="edge">
<title>Node1&#45;&gt;Node13</title>
<g id="a_edge26_Node000001_Node000013"><a xlink:title=" ">
<path fill="none" stroke="#63b8ff" d="M277,-164.66C277,-147.17 277,-107.8 277,-84.27"/>
<polygon fill="#63b8ff" stroke="#63b8ff" points="280.5,-84.16 277,-74.16 273.5,-84.16 280.5,-84.16"/>
</a>
</g>
</g>
<!-- Node6&#45;&gt;Node2 -->
<g id="edge6_Node000006_Node000002" class="edge">
<title>Node6&#45;&gt;Node2</title>
<g id="a_edge6_Node000006_Node000002"><a xlink:title=" ">
<path fill="none" stroke="#63b8ff" d="M331.99,-116.73C280.38,-113.3 188.59,-103.26 116,-74 86.8,-62.23 57.42,-40.4 39.46,-25.67"/>
<polygon fill="#63b8ff" stroke="#63b8ff" points="41.53,-22.83 31.62,-19.08 37.03,-28.19 41.53,-22.83"/>
</a>
</g>
</g>
<!-- Node6&#45;&gt;Node3 -->
<g id="edge7_Node000006_Node000003" class="edge">
<title>Node6&#45;&gt;Node3</title>
<g id="a_edge7_Node000006_Node000003"><a xlink:title=" ">
<path fill="none" stroke="#63b8ff" d="M331.65,-113.16C275.65,-105.55 171.3,-90.65 83,-74 81.55,-73.73 80.06,-73.44 78.57,-73.14"/>
<polygon fill="#63b8ff" stroke="#63b8ff" points="79.17,-69.69 68.67,-71.05 77.73,-76.54 79.17,-69.69"/>
</a>
</g>
</g>
<!-- Node6&#45;&gt;Node4 -->
<g id="edge11_Node000006_Node000004" class="edge">
<title>Node6&#45;&gt;Node4</title>
<g id="a_edge11_Node000006_Node000004"><a xlink:title=" ">
<path fill="none" stroke="#63b8ff" d="M407.67,-109.98C445.83,-100.87 506.47,-86.4 548.15,-76.45"/>
<polygon fill="#63b8ff" stroke="#63b8ff" points="549.14,-79.81 558.05,-74.08 547.51,-73 549.14,-79.81"/>
</a>
</g>
</g>
<!-- Node6&#45;&gt;Node5 -->
<g id="edge12_Node000006_Node000005" class="edge">
<title>Node6&#45;&gt;Node5</title>
<g id="a_edge12_Node000006_Node000005"><a xlink:title=" ">
<path fill="none" stroke="#63b8ff" d="M412.03,-112.42C473.13,-103.14 590.02,-85.39 661.2,-74.58"/>
<polygon fill="#63b8ff" stroke="#63b8ff" points="661.99,-78 671.36,-73.04 660.94,-71.08 661.99,-78"/>
</a>
</g>
</g>
<!-- Node7 -->
<g id="Node000007" class="node">
<title>Node7</title>
<g id="a_Node000007"><a xlink:title=" ">
<polygon fill="#e0e0e0" stroke="#999999" points="402.5,-19 333.5,-19 333.5,0 402.5,0 402.5,-19"/>
<text text-anchor="middle" x="368" y="-7" font-family="Helvetica,sans-Serif" font-size="10.00">fmt/color.h</text>
</a>
</g>
</g>
<!-- Node6&#45;&gt;Node7 -->
<g id="edge8_Node000006_Node000007" class="edge">
<title>Node6&#45;&gt;Node7</title>
<g id="a_edge8_Node000006_Node000007"><a xlink:title=" ">
<path fill="none" stroke="#63b8ff" d="M398.79,-109.84C426.48,-99.34 463.73,-79.91 449,-55 440.14,-40.02 424.24,-29.74 408.86,-22.88"/>
<polygon fill="#63b8ff" stroke="#63b8ff" points="410,-19.56 399.42,-19.03 407.36,-26.04 410,-19.56"/>
</a>
</g>
</g>
<!-- Node8 -->
<g id="Node000008" class="node">
<title>Node8</title>
<g id="a_Node000008"><a xlink:title=" ">
<polygon fill="#e0e0e0" stroke="#999999" points="487.5,-19 420.5,-19 420.5,0 487.5,0 487.5,-19"/>
<text text-anchor="middle" x="454" y="-7" font-family="Helvetica,sans-Serif" font-size="10.00">fmt/core.h</text>
</a>
</g>
</g>
<!-- Node6&#45;&gt;Node8 -->
<g id="edge9_Node000006_Node000008" class="edge">
<title>Node6&#45;&gt;Node8</title>
<g id="a_edge9_Node000006_Node000008"><a xlink:title=" ">
<path fill="none" stroke="#63b8ff" d="M411.31,-109.92C430.71,-103.48 452.41,-92.49 464,-74 472.6,-60.29 468.25,-41.73 462.86,-28.22"/>
<polygon fill="#63b8ff" stroke="#63b8ff" points="466.02,-26.72 458.73,-19.04 459.63,-29.59 466.02,-26.72"/>
</a>
</g>
</g>
<!-- Node9 -->
<g id="Node000009" class="node">
<title>Node9</title>
<g id="a_Node000009"><a xlink:title=" ">
<polygon fill="#e0e0e0" stroke="#999999" points="439.5,-74 360.5,-74 360.5,-55 439.5,-55 439.5,-74"/>
<text text-anchor="middle" x="400" y="-62" font-family="Helvetica,sans-Serif" font-size="10.00">fmt/ranges.h</text>
</a>
</g>
</g>
<!-- Node6&#45;&gt;Node9 -->
<g id="edge10_Node000006_Node000009" class="edge">
<title>Node6&#45;&gt;Node9</title>
<g id="a_edge10_Node000006_Node000009"><a xlink:title=" ">
<path fill="none" stroke="#63b8ff" d="M376.62,-109.75C380.46,-102.49 386.02,-91.95 390.76,-82.98"/>
<polygon fill="#63b8ff" stroke="#63b8ff" points="393.89,-84.57 395.46,-74.09 387.7,-81.3 393.89,-84.57"/>
</a>
</g>
</g>
<!-- Node6&#45;&gt;Node10 -->
<g id="edge13_Node000006_Node000010" class="edge">
<title>Node6&#45;&gt;Node10</title>
<g id="a_edge13_Node000006_Node000010"><a xlink:title=" ">
<path fill="none" stroke="#63b8ff" d="M337.78,-109.98C301.14,-100.87 242.88,-86.37 202.89,-76.42"/>
<polygon fill="#63b8ff" stroke="#63b8ff" points="203.69,-73.01 193.14,-73.99 202,-79.81 203.69,-73.01"/>
</a>
</g>
</g>
<!-- Node6&#45;&gt;Node13 -->
<g id="edge19_Node000006_Node000013" class="edge">
<title>Node6&#45;&gt;Node13</title>
<g id="a_edge19_Node000006_Node000013"><a xlink:title=" ">
<path fill="none" stroke="#63b8ff" d="M356.74,-109.98C341.87,-101.69 319.02,-88.94 301.58,-79.22"/>
<polygon fill="#63b8ff" stroke="#63b8ff" points="302.98,-75.99 292.54,-74.17 299.57,-82.1 302.98,-75.99"/>
</a>
</g>
</g>
<!-- Node10&#45;&gt;Node2 -->
<g id="edge14_Node000010_Node000002" class="edge">
<title>Node10&#45;&gt;Node2</title>
<g id="a_edge14_Node000010_Node000002"><a xlink:title=" ">
<path fill="none" stroke="#63b8ff" d="M136.99,-54.98C114.55,-46.3 79.52,-32.75 54.01,-22.88"/>
<polygon fill="#63b8ff" stroke="#63b8ff" points="55,-19.51 44.41,-19.17 52.48,-26.04 55,-19.51"/>
</a>
</g>
</g>
<!-- Node10&#45;&gt;Node7 -->
<g id="edge15_Node000010_Node000007" class="edge">
<title>Node10&#45;&gt;Node7</title>
<g id="a_edge15_Node000010_Node000007"><a xlink:title=" ">
<path fill="none" stroke="#63b8ff" d="M192.58,-54.98C228.35,-45.91 285.12,-31.52 324.34,-21.57"/>
<polygon fill="#63b8ff" stroke="#63b8ff" points="325.32,-24.93 334.16,-19.08 323.6,-18.15 325.32,-24.93"/>
</a>
</g>
</g>
<!-- Node10&#45;&gt;Node8 -->
<g id="edge16_Node000010_Node000008" class="edge">
<title>Node10&#45;&gt;Node8</title>
<g id="a_edge16_Node000010_Node000008"><a xlink:title=" ">
<path fill="none" stroke="#63b8ff" d="M193.1,-56.84C196.44,-56.21 199.79,-55.59 203,-55 292.55,-38.64 317.66,-36.48 410.03,-19.33"/>
<polygon fill="#63b8ff" stroke="#63b8ff" points="410.9,-22.73 420.09,-17.45 409.62,-15.85 410.9,-22.73"/>
</a>
</g>
</g>
<!-- Node11 -->
<g id="Node000011" class="node">
<title>Node11</title>
<g id="a_Node000011"><a xlink:title=" ">
<polygon fill="#e0e0e0" stroke="#999999" points="160,-19 62,-19 62,0 160,0 160,-19"/>
<text text-anchor="middle" x="111" y="-7" font-family="Helvetica,sans-Serif" font-size="10.00">clang/AST/Decl.h</text>
</a>
</g>
</g>
<!-- Node10&#45;&gt;Node11 -->
<g id="edge17_Node000010_Node000011" class="edge">
<title>Node10&#45;&gt;Node11</title>
<g id="a_edge17_Node000010_Node000011"><a xlink:title=" ">
<path fill="none" stroke="#63b8ff" d="M151.07,-54.75C144.15,-47.11 133.93,-35.82 125.55,-26.56"/>
<polygon fill="#63b8ff" stroke="#63b8ff" points="128.09,-24.15 118.78,-19.09 122.9,-28.85 128.09,-24.15"/>
</a>
</g>
</g>
<!-- Node12 -->
<g id="Node000012" class="node">
<title>Node12</title>
<g id="a_Node000012"><a xlink:title=" ">
<polygon fill="#e0e0e0" stroke="#999999" points="315.5,-19 178.5,-19 178.5,0 315.5,0 315.5,-19"/>
<text text-anchor="middle" x="247" y="-7" font-family="Helvetica,sans-Serif" font-size="10.00">clang/AST/PrettyPrinter.h</text>
</a>
</g>
</g>
<!-- Node10&#45;&gt;Node12 -->
<g id="edge18_Node000010_Node000012" class="edge">
<title>Node10&#45;&gt;Node12</title>
<g id="a_edge18_Node000010_Node000012"><a xlink:title=" ">
<path fill="none" stroke="#63b8ff" d="M173.14,-54.98C186.79,-46.77 207.69,-34.18 223.78,-24.49"/>
<polygon fill="#63b8ff" stroke="#63b8ff" points="225.84,-27.33 232.6,-19.17 222.23,-21.33 225.84,-27.33"/>
</a>
</g>
</g>
<!-- Node13&#45;&gt;Node2 -->
<g id="edge21_Node000013_Node000002" class="edge">
<title>Node13&#45;&gt;Node2</title>
<g id="a_edge21_Node000013_Node000002"><a xlink:title=" ">
<path fill="none" stroke="#63b8ff" d="M228.72,-54.94C185.43,-47.03 119.98,-34.51 54.4,-19.2"/>
<polygon fill="#63b8ff" stroke="#63b8ff" points="54.84,-15.71 44.3,-16.82 53.23,-22.52 54.84,-15.71"/>
</a>
</g>
</g>
<!-- Node13&#45;&gt;Node7 -->
<g id="edge22_Node000013_Node000007" class="edge">
<title>Node13&#45;&gt;Node7</title>
<g id="a_edge22_Node000013_Node000007"><a xlink:title=" ">
<path fill="none" stroke="#63b8ff" d="M291.62,-54.98C305.86,-46.69 327.75,-33.94 344.45,-24.22"/>
<polygon fill="#63b8ff" stroke="#63b8ff" points="346.23,-27.23 353.11,-19.17 342.71,-21.18 346.23,-27.23"/>
</a>
</g>
</g>
<!-- Node13&#45;&gt;Node8 -->
<g id="edge23_Node000013_Node000008" class="edge">
<title>Node13&#45;&gt;Node8</title>
<g id="a_edge23_Node000013_Node000008"><a xlink:title=" ">
<path fill="none" stroke="#63b8ff" d="M305.44,-54.98C335.28,-46.05 382.38,-31.94 415.53,-22.02"/>
<polygon fill="#63b8ff" stroke="#63b8ff" points="416.76,-25.3 425.34,-19.08 414.76,-18.6 416.76,-25.3"/>
</a>
</g>
</g>
<!-- Node13&#45;&gt;Node12 -->
<g id="edge24_Node000013_Node000012" class="edge">
<title>Node13&#45;&gt;Node12</title>
<g id="a_edge24_Node000013_Node000012"><a xlink:title=" ">
<path fill="none" stroke="#63b8ff" d="M272.05,-54.75C267.94,-47.49 261.97,-36.95 256.9,-27.98"/>
<polygon fill="#63b8ff" stroke="#63b8ff" points="259.83,-26.07 251.86,-19.09 253.74,-29.52 259.83,-26.07"/>
</a>
</g>
</g>
<!-- Node14 -->
<g id="Node000014" class="node">
<title>Node14</title>
<g id="a_Node000014"><a xlink:title=" ">
<polygon fill="#e0e0e0" stroke="#999999" points="652,-19 506,-19 506,0 652,0 652,-19"/>
<text text-anchor="middle" x="579" y="-7" font-family="Helvetica,sans-Serif" font-size="10.00">clang/AST/TemplateBase.h</text>
</a>
</g>
</g>
<!-- Node13&#45;&gt;Node14 -->
<g id="edge20_Node000013_Node000014" class="edge">
<title>Node13&#45;&gt;Node14</title>
<g id="a_edge20_Node000013_Node000014"><a xlink:title=" ">
<path fill="none" stroke="#63b8ff" d="M325.52,-54.98C378.61,-45.67 463.69,-30.74 520.44,-20.78"/>
<polygon fill="#63b8ff" stroke="#63b8ff" points="521.1,-24.21 530.35,-19.04 519.89,-17.32 521.1,-24.21"/>
</a>
</g>
</g>
</g>
</svg>
