<?xml version="1.0" encoding="UTF-8" standalone="no"?>
<!DOCTYPE svg PUBLIC "-//W3C//DTD SVG 1.1//EN"
 "http://www.w3.org/Graphics/SVG/1.1/DTD/svg11.dtd">
<!-- Generated by graphviz version 2.43.0 (0)
 -->
<!-- Title: src/Template.cpp Pages: 1 -->
<svg width="912pt" height="252pt"
 viewBox="0.00 0.00 912.28 252.00" xmlns="http://www.w3.org/2000/svg" xmlns:xlink="http://www.w3.org/1999/xlink">
<g id="graph0" class="graph" transform="scale(1 1) rotate(0) translate(4 248)">
<title>src/Template.cpp</title>
<!-- Node1 -->
<g id="node1" class="node">
<title>Node1</title>
<g id="a_node1"><a xlink:title=" ">
<polygon fill="#bfbfbf" stroke="black" points="350.28,-224.5 350.28,-243.5 449.28,-243.5 449.28,-224.5 350.28,-224.5"/>
<text text-anchor="middle" x="399.78" y="-231.5" font-family="Helvetica,sans-Serif" font-size="10.00">src/Template.cpp</text>
</a>
</g>
</g>
<!-- Node2 -->
<g id="node2" class="node">
<title>Node2</title>
<g id="a_node2"><a xlink:href="Template_8hpp.html" target="_top" xlink:title=" ">
<polygon fill="none" stroke="black" points="241.28,-168.5 241.28,-187.5 324.28,-187.5 324.28,-168.5 241.28,-168.5"/>
<text text-anchor="middle" x="282.78" y="-175.5" font-family="Helvetica,sans-Serif" font-size="10.00">Template.hpp</text>
</a>
</g>
</g>
<!-- Node1&#45;&gt;Node2 -->
<g id="edge1" class="edge">
<title>Node1&#45;&gt;Node2</title>
<path fill="none" stroke="midnightblue" d="M381.24,-224.44C362.16,-215.64 332.21,-201.81 310.35,-191.72"/>
<polygon fill="midnightblue" stroke="midnightblue" points="311.78,-188.53 301.24,-187.52 308.85,-194.88 311.78,-188.53"/>
</g>
<!-- Node7 -->
<g id="node7" class="node">
<title>Node7</title>
<g id="a_node7"><a xlink:href="Injection_8hpp.html" target="_top" xlink:title=" ">
<polygon fill="none" stroke="black" points="312.78,-112.5 312.78,-131.5 392.78,-131.5 392.78,-112.5 312.78,-112.5"/>
<text text-anchor="middle" x="352.78" y="-119.5" font-family="Helvetica,sans-Serif" font-size="10.00">Injection.hpp</text>
</a>
</g>
</g>
<!-- Node1&#45;&gt;Node7 -->
<g id="edge21" class="edge">
<title>Node1&#45;&gt;Node7</title>
<path fill="none" stroke="midnightblue" d="M393.46,-224.43C387.23,-215.66 377.79,-201.44 371.78,-188 365.03,-172.91 359.97,-154.78 356.77,-141.51"/>
<polygon fill="midnightblue" stroke="midnightblue" points="360.16,-140.65 354.53,-131.68 353.34,-142.2 360.16,-140.65"/>
</g>
<!-- Node15 -->
<g id="node15" class="node">
<title>Node15</title>
<g id="a_node15"><a xlink:title=" ">
<polygon fill="none" stroke="#bfbfbf" points="380.78,-168.5 380.78,-187.5 514.78,-187.5 514.78,-168.5 380.78,-168.5"/>
<text text-anchor="middle" x="447.78" y="-175.5" font-family="Helvetica,sans-Serif" font-size="10.00">termcolor/termcolor.hpp</text>
</a>
</g>
</g>
<!-- Node1&#45;&gt;Node15 -->
<g id="edge20" class="edge">
<title>Node1&#45;&gt;Node15</title>
<path fill="none" stroke="midnightblue" d="M407.71,-224.08C414.63,-216.3 424.85,-204.8 433.24,-195.37"/>
<polygon fill="midnightblue" stroke="midnightblue" points="435.98,-197.55 440.01,-187.75 430.75,-192.9 435.98,-197.55"/>
</g>
<!-- Node16 -->
<g id="node16" class="node">
<title>Node16</title>
<g id="a_node16"><a xlink:href="Parsing_8hpp.html" target="_top" xlink:title="Helper functions for parsing information from AST nodes.">
<polygon fill="none" stroke="black" points="564.28,-112.5 564.28,-131.5 637.28,-131.5 637.28,-112.5 564.28,-112.5"/>
<text text-anchor="middle" x="600.78" y="-119.5" font-family="Helvetica,sans-Serif" font-size="10.00">Parsing.hpp</text>
</a>
</g>
</g>
<!-- Node1&#45;&gt;Node16 -->
<g id="edge22" class="edge">
<title>Node1&#45;&gt;Node16</title>
<path fill="none" stroke="midnightblue" d="M432.76,-224.49C458.58,-217.03 494.84,-204.75 523.78,-188 547.29,-174.4 570.61,-153.39 585.32,-138.96"/>
<polygon fill="midnightblue" stroke="midnightblue" points="587.96,-141.26 592.55,-131.71 583.01,-136.31 587.96,-141.26"/>
</g>
<!-- Node3 -->
<g id="node3" class="node">
<title>Node3</title>
<g id="a_node3"><a xlink:title=" ">
<polygon fill="none" stroke="#bfbfbf" points="330.78,-0.5 330.78,-19.5 374.78,-19.5 374.78,-0.5 330.78,-0.5"/>
<text text-anchor="middle" x="352.78" y="-7.5" font-family="Helvetica,sans-Serif" font-size="10.00">string</text>
</a>
</g>
</g>
<!-- Node2&#45;&gt;Node3 -->
<g id="edge2" class="edge">
<title>Node2&#45;&gt;Node3</title>
<path fill="none" stroke="midnightblue" d="M241.14,-173.33C149.96,-163.78 -53.96,-133.33 13.78,-56 33.86,-33.08 239.72,-17.98 320.5,-12.9"/>
<polygon fill="midnightblue" stroke="midnightblue" points="320.83,-16.39 330.6,-12.28 320.4,-9.4 320.83,-16.39"/>
</g>
<!-- Node4 -->
<g id="node4" class="node">
<title>Node4</title>
<g id="a_node4"><a xlink:title=" ">
<polygon fill="none" stroke="#bfbfbf" points="277.28,-56.5 277.28,-75.5 324.28,-75.5 324.28,-56.5 277.28,-56.5"/>
<text text-anchor="middle" x="300.78" y="-63.5" font-family="Helvetica,sans-Serif" font-size="10.00">vector</text>
</a>
</g>
</g>
<!-- Node2&#45;&gt;Node4 -->
<g id="edge3" class="edge">
<title>Node2&#45;&gt;Node4</title>
<path fill="none" stroke="midnightblue" d="M284.2,-168.37C287.1,-150.62 293.8,-109.67 297.74,-85.6"/>
<polygon fill="midnightblue" stroke="midnightblue" points="301.22,-86.03 299.38,-75.59 294.31,-84.89 301.22,-86.03"/>
</g>
<!-- Node5 -->
<g id="node5" class="node">
<title>Node5</title>
<g id="a_node5"><a xlink:title=" ">
<polygon fill="none" stroke="#bfbfbf" points="23.28,-56.5 23.28,-75.5 142.28,-75.5 142.28,-56.5 23.28,-56.5"/>
<text text-anchor="middle" x="82.78" y="-63.5" font-family="Helvetica,sans-Serif" font-size="10.00">clang/AST/DeclCXX.h</text>
</a>
</g>
</g>
<!-- Node2&#45;&gt;Node5 -->
<g id="edge4" class="edge">
<title>Node2&#45;&gt;Node5</title>
<path fill="none" stroke="midnightblue" d="M267.09,-168.37C232.4,-149.29 149.01,-103.42 107.34,-80.51"/>
<polygon fill="midnightblue" stroke="midnightblue" points="108.85,-77.34 98.4,-75.59 105.48,-83.48 108.85,-77.34"/>
</g>
<!-- Node6 -->
<g id="node6" class="node">
<title>Node6</title>
<g id="a_node6"><a xlink:title=" ">
<polygon fill="none" stroke="#bfbfbf" points="160.28,-56.5 160.28,-75.5 259.28,-75.5 259.28,-56.5 160.28,-56.5"/>
<text text-anchor="middle" x="209.78" y="-63.5" font-family="Helvetica,sans-Serif" font-size="10.00">clang/AST/Type.h</text>
</a>
</g>
</g>
<!-- Node2&#45;&gt;Node6 -->
<g id="edge5" class="edge">
<title>Node2&#45;&gt;Node6</title>
<path fill="none" stroke="midnightblue" d="M277.06,-168.37C265.01,-150.22 236.86,-107.8 221.06,-83.99"/>
<polygon fill="midnightblue" stroke="midnightblue" points="223.93,-81.99 215.49,-75.59 218.1,-85.86 223.93,-81.99"/>
</g>
<!-- Node2&#45;&gt;Node7 -->
<g id="edge6" class="edge">
<title>Node2&#45;&gt;Node7</title>
<path fill="none" stroke="midnightblue" d="M294.03,-168.32C304.58,-160.18 320.58,-147.84 333.23,-138.09"/>
<polygon fill="midnightblue" stroke="midnightblue" points="335.55,-140.71 341.33,-131.83 331.28,-135.17 335.55,-140.71"/>
</g>
<!-- Node10 -->
<g id="node10" class="node">
<title>Node10</title>
<g id="a_node10"><a xlink:href="Param_8hpp.html" target="_top" xlink:title=" ">
<polygon fill="none" stroke="black" points="628.78,-56.5 628.78,-75.5 696.78,-75.5 696.78,-56.5 628.78,-56.5"/>
<text text-anchor="middle" x="662.78" y="-63.5" font-family="Helvetica,sans-Serif" font-size="10.00">Param.hpp</text>
</a>
</g>
</g>
<!-- Node2&#45;&gt;Node10 -->
<g id="edge19" class="edge">
<title>Node2&#45;&gt;Node10</title>
<path fill="none" stroke="midnightblue" d="M312.29,-168.46C380.13,-148.82 547.23,-100.45 623.58,-78.35"/>
<polygon fill="midnightblue" stroke="midnightblue" points="624.67,-81.68 633.3,-75.53 622.72,-74.95 624.67,-81.68"/>
</g>
<!-- Node7&#45;&gt;Node3 -->
<g id="edge8" class="edge">
<title>Node7&#45;&gt;Node3</title>
<path fill="none" stroke="midnightblue" d="M352.78,-112.37C352.78,-94.62 352.78,-53.67 352.78,-29.6"/>
<polygon fill="midnightblue" stroke="midnightblue" points="356.28,-29.59 352.78,-19.59 349.28,-29.59 356.28,-29.59"/>
</g>
<!-- Node7&#45;&gt;Node4 -->
<g id="edge9" class="edge">
<title>Node7&#45;&gt;Node4</title>
<path fill="none" stroke="midnightblue" d="M344.2,-112.08C336.62,-104.22 325.41,-92.57 316.27,-83.08"/>
<polygon fill="midnightblue" stroke="midnightblue" points="318.67,-80.53 309.21,-75.75 313.63,-85.38 318.67,-80.53"/>
</g>
<!-- Node7&#45;&gt;Node5 -->
<g id="edge11" class="edge">
<title>Node7&#45;&gt;Node5</title>
<path fill="none" stroke="midnightblue" d="M312.65,-112.97C265.55,-103.55 187.3,-87.9 135.38,-77.52"/>
<polygon fill="midnightblue" stroke="midnightblue" points="135.86,-74.05 125.36,-75.52 134.48,-80.91 135.86,-74.05"/>
</g>
<!-- Node7&#45;&gt;Node6 -->
<g id="edge12" class="edge">
<title>Node7&#45;&gt;Node6</title>
<path fill="none" stroke="midnightblue" d="M330.12,-112.44C306.38,-103.48 268.87,-89.31 242.05,-79.18"/>
<polygon fill="midnightblue" stroke="midnightblue" points="242.93,-75.77 232.34,-75.52 240.46,-82.32 242.93,-75.77"/>
</g>
<!-- Node8 -->
<g id="node8" class="node">
<title>Node8</title>
<g id="a_node8"><a xlink:title=" ">
<polygon fill="none" stroke="#bfbfbf" points="380.78,-56.5 380.78,-75.5 436.78,-75.5 436.78,-56.5 380.78,-56.5"/>
<text text-anchor="middle" x="408.78" y="-63.5" font-family="Helvetica,sans-Serif" font-size="10.00">optional</text>
</a>
</g>
</g>
<!-- Node7&#45;&gt;Node8 -->
<g id="edge7" class="edge">
<title>Node7&#45;&gt;Node8</title>
<path fill="none" stroke="midnightblue" d="M361.78,-112.32C369.98,-104.42 382.29,-92.55 392.26,-82.94"/>
<polygon fill="midnightblue" stroke="midnightblue" points="394.85,-85.29 399.62,-75.83 389.99,-80.26 394.85,-85.29"/>
</g>
<!-- Node9 -->
<g id="node9" class="node">
<title>Node9</title>
<g id="a_node9"><a xlink:title=" ">
<polygon fill="none" stroke="#bfbfbf" points="454.78,-56.5 454.78,-75.5 572.78,-75.5 572.78,-56.5 454.78,-56.5"/>
<text text-anchor="middle" x="513.78" y="-63.5" font-family="Helvetica,sans-Serif" font-size="10.00">llvm/ADT/StringRef.h</text>
</a>
</g>
</g>
<!-- Node7&#45;&gt;Node9 -->
<g id="edge10" class="edge">
<title>Node7&#45;&gt;Node9</title>
<path fill="none" stroke="midnightblue" d="M378.29,-112.44C405.38,-103.36 448.37,-88.94 478.65,-78.78"/>
<polygon fill="midnightblue" stroke="midnightblue" points="480.02,-82.01 488.39,-75.52 477.8,-75.38 480.02,-82.01"/>
</g>
<!-- Node7&#45;&gt;Node10 -->
<g id="edge13" class="edge">
<title>Node7&#45;&gt;Node10</title>
<path fill="none" stroke="midnightblue" d="M392.99,-114C451.07,-103.88 558.05,-85.24 618.38,-74.73"/>
<polygon fill="midnightblue" stroke="midnightblue" points="619.12,-78.16 628.37,-73 617.92,-71.26 619.12,-78.16"/>
</g>
<!-- Node10&#45;&gt;Node3 -->
<g id="edge15" class="edge">
<title>Node10&#45;&gt;Node3</title>
<path fill="none" stroke="midnightblue" d="M628.72,-58.48C624.04,-57.63 619.3,-56.78 614.78,-56 515.9,-39 487.57,-41.85 384.91,-19.78"/>
<polygon fill="midnightblue" stroke="midnightblue" points="385.59,-16.34 375.08,-17.64 384.1,-23.18 385.59,-16.34"/>
</g>
<!-- Node11 -->
<g id="node11" class="node">
<title>Node11</title>
<g id="a_node11"><a xlink:title=" ">
<polygon fill="none" stroke="#bfbfbf" points="393.28,-0.5 393.28,-19.5 450.28,-19.5 450.28,-0.5 393.28,-0.5"/>
<text text-anchor="middle" x="421.78" y="-7.5" font-family="Helvetica,sans-Serif" font-size="10.00">ostream</text>
</a>
</g>
</g>
<!-- Node10&#45;&gt;Node11 -->
<g id="edge14" class="edge">
<title>Node10&#45;&gt;Node11</title>
<path fill="none" stroke="midnightblue" d="M628.63,-57.59C590.23,-49.22 525.76,-35.06 460.47,-20.13"/>
<polygon fill="midnightblue" stroke="midnightblue" points="460.94,-16.65 450.41,-17.83 459.37,-23.47 460.94,-16.65"/>
</g>
<!-- Node12 -->
<g id="node12" class="node">
<title>Node12</title>
<g id="a_node12"><a xlink:title=" ">
<polygon fill="none" stroke="#bfbfbf" points="468.78,-0.5 468.78,-19.5 566.78,-19.5 566.78,-0.5 468.78,-0.5"/>
<text text-anchor="middle" x="517.78" y="-7.5" font-family="Helvetica,sans-Serif" font-size="10.00">clang/AST/Decl.h</text>
</a>
</g>
</g>
<!-- Node10&#45;&gt;Node12 -->
<g id="edge16" class="edge">
<title>Node10&#45;&gt;Node12</title>
<path fill="none" stroke="midnightblue" d="M639.81,-56.44C615.63,-47.44 577.37,-33.19 550.14,-23.05"/>
<polygon fill="midnightblue" stroke="midnightblue" points="551.24,-19.73 540.65,-19.52 548.8,-26.29 551.24,-19.73"/>
</g>
<!-- Node13 -->
<g id="node13" class="node">
<title>Node13</title>
<g id="a_node13"><a xlink:title=" ">
<polygon fill="none" stroke="#bfbfbf" points="584.78,-0.5 584.78,-19.5 748.78,-19.5 748.78,-0.5 584.78,-0.5"/>
<text text-anchor="middle" x="666.78" y="-7.5" font-family="Helvetica,sans-Serif" font-size="10.00">clang/AST/DependenceFlags.h</text>
</a>
</g>
</g>
<!-- Node10&#45;&gt;Node13 -->
<g id="edge17" class="edge">
<title>Node10&#45;&gt;Node13</title>
<path fill="none" stroke="midnightblue" d="M663.44,-56.08C663.97,-49.01 664.72,-38.86 665.38,-29.99"/>
<polygon fill="midnightblue" stroke="midnightblue" points="668.89,-29.98 666.14,-19.75 661.91,-29.47 668.89,-29.98"/>
</g>
<!-- Node14 -->
<g id="node14" class="node">
<title>Node14</title>
<g id="a_node14"><a xlink:title=" ">
<polygon fill="none" stroke="#bfbfbf" points="767.28,-0.5 767.28,-19.5 904.28,-19.5 904.28,-0.5 767.28,-0.5"/>
<text text-anchor="middle" x="835.78" y="-7.5" font-family="Helvetica,sans-Serif" font-size="10.00">clang/AST/PrettyPrinter.h</text>
</a>
</g>
</g>
<!-- Node10&#45;&gt;Node14 -->
<g id="edge18" class="edge">
<title>Node10&#45;&gt;Node14</title>
<path fill="none" stroke="midnightblue" d="M690.2,-56.44C719.55,-47.28 766.3,-32.69 798.88,-22.52"/>
<polygon fill="midnightblue" stroke="midnightblue" points="800,-25.84 808.5,-19.52 797.91,-19.16 800,-25.84"/>
</g>
<!-- Node16&#45;&gt;Node3 -->
<g id="edge23" class="edge">
<title>Node16&#45;&gt;Node3</title>
<path fill="none" stroke="midnightblue" d="M600.94,-112.36C600.7,-98.32 598.03,-70.64 581.78,-56 518,1.5 474.63,-37.13 385.07,-19.7"/>
<polygon fill="midnightblue" stroke="midnightblue" points="385.61,-16.23 375.09,-17.56 384.14,-23.08 385.61,-16.23"/>
</g>
<!-- Node16&#45;&gt;Node4 -->
<g id="edge24" class="edge">
<title>Node16&#45;&gt;Node4</title>
<path fill="none" stroke="midnightblue" d="M564,-114.38C505.23,-103.8 391.02,-83.24 334.35,-73.04"/>
<polygon fill="midnightblue" stroke="midnightblue" points="334.93,-69.59 324.47,-71.26 333.69,-76.48 334.93,-69.59"/>
</g>
<!-- Node16&#45;&gt;Node10 -->
<g id="edge26" class="edge">
<title>Node16&#45;&gt;Node10</title>
<path fill="none" stroke="midnightblue" d="M610.75,-112.32C619.91,-104.34 633.72,-92.31 644.81,-82.65"/>
<polygon fill="midnightblue" stroke="midnightblue" points="647.4,-85.04 652.64,-75.83 642.8,-79.76 647.4,-85.04"/>
</g>
<!-- Node16&#45;&gt;Node14 -->
<g id="edge25" class="edge">
<title>Node16&#45;&gt;Node14</title>
<path fill="none" stroke="midnightblue" d="M621.86,-112.39C643.18,-103.59 677,-89.35 705.78,-76 742.52,-58.96 784.29,-37.74 810.34,-24.27"/>
<polygon fill="midnightblue" stroke="midnightblue" points="812.25,-27.23 819.52,-19.52 809.03,-21.02 812.25,-27.23"/>
</g>
</g>
</svg>
