<?xml version="1.0" encoding="UTF-8" standalone="no"?>
<!DOCTYPE svg PUBLIC "-//W3C//DTD SVG 1.1//EN"
 "http://www.w3.org/Graphics/SVG/1.1/DTD/svg11.dtd">
<!-- Generated by graphviz version 2.43.0 (0)
 -->
<!-- Title: include/TemplateArgument.hpp Pages: 1 -->
<svg width="954pt" height="203pt"
 viewBox="0.00 0.00 953.50 203.00" xmlns="http://www.w3.org/2000/svg" xmlns:xlink="http://www.w3.org/1999/xlink">
<g id="graph0" class="graph" transform="scale(1 1) rotate(0) translate(4 199)">
<title>include/TemplateArgument.hpp</title>
<!-- Node1 -->
<g id="Node000001" class="node">
<title>Node1</title>
<g id="a_Node000001"><a xlink:title=" ">
<polygon fill="#999999" stroke="#666666" points="831.5,-195 662.5,-195 662.5,-176 831.5,-176 831.5,-195"/>
<text text-anchor="middle" x="747" y="-183" font-family="Helvetica,sans-Serif" font-size="10.00">include/TemplateArgument.hpp</text>
</a>
</g>
</g>
<!-- Node2 -->
<g id="Node000002" class="node">
<title>Node2</title>
<g id="a_Node000002"><a xlink:href="Injection_8hpp.html" target="_top" xlink:title=" ">
<polygon fill="white" stroke="#666666" points="519,-140 401,-140 401,-121 519,-121 519,-140"/>
<text text-anchor="middle" x="460" y="-128" font-family="Helvetica,sans-Serif" font-size="10.00">include/Injection.hpp</text>
</a>
</g>
</g>
<!-- Node1&#45;&gt;Node2 -->
<g id="edge1_Node000001_Node000002" class="edge">
<title>Node1&#45;&gt;Node2</title>
<g id="a_edge1_Node000001_Node000002"><a xlink:title=" ">
<path fill="none" stroke="#63b8ff" d="M690.83,-174.13C637.02,-164.19 556.78,-149.37 506.47,-140.08"/>
<polygon fill="#63b8ff" stroke="#63b8ff" points="690.42,-177.61 700.89,-175.98 691.69,-170.73 690.42,-177.61"/>
</a>
</g>
</g>
<!-- Node8 -->
<g id="Node000008" class="node">
<title>Node8</title>
<g id="a_Node000008"><a xlink:href="Template_8hpp.html" target="_top" xlink:title=" ">
<polygon fill="white" stroke="#666666" points="741.5,-79.5 620.5,-79.5 620.5,-60.5 741.5,-60.5 741.5,-79.5"/>
<text text-anchor="middle" x="681" y="-67.5" font-family="Helvetica,sans-Serif" font-size="10.00">include/Template.hpp</text>
</a>
</g>
</g>
<!-- Node1&#45;&gt;Node8 -->
<g id="edge16_Node000001_Node000008" class="edge">
<title>Node1&#45;&gt;Node8</title>
<g id="a_edge16_Node000001_Node000008"><a xlink:title=" ">
<path fill="none" stroke="#63b8ff" d="M737.01,-167.32C722.69,-142.69 696.87,-98.29 686.02,-79.63"/>
<polygon fill="#63b8ff" stroke="#63b8ff" points="733.99,-169.08 742.04,-175.97 740.04,-165.56 733.99,-169.08"/>
</a>
</g>
</g>
<!-- Node9 -->
<g id="Node000009" class="node">
<title>Node9</title>
<g id="a_Node000009"><a xlink:href="Template_8cpp.html" target="_top" xlink:title=" ">
<polygon fill="white" stroke="#666666" points="753.5,-19 654.5,-19 654.5,0 753.5,0 753.5,-19"/>
<text text-anchor="middle" x="704" y="-7" font-family="Helvetica,sans-Serif" font-size="10.00">src/Template.cpp</text>
</a>
</g>
</g>
<!-- Node1&#45;&gt;Node9 -->
<g id="edge17_Node000001_Node000009" class="edge">
<title>Node1&#45;&gt;Node9</title>
<g id="a_edge17_Node000001_Node000009"><a xlink:title=" ">
<path fill="none" stroke="#63b8ff" d="M752.05,-165.89C758.1,-139.91 765.6,-91.79 750,-55 743.49,-39.65 728.82,-27.01 717.78,-19.18"/>
<polygon fill="#63b8ff" stroke="#63b8ff" points="748.58,-165.32 749.54,-175.87 755.37,-167.03 748.58,-165.32"/>
</a>
</g>
</g>
<!-- Node11 -->
<g id="Node000011" class="node">
<title>Node11</title>
<g id="a_Node000011"><a xlink:href="TemplateArgument_8cpp.html" target="_top" xlink:title=" ">
<polygon fill="white" stroke="#666666" points="945.5,-140 798.5,-140 798.5,-121 945.5,-121 945.5,-140"/>
<text text-anchor="middle" x="872" y="-128" font-family="Helvetica,sans-Serif" font-size="10.00">src/TemplateArgument.cpp</text>
</a>
</g>
</g>
<!-- Node1&#45;&gt;Node11 -->
<g id="edge18_Node000001_Node000011" class="edge">
<title>Node1&#45;&gt;Node11</title>
<g id="a_edge18_Node000001_Node000011"><a xlink:title=" ">
<path fill="none" stroke="#63b8ff" d="M776.41,-172.03C799.53,-162.23 831.13,-148.83 851.55,-140.17"/>
<polygon fill="#63b8ff" stroke="#63b8ff" points="774.92,-168.86 767.08,-175.98 777.66,-175.3 774.92,-168.86"/>
</a>
</g>
</g>
<!-- Node3 -->
<g id="Node000003" class="node">
<title>Node3</title>
<g id="a_Node000003"><a xlink:href="Instantiator_8cpp.html" target="_top" xlink:title=" ">
<polygon fill="white" stroke="#666666" points="412,-19 320,-19 320,0 412,0 412,-19"/>
<text text-anchor="middle" x="366" y="-7" font-family="Helvetica,sans-Serif" font-size="10.00">Instantiator.cpp</text>
</a>
</g>
</g>
<!-- Node2&#45;&gt;Node3 -->
<g id="edge2_Node000002_Node000003" class="edge">
<title>Node2&#45;&gt;Node3</title>
<g id="a_edge2_Node000002_Node000003"><a xlink:title=" ">
<path fill="none" stroke="#63b8ff" d="M426.56,-116.68C411.81,-109.46 395.49,-99.02 385,-85 369.96,-64.91 366.77,-34.15 366.13,-19.22"/>
<polygon fill="#63b8ff" stroke="#63b8ff" points="425.39,-120 435.94,-120.97 428.3,-113.63 425.39,-120"/>
</a>
</g>
</g>
<!-- Node4 -->
<g id="Node000004" class="node">
<title>Node4</title>
<g id="a_Node000004"><a xlink:href="GetNeededInstantiations_8hpp.html" target="_top" xlink:title=" ">
<polygon fill="white" stroke="#666666" points="338,-85 178,-85 178,-55 338,-55 338,-85"/>
<text text-anchor="start" x="186" y="-73" font-family="Helvetica,sans-Serif" font-size="10.00">include/Callbacks/GetNeeded</text>
<text text-anchor="middle" x="258" y="-62" font-family="Helvetica,sans-Serif" font-size="10.00">Instantiations.hpp</text>
</a>
</g>
</g>
<!-- Node2&#45;&gt;Node4 -->
<g id="edge3_Node000002_Node000004" class="edge">
<title>Node2&#45;&gt;Node4</title>
<g id="a_edge3_Node000002_Node000004"><a xlink:title=" ">
<path fill="none" stroke="#63b8ff" d="M420.98,-118.2C388.34,-108.75 341.62,-95.22 306.56,-85.06"/>
<polygon fill="#63b8ff" stroke="#63b8ff" points="420.05,-121.57 430.63,-120.99 422,-114.85 420.05,-121.57"/>
</a>
</g>
</g>
<!-- Node5 -->
<g id="Node000005" class="node">
<title>Node5</title>
<g id="a_Node000005"><a xlink:href="GetNeededInstantiations_8cpp.html" target="_top" xlink:title=" ">
<polygon fill="white" stroke="#666666" points="226,-19 0,-19 0,0 226,0 226,-19"/>
<text text-anchor="middle" x="113" y="-7" font-family="Helvetica,sans-Serif" font-size="10.00">src/Callbacks/GetNeededInstantiations.cpp</text>
</a>
</g>
</g>
<!-- Node2&#45;&gt;Node5 -->
<g id="edge12_Node000002_Node000005" class="edge">
<title>Node2&#45;&gt;Node5</title>
<g id="a_edge12_Node000002_Node000005"><a xlink:title=" ">
<path fill="none" stroke="#63b8ff" d="M390.97,-126.85C281.21,-121.91 76.97,-109.52 55,-85 46.1,-75.07 49.1,-66.96 55,-55 63.14,-38.5 80.67,-26.41 94.33,-19.03"/>
<polygon fill="#63b8ff" stroke="#63b8ff" points="390.82,-130.34 400.97,-127.29 391.13,-123.35 390.82,-130.34"/>
</a>
</g>
</g>
<!-- Node6 -->
<g id="Node000006" class="node">
<title>Node6</title>
<g id="a_Node000006"><a xlink:href="InjectInstantiation_8hpp.html" target="_top" xlink:title=" ">
<polygon fill="white" stroke="#666666" points="526,-85 394,-85 394,-55 526,-55 526,-85"/>
<text text-anchor="start" x="402" y="-73" font-family="Helvetica,sans-Serif" font-size="10.00">include/Callbacks/Inject</text>
<text text-anchor="middle" x="460" y="-62" font-family="Helvetica,sans-Serif" font-size="10.00">Instantiation.hpp</text>
</a>
</g>
</g>
<!-- Node2&#45;&gt;Node6 -->
<g id="edge6_Node000002_Node000006" class="edge">
<title>Node2&#45;&gt;Node6</title>
<g id="a_edge6_Node000002_Node000006"><a xlink:title=" ">
<path fill="none" stroke="#63b8ff" d="M460,-110.65C460,-102.36 460,-92.78 460,-85.11"/>
<polygon fill="#63b8ff" stroke="#63b8ff" points="456.5,-110.87 460,-120.87 463.5,-110.87 456.5,-110.87"/>
</a>
</g>
</g>
<!-- Node7 -->
<g id="Node000007" class="node">
<title>Node7</title>
<g id="a_Node000007"><a xlink:href="InjectInstantiation_8cpp.html" target="_top" xlink:title=" ">
<polygon fill="white" stroke="#666666" points="636.5,-19 443.5,-19 443.5,0 636.5,0 636.5,-19"/>
<text text-anchor="middle" x="540" y="-7" font-family="Helvetica,sans-Serif" font-size="10.00">src/Callbacks/InjectInstantiation.cpp</text>
</a>
</g>
</g>
<!-- Node2&#45;&gt;Node7 -->
<g id="edge13_Node000002_Node000007" class="edge">
<title>Node2&#45;&gt;Node7</title>
<g id="a_edge13_Node000002_Node000007"><a xlink:title=" ">
<path fill="none" stroke="#63b8ff" d="M496.24,-116.73C510.78,-109.69 526.15,-99.39 535,-85 547.76,-64.24 544.48,-33.79 541.83,-19.08"/>
<polygon fill="#63b8ff" stroke="#63b8ff" points="494.59,-113.63 486.88,-120.9 497.44,-120.03 494.59,-113.63"/>
</a>
</g>
</g>
<!-- Node2&#45;&gt;Node8 -->
<g id="edge9_Node000002_Node000008" class="edge">
<title>Node2&#45;&gt;Node8</title>
<g id="a_edge9_Node000002_Node000008"><a xlink:title=" ">
<path fill="none" stroke="#63b8ff" d="M501.95,-118.4C544.68,-107.08 610.02,-89.79 648.83,-79.52"/>
<polygon fill="#63b8ff" stroke="#63b8ff" points="500.91,-115.05 492.14,-120.99 502.7,-121.82 500.91,-115.05"/>
</a>
</g>
</g>
<!-- Node2&#45;&gt;Node9 -->
<g id="edge15_Node000002_Node000009" class="edge">
<title>Node2&#45;&gt;Node9</title>
<g id="a_edge15_Node000002_Node000009"><a xlink:title=" ">
<path fill="none" stroke="#63b8ff" d="M488.02,-116.62C506.78,-107.89 531.99,-95.99 554,-85 579.61,-72.21 585.42,-67.85 611,-55 636.59,-42.15 666.52,-27.98 685.37,-19.16"/>
<polygon fill="#63b8ff" stroke="#63b8ff" points="486.44,-113.49 478.84,-120.87 489.38,-119.84 486.44,-113.49"/>
</a>
</g>
</g>
<!-- Node10 -->
<g id="Node000010" class="node">
<title>Node10</title>
<g id="a_Node000010"><a xlink:href="Injection_8cpp.html" target="_top" xlink:title=" ">
<polygon fill="white" stroke="#666666" points="160,-79.5 64,-79.5 64,-60.5 160,-60.5 160,-79.5"/>
<text text-anchor="middle" x="112" y="-67.5" font-family="Helvetica,sans-Serif" font-size="10.00">src/Injection.cpp</text>
</a>
</g>
</g>
<!-- Node2&#45;&gt;Node10 -->
<g id="edge14_Node000002_Node000010" class="edge">
<title>Node2&#45;&gt;Node10</title>
<g id="a_edge14_Node000002_Node000010"><a xlink:title=" ">
<path fill="none" stroke="#63b8ff" d="M390.95,-120.71C331.8,-112.75 244.46,-100.01 169,-85 161.1,-83.43 152.65,-81.5 144.74,-79.57"/>
<polygon fill="#63b8ff" stroke="#63b8ff" points="390.55,-124.18 400.93,-122.04 391.48,-117.25 390.55,-124.18"/>
</a>
</g>
</g>
<!-- Node4&#45;&gt;Node3 -->
<g id="edge4_Node000004_Node000003" class="edge">
<title>Node4&#45;&gt;Node3</title>
<g id="a_edge4_Node000004_Node000003"><a xlink:title=" ">
<path fill="none" stroke="#63b8ff" d="M292.69,-50.21C311.96,-39.77 335.01,-27.29 350.05,-19.14"/>
<polygon fill="#63b8ff" stroke="#63b8ff" points="290.99,-47.15 283.87,-54.99 294.33,-53.3 290.99,-47.15"/>
</a>
</g>
</g>
<!-- Node4&#45;&gt;Node5 -->
<g id="edge5_Node000004_Node000005" class="edge">
<title>Node4&#45;&gt;Node5</title>
<g id="a_edge5_Node000004_Node000005"><a xlink:title=" ">
<path fill="none" stroke="#63b8ff" d="M213.86,-51.19C187.52,-40.57 155.25,-27.54 134.41,-19.14"/>
<polygon fill="#63b8ff" stroke="#63b8ff" points="212.69,-54.49 223.27,-54.99 215.3,-48 212.69,-54.49"/>
</a>
</g>
</g>
<!-- Node6&#45;&gt;Node3 -->
<g id="edge7_Node000006_Node000003" class="edge">
<title>Node6&#45;&gt;Node3</title>
<g id="a_edge7_Node000006_Node000003"><a xlink:title=" ">
<path fill="none" stroke="#63b8ff" d="M428.43,-49.35C411.91,-39.07 392.54,-27.02 379.81,-19.09"/>
<polygon fill="#63b8ff" stroke="#63b8ff" points="426.91,-52.53 437.25,-54.84 430.6,-46.58 426.91,-52.53"/>
</a>
</g>
</g>
<!-- Node6&#45;&gt;Node7 -->
<g id="edge8_Node000006_Node000007" class="edge">
<title>Node6&#45;&gt;Node7</title>
<g id="a_edge8_Node000006_Node000007"><a xlink:title=" ">
<path fill="none" stroke="#63b8ff" d="M487.6,-48.82C501.39,-38.73 517.36,-27.05 528.01,-19.27"/>
<polygon fill="#63b8ff" stroke="#63b8ff" points="485.37,-46.11 479.37,-54.84 489.5,-51.76 485.37,-46.11"/>
</a>
</g>
</g>
<!-- Node8&#45;&gt;Node7 -->
<g id="edge10_Node000008_Node000007" class="edge">
<title>Node8&#45;&gt;Node7</title>
<g id="a_edge10_Node000008_Node000007"><a xlink:title=" ">
<path fill="none" stroke="#63b8ff" d="M651.07,-56.58C623.83,-45.28 584.35,-28.9 560.53,-19.02"/>
<polygon fill="#63b8ff" stroke="#63b8ff" points="649.92,-59.89 660.5,-60.49 652.6,-53.43 649.92,-59.89"/>
</a>
</g>
</g>
<!-- Node8&#45;&gt;Node9 -->
<g id="edge11_Node000008_Node000009" class="edge">
<title>Node8&#45;&gt;Node9</title>
<g id="a_edge11_Node000008_Node000009"><a xlink:title=" ">
<path fill="none" stroke="#63b8ff" d="M688.15,-50.82C692.29,-40.28 697.33,-27.48 700.59,-19.17"/>
<polygon fill="#63b8ff" stroke="#63b8ff" points="684.8,-49.78 684.39,-60.37 691.31,-52.34 684.8,-49.78"/>
</a>
</g>
</g>
</g>
</svg>
