<?xml version="1.0" encoding="UTF-8" standalone="no"?>
<!DOCTYPE svg PUBLIC "-//W3C//DTD SVG 1.1//EN"
 "http://www.w3.org/Graphics/SVG/1.1/DTD/svg11.dtd">
<!-- Generated by graphviz version 2.43.0 (0)
 -->
<!-- Title: include/Template.hpp Pages: 1 -->
<svg width="694pt" height="196pt"
 viewBox="0.00 0.00 693.50 196.00" xmlns="http://www.w3.org/2000/svg" xmlns:xlink="http://www.w3.org/1999/xlink">
<g id="graph0" class="graph" transform="scale(1 1) rotate(0) translate(4 192)">
<title>include/Template.hpp</title>
<!-- Node1 -->
<g id="node1" class="node">
<title>Node1</title>
<g id="a_node1"><a xlink:title=" ">
<polygon fill="#bfbfbf" stroke="black" points="171.5,-168.5 171.5,-187.5 292.5,-187.5 292.5,-168.5 171.5,-168.5"/>
<text text-anchor="middle" x="232" y="-175.5" font-family="Helvetica,sans-Serif" font-size="10.00">include/Template.hpp</text>
</a>
</g>
</g>
<!-- Node2 -->
<g id="node2" class="node">
<title>Node2</title>
<g id="a_node2"><a xlink:title=" ">
<polygon fill="none" stroke="#bfbfbf" points="0,-0.5 0,-19.5 44,-19.5 44,-0.5 0,-0.5"/>
<text text-anchor="middle" x="22" y="-7.5" font-family="Helvetica,sans-Serif" font-size="10.00">string</text>
</a>
</g>
</g>
<!-- Node1&#45;&gt;Node2 -->
<g id="edge1" class="edge">
<title>Node1&#45;&gt;Node2</title>
<path fill="none" stroke="midnightblue" d="M197.42,-168.45C153.82,-155.82 79.76,-127.86 40,-76 29.77,-62.66 25.35,-43.83 23.45,-29.87"/>
<polygon fill="midnightblue" stroke="midnightblue" points="26.92,-29.49 22.39,-19.91 19.96,-30.23 26.92,-29.49"/>
</g>
<!-- Node3 -->
<g id="node3" class="node">
<title>Node3</title>
<g id="a_node3"><a xlink:title=" ">
<polygon fill="none" stroke="#bfbfbf" points="49.5,-56.5 49.5,-75.5 96.5,-75.5 96.5,-56.5 49.5,-56.5"/>
<text text-anchor="middle" x="73" y="-63.5" font-family="Helvetica,sans-Serif" font-size="10.00">vector</text>
</a>
</g>
</g>
<!-- Node1&#45;&gt;Node3 -->
<g id="edge2" class="edge">
<title>Node1&#45;&gt;Node3</title>
<path fill="none" stroke="midnightblue" d="M219.52,-168.37C192.36,-149.57 127.59,-104.77 94.01,-81.53"/>
<polygon fill="midnightblue" stroke="midnightblue" points="95.63,-78.4 85.42,-75.59 91.65,-84.16 95.63,-78.4"/>
</g>
<!-- Node4 -->
<g id="node4" class="node">
<title>Node4</title>
<g id="a_node4"><a xlink:title=" ">
<polygon fill="none" stroke="#bfbfbf" points="449.5,-56.5 449.5,-75.5 568.5,-75.5 568.5,-56.5 449.5,-56.5"/>
<text text-anchor="middle" x="509" y="-63.5" font-family="Helvetica,sans-Serif" font-size="10.00">clang/AST/DeclCXX.h</text>
</a>
</g>
</g>
<!-- Node1&#45;&gt;Node4 -->
<g id="edge3" class="edge">
<title>Node1&#45;&gt;Node4</title>
<path fill="none" stroke="midnightblue" d="M253.74,-168.37C302.58,-148.97 421.19,-101.87 477.86,-79.37"/>
<polygon fill="midnightblue" stroke="midnightblue" points="479.36,-82.54 487.37,-75.59 476.78,-76.03 479.36,-82.54"/>
</g>
<!-- Node5 -->
<g id="node5" class="node">
<title>Node5</title>
<g id="a_node5"><a xlink:title=" ">
<polygon fill="none" stroke="#bfbfbf" points="586.5,-56.5 586.5,-75.5 685.5,-75.5 685.5,-56.5 586.5,-56.5"/>
<text text-anchor="middle" x="636" y="-63.5" font-family="Helvetica,sans-Serif" font-size="10.00">clang/AST/Type.h</text>
</a>
</g>
</g>
<!-- Node1&#45;&gt;Node5 -->
<g id="edge4" class="edge">
<title>Node1&#45;&gt;Node5</title>
<path fill="none" stroke="midnightblue" d="M263.37,-168.46C335.64,-148.78 513.87,-100.25 594.82,-78.21"/>
<polygon fill="midnightblue" stroke="midnightblue" points="595.93,-81.54 604.65,-75.53 594.09,-74.78 595.93,-81.54"/>
</g>
<!-- Node6 -->
<g id="node6" class="node">
<title>Node6</title>
<g id="a_node6"><a xlink:href="Injection_8hpp.html" target="_top" xlink:title=" ">
<polygon fill="none" stroke="black" points="247,-112.5 247,-131.5 327,-131.5 327,-112.5 247,-112.5"/>
<text text-anchor="middle" x="287" y="-119.5" font-family="Helvetica,sans-Serif" font-size="10.00">Injection.hpp</text>
</a>
</g>
</g>
<!-- Node1&#45;&gt;Node6 -->
<g id="edge5" class="edge">
<title>Node1&#45;&gt;Node6</title>
<path fill="none" stroke="midnightblue" d="M241.08,-168.08C249.17,-160.14 261.2,-148.34 270.91,-138.8"/>
<polygon fill="midnightblue" stroke="midnightblue" points="273.4,-141.25 278.09,-131.75 268.5,-136.26 273.4,-141.25"/>
</g>
<!-- Node9 -->
<g id="node9" class="node">
<title>Node9</title>
<g id="a_node9"><a xlink:href="Param_8hpp.html" target="_top" xlink:title=" ">
<polygon fill="none" stroke="black" points="153,-56.5 153,-75.5 221,-75.5 221,-56.5 153,-56.5"/>
<text text-anchor="middle" x="187" y="-63.5" font-family="Helvetica,sans-Serif" font-size="10.00">Param.hpp</text>
</a>
</g>
</g>
<!-- Node1&#45;&gt;Node9 -->
<g id="edge18" class="edge">
<title>Node1&#45;&gt;Node9</title>
<path fill="none" stroke="midnightblue" d="M228.47,-168.37C221.14,-150.46 204.15,-108.92 194.34,-84.95"/>
<polygon fill="midnightblue" stroke="midnightblue" points="197.54,-83.52 190.51,-75.59 191.06,-86.17 197.54,-83.52"/>
</g>
<!-- Node6&#45;&gt;Node2 -->
<g id="edge7" class="edge">
<title>Node6&#45;&gt;Node2</title>
<path fill="none" stroke="midnightblue" d="M254.01,-112.49C224.63,-104.47 180.72,-91.4 144,-76 134.18,-71.88 79.34,-42.23 46.62,-24.43"/>
<polygon fill="midnightblue" stroke="midnightblue" points="48.1,-21.25 37.64,-19.54 44.75,-27.4 48.1,-21.25"/>
</g>
<!-- Node6&#45;&gt;Node3 -->
<g id="edge8" class="edge">
<title>Node6&#45;&gt;Node3</title>
<path fill="none" stroke="midnightblue" d="M253.09,-112.44C212.87,-102.29 146.25,-85.48 106.3,-75.4"/>
<polygon fill="midnightblue" stroke="midnightblue" points="107.06,-71.98 96.5,-72.93 105.34,-78.77 107.06,-71.98"/>
</g>
<!-- Node6&#45;&gt;Node4 -->
<g id="edge10" class="edge">
<title>Node6&#45;&gt;Node4</title>
<path fill="none" stroke="midnightblue" d="M322.18,-112.44C360.58,-103.1 422.18,-88.12 464.06,-77.93"/>
<polygon fill="midnightblue" stroke="midnightblue" points="465.1,-81.28 473.99,-75.52 463.44,-74.48 465.1,-81.28"/>
</g>
<!-- Node6&#45;&gt;Node5 -->
<g id="edge11" class="edge">
<title>Node6&#45;&gt;Node5</title>
<path fill="none" stroke="midnightblue" d="M327.01,-114.82C381.19,-106.45 481.19,-90.99 576.25,-76.27"/>
<polygon fill="midnightblue" stroke="midnightblue" points="576.98,-79.7 586.33,-74.71 575.91,-72.78 576.98,-79.7"/>
</g>
<!-- Node7 -->
<g id="node7" class="node">
<title>Node7</title>
<g id="a_node7"><a xlink:title=" ">
<polygon fill="none" stroke="#bfbfbf" points="375,-56.5 375,-75.5 431,-75.5 431,-56.5 375,-56.5"/>
<text text-anchor="middle" x="403" y="-63.5" font-family="Helvetica,sans-Serif" font-size="10.00">optional</text>
</a>
</g>
</g>
<!-- Node6&#45;&gt;Node7 -->
<g id="edge6" class="edge">
<title>Node6&#45;&gt;Node7</title>
<path fill="none" stroke="midnightblue" d="M305.38,-112.44C324.22,-103.68 353.73,-89.94 375.38,-79.86"/>
<polygon fill="midnightblue" stroke="midnightblue" points="377.12,-82.91 384.71,-75.52 374.16,-76.56 377.12,-82.91"/>
</g>
<!-- Node8 -->
<g id="node8" class="node">
<title>Node8</title>
<g id="a_node8"><a xlink:title=" ">
<polygon fill="none" stroke="#bfbfbf" points="239,-56.5 239,-75.5 357,-75.5 357,-56.5 239,-56.5"/>
<text text-anchor="middle" x="298" y="-63.5" font-family="Helvetica,sans-Serif" font-size="10.00">llvm/ADT/StringRef.h</text>
</a>
</g>
</g>
<!-- Node6&#45;&gt;Node8 -->
<g id="edge9" class="edge">
<title>Node6&#45;&gt;Node8</title>
<path fill="none" stroke="midnightblue" d="M288.82,-112.08C290.27,-104.93 292.37,-94.64 294.19,-85.69"/>
<polygon fill="midnightblue" stroke="midnightblue" points="297.65,-86.25 296.22,-75.75 290.79,-84.85 297.65,-86.25"/>
</g>
<!-- Node6&#45;&gt;Node9 -->
<g id="edge12" class="edge">
<title>Node6&#45;&gt;Node9</title>
<path fill="none" stroke="midnightblue" d="M270.93,-112.32C255.04,-103.74 230.49,-90.49 212.04,-80.52"/>
<polygon fill="midnightblue" stroke="midnightblue" points="213.49,-77.33 203.03,-75.65 210.16,-83.49 213.49,-77.33"/>
</g>
<!-- Node9&#45;&gt;Node2 -->
<g id="edge14" class="edge">
<title>Node9&#45;&gt;Node2</title>
<path fill="none" stroke="midnightblue" d="M160.86,-56.44C131.75,-46.92 84.71,-31.52 53.57,-21.33"/>
<polygon fill="midnightblue" stroke="midnightblue" points="54.65,-18 44.06,-18.22 52.48,-24.66 54.65,-18"/>
</g>
<!-- Node10 -->
<g id="node10" class="node">
<title>Node10</title>
<g id="a_node10"><a xlink:title=" ">
<polygon fill="none" stroke="#bfbfbf" points="62.5,-0.5 62.5,-19.5 119.5,-19.5 119.5,-0.5 62.5,-0.5"/>
<text text-anchor="middle" x="91" y="-7.5" font-family="Helvetica,sans-Serif" font-size="10.00">ostream</text>
</a>
</g>
</g>
<!-- Node9&#45;&gt;Node10 -->
<g id="edge13" class="edge">
<title>Node9&#45;&gt;Node10</title>
<path fill="none" stroke="midnightblue" d="M171.58,-56.32C156.46,-47.82 133.18,-34.73 115.53,-24.8"/>
<polygon fill="midnightblue" stroke="midnightblue" points="116.82,-21.51 106.39,-19.65 113.39,-27.61 116.82,-21.51"/>
</g>
<!-- Node11 -->
<g id="node11" class="node">
<title>Node11</title>
<g id="a_node11"><a xlink:title=" ">
<polygon fill="none" stroke="#bfbfbf" points="138,-0.5 138,-19.5 236,-19.5 236,-0.5 138,-0.5"/>
<text text-anchor="middle" x="187" y="-7.5" font-family="Helvetica,sans-Serif" font-size="10.00">clang/AST/Decl.h</text>
</a>
</g>
</g>
<!-- Node9&#45;&gt;Node11 -->
<g id="edge15" class="edge">
<title>Node9&#45;&gt;Node11</title>
<path fill="none" stroke="midnightblue" d="M187,-56.08C187,-49.01 187,-38.86 187,-29.99"/>
<polygon fill="midnightblue" stroke="midnightblue" points="190.5,-29.75 187,-19.75 183.5,-29.75 190.5,-29.75"/>
</g>
<!-- Node12 -->
<g id="node12" class="node">
<title>Node12</title>
<g id="a_node12"><a xlink:title=" ">
<polygon fill="none" stroke="#bfbfbf" points="254,-0.5 254,-19.5 418,-19.5 418,-0.5 254,-0.5"/>
<text text-anchor="middle" x="336" y="-7.5" font-family="Helvetica,sans-Serif" font-size="10.00">clang/AST/DependenceFlags.h</text>
</a>
</g>
</g>
<!-- Node9&#45;&gt;Node12 -->
<g id="edge16" class="edge">
<title>Node9&#45;&gt;Node12</title>
<path fill="none" stroke="midnightblue" d="M210.61,-56.44C235.46,-47.44 274.77,-33.19 302.75,-23.05"/>
<polygon fill="midnightblue" stroke="midnightblue" points="304.29,-26.21 312.5,-19.52 301.91,-19.63 304.29,-26.21"/>
</g>
<!-- Node13 -->
<g id="node13" class="node">
<title>Node13</title>
<g id="a_node13"><a xlink:title=" ">
<polygon fill="none" stroke="#bfbfbf" points="436.5,-0.5 436.5,-19.5 573.5,-19.5 573.5,-0.5 436.5,-0.5"/>
<text text-anchor="middle" x="505" y="-7.5" font-family="Helvetica,sans-Serif" font-size="10.00">clang/AST/PrettyPrinter.h</text>
</a>
</g>
</g>
<!-- Node9&#45;&gt;Node13 -->
<g id="edge17" class="edge">
<title>Node9&#45;&gt;Node13</title>
<path fill="none" stroke="midnightblue" d="M221.24,-57.69C224.2,-57.1 227.15,-56.53 230,-56 300.85,-42.79 382.37,-29.72 438.15,-21.09"/>
<polygon fill="midnightblue" stroke="midnightblue" points="438.9,-24.52 448.25,-19.54 437.84,-17.6 438.9,-24.52"/>
</g>
</g>
</svg>
