<?xml version="1.0" encoding="UTF-8" standalone="no"?>
<!DOCTYPE svg PUBLIC "-//W3C//DTD SVG 1.1//EN"
 "http://www.w3.org/Graphics/SVG/1.1/DTD/svg11.dtd">
<!-- Generated by graphviz version 2.43.0 (0)
 -->
<!-- Title: src/TemplateArgument.cpp Pages: 1 -->
<svg width="1185pt" height="137pt"
 viewBox="0.00 0.00 1185.00 137.00" xmlns="http://www.w3.org/2000/svg" xmlns:xlink="http://www.w3.org/1999/xlink">
<g id="graph0" class="graph" transform="scale(1 1) rotate(0) translate(4 133)">
<title>src/TemplateArgument.cpp</title>
<!-- Node1 -->
<g id="Node000001" class="node">
<title>Node1</title>
<g id="a_Node000001"><a xlink:title=" ">
<polygon fill="#999999" stroke="#666666" points="701.5,-129 554.5,-129 554.5,-110 701.5,-110 701.5,-129"/>
<text text-anchor="middle" x="628" y="-117" font-family="Helvetica,sans-Serif" font-size="10.00">src/TemplateArgument.cpp</text>
</a>
</g>
</g>
<!-- Node2 -->
<g id="Node000002" class="node">
<title>Node2</title>
<g id="a_Node000002"><a xlink:href="TemplateArgument_8hpp.html" target="_top" xlink:title=" ">
<polygon fill="white" stroke="#666666" points="288.5,-74 157.5,-74 157.5,-55 288.5,-55 288.5,-74"/>
<text text-anchor="middle" x="223" y="-62" font-family="Helvetica,sans-Serif" font-size="10.00">TemplateArgument.hpp</text>
</a>
</g>
</g>
<!-- Node1&#45;&gt;Node2 -->
<g id="edge1_Node000001_Node000002" class="edge">
<title>Node1&#45;&gt;Node2</title>
<g id="a_edge1_Node000001_Node000002"><a xlink:title=" ">
<path fill="none" stroke="#63b8ff" d="M562.93,-109.98C490.71,-100.53 374.32,-85.3 298.24,-75.35"/>
<polygon fill="#63b8ff" stroke="#63b8ff" points="298.61,-71.87 288.24,-74.04 297.71,-78.81 298.61,-71.87"/>
</a>
</g>
</g>
<!-- Node3 -->
<g id="Node000003" class="node">
<title>Node3</title>
<g id="a_Node000003"><a xlink:title=" ">
<polygon fill="#e0e0e0" stroke="#999999" points="146,-19 0,-19 0,0 146,0 146,-19"/>
<text text-anchor="middle" x="73" y="-7" font-family="Helvetica,sans-Serif" font-size="10.00">clang/AST/TemplateBase.h</text>
</a>
</g>
</g>
<!-- Node1&#45;&gt;Node3 -->
<g id="edge10_Node000001_Node000003" class="edge">
<title>Node1&#45;&gt;Node3</title>
<g id="a_edge10_Node000001_Node000003"><a xlink:title=" ">
<path fill="none" stroke="#63b8ff" d="M554.19,-117.05C438.26,-113.86 219.38,-103.97 148,-74 123.31,-63.63 100.71,-42.11 86.91,-27.01"/>
<polygon fill="#63b8ff" stroke="#63b8ff" points="89.43,-24.58 80.19,-19.39 84.18,-29.21 89.43,-24.58"/>
</a>
</g>
</g>
<!-- Node8 -->
<g id="Node000008" class="node">
<title>Node8</title>
<g id="a_Node000008"><a xlink:title=" ">
<polygon fill="#e0e0e0" stroke="#999999" points="423,-74 307,-74 307,-55 423,-55 423,-74"/>
<text text-anchor="middle" x="365" y="-62" font-family="Helvetica,sans-Serif" font-size="10.00">clang/AST/APValue.h</text>
</a>
</g>
</g>
<!-- Node1&#45;&gt;Node8 -->
<g id="edge7_Node000001_Node000008" class="edge">
<title>Node1&#45;&gt;Node8</title>
<g id="a_edge7_Node000001_Node000008"><a xlink:title=" ">
<path fill="none" stroke="#63b8ff" d="M585.74,-109.98C539.96,-100.76 466.86,-86.03 417.45,-76.07"/>
<polygon fill="#63b8ff" stroke="#63b8ff" points="418.08,-72.63 407.59,-74.08 416.7,-79.49 418.08,-72.63"/>
</a>
</g>
</g>
<!-- Node9 -->
<g id="Node000009" class="node">
<title>Node9</title>
<g id="a_Node000009"><a xlink:title=" ">
<polygon fill="#e0e0e0" stroke="#999999" points="560.5,-74 441.5,-74 441.5,-55 560.5,-55 560.5,-74"/>
<text text-anchor="middle" x="501" y="-62" font-family="Helvetica,sans-Serif" font-size="10.00">clang/AST/DeclCXX.h</text>
</a>
</g>
</g>
<!-- Node1&#45;&gt;Node9 -->
<g id="edge8_Node000001_Node000009" class="edge">
<title>Node1&#45;&gt;Node9</title>
<g id="a_edge8_Node000001_Node000009"><a xlink:title=" ">
<path fill="none" stroke="#63b8ff" d="M607.6,-109.98C586.98,-101.38 554.89,-87.99 531.31,-78.15"/>
<polygon fill="#63b8ff" stroke="#63b8ff" points="532.35,-74.79 521.78,-74.17 529.66,-81.25 532.35,-74.79"/>
</a>
</g>
</g>
<!-- Node10 -->
<g id="Node000010" class="node">
<title>Node10</title>
<g id="a_Node000010"><a xlink:title=" ">
<polygon fill="#e0e0e0" stroke="#999999" points="677,-74 579,-74 579,-55 677,-55 677,-74"/>
<text text-anchor="middle" x="628" y="-62" font-family="Helvetica,sans-Serif" font-size="10.00">clang/AST/Expr.h</text>
</a>
</g>
</g>
<!-- Node1&#45;&gt;Node10 -->
<g id="edge9_Node000001_Node000010" class="edge">
<title>Node1&#45;&gt;Node10</title>
<g id="a_edge9_Node000001_Node000010"><a xlink:title=" ">
<path fill="none" stroke="#63b8ff" d="M628,-109.75C628,-102.8 628,-92.85 628,-84.13"/>
<polygon fill="#63b8ff" stroke="#63b8ff" points="631.5,-84.09 628,-74.09 624.5,-84.09 631.5,-84.09"/>
</a>
</g>
</g>
<!-- Node11 -->
<g id="Node000011" class="node">
<title>Node11</title>
<g id="a_Node000011"><a xlink:title=" ">
<polygon fill="#e0e0e0" stroke="#999999" points="748.5,-74 695.5,-74 695.5,-55 748.5,-55 748.5,-74"/>
<text text-anchor="middle" x="722" y="-62" font-family="Helvetica,sans-Serif" font-size="10.00">cstddef</text>
</a>
</g>
</g>
<!-- Node1&#45;&gt;Node11 -->
<g id="edge11_Node000001_Node000011" class="edge">
<title>Node1&#45;&gt;Node11</title>
<g id="a_edge11_Node000001_Node000011"><a xlink:title=" ">
<path fill="none" stroke="#63b8ff" d="M643.1,-109.98C657.82,-101.69 680.42,-88.94 697.67,-79.22"/>
<polygon fill="#63b8ff" stroke="#63b8ff" points="699.63,-82.13 706.62,-74.17 696.19,-76.03 699.63,-82.13"/>
</a>
</g>
</g>
<!-- Node12 -->
<g id="Node000012" class="node">
<title>Node12</title>
<g id="a_Node000012"><a xlink:title=" ">
<polygon fill="#e0e0e0" stroke="#999999" points="859.5,-74 766.5,-74 766.5,-55 859.5,-55 859.5,-74"/>
<text text-anchor="middle" x="813" y="-62" font-family="Helvetica,sans-Serif" font-size="10.00">spdlog/spdlog.h</text>
</a>
</g>
</g>
<!-- Node1&#45;&gt;Node12 -->
<g id="edge12_Node000001_Node000012" class="edge">
<title>Node1&#45;&gt;Node12</title>
<g id="a_edge12_Node000001_Node000012"><a xlink:title=" ">
<path fill="none" stroke="#63b8ff" d="M657.72,-109.98C689.05,-101.01 738.57,-86.82 773.24,-76.89"/>
<polygon fill="#63b8ff" stroke="#63b8ff" points="774.39,-80.2 783.04,-74.08 772.47,-73.47 774.39,-80.2"/>
</a>
</g>
</g>
<!-- Node13 -->
<g id="Node000013" class="node">
<title>Node13</title>
<g id="a_Node000013"><a xlink:title=" ">
<polygon fill="#e0e0e0" stroke="#999999" points="1028.5,-74 877.5,-74 877.5,-55 1028.5,-55 1028.5,-74"/>
<text text-anchor="middle" x="953" y="-62" font-family="Helvetica,sans-Serif" font-size="10.00">clang/AST/TemplateName.h</text>
</a>
</g>
</g>
<!-- Node1&#45;&gt;Node13 -->
<g id="edge13_Node000001_Node000013" class="edge">
<title>Node1&#45;&gt;Node13</title>
<g id="a_edge13_Node000001_Node000013"><a xlink:title=" ">
<path fill="none" stroke="#63b8ff" d="M680.22,-109.98C737.58,-100.63 829.67,-85.61 890.74,-75.65"/>
<polygon fill="#63b8ff" stroke="#63b8ff" points="891.34,-79.1 900.64,-74.04 890.21,-72.19 891.34,-79.1"/>
</a>
</g>
</g>
<!-- Node14 -->
<g id="Node000014" class="node">
<title>Node14</title>
<g id="a_Node000014"><a xlink:title=" ">
<polygon fill="#e0e0e0" stroke="#999999" points="1177,-74 1047,-74 1047,-55 1177,-55 1177,-74"/>
<text text-anchor="middle" x="1112" y="-62" font-family="Helvetica,sans-Serif" font-size="10.00">llvm/ADT/SmallString.h</text>
</a>
</g>
</g>
<!-- Node1&#45;&gt;Node14 -->
<g id="edge14_Node000001_Node000014" class="edge">
<title>Node1&#45;&gt;Node14</title>
<g id="a_edge14_Node000001_Node000014"><a xlink:title=" ">
<path fill="none" stroke="#63b8ff" d="M701.71,-110.64C781.63,-102.09 913.25,-87.91 1036.63,-74.15"/>
<polygon fill="#63b8ff" stroke="#63b8ff" points="1037.08,-77.62 1046.63,-73.03 1036.31,-70.66 1037.08,-77.62"/>
</a>
</g>
</g>
<!-- Node2&#45;&gt;Node3 -->
<g id="edge2_Node000002_Node000003" class="edge">
<title>Node2&#45;&gt;Node3</title>
<g id="a_edge2_Node000002_Node000003"><a xlink:title=" ">
<path fill="none" stroke="#63b8ff" d="M198.9,-54.98C174.12,-46.23 135.3,-32.51 107.31,-22.62"/>
<polygon fill="#63b8ff" stroke="#63b8ff" points="108.13,-19.2 97.54,-19.17 105.8,-25.8 108.13,-19.2"/>
</a>
</g>
</g>
<!-- Node4 -->
<g id="Node000004" class="node">
<title>Node4</title>
<g id="a_Node000004"><a xlink:title=" ">
<polygon fill="#e0e0e0" stroke="#999999" points="208,-19 164,-19 164,0 208,0 208,-19"/>
<text text-anchor="middle" x="186" y="-7" font-family="Helvetica,sans-Serif" font-size="10.00">string</text>
</a>
</g>
</g>
<!-- Node2&#45;&gt;Node4 -->
<g id="edge3_Node000002_Node000004" class="edge">
<title>Node2&#45;&gt;Node4</title>
<g id="a_edge3_Node000002_Node000004"><a xlink:title=" ">
<path fill="none" stroke="#63b8ff" d="M216.89,-54.75C211.72,-47.34 204.15,-36.5 197.81,-27.41"/>
<polygon fill="#63b8ff" stroke="#63b8ff" points="200.59,-25.29 192,-19.09 194.85,-29.29 200.59,-25.29"/>
</a>
</g>
</g>
<!-- Node5 -->
<g id="Node000005" class="node">
<title>Node5</title>
<g id="a_Node000005"><a xlink:title=" ">
<polygon fill="#e0e0e0" stroke="#999999" points="295.5,-19 226.5,-19 226.5,0 295.5,0 295.5,-19"/>
<text text-anchor="middle" x="261" y="-7" font-family="Helvetica,sans-Serif" font-size="10.00">fmt/color.h</text>
</a>
</g>
</g>
<!-- Node2&#45;&gt;Node5 -->
<g id="edge4_Node000002_Node000005" class="edge">
<title>Node2&#45;&gt;Node5</title>
<g id="a_edge4_Node000002_Node000005"><a xlink:title=" ">
<path fill="none" stroke="#63b8ff" d="M229.27,-54.75C234.59,-47.34 242.36,-36.5 248.88,-27.41"/>
<polygon fill="#63b8ff" stroke="#63b8ff" points="251.86,-29.26 254.84,-19.09 246.17,-25.18 251.86,-29.26"/>
</a>
</g>
</g>
<!-- Node6 -->
<g id="Node000006" class="node">
<title>Node6</title>
<g id="a_Node000006"><a xlink:title=" ">
<polygon fill="#e0e0e0" stroke="#999999" points="380.5,-19 313.5,-19 313.5,0 380.5,0 380.5,-19"/>
<text text-anchor="middle" x="347" y="-7" font-family="Helvetica,sans-Serif" font-size="10.00">fmt/core.h</text>
</a>
</g>
</g>
<!-- Node2&#45;&gt;Node6 -->
<g id="edge5_Node000002_Node000006" class="edge">
<title>Node2&#45;&gt;Node6</title>
<g id="a_edge5_Node000002_Node000006"><a xlink:title=" ">
<path fill="none" stroke="#63b8ff" d="M242.92,-54.98C263.05,-46.38 294.38,-32.99 317.41,-23.15"/>
<polygon fill="#63b8ff" stroke="#63b8ff" points="318.9,-26.32 326.71,-19.17 316.14,-19.88 318.9,-26.32"/>
</a>
</g>
</g>
<!-- Node7 -->
<g id="Node000007" class="node">
<title>Node7</title>
<g id="a_Node000007"><a xlink:title=" ">
<polygon fill="#e0e0e0" stroke="#999999" points="535.5,-19 398.5,-19 398.5,0 535.5,0 535.5,-19"/>
<text text-anchor="middle" x="467" y="-7" font-family="Helvetica,sans-Serif" font-size="10.00">clang/AST/PrettyPrinter.h</text>
</a>
</g>
</g>
<!-- Node2&#45;&gt;Node7 -->
<g id="edge6_Node000002_Node000007" class="edge">
<title>Node2&#45;&gt;Node7</title>
<g id="a_edge6_Node000002_Node000007"><a xlink:title=" ">
<path fill="none" stroke="#63b8ff" d="M262.2,-54.98C304.41,-45.82 371.65,-31.21 417.48,-21.26"/>
<polygon fill="#63b8ff" stroke="#63b8ff" points="418.46,-24.63 427.49,-19.08 416.97,-17.78 418.46,-24.63"/>
</a>
</g>
</g>
</g>
</svg>
