<?xml version="1.0" encoding="UTF-8" standalone="no"?>
<!DOCTYPE svg PUBLIC "-//W3C//DTD SVG 1.1//EN"
 "http://www.w3.org/Graphics/SVG/1.1/DTD/svg11.dtd">
<!-- Generated by graphviz version 2.43.0 (0)
 -->
<!-- Title: src/Template.cpp Pages: 1 -->
<svg width="1132pt" height="247pt"
 viewBox="0.00 0.00 1131.50 247.00" xmlns="http://www.w3.org/2000/svg" xmlns:xlink="http://www.w3.org/1999/xlink">
<g id="graph0" class="graph" transform="scale(1 1) rotate(0) translate(4 243)">
<title>src/Template.cpp</title>
<!-- Node1 -->
<g id="Node000001" class="node">
<title>Node1</title>
<g id="a_Node000001"><a xlink:title=" ">
<polygon fill="#999999" stroke="#666666" points="699.5,-239 600.5,-239 600.5,-220 699.5,-220 699.5,-239"/>
<text text-anchor="middle" x="650" y="-227" font-family="Helvetica,sans-Serif" font-size="10.00">src/Template.cpp</text>
</a>
</g>
</g>
<!-- Node2 -->
<g id="Node000002" class="node">
<title>Node2</title>
<g id="a_Node000002"><a xlink:href="Template_8hpp.html" target="_top" xlink:title=" ">
<polygon fill="white" stroke="#666666" points="460.5,-184 377.5,-184 377.5,-165 460.5,-165 460.5,-184"/>
<text text-anchor="middle" x="419" y="-172" font-family="Helvetica,sans-Serif" font-size="10.00">Template.hpp</text>
</a>
</g>
</g>
<!-- Node1&#45;&gt;Node2 -->
<g id="edge1_Node000001_Node000002" class="edge">
<title>Node1&#45;&gt;Node2</title>
<g id="a_edge1_Node000001_Node000002"><a xlink:title=" ">
<path fill="none" stroke="#63b8ff" d="M612.89,-219.98C573.01,-210.84 509.54,-196.27 466.16,-186.32"/>
<polygon fill="#63b8ff" stroke="#63b8ff" points="466.93,-182.91 456.41,-184.08 465.37,-189.73 466.93,-182.91"/>
</a>
</g>
</g>
<!-- Node7 -->
<g id="Node000007" class="node">
<title>Node7</title>
<g id="a_Node000007"><a xlink:href="Injection_8hpp.html" target="_top" xlink:title=" ">
<polygon fill="white" stroke="#666666" points="557,-129 477,-129 477,-110 557,-110 557,-129"/>
<text text-anchor="middle" x="517" y="-117" font-family="Helvetica,sans-Serif" font-size="10.00">Injection.hpp</text>
</a>
</g>
</g>
<!-- Node1&#45;&gt;Node7 -->
<g id="edge32_Node000001_Node000007" class="edge">
<title>Node1&#45;&gt;Node7</title>
<g id="a_edge32_Node000001_Node000007"><a xlink:title=" ">
<path fill="none" stroke="#63b8ff" d="M639.12,-219.66C616.4,-201.22 563.73,-158.45 535.56,-135.57"/>
<polygon fill="#63b8ff" stroke="#63b8ff" points="537.63,-132.75 527.66,-129.16 533.22,-138.18 537.63,-132.75"/>
</a>
</g>
</g>
<!-- Node14 -->
<g id="Node000014" class="node">
<title>Node14</title>
<g id="a_Node000014"><a xlink:href="TemplateArgument_8hpp.html" target="_top" xlink:title=" ">
<polygon fill="white" stroke="#666666" points="899.5,-74 768.5,-74 768.5,-55 899.5,-55 899.5,-74"/>
<text text-anchor="middle" x="834" y="-62" font-family="Helvetica,sans-Serif" font-size="10.00">TemplateArgument.hpp</text>
</a>
</g>
</g>
<!-- Node1&#45;&gt;Node14 -->
<g id="edge38_Node000001_Node000014" class="edge">
<title>Node1&#45;&gt;Node14</title>
<g id="a_edge38_Node000001_Node000014"><a xlink:title=" ">
<path fill="none" stroke="#63b8ff" d="M645.96,-219.98C640.49,-207.07 632.53,-182.26 643,-165 672.99,-115.56 736.45,-89.54 782,-76.69"/>
<polygon fill="#63b8ff" stroke="#63b8ff" points="782.97,-80.05 791.71,-74.07 781.15,-73.3 782.97,-80.05"/>
</a>
</g>
</g>
<!-- Node16 -->
<g id="Node000016" class="node">
<title>Node16</title>
<g id="a_Node000016"><a xlink:title=" ">
<polygon fill="#e0e0e0" stroke="#999999" points="704.5,-184 651.5,-184 651.5,-165 704.5,-165 704.5,-184"/>
<text text-anchor="middle" x="678" y="-172" font-family="Helvetica,sans-Serif" font-size="10.00">cstddef</text>
</a>
</g>
</g>
<!-- Node1&#45;&gt;Node16 -->
<g id="edge28_Node000001_Node000016" class="edge">
<title>Node1&#45;&gt;Node16</title>
<g id="a_edge28_Node000001_Node000016"><a xlink:title=" ">
<path fill="none" stroke="#63b8ff" d="M654.62,-219.75C658.46,-212.49 664.02,-201.95 668.76,-192.98"/>
<polygon fill="#63b8ff" stroke="#63b8ff" points="671.89,-194.57 673.46,-184.09 665.7,-191.3 671.89,-194.57"/>
</a>
</g>
</g>
<!-- Node17 -->
<g id="Node000017" class="node">
<title>Node17</title>
<g id="a_Node000017"><a xlink:title=" ">
<polygon fill="#e0e0e0" stroke="#999999" points="851,-184 723,-184 723,-165 851,-165 851,-184"/>
<text text-anchor="middle" x="787" y="-172" font-family="Helvetica,sans-Serif" font-size="10.00">llvm/Support/Casting.h</text>
</a>
</g>
</g>
<!-- Node1&#45;&gt;Node17 -->
<g id="edge29_Node000001_Node000017" class="edge">
<title>Node1&#45;&gt;Node17</title>
<g id="a_edge29_Node000001_Node000017"><a xlink:title=" ">
<path fill="none" stroke="#63b8ff" d="M672.01,-219.98C694.45,-211.3 729.48,-197.75 754.99,-187.88"/>
<polygon fill="#63b8ff" stroke="#63b8ff" points="756.52,-191.04 764.59,-184.17 754,-184.51 756.52,-191.04"/>
</a>
</g>
</g>
<!-- Node18 -->
<g id="Node000018" class="node">
<title>Node18</title>
<g id="a_Node000018"><a xlink:title=" ">
<polygon fill="#e0e0e0" stroke="#999999" points="962.5,-184 869.5,-184 869.5,-165 962.5,-165 962.5,-184"/>
<text text-anchor="middle" x="916" y="-172" font-family="Helvetica,sans-Serif" font-size="10.00">spdlog/spdlog.h</text>
</a>
</g>
</g>
<!-- Node1&#45;&gt;Node18 -->
<g id="edge30_Node000001_Node000018" class="edge">
<title>Node1&#45;&gt;Node18</title>
<g id="a_edge30_Node000001_Node000018"><a xlink:title=" ">
<path fill="none" stroke="#63b8ff" d="M692.74,-219.98C739.04,-210.76 812.98,-196.03 862.96,-186.07"/>
<polygon fill="#63b8ff" stroke="#63b8ff" points="863.8,-189.47 872.93,-184.08 862.44,-182.6 863.8,-189.47"/>
</a>
</g>
</g>
<!-- Node19 -->
<g id="Node000019" class="node">
<title>Node19</title>
<g id="a_Node000019"><a xlink:title=" ">
<polygon fill="#e0e0e0" stroke="#999999" points="1123.5,-184 980.5,-184 980.5,-165 1123.5,-165 1123.5,-184"/>
<text text-anchor="middle" x="1052" y="-172" font-family="Helvetica,sans-Serif" font-size="10.00">clang/AST/DeclTemplate.h</text>
</a>
</g>
</g>
<!-- Node1&#45;&gt;Node19 -->
<g id="edge31_Node000001_Node000019" class="edge">
<title>Node1&#45;&gt;Node19</title>
<g id="a_edge31_Node000001_Node000019"><a xlink:title=" ">
<path fill="none" stroke="#63b8ff" d="M699.7,-221.95C769.3,-212.77 896.35,-196.02 977.35,-185.34"/>
<polygon fill="#63b8ff" stroke="#63b8ff" points="978.03,-188.78 987.49,-184.01 977.12,-181.84 978.03,-188.78"/>
</a>
</g>
</g>
<!-- Node20 -->
<g id="Node000020" class="node">
<title>Node20</title>
<g id="a_Node000020"><a xlink:href="Parsing_8hpp.html" target="_top" xlink:title="Helper functions for parsing information from AST nodes.">
<polygon fill="white" stroke="#666666" points="180.5,-129 107.5,-129 107.5,-110 180.5,-110 180.5,-129"/>
<text text-anchor="middle" x="144" y="-117" font-family="Helvetica,sans-Serif" font-size="10.00">Parsing.hpp</text>
</a>
</g>
</g>
<!-- Node1&#45;&gt;Node20 -->
<g id="edge33_Node000001_Node000020" class="edge">
<title>Node1&#45;&gt;Node20</title>
<g id="a_edge33_Node000001_Node000020"><a xlink:title=" ">
<path fill="none" stroke="#63b8ff" d="M600.25,-222.48C543.65,-215.21 448.6,-201.72 368,-184 300.79,-169.23 223.91,-146.02 179.95,-132.13"/>
<polygon fill="#63b8ff" stroke="#63b8ff" points="180.88,-128.76 170.29,-129.06 178.76,-135.43 180.88,-128.76"/>
</a>
</g>
</g>
<!-- Node3 -->
<g id="Node000003" class="node">
<title>Node3</title>
<g id="a_Node000003"><a xlink:title=" ">
<polygon fill="#e0e0e0" stroke="#999999" points="316,-19 272,-19 272,0 316,0 316,-19"/>
<text text-anchor="middle" x="294" y="-7" font-family="Helvetica,sans-Serif" font-size="10.00">string</text>
</a>
</g>
</g>
<!-- Node2&#45;&gt;Node3 -->
<g id="edge2_Node000002_Node000003" class="edge">
<title>Node2&#45;&gt;Node3</title>
<g id="a_edge2_Node000002_Node000003"><a xlink:title=" ">
<path fill="none" stroke="#63b8ff" d="M391.51,-164.95C355.07,-151.94 292.32,-123.34 266,-74 257.72,-58.48 267.99,-40 278.35,-27"/>
<polygon fill="#63b8ff" stroke="#63b8ff" points="281.09,-29.18 284.97,-19.32 275.79,-24.61 281.09,-29.18"/>
</a>
</g>
</g>
<!-- Node4 -->
<g id="Node000004" class="node">
<title>Node4</title>
<g id="a_Node000004"><a xlink:title=" ">
<polygon fill="#e0e0e0" stroke="#999999" points="322.5,-74 275.5,-74 275.5,-55 322.5,-55 322.5,-74"/>
<text text-anchor="middle" x="299" y="-62" font-family="Helvetica,sans-Serif" font-size="10.00">vector</text>
</a>
</g>
</g>
<!-- Node2&#45;&gt;Node4 -->
<g id="edge3_Node000002_Node000004" class="edge">
<title>Node2&#45;&gt;Node4</title>
<g id="a_edge3_Node000002_Node000004"><a xlink:title=" ">
<path fill="none" stroke="#63b8ff" d="M409.18,-164.66C388.77,-146.3 341.57,-103.81 316.07,-80.87"/>
<polygon fill="#63b8ff" stroke="#63b8ff" points="318.39,-78.25 308.62,-74.16 313.71,-83.45 318.39,-78.25"/>
</a>
</g>
</g>
<!-- Node5 -->
<g id="Node000005" class="node">
<title>Node5</title>
<g id="a_Node000005"><a xlink:title=" ">
<polygon fill="#e0e0e0" stroke="#999999" points="576.5,-74 457.5,-74 457.5,-55 576.5,-55 576.5,-74"/>
<text text-anchor="middle" x="517" y="-62" font-family="Helvetica,sans-Serif" font-size="10.00">clang/AST/DeclCXX.h</text>
</a>
</g>
</g>
<!-- Node2&#45;&gt;Node5 -->
<g id="edge4_Node000002_Node000005" class="edge">
<title>Node2&#45;&gt;Node5</title>
<g id="a_edge4_Node000002_Node000005"><a xlink:title=" ">
<path fill="none" stroke="#63b8ff" d="M424.9,-164.9C433.68,-152.33 451,-128.42 468,-110 477.52,-99.68 489.12,-89.07 498.64,-80.8"/>
<polygon fill="#63b8ff" stroke="#63b8ff" points="501.04,-83.36 506.37,-74.21 496.49,-78.04 501.04,-83.36"/>
</a>
</g>
</g>
<!-- Node6 -->
<g id="Node000006" class="node">
<title>Node6</title>
<g id="a_Node000006"><a xlink:title=" ">
<polygon fill="#e0e0e0" stroke="#999999" points="439.5,-74 340.5,-74 340.5,-55 439.5,-55 439.5,-74"/>
<text text-anchor="middle" x="390" y="-62" font-family="Helvetica,sans-Serif" font-size="10.00">clang/AST/Type.h</text>
</a>
</g>
</g>
<!-- Node2&#45;&gt;Node6 -->
<g id="edge5_Node000002_Node000006" class="edge">
<title>Node2&#45;&gt;Node6</title>
<g id="a_edge5_Node000002_Node000006"><a xlink:title=" ">
<path fill="none" stroke="#63b8ff" d="M416.63,-164.66C411.91,-147.09 401.26,-107.45 394.96,-83.95"/>
<polygon fill="#63b8ff" stroke="#63b8ff" points="398.3,-82.91 392.32,-74.16 391.54,-84.72 398.3,-82.91"/>
</a>
</g>
</g>
<!-- Node2&#45;&gt;Node7 -->
<g id="edge6_Node000002_Node000007" class="edge">
<title>Node2&#45;&gt;Node7</title>
<g id="a_edge6_Node000002_Node000007"><a xlink:title=" ">
<path fill="none" stroke="#63b8ff" d="M434.75,-164.98C450.23,-156.61 474.09,-143.7 492.14,-133.95"/>
<polygon fill="#63b8ff" stroke="#63b8ff" points="493.84,-137.01 500.97,-129.17 490.51,-130.85 493.84,-137.01"/>
</a>
</g>
</g>
<!-- Node11 -->
<g id="Node000011" class="node">
<title>Node11</title>
<g id="a_Node000011"><a xlink:href="Param_8hpp.html" target="_top" xlink:title=" ">
<polygon fill="white" stroke="#666666" points="219,-74 151,-74 151,-55 219,-55 219,-74"/>
<text text-anchor="middle" x="185" y="-62" font-family="Helvetica,sans-Serif" font-size="10.00">Param.hpp</text>
</a>
</g>
</g>
<!-- Node2&#45;&gt;Node11 -->
<g id="edge26_Node000002_Node000011" class="edge">
<title>Node2&#45;&gt;Node11</title>
<g id="a_edge26_Node000002_Node000011"><a xlink:title=" ">
<path fill="none" stroke="#63b8ff" d="M377.4,-171.55C337.47,-167.93 276.9,-157.71 233,-129 215.71,-117.69 202.24,-97.94 194.03,-83.45"/>
<polygon fill="#63b8ff" stroke="#63b8ff" points="197.01,-81.6 189.2,-74.44 190.84,-84.91 197.01,-81.6"/>
</a>
</g>
</g>
<!-- Node2&#45;&gt;Node14 -->
<g id="edge27_Node000002_Node000014" class="edge">
<title>Node2&#45;&gt;Node14</title>
<g id="a_edge27_Node000002_Node000014"><a xlink:title=" ">
<path fill="none" stroke="#63b8ff" d="M451.2,-164.97C481.24,-156.73 527.12,-143.41 566,-129 585.59,-121.74 589.07,-116.29 609,-110 658.95,-94.24 716.98,-82.92 761.6,-75.65"/>
<polygon fill="#63b8ff" stroke="#63b8ff" points="762.16,-79.1 771.48,-74.07 761.05,-72.19 762.16,-79.1"/>
</a>
</g>
</g>
<!-- Node7&#45;&gt;Node3 -->
<g id="edge7_Node000007_Node000003" class="edge">
<title>Node7&#45;&gt;Node3</title>
<g id="a_edge7_Node000007_Node000003"><a xlink:title=" ">
<path fill="none" stroke="#63b8ff" d="M538.93,-109.94C565.51,-98.35 604.57,-76.61 586,-55 552.85,-16.42 395.72,-10.91 326.67,-10.38"/>
<polygon fill="#63b8ff" stroke="#63b8ff" points="326.4,-6.88 316.38,-10.34 326.37,-13.88 326.4,-6.88"/>
</a>
</g>
</g>
<!-- Node7&#45;&gt;Node4 -->
<g id="edge8_Node000007_Node000004" class="edge">
<title>Node7&#45;&gt;Node4</title>
<g id="a_edge8_Node000007_Node000004"><a xlink:title=" ">
<path fill="none" stroke="#63b8ff" d="M480.23,-109.99C444.72,-101.7 389.16,-88.58 332.58,-74.36"/>
<polygon fill="#63b8ff" stroke="#63b8ff" points="333.3,-70.93 322.75,-71.88 331.59,-77.72 333.3,-70.93"/>
</a>
</g>
</g>
<!-- Node7&#45;&gt;Node5 -->
<g id="edge12_Node000007_Node000005" class="edge">
<title>Node7&#45;&gt;Node5</title>
<g id="a_edge12_Node000007_Node000005"><a xlink:title=" ">
<path fill="none" stroke="#63b8ff" d="M517,-109.75C517,-102.8 517,-92.85 517,-84.13"/>
<polygon fill="#63b8ff" stroke="#63b8ff" points="520.5,-84.09 517,-74.09 513.5,-84.09 520.5,-84.09"/>
</a>
</g>
</g>
<!-- Node7&#45;&gt;Node6 -->
<g id="edge13_Node000007_Node000006" class="edge">
<title>Node7&#45;&gt;Node6</title>
<g id="a_edge13_Node000007_Node000006"><a xlink:title=" ">
<path fill="none" stroke="#63b8ff" d="M496.6,-109.98C475.98,-101.38 443.89,-87.99 420.31,-78.15"/>
<polygon fill="#63b8ff" stroke="#63b8ff" points="421.35,-74.79 410.78,-74.17 418.66,-81.25 421.35,-74.79"/>
</a>
</g>
</g>
<!-- Node8 -->
<g id="Node000008" class="node">
<title>Node8</title>
<g id="a_Node000008"><a xlink:title=" ">
<polygon fill="#e0e0e0" stroke="#999999" points="677.5,-19 608.5,-19 608.5,0 677.5,0 677.5,-19"/>
<text text-anchor="middle" x="643" y="-7" font-family="Helvetica,sans-Serif" font-size="10.00">fmt/color.h</text>
</a>
</g>
</g>
<!-- Node7&#45;&gt;Node8 -->
<g id="edge9_Node000007_Node000008" class="edge">
<title>Node7&#45;&gt;Node8</title>
<g id="a_edge9_Node000007_Node000008"><a xlink:title=" ">
<path fill="none" stroke="#63b8ff" d="M554.22,-110C575.66,-103.39 601.69,-92.2 619,-74 630.79,-61.6 636.93,-42.84 640.03,-28.92"/>
<polygon fill="#63b8ff" stroke="#63b8ff" points="643.49,-29.49 641.92,-19.01 636.61,-28.18 643.49,-29.49"/>
</a>
</g>
</g>
<!-- Node9 -->
<g id="Node000009" class="node">
<title>Node9</title>
<g id="a_Node000009"><a xlink:title=" ">
<polygon fill="#e0e0e0" stroke="#999999" points="944.5,-19 877.5,-19 877.5,0 944.5,0 944.5,-19"/>
<text text-anchor="middle" x="911" y="-7" font-family="Helvetica,sans-Serif" font-size="10.00">fmt/core.h</text>
</a>
</g>
</g>
<!-- Node7&#45;&gt;Node9 -->
<g id="edge10_Node000007_Node000009" class="edge">
<title>Node7&#45;&gt;Node9</title>
<g id="a_edge10_Node000007_Node000009"><a xlink:title=" ">
<path fill="none" stroke="#63b8ff" d="M557.07,-116.87C652.18,-112.6 885.41,-99.59 909,-74 919.85,-62.22 919.04,-43.38 916.3,-29.27"/>
<polygon fill="#63b8ff" stroke="#63b8ff" points="919.62,-28.11 913.88,-19.2 912.81,-29.74 919.62,-28.11"/>
</a>
</g>
</g>
<!-- Node10 -->
<g id="Node000010" class="node">
<title>Node10</title>
<g id="a_Node000010"><a xlink:title=" ">
<polygon fill="#e0e0e0" stroke="#999999" points="750.5,-74 671.5,-74 671.5,-55 750.5,-55 750.5,-74"/>
<text text-anchor="middle" x="711" y="-62" font-family="Helvetica,sans-Serif" font-size="10.00">fmt/ranges.h</text>
</a>
</g>
</g>
<!-- Node7&#45;&gt;Node10 -->
<g id="edge11_Node000007_Node000010" class="edge">
<title>Node7&#45;&gt;Node10</title>
<g id="a_edge11_Node000007_Node000010"><a xlink:title=" ">
<path fill="none" stroke="#63b8ff" d="M548.17,-109.98C581.16,-100.97 633.4,-86.7 669.77,-76.76"/>
<polygon fill="#63b8ff" stroke="#63b8ff" points="670.86,-80.09 679.59,-74.08 669.02,-73.34 670.86,-80.09"/>
</a>
</g>
</g>
<!-- Node7&#45;&gt;Node11 -->
<g id="edge14_Node000007_Node000011" class="edge">
<title>Node7&#45;&gt;Node11</title>
<g id="a_edge14_Node000007_Node000011"><a xlink:title=" ">
<path fill="none" stroke="#63b8ff" d="M476.95,-112.11C414.42,-102.12 294.03,-82.9 229.09,-72.54"/>
<polygon fill="#63b8ff" stroke="#63b8ff" points="229.59,-69.07 219.17,-70.95 228.49,-75.99 229.59,-69.07"/>
</a>
</g>
</g>
<!-- Node7&#45;&gt;Node14 -->
<g id="edge20_Node000007_Node000014" class="edge">
<title>Node7&#45;&gt;Node14</title>
<g id="a_edge20_Node000007_Node000014"><a xlink:title=" ">
<path fill="none" stroke="#63b8ff" d="M557.15,-111.79C611.63,-102.68 709.45,-86.32 773.03,-75.69"/>
<polygon fill="#63b8ff" stroke="#63b8ff" points="773.64,-79.14 782.92,-74.04 772.48,-72.24 773.64,-79.14"/>
</a>
</g>
</g>
<!-- Node11&#45;&gt;Node3 -->
<g id="edge15_Node000011_Node000003" class="edge">
<title>Node11&#45;&gt;Node3</title>
<g id="a_edge15_Node000011_Node000003"><a xlink:title=" ">
<path fill="none" stroke="#63b8ff" d="M202.51,-54.98C219.97,-46.5 247.01,-33.35 267.17,-23.54"/>
<polygon fill="#63b8ff" stroke="#63b8ff" points="268.71,-26.69 276.17,-19.17 265.64,-20.4 268.71,-26.69"/>
</a>
</g>
</g>
<!-- Node11&#45;&gt;Node8 -->
<g id="edge16_Node000011_Node000008" class="edge">
<title>Node11&#45;&gt;Node8</title>
<g id="a_edge16_Node000011_Node000008"><a xlink:title=" ">
<path fill="none" stroke="#63b8ff" d="M219.05,-59.56C300.59,-50.12 507.06,-26.23 598.38,-15.66"/>
<polygon fill="#63b8ff" stroke="#63b8ff" points="598.88,-19.13 608.41,-14.5 598.08,-12.18 598.88,-19.13"/>
</a>
</g>
</g>
<!-- Node11&#45;&gt;Node9 -->
<g id="edge17_Node000011_Node000009" class="edge">
<title>Node11&#45;&gt;Node9</title>
<g id="a_edge17_Node000011_Node000009"><a xlink:title=" ">
<path fill="none" stroke="#63b8ff" d="M219.26,-59.56C233.68,-57.99 250.64,-56.26 266,-55 529.87,-33.28 600.43,-52.58 867.29,-18.89"/>
<polygon fill="#63b8ff" stroke="#63b8ff" points="867.79,-22.35 877.27,-17.62 866.91,-15.41 867.79,-22.35"/>
</a>
</g>
</g>
<!-- Node12 -->
<g id="Node000012" class="node">
<title>Node12</title>
<g id="a_Node000012"><a xlink:title=" ">
<polygon fill="#e0e0e0" stroke="#999999" points="98,-19 0,-19 0,0 98,0 98,-19"/>
<text text-anchor="middle" x="49" y="-7" font-family="Helvetica,sans-Serif" font-size="10.00">clang/AST/Decl.h</text>
</a>
</g>
</g>
<!-- Node11&#45;&gt;Node12 -->
<g id="edge18_Node000011_Node000012" class="edge">
<title>Node11&#45;&gt;Node12</title>
<g id="a_edge18_Node000011_Node000012"><a xlink:title=" ">
<path fill="none" stroke="#63b8ff" d="M163.15,-54.98C140.88,-46.3 106.1,-32.75 80.78,-22.88"/>
<polygon fill="#63b8ff" stroke="#63b8ff" points="81.84,-19.54 71.25,-19.17 79.29,-26.06 81.84,-19.54"/>
</a>
</g>
</g>
<!-- Node13 -->
<g id="Node000013" class="node">
<title>Node13</title>
<g id="a_Node000013"><a xlink:title=" ">
<polygon fill="#e0e0e0" stroke="#999999" points="253.5,-19 116.5,-19 116.5,0 253.5,0 253.5,-19"/>
<text text-anchor="middle" x="185" y="-7" font-family="Helvetica,sans-Serif" font-size="10.00">clang/AST/PrettyPrinter.h</text>
</a>
</g>
</g>
<!-- Node11&#45;&gt;Node13 -->
<g id="edge19_Node000011_Node000013" class="edge">
<title>Node11&#45;&gt;Node13</title>
<g id="a_edge19_Node000011_Node000013"><a xlink:title=" ">
<path fill="none" stroke="#63b8ff" d="M185,-54.75C185,-47.8 185,-37.85 185,-29.13"/>
<polygon fill="#63b8ff" stroke="#63b8ff" points="188.5,-29.09 185,-19.09 181.5,-29.09 188.5,-29.09"/>
</a>
</g>
</g>
<!-- Node14&#45;&gt;Node3 -->
<g id="edge22_Node000014_Node000003" class="edge">
<title>Node14&#45;&gt;Node3</title>
<g id="a_edge22_Node000014_Node000003"><a xlink:title=" ">
<path fill="none" stroke="#63b8ff" d="M768.24,-55.88C765.46,-55.58 762.7,-55.28 760,-55 597.45,-37.91 402.71,-20.21 326.67,-13.4"/>
<polygon fill="#63b8ff" stroke="#63b8ff" points="326.6,-9.88 316.33,-12.48 325.98,-16.85 326.6,-9.88"/>
</a>
</g>
</g>
<!-- Node14&#45;&gt;Node8 -->
<g id="edge23_Node000014_Node000008" class="edge">
<title>Node14&#45;&gt;Node8</title>
<g id="a_edge23_Node000014_Node000008"><a xlink:title=" ">
<path fill="none" stroke="#63b8ff" d="M803.31,-54.98C770.83,-45.97 719.4,-31.7 683.59,-21.76"/>
<polygon fill="#63b8ff" stroke="#63b8ff" points="684.5,-18.38 673.93,-19.08 682.63,-25.13 684.5,-18.38"/>
</a>
</g>
</g>
<!-- Node14&#45;&gt;Node9 -->
<g id="edge24_Node000014_Node000009" class="edge">
<title>Node14&#45;&gt;Node9</title>
<g id="a_edge24_Node000014_Node000009"><a xlink:title=" ">
<path fill="none" stroke="#63b8ff" d="M846.37,-54.98C858.09,-46.92 875.92,-34.65 889.89,-25.03"/>
<polygon fill="#63b8ff" stroke="#63b8ff" points="892.15,-27.72 898.4,-19.17 888.18,-21.96 892.15,-27.72"/>
</a>
</g>
</g>
<!-- Node14&#45;&gt;Node13 -->
<g id="edge25_Node000014_Node000013" class="edge">
<title>Node14&#45;&gt;Node13</title>
<g id="a_edge25_Node000014_Node000013"><a xlink:title=" ">
<path fill="none" stroke="#63b8ff" d="M768.25,-55.8C765.46,-55.52 762.7,-55.25 760,-55 542.73,-34.66 485.24,-38.87 263.87,-19.04"/>
<polygon fill="#63b8ff" stroke="#63b8ff" points="264.16,-15.56 253.89,-18.14 263.54,-22.53 264.16,-15.56"/>
</a>
</g>
</g>
<!-- Node15 -->
<g id="Node000015" class="node">
<title>Node15</title>
<g id="a_Node000015"><a xlink:title=" ">
<polygon fill="#e0e0e0" stroke="#999999" points="859,-19 713,-19 713,0 859,0 859,-19"/>
<text text-anchor="middle" x="786" y="-7" font-family="Helvetica,sans-Serif" font-size="10.00">clang/AST/TemplateBase.h</text>
</a>
</g>
</g>
<!-- Node14&#45;&gt;Node15 -->
<g id="edge21_Node000014_Node000015" class="edge">
<title>Node14&#45;&gt;Node15</title>
<g id="a_edge21_Node000014_Node000015"><a xlink:title=" ">
<path fill="none" stroke="#63b8ff" d="M826.07,-54.75C819.15,-47.11 808.93,-35.82 800.55,-26.56"/>
<polygon fill="#63b8ff" stroke="#63b8ff" points="803.09,-24.15 793.78,-19.09 797.9,-28.85 803.09,-24.15"/>
</a>
</g>
</g>
<!-- Node20&#45;&gt;Node3 -->
<g id="edge34_Node000020_Node000003" class="edge">
<title>Node20&#45;&gt;Node3</title>
<g id="a_edge34_Node000020_Node000003"><a xlink:title=" ">
<path fill="none" stroke="#63b8ff" d="M140.58,-109.68C136.05,-96.38 129.96,-71.07 142,-55 143.85,-52.52 218.23,-31.53 262.24,-19.29"/>
<polygon fill="#63b8ff" stroke="#63b8ff" points="263.23,-22.65 271.92,-16.6 261.35,-15.9 263.23,-22.65"/>
</a>
</g>
</g>
<!-- Node20&#45;&gt;Node4 -->
<g id="edge35_Node000020_Node000004" class="edge">
<title>Node20&#45;&gt;Node4</title>
<g id="a_edge35_Node000020_Node000004"><a xlink:title=" ">
<path fill="none" stroke="#63b8ff" d="M168.9,-109.98C195.16,-101.01 236.67,-86.81 265.72,-76.88"/>
<polygon fill="#63b8ff" stroke="#63b8ff" points="267.1,-80.11 275.43,-73.56 264.83,-73.48 267.1,-80.11"/>
</a>
</g>
</g>
<!-- Node20&#45;&gt;Node11 -->
<g id="edge37_Node000020_Node000011" class="edge">
<title>Node20&#45;&gt;Node11</title>
<g id="a_edge37_Node000020_Node000011"><a xlink:title=" ">
<path fill="none" stroke="#63b8ff" d="M150.77,-109.75C156.56,-102.26 165.06,-91.28 172.14,-82.13"/>
<polygon fill="#63b8ff" stroke="#63b8ff" points="175.01,-84.14 178.36,-74.09 169.47,-79.86 175.01,-84.14"/>
</a>
</g>
</g>
<!-- Node20&#45;&gt;Node13 -->
<g id="edge36_Node000020_Node000013" class="edge">
<title>Node20&#45;&gt;Node13</title>
<g id="a_edge36_Node000020_Node000013"><a xlink:title=" ">
<path fill="none" stroke="#63b8ff" d="M133.13,-109.82C119.13,-97.55 97.86,-74.44 109,-55 117.36,-40.42 132.55,-30.16 147.17,-23.19"/>
<polygon fill="#63b8ff" stroke="#63b8ff" points="148.84,-26.28 156.61,-19.08 146.05,-19.86 148.84,-26.28"/>
</a>
</g>
</g>
</g>
</svg>
