<?xml version="1.0" encoding="UTF-8" standalone="no"?>
<!DOCTYPE svg PUBLIC "-//W3C//DTD SVG 1.1//EN"
 "http://www.w3.org/Graphics/SVG/1.1/DTD/svg11.dtd">
<!-- Generated by graphviz version 2.43.0 (0)
 -->
<!-- Title: src/Template.cpp Pages: 1 -->
<svg width="774pt" height="247pt"
 viewBox="0.00 0.00 774.00 247.00" xmlns="http://www.w3.org/2000/svg" xmlns:xlink="http://www.w3.org/1999/xlink">
<g id="graph0" class="graph" transform="scale(1 1) rotate(0) translate(4 243)">
<title>src/Template.cpp</title>
<!-- Node1 -->
<g id="Node000001" class="node">
<title>Node1</title>
<g id="a_Node000001"><a xlink:title=" ">
<polygon fill="#999999" stroke="#666666" points="428,-239 329,-239 329,-220 428,-220 428,-239"/>
<text text-anchor="middle" x="378.5" y="-227" font-family="Helvetica,sans-Serif" font-size="10.00">src/Template.cpp</text>
</a>
</g>
</g>
<!-- Node2 -->
<g id="Node000002" class="node">
<title>Node2</title>
<g id="a_Node000002"><a xlink:href="Template_8hpp.html" target="_top" xlink:title=" ">
<polygon fill="white" stroke="#666666" points="420,-184 337,-184 337,-165 420,-165 420,-184"/>
<text text-anchor="middle" x="378.5" y="-172" font-family="Helvetica,sans-Serif" font-size="10.00">Template.hpp</text>
</a>
</g>
</g>
<!-- Node1&#45;&gt;Node2 -->
<g id="edge1_Node000001_Node000002" class="edge">
<title>Node1&#45;&gt;Node2</title>
<g id="a_edge1_Node000001_Node000002"><a xlink:title=" ">
<path fill="none" stroke="#63b8ff" d="M378.5,-219.75C378.5,-212.8 378.5,-202.85 378.5,-194.13"/>
<polygon fill="#63b8ff" stroke="#63b8ff" points="382,-194.09 378.5,-184.09 375,-194.09 382,-194.09"/>
</a>
</g>
</g>
<!-- Node3 -->
<g id="Node000003" class="node">
<title>Node3</title>
<g id="a_Node000003"><a xlink:href="Injection_8hpp.html" target="_top" xlink:title=" ">
<polygon fill="white" stroke="#666666" points="348.5,-129 268.5,-129 268.5,-110 348.5,-110 348.5,-129"/>
<text text-anchor="middle" x="308.5" y="-117" font-family="Helvetica,sans-Serif" font-size="10.00">Injection.hpp</text>
</a>
</g>
</g>
<!-- Node1&#45;&gt;Node3 -->
<g id="edge21_Node000001_Node000003" class="edge">
<title>Node1&#45;&gt;Node3</title>
<g id="a_edge21_Node000001_Node000003"><a xlink:title=" ">
<path fill="none" stroke="#63b8ff" d="M364.88,-219.87C353.34,-211.89 337.17,-199.02 327.5,-184 318.74,-170.39 313.87,-152.58 311.26,-139.28"/>
<polygon fill="#63b8ff" stroke="#63b8ff" points="314.7,-138.63 309.56,-129.36 307.8,-139.81 314.7,-138.63"/>
</a>
</g>
</g>
<!-- Node14 -->
<g id="Node000014" class="node">
<title>Node14</title>
<g id="a_Node000014"><a xlink:href="Parsing_8hpp.html" target="_top" xlink:title="Helper functions for parsing information from AST nodes.">
<polygon fill="white" stroke="#666666" points="556,-129 483,-129 483,-110 556,-110 556,-129"/>
<text text-anchor="middle" x="519.5" y="-117" font-family="Helvetica,sans-Serif" font-size="10.00">Parsing.hpp</text>
</a>
</g>
</g>
<!-- Node1&#45;&gt;Node14 -->
<g id="edge22_Node000001_Node000014" class="edge">
<title>Node1&#45;&gt;Node14</title>
<g id="a_edge22_Node000001_Node000014"><a xlink:title=" ">
<path fill="none" stroke="#63b8ff" d="M390.04,-219.66C414.22,-201.14 470.44,-158.08 500.21,-135.28"/>
<polygon fill="#63b8ff" stroke="#63b8ff" points="502.39,-138.02 508.2,-129.16 498.13,-132.46 502.39,-138.02"/>
</a>
</g>
</g>
<!-- Node2&#45;&gt;Node3 -->
<g id="edge2_Node000002_Node000003" class="edge">
<title>Node2&#45;&gt;Node3</title>
<g id="a_edge2_Node000002_Node000003"><a xlink:title=" ">
<path fill="none" stroke="#63b8ff" d="M367.25,-164.98C356.7,-157 340.7,-144.88 328.06,-135.31"/>
<polygon fill="#63b8ff" stroke="#63b8ff" points="330.04,-132.42 319.95,-129.17 325.81,-138 330.04,-132.42"/>
</a>
</g>
</g>
<!-- Node4 -->
<g id="Node000004" class="node">
<title>Node4</title>
<g id="a_Node000004"><a xlink:href="Param_8hpp.html" target="_top" xlink:title=" ">
<polygon fill="white" stroke="#666666" points="540.5,-74 472.5,-74 472.5,-55 540.5,-55 540.5,-74"/>
<text text-anchor="middle" x="506.5" y="-62" font-family="Helvetica,sans-Serif" font-size="10.00">Param.hpp</text>
</a>
</g>
</g>
<!-- Node2&#45;&gt;Node4 -->
<g id="edge16_Node000002_Node000004" class="edge">
<title>Node2&#45;&gt;Node4</title>
<g id="a_edge16_Node000002_Node000004"><a xlink:title=" ">
<path fill="none" stroke="#63b8ff" d="M388.97,-164.66C410.74,-146.3 461.09,-103.81 488.29,-80.87"/>
<polygon fill="#63b8ff" stroke="#63b8ff" points="490.85,-83.28 496.24,-74.16 486.34,-77.93 490.85,-83.28"/>
</a>
</g>
</g>
<!-- Node10 -->
<g id="Node000010" class="node">
<title>Node10</title>
<g id="a_Node000010"><a xlink:title=" ">
<polygon fill="#e0e0e0" stroke="#999999" points="419.5,-19 375.5,-19 375.5,0 419.5,0 419.5,-19"/>
<text text-anchor="middle" x="397.5" y="-7" font-family="Helvetica,sans-Serif" font-size="10.00">string</text>
</a>
</g>
</g>
<!-- Node2&#45;&gt;Node10 -->
<g id="edge19_Node000002_Node000010" class="edge">
<title>Node2&#45;&gt;Node10</title>
<g id="a_edge19_Node000002_Node000010"><a xlink:title=" ">
<path fill="none" stroke="#63b8ff" d="M379.52,-164.74C382.49,-139.31 391.14,-65.08 395.26,-29.69"/>
<polygon fill="#63b8ff" stroke="#63b8ff" points="398.79,-29.64 396.47,-19.31 391.84,-28.83 398.79,-29.64"/>
</a>
</g>
</g>
<!-- Node11 -->
<g id="Node000011" class="node">
<title>Node11</title>
<g id="a_Node000011"><a xlink:title=" ">
<polygon fill="#e0e0e0" stroke="#999999" points="236,-74 117,-74 117,-55 236,-55 236,-74"/>
<text text-anchor="middle" x="176.5" y="-62" font-family="Helvetica,sans-Serif" font-size="10.00">clang/AST/DeclCXX.h</text>
</a>
</g>
</g>
<!-- Node2&#45;&gt;Node11 -->
<g id="edge17_Node000002_Node000011" class="edge">
<title>Node2&#45;&gt;Node11</title>
<g id="a_edge17_Node000002_Node000011"><a xlink:title=" ">
<path fill="none" stroke="#63b8ff" d="M348.08,-164.86C323.37,-157.21 288.06,-144.81 259.5,-129 234.9,-115.38 209.66,-94.98 193.58,-81"/>
<polygon fill="#63b8ff" stroke="#63b8ff" points="195.86,-78.35 186.05,-74.34 191.23,-83.59 195.86,-78.35"/>
</a>
</g>
</g>
<!-- Node12 -->
<g id="Node000012" class="node">
<title>Node12</title>
<g id="a_Node000012"><a xlink:title=" ">
<polygon fill="#e0e0e0" stroke="#999999" points="99,-74 0,-74 0,-55 99,-55 99,-74"/>
<text text-anchor="middle" x="49.5" y="-62" font-family="Helvetica,sans-Serif" font-size="10.00">clang/AST/Type.h</text>
</a>
</g>
</g>
<!-- Node2&#45;&gt;Node12 -->
<g id="edge18_Node000002_Node000012" class="edge">
<title>Node2&#45;&gt;Node12</title>
<g id="a_edge18_Node000002_Node000012"><a xlink:title=" ">
<path fill="none" stroke="#63b8ff" d="M347.69,-164.97C317.06,-156.36 268.82,-142.45 227.5,-129 176.24,-112.32 117.47,-90.9 81.93,-77.69"/>
<polygon fill="#63b8ff" stroke="#63b8ff" points="82.71,-74.24 72.12,-74.03 80.27,-80.8 82.71,-74.24"/>
</a>
</g>
</g>
<!-- Node13 -->
<g id="Node000013" class="node">
<title>Node13</title>
<g id="a_Node000013"><a xlink:title=" ">
<polygon fill="#e0e0e0" stroke="#999999" points="454,-74 407,-74 407,-55 454,-55 454,-74"/>
<text text-anchor="middle" x="430.5" y="-62" font-family="Helvetica,sans-Serif" font-size="10.00">vector</text>
</a>
</g>
</g>
<!-- Node2&#45;&gt;Node13 -->
<g id="edge20_Node000002_Node000013" class="edge">
<title>Node2&#45;&gt;Node13</title>
<g id="a_edge20_Node000002_Node000013"><a xlink:title=" ">
<path fill="none" stroke="#63b8ff" d="M382.76,-164.66C391.29,-146.93 410.65,-106.73 421.92,-83.32"/>
<polygon fill="#63b8ff" stroke="#63b8ff" points="425.15,-84.69 426.33,-74.16 418.84,-81.65 425.15,-84.69"/>
</a>
</g>
</g>
<!-- Node3&#45;&gt;Node4 -->
<g id="edge3_Node000003_Node000004" class="edge">
<title>Node3&#45;&gt;Node4</title>
<g id="a_edge3_Node000003_Node000004"><a xlink:title=" ">
<path fill="none" stroke="#63b8ff" d="M340.31,-109.98C373.99,-100.97 427.3,-86.7 464.42,-76.76"/>
<polygon fill="#63b8ff" stroke="#63b8ff" points="465.68,-80.05 474.44,-74.08 463.87,-73.29 465.68,-80.05"/>
</a>
</g>
</g>
<!-- Node5 -->
<g id="Node000005" class="node">
<title>Node5</title>
<g id="a_Node000005"><a xlink:title=" ">
<polygon fill="#e0e0e0" stroke="#999999" points="357,-19 288,-19 288,0 357,0 357,-19"/>
<text text-anchor="middle" x="322.5" y="-7" font-family="Helvetica,sans-Serif" font-size="10.00">fmt/color.h</text>
</a>
</g>
</g>
<!-- Node3&#45;&gt;Node5 -->
<g id="edge10_Node000003_Node000005" class="edge">
<title>Node3&#45;&gt;Node5</title>
<g id="a_edge10_Node000003_Node000005"><a xlink:title=" ">
<path fill="none" stroke="#63b8ff" d="M309.65,-109.66C311.91,-92.17 317.02,-52.8 320.07,-29.27"/>
<polygon fill="#63b8ff" stroke="#63b8ff" points="323.56,-29.53 321.38,-19.16 316.62,-28.63 323.56,-29.53"/>
</a>
</g>
</g>
<!-- Node6 -->
<g id="Node000006" class="node">
<title>Node6</title>
<g id="a_Node000006"><a xlink:title=" ">
<polygon fill="#e0e0e0" stroke="#999999" points="270,-19 203,-19 203,0 270,0 270,-19"/>
<text text-anchor="middle" x="236.5" y="-7" font-family="Helvetica,sans-Serif" font-size="10.00">fmt/core.h</text>
</a>
</g>
</g>
<!-- Node3&#45;&gt;Node6 -->
<g id="edge11_Node000003_Node000006" class="edge">
<title>Node3&#45;&gt;Node6</title>
<g id="a_edge11_Node000003_Node000006"><a xlink:title=" ">
<path fill="none" stroke="#63b8ff" d="M302.61,-109.66C290.68,-91.77 263.5,-51 247.96,-27.69"/>
<polygon fill="#63b8ff" stroke="#63b8ff" points="250.73,-25.54 242.27,-19.16 244.91,-29.42 250.73,-25.54"/>
</a>
</g>
</g>
<!-- Node3&#45;&gt;Node10 -->
<g id="edge14_Node000003_Node000010" class="edge">
<title>Node3&#45;&gt;Node10</title>
<g id="a_edge14_Node000003_Node000010"><a xlink:title=" ">
<path fill="none" stroke="#63b8ff" d="M315.78,-109.66C330.66,-91.61 364.72,-50.28 383.84,-27.08"/>
<polygon fill="#63b8ff" stroke="#63b8ff" points="386.71,-29.1 390.36,-19.16 381.3,-24.65 386.71,-29.1"/>
</a>
</g>
</g>
<!-- Node3&#45;&gt;Node11 -->
<g id="edge12_Node000003_Node000011" class="edge">
<title>Node3&#45;&gt;Node11</title>
<g id="a_edge12_Node000003_Node000011"><a xlink:title=" ">
<path fill="none" stroke="#63b8ff" d="M287.29,-109.98C265.77,-101.34 232.22,-87.87 207.67,-78.02"/>
<polygon fill="#63b8ff" stroke="#63b8ff" points="208.68,-74.65 198.09,-74.17 206.07,-81.14 208.68,-74.65"/>
</a>
</g>
</g>
<!-- Node3&#45;&gt;Node12 -->
<g id="edge13_Node000003_Node000012" class="edge">
<title>Node3&#45;&gt;Node12</title>
<g id="a_edge13_Node000003_Node000012"><a xlink:title=" ">
<path fill="none" stroke="#63b8ff" d="M268.32,-110.28C223.25,-101.06 150.06,-86.08 100.87,-76.01"/>
<polygon fill="#63b8ff" stroke="#63b8ff" points="101.56,-72.58 91.07,-74.01 100.16,-79.44 101.56,-72.58"/>
</a>
</g>
</g>
<!-- Node3&#45;&gt;Node13 -->
<g id="edge15_Node000003_Node000013" class="edge">
<title>Node3&#45;&gt;Node13</title>
<g id="a_edge15_Node000003_Node000013"><a xlink:title=" ">
<path fill="none" stroke="#63b8ff" d="M328.1,-109.98C347.82,-101.42 378.45,-88.11 401.08,-78.28"/>
<polygon fill="#63b8ff" stroke="#63b8ff" points="402.76,-81.37 410.54,-74.17 399.98,-74.94 402.76,-81.37"/>
</a>
</g>
</g>
<!-- Node4&#45;&gt;Node5 -->
<g id="edge4_Node000004_Node000005" class="edge">
<title>Node4&#45;&gt;Node5</title>
<g id="a_edge4_Node000004_Node000005"><a xlink:title=" ">
<path fill="none" stroke="#63b8ff" d="M476.94,-54.98C445.78,-46.01 396.53,-31.82 362.04,-21.89"/>
<polygon fill="#63b8ff" stroke="#63b8ff" points="362.87,-18.49 352.29,-19.08 360.93,-25.21 362.87,-18.49"/>
</a>
</g>
</g>
<!-- Node4&#45;&gt;Node6 -->
<g id="edge5_Node000004_Node000006" class="edge">
<title>Node4&#45;&gt;Node6</title>
<g id="a_edge5_Node000004_Node000006"><a xlink:title=" ">
<path fill="none" stroke="#63b8ff" d="M472.23,-56.72C469.28,-56.14 466.34,-55.56 463.5,-55 384.43,-39.49 362.32,-35.6 280.44,-19.37"/>
<polygon fill="#63b8ff" stroke="#63b8ff" points="280.91,-15.9 270.42,-17.39 279.55,-22.77 280.91,-15.9"/>
</a>
</g>
</g>
<!-- Node7 -->
<g id="Node000007" class="node">
<title>Node7</title>
<g id="a_Node000007"><a xlink:title=" ">
<polygon fill="#e0e0e0" stroke="#999999" points="535.5,-19 437.5,-19 437.5,0 535.5,0 535.5,-19"/>
<text text-anchor="middle" x="486.5" y="-7" font-family="Helvetica,sans-Serif" font-size="10.00">clang/AST/Decl.h</text>
</a>
</g>
</g>
<!-- Node4&#45;&gt;Node7 -->
<g id="edge6_Node000004_Node000007" class="edge">
<title>Node4&#45;&gt;Node7</title>
<g id="a_edge6_Node000004_Node000007"><a xlink:title=" ">
<path fill="none" stroke="#63b8ff" d="M503.2,-54.75C500.52,-47.65 496.65,-37.4 493.31,-28.56"/>
<polygon fill="#63b8ff" stroke="#63b8ff" points="496.55,-27.21 489.74,-19.09 490,-29.68 496.55,-27.21"/>
</a>
</g>
</g>
<!-- Node8 -->
<g id="Node000008" class="node">
<title>Node8</title>
<g id="a_Node000008"><a xlink:title=" ">
<polygon fill="#e0e0e0" stroke="#999999" points="766,-19 629,-19 629,0 766,0 766,-19"/>
<text text-anchor="middle" x="697.5" y="-7" font-family="Helvetica,sans-Serif" font-size="10.00">clang/AST/PrettyPrinter.h</text>
</a>
</g>
</g>
<!-- Node4&#45;&gt;Node8 -->
<g id="edge7_Node000004_Node000008" class="edge">
<title>Node4&#45;&gt;Node8</title>
<g id="a_edge7_Node000004_Node000008"><a xlink:title=" ">
<path fill="none" stroke="#63b8ff" d="M537.19,-54.98C569.67,-45.97 621.1,-31.7 656.91,-21.76"/>
<polygon fill="#63b8ff" stroke="#63b8ff" points="657.87,-25.13 666.57,-19.08 656,-18.38 657.87,-25.13"/>
</a>
</g>
</g>
<!-- Node9 -->
<g id="Node000009" class="node">
<title>Node9</title>
<g id="a_Node000009"><a xlink:title=" ">
<polygon fill="#e0e0e0" stroke="#999999" points="611,-19 554,-19 554,0 611,0 611,-19"/>
<text text-anchor="middle" x="582.5" y="-7" font-family="Helvetica,sans-Serif" font-size="10.00">ostream</text>
</a>
</g>
</g>
<!-- Node4&#45;&gt;Node9 -->
<g id="edge8_Node000004_Node000009" class="edge">
<title>Node4&#45;&gt;Node9</title>
<g id="a_edge8_Node000004_Node000009"><a xlink:title=" ">
<path fill="none" stroke="#63b8ff" d="M518.71,-54.98C530.28,-46.92 547.88,-34.65 561.66,-25.03"/>
<polygon fill="#63b8ff" stroke="#63b8ff" points="563.87,-27.76 570.07,-19.17 559.86,-22.02 563.87,-27.76"/>
</a>
</g>
</g>
<!-- Node4&#45;&gt;Node10 -->
<g id="edge9_Node000004_Node000010" class="edge">
<title>Node4&#45;&gt;Node10</title>
<g id="a_edge9_Node000004_Node000010"><a xlink:title=" ">
<path fill="none" stroke="#63b8ff" d="M488.99,-54.98C471.53,-46.5 444.49,-33.35 424.33,-23.54"/>
<polygon fill="#63b8ff" stroke="#63b8ff" points="425.86,-20.4 415.33,-19.17 422.79,-26.69 425.86,-20.4"/>
</a>
</g>
</g>
<!-- Node14&#45;&gt;Node4 -->
<g id="edge23_Node000014_Node000004" class="edge">
<title>Node14&#45;&gt;Node4</title>
<g id="a_edge23_Node000014_Node000004"><a xlink:title=" ">
<path fill="none" stroke="#63b8ff" d="M517.35,-109.75C515.63,-102.72 513.15,-92.62 511,-83.84"/>
<polygon fill="#63b8ff" stroke="#63b8ff" points="514.39,-82.97 508.61,-74.09 507.59,-84.63 514.39,-82.97"/>
</a>
</g>
</g>
<!-- Node14&#45;&gt;Node8 -->
<g id="edge24_Node000014_Node000008" class="edge">
<title>Node14&#45;&gt;Node8</title>
<g id="a_edge24_Node000014_Node000008"><a xlink:title=" ">
<path fill="none" stroke="#63b8ff" d="M533.77,-109.84C564.49,-91.2 637.15,-47.11 674.48,-24.46"/>
<polygon fill="#63b8ff" stroke="#63b8ff" points="676.43,-27.38 683.17,-19.2 672.8,-21.39 676.43,-27.38"/>
</a>
</g>
</g>
<!-- Node14&#45;&gt;Node10 -->
<g id="edge25_Node000014_Node000010" class="edge">
<title>Node14&#45;&gt;Node10</title>
<g id="a_edge25_Node000014_Node000010"><a xlink:title=" ">
<path fill="none" stroke="#63b8ff" d="M529.34,-109.68C542.48,-96.82 562.66,-72.56 549.5,-55 547.65,-52.52 473.27,-31.53 429.26,-19.29"/>
<polygon fill="#63b8ff" stroke="#63b8ff" points="430.15,-15.9 419.58,-16.6 428.27,-22.65 430.15,-15.9"/>
</a>
</g>
</g>
<!-- Node14&#45;&gt;Node13 -->
<g id="edge26_Node000014_Node000013" class="edge">
<title>Node14&#45;&gt;Node13</title>
<g id="a_edge26_Node000014_Node000013"><a xlink:title=" ">
<path fill="none" stroke="#63b8ff" d="M505.2,-109.98C491.4,-101.77 470.26,-89.18 453.99,-79.49"/>
<polygon fill="#63b8ff" stroke="#63b8ff" points="455.44,-76.28 445.06,-74.17 451.86,-82.29 455.44,-76.28"/>
</a>
</g>
</g>
</g>
</svg>
