<?xml version="1.0" encoding="UTF-8" standalone="no"?>
<!DOCTYPE svg PUBLIC "-//W3C//DTD SVG 1.1//EN"
 "http://www.w3.org/Graphics/SVG/1.1/DTD/svg11.dtd">
<!-- Generated by graphviz version 2.43.0 (0)
 -->
<!-- Title: src/Template.cpp Pages: 1 -->
<svg width="824pt" height="247pt"
 viewBox="0.00 0.00 823.90 247.00" xmlns="http://www.w3.org/2000/svg" xmlns:xlink="http://www.w3.org/1999/xlink">
<g id="graph0" class="graph" transform="scale(1 1) rotate(0) translate(4 243)">
<title>src/Template.cpp</title>
<!-- Node1 -->
<g id="Node000001" class="node">
<title>Node1</title>
<g id="a_Node000001"><a xlink:title=" ">
<polygon fill="#999999" stroke="#666666" points="463.9,-239 364.9,-239 364.9,-220 463.9,-220 463.9,-239"/>
<text text-anchor="middle" x="414.4" y="-227" font-family="Helvetica,sans-Serif" font-size="10.00">src/Template.cpp</text>
</a>
</g>
</g>
<!-- Node2 -->
<g id="Node000002" class="node">
<title>Node2</title>
<g id="a_Node000002"><a xlink:href="Template_8hpp.html" target="_top" xlink:title=" ">
<polygon fill="white" stroke="#666666" points="348.9,-184 265.9,-184 265.9,-165 348.9,-165 348.9,-184"/>
<text text-anchor="middle" x="307.4" y="-172" font-family="Helvetica,sans-Serif" font-size="10.00">Template.hpp</text>
</a>
</g>
</g>
<!-- Node1&#45;&gt;Node2 -->
<g id="edge1_Node000001_Node000002" class="edge">
<title>Node1&#45;&gt;Node2</title>
<g id="a_edge1_Node000001_Node000002"><a xlink:title=" ">
<path fill="none" stroke="#63b8ff" d="M397.21,-219.98C380.15,-211.54 353.77,-198.47 334,-188.68"/>
<polygon fill="#63b8ff" stroke="#63b8ff" points="335.42,-185.47 324.9,-184.17 332.31,-191.75 335.42,-185.47"/>
</a>
</g>
</g>
<!-- Node7 -->
<g id="Node000007" class="node">
<title>Node7</title>
<g id="a_Node000007"><a xlink:href="Injection_8hpp.html" target="_top" xlink:title=" ">
<polygon fill="white" stroke="#666666" points="403.4,-129 323.4,-129 323.4,-110 403.4,-110 403.4,-129"/>
<text text-anchor="middle" x="363.4" y="-117" font-family="Helvetica,sans-Serif" font-size="10.00">Injection.hpp</text>
</a>
</g>
</g>
<!-- Node1&#45;&gt;Node7 -->
<g id="edge22_Node000001_Node000007" class="edge">
<title>Node1&#45;&gt;Node7</title>
<g id="a_edge22_Node000001_Node000007"><a xlink:title=" ">
<path fill="none" stroke="#63b8ff" d="M410.22,-219.66C401.85,-201.93 382.87,-161.73 371.81,-138.32"/>
<polygon fill="#63b8ff" stroke="#63b8ff" points="374.92,-136.71 367.49,-129.16 368.59,-139.7 374.92,-136.71"/>
</a>
</g>
</g>
<!-- Node14 -->
<g id="Node000014" class="node">
<title>Node14</title>
<g id="a_Node000014"><a xlink:title=" ">
<polygon fill="#e0e0e0" stroke="#999999" points="498.9,-184 405.9,-184 405.9,-165 498.9,-165 498.9,-184"/>
<text text-anchor="middle" x="452.4" y="-172" font-family="Helvetica,sans-Serif" font-size="10.00">spdlog/spdlog.h</text>
</a>
</g>
</g>
<!-- Node1&#45;&gt;Node14 -->
<g id="edge21_Node000001_Node000014" class="edge">
<title>Node1&#45;&gt;Node14</title>
<g id="a_edge21_Node000001_Node000014"><a xlink:title=" ">
<path fill="none" stroke="#63b8ff" d="M420.67,-219.75C425.98,-212.34 433.75,-201.5 440.27,-192.41"/>
<polygon fill="#63b8ff" stroke="#63b8ff" points="443.26,-194.26 446.24,-184.09 437.57,-190.18 443.26,-194.26"/>
</a>
</g>
</g>
<!-- Node15 -->
<g id="Node000015" class="node">
<title>Node15</title>
<g id="a_Node000015"><a xlink:href="Parsing_8hpp.html" target="_top" xlink:title="Helper functions for parsing information from AST nodes.">
<polygon fill="white" stroke="#666666" points="599.9,-129 526.9,-129 526.9,-110 599.9,-110 599.9,-129"/>
<text text-anchor="middle" x="563.4" y="-117" font-family="Helvetica,sans-Serif" font-size="10.00">Parsing.hpp</text>
</a>
</g>
</g>
<!-- Node1&#45;&gt;Node15 -->
<g id="edge23_Node000001_Node000015" class="edge">
<title>Node1&#45;&gt;Node15</title>
<g id="a_edge23_Node000001_Node000015"><a xlink:title=" ">
<path fill="none" stroke="#63b8ff" d="M439.51,-219.9C459.4,-212.34 487.26,-200.05 508.4,-184 525.74,-170.83 541.56,-151.42 551.73,-137.54"/>
<polygon fill="#63b8ff" stroke="#63b8ff" points="554.63,-139.51 557.57,-129.33 548.92,-135.45 554.63,-139.51"/>
</a>
</g>
</g>
<!-- Node3 -->
<g id="Node000003" class="node">
<title>Node3</title>
<g id="a_Node000003"><a xlink:title=" ">
<polygon fill="#e0e0e0" stroke="#999999" points="341.4,-19 297.4,-19 297.4,0 341.4,0 341.4,-19"/>
<text text-anchor="middle" x="319.4" y="-7" font-family="Helvetica,sans-Serif" font-size="10.00">string</text>
</a>
</g>
</g>
<!-- Node2&#45;&gt;Node3 -->
<g id="edge2_Node000002_Node000003" class="edge">
<title>Node2&#45;&gt;Node3</title>
<g id="a_edge2_Node000002_Node000003"><a xlink:title=" ">
<path fill="none" stroke="#63b8ff" d="M265.55,-171.2C168.47,-164.4 -58.46,-139.26 14.4,-55 49.35,-14.57 215.44,-10.14 286.75,-10.15"/>
<polygon fill="#63b8ff" stroke="#63b8ff" points="286.94,-13.65 296.95,-10.18 286.96,-6.65 286.94,-13.65"/>
</a>
</g>
</g>
<!-- Node4 -->
<g id="Node000004" class="node">
<title>Node4</title>
<g id="a_Node000004"><a xlink:title=" ">
<polygon fill="#e0e0e0" stroke="#999999" points="537.9,-74 490.9,-74 490.9,-55 537.9,-55 537.9,-74"/>
<text text-anchor="middle" x="514.4" y="-62" font-family="Helvetica,sans-Serif" font-size="10.00">vector</text>
</a>
</g>
</g>
<!-- Node2&#45;&gt;Node4 -->
<g id="edge3_Node000002_Node000004" class="edge">
<title>Node2&#45;&gt;Node4</title>
<g id="a_edge3_Node000002_Node000004"><a xlink:title=" ">
<path fill="none" stroke="#63b8ff" d="M330.4,-164.95C351.99,-156.64 384.98,-143.23 412.4,-129 441.46,-113.91 473.23,-93.46 493.46,-79.88"/>
<polygon fill="#63b8ff" stroke="#63b8ff" points="495.57,-82.68 501.89,-74.18 491.65,-76.88 495.57,-82.68"/>
</a>
</g>
</g>
<!-- Node5 -->
<g id="Node000005" class="node">
<title>Node5</title>
<g id="a_Node000005"><a xlink:title=" ">
<polygon fill="#e0e0e0" stroke="#999999" points="259.9,-74 140.9,-74 140.9,-55 259.9,-55 259.9,-74"/>
<text text-anchor="middle" x="200.4" y="-62" font-family="Helvetica,sans-Serif" font-size="10.00">clang/AST/DeclCXX.h</text>
</a>
</g>
</g>
<!-- Node2&#45;&gt;Node5 -->
<g id="edge4_Node000002_Node000005" class="edge">
<title>Node2&#45;&gt;Node5</title>
<g id="a_edge4_Node000002_Node000005"><a xlink:title=" ">
<path fill="none" stroke="#63b8ff" d="M298.64,-164.66C280.6,-146.46 239.08,-104.55 216.22,-81.47"/>
<polygon fill="#63b8ff" stroke="#63b8ff" points="218.5,-78.8 208.97,-74.16 213.53,-83.73 218.5,-78.8"/>
</a>
</g>
</g>
<!-- Node6 -->
<g id="Node000006" class="node">
<title>Node6</title>
<g id="a_Node000006"><a xlink:title=" ">
<polygon fill="#e0e0e0" stroke="#999999" points="122.9,-74 23.9,-74 23.9,-55 122.9,-55 122.9,-74"/>
<text text-anchor="middle" x="73.4" y="-62" font-family="Helvetica,sans-Serif" font-size="10.00">clang/AST/Type.h</text>
</a>
</g>
</g>
<!-- Node2&#45;&gt;Node6 -->
<g id="edge5_Node000002_Node000006" class="edge">
<title>Node2&#45;&gt;Node6</title>
<g id="a_edge5_Node000002_Node000006"><a xlink:title=" ">
<path fill="none" stroke="#63b8ff" d="M288.64,-164.84C247.55,-145.88 149.4,-100.58 101.14,-78.31"/>
<polygon fill="#63b8ff" stroke="#63b8ff" points="102.46,-75.06 91.91,-74.05 99.53,-81.42 102.46,-75.06"/>
</a>
</g>
</g>
<!-- Node2&#45;&gt;Node7 -->
<g id="edge6_Node000002_Node000007" class="edge">
<title>Node2&#45;&gt;Node7</title>
<g id="a_edge6_Node000002_Node000007"><a xlink:title=" ">
<path fill="none" stroke="#63b8ff" d="M316.39,-164.98C324.59,-157.23 336.9,-145.58 346.87,-136.14"/>
<polygon fill="#63b8ff" stroke="#63b8ff" points="349.38,-138.59 354.24,-129.17 344.57,-133.5 349.38,-138.59"/>
</a>
</g>
</g>
<!-- Node11 -->
<g id="Node000011" class="node">
<title>Node11</title>
<g id="a_Node000011"><a xlink:href="Param_8hpp.html" target="_top" xlink:title=" ">
<polygon fill="white" stroke="#666666" points="662.4,-74 594.4,-74 594.4,-55 662.4,-55 662.4,-74"/>
<text text-anchor="middle" x="628.4" y="-62" font-family="Helvetica,sans-Serif" font-size="10.00">Param.hpp</text>
</a>
</g>
</g>
<!-- Node2&#45;&gt;Node11 -->
<g id="edge20_Node000002_Node000011" class="edge">
<title>Node2&#45;&gt;Node11</title>
<g id="a_edge20_Node000002_Node000011"><a xlink:title=" ">
<path fill="none" stroke="#63b8ff" d="M349,-168.56C429.52,-158.85 599.63,-137.45 609.4,-129 622.17,-117.95 626.54,-98.7 627.95,-84.28"/>
<polygon fill="#63b8ff" stroke="#63b8ff" points="631.46,-84.19 628.54,-74.01 624.47,-83.79 631.46,-84.19"/>
</a>
</g>
</g>
<!-- Node7&#45;&gt;Node3 -->
<g id="edge7_Node000007_Node000003" class="edge">
<title>Node7&#45;&gt;Node3</title>
<g id="a_edge7_Node000007_Node000003"><a xlink:title=" ">
<path fill="none" stroke="#63b8ff" d="M345.94,-109.88C332.92,-102.38 316.12,-90.18 308.4,-74 301.55,-59.66 305.69,-41.68 310.73,-28.52"/>
<polygon fill="#63b8ff" stroke="#63b8ff" points="314.02,-29.73 314.77,-19.16 307.59,-26.95 314.02,-29.73"/>
</a>
</g>
</g>
<!-- Node7&#45;&gt;Node4 -->
<g id="edge8_Node000007_Node000004" class="edge">
<title>Node7&#45;&gt;Node4</title>
<g id="a_edge8_Node000007_Node000004"><a xlink:title=" ">
<path fill="none" stroke="#63b8ff" d="M387.66,-109.98C413.01,-101.09 452.97,-87.06 481.23,-77.14"/>
<polygon fill="#63b8ff" stroke="#63b8ff" points="482.42,-80.43 490.69,-73.82 480.1,-73.83 482.42,-80.43"/>
</a>
</g>
</g>
<!-- Node7&#45;&gt;Node5 -->
<g id="edge12_Node000007_Node000005" class="edge">
<title>Node7&#45;&gt;Node5</title>
<g id="a_edge12_Node000007_Node000005"><a xlink:title=" ">
<path fill="none" stroke="#63b8ff" d="M337.21,-109.98C309.96,-101.13 267.1,-87.19 236.61,-77.28"/>
<polygon fill="#63b8ff" stroke="#63b8ff" points="237.38,-73.85 226.79,-74.08 235.22,-80.5 237.38,-73.85"/>
</a>
</g>
</g>
<!-- Node7&#45;&gt;Node6 -->
<g id="edge13_Node000007_Node000006" class="edge">
<title>Node7&#45;&gt;Node6</title>
<g id="a_edge13_Node000007_Node000006"><a xlink:title=" ">
<path fill="none" stroke="#63b8ff" d="M323.38,-111.19C273.25,-102.02 187.04,-86.27 130.12,-75.87"/>
<polygon fill="#63b8ff" stroke="#63b8ff" points="130.66,-72.41 120.2,-74.05 129.41,-79.29 130.66,-72.41"/>
</a>
</g>
</g>
<!-- Node8 -->
<g id="Node000008" class="node">
<title>Node8</title>
<g id="a_Node000008"><a xlink:title=" ">
<polygon fill="#e0e0e0" stroke="#999999" points="458.9,-19 389.9,-19 389.9,0 458.9,0 458.9,-19"/>
<text text-anchor="middle" x="424.4" y="-7" font-family="Helvetica,sans-Serif" font-size="10.00">fmt/color.h</text>
</a>
</g>
</g>
<!-- Node7&#45;&gt;Node8 -->
<g id="edge9_Node000007_Node000008" class="edge">
<title>Node7&#45;&gt;Node8</title>
<g id="a_edge9_Node000007_Node000008"><a xlink:title=" ">
<path fill="none" stroke="#63b8ff" d="M374.19,-109.68C383.68,-101.39 397.22,-88.17 405.4,-74 413.41,-60.13 418.32,-42.56 421.14,-29.43"/>
<polygon fill="#63b8ff" stroke="#63b8ff" points="424.65,-29.71 423.11,-19.22 417.78,-28.38 424.65,-29.71"/>
</a>
</g>
</g>
<!-- Node9 -->
<g id="Node000009" class="node">
<title>Node9</title>
<g id="a_Node000009"><a xlink:title=" ">
<polygon fill="#e0e0e0" stroke="#999999" points="543.9,-19 476.9,-19 476.9,0 543.9,0 543.9,-19"/>
<text text-anchor="middle" x="510.4" y="-7" font-family="Helvetica,sans-Serif" font-size="10.00">fmt/core.h</text>
</a>
</g>
</g>
<!-- Node7&#45;&gt;Node9 -->
<g id="edge10_Node000007_Node000009" class="edge">
<title>Node7&#45;&gt;Node9</title>
<g id="a_edge10_Node000007_Node000009"><a xlink:title=" ">
<path fill="none" stroke="#63b8ff" d="M375.18,-109.84C400.23,-91.44 459.04,-48.23 490.2,-25.34"/>
<polygon fill="#63b8ff" stroke="#63b8ff" points="492.57,-27.94 498.56,-19.2 488.43,-22.3 492.57,-27.94"/>
</a>
</g>
</g>
<!-- Node10 -->
<g id="Node000010" class="node">
<title>Node10</title>
<g id="a_Node000010"><a xlink:title=" ">
<polygon fill="#e0e0e0" stroke="#999999" points="395.9,-74 316.9,-74 316.9,-55 395.9,-55 395.9,-74"/>
<text text-anchor="middle" x="356.4" y="-62" font-family="Helvetica,sans-Serif" font-size="10.00">fmt/ranges.h</text>
</a>
</g>
</g>
<!-- Node7&#45;&gt;Node10 -->
<g id="edge11_Node000007_Node000010" class="edge">
<title>Node7&#45;&gt;Node10</title>
<g id="a_edge11_Node000007_Node000010"><a xlink:title=" ">
<path fill="none" stroke="#63b8ff" d="M362.24,-109.75C361.32,-102.8 360.01,-92.85 358.86,-84.13"/>
<polygon fill="#63b8ff" stroke="#63b8ff" points="362.31,-83.54 357.53,-74.09 355.37,-84.46 362.31,-83.54"/>
</a>
</g>
</g>
<!-- Node7&#45;&gt;Node11 -->
<g id="edge14_Node000007_Node000011" class="edge">
<title>Node7&#45;&gt;Node11</title>
<g id="a_edge14_Node000007_Node000011"><a xlink:title=" ">
<path fill="none" stroke="#63b8ff" d="M403.64,-110.45C452.27,-100.72 533.82,-84.42 584.17,-74.35"/>
<polygon fill="#63b8ff" stroke="#63b8ff" points="584.99,-77.75 594.11,-72.36 583.61,-70.89 584.99,-77.75"/>
</a>
</g>
</g>
<!-- Node11&#45;&gt;Node3 -->
<g id="edge15_Node000011_Node000003" class="edge">
<title>Node11&#45;&gt;Node3</title>
<g id="a_edge15_Node000011_Node000003"><a xlink:title=" ">
<path fill="none" stroke="#63b8ff" d="M594.31,-57.44C589.64,-56.61 584.9,-55.78 580.4,-55 497.91,-40.67 400.68,-24.2 351.44,-15.9"/>
<polygon fill="#63b8ff" stroke="#63b8ff" points="351.85,-12.41 341.4,-14.2 350.68,-19.32 351.85,-12.41"/>
</a>
</g>
</g>
<!-- Node11&#45;&gt;Node8 -->
<g id="edge16_Node000011_Node000008" class="edge">
<title>Node11&#45;&gt;Node8</title>
<g id="a_edge16_Node000011_Node000008"><a xlink:title=" ">
<path fill="none" stroke="#63b8ff" d="M595.62,-54.98C560.78,-45.93 505.53,-31.58 467.26,-21.64"/>
<polygon fill="#63b8ff" stroke="#63b8ff" points="467.99,-18.21 457.43,-19.08 466.23,-24.98 467.99,-18.21"/>
</a>
</g>
</g>
<!-- Node11&#45;&gt;Node9 -->
<g id="edge17_Node000011_Node000009" class="edge">
<title>Node11&#45;&gt;Node9</title>
<g id="a_edge17_Node000011_Node000009"><a xlink:title=" ">
<path fill="none" stroke="#63b8ff" d="M609.44,-54.98C590.37,-46.42 560.74,-33.11 538.85,-23.28"/>
<polygon fill="#63b8ff" stroke="#63b8ff" points="540.26,-20.07 529.7,-19.17 537.39,-26.46 540.26,-20.07"/>
</a>
</g>
</g>
<!-- Node12 -->
<g id="Node000012" class="node">
<title>Node12</title>
<g id="a_Node000012"><a xlink:title=" ">
<polygon fill="#e0e0e0" stroke="#999999" points="660.4,-19 562.4,-19 562.4,0 660.4,0 660.4,-19"/>
<text text-anchor="middle" x="611.4" y="-7" font-family="Helvetica,sans-Serif" font-size="10.00">clang/AST/Decl.h</text>
</a>
</g>
</g>
<!-- Node11&#45;&gt;Node12 -->
<g id="edge18_Node000011_Node000012" class="edge">
<title>Node11&#45;&gt;Node12</title>
<g id="a_edge18_Node000011_Node000012"><a xlink:title=" ">
<path fill="none" stroke="#63b8ff" d="M625.59,-54.75C623.34,-47.72 620.1,-37.62 617.28,-28.84"/>
<polygon fill="#63b8ff" stroke="#63b8ff" points="620.54,-27.54 614.15,-19.09 613.87,-29.68 620.54,-27.54"/>
</a>
</g>
</g>
<!-- Node13 -->
<g id="Node000013" class="node">
<title>Node13</title>
<g id="a_Node000013"><a xlink:title=" ">
<polygon fill="#e0e0e0" stroke="#999999" points="815.9,-19 678.9,-19 678.9,0 815.9,0 815.9,-19"/>
<text text-anchor="middle" x="747.4" y="-7" font-family="Helvetica,sans-Serif" font-size="10.00">clang/AST/PrettyPrinter.h</text>
</a>
</g>
</g>
<!-- Node11&#45;&gt;Node13 -->
<g id="edge19_Node000011_Node000013" class="edge">
<title>Node11&#45;&gt;Node13</title>
<g id="a_edge19_Node000011_Node000013"><a xlink:title=" ">
<path fill="none" stroke="#63b8ff" d="M647.52,-54.98C666.75,-46.42 696.63,-33.11 718.7,-23.28"/>
<polygon fill="#63b8ff" stroke="#63b8ff" points="720.22,-26.44 727.93,-19.17 717.37,-20.04 720.22,-26.44"/>
</a>
</g>
</g>
<!-- Node15&#45;&gt;Node3 -->
<g id="edge24_Node000015_Node000003" class="edge">
<title>Node15&#45;&gt;Node3</title>
<g id="a_edge24_Node000015_Node000003"><a xlink:title=" ">
<path fill="none" stroke="#63b8ff" d="M563.92,-109.67C564.2,-95.9 562.58,-69.39 547.4,-55 533.28,-41.62 410.96,-23.14 351.53,-14.84"/>
<polygon fill="#63b8ff" stroke="#63b8ff" points="351.93,-11.36 341.55,-13.46 350.97,-18.29 351.93,-11.36"/>
</a>
</g>
</g>
<!-- Node15&#45;&gt;Node4 -->
<g id="edge25_Node000015_Node000004" class="edge">
<title>Node15&#45;&gt;Node4</title>
<g id="a_edge25_Node000015_Node000004"><a xlink:title=" ">
<path fill="none" stroke="#63b8ff" d="M555.31,-109.75C548.24,-102.11 537.81,-90.82 529.25,-81.56"/>
<polygon fill="#63b8ff" stroke="#63b8ff" points="531.7,-79.06 522.34,-74.09 526.56,-83.81 531.7,-79.06"/>
</a>
</g>
</g>
<!-- Node15&#45;&gt;Node11 -->
<g id="edge27_Node000015_Node000011" class="edge">
<title>Node15&#45;&gt;Node11</title>
<g id="a_edge27_Node000015_Node000011"><a xlink:title=" ">
<path fill="none" stroke="#63b8ff" d="M573.84,-109.98C583.54,-102.07 598.21,-90.11 609.9,-80.58"/>
<polygon fill="#63b8ff" stroke="#63b8ff" points="612.22,-83.2 617.76,-74.17 607.8,-77.78 612.22,-83.2"/>
</a>
</g>
</g>
<!-- Node15&#45;&gt;Node13 -->
<g id="edge26_Node000015_Node000013" class="edge">
<title>Node15&#45;&gt;Node13</title>
<g id="a_edge26_Node000015_Node000013"><a xlink:title=" ">
<path fill="none" stroke="#63b8ff" d="M590.67,-109.86C613.19,-102.14 645.53,-89.62 671.4,-74 694,-60.35 716.83,-40.23 731.48,-26.31"/>
<polygon fill="#63b8ff" stroke="#63b8ff" points="733.98,-28.76 738.73,-19.29 729.11,-23.73 733.98,-28.76"/>
</a>
</g>
</g>
</g>
</svg>
