<?xml version="1.0" encoding="UTF-8" standalone="no"?>
<!DOCTYPE svg PUBLIC "-//W3C//DTD SVG 1.1//EN"
 "http://www.w3.org/Graphics/SVG/1.1/DTD/svg11.dtd">
<!-- Generated by graphviz version 2.43.0 (0)
 -->
<!-- Title: include/Template.hpp Pages: 1 -->
<svg width="694pt" height="192pt"
 viewBox="0.00 0.00 693.50 192.00" xmlns="http://www.w3.org/2000/svg" xmlns:xlink="http://www.w3.org/1999/xlink">
<g id="graph0" class="graph" transform="scale(1 1) rotate(0) translate(4 188)">
<title>include/Template.hpp</title>
<!-- Node1 -->
<g id="Node000001" class="node">
<title>Node1</title>
<g id="a_Node000001"><a xlink:title=" ">
<polygon fill="#999999" stroke="#666666" points="292.5,-184 171.5,-184 171.5,-165 292.5,-165 292.5,-184"/>
<text text-anchor="middle" x="232" y="-172" font-family="Helvetica,sans-Serif" font-size="10.00">include/Template.hpp</text>
</a>
</g>
</g>
<!-- Node2 -->
<g id="Node000002" class="node">
<title>Node2</title>
<g id="a_Node000002"><a xlink:title=" ">
<polygon fill="#e0e0e0" stroke="#999999" points="44,-19 0,-19 0,0 44,0 44,-19"/>
<text text-anchor="middle" x="22" y="-7" font-family="Helvetica,sans-Serif" font-size="10.00">string</text>
</a>
</g>
</g>
<!-- Node1&#45;&gt;Node2 -->
<g id="edge1_Node000001_Node000002" class="edge">
<title>Node1&#45;&gt;Node2</title>
<g id="a_edge1_Node000001_Node000002"><a xlink:title=" ">
<path fill="none" stroke="#63b8ff" d="M197.26,-164.96C153.83,-152.45 80.33,-124.91 40,-74 29.88,-61.23 25.45,-43.06 23.51,-29.42"/>
<polygon fill="#63b8ff" stroke="#63b8ff" points="26.97,-28.81 22.4,-19.25 20.01,-29.57 26.97,-28.81"/>
</a>
</g>
</g>
<!-- Node3 -->
<g id="Node000003" class="node">
<title>Node3</title>
<g id="a_Node000003"><a xlink:title=" ">
<polygon fill="#e0e0e0" stroke="#999999" points="96.5,-74 49.5,-74 49.5,-55 96.5,-55 96.5,-74"/>
<text text-anchor="middle" x="73" y="-62" font-family="Helvetica,sans-Serif" font-size="10.00">vector</text>
</a>
</g>
</g>
<!-- Node1&#45;&gt;Node3 -->
<g id="edge2_Node000001_Node000003" class="edge">
<title>Node1&#45;&gt;Node3</title>
<g id="a_edge2_Node000001_Node000003"><a xlink:title=" ">
<path fill="none" stroke="#63b8ff" d="M219.26,-164.84C192.04,-146.36 128,-102.86 94.41,-80.05"/>
<polygon fill="#63b8ff" stroke="#63b8ff" points="96.04,-76.92 85.8,-74.2 92.11,-82.71 96.04,-76.92"/>
</a>
</g>
</g>
<!-- Node4 -->
<g id="Node000004" class="node">
<title>Node4</title>
<g id="a_Node000004"><a xlink:title=" ">
<polygon fill="#e0e0e0" stroke="#999999" points="568.5,-74 449.5,-74 449.5,-55 568.5,-55 568.5,-74"/>
<text text-anchor="middle" x="509" y="-62" font-family="Helvetica,sans-Serif" font-size="10.00">clang/AST/DeclCXX.h</text>
</a>
</g>
</g>
<!-- Node1&#45;&gt;Node4 -->
<g id="edge3_Node000001_Node000004" class="edge">
<title>Node1&#45;&gt;Node4</title>
<g id="a_edge3_Node000001_Node000004"><a xlink:title=" ">
<path fill="none" stroke="#63b8ff" d="M254.2,-164.84C303.25,-145.72 420.98,-99.82 477.57,-77.75"/>
<polygon fill="#63b8ff" stroke="#63b8ff" points="479.03,-80.94 487.08,-74.05 476.49,-74.42 479.03,-80.94"/>
</a>
</g>
</g>
<!-- Node5 -->
<g id="Node000005" class="node">
<title>Node5</title>
<g id="a_Node000005"><a xlink:title=" ">
<polygon fill="#e0e0e0" stroke="#999999" points="685.5,-74 586.5,-74 586.5,-55 685.5,-55 685.5,-74"/>
<text text-anchor="middle" x="636" y="-62" font-family="Helvetica,sans-Serif" font-size="10.00">clang/AST/Type.h</text>
</a>
</g>
</g>
<!-- Node1&#45;&gt;Node5 -->
<g id="edge4_Node000001_Node000005" class="edge">
<title>Node1&#45;&gt;Node5</title>
<g id="a_edge4_Node000001_Node000005"><a xlink:title=" ">
<path fill="none" stroke="#63b8ff" d="M264.04,-164.94C336.52,-145.56 513.08,-98.36 594.1,-76.7"/>
<polygon fill="#63b8ff" stroke="#63b8ff" points="595.2,-80.03 603.96,-74.07 593.39,-73.27 595.2,-80.03"/>
</a>
</g>
</g>
<!-- Node6 -->
<g id="Node000006" class="node">
<title>Node6</title>
<g id="a_Node000006"><a xlink:href="Injection_8hpp.html" target="_top" xlink:title=" ">
<polygon fill="white" stroke="#666666" points="327,-129 247,-129 247,-110 327,-110 327,-129"/>
<text text-anchor="middle" x="287" y="-117" font-family="Helvetica,sans-Serif" font-size="10.00">Injection.hpp</text>
</a>
</g>
</g>
<!-- Node1&#45;&gt;Node6 -->
<g id="edge5_Node000001_Node000006" class="edge">
<title>Node1&#45;&gt;Node6</title>
<g id="a_edge5_Node000001_Node000006"><a xlink:title=" ">
<path fill="none" stroke="#63b8ff" d="M241.08,-164.75C249.09,-157.03 260.96,-145.6 270.62,-136.28"/>
<polygon fill="#63b8ff" stroke="#63b8ff" points="273.31,-138.55 278.09,-129.09 268.46,-133.51 273.31,-138.55"/>
</a>
</g>
</g>
<!-- Node9 -->
<g id="Node000009" class="node">
<title>Node9</title>
<g id="a_Node000009"><a xlink:href="Param_8hpp.html" target="_top" xlink:title=" ">
<polygon fill="white" stroke="#666666" points="221,-74 153,-74 153,-55 221,-55 221,-74"/>
<text text-anchor="middle" x="187" y="-62" font-family="Helvetica,sans-Serif" font-size="10.00">Param.hpp</text>
</a>
</g>
</g>
<!-- Node1&#45;&gt;Node9 -->
<g id="edge18_Node000001_Node000009" class="edge">
<title>Node1&#45;&gt;Node9</title>
<g id="a_edge18_Node000001_Node000009"><a xlink:title=" ">
<path fill="none" stroke="#63b8ff" d="M228.32,-164.66C220.96,-147.01 204.33,-107.09 194.56,-83.64"/>
<polygon fill="#63b8ff" stroke="#63b8ff" points="197.68,-82.04 190.61,-74.16 191.22,-84.74 197.68,-82.04"/>
</a>
</g>
</g>
<!-- Node6&#45;&gt;Node2 -->
<g id="edge7_Node000006_Node000002" class="edge">
<title>Node6&#45;&gt;Node2</title>
<g id="a_edge7_Node000006_Node000002"><a xlink:title=" ">
<path fill="none" stroke="#63b8ff" d="M253.76,-109.97C224.39,-102 180.66,-89.1 144,-74 134.25,-69.98 79.91,-41.3 47.13,-23.89"/>
<polygon fill="#63b8ff" stroke="#63b8ff" points="48.59,-20.7 38.12,-19.09 45.3,-26.88 48.59,-20.7"/>
</a>
</g>
</g>
<!-- Node6&#45;&gt;Node3 -->
<g id="edge8_Node000006_Node000003" class="edge">
<title>Node6&#45;&gt;Node3</title>
<g id="a_edge8_Node000006_Node000003"><a xlink:title=" ">
<path fill="none" stroke="#63b8ff" d="M252.62,-109.98C212.4,-100.02 146.28,-83.65 106.46,-73.79"/>
<polygon fill="#63b8ff" stroke="#63b8ff" points="107.25,-70.38 96.7,-71.37 105.56,-77.17 107.25,-70.38"/>
</a>
</g>
</g>
<!-- Node6&#45;&gt;Node4 -->
<g id="edge10_Node000006_Node000004" class="edge">
<title>Node6&#45;&gt;Node4</title>
<g id="a_edge10_Node000006_Node000004"><a xlink:title=" ">
<path fill="none" stroke="#63b8ff" d="M322.67,-109.98C360.83,-100.87 421.47,-86.4 463.15,-76.45"/>
<polygon fill="#63b8ff" stroke="#63b8ff" points="464.14,-79.81 473.05,-74.08 462.51,-73 464.14,-79.81"/>
</a>
</g>
</g>
<!-- Node6&#45;&gt;Node5 -->
<g id="edge11_Node000006_Node000005" class="edge">
<title>Node6&#45;&gt;Node5</title>
<g id="a_edge11_Node000006_Node000005"><a xlink:title=" ">
<path fill="none" stroke="#63b8ff" d="M327.03,-112.42C388.13,-103.14 505.02,-85.39 576.2,-74.58"/>
<polygon fill="#63b8ff" stroke="#63b8ff" points="576.99,-78 586.36,-73.04 575.94,-71.08 576.99,-78"/>
</a>
</g>
</g>
<!-- Node7 -->
<g id="Node000007" class="node">
<title>Node7</title>
<g id="a_Node000007"><a xlink:title=" ">
<polygon fill="#e0e0e0" stroke="#999999" points="431,-74 375,-74 375,-55 431,-55 431,-74"/>
<text text-anchor="middle" x="403" y="-62" font-family="Helvetica,sans-Serif" font-size="10.00">optional</text>
</a>
</g>
</g>
<!-- Node6&#45;&gt;Node7 -->
<g id="edge6_Node000006_Node000007" class="edge">
<title>Node6&#45;&gt;Node7</title>
<g id="a_edge6_Node000006_Node000007"><a xlink:title=" ">
<path fill="none" stroke="#63b8ff" d="M305.64,-109.98C324.3,-101.46 353.25,-88.23 374.74,-78.41"/>
<polygon fill="#63b8ff" stroke="#63b8ff" points="376.38,-81.51 384.02,-74.17 373.47,-75.14 376.38,-81.51"/>
</a>
</g>
</g>
<!-- Node8 -->
<g id="Node000008" class="node">
<title>Node8</title>
<g id="a_Node000008"><a xlink:title=" ">
<polygon fill="#e0e0e0" stroke="#999999" points="357,-74 239,-74 239,-55 357,-55 357,-74"/>
<text text-anchor="middle" x="298" y="-62" font-family="Helvetica,sans-Serif" font-size="10.00">llvm/ADT/StringRef.h</text>
</a>
</g>
</g>
<!-- Node6&#45;&gt;Node8 -->
<g id="edge9_Node000006_Node000008" class="edge">
<title>Node6&#45;&gt;Node8</title>
<g id="a_edge9_Node000006_Node000008"><a xlink:title=" ">
<path fill="none" stroke="#63b8ff" d="M288.82,-109.75C290.26,-102.8 292.32,-92.85 294.13,-84.13"/>
<polygon fill="#63b8ff" stroke="#63b8ff" points="297.61,-84.59 296.22,-74.09 290.76,-83.17 297.61,-84.59"/>
</a>
</g>
</g>
<!-- Node6&#45;&gt;Node9 -->
<g id="edge12_Node000006_Node000009" class="edge">
<title>Node6&#45;&gt;Node9</title>
<g id="a_edge12_Node000006_Node000009"><a xlink:title=" ">
<path fill="none" stroke="#63b8ff" d="M270.93,-109.98C255.14,-101.61 230.78,-88.7 212.37,-78.95"/>
<polygon fill="#63b8ff" stroke="#63b8ff" points="213.83,-75.76 203.36,-74.17 210.56,-81.95 213.83,-75.76"/>
</a>
</g>
</g>
<!-- Node9&#45;&gt;Node2 -->
<g id="edge14_Node000009_Node000002" class="edge">
<title>Node9&#45;&gt;Node2</title>
<g id="a_edge14_Node000009_Node000002"><a xlink:title=" ">
<path fill="none" stroke="#63b8ff" d="M160.49,-54.98C131.52,-45.68 85.1,-30.77 54.09,-20.81"/>
<polygon fill="#63b8ff" stroke="#63b8ff" points="54.8,-17.36 44.21,-17.63 52.66,-24.03 54.8,-17.36"/>
</a>
</g>
</g>
<!-- Node10 -->
<g id="Node000010" class="node">
<title>Node10</title>
<g id="a_Node000010"><a xlink:title=" ">
<polygon fill="#e0e0e0" stroke="#999999" points="119.5,-19 62.5,-19 62.5,0 119.5,0 119.5,-19"/>
<text text-anchor="middle" x="91" y="-7" font-family="Helvetica,sans-Serif" font-size="10.00">ostream</text>
</a>
</g>
</g>
<!-- Node9&#45;&gt;Node10 -->
<g id="edge13_Node000009_Node000010" class="edge">
<title>Node9&#45;&gt;Node10</title>
<g id="a_edge13_Node000009_Node000010"><a xlink:title=" ">
<path fill="none" stroke="#63b8ff" d="M171.58,-54.98C156.55,-46.69 133.46,-33.94 115.84,-24.22"/>
<polygon fill="#63b8ff" stroke="#63b8ff" points="117.15,-20.94 106.7,-19.17 113.77,-27.07 117.15,-20.94"/>
</a>
</g>
</g>
<!-- Node11 -->
<g id="Node000011" class="node">
<title>Node11</title>
<g id="a_Node000011"><a xlink:title=" ">
<polygon fill="#e0e0e0" stroke="#999999" points="236,-19 138,-19 138,0 236,0 236,-19"/>
<text text-anchor="middle" x="187" y="-7" font-family="Helvetica,sans-Serif" font-size="10.00">clang/AST/Decl.h</text>
</a>
</g>
</g>
<!-- Node9&#45;&gt;Node11 -->
<g id="edge15_Node000009_Node000011" class="edge">
<title>Node9&#45;&gt;Node11</title>
<g id="a_edge15_Node000009_Node000011"><a xlink:title=" ">
<path fill="none" stroke="#63b8ff" d="M187,-54.75C187,-47.8 187,-37.85 187,-29.13"/>
<polygon fill="#63b8ff" stroke="#63b8ff" points="190.5,-29.09 187,-19.09 183.5,-29.09 190.5,-29.09"/>
</a>
</g>
</g>
<!-- Node12 -->
<g id="Node000012" class="node">
<title>Node12</title>
<g id="a_Node000012"><a xlink:title=" ">
<polygon fill="#e0e0e0" stroke="#999999" points="418,-19 254,-19 254,0 418,0 418,-19"/>
<text text-anchor="middle" x="336" y="-7" font-family="Helvetica,sans-Serif" font-size="10.00">clang/AST/DependenceFlags.h</text>
</a>
</g>
</g>
<!-- Node9&#45;&gt;Node12 -->
<g id="edge16_Node000009_Node000012" class="edge">
<title>Node9&#45;&gt;Node12</title>
<g id="a_edge16_Node000009_Node000012"><a xlink:title=" ">
<path fill="none" stroke="#63b8ff" d="M210.94,-54.98C235.56,-46.23 274.12,-32.51 301.92,-22.62"/>
<polygon fill="#63b8ff" stroke="#63b8ff" points="303.38,-25.82 311.62,-19.17 301.03,-19.22 303.38,-25.82"/>
</a>
</g>
</g>
<!-- Node13 -->
<g id="Node000013" class="node">
<title>Node13</title>
<g id="a_Node000013"><a xlink:title=" ">
<polygon fill="#e0e0e0" stroke="#999999" points="573.5,-19 436.5,-19 436.5,0 573.5,0 573.5,-19"/>
<text text-anchor="middle" x="505" y="-7" font-family="Helvetica,sans-Serif" font-size="10.00">clang/AST/PrettyPrinter.h</text>
</a>
</g>
</g>
<!-- Node9&#45;&gt;Node13 -->
<g id="edge17_Node000009_Node000013" class="edge">
<title>Node9&#45;&gt;Node13</title>
<g id="a_edge17_Node000009_Node000013"><a xlink:title=" ">
<path fill="none" stroke="#63b8ff" d="M221.25,-56.62C224.21,-56.06 227.15,-55.51 230,-55 301.14,-42.22 382.94,-29.19 438.71,-20.57"/>
<polygon fill="#63b8ff" stroke="#63b8ff" points="439.46,-23.99 448.81,-19.01 438.39,-17.07 439.46,-23.99"/>
</a>
</g>
</g>
</g>
</svg>
