<?xml version="1.0" encoding="UTF-8" standalone="no"?>
<!DOCTYPE svg PUBLIC "-//W3C//DTD SVG 1.1//EN"
 "http://www.w3.org/Graphics/SVG/1.1/DTD/svg11.dtd">
<!-- Generated by graphviz version 2.47.1 (20210515.0534)
 -->
<!-- Title: InjectInstantiation Pages: 1 -->
<svg width="399pt" height="432pt"
 viewBox="0.00 0.00 398.50 432.00" xmlns="http://www.w3.org/2000/svg" xmlns:xlink="http://www.w3.org/1999/xlink">
<g id="graph0" class="graph" transform="scale(1 1) rotate(0) translate(4 428)">
<title>InjectInstantiation</title>
<!-- Node1 -->
<g id="node1" class="node">
<title>Node1</title>
<g id="a_node1"><a xlink:title=" ">
<polygon fill="#bfbfbf" stroke="black" points="41,-0.5 41,-19.5 135,-19.5 135,-0.5 41,-0.5"/>
<text text-anchor="middle" x="88" y="-7.5" font-family="Helvetica,sans-Serif" font-size="10.00">InjectInstantiation</text>
</a>
</g>
</g>
<!-- Node2 -->
<g id="node2" class="node">
<title>Node2</title>
<g id="a_node2"><a xlink:title=" ">
<polygon fill="none" stroke="#bfbfbf" points="0,-67.5 0,-97.5 144,-97.5 144,-67.5 0,-67.5"/>
<text text-anchor="start" x="8" y="-85.5" font-family="Helvetica,sans-Serif" font-size="10.00">clang::ast_matchers</text>
<text text-anchor="middle" x="72" y="-74.5" font-family="Helvetica,sans-Serif" font-size="10.00">::MatchFinder::MatchCallback</text>
</a>
</g>
</g>
<!-- Node2&#45;&gt;Node1 -->
<g id="edge1" class="edge">
<title>Node2&#45;&gt;Node1</title>
<path fill="none" stroke="midnightblue" d="M77.45,-57.48C80.39,-44.51 83.85,-29.29 85.98,-19.89"/>
<polygon fill="midnightblue" stroke="midnightblue" points="74.04,-56.71 75.24,-67.23 80.86,-58.26 74.04,-56.71"/>
</g>
<!-- Node3 -->
<g id="node3" class="node">
<title>Node3</title>
<g id="a_node3"><a xlink:title=" ">
<polygon fill="none" stroke="#bfbfbf" points="162.5,-73 162.5,-92 277.5,-92 277.5,-73 162.5,-73"/>
<text text-anchor="middle" x="220" y="-80" font-family="Helvetica,sans-Serif" font-size="10.00">std::vector&lt; Injection &gt;</text>
</a>
</g>
</g>
<!-- Node3&#45;&gt;Node1 -->
<g id="edge2" class="edge">
<title>Node3&#45;&gt;Node1</title>
<path fill="none" stroke="#9a32cd" stroke-dasharray="5,2" d="M194.96,-68.12C168.2,-53.84 126.61,-31.62 103.98,-19.53"/>
<polygon fill="#9a32cd" stroke="#9a32cd" points="193.61,-71.37 204.08,-73 196.91,-65.2 193.61,-71.37"/>
<text text-anchor="middle" x="178" y="-41" font-family="Helvetica,sans-Serif" font-size="10.00"> toDoList</text>
</g>
<!-- Node4 -->
<g id="node4" class="node">
<title>Node4</title>
<g id="a_node4"><a xlink:href="structInjection.html" target="_top" xlink:title=" ">
<polygon fill="none" stroke="black" points="193.5,-145.5 193.5,-164.5 246.5,-164.5 246.5,-145.5 193.5,-145.5"/>
<text text-anchor="middle" x="220" y="-152.5" font-family="Helvetica,sans-Serif" font-size="10.00">Injection</text>
</a>
</g>
</g>
<!-- Node4&#45;&gt;Node3 -->
<g id="edge3" class="edge">
<title>Node4&#45;&gt;Node3</title>
<path fill="none" stroke="#9a32cd" stroke-dasharray="5,2" d="M220,-134.94C220,-121.03 220,-102.82 220,-92.22"/>
<polygon fill="#9a32cd" stroke="#9a32cd" points="216.5,-135.36 220,-145.36 223.5,-135.36 216.5,-135.36"/>
<text text-anchor="middle" x="241.5" y="-119" font-family="Helvetica,sans-Serif" font-size="10.00"> elements</text>
</g>
<!-- Node5 -->
<g id="node5" class="node">
<title>Node5</title>
<g id="a_node5"><a xlink:title=" ">
<polygon fill="none" stroke="#bfbfbf" points="60.5,-336.5 60.5,-355.5 119.5,-355.5 119.5,-336.5 60.5,-336.5"/>
<text text-anchor="middle" x="90" y="-343.5" font-family="Helvetica,sans-Serif" font-size="10.00">std::string</text>
</a>
</g>
</g>
<!-- Node5&#45;&gt;Node4 -->
<g id="edge4" class="edge">
<title>Node5&#45;&gt;Node4</title>
<path fill="none" stroke="#9a32cd" stroke-dasharray="5,2" d="M83.04,-326.88C75.36,-303.66 66.16,-262.97 83,-234 106.73,-193.18 160.68,-171.96 193.36,-162.45"/>
<polygon fill="#9a32cd" stroke="#9a32cd" points="79.81,-328.23 86.47,-336.48 86.4,-325.88 79.81,-328.23"/>
<text text-anchor="middle" x="117" y="-281" font-family="Helvetica,sans-Serif" font-size="10.00"> class_name</text>
<text text-anchor="middle" x="117" y="-270" font-family="Helvetica,sans-Serif" font-size="10.00">func_name</text>
<text text-anchor="start" x="83" y="-259" font-family="Helvetica,sans-Serif" font-size="10.00">guess_injection</text>
<text text-anchor="middle" x="117" y="-248" font-family="Helvetica,sans-Serif" font-size="10.00">_place</text>
<text text-anchor="middle" x="117" y="-237" font-family="Helvetica,sans-Serif" font-size="10.00">return_type</text>
</g>
<!-- Node8 -->
<g id="node8" class="node">
<title>Node8</title>
<g id="a_node8"><a xlink:title=" ">
<polygon fill="none" stroke="#bfbfbf" points="160,-252 160,-271 280,-271 280,-252 160,-252"/>
<text text-anchor="middle" x="220" y="-259" font-family="Helvetica,sans-Serif" font-size="10.00">std::vector&lt; std::string &gt;</text>
</a>
</g>
</g>
<!-- Node5&#45;&gt;Node8 -->
<g id="edge8" class="edge">
<title>Node5&#45;&gt;Node8</title>
<path fill="none" stroke="#9a32cd" stroke-dasharray="5,2" d="M112.18,-330.92C139.23,-313.76 184.09,-285.29 206.46,-271.1"/>
<polygon fill="#9a32cd" stroke="#9a32cd" points="109.99,-328.17 103.42,-336.48 113.74,-334.08 109.99,-328.17"/>
<text text-anchor="middle" x="169.5" y="-310" font-family="Helvetica,sans-Serif" font-size="10.00"> elements</text>
</g>
<!-- Node6 -->
<g id="node6" class="node">
<title>Node6</title>
<g id="a_node6"><a xlink:title=" ">
<polygon fill="none" stroke="#bfbfbf" points="43.5,-393.5 43.5,-423.5 136.5,-423.5 136.5,-393.5 43.5,-393.5"/>
<text text-anchor="start" x="51.5" y="-411.5" font-family="Helvetica,sans-Serif" font-size="10.00">std::basic_string&lt;</text>
<text text-anchor="middle" x="90" y="-400.5" font-family="Helvetica,sans-Serif" font-size="10.00"> Char &gt;</text>
</a>
</g>
</g>
<!-- Node6&#45;&gt;Node5 -->
<g id="edge5" class="edge">
<title>Node6&#45;&gt;Node5</title>
<path fill="none" stroke="midnightblue" d="M90,-383.35C90,-373.51 90,-362.78 90,-355.54"/>
<polygon fill="midnightblue" stroke="midnightblue" points="86.5,-383.47 90,-393.47 93.5,-383.47 86.5,-383.47"/>
</g>
<!-- Node7 -->
<g id="node7" class="node">
<title>Node7</title>
<g id="a_node7"><a xlink:title=" ">
<polygon fill="none" stroke="#bfbfbf" points="297.5,-246.5 297.5,-276.5 390.5,-276.5 390.5,-246.5 297.5,-246.5"/>
<text text-anchor="start" x="305.5" y="-264.5" font-family="Helvetica,sans-Serif" font-size="10.00">std::vector&lt; clang</text>
<text text-anchor="middle" x="344" y="-253.5" font-family="Helvetica,sans-Serif" font-size="10.00">::QualType &gt;</text>
</a>
</g>
</g>
<!-- Node7&#45;&gt;Node4 -->
<g id="edge6" class="edge">
<title>Node7&#45;&gt;Node4</title>
<path fill="none" stroke="#9a32cd" stroke-dasharray="5,2" d="M331.46,-237.58C321.16,-220.56 305.18,-197.83 286,-183 274.44,-174.06 259.52,-167.63 246.79,-163.29"/>
<polygon fill="#9a32cd" stroke="#9a32cd" points="328.52,-239.48 336.58,-246.36 334.57,-235.96 328.52,-239.48"/>
<text text-anchor="middle" x="333.5" y="-197" font-family="Helvetica,sans-Serif" font-size="10.00"> params</text>
</g>
<!-- Node8&#45;&gt;Node4 -->
<g id="edge7" class="edge">
<title>Node8&#45;&gt;Node4</title>
<path fill="none" stroke="#9a32cd" stroke-dasharray="5,2" d="M220,-241.84C220,-219.08 220,-181.53 220,-164.67"/>
<polygon fill="#9a32cd" stroke="#9a32cd" points="216.5,-241.95 220,-251.95 223.5,-241.95 216.5,-241.95"/>
<text text-anchor="middle" x="251" y="-208" font-family="Helvetica,sans-Serif" font-size="10.00"> class_Ttypes</text>
<text text-anchor="middle" x="251" y="-197" font-family="Helvetica,sans-Serif" font-size="10.00">func_Ttypes</text>
<text text-anchor="middle" x="251" y="-186" font-family="Helvetica,sans-Serif" font-size="10.00">params_name</text>
</g>
</g>
</svg>
