<?xml version="1.0" encoding="UTF-8" standalone="no"?>
<!DOCTYPE svg PUBLIC "-//W3C//DTD SVG 1.1//EN"
 "http://www.w3.org/Graphics/SVG/1.1/DTD/svg11.dtd">
<!-- Generated by graphviz version 2.47.1 (20210515.0534)
 -->
<!-- Title: GetNeededInstantiations.hpp Pages: 1 -->
<svg width="394pt" height="151pt"
 viewBox="0.00 0.00 394.06 151.00" xmlns="http://www.w3.org/2000/svg" xmlns:xlink="http://www.w3.org/1999/xlink">
<g id="graph0" class="graph" transform="scale(1 1) rotate(0) translate(4 147)">
<title>GetNeededInstantiations.hpp</title>
<!-- Node1 -->
<g id="node1" class="node">
<title>Node1</title>
<g id="a_node1"><a xlink:title=" ">
<polygon fill="#bfbfbf" stroke="black" points="18.56,-123.5 18.56,-142.5 161.56,-142.5 161.56,-123.5 18.56,-123.5"/>
<text text-anchor="middle" x="90.06" y="-130.5" font-family="Helvetica,sans-Serif" font-size="10.00">GetNeededInstantiations.hpp</text>
</a>
</g>
</g>
<!-- Node2 -->
<g id="node2" class="node">
<title>Node2</title>
<g id="a_node2"><a xlink:title=" ">
<polygon fill="none" stroke="#bfbfbf" points="4.06,-0.5 4.06,-19.5 48.06,-19.5 48.06,-0.5 4.06,-0.5"/>
<text text-anchor="middle" x="26.06" y="-7.5" font-family="Helvetica,sans-Serif" font-size="10.00">vector</text>
</a>
</g>
</g>
<!-- Node1&#45;&gt;Node2 -->
<g id="edge1" class="edge">
<title>Node1&#45;&gt;Node2</title>
<path fill="none" stroke="midnightblue" d="M56.26,-123.39C37.67,-116.74 16.17,-105.45 5.06,-87 -6.03,-68.57 4.41,-44.13 14.12,-28"/>
<polygon fill="midnightblue" stroke="midnightblue" points="17.09,-29.86 19.59,-19.57 11.21,-26.05 17.09,-29.86"/>
</g>
<!-- Node3 -->
<g id="node3" class="node">
<title>Node3</title>
<g id="a_node3"><a xlink:title=" ">
<polygon fill="none" stroke="#bfbfbf" points="14.06,-56.5 14.06,-86.5 166.06,-86.5 166.06,-56.5 14.06,-56.5"/>
<text text-anchor="start" x="22.06" y="-74.5" font-family="Helvetica,sans-Serif" font-size="10.00">clang/ASTMatchers/ASTMatch</text>
<text text-anchor="middle" x="90.06" y="-63.5" font-family="Helvetica,sans-Serif" font-size="10.00">Finder.h</text>
</a>
</g>
</g>
<!-- Node1&#45;&gt;Node3 -->
<g id="edge2" class="edge">
<title>Node1&#45;&gt;Node3</title>
<path fill="none" stroke="midnightblue" d="M90.06,-123.48C90.06,-116.47 90.06,-106.19 90.06,-96.7"/>
<polygon fill="midnightblue" stroke="midnightblue" points="93.56,-96.52 90.06,-86.52 86.56,-96.52 93.56,-96.52"/>
</g>
<!-- Node4 -->
<g id="node4" class="node">
<title>Node4</title>
<g id="a_node4"><a xlink:href="Injection_8hpp.html" target="_top" xlink:title=" ">
<polygon fill="none" stroke="black" points="184.56,-62 184.56,-81 255.56,-81 255.56,-62 184.56,-62"/>
<text text-anchor="middle" x="220.06" y="-69" font-family="Helvetica,sans-Serif" font-size="10.00">Injection.hpp</text>
</a>
</g>
</g>
<!-- Node1&#45;&gt;Node4 -->
<g id="edge3" class="edge">
<title>Node1&#45;&gt;Node4</title>
<path fill="none" stroke="midnightblue" d="M108.69,-123.48C130.5,-113.49 166.87,-96.85 192.08,-85.31"/>
<polygon fill="midnightblue" stroke="midnightblue" points="193.83,-88.35 201.47,-81.01 190.92,-81.99 193.83,-88.35"/>
</g>
<!-- Node4&#45;&gt;Node2 -->
<g id="edge5" class="edge">
<title>Node4&#45;&gt;Node2</title>
<path fill="none" stroke="midnightblue" d="M193.91,-61.98C187.74,-60 181.17,-57.91 175.06,-56 134.8,-43.43 88.24,-29.46 58.03,-20.47"/>
<polygon fill="midnightblue" stroke="midnightblue" points="58.65,-17 48.06,-17.51 56.65,-23.71 58.65,-17"/>
</g>
<!-- Node5 -->
<g id="node5" class="node">
<title>Node5</title>
<g id="a_node5"><a xlink:title=" ">
<polygon fill="none" stroke="#bfbfbf" points="106.56,-0.5 106.56,-19.5 147.56,-19.5 147.56,-0.5 106.56,-0.5"/>
<text text-anchor="middle" x="127.06" y="-7.5" font-family="Helvetica,sans-Serif" font-size="10.00">string</text>
</a>
</g>
</g>
<!-- Node4&#45;&gt;Node5 -->
<g id="edge4" class="edge">
<title>Node4&#45;&gt;Node5</title>
<path fill="none" stroke="midnightblue" d="M206.74,-61.98C191.68,-52.34 166.95,-36.52 149.02,-25.05"/>
<polygon fill="midnightblue" stroke="midnightblue" points="150.67,-21.95 140.36,-19.51 146.9,-27.85 150.67,-21.95"/>
</g>
<!-- Node6 -->
<g id="node6" class="node">
<title>Node6</title>
<g id="a_node6"><a xlink:title=" ">
<polygon fill="none" stroke="#bfbfbf" points="166.06,-0.5 166.06,-19.5 274.06,-19.5 274.06,-0.5 166.06,-0.5"/>
<text text-anchor="middle" x="220.06" y="-7.5" font-family="Helvetica,sans-Serif" font-size="10.00">llvm/ADT/StringRef.h</text>
</a>
</g>
</g>
<!-- Node4&#45;&gt;Node6 -->
<g id="edge6" class="edge">
<title>Node4&#45;&gt;Node6</title>
<path fill="none" stroke="midnightblue" d="M220.06,-61.98C220.06,-53.58 220.06,-40.48 220.06,-29.66"/>
<polygon fill="midnightblue" stroke="midnightblue" points="223.56,-29.51 220.06,-19.51 216.56,-29.51 223.56,-29.51"/>
</g>
<!-- Node7 -->
<g id="node7" class="node">
<title>Node7</title>
<g id="a_node7"><a xlink:title=" ">
<polygon fill="none" stroke="#bfbfbf" points="292.06,-0.5 292.06,-19.5 386.06,-19.5 386.06,-0.5 292.06,-0.5"/>
<text text-anchor="middle" x="339.06" y="-7.5" font-family="Helvetica,sans-Serif" font-size="10.00">clang/AST/Type.h</text>
</a>
</g>
</g>
<!-- Node4&#45;&gt;Node7 -->
<g id="edge7" class="edge">
<title>Node4&#45;&gt;Node7</title>
<path fill="none" stroke="midnightblue" d="M237.11,-61.98C256.91,-52.08 289.78,-35.64 312.83,-24.12"/>
<polygon fill="midnightblue" stroke="midnightblue" points="314.66,-27.11 322.04,-19.51 311.53,-20.85 314.66,-27.11"/>
</g>
</g>
</svg>
