<?xml version="1.0" encoding="UTF-8" standalone="no"?>
<!DOCTYPE svg PUBLIC "-//W3C//DTD SVG 1.1//EN"
 "http://www.w3.org/Graphics/SVG/1.1/DTD/svg11.dtd">
<!-- Generated by graphviz version 2.47.1 (20210515.0534)
 -->
<!-- Title: src/Callbacks/GetNeededInstantiations.cpp Pages: 1 -->
<svg width="875pt" height="207pt"
 viewBox="0.00 0.00 874.67 207.00" xmlns="http://www.w3.org/2000/svg" xmlns:xlink="http://www.w3.org/1999/xlink">
<g id="graph0" class="graph" transform="scale(1 1) rotate(0) translate(4 203)">
<title>src/Callbacks/GetNeededInstantiations.cpp</title>
<!-- Node1 -->
<g id="node1" class="node">
<title>Node1</title>
<g id="a_node1"><a xlink:title=" ">
<polygon fill="#bfbfbf" stroke="black" points="312.67,-179.5 312.67,-198.5 517.67,-198.5 517.67,-179.5 312.67,-179.5"/>
<text text-anchor="middle" x="415.17" y="-186.5" font-family="Helvetica,sans-Serif" font-size="10.00">src/Callbacks/GetNeededInstantiations.cpp</text>
</a>
</g>
</g>
<!-- Node2 -->
<g id="node2" class="node">
<title>Node2</title>
<g id="a_node2"><a xlink:href="GetNeededInstantiations_8hpp.html" target="_top" xlink:title=" ">
<polygon fill="none" stroke="black" points="0.17,-123.5 0.17,-142.5 188.17,-142.5 188.17,-123.5 0.17,-123.5"/>
<text text-anchor="middle" x="94.17" y="-130.5" font-family="Helvetica,sans-Serif" font-size="10.00">Callbacks/GetNeededInstantiations.hpp</text>
</a>
</g>
</g>
<!-- Node1&#45;&gt;Node2 -->
<g id="edge1" class="edge">
<title>Node1&#45;&gt;Node2</title>
<path fill="none" stroke="midnightblue" d="M364.31,-179.44C307.49,-169.89 215.56,-154.42 154.98,-144.23"/>
<polygon fill="midnightblue" stroke="midnightblue" points="155.24,-140.72 144.8,-142.52 154.08,-147.63 155.24,-140.72"/>
</g>
<!-- Node5 -->
<g id="node5" class="node">
<title>Node5</title>
<g id="a_node5"><a xlink:href="Injection_8hpp.html" target="_top" xlink:title=" ">
<polygon fill="none" stroke="black" points="184.67,-62 184.67,-81 255.67,-81 255.67,-62 184.67,-62"/>
<text text-anchor="middle" x="220.17" y="-69" font-family="Helvetica,sans-Serif" font-size="10.00">Injection.hpp</text>
</a>
</g>
</g>
<!-- Node1&#45;&gt;Node5 -->
<g id="edge14" class="edge">
<title>Node1&#45;&gt;Node5</title>
<path fill="none" stroke="midnightblue" d="M354.35,-179.46C309.51,-171.94 253.59,-159.6 237.17,-143 223.78,-129.46 220.28,-107.3 219.66,-91.44"/>
<polygon fill="midnightblue" stroke="midnightblue" points="223.16,-91.2 219.61,-81.22 216.16,-91.23 223.16,-91.2"/>
</g>
<!-- Node9 -->
<g id="node9" class="node">
<title>Node9</title>
<g id="a_node9"><a xlink:title=" ">
<polygon fill="none" stroke="#bfbfbf" points="246.17,-123.5 246.17,-142.5 338.17,-142.5 338.17,-123.5 246.17,-123.5"/>
<text text-anchor="middle" x="292.17" y="-130.5" font-family="Helvetica,sans-Serif" font-size="10.00">llvm/ADT/APInt.h</text>
</a>
</g>
</g>
<!-- Node1&#45;&gt;Node9 -->
<g id="edge9" class="edge">
<title>Node1&#45;&gt;Node9</title>
<path fill="none" stroke="midnightblue" d="M395.68,-179.44C375.53,-170.6 343.85,-156.69 320.84,-146.59"/>
<polygon fill="midnightblue" stroke="midnightblue" points="322.14,-143.33 311.57,-142.52 319.32,-149.74 322.14,-143.33"/>
</g>
<!-- Node10 -->
<g id="node10" class="node">
<title>Node10</title>
<g id="a_node10"><a xlink:title=" ">
<polygon fill="none" stroke="#bfbfbf" points="356.17,-123.5 356.17,-142.5 474.17,-142.5 474.17,-123.5 356.17,-123.5"/>
<text text-anchor="middle" x="415.17" y="-130.5" font-family="Helvetica,sans-Serif" font-size="10.00">llvm/ADT/SmallString.h</text>
</a>
</g>
</g>
<!-- Node1&#45;&gt;Node10 -->
<g id="edge10" class="edge">
<title>Node1&#45;&gt;Node10</title>
<path fill="none" stroke="midnightblue" d="M415.17,-179.08C415.17,-172.01 415.17,-161.86 415.17,-152.99"/>
<polygon fill="midnightblue" stroke="midnightblue" points="418.67,-152.75 415.17,-142.75 411.67,-152.75 418.67,-152.75"/>
</g>
<!-- Node11 -->
<g id="node11" class="node">
<title>Node11</title>
<g id="a_node11"><a xlink:title=" ">
<polygon fill="none" stroke="#bfbfbf" points="492.17,-123.5 492.17,-142.5 584.17,-142.5 584.17,-123.5 492.17,-123.5"/>
<text text-anchor="middle" x="538.17" y="-130.5" font-family="Helvetica,sans-Serif" font-size="10.00">clang/AST/Decl.h</text>
</a>
</g>
</g>
<!-- Node1&#45;&gt;Node11 -->
<g id="edge11" class="edge">
<title>Node1&#45;&gt;Node11</title>
<path fill="none" stroke="midnightblue" d="M434.66,-179.44C454.82,-170.6 486.5,-156.69 509.5,-146.59"/>
<polygon fill="midnightblue" stroke="midnightblue" points="511.03,-149.74 518.78,-142.52 508.21,-143.33 511.03,-149.74"/>
</g>
<!-- Node12 -->
<g id="node12" class="node">
<title>Node12</title>
<g id="a_node12"><a xlink:title=" ">
<polygon fill="none" stroke="#bfbfbf" points="602.67,-123.5 602.67,-142.5 715.67,-142.5 715.67,-123.5 602.67,-123.5"/>
<text text-anchor="middle" x="659.17" y="-130.5" font-family="Helvetica,sans-Serif" font-size="10.00">clang/AST/DeclCXX.h</text>
</a>
</g>
</g>
<!-- Node1&#45;&gt;Node12 -->
<g id="edge12" class="edge">
<title>Node1&#45;&gt;Node12</title>
<path fill="none" stroke="midnightblue" d="M453.84,-179.44C496.31,-170.04 564.61,-154.93 610.65,-144.74"/>
<polygon fill="midnightblue" stroke="midnightblue" points="611.68,-148.09 620.69,-142.52 610.17,-141.26 611.68,-148.09"/>
</g>
<!-- Node13 -->
<g id="node13" class="node">
<title>Node13</title>
<g id="a_node13"><a xlink:title=" ">
<polygon fill="none" stroke="#bfbfbf" points="733.67,-123.5 733.67,-142.5 866.67,-142.5 866.67,-123.5 733.67,-123.5"/>
<text text-anchor="middle" x="800.17" y="-130.5" font-family="Helvetica,sans-Serif" font-size="10.00">clang/AST/DeclTemplate.h</text>
</a>
</g>
</g>
<!-- Node1&#45;&gt;Node13 -->
<g id="edge13" class="edge">
<title>Node1&#45;&gt;Node13</title>
<path fill="none" stroke="midnightblue" d="M476.18,-179.44C545.03,-169.79 656.87,-154.1 729.48,-143.92"/>
<polygon fill="midnightblue" stroke="midnightblue" points="730.04,-147.37 739.45,-142.52 729.07,-140.44 730.04,-147.37"/>
</g>
<!-- Node3 -->
<g id="node3" class="node">
<title>Node3</title>
<g id="a_node3"><a xlink:title=" ">
<polygon fill="none" stroke="#bfbfbf" points="4.17,-0.5 4.17,-19.5 48.17,-19.5 48.17,-0.5 4.17,-0.5"/>
<text text-anchor="middle" x="26.17" y="-7.5" font-family="Helvetica,sans-Serif" font-size="10.00">vector</text>
</a>
</g>
</g>
<!-- Node2&#45;&gt;Node3 -->
<g id="edge2" class="edge">
<title>Node2&#45;&gt;Node3</title>
<path fill="none" stroke="midnightblue" d="M57.47,-123.35C38.34,-116.77 16.6,-105.58 5.17,-87 -6.1,-68.67 4.39,-44.21 14.16,-28.05"/>
<polygon fill="midnightblue" stroke="midnightblue" points="17.14,-29.89 19.66,-19.6 11.27,-26.07 17.14,-29.89"/>
</g>
<!-- Node4 -->
<g id="node4" class="node">
<title>Node4</title>
<g id="a_node4"><a xlink:title=" ">
<polygon fill="none" stroke="#bfbfbf" points="14.17,-56.5 14.17,-86.5 166.17,-86.5 166.17,-56.5 14.17,-56.5"/>
<text text-anchor="start" x="22.17" y="-74.5" font-family="Helvetica,sans-Serif" font-size="10.00">clang/ASTMatchers/ASTMatch</text>
<text text-anchor="middle" x="90.17" y="-63.5" font-family="Helvetica,sans-Serif" font-size="10.00">Finder.h</text>
</a>
</g>
</g>
<!-- Node2&#45;&gt;Node4 -->
<g id="edge3" class="edge">
<title>Node2&#45;&gt;Node4</title>
<path fill="none" stroke="midnightblue" d="M93.6,-123.48C93.13,-116.47 92.44,-106.19 91.8,-96.7"/>
<polygon fill="midnightblue" stroke="midnightblue" points="95.28,-96.27 91.12,-86.52 88.3,-96.74 95.28,-96.27"/>
</g>
<!-- Node2&#45;&gt;Node5 -->
<g id="edge4" class="edge">
<title>Node2&#45;&gt;Node5</title>
<path fill="none" stroke="midnightblue" d="M112.23,-123.48C133.37,-113.49 168.61,-96.85 193.05,-85.31"/>
<polygon fill="midnightblue" stroke="midnightblue" points="194.61,-88.44 202.15,-81.01 191.62,-82.11 194.61,-88.44"/>
</g>
<!-- Node5&#45;&gt;Node3 -->
<g id="edge6" class="edge">
<title>Node5&#45;&gt;Node3</title>
<path fill="none" stroke="midnightblue" d="M194.02,-61.98C187.85,-60 181.29,-57.91 175.17,-56 134.91,-43.43 88.35,-29.46 58.14,-20.47"/>
<polygon fill="midnightblue" stroke="midnightblue" points="58.76,-17 48.18,-17.51 56.76,-23.71 58.76,-17"/>
</g>
<!-- Node6 -->
<g id="node6" class="node">
<title>Node6</title>
<g id="a_node6"><a xlink:title=" ">
<polygon fill="none" stroke="#bfbfbf" points="106.67,-0.5 106.67,-19.5 147.67,-19.5 147.67,-0.5 106.67,-0.5"/>
<text text-anchor="middle" x="127.17" y="-7.5" font-family="Helvetica,sans-Serif" font-size="10.00">string</text>
</a>
</g>
</g>
<!-- Node5&#45;&gt;Node6 -->
<g id="edge5" class="edge">
<title>Node5&#45;&gt;Node6</title>
<path fill="none" stroke="midnightblue" d="M206.85,-61.98C191.79,-52.34 167.06,-36.52 149.14,-25.05"/>
<polygon fill="midnightblue" stroke="midnightblue" points="150.78,-21.95 140.47,-19.51 147.01,-27.85 150.78,-21.95"/>
</g>
<!-- Node7 -->
<g id="node7" class="node">
<title>Node7</title>
<g id="a_node7"><a xlink:title=" ">
<polygon fill="none" stroke="#bfbfbf" points="166.17,-0.5 166.17,-19.5 274.17,-19.5 274.17,-0.5 166.17,-0.5"/>
<text text-anchor="middle" x="220.17" y="-7.5" font-family="Helvetica,sans-Serif" font-size="10.00">llvm/ADT/StringRef.h</text>
</a>
</g>
</g>
<!-- Node5&#45;&gt;Node7 -->
<g id="edge7" class="edge">
<title>Node5&#45;&gt;Node7</title>
<path fill="none" stroke="midnightblue" d="M220.17,-61.98C220.17,-53.58 220.17,-40.48 220.17,-29.66"/>
<polygon fill="midnightblue" stroke="midnightblue" points="223.67,-29.51 220.17,-19.51 216.67,-29.51 223.67,-29.51"/>
</g>
<!-- Node8 -->
<g id="node8" class="node">
<title>Node8</title>
<g id="a_node8"><a xlink:title=" ">
<polygon fill="none" stroke="#bfbfbf" points="292.17,-0.5 292.17,-19.5 386.17,-19.5 386.17,-0.5 292.17,-0.5"/>
<text text-anchor="middle" x="339.17" y="-7.5" font-family="Helvetica,sans-Serif" font-size="10.00">clang/AST/Type.h</text>
</a>
</g>
</g>
<!-- Node5&#45;&gt;Node8 -->
<g id="edge8" class="edge">
<title>Node5&#45;&gt;Node8</title>
<path fill="none" stroke="midnightblue" d="M237.22,-61.98C257.02,-52.08 289.89,-35.64 312.94,-24.12"/>
<polygon fill="midnightblue" stroke="midnightblue" points="314.78,-27.11 322.16,-19.51 311.65,-20.85 314.78,-27.11"/>
</g>
</g>
</svg>
