<?xml version="1.0" encoding="UTF-8" standalone="no"?>
<!DOCTYPE svg PUBLIC "-//W3C//DTD SVG 1.1//EN"
 "http://www.w3.org/Graphics/SVG/1.1/DTD/svg11.dtd">
<!-- Generated by graphviz version 2.47.1 (20210515.0534)
 -->
<!-- Title: include/Callbacks/GetNeededInstantiations.hpp Pages: 1 -->
<svg width="314pt" height="95pt"
 viewBox="0.00 0.00 314.00 95.00" xmlns="http://www.w3.org/2000/svg" xmlns:xlink="http://www.w3.org/1999/xlink">
<g id="graph0" class="graph" transform="scale(1 1) rotate(0) translate(4 91)">
<title>include/Callbacks/GetNeededInstantiations.hpp</title>
<!-- Node1 -->
<g id="node1" class="node">
<title>Node1</title>
<g id="a_node1"><a xlink:title=" ">
<polygon fill="#bfbfbf" stroke="black" points="110.5,-56.5 110.5,-86.5 256.5,-86.5 256.5,-56.5 110.5,-56.5"/>
<text text-anchor="start" x="118.5" y="-74.5" font-family="Helvetica,sans-Serif" font-size="10.00">include/Callbacks/GetNeeded</text>
<text text-anchor="middle" x="183.5" y="-63.5" font-family="Helvetica,sans-Serif" font-size="10.00">Instantiations.hpp</text>
</a>
</g>
</g>
<!-- Node2 -->
<g id="node2" class="node">
<title>Node2</title>
<g id="a_node2"><a xlink:href="GetNeededInstantiations_8cpp.html" target="_top" xlink:title=" ">
<polygon fill="none" stroke="black" points="0,-0.5 0,-19.5 205,-19.5 205,-0.5 0,-0.5"/>
<text text-anchor="middle" x="102.5" y="-7.5" font-family="Helvetica,sans-Serif" font-size="10.00">src/Callbacks/GetNeededInstantiations.cpp</text>
</a>
</g>
</g>
<!-- Node1&#45;&gt;Node2 -->
<g id="edge1" class="edge">
<title>Node1&#45;&gt;Node2</title>
<path fill="none" stroke="midnightblue" d="M155.85,-50.19C141.67,-39.77 125.14,-27.63 114.29,-19.66"/>
<polygon fill="midnightblue" stroke="midnightblue" points="154.17,-53.3 164.3,-56.4 158.32,-47.66 154.17,-53.3"/>
</g>
<!-- Node3 -->
<g id="node3" class="node">
<title>Node3</title>
<g id="a_node3"><a xlink:href="Instantiator_8cpp.html" target="_top" xlink:title=" ">
<polygon fill="none" stroke="black" points="223,-0.5 223,-19.5 306,-19.5 306,-0.5 223,-0.5"/>
<text text-anchor="middle" x="264.5" y="-7.5" font-family="Helvetica,sans-Serif" font-size="10.00">Instantiator.cpp</text>
</a>
</g>
</g>
<!-- Node1&#45;&gt;Node3 -->
<g id="edge2" class="edge">
<title>Node1&#45;&gt;Node3</title>
<path fill="none" stroke="midnightblue" d="M211.15,-50.19C225.33,-39.77 241.86,-27.63 252.71,-19.66"/>
<polygon fill="midnightblue" stroke="midnightblue" points="208.68,-47.66 202.7,-56.4 212.83,-53.3 208.68,-47.66"/>
</g>
</g>
</svg>
