<?xml version="1.0" encoding="UTF-8" standalone="no"?>
<!DOCTYPE svg PUBLIC "-//W3C//DTD SVG 1.1//EN"
 "http://www.w3.org/Graphics/SVG/1.1/DTD/svg11.dtd">
<!-- Generated by graphviz version 2.47.1 (20210515.0534)
 -->
<!-- Title: Injection.hpp Pages: 1 -->
<svg width="461pt" height="140pt"
 viewBox="0.00 0.00 461.48 140.00" xmlns="http://www.w3.org/2000/svg" xmlns:xlink="http://www.w3.org/1999/xlink">
<g id="graph0" class="graph" transform="scale(1 1) rotate(0) translate(4 136)">
<title>Injection.hpp</title>
<!-- Node1 -->
<g id="node1" class="node">
<title>Node1</title>
<g id="a_node1"><a xlink:title=" ">
<polygon fill="#bfbfbf" stroke="black" points="230.48,-112.5 230.48,-131.5 301.48,-131.5 301.48,-112.5 230.48,-112.5"/>
<text text-anchor="middle" x="265.98" y="-119.5" font-family="Helvetica,sans-Serif" font-size="10.00">Injection.hpp</text>
</a>
</g>
</g>
<!-- Node2 -->
<g id="node2" class="node">
<title>Node2</title>
<g id="a_node2"><a xlink:href="GetNeededInstantiations_8hpp.html" target="_top" xlink:title=" ">
<polygon fill="none" stroke="black" points="144.48,-56.5 144.48,-75.5 287.48,-75.5 287.48,-56.5 144.48,-56.5"/>
<text text-anchor="middle" x="215.98" y="-63.5" font-family="Helvetica,sans-Serif" font-size="10.00">GetNeededInstantiations.hpp</text>
</a>
</g>
</g>
<!-- Node1&#45;&gt;Node2 -->
<g id="edge1" class="edge">
<title>Node1&#45;&gt;Node2</title>
<path fill="none" stroke="midnightblue" d="M250.9,-104.72C242.09,-95.2 231.31,-83.56 224.08,-75.75"/>
<polygon fill="midnightblue" stroke="midnightblue" points="248.36,-107.12 257.72,-112.08 253.49,-102.37 248.36,-107.12"/>
</g>
<!-- Node3 -->
<g id="node3" class="node">
<title>Node3</title>
<g id="a_node3"><a xlink:href="Instantiator_8cpp.html" target="_top" xlink:title=" ">
<polygon fill="none" stroke="black" points="28.48,-0.5 28.48,-19.5 111.48,-19.5 111.48,-0.5 28.48,-0.5"/>
<text text-anchor="middle" x="69.98" y="-7.5" font-family="Helvetica,sans-Serif" font-size="10.00">Instantiator.cpp</text>
</a>
</g>
</g>
<!-- Node1&#45;&gt;Node3 -->
<g id="edge7" class="edge">
<title>Node1&#45;&gt;Node3</title>
<path fill="none" stroke="midnightblue" d="M219.93,-119.92C152.49,-117.25 31.93,-108 4.98,-76 -13.22,-54.4 24.82,-31.59 50.03,-19.58"/>
<polygon fill="midnightblue" stroke="midnightblue" points="220.15,-123.43 230.27,-120.29 220.41,-116.43 220.15,-123.43"/>
</g>
<!-- Node4 -->
<g id="node4" class="node">
<title>Node4</title>
<g id="a_node4"><a xlink:href="GetNeededInstantiations_8cpp.html" target="_top" xlink:title=" ">
<polygon fill="none" stroke="black" points="276.48,-0.5 276.48,-19.5 419.48,-19.5 419.48,-0.5 276.48,-0.5"/>
<text text-anchor="middle" x="347.98" y="-7.5" font-family="Helvetica,sans-Serif" font-size="10.00">GetNeededInstantiations.cpp</text>
</a>
</g>
</g>
<!-- Node1&#45;&gt;Node4 -->
<g id="edge8" class="edge">
<title>Node1&#45;&gt;Node4</title>
<path fill="none" stroke="midnightblue" d="M284.03,-105.62C293.06,-97.39 303.78,-86.75 311.98,-76 326.05,-57.53 338.13,-32.9 344.06,-19.9"/>
<polygon fill="midnightblue" stroke="midnightblue" points="281.5,-103.19 276.33,-112.44 286.14,-108.43 281.5,-103.19"/>
</g>
<!-- Node5 -->
<g id="node5" class="node">
<title>Node5</title>
<g id="a_node5"><a xlink:href="InjectInstantiation_8hpp.html" target="_top" xlink:title=" ">
<polygon fill="none" stroke="black" points="13.98,-56.5 13.98,-75.5 125.98,-75.5 125.98,-56.5 13.98,-56.5"/>
<text text-anchor="middle" x="69.98" y="-63.5" font-family="Helvetica,sans-Serif" font-size="10.00">InjectInstantiation.hpp</text>
</a>
</g>
</g>
<!-- Node1&#45;&gt;Node5 -->
<g id="edge4" class="edge">
<title>Node1&#45;&gt;Node5</title>
<path fill="none" stroke="midnightblue" d="M224.96,-109.7C187.96,-99.51 134.38,-84.74 100.89,-75.52"/>
<polygon fill="midnightblue" stroke="midnightblue" points="224.35,-113.16 234.92,-112.44 226.21,-106.41 224.35,-113.16"/>
</g>
<!-- Node6 -->
<g id="node6" class="node">
<title>Node6</title>
<g id="a_node6"><a xlink:href="InjectInstantiation_8cpp.html" target="_top" xlink:title=" ">
<polygon fill="none" stroke="black" points="140.98,-0.5 140.98,-19.5 252.98,-19.5 252.98,-0.5 140.98,-0.5"/>
<text text-anchor="middle" x="196.98" y="-7.5" font-family="Helvetica,sans-Serif" font-size="10.00">InjectInstantiation.cpp</text>
</a>
</g>
</g>
<!-- Node1&#45;&gt;Node6 -->
<g id="edge9" class="edge">
<title>Node1&#45;&gt;Node6</title>
<path fill="none" stroke="midnightblue" d="M282.98,-104.64C294.92,-91.11 307.09,-71.65 296.98,-56 284.67,-36.98 262.2,-25.91 241.67,-19.52"/>
<polygon fill="midnightblue" stroke="midnightblue" points="280.14,-102.55 275.78,-112.21 285.21,-107.38 280.14,-102.55"/>
</g>
<!-- Node7 -->
<g id="node7" class="node">
<title>Node7</title>
<g id="a_node7"><a xlink:href="Injection_8cpp.html" target="_top" xlink:title=" ">
<polygon fill="none" stroke="black" points="382.48,-56.5 382.48,-75.5 453.48,-75.5 453.48,-56.5 382.48,-56.5"/>
<text text-anchor="middle" x="417.98" y="-63.5" font-family="Helvetica,sans-Serif" font-size="10.00">Injection.cpp</text>
</a>
</g>
</g>
<!-- Node1&#45;&gt;Node7 -->
<g id="edge10" class="edge">
<title>Node1&#45;&gt;Node7</title>
<path fill="none" stroke="midnightblue" d="M299.64,-109.04C328.24,-98.88 368.59,-84.55 394,-75.52"/>
<polygon fill="midnightblue" stroke="midnightblue" points="298.31,-105.8 290.06,-112.44 300.65,-112.39 298.31,-105.8"/>
</g>
<!-- Node2&#45;&gt;Node3 -->
<g id="edge2" class="edge">
<title>Node2&#45;&gt;Node3</title>
<path fill="none" stroke="midnightblue" d="M183.28,-52.91C155.83,-42.75 117.31,-28.51 93,-19.52"/>
<polygon fill="midnightblue" stroke="midnightblue" points="182.25,-56.26 192.84,-56.44 184.68,-49.69 182.25,-56.26"/>
</g>
<!-- Node2&#45;&gt;Node4 -->
<g id="edge3" class="edge">
<title>Node2&#45;&gt;Node4</title>
<path fill="none" stroke="midnightblue" d="M246.19,-52.64C270.97,-42.5 305.37,-28.43 327.16,-19.52"/>
<polygon fill="midnightblue" stroke="midnightblue" points="244.82,-49.42 236.89,-56.44 247.47,-55.9 244.82,-49.42"/>
</g>
<!-- Node5&#45;&gt;Node3 -->
<g id="edge5" class="edge">
<title>Node5&#45;&gt;Node3</title>
<path fill="none" stroke="midnightblue" d="M69.98,-45.8C69.98,-36.91 69.98,-26.78 69.98,-19.75"/>
<polygon fill="midnightblue" stroke="midnightblue" points="66.48,-46.08 69.98,-56.08 73.48,-46.08 66.48,-46.08"/>
</g>
<!-- Node5&#45;&gt;Node6 -->
<g id="edge6" class="edge">
<title>Node5&#45;&gt;Node6</title>
<path fill="none" stroke="midnightblue" d="M99.37,-52.5C123.18,-42.38 156.08,-28.39 176.95,-19.52"/>
<polygon fill="midnightblue" stroke="midnightblue" points="97.93,-49.31 90.1,-56.44 100.67,-55.75 97.93,-49.31"/>
</g>
</g>
</svg>
