<?xml version="1.0" encoding="UTF-8" standalone="no"?>
<!DOCTYPE svg PUBLIC "-//W3C//DTD SVG 1.1//EN"
 "http://www.w3.org/Graphics/SVG/1.1/DTD/svg11.dtd">
<!-- Generated by graphviz version 2.47.1 (20210515.0534)
 -->
<!-- Title: Injection.hpp Pages: 1 -->
<svg width="512pt" height="140pt"
 viewBox="0.00 0.00 512.00 140.00" xmlns="http://www.w3.org/2000/svg" xmlns:xlink="http://www.w3.org/1999/xlink">
<g id="graph0" class="graph" transform="scale(1 1) rotate(0) translate(4 136)">
<title>Injection.hpp</title>
<!-- Node1 -->
<g id="node1" class="node">
<title>Node1</title>
<g id="a_node1"><a xlink:title=" ">
<polygon fill="#bfbfbf" stroke="black" points="243,-112.5 243,-131.5 314,-131.5 314,-112.5 243,-112.5"/>
<text text-anchor="middle" x="278.5" y="-119.5" font-family="Helvetica,sans-Serif" font-size="10.00">Injection.hpp</text>
</a>
</g>
</g>
<!-- Node2 -->
<g id="node2" class="node">
<title>Node2</title>
<g id="a_node2"><a xlink:href="GetNeededInstantiations_8hpp.html" target="_top" xlink:title=" ">
<polygon fill="none" stroke="black" points="65,-56.5 65,-75.5 208,-75.5 208,-56.5 65,-56.5"/>
<text text-anchor="middle" x="136.5" y="-63.5" font-family="Helvetica,sans-Serif" font-size="10.00">GetNeededInstantiations.hpp</text>
</a>
</g>
</g>
<!-- Node1&#45;&gt;Node2 -->
<g id="edge1" class="edge">
<title>Node1&#45;&gt;Node2</title>
<path fill="none" stroke="midnightblue" d="M246.34,-108.77C219.67,-98.63 182.43,-84.47 158.9,-75.52"/>
<polygon fill="midnightblue" stroke="midnightblue" points="245.41,-112.16 256,-112.44 247.9,-105.62 245.41,-112.16"/>
</g>
<!-- Node3 -->
<g id="node3" class="node">
<title>Node3</title>
<g id="a_node3"><a xlink:href="GetNeededInstantiations_8cpp.html" target="_top" xlink:title=" ">
<polygon fill="none" stroke="black" points="0,-0.5 0,-19.5 143,-19.5 143,-0.5 0,-0.5"/>
<text text-anchor="middle" x="71.5" y="-7.5" font-family="Helvetica,sans-Serif" font-size="10.00">GetNeededInstantiations.cpp</text>
</a>
</g>
</g>
<!-- Node1&#45;&gt;Node3 -->
<g id="edge7" class="edge">
<title>Node1&#45;&gt;Node3</title>
<path fill="none" stroke="midnightblue" d="M232.69,-118.4C174.07,-114.01 77.44,-102.82 55.5,-76 41.96,-59.45 56.15,-33.11 65.2,-19.61"/>
<polygon fill="midnightblue" stroke="midnightblue" points="232.59,-121.9 242.82,-119.12 233.09,-114.92 232.59,-121.9"/>
</g>
<!-- Node4 -->
<g id="node4" class="node">
<title>Node4</title>
<g id="a_node4"><a xlink:href="Instantiator_8cpp.html" target="_top" xlink:title=" ">
<polygon fill="none" stroke="black" points="195,-0.5 195,-19.5 278,-19.5 278,-0.5 195,-0.5"/>
<text text-anchor="middle" x="236.5" y="-7.5" font-family="Helvetica,sans-Serif" font-size="10.00">Instantiator.cpp</text>
</a>
</g>
</g>
<!-- Node1&#45;&gt;Node4 -->
<g id="edge10" class="edge">
<title>Node1&#45;&gt;Node4</title>
<path fill="none" stroke="midnightblue" d="M268.5,-103.35C264.14,-95.19 259.19,-85.27 255.5,-76 247.68,-56.33 241.46,-32.19 238.46,-19.59"/>
<polygon fill="midnightblue" stroke="midnightblue" points="265.52,-105.19 273.41,-112.26 271.66,-101.82 265.52,-105.19"/>
</g>
<!-- Node5 -->
<g id="node5" class="node">
<title>Node5</title>
<g id="a_node5"><a xlink:href="InjectInstantiation_8hpp.html" target="_top" xlink:title=" ">
<polygon fill="none" stroke="black" points="264.5,-56.5 264.5,-75.5 376.5,-75.5 376.5,-56.5 264.5,-56.5"/>
<text text-anchor="middle" x="320.5" y="-63.5" font-family="Helvetica,sans-Serif" font-size="10.00">InjectInstantiation.hpp</text>
</a>
</g>
</g>
<!-- Node1&#45;&gt;Node5 -->
<g id="edge4" class="edge">
<title>Node1&#45;&gt;Node5</title>
<path fill="none" stroke="midnightblue" d="M291.61,-104.14C298.93,-94.74 307.74,-83.4 313.69,-75.75"/>
<polygon fill="midnightblue" stroke="midnightblue" points="288.81,-102.04 285.44,-112.08 294.34,-106.34 288.81,-102.04"/>
</g>
<!-- Node6 -->
<g id="node6" class="node">
<title>Node6</title>
<g id="a_node6"><a xlink:href="InjectInstantiation_8cpp.html" target="_top" xlink:title=" ">
<polygon fill="none" stroke="black" points="322.5,-0.5 322.5,-19.5 434.5,-19.5 434.5,-0.5 322.5,-0.5"/>
<text text-anchor="middle" x="378.5" y="-7.5" font-family="Helvetica,sans-Serif" font-size="10.00">InjectInstantiation.cpp</text>
</a>
</g>
</g>
<!-- Node1&#45;&gt;Node6 -->
<g id="edge8" class="edge">
<title>Node1&#45;&gt;Node6</title>
<path fill="none" stroke="midnightblue" d="M323.88,-113.94C346.44,-107.89 371.76,-96.69 385.5,-76 396.93,-58.79 388.57,-33.2 382.78,-19.84"/>
<polygon fill="midnightblue" stroke="midnightblue" points="323,-110.55 314.1,-116.3 324.64,-117.36 323,-110.55"/>
</g>
<!-- Node7 -->
<g id="node7" class="node">
<title>Node7</title>
<g id="a_node7"><a xlink:href="Injection_8cpp.html" target="_top" xlink:title=" ">
<polygon fill="none" stroke="black" points="433,-56.5 433,-75.5 504,-75.5 504,-56.5 433,-56.5"/>
<text text-anchor="middle" x="468.5" y="-63.5" font-family="Helvetica,sans-Serif" font-size="10.00">Injection.cpp</text>
</a>
</g>
</g>
<!-- Node1&#45;&gt;Node7 -->
<g id="edge9" class="edge">
<title>Node1&#45;&gt;Node7</title>
<path fill="none" stroke="midnightblue" d="M318.26,-109.7C354.12,-99.51 406.07,-84.74 438.53,-75.52"/>
<polygon fill="midnightblue" stroke="midnightblue" points="317.27,-106.34 308.61,-112.44 319.18,-113.08 317.27,-106.34"/>
</g>
<!-- Node2&#45;&gt;Node3 -->
<g id="edge2" class="edge">
<title>Node2&#45;&gt;Node3</title>
<path fill="none" stroke="midnightblue" d="M118.23,-49.82C106.58,-40.15 91.9,-27.95 82.13,-19.83"/>
<polygon fill="midnightblue" stroke="midnightblue" points="116.13,-52.63 126.06,-56.32 120.6,-47.24 116.13,-52.63"/>
</g>
<!-- Node2&#45;&gt;Node4 -->
<g id="edge3" class="edge">
<title>Node2&#45;&gt;Node4</title>
<path fill="none" stroke="midnightblue" d="M161.59,-51.45C180.05,-41.48 204.6,-28.23 220.47,-19.65"/>
<polygon fill="midnightblue" stroke="midnightblue" points="159.7,-48.49 152.57,-56.32 163.03,-54.65 159.7,-48.49"/>
</g>
<!-- Node5&#45;&gt;Node4 -->
<g id="edge6" class="edge">
<title>Node5&#45;&gt;Node4</title>
<path fill="none" stroke="midnightblue" d="M298.57,-50.9C283.16,-41 263.05,-28.07 249.96,-19.65"/>
<polygon fill="midnightblue" stroke="midnightblue" points="296.7,-53.86 307,-56.32 300.48,-47.97 296.7,-53.86"/>
</g>
<!-- Node5&#45;&gt;Node6 -->
<g id="edge5" class="edge">
<title>Node5&#45;&gt;Node6</title>
<path fill="none" stroke="midnightblue" d="M337.41,-49.25C347.7,-39.67 360.47,-27.79 369.01,-19.83"/>
<polygon fill="midnightblue" stroke="midnightblue" points="334.75,-46.95 329.82,-56.32 339.52,-52.07 334.75,-46.95"/>
</g>
</g>
</svg>
