<?xml version="1.0" encoding="UTF-8" standalone="no"?>
<!DOCTYPE svg PUBLIC "-//W3C//DTD SVG 1.1//EN"
 "http://www.w3.org/Graphics/SVG/1.1/DTD/svg11.dtd">
<!-- Generated by graphviz version 2.47.1 (20210515.0534)
 -->
<!-- Title: include/Callbacks/InjectInstantiation.hpp Pages: 1 -->
<svg width="394pt" height="162pt"
 viewBox="0.00 0.00 393.77 162.00" xmlns="http://www.w3.org/2000/svg" xmlns:xlink="http://www.w3.org/1999/xlink">
<g id="graph0" class="graph" transform="scale(1 1) rotate(0) translate(4 158)">
<title>include/Callbacks/InjectInstantiation.hpp</title>
<!-- Node1 -->
<g id="node1" class="node">
<title>Node1</title>
<g id="a_node1"><a xlink:title=" ">
<polygon fill="#bfbfbf" stroke="black" points="29.77,-123.5 29.77,-153.5 149.77,-153.5 149.77,-123.5 29.77,-123.5"/>
<text text-anchor="start" x="37.77" y="-141.5" font-family="Helvetica,sans-Serif" font-size="10.00">include/Callbacks/Inject</text>
<text text-anchor="middle" x="89.77" y="-130.5" font-family="Helvetica,sans-Serif" font-size="10.00">Instantiation.hpp</text>
</a>
</g>
</g>
<!-- Node2 -->
<g id="node2" class="node">
<title>Node2</title>
<g id="a_node2"><a xlink:title=" ">
<polygon fill="none" stroke="#bfbfbf" points="3.77,-0.5 3.77,-19.5 47.77,-19.5 47.77,-0.5 3.77,-0.5"/>
<text text-anchor="middle" x="25.77" y="-7.5" font-family="Helvetica,sans-Serif" font-size="10.00">vector</text>
</a>
</g>
</g>
<!-- Node1&#45;&gt;Node2 -->
<g id="edge1" class="edge">
<title>Node1&#45;&gt;Node2</title>
<path fill="none" stroke="midnightblue" d="M48.37,-123.4C31.73,-115.46 14.28,-103.71 4.77,-87 -5.77,-68.48 4.27,-44.38 13.77,-28.33"/>
<polygon fill="midnightblue" stroke="midnightblue" points="16.97,-29.81 19.42,-19.5 11.08,-26.04 16.97,-29.81"/>
</g>
<!-- Node3 -->
<g id="node3" class="node">
<title>Node3</title>
<g id="a_node3"><a xlink:title=" ">
<polygon fill="none" stroke="#bfbfbf" points="13.77,-56.5 13.77,-86.5 165.77,-86.5 165.77,-56.5 13.77,-56.5"/>
<text text-anchor="start" x="21.77" y="-74.5" font-family="Helvetica,sans-Serif" font-size="10.00">clang/ASTMatchers/ASTMatch</text>
<text text-anchor="middle" x="89.77" y="-63.5" font-family="Helvetica,sans-Serif" font-size="10.00">Finder.h</text>
</a>
</g>
</g>
<!-- Node1&#45;&gt;Node3 -->
<g id="edge2" class="edge">
<title>Node1&#45;&gt;Node3</title>
<path fill="none" stroke="midnightblue" d="M89.77,-123.4C89.77,-115.64 89.77,-105.81 89.77,-96.86"/>
<polygon fill="midnightblue" stroke="midnightblue" points="93.27,-96.58 89.77,-86.58 86.27,-96.58 93.27,-96.58"/>
</g>
<!-- Node4 -->
<g id="node4" class="node">
<title>Node4</title>
<g id="a_node4"><a xlink:href="Injection_8hpp.html" target="_top" xlink:title=" ">
<polygon fill="none" stroke="black" points="184.27,-62 184.27,-81 255.27,-81 255.27,-62 184.27,-62"/>
<text text-anchor="middle" x="219.77" y="-69" font-family="Helvetica,sans-Serif" font-size="10.00">Injection.hpp</text>
</a>
</g>
</g>
<!-- Node1&#45;&gt;Node4 -->
<g id="edge3" class="edge">
<title>Node1&#45;&gt;Node4</title>
<path fill="none" stroke="midnightblue" d="M117.98,-123.4C140.48,-112.14 171.77,-96.5 193.69,-85.54"/>
<polygon fill="midnightblue" stroke="midnightblue" points="195.37,-88.61 202.75,-81.01 192.24,-82.35 195.37,-88.61"/>
</g>
<!-- Node4&#45;&gt;Node2 -->
<g id="edge5" class="edge">
<title>Node4&#45;&gt;Node2</title>
<path fill="none" stroke="midnightblue" d="M193.62,-61.98C187.44,-60 180.88,-57.91 174.77,-56 134.5,-43.43 87.94,-29.46 57.74,-20.47"/>
<polygon fill="midnightblue" stroke="midnightblue" points="58.35,-17 47.77,-17.51 56.36,-23.71 58.35,-17"/>
</g>
<!-- Node5 -->
<g id="node5" class="node">
<title>Node5</title>
<g id="a_node5"><a xlink:title=" ">
<polygon fill="none" stroke="#bfbfbf" points="106.27,-0.5 106.27,-19.5 147.27,-19.5 147.27,-0.5 106.27,-0.5"/>
<text text-anchor="middle" x="126.77" y="-7.5" font-family="Helvetica,sans-Serif" font-size="10.00">string</text>
</a>
</g>
</g>
<!-- Node4&#45;&gt;Node5 -->
<g id="edge4" class="edge">
<title>Node4&#45;&gt;Node5</title>
<path fill="none" stroke="midnightblue" d="M206.44,-61.98C191.39,-52.34 166.65,-36.52 148.73,-25.05"/>
<polygon fill="midnightblue" stroke="midnightblue" points="150.38,-21.95 140.07,-19.51 146.6,-27.85 150.38,-21.95"/>
</g>
<!-- Node6 -->
<g id="node6" class="node">
<title>Node6</title>
<g id="a_node6"><a xlink:title=" ">
<polygon fill="none" stroke="#bfbfbf" points="165.77,-0.5 165.77,-19.5 273.77,-19.5 273.77,-0.5 165.77,-0.5"/>
<text text-anchor="middle" x="219.77" y="-7.5" font-family="Helvetica,sans-Serif" font-size="10.00">llvm/ADT/StringRef.h</text>
</a>
</g>
</g>
<!-- Node4&#45;&gt;Node6 -->
<g id="edge6" class="edge">
<title>Node4&#45;&gt;Node6</title>
<path fill="none" stroke="midnightblue" d="M219.77,-61.98C219.77,-53.58 219.77,-40.48 219.77,-29.66"/>
<polygon fill="midnightblue" stroke="midnightblue" points="223.27,-29.51 219.77,-19.51 216.27,-29.51 223.27,-29.51"/>
</g>
<!-- Node7 -->
<g id="node7" class="node">
<title>Node7</title>
<g id="a_node7"><a xlink:title=" ">
<polygon fill="none" stroke="#bfbfbf" points="291.77,-0.5 291.77,-19.5 385.77,-19.5 385.77,-0.5 291.77,-0.5"/>
<text text-anchor="middle" x="338.77" y="-7.5" font-family="Helvetica,sans-Serif" font-size="10.00">clang/AST/Type.h</text>
</a>
</g>
</g>
<!-- Node4&#45;&gt;Node7 -->
<g id="edge7" class="edge">
<title>Node4&#45;&gt;Node7</title>
<path fill="none" stroke="midnightblue" d="M236.82,-61.98C256.61,-52.08 289.48,-35.64 312.54,-24.12"/>
<polygon fill="midnightblue" stroke="midnightblue" points="314.37,-27.11 321.75,-19.51 311.24,-20.85 314.37,-27.11"/>
</g>
</g>
</svg>
