<?xml version="1.0" encoding="UTF-8" standalone="no"?>
<!DOCTYPE svg PUBLIC "-//W3C//DTD SVG 1.1//EN"
 "http://www.w3.org/Graphics/SVG/1.1/DTD/svg11.dtd">
<!-- Generated by graphviz version 2.47.1 (20210515.0534)
 -->
<!-- Title: include/Injection.hpp Pages: 1 -->
<svg width="585pt" height="151pt"
 viewBox="0.00 0.00 584.50 151.00" xmlns="http://www.w3.org/2000/svg" xmlns:xlink="http://www.w3.org/1999/xlink">
<g id="graph0" class="graph" transform="scale(1 1) rotate(0) translate(4 147)">
<title>include/Injection.hpp</title>
<!-- Node1 -->
<g id="node1" class="node">
<title>Node1</title>
<g id="a_node1"><a xlink:title=" ">
<polygon fill="#bfbfbf" stroke="black" points="276,-123.5 276,-142.5 381,-142.5 381,-123.5 276,-123.5"/>
<text text-anchor="middle" x="328.5" y="-130.5" font-family="Helvetica,sans-Serif" font-size="10.00">include/Injection.hpp</text>
</a>
</g>
</g>
<!-- Node2 -->
<g id="node2" class="node">
<title>Node2</title>
<g id="a_node2"><a xlink:href="GetNeededInstantiations_8hpp.html" target="_top" xlink:title=" ">
<polygon fill="none" stroke="black" points="110.5,-56.5 110.5,-86.5 256.5,-86.5 256.5,-56.5 110.5,-56.5"/>
<text text-anchor="start" x="118.5" y="-74.5" font-family="Helvetica,sans-Serif" font-size="10.00">include/Callbacks/GetNeeded</text>
<text text-anchor="middle" x="183.5" y="-63.5" font-family="Helvetica,sans-Serif" font-size="10.00">Instantiations.hpp</text>
</a>
</g>
</g>
<!-- Node1&#45;&gt;Node2 -->
<g id="edge1" class="edge">
<title>Node1&#45;&gt;Node2</title>
<path fill="none" stroke="midnightblue" d="M298.26,-119.59C274.75,-109.94 242.13,-96.56 217.67,-86.52"/>
<polygon fill="midnightblue" stroke="midnightblue" points="297.14,-122.92 307.73,-123.48 299.8,-116.44 297.14,-122.92"/>
</g>
<!-- Node3 -->
<g id="node3" class="node">
<title>Node3</title>
<g id="a_node3"><a xlink:href="GetNeededInstantiations_8cpp.html" target="_top" xlink:title=" ">
<polygon fill="none" stroke="black" points="0,-0.5 0,-19.5 205,-19.5 205,-0.5 0,-0.5"/>
<text text-anchor="middle" x="102.5" y="-7.5" font-family="Helvetica,sans-Serif" font-size="10.00">src/Callbacks/GetNeededInstantiations.cpp</text>
</a>
</g>
</g>
<!-- Node1&#45;&gt;Node3 -->
<g id="edge7" class="edge">
<title>Node1&#45;&gt;Node3</title>
<path fill="none" stroke="midnightblue" d="M265.8,-128.28C205.96,-123.27 121.96,-111.91 101.5,-87 85.59,-67.62 93.85,-35.15 99.16,-19.69"/>
<polygon fill="midnightblue" stroke="midnightblue" points="265.68,-131.79 275.93,-129.09 266.24,-124.81 265.68,-131.79"/>
</g>
<!-- Node4 -->
<g id="node4" class="node">
<title>Node4</title>
<g id="a_node4"><a xlink:href="Instantiator_8cpp.html" target="_top" xlink:title=" ">
<polygon fill="none" stroke="black" points="243,-0.5 243,-19.5 326,-19.5 326,-0.5 243,-0.5"/>
<text text-anchor="middle" x="284.5" y="-7.5" font-family="Helvetica,sans-Serif" font-size="10.00">Instantiator.cpp</text>
</a>
</g>
</g>
<!-- Node1&#45;&gt;Node4 -->
<g id="edge10" class="edge">
<title>Node1&#45;&gt;Node4</title>
<path fill="none" stroke="midnightblue" d="M317.54,-114.78C312.7,-106.61 307.27,-96.56 303.5,-87 294.21,-63.47 288.39,-34.01 285.9,-19.66"/>
<polygon fill="midnightblue" stroke="midnightblue" points="314.59,-116.68 322.81,-123.37 320.56,-113.02 314.59,-116.68"/>
</g>
<!-- Node5 -->
<g id="node5" class="node">
<title>Node5</title>
<g id="a_node5"><a xlink:href="InjectInstantiation_8hpp.html" target="_top" xlink:title=" ">
<polygon fill="none" stroke="black" points="312.5,-56.5 312.5,-86.5 432.5,-86.5 432.5,-56.5 312.5,-56.5"/>
<text text-anchor="start" x="320.5" y="-74.5" font-family="Helvetica,sans-Serif" font-size="10.00">include/Callbacks/Inject</text>
<text text-anchor="middle" x="372.5" y="-63.5" font-family="Helvetica,sans-Serif" font-size="10.00">Instantiation.hpp</text>
</a>
</g>
</g>
<!-- Node1&#45;&gt;Node5 -->
<g id="edge4" class="edge">
<title>Node1&#45;&gt;Node5</title>
<path fill="none" stroke="midnightblue" d="M340.89,-115.25C347.59,-106.19 355.77,-95.12 362.13,-86.52"/>
<polygon fill="midnightblue" stroke="midnightblue" points="337.94,-113.35 334.8,-123.48 343.56,-117.52 337.94,-113.35"/>
</g>
<!-- Node6 -->
<g id="node6" class="node">
<title>Node6</title>
<g id="a_node6"><a xlink:href="InjectInstantiation_8cpp.html" target="_top" xlink:title=" ">
<polygon fill="none" stroke="black" points="358.5,-0.5 358.5,-19.5 532.5,-19.5 532.5,-0.5 358.5,-0.5"/>
<text text-anchor="middle" x="445.5" y="-7.5" font-family="Helvetica,sans-Serif" font-size="10.00">src/Callbacks/InjectInstantiation.cpp</text>
</a>
</g>
</g>
<!-- Node1&#45;&gt;Node6 -->
<g id="edge8" class="edge">
<title>Node1&#45;&gt;Node6</title>
<path fill="none" stroke="midnightblue" d="M391,-120.85C410.24,-114.25 429.5,-103.73 441.5,-87 455.98,-66.82 451.35,-35.29 447.87,-19.97"/>
<polygon fill="midnightblue" stroke="midnightblue" points="389.79,-117.57 381.28,-123.88 391.87,-124.25 389.79,-117.57"/>
</g>
<!-- Node7 -->
<g id="node7" class="node">
<title>Node7</title>
<g id="a_node7"><a xlink:href="Injection_8cpp.html" target="_top" xlink:title=" ">
<polygon fill="none" stroke="black" points="488.5,-62 488.5,-81 576.5,-81 576.5,-62 488.5,-62"/>
<text text-anchor="middle" x="532.5" y="-69" font-family="Helvetica,sans-Serif" font-size="10.00">src/Injection.cpp</text>
</a>
</g>
</g>
<!-- Node1&#45;&gt;Node7 -->
<g id="edge9" class="edge">
<title>Node1&#45;&gt;Node7</title>
<path fill="none" stroke="midnightblue" d="M367.58,-120.6C407.22,-109.04 467.68,-91.41 503.33,-81.01"/>
<polygon fill="midnightblue" stroke="midnightblue" points="366.35,-117.32 357.73,-123.48 368.31,-124.04 366.35,-117.32"/>
</g>
<!-- Node2&#45;&gt;Node3 -->
<g id="edge2" class="edge">
<title>Node2&#45;&gt;Node3</title>
<path fill="none" stroke="midnightblue" d="M155.85,-50.19C141.67,-39.77 125.14,-27.63 114.29,-19.66"/>
<polygon fill="midnightblue" stroke="midnightblue" points="154.17,-53.3 164.3,-56.4 158.32,-47.66 154.17,-53.3"/>
</g>
<!-- Node2&#45;&gt;Node4 -->
<g id="edge3" class="edge">
<title>Node2&#45;&gt;Node4</title>
<path fill="none" stroke="midnightblue" d="M216.48,-51.07C234.49,-40.46 255.88,-27.86 269.8,-19.66"/>
<polygon fill="midnightblue" stroke="midnightblue" points="214.28,-48.31 207.44,-56.4 217.83,-54.34 214.28,-48.31"/>
</g>
<!-- Node5&#45;&gt;Node4 -->
<g id="edge6" class="edge">
<title>Node5&#45;&gt;Node4</title>
<path fill="none" stroke="midnightblue" d="M343.33,-50.78C327.73,-40.23 309.32,-27.78 297.3,-19.66"/>
<polygon fill="midnightblue" stroke="midnightblue" points="341.4,-53.7 351.65,-56.4 345.32,-47.9 341.4,-53.7"/>
</g>
<!-- Node5&#45;&gt;Node6 -->
<g id="edge5" class="edge">
<title>Node5&#45;&gt;Node6</title>
<path fill="none" stroke="midnightblue" d="M397.78,-49.89C410.48,-39.54 425.19,-27.56 434.88,-19.66"/>
<polygon fill="midnightblue" stroke="midnightblue" points="395.34,-47.37 389.8,-56.4 399.76,-52.79 395.34,-47.37"/>
</g>
</g>
</svg>
