<?xml version="1.0" encoding="UTF-8" standalone="no"?>
<!DOCTYPE svg PUBLIC "-//W3C//DTD SVG 1.1//EN"
 "http://www.w3.org/Graphics/SVG/1.1/DTD/svg11.dtd">
<!-- Generated by graphviz version 2.47.1 (20210515.0534)
 -->
<!-- Title: src/Callbacks/InjectInstantiation.cpp Pages: 1 -->
<svg width="922pt" height="218pt"
 viewBox="0.00 0.00 921.67 218.00" xmlns="http://www.w3.org/2000/svg" xmlns:xlink="http://www.w3.org/1999/xlink">
<g id="graph0" class="graph" transform="scale(1 1) rotate(0) translate(4 214)">
<title>src/Callbacks/InjectInstantiation.cpp</title>
<!-- Node1 -->
<g id="node1" class="node">
<title>Node1</title>
<g id="a_node1"><a xlink:title=" ">
<polygon fill="#bfbfbf" stroke="black" points="326.17,-190.5 326.17,-209.5 500.17,-209.5 500.17,-190.5 326.17,-190.5"/>
<text text-anchor="middle" x="413.17" y="-197.5" font-family="Helvetica,sans-Serif" font-size="10.00">src/Callbacks/InjectInstantiation.cpp</text>
</a>
</g>
</g>
<!-- Node2 -->
<g id="node2" class="node">
<title>Node2</title>
<g id="a_node2"><a xlink:href="InjectInstantiation_8hpp.html" target="_top" xlink:title=" ">
<polygon fill="none" stroke="black" points="36.17,-129 36.17,-148 194.17,-148 194.17,-129 36.17,-129"/>
<text text-anchor="middle" x="115.17" y="-136" font-family="Helvetica,sans-Serif" font-size="10.00">Callbacks/InjectInstantiation.hpp</text>
</a>
</g>
</g>
<!-- Node1&#45;&gt;Node2 -->
<g id="edge1" class="edge">
<title>Node1&#45;&gt;Node2</title>
<path fill="none" stroke="midnightblue" d="M370.47,-190.48C317.03,-179.8 225.52,-161.53 167.8,-150.01"/>
<polygon fill="midnightblue" stroke="midnightblue" points="168.28,-146.53 157.79,-148.01 166.91,-153.4 168.28,-146.53"/>
</g>
<!-- Node5 -->
<g id="node5" class="node">
<title>Node5</title>
<g id="a_node5"><a xlink:href="Injection_8hpp.html" target="_top" xlink:title=" ">
<polygon fill="none" stroke="black" points="184.67,-62 184.67,-81 255.67,-81 255.67,-62 184.67,-62"/>
<text text-anchor="middle" x="220.17" y="-69" font-family="Helvetica,sans-Serif" font-size="10.00">Injection.hpp</text>
</a>
</g>
</g>
<!-- Node1&#45;&gt;Node5 -->
<g id="edge15" class="edge">
<title>Node1&#45;&gt;Node5</title>
<path fill="none" stroke="midnightblue" d="M354.77,-190.42C326.93,-184.03 294.48,-172.98 270.17,-154 248.85,-137.36 234.41,-108.89 226.74,-90.39"/>
<polygon fill="midnightblue" stroke="midnightblue" points="229.98,-89.08 223.08,-81.04 223.46,-91.63 229.98,-89.08"/>
</g>
<!-- Node7 -->
<g id="node7" class="node">
<title>Node7</title>
<g id="a_node7"><a xlink:title=" ">
<polygon fill="none" stroke="#bfbfbf" points="257.17,-0.5 257.17,-19.5 365.17,-19.5 365.17,-0.5 257.17,-0.5"/>
<text text-anchor="middle" x="311.17" y="-7.5" font-family="Helvetica,sans-Serif" font-size="10.00">llvm/ADT/StringRef.h</text>
</a>
</g>
</g>
<!-- Node1&#45;&gt;Node7 -->
<g id="edge10" class="edge">
<title>Node1&#45;&gt;Node7</title>
<path fill="none" stroke="midnightblue" d="M359.85,-190.43C338.51,-184.1 315.99,-173.1 303.17,-154 277.61,-115.92 293.03,-58.49 303.65,-29.35"/>
<polygon fill="midnightblue" stroke="midnightblue" points="307.05,-30.26 307.39,-19.67 300.52,-27.74 307.05,-30.26"/>
</g>
<!-- Node9 -->
<g id="node9" class="node">
<title>Node9</title>
<g id="a_node9"><a xlink:title=" ">
<polygon fill="none" stroke="#bfbfbf" points="312.17,-129 312.17,-148 404.17,-148 404.17,-129 312.17,-129"/>
<text text-anchor="middle" x="358.17" y="-136" font-family="Helvetica,sans-Serif" font-size="10.00">llvm/ADT/APInt.h</text>
</a>
</g>
</g>
<!-- Node1&#45;&gt;Node9 -->
<g id="edge9" class="edge">
<title>Node1&#45;&gt;Node9</title>
<path fill="none" stroke="midnightblue" d="M405.29,-190.48C396.88,-181.37 383.35,-166.74 372.94,-155.48"/>
<polygon fill="midnightblue" stroke="midnightblue" points="375.39,-152.98 366.04,-148.01 370.25,-157.73 375.39,-152.98"/>
</g>
<!-- Node10 -->
<g id="node10" class="node">
<title>Node10</title>
<g id="a_node10"><a xlink:title=" ">
<polygon fill="none" stroke="#bfbfbf" points="422.17,-129 422.17,-148 514.17,-148 514.17,-129 422.17,-129"/>
<text text-anchor="middle" x="468.17" y="-136" font-family="Helvetica,sans-Serif" font-size="10.00">clang/AST/Decl.h</text>
</a>
</g>
</g>
<!-- Node1&#45;&gt;Node10 -->
<g id="edge11" class="edge">
<title>Node1&#45;&gt;Node10</title>
<path fill="none" stroke="midnightblue" d="M421.05,-190.48C429.46,-181.37 442.99,-166.74 453.4,-155.48"/>
<polygon fill="midnightblue" stroke="midnightblue" points="456.09,-157.73 460.3,-148.01 450.95,-152.98 456.09,-157.73"/>
</g>
<!-- Node11 -->
<g id="node11" class="node">
<title>Node11</title>
<g id="a_node11"><a xlink:title=" ">
<polygon fill="none" stroke="#bfbfbf" points="532.67,-129 532.67,-148 645.67,-148 645.67,-129 532.67,-129"/>
<text text-anchor="middle" x="589.17" y="-136" font-family="Helvetica,sans-Serif" font-size="10.00">clang/AST/DeclCXX.h</text>
</a>
</g>
</g>
<!-- Node1&#45;&gt;Node11 -->
<g id="edge12" class="edge">
<title>Node1&#45;&gt;Node11</title>
<path fill="none" stroke="midnightblue" d="M438.39,-190.48C468.84,-180.18 520.22,-162.81 554.41,-151.25"/>
<polygon fill="midnightblue" stroke="midnightblue" points="555.65,-154.53 564,-148.01 553.41,-147.9 555.65,-154.53"/>
</g>
<!-- Node12 -->
<g id="node12" class="node">
<title>Node12</title>
<g id="a_node12"><a xlink:title=" ">
<polygon fill="none" stroke="#bfbfbf" points="663.67,-129 663.67,-148 796.67,-148 796.67,-129 663.67,-129"/>
<text text-anchor="middle" x="730.17" y="-136" font-family="Helvetica,sans-Serif" font-size="10.00">clang/AST/DeclTemplate.h</text>
</a>
</g>
</g>
<!-- Node1&#45;&gt;Node12 -->
<g id="edge13" class="edge">
<title>Node1&#45;&gt;Node12</title>
<path fill="none" stroke="midnightblue" d="M459.58,-190.47C508.31,-181.49 587.15,-166.9 655.17,-154 661.91,-152.72 668.99,-151.37 676,-150.02"/>
<polygon fill="midnightblue" stroke="midnightblue" points="677,-153.39 686.16,-148.06 675.68,-146.52 677,-153.39"/>
</g>
<!-- Node13 -->
<g id="node13" class="node">
<title>Node13</title>
<g id="a_node13"><a xlink:title=" ">
<polygon fill="none" stroke="#bfbfbf" points="814.67,-123.5 814.67,-153.5 913.67,-153.5 913.67,-123.5 814.67,-123.5"/>
<text text-anchor="start" x="822.67" y="-141.5" font-family="Helvetica,sans-Serif" font-size="10.00">clang/Rewrite/Core</text>
<text text-anchor="middle" x="864.17" y="-130.5" font-family="Helvetica,sans-Serif" font-size="10.00">/Rewriter.h</text>
</a>
</g>
</g>
<!-- Node1&#45;&gt;Node13 -->
<g id="edge14" class="edge">
<title>Node1&#45;&gt;Node13</title>
<path fill="none" stroke="midnightblue" d="M500.28,-192.32C577.9,-185.61 694.69,-173.67 804.65,-154.14"/>
<polygon fill="midnightblue" stroke="midnightblue" points="805.37,-157.57 814.59,-152.35 804.13,-150.68 805.37,-157.57"/>
</g>
<!-- Node3 -->
<g id="node3" class="node">
<title>Node3</title>
<g id="a_node3"><a xlink:title=" ">
<polygon fill="none" stroke="#bfbfbf" points="7.17,-0.5 7.17,-19.5 51.17,-19.5 51.17,-0.5 7.17,-0.5"/>
<text text-anchor="middle" x="29.17" y="-7.5" font-family="Helvetica,sans-Serif" font-size="10.00">vector</text>
</a>
</g>
</g>
<!-- Node2&#45;&gt;Node3 -->
<g id="edge2" class="edge">
<title>Node2&#45;&gt;Node3</title>
<path fill="none" stroke="midnightblue" d="M70.22,-128.98C46.55,-121.97 19.52,-109.38 5.17,-87 -6.57,-68.7 5.15,-44.22 15.95,-28.05"/>
<polygon fill="midnightblue" stroke="midnightblue" points="19.03,-29.77 22.02,-19.6 13.34,-25.68 19.03,-29.77"/>
</g>
<!-- Node4 -->
<g id="node4" class="node">
<title>Node4</title>
<g id="a_node4"><a xlink:title=" ">
<polygon fill="none" stroke="#bfbfbf" points="14.17,-56.5 14.17,-86.5 166.17,-86.5 166.17,-56.5 14.17,-56.5"/>
<text text-anchor="start" x="22.17" y="-74.5" font-family="Helvetica,sans-Serif" font-size="10.00">clang/ASTMatchers/ASTMatch</text>
<text text-anchor="middle" x="90.17" y="-63.5" font-family="Helvetica,sans-Serif" font-size="10.00">Finder.h</text>
</a>
</g>
</g>
<!-- Node2&#45;&gt;Node4 -->
<g id="edge3" class="edge">
<title>Node2&#45;&gt;Node4</title>
<path fill="none" stroke="midnightblue" d="M111.8,-128.73C108.58,-120.37 103.59,-107.4 99.22,-96.02"/>
<polygon fill="midnightblue" stroke="midnightblue" points="102.45,-94.67 95.59,-86.59 95.91,-97.18 102.45,-94.67"/>
</g>
<!-- Node2&#45;&gt;Node5 -->
<g id="edge4" class="edge">
<title>Node2&#45;&gt;Node5</title>
<path fill="none" stroke="midnightblue" d="M129.33,-128.73C146.88,-117.87 177.01,-99.22 197.73,-86.39"/>
<polygon fill="midnightblue" stroke="midnightblue" points="199.57,-89.37 206.23,-81.13 195.89,-83.41 199.57,-89.37"/>
</g>
<!-- Node5&#45;&gt;Node3 -->
<g id="edge6" class="edge">
<title>Node5&#45;&gt;Node3</title>
<path fill="none" stroke="midnightblue" d="M193.54,-61.86C187.5,-59.92 181.12,-57.88 175.17,-56 136.02,-43.66 90.85,-29.8 61.25,-20.76"/>
<polygon fill="midnightblue" stroke="midnightblue" points="62.04,-17.34 51.46,-17.77 60,-24.04 62.04,-17.34"/>
</g>
<!-- Node6 -->
<g id="node6" class="node">
<title>Node6</title>
<g id="a_node6"><a xlink:title=" ">
<polygon fill="none" stroke="#bfbfbf" points="85.67,-0.5 85.67,-19.5 126.67,-19.5 126.67,-0.5 85.67,-0.5"/>
<text text-anchor="middle" x="106.17" y="-7.5" font-family="Helvetica,sans-Serif" font-size="10.00">string</text>
</a>
</g>
</g>
<!-- Node5&#45;&gt;Node6 -->
<g id="edge5" class="edge">
<title>Node5&#45;&gt;Node6</title>
<path fill="none" stroke="midnightblue" d="M203.84,-61.98C184.96,-52.12 153.66,-35.79 131.59,-24.27"/>
<polygon fill="midnightblue" stroke="midnightblue" points="132.96,-21.03 122.47,-19.51 129.72,-27.24 132.96,-21.03"/>
</g>
<!-- Node5&#45;&gt;Node7 -->
<g id="edge7" class="edge">
<title>Node5&#45;&gt;Node7</title>
<path fill="none" stroke="midnightblue" d="M233.21,-61.98C247.94,-52.34 272.14,-36.52 289.68,-25.05"/>
<polygon fill="midnightblue" stroke="midnightblue" points="291.7,-27.91 298.16,-19.51 287.87,-22.05 291.7,-27.91"/>
</g>
<!-- Node8 -->
<g id="node8" class="node">
<title>Node8</title>
<g id="a_node8"><a xlink:title=" ">
<polygon fill="none" stroke="#bfbfbf" points="145.17,-0.5 145.17,-19.5 239.17,-19.5 239.17,-0.5 145.17,-0.5"/>
<text text-anchor="middle" x="192.17" y="-7.5" font-family="Helvetica,sans-Serif" font-size="10.00">clang/AST/Type.h</text>
</a>
</g>
</g>
<!-- Node5&#45;&gt;Node8 -->
<g id="edge8" class="edge">
<title>Node5&#45;&gt;Node8</title>
<path fill="none" stroke="midnightblue" d="M216.16,-61.98C212.08,-53.32 205.65,-39.65 200.47,-28.65"/>
<polygon fill="midnightblue" stroke="midnightblue" points="203.6,-27.07 196.17,-19.51 197.27,-30.05 203.6,-27.07"/>
</g>
</g>
</svg>
