<?xml version="1.0" encoding="UTF-8" standalone="no"?>
<!DOCTYPE svg PUBLIC "-//W3C//DTD SVG 1.1//EN"
 "http://www.w3.org/Graphics/SVG/1.1/DTD/svg11.dtd">
<!-- Generated by graphviz version 2.47.1 (20210515.0534)
 -->
<!-- Title: Instantiator.cpp Pages: 1 -->
<svg width="2125pt" height="218pt"
 viewBox="0.00 0.00 2124.50 218.00" xmlns="http://www.w3.org/2000/svg" xmlns:xlink="http://www.w3.org/1999/xlink">
<g id="graph0" class="graph" transform="scale(1 1) rotate(0) translate(4 214)">
<title>Instantiator.cpp</title>
<!-- Node1 -->
<g id="node1" class="node">
<title>Node1</title>
<g id="a_node1"><a xlink:title=" ">
<polygon fill="#bfbfbf" stroke="black" points="954.5,-190.5 954.5,-209.5 1037.5,-209.5 1037.5,-190.5 954.5,-190.5"/>
<text text-anchor="middle" x="996" y="-197.5" font-family="Helvetica,sans-Serif" font-size="10.00">Instantiator.cpp</text>
</a>
</g>
</g>
<!-- Node2 -->
<g id="node2" class="node">
<title>Node2</title>
<g id="a_node2"><a xlink:title=" ">
<polygon fill="none" stroke="#bfbfbf" points="0,-129 0,-148 54,-148 54,-129 0,-129"/>
<text text-anchor="middle" x="27" y="-136" font-family="Helvetica,sans-Serif" font-size="10.00">iostream</text>
</a>
</g>
</g>
<!-- Node1&#45;&gt;Node2 -->
<g id="edge1" class="edge">
<title>Node1&#45;&gt;Node2</title>
<path fill="none" stroke="midnightblue" d="M954.31,-198.83C796.58,-197.92 236.56,-192 63,-154 60.16,-153.38 57.26,-152.55 54.39,-151.62"/>
<polygon fill="midnightblue" stroke="midnightblue" points="55.53,-148.3 44.94,-148.1 53.09,-154.86 55.53,-148.3"/>
</g>
<!-- Node3 -->
<g id="node3" class="node">
<title>Node3</title>
<g id="a_node3"><a xlink:title=" ">
<polygon fill="none" stroke="#bfbfbf" points="72,-129 72,-148 118,-148 118,-129 72,-129"/>
<text text-anchor="middle" x="95" y="-136" font-family="Helvetica,sans-Serif" font-size="10.00">ranges</text>
</a>
</g>
</g>
<!-- Node1&#45;&gt;Node3 -->
<g id="edge2" class="edge">
<title>Node1&#45;&gt;Node3</title>
<path fill="none" stroke="midnightblue" d="M954.3,-198.89C803.48,-198.17 286.82,-192.87 127,-154 124.78,-153.46 122.53,-152.77 120.31,-151.98"/>
<polygon fill="midnightblue" stroke="midnightblue" points="121.44,-148.67 110.86,-148.1 118.77,-155.14 121.44,-148.67"/>
</g>
<!-- Node4 -->
<g id="node4" class="node">
<title>Node4</title>
<g id="a_node4"><a xlink:title=" ">
<polygon fill="none" stroke="#bfbfbf" points="136,-129 136,-148 188,-148 188,-129 136,-129"/>
<text text-anchor="middle" x="162" y="-136" font-family="Helvetica,sans-Serif" font-size="10.00">sstream</text>
</a>
</g>
</g>
<!-- Node1&#45;&gt;Node4 -->
<g id="edge3" class="edge">
<title>Node1&#45;&gt;Node4</title>
<path fill="none" stroke="midnightblue" d="M954.29,-198.49C811.53,-196.48 343.28,-187.41 197,-154 194.33,-153.39 191.6,-152.59 188.9,-151.69"/>
<polygon fill="midnightblue" stroke="midnightblue" points="190.02,-148.37 179.43,-148.07 187.52,-154.91 190.02,-148.37"/>
</g>
<!-- Node5 -->
<g id="node5" class="node">
<title>Node5</title>
<g id="a_node5"><a xlink:title=" ">
<polygon fill="none" stroke="#bfbfbf" points="206,-129 206,-148 284,-148 284,-129 206,-129"/>
<text text-anchor="middle" x="245" y="-136" font-family="Helvetica,sans-Serif" font-size="10.00">unordered_set</text>
</a>
</g>
</g>
<!-- Node1&#45;&gt;Node5 -->
<g id="edge4" class="edge">
<title>Node1&#45;&gt;Node5</title>
<path fill="none" stroke="midnightblue" d="M954.4,-199.64C845.05,-200.63 540.93,-198.77 293,-154 288.54,-153.2 283.91,-152.12 279.37,-150.91"/>
<polygon fill="midnightblue" stroke="midnightblue" points="280.23,-147.52 269.65,-148.13 278.3,-154.25 280.23,-147.52"/>
</g>
<!-- Node6 -->
<g id="node6" class="node">
<title>Node6</title>
<g id="a_node6"><a xlink:title=" ">
<polygon fill="none" stroke="#bfbfbf" points="302.5,-129 302.5,-148 421.5,-148 421.5,-129 302.5,-129"/>
<text text-anchor="middle" x="362" y="-136" font-family="Helvetica,sans-Serif" font-size="10.00">termcolor/termcolor.hpp</text>
</a>
</g>
</g>
<!-- Node1&#45;&gt;Node6 -->
<g id="edge5" class="edge">
<title>Node1&#45;&gt;Node6</title>
<path fill="none" stroke="midnightblue" d="M954.25,-197.55C860.22,-193.88 624.84,-182.39 430,-154 422.77,-152.95 415.16,-151.58 407.76,-150.11"/>
<polygon fill="midnightblue" stroke="midnightblue" points="408.34,-146.66 397.84,-148.06 406.92,-153.51 408.34,-146.66"/>
</g>
<!-- Node7 -->
<g id="node7" class="node">
<title>Node7</title>
<g id="a_node7"><a xlink:title=" ">
<polygon fill="none" stroke="#bfbfbf" points="439.5,-129 439.5,-148 602.5,-148 602.5,-129 439.5,-129"/>
<text text-anchor="middle" x="521" y="-136" font-family="Helvetica,sans-Serif" font-size="10.00">clang/Frontend/FrontendActions.h</text>
</a>
</g>
</g>
<!-- Node1&#45;&gt;Node7 -->
<g id="edge6" class="edge">
<title>Node1&#45;&gt;Node7</title>
<path fill="none" stroke="midnightblue" d="M954.45,-194.7C883.92,-187.27 736.34,-171.18 612,-154 602.25,-152.65 591.94,-151.12 581.89,-149.56"/>
<polygon fill="midnightblue" stroke="midnightblue" points="582.38,-146.09 571.96,-148 581.3,-153.01 582.38,-146.09"/>
</g>
<!-- Node8 -->
<g id="node8" class="node">
<title>Node8</title>
<g id="a_node8"><a xlink:title=" ">
<polygon fill="none" stroke="#bfbfbf" points="621,-123.5 621,-153.5 771,-153.5 771,-123.5 621,-123.5"/>
<text text-anchor="start" x="629" y="-141.5" font-family="Helvetica,sans-Serif" font-size="10.00">clang/Tooling/CommonOptions</text>
<text text-anchor="middle" x="696" y="-130.5" font-family="Helvetica,sans-Serif" font-size="10.00">Parser.h</text>
</a>
</g>
</g>
<!-- Node1&#45;&gt;Node8 -->
<g id="edge7" class="edge">
<title>Node1&#45;&gt;Node8</title>
<path fill="none" stroke="midnightblue" d="M954.29,-190.73C908.57,-181.66 834.12,-166.89 776.87,-155.54"/>
<polygon fill="midnightblue" stroke="midnightblue" points="777.24,-152.04 766.75,-153.53 775.88,-158.91 777.24,-152.04"/>
</g>
<!-- Node9 -->
<g id="node9" class="node">
<title>Node9</title>
<g id="a_node9"><a xlink:title=" ">
<polygon fill="none" stroke="#bfbfbf" points="789,-129 789,-148 905,-148 905,-129 789,-129"/>
<text text-anchor="middle" x="847" y="-136" font-family="Helvetica,sans-Serif" font-size="10.00">clang/Tooling/Tooling.h</text>
</a>
</g>
</g>
<!-- Node1&#45;&gt;Node9 -->
<g id="edge8" class="edge">
<title>Node1&#45;&gt;Node9</title>
<path fill="none" stroke="midnightblue" d="M974.65,-190.48C949.31,-180.36 906.86,-163.4 877.93,-151.85"/>
<polygon fill="midnightblue" stroke="midnightblue" points="878.89,-148.47 868.31,-148.01 876.3,-154.97 878.89,-148.47"/>
</g>
<!-- Node10 -->
<g id="node10" class="node">
<title>Node10</title>
<g id="a_node10"><a xlink:title=" ">
<polygon fill="none" stroke="#bfbfbf" points="923.5,-129 923.5,-148 1068.5,-148 1068.5,-129 923.5,-129"/>
<text text-anchor="middle" x="996" y="-136" font-family="Helvetica,sans-Serif" font-size="10.00">llvm/Support/CommandLine.h</text>
</a>
</g>
</g>
<!-- Node1&#45;&gt;Node10 -->
<g id="edge9" class="edge">
<title>Node1&#45;&gt;Node10</title>
<path fill="none" stroke="midnightblue" d="M996,-190.48C996,-182.08 996,-168.98 996,-158.16"/>
<polygon fill="midnightblue" stroke="midnightblue" points="999.5,-158.01 996,-148.01 992.5,-158.01 999.5,-158.01"/>
</g>
<!-- Node11 -->
<g id="node11" class="node">
<title>Node11</title>
<g id="a_node11"><a xlink:title=" ">
<polygon fill="none" stroke="#bfbfbf" points="1087,-129 1087,-148 1215,-148 1215,-129 1087,-129"/>
<text text-anchor="middle" x="1151" y="-136" font-family="Helvetica,sans-Serif" font-size="10.00">clang/AST/ASTImporter.h</text>
</a>
</g>
</g>
<!-- Node1&#45;&gt;Node11 -->
<g id="edge10" class="edge">
<title>Node1&#45;&gt;Node11</title>
<path fill="none" stroke="midnightblue" d="M1018.21,-190.48C1044.68,-180.31 1089.11,-163.26 1119.22,-151.7"/>
<polygon fill="midnightblue" stroke="midnightblue" points="1120.75,-154.86 1128.83,-148.01 1118.24,-148.33 1120.75,-154.86"/>
</g>
<!-- Node12 -->
<g id="node12" class="node">
<title>Node12</title>
<g id="a_node12"><a xlink:title=" ">
<polygon fill="none" stroke="#bfbfbf" points="1368,-56.5 1368,-86.5 1520,-86.5 1520,-56.5 1368,-56.5"/>
<text text-anchor="start" x="1376" y="-74.5" font-family="Helvetica,sans-Serif" font-size="10.00">clang/ASTMatchers/ASTMatch</text>
<text text-anchor="middle" x="1444" y="-63.5" font-family="Helvetica,sans-Serif" font-size="10.00">Finder.h</text>
</a>
</g>
</g>
<!-- Node1&#45;&gt;Node12 -->
<g id="edge11" class="edge">
<title>Node1&#45;&gt;Node12</title>
<path fill="none" stroke="midnightblue" d="M1037.81,-197.5C1141.04,-193.39 1401.68,-180.49 1430,-154 1445.34,-139.65 1447.72,-115.09 1446.94,-96.67"/>
<polygon fill="midnightblue" stroke="midnightblue" points="1450.43,-96.37 1446.19,-86.66 1443.45,-96.89 1450.43,-96.37"/>
</g>
<!-- Node13 -->
<g id="node13" class="node">
<title>Node13</title>
<g id="a_node13"><a xlink:title=" ">
<polygon fill="none" stroke="#bfbfbf" points="1691.5,-129 1691.5,-148 1864.5,-148 1864.5,-129 1691.5,-129"/>
<text text-anchor="middle" x="1778" y="-136" font-family="Helvetica,sans-Serif" font-size="10.00">clang/ASTMatchers/ASTMatchers.h</text>
</a>
</g>
</g>
<!-- Node1&#45;&gt;Node13 -->
<g id="edge12" class="edge">
<title>Node1&#45;&gt;Node13</title>
<path fill="none" stroke="midnightblue" d="M1037.55,-197.36C1144.05,-192.93 1435.42,-179.29 1677,-154 1688.97,-152.75 1701.71,-151.14 1713.96,-149.45"/>
<polygon fill="midnightblue" stroke="midnightblue" points="1714.69,-152.88 1724.11,-148.02 1713.72,-145.95 1714.69,-152.88"/>
</g>
<!-- Node14 -->
<g id="node14" class="node">
<title>Node14</title>
<g id="a_node14"><a xlink:title=" ">
<polygon fill="none" stroke="#bfbfbf" points="1882.5,-123.5 1882.5,-153.5 1981.5,-153.5 1981.5,-123.5 1882.5,-123.5"/>
<text text-anchor="start" x="1890.5" y="-141.5" font-family="Helvetica,sans-Serif" font-size="10.00">clang/Rewrite/Core</text>
<text text-anchor="middle" x="1932" y="-130.5" font-family="Helvetica,sans-Serif" font-size="10.00">/Rewriter.h</text>
</a>
</g>
</g>
<!-- Node1&#45;&gt;Node14 -->
<g id="edge13" class="edge">
<title>Node1&#45;&gt;Node14</title>
<path fill="none" stroke="midnightblue" d="M1037.68,-197.94C1186.25,-193.98 1690.36,-179.1 1872.47,-153.99"/>
<polygon fill="midnightblue" stroke="midnightblue" points="1873.05,-157.45 1882.45,-152.56 1872.06,-150.52 1873.05,-157.45"/>
</g>
<!-- Node15 -->
<g id="node15" class="node">
<title>Node15</title>
<g id="a_node15"><a xlink:title=" ">
<polygon fill="none" stroke="#bfbfbf" points="1999.5,-123.5 1999.5,-153.5 2116.5,-153.5 2116.5,-123.5 1999.5,-123.5"/>
<text text-anchor="start" x="2007.5" y="-141.5" font-family="Helvetica,sans-Serif" font-size="10.00">clang/Rewrite/Frontend</text>
<text text-anchor="middle" x="2058" y="-130.5" font-family="Helvetica,sans-Serif" font-size="10.00">/Rewriters.h</text>
</a>
</g>
</g>
<!-- Node1&#45;&gt;Node15 -->
<g id="edge14" class="edge">
<title>Node1&#45;&gt;Node15</title>
<path fill="none" stroke="midnightblue" d="M1037.74,-198.05C1199.03,-194.22 1782.34,-179.04 1989.12,-154.07"/>
<polygon fill="midnightblue" stroke="midnightblue" points="1989.78,-157.51 1999.27,-152.79 1988.91,-150.57 1989.78,-157.51"/>
</g>
<!-- Node16 -->
<g id="node16" class="node">
<title>Node16</title>
<g id="a_node16"><a xlink:href="Injection_8hpp.html" target="_top" xlink:title=" ">
<polygon fill="none" stroke="black" points="1576.5,-62 1576.5,-81 1647.5,-81 1647.5,-62 1576.5,-62"/>
<text text-anchor="middle" x="1612" y="-69" font-family="Helvetica,sans-Serif" font-size="10.00">Injection.hpp</text>
</a>
</g>
</g>
<!-- Node1&#45;&gt;Node16 -->
<g id="edge15" class="edge">
<title>Node1&#45;&gt;Node16</title>
<path fill="none" stroke="midnightblue" d="M1037.83,-199.32C1174.69,-199.93 1602.7,-198.27 1644,-154 1661.11,-135.66 1642.87,-107.11 1627.74,-89.12"/>
<polygon fill="midnightblue" stroke="midnightblue" points="1629.99,-86.38 1620.73,-81.23 1624.76,-91.03 1629.99,-86.38"/>
</g>
<!-- Node21 -->
<g id="node21" class="node">
<title>Node21</title>
<g id="a_node21"><a xlink:href="GetNeededInstantiations_8hpp.html" target="_top" xlink:title=" ">
<polygon fill="none" stroke="black" points="1233,-129 1233,-148 1421,-148 1421,-129 1233,-129"/>
<text text-anchor="middle" x="1327" y="-136" font-family="Helvetica,sans-Serif" font-size="10.00">Callbacks/GetNeededInstantiations.hpp</text>
</a>
</g>
</g>
<!-- Node1&#45;&gt;Node21 -->
<g id="edge20" class="edge">
<title>Node1&#45;&gt;Node21</title>
<path fill="none" stroke="midnightblue" d="M1037.59,-191.52C1096.3,-180.97 1203.69,-161.67 1269.86,-149.77"/>
<polygon fill="midnightblue" stroke="midnightblue" points="1270.49,-153.21 1279.71,-148 1269.25,-146.33 1270.49,-153.21"/>
</g>
<!-- Node22 -->
<g id="node22" class="node">
<title>Node22</title>
<g id="a_node22"><a xlink:href="InjectInstantiation_8hpp.html" target="_top" xlink:title=" ">
<polygon fill="none" stroke="black" points="1477,-129 1477,-148 1635,-148 1635,-129 1477,-129"/>
<text text-anchor="middle" x="1556" y="-136" font-family="Helvetica,sans-Serif" font-size="10.00">Callbacks/InjectInstantiation.hpp</text>
</a>
</g>
</g>
<!-- Node1&#45;&gt;Node22 -->
<g id="edge24" class="edge">
<title>Node1&#45;&gt;Node22</title>
<path fill="none" stroke="midnightblue" d="M1037.64,-195.81C1119.36,-189.37 1306.43,-173.73 1463,-154 1473.32,-152.7 1484.26,-151.15 1494.87,-149.55"/>
<polygon fill="midnightblue" stroke="midnightblue" points="1495.56,-152.99 1504.91,-148.02 1494.5,-146.07 1495.56,-152.99"/>
</g>
<!-- Node17 -->
<g id="node17" class="node">
<title>Node17</title>
<g id="a_node17"><a xlink:title=" ">
<polygon fill="none" stroke="#bfbfbf" points="1543.5,-0.5 1543.5,-19.5 1584.5,-19.5 1584.5,-0.5 1543.5,-0.5"/>
<text text-anchor="middle" x="1564" y="-7.5" font-family="Helvetica,sans-Serif" font-size="10.00">string</text>
</a>
</g>
</g>
<!-- Node16&#45;&gt;Node17 -->
<g id="edge16" class="edge">
<title>Node16&#45;&gt;Node17</title>
<path fill="none" stroke="midnightblue" d="M1605.12,-61.98C1597.85,-52.96 1586.2,-38.52 1577.16,-27.31"/>
<polygon fill="midnightblue" stroke="midnightblue" points="1579.87,-25.09 1570.86,-19.51 1574.42,-29.49 1579.87,-25.09"/>
</g>
<!-- Node18 -->
<g id="node18" class="node">
<title>Node18</title>
<g id="a_node18"><a xlink:title=" ">
<polygon fill="none" stroke="#bfbfbf" points="1481,-0.5 1481,-19.5 1525,-19.5 1525,-0.5 1481,-0.5"/>
<text text-anchor="middle" x="1503" y="-7.5" font-family="Helvetica,sans-Serif" font-size="10.00">vector</text>
</a>
</g>
</g>
<!-- Node16&#45;&gt;Node18 -->
<g id="edge17" class="edge">
<title>Node16&#45;&gt;Node18</title>
<path fill="none" stroke="midnightblue" d="M1596.38,-61.98C1578.41,-52.17 1548.68,-35.93 1527.59,-24.42"/>
<polygon fill="midnightblue" stroke="midnightblue" points="1529.04,-21.23 1518.59,-19.51 1525.69,-27.37 1529.04,-21.23"/>
</g>
<!-- Node19 -->
<g id="node19" class="node">
<title>Node19</title>
<g id="a_node19"><a xlink:title=" ">
<polygon fill="none" stroke="#bfbfbf" points="1603,-0.5 1603,-19.5 1711,-19.5 1711,-0.5 1603,-0.5"/>
<text text-anchor="middle" x="1657" y="-7.5" font-family="Helvetica,sans-Serif" font-size="10.00">llvm/ADT/StringRef.h</text>
</a>
</g>
</g>
<!-- Node16&#45;&gt;Node19 -->
<g id="edge18" class="edge">
<title>Node16&#45;&gt;Node19</title>
<path fill="none" stroke="midnightblue" d="M1618.45,-61.98C1625.2,-53.05 1635.97,-38.81 1644.41,-27.64"/>
<polygon fill="midnightblue" stroke="midnightblue" points="1647.32,-29.6 1650.56,-19.51 1641.74,-25.37 1647.32,-29.6"/>
</g>
<!-- Node20 -->
<g id="node20" class="node">
<title>Node20</title>
<g id="a_node20"><a xlink:title=" ">
<polygon fill="none" stroke="#bfbfbf" points="1729,-0.5 1729,-19.5 1823,-19.5 1823,-0.5 1729,-0.5"/>
<text text-anchor="middle" x="1776" y="-7.5" font-family="Helvetica,sans-Serif" font-size="10.00">clang/AST/Type.h</text>
</a>
</g>
</g>
<!-- Node16&#45;&gt;Node20 -->
<g id="edge19" class="edge">
<title>Node16&#45;&gt;Node20</title>
<path fill="none" stroke="midnightblue" d="M1635.5,-61.98C1663.63,-51.77 1710.93,-34.61 1742.79,-23.05"/>
<polygon fill="midnightblue" stroke="midnightblue" points="1744.34,-26.21 1752.55,-19.51 1741.95,-19.63 1744.34,-26.21"/>
</g>
<!-- Node21&#45;&gt;Node12 -->
<g id="edge22" class="edge">
<title>Node21&#45;&gt;Node12</title>
<path fill="none" stroke="midnightblue" d="M1342.78,-128.73C1359.88,-119.23 1387.7,-103.78 1409.85,-91.47"/>
<polygon fill="midnightblue" stroke="midnightblue" points="1411.6,-94.51 1418.64,-86.59 1408.2,-88.39 1411.6,-94.51"/>
</g>
<!-- Node21&#45;&gt;Node16 -->
<g id="edge23" class="edge">
<title>Node21&#45;&gt;Node16</title>
<path fill="none" stroke="midnightblue" d="M1364.55,-128.94C1416.49,-117.09 1510.17,-95.73 1566.16,-82.95"/>
<polygon fill="midnightblue" stroke="midnightblue" points="1567.19,-86.31 1576.16,-80.67 1565.64,-79.48 1567.19,-86.31"/>
</g>
<!-- Node21&#45;&gt;Node18 -->
<g id="edge21" class="edge">
<title>Node21&#45;&gt;Node18</title>
<path fill="none" stroke="midnightblue" d="M1327.96,-128.75C1330.24,-112.16 1337.53,-75.99 1359,-56 1389.74,-27.37 1438.48,-16.95 1470.6,-13.16"/>
<polygon fill="midnightblue" stroke="midnightblue" points="1471.22,-16.62 1480.81,-12.12 1470.5,-9.66 1471.22,-16.62"/>
</g>
<!-- Node22&#45;&gt;Node12 -->
<g id="edge26" class="edge">
<title>Node22&#45;&gt;Node12</title>
<path fill="none" stroke="midnightblue" d="M1540.9,-128.73C1524.59,-119.27 1498.13,-103.91 1476.97,-91.64"/>
<polygon fill="midnightblue" stroke="midnightblue" points="1478.68,-88.58 1468.28,-86.59 1475.17,-94.64 1478.68,-88.58"/>
</g>
<!-- Node22&#45;&gt;Node16 -->
<g id="edge27" class="edge">
<title>Node22&#45;&gt;Node16</title>
<path fill="none" stroke="midnightblue" d="M1563.55,-128.73C1572.28,-118.6 1586.85,-101.69 1597.74,-89.06"/>
<polygon fill="midnightblue" stroke="midnightblue" points="1600.69,-90.99 1604.57,-81.13 1595.39,-86.42 1600.69,-90.99"/>
</g>
<!-- Node22&#45;&gt;Node18 -->
<g id="edge25" class="edge">
<title>Node22&#45;&gt;Node18</title>
<path fill="none" stroke="midnightblue" d="M1553.73,-128.72C1549.66,-113.53 1540.48,-81.57 1529,-56 1524.75,-46.53 1519.07,-36.49 1514.11,-28.3"/>
<polygon fill="midnightblue" stroke="midnightblue" points="1516.99,-26.32 1508.73,-19.68 1511.05,-30.02 1516.99,-26.32"/>
</g>
</g>
</svg>
