<?xml version="1.0" encoding="UTF-8" standalone="no"?>
<!DOCTYPE svg PUBLIC "-//W3C//DTD SVG 1.1//EN"
 "http://www.w3.org/Graphics/SVG/1.1/DTD/svg11.dtd">
<!-- Generated by graphviz version 2.47.1 (20210515.0534)
 -->
<!-- Title: Injection Pages: 1 -->
<svg width="355pt" height="287pt"
 viewBox="0.00 0.00 355.00 287.00" xmlns="http://www.w3.org/2000/svg" xmlns:xlink="http://www.w3.org/1999/xlink">
<g id="graph0" class="graph" transform="scale(1 1) rotate(0) translate(4 283)">
<title>Injection</title>
<!-- Node1 -->
<g id="node1" class="node">
<title>Node1</title>
<g id="a_node1"><a xlink:title=" ">
<polygon fill="#bfbfbf" stroke="black" points="150,-0.5 150,-19.5 203,-19.5 203,-0.5 150,-0.5"/>
<text text-anchor="middle" x="176.5" y="-7.5" font-family="Helvetica,sans-Serif" font-size="10.00">Injection</text>
</a>
</g>
</g>
<!-- Node2 -->
<g id="node2" class="node">
<title>Node2</title>
<g id="a_node2"><a xlink:title=" ">
<polygon fill="none" stroke="#bfbfbf" points="17,-191.5 17,-210.5 76,-210.5 76,-191.5 17,-191.5"/>
<text text-anchor="middle" x="46.5" y="-198.5" font-family="Helvetica,sans-Serif" font-size="10.00">std::string</text>
</a>
</g>
</g>
<!-- Node2&#45;&gt;Node1 -->
<g id="edge1" class="edge">
<title>Node2&#45;&gt;Node1</title>
<path fill="none" stroke="#9a32cd" stroke-dasharray="5,2" d="M39.54,-181.88C31.86,-158.66 22.66,-117.97 39.5,-89 63.23,-48.18 117.18,-26.96 149.86,-17.45"/>
<polygon fill="#9a32cd" stroke="#9a32cd" points="36.31,-183.23 42.97,-191.48 42.9,-180.88 36.31,-183.23"/>
<text text-anchor="middle" x="73.5" y="-136" font-family="Helvetica,sans-Serif" font-size="10.00"> class_name</text>
<text text-anchor="middle" x="73.5" y="-125" font-family="Helvetica,sans-Serif" font-size="10.00">func_name</text>
<text text-anchor="start" x="39.5" y="-114" font-family="Helvetica,sans-Serif" font-size="10.00">guess_injection</text>
<text text-anchor="middle" x="73.5" y="-103" font-family="Helvetica,sans-Serif" font-size="10.00">_place</text>
<text text-anchor="middle" x="73.5" y="-92" font-family="Helvetica,sans-Serif" font-size="10.00">return_type</text>
</g>
<!-- Node5 -->
<g id="node5" class="node">
<title>Node5</title>
<g id="a_node5"><a xlink:title=" ">
<polygon fill="none" stroke="#bfbfbf" points="116.5,-107 116.5,-126 236.5,-126 236.5,-107 116.5,-107"/>
<text text-anchor="middle" x="176.5" y="-114" font-family="Helvetica,sans-Serif" font-size="10.00">std::vector&lt; std::string &gt;</text>
</a>
</g>
</g>
<!-- Node2&#45;&gt;Node5 -->
<g id="edge5" class="edge">
<title>Node2&#45;&gt;Node5</title>
<path fill="none" stroke="#9a32cd" stroke-dasharray="5,2" d="M68.68,-185.92C95.73,-168.76 140.59,-140.29 162.96,-126.1"/>
<polygon fill="#9a32cd" stroke="#9a32cd" points="66.49,-183.17 59.92,-191.48 70.24,-189.08 66.49,-183.17"/>
<text text-anchor="middle" x="126" y="-165" font-family="Helvetica,sans-Serif" font-size="10.00"> elements</text>
</g>
<!-- Node3 -->
<g id="node3" class="node">
<title>Node3</title>
<g id="a_node3"><a xlink:title=" ">
<polygon fill="none" stroke="#bfbfbf" points="0,-248.5 0,-278.5 93,-278.5 93,-248.5 0,-248.5"/>
<text text-anchor="start" x="8" y="-266.5" font-family="Helvetica,sans-Serif" font-size="10.00">std::basic_string&lt;</text>
<text text-anchor="middle" x="46.5" y="-255.5" font-family="Helvetica,sans-Serif" font-size="10.00"> Char &gt;</text>
</a>
</g>
</g>
<!-- Node3&#45;&gt;Node2 -->
<g id="edge2" class="edge">
<title>Node3&#45;&gt;Node2</title>
<path fill="none" stroke="midnightblue" d="M46.5,-238.35C46.5,-228.51 46.5,-217.78 46.5,-210.54"/>
<polygon fill="midnightblue" stroke="midnightblue" points="43,-238.47 46.5,-248.47 50,-238.47 43,-238.47"/>
</g>
<!-- Node4 -->
<g id="node4" class="node">
<title>Node4</title>
<g id="a_node4"><a xlink:title=" ">
<polygon fill="none" stroke="#bfbfbf" points="254,-101.5 254,-131.5 347,-131.5 347,-101.5 254,-101.5"/>
<text text-anchor="start" x="262" y="-119.5" font-family="Helvetica,sans-Serif" font-size="10.00">std::vector&lt; clang</text>
<text text-anchor="middle" x="300.5" y="-108.5" font-family="Helvetica,sans-Serif" font-size="10.00">::QualType &gt;</text>
</a>
</g>
</g>
<!-- Node4&#45;&gt;Node1 -->
<g id="edge3" class="edge">
<title>Node4&#45;&gt;Node1</title>
<path fill="none" stroke="#9a32cd" stroke-dasharray="5,2" d="M287.96,-92.58C277.66,-75.56 261.68,-52.83 242.5,-38 230.94,-29.06 216.02,-22.63 203.29,-18.29"/>
<polygon fill="#9a32cd" stroke="#9a32cd" points="285.02,-94.48 293.08,-101.36 291.07,-90.96 285.02,-94.48"/>
<text text-anchor="middle" x="290" y="-52" font-family="Helvetica,sans-Serif" font-size="10.00"> params</text>
</g>
<!-- Node5&#45;&gt;Node1 -->
<g id="edge4" class="edge">
<title>Node5&#45;&gt;Node1</title>
<path fill="none" stroke="#9a32cd" stroke-dasharray="5,2" d="M176.5,-96.84C176.5,-74.08 176.5,-36.53 176.5,-19.67"/>
<polygon fill="#9a32cd" stroke="#9a32cd" points="173,-96.95 176.5,-106.95 180,-96.95 173,-96.95"/>
<text text-anchor="middle" x="207.5" y="-63" font-family="Helvetica,sans-Serif" font-size="10.00"> class_Ttypes</text>
<text text-anchor="middle" x="207.5" y="-52" font-family="Helvetica,sans-Serif" font-size="10.00">func_Ttypes</text>
<text text-anchor="middle" x="207.5" y="-41" font-family="Helvetica,sans-Serif" font-size="10.00">params_name</text>
</g>
</g>
</svg>
